G75*
%MOIN*%
%OFA0B0*%
%FSLAX25Y25*%
%IPPOS*%
%LPD*%
%AMOC8*
5,1,8,0,0,1.08239X$1,22.5*
%
%ADD10C,0.03937*%
%ADD11R,0.03346X0.08661*%
%ADD12R,0.03937X0.04134*%
%ADD13R,0.09449X0.09449*%
%ADD14R,0.09843X0.09843*%
%ADD15R,0.05512X0.06850*%
%ADD16R,0.12598X0.06299*%
%ADD17R,0.05118X0.05197*%
%ADD18R,0.06339X0.05118*%
%ADD19R,0.08661X0.03346*%
%ADD20R,0.04134X0.03937*%
%ADD21R,0.04331X0.01969*%
%ADD22R,0.03346X0.03543*%
%ADD23R,0.06063X0.06063*%
%ADD24R,0.06339X0.04921*%
%ADD25R,0.03150X0.06299*%
%ADD26R,0.03150X0.02559*%
%ADD27C,0.00300*%
%ADD28C,0.00800*%
%ADD29C,0.00600*%
%ADD30C,0.02400*%
%ADD31C,0.00197*%
%ADD32C,0.03460*%
%ADD33C,0.01900*%
%ADD34C,0.06500*%
D10*
X0076000Y0058000D03*
X0266000Y0192000D03*
D11*
X0213413Y0181000D03*
X0202587Y0181000D03*
X0086913Y0164000D03*
X0076087Y0164000D03*
X0294815Y0070000D03*
X0305642Y0070000D03*
X0135413Y0065500D03*
X0124587Y0065500D03*
D12*
X0130000Y0059496D03*
X0130000Y0071504D03*
X0300228Y0076004D03*
X0300228Y0063996D03*
X0081500Y0157996D03*
X0081500Y0170004D03*
X0208000Y0174996D03*
X0208000Y0187004D03*
D13*
X0118276Y0082323D03*
D14*
G36*
X0104355Y0126447D02*
X0099434Y0117924D01*
X0090911Y0122845D01*
X0095832Y0131368D01*
X0104355Y0126447D01*
G37*
G36*
X0146566Y0117924D02*
X0141645Y0126447D01*
X0150168Y0131368D01*
X0155089Y0122845D01*
X0146566Y0117924D01*
G37*
D15*
X0129890Y0081339D03*
D16*
X0202626Y0060079D03*
X0233374Y0060079D03*
X0233374Y0099921D03*
D17*
X0204043Y0100472D03*
D18*
X0197016Y0093386D03*
D19*
X0183000Y0088087D03*
X0183000Y0098913D03*
X0283000Y0149587D03*
X0283000Y0160413D03*
D20*
X0276996Y0155000D03*
X0289004Y0155000D03*
X0189004Y0093500D03*
X0176996Y0093500D03*
D21*
X0272291Y0061665D03*
X0283709Y0061665D03*
X0283709Y0057335D03*
X0272291Y0057335D03*
D22*
X0291217Y0061500D03*
X0295783Y0061500D03*
D23*
X0096677Y0181181D03*
X0081323Y0181181D03*
X0081323Y0188819D03*
X0096677Y0188819D03*
D24*
X0303000Y0186311D03*
X0303000Y0162689D03*
D25*
X0239299Y0190000D03*
D26*
X0226701Y0188130D03*
X0226701Y0191870D03*
D27*
X0184760Y0174366D02*
X0184720Y0174406D01*
X0184563Y0174524D01*
X0184012Y0174799D01*
X0183657Y0174878D01*
X0183264Y0174878D01*
X0182831Y0174799D01*
X0182398Y0174563D01*
X0182043Y0174287D01*
X0181846Y0173972D01*
X0181728Y0173618D01*
X0181728Y0173303D01*
X0181807Y0172949D01*
X0182004Y0172594D01*
X0182280Y0172280D01*
X0182594Y0171925D01*
X0182870Y0171650D01*
X0182988Y0171335D01*
X0182988Y0171059D01*
X0182909Y0170823D01*
X0182752Y0170626D01*
X0182516Y0170469D01*
X0182201Y0170390D01*
X0181886Y0170390D01*
X0181689Y0170429D01*
X0181492Y0170508D01*
X0181256Y0170744D01*
X0181177Y0170862D01*
X0181138Y0170980D01*
X0181138Y0171138D01*
X0181177Y0171256D01*
X0181413Y0171492D01*
X0181531Y0171531D01*
X0181689Y0171610D01*
X0181728Y0171650D01*
X0181571Y0171728D01*
X0181098Y0171728D01*
X0180862Y0171689D01*
X0180665Y0171650D01*
X0180469Y0171571D01*
X0180311Y0171453D01*
X0180114Y0171295D01*
X0179878Y0170902D01*
X0179799Y0170626D01*
X0179760Y0170311D01*
X0179760Y0164917D01*
X0179957Y0165114D01*
X0180075Y0165311D01*
X0180272Y0165508D01*
X0180469Y0165744D01*
X0180941Y0166217D01*
X0181413Y0166768D01*
X0181807Y0167161D01*
X0182201Y0167398D01*
X0182437Y0167437D01*
X0183185Y0167437D01*
X0183657Y0167516D01*
X0184091Y0167634D01*
X0184484Y0167791D01*
X0184878Y0168028D01*
X0185193Y0168303D01*
X0185508Y0168618D01*
X0185783Y0168972D01*
X0186177Y0169681D01*
X0186374Y0170429D01*
X0186413Y0171098D01*
X0186295Y0171728D01*
X0186098Y0172319D01*
X0185823Y0172752D01*
X0185508Y0173106D01*
X0185193Y0173303D01*
X0185193Y0172949D01*
X0185154Y0172831D01*
X0185114Y0172752D01*
X0184996Y0172634D01*
X0184878Y0172594D01*
X0184760Y0172594D01*
X0184445Y0172673D01*
X0184287Y0172752D01*
X0184169Y0172831D01*
X0184012Y0172949D01*
X0183776Y0173185D01*
X0183618Y0173421D01*
X0183579Y0173579D01*
X0183579Y0173815D01*
X0183618Y0173933D01*
X0183657Y0174012D01*
X0183736Y0174130D01*
X0183894Y0174248D01*
X0184051Y0174327D01*
X0184248Y0174366D01*
X0184406Y0174406D01*
X0184642Y0174406D01*
X0184720Y0174366D01*
X0184760Y0174366D01*
X0184721Y0174405D02*
X0184644Y0174405D01*
X0184402Y0174405D02*
X0182194Y0174405D01*
X0181930Y0174106D02*
X0183720Y0174106D01*
X0183579Y0173808D02*
X0181791Y0173808D01*
X0181728Y0173509D02*
X0183596Y0173509D01*
X0183759Y0173210D02*
X0181749Y0173210D01*
X0181828Y0172912D02*
X0184061Y0172912D01*
X0184684Y0172613D02*
X0181993Y0172613D01*
X0182249Y0172315D02*
X0186100Y0172315D01*
X0186199Y0172016D02*
X0182513Y0172016D01*
X0182802Y0171718D02*
X0186297Y0171718D01*
X0186353Y0171419D02*
X0182956Y0171419D01*
X0182988Y0171121D02*
X0186409Y0171121D01*
X0186397Y0170822D02*
X0182909Y0170822D01*
X0182599Y0170524D02*
X0186380Y0170524D01*
X0186320Y0170225D02*
X0179760Y0170225D01*
X0179760Y0169927D02*
X0186242Y0169927D01*
X0186148Y0169628D02*
X0179760Y0169628D01*
X0179760Y0169330D02*
X0185982Y0169330D01*
X0185816Y0169031D02*
X0179760Y0169031D01*
X0179760Y0168733D02*
X0185597Y0168733D01*
X0185324Y0168434D02*
X0179760Y0168434D01*
X0179760Y0168136D02*
X0185002Y0168136D01*
X0184561Y0167837D02*
X0179760Y0167837D01*
X0179760Y0167539D02*
X0183742Y0167539D01*
X0181938Y0167240D02*
X0179760Y0167240D01*
X0179760Y0166942D02*
X0181587Y0166942D01*
X0181307Y0166643D02*
X0179760Y0166643D01*
X0179760Y0166345D02*
X0181051Y0166345D01*
X0180771Y0166046D02*
X0179760Y0166046D01*
X0179760Y0165748D02*
X0180472Y0165748D01*
X0180213Y0165449D02*
X0179760Y0165449D01*
X0179760Y0165151D02*
X0179979Y0165151D01*
X0179786Y0170524D02*
X0181476Y0170524D01*
X0181204Y0170822D02*
X0179855Y0170822D01*
X0180010Y0171121D02*
X0181138Y0171121D01*
X0181341Y0171419D02*
X0180269Y0171419D01*
X0181036Y0171718D02*
X0181592Y0171718D01*
X0182654Y0174703D02*
X0184204Y0174703D01*
X0185193Y0173210D02*
X0185341Y0173210D01*
X0185181Y0172912D02*
X0185681Y0172912D01*
X0185911Y0172613D02*
X0184935Y0172613D01*
X0166413Y0171098D02*
X0166374Y0170429D01*
X0166177Y0169681D01*
X0165783Y0168972D01*
X0165508Y0168618D01*
X0165193Y0168303D01*
X0164878Y0168028D01*
X0164484Y0167791D01*
X0164091Y0167634D01*
X0163657Y0167516D01*
X0163185Y0167437D01*
X0162437Y0167437D01*
X0162201Y0167398D01*
X0161807Y0167161D01*
X0161413Y0166768D01*
X0160941Y0166217D01*
X0160469Y0165744D01*
X0160272Y0165508D01*
X0160075Y0165311D01*
X0159957Y0165114D01*
X0159760Y0164917D01*
X0159760Y0170311D01*
X0159799Y0170626D01*
X0159878Y0170902D01*
X0160114Y0171295D01*
X0160311Y0171453D01*
X0160469Y0171571D01*
X0160665Y0171650D01*
X0160862Y0171689D01*
X0161098Y0171728D01*
X0161571Y0171728D01*
X0161728Y0171650D01*
X0161689Y0171610D01*
X0161531Y0171531D01*
X0161413Y0171492D01*
X0161177Y0171256D01*
X0161138Y0171138D01*
X0161138Y0170980D01*
X0161177Y0170862D01*
X0161256Y0170744D01*
X0161492Y0170508D01*
X0161689Y0170429D01*
X0161886Y0170390D01*
X0162201Y0170390D01*
X0162516Y0170469D01*
X0162752Y0170626D01*
X0162909Y0170823D01*
X0162988Y0171059D01*
X0162988Y0171335D01*
X0162870Y0171650D01*
X0162594Y0171925D01*
X0162280Y0172280D01*
X0162004Y0172594D01*
X0161807Y0172949D01*
X0161728Y0173303D01*
X0161728Y0173618D01*
X0161846Y0173972D01*
X0162043Y0174287D01*
X0162398Y0174563D01*
X0162831Y0174799D01*
X0163264Y0174878D01*
X0163657Y0174878D01*
X0164012Y0174799D01*
X0164563Y0174524D01*
X0164720Y0174406D01*
X0164760Y0174366D01*
X0164720Y0174366D01*
X0164642Y0174406D01*
X0164406Y0174406D01*
X0164248Y0174366D01*
X0164051Y0174327D01*
X0163894Y0174248D01*
X0163736Y0174130D01*
X0163657Y0174012D01*
X0163618Y0173933D01*
X0163579Y0173815D01*
X0163579Y0173579D01*
X0163618Y0173421D01*
X0163776Y0173185D01*
X0164012Y0172949D01*
X0164169Y0172831D01*
X0164287Y0172752D01*
X0164445Y0172673D01*
X0164760Y0172594D01*
X0164878Y0172594D01*
X0164996Y0172634D01*
X0165114Y0172752D01*
X0165154Y0172831D01*
X0165193Y0172949D01*
X0165193Y0173303D01*
X0165508Y0173106D01*
X0165823Y0172752D01*
X0166098Y0172319D01*
X0166295Y0171728D01*
X0166413Y0171098D01*
X0166409Y0171121D02*
X0162988Y0171121D01*
X0162956Y0171419D02*
X0166353Y0171419D01*
X0166297Y0171718D02*
X0162802Y0171718D01*
X0162513Y0172016D02*
X0166199Y0172016D01*
X0166100Y0172315D02*
X0162249Y0172315D01*
X0161993Y0172613D02*
X0164684Y0172613D01*
X0164935Y0172613D02*
X0165911Y0172613D01*
X0165681Y0172912D02*
X0165181Y0172912D01*
X0165193Y0173210D02*
X0165341Y0173210D01*
X0164061Y0172912D02*
X0161828Y0172912D01*
X0161749Y0173210D02*
X0163759Y0173210D01*
X0163596Y0173509D02*
X0161728Y0173509D01*
X0161791Y0173808D02*
X0163579Y0173808D01*
X0163720Y0174106D02*
X0161930Y0174106D01*
X0162194Y0174405D02*
X0164402Y0174405D01*
X0164644Y0174405D02*
X0164721Y0174405D01*
X0164204Y0174703D02*
X0162654Y0174703D01*
X0161592Y0171718D02*
X0161036Y0171718D01*
X0161341Y0171419D02*
X0160269Y0171419D01*
X0160010Y0171121D02*
X0161138Y0171121D01*
X0161204Y0170822D02*
X0159855Y0170822D01*
X0159786Y0170524D02*
X0161476Y0170524D01*
X0162599Y0170524D02*
X0166380Y0170524D01*
X0166397Y0170822D02*
X0162909Y0170822D01*
X0159760Y0170225D02*
X0166320Y0170225D01*
X0166242Y0169927D02*
X0159760Y0169927D01*
X0159760Y0169628D02*
X0166148Y0169628D01*
X0165982Y0169330D02*
X0159760Y0169330D01*
X0159760Y0169031D02*
X0165816Y0169031D01*
X0165597Y0168733D02*
X0159760Y0168733D01*
X0159760Y0168434D02*
X0165324Y0168434D01*
X0165002Y0168136D02*
X0159760Y0168136D01*
X0159760Y0167837D02*
X0164561Y0167837D01*
X0163742Y0167539D02*
X0159760Y0167539D01*
X0159760Y0167240D02*
X0161938Y0167240D01*
X0161587Y0166942D02*
X0159760Y0166942D01*
X0159760Y0166643D02*
X0161307Y0166643D01*
X0161051Y0166345D02*
X0159760Y0166345D01*
X0159760Y0166046D02*
X0160771Y0166046D01*
X0160472Y0165748D02*
X0159760Y0165748D01*
X0159760Y0165449D02*
X0160213Y0165449D01*
X0159979Y0165151D02*
X0159760Y0165151D01*
X0253846Y0123972D02*
X0253728Y0123618D01*
X0253728Y0123303D01*
X0253807Y0122949D01*
X0254004Y0122594D01*
X0254280Y0122280D01*
X0254594Y0121925D01*
X0254870Y0121650D01*
X0254988Y0121335D01*
X0254988Y0121059D01*
X0254909Y0120823D01*
X0254752Y0120626D01*
X0254516Y0120469D01*
X0254201Y0120390D01*
X0253886Y0120390D01*
X0253689Y0120429D01*
X0253492Y0120508D01*
X0253256Y0120744D01*
X0253177Y0120862D01*
X0253138Y0120980D01*
X0253138Y0121138D01*
X0253177Y0121256D01*
X0253413Y0121492D01*
X0253531Y0121531D01*
X0253689Y0121610D01*
X0253728Y0121650D01*
X0253571Y0121728D01*
X0253098Y0121728D01*
X0252862Y0121689D01*
X0252665Y0121650D01*
X0252469Y0121571D01*
X0252311Y0121453D01*
X0252114Y0121295D01*
X0251878Y0120902D01*
X0251799Y0120626D01*
X0251760Y0120311D01*
X0251760Y0114917D01*
X0251957Y0115114D01*
X0252075Y0115311D01*
X0252272Y0115508D01*
X0252469Y0115744D01*
X0252941Y0116217D01*
X0253413Y0116768D01*
X0253807Y0117161D01*
X0254201Y0117398D01*
X0254437Y0117437D01*
X0255185Y0117437D01*
X0255657Y0117516D01*
X0256091Y0117634D01*
X0256484Y0117791D01*
X0256878Y0118028D01*
X0257193Y0118303D01*
X0257508Y0118618D01*
X0257783Y0118972D01*
X0258177Y0119681D01*
X0258374Y0120429D01*
X0258413Y0121098D01*
X0258295Y0121728D01*
X0258098Y0122319D01*
X0257823Y0122752D01*
X0257508Y0123106D01*
X0257193Y0123303D01*
X0257193Y0122949D01*
X0257154Y0122831D01*
X0257114Y0122752D01*
X0256996Y0122634D01*
X0256878Y0122594D01*
X0256760Y0122594D01*
X0256445Y0122673D01*
X0256287Y0122752D01*
X0256169Y0122831D01*
X0256012Y0122949D01*
X0255776Y0123185D01*
X0255618Y0123421D01*
X0255579Y0123579D01*
X0255579Y0123815D01*
X0255618Y0123933D01*
X0255657Y0124012D01*
X0255736Y0124130D01*
X0255894Y0124248D01*
X0256051Y0124327D01*
X0256248Y0124366D01*
X0256406Y0124406D01*
X0256642Y0124406D01*
X0256720Y0124366D01*
X0256760Y0124366D01*
X0256720Y0124406D01*
X0256563Y0124524D01*
X0256012Y0124799D01*
X0255657Y0124878D01*
X0255264Y0124878D01*
X0254831Y0124799D01*
X0254398Y0124563D01*
X0254043Y0124287D01*
X0253846Y0123972D01*
X0253841Y0123956D02*
X0255630Y0123956D01*
X0255579Y0123658D02*
X0253742Y0123658D01*
X0253728Y0123359D02*
X0255660Y0123359D01*
X0255900Y0123061D02*
X0253782Y0123061D01*
X0253911Y0122762D02*
X0256272Y0122762D01*
X0257119Y0122762D02*
X0257814Y0122762D01*
X0258006Y0122464D02*
X0254118Y0122464D01*
X0254381Y0122165D02*
X0258150Y0122165D01*
X0258249Y0121867D02*
X0254653Y0121867D01*
X0254901Y0121568D02*
X0258325Y0121568D01*
X0258381Y0121270D02*
X0254988Y0121270D01*
X0254959Y0120971D02*
X0258406Y0120971D01*
X0258388Y0120672D02*
X0254789Y0120672D01*
X0253328Y0120672D02*
X0251812Y0120672D01*
X0251768Y0120374D02*
X0258359Y0120374D01*
X0258281Y0120075D02*
X0251760Y0120075D01*
X0251760Y0119777D02*
X0258202Y0119777D01*
X0258065Y0119478D02*
X0251760Y0119478D01*
X0251760Y0119180D02*
X0257899Y0119180D01*
X0257713Y0118881D02*
X0251760Y0118881D01*
X0251760Y0118583D02*
X0257473Y0118583D01*
X0257171Y0118284D02*
X0251760Y0118284D01*
X0251760Y0117986D02*
X0256809Y0117986D01*
X0256224Y0117687D02*
X0251760Y0117687D01*
X0251760Y0117389D02*
X0254186Y0117389D01*
X0253736Y0117090D02*
X0251760Y0117090D01*
X0251760Y0116792D02*
X0253438Y0116792D01*
X0253178Y0116493D02*
X0251760Y0116493D01*
X0251760Y0116195D02*
X0252919Y0116195D01*
X0252621Y0115896D02*
X0251760Y0115896D01*
X0251760Y0115598D02*
X0252347Y0115598D01*
X0252068Y0115299D02*
X0251760Y0115299D01*
X0251760Y0115001D02*
X0251843Y0115001D01*
X0251920Y0120971D02*
X0253141Y0120971D01*
X0253191Y0121270D02*
X0252099Y0121270D01*
X0252465Y0121568D02*
X0253605Y0121568D01*
X0254023Y0124255D02*
X0255907Y0124255D01*
X0255776Y0124852D02*
X0255119Y0124852D01*
X0254385Y0124553D02*
X0256504Y0124553D01*
X0257193Y0123061D02*
X0257549Y0123061D01*
X0284760Y0129917D02*
X0284957Y0130114D01*
X0285075Y0130311D01*
X0285272Y0130508D01*
X0285469Y0130744D01*
X0285941Y0131217D01*
X0286413Y0131768D01*
X0286807Y0132161D01*
X0287201Y0132398D01*
X0287437Y0132437D01*
X0288185Y0132437D01*
X0288657Y0132516D01*
X0289091Y0132634D01*
X0289484Y0132791D01*
X0289878Y0133028D01*
X0290193Y0133303D01*
X0290508Y0133618D01*
X0290783Y0133972D01*
X0291177Y0134681D01*
X0291374Y0135429D01*
X0291413Y0136098D01*
X0291295Y0136728D01*
X0291098Y0137319D01*
X0290823Y0137752D01*
X0290508Y0138106D01*
X0290193Y0138303D01*
X0290193Y0137949D01*
X0290154Y0137831D01*
X0290114Y0137752D01*
X0289996Y0137634D01*
X0289878Y0137594D01*
X0289760Y0137594D01*
X0289445Y0137673D01*
X0289287Y0137752D01*
X0289169Y0137831D01*
X0289012Y0137949D01*
X0288776Y0138185D01*
X0288618Y0138421D01*
X0288579Y0138579D01*
X0288579Y0138815D01*
X0288618Y0138933D01*
X0288657Y0139012D01*
X0288736Y0139130D01*
X0288894Y0139248D01*
X0289051Y0139327D01*
X0289248Y0139366D01*
X0289406Y0139406D01*
X0289642Y0139406D01*
X0289720Y0139366D01*
X0289760Y0139366D01*
X0289720Y0139406D01*
X0289563Y0139524D01*
X0289012Y0139799D01*
X0288657Y0139878D01*
X0288264Y0139878D01*
X0287831Y0139799D01*
X0287398Y0139563D01*
X0287043Y0139287D01*
X0286846Y0138972D01*
X0286728Y0138618D01*
X0286728Y0138303D01*
X0286807Y0137949D01*
X0287004Y0137594D01*
X0287280Y0137280D01*
X0287594Y0136925D01*
X0287870Y0136650D01*
X0287988Y0136335D01*
X0287988Y0136059D01*
X0287909Y0135823D01*
X0287752Y0135626D01*
X0287516Y0135469D01*
X0287201Y0135390D01*
X0286886Y0135390D01*
X0286689Y0135429D01*
X0286492Y0135508D01*
X0286256Y0135744D01*
X0286177Y0135862D01*
X0286138Y0135980D01*
X0286138Y0136138D01*
X0286177Y0136256D01*
X0286413Y0136492D01*
X0286531Y0136531D01*
X0286689Y0136610D01*
X0286728Y0136650D01*
X0286571Y0136728D01*
X0286098Y0136728D01*
X0285862Y0136689D01*
X0285665Y0136650D01*
X0285469Y0136571D01*
X0285311Y0136453D01*
X0285114Y0136295D01*
X0284878Y0135902D01*
X0284799Y0135626D01*
X0284760Y0135311D01*
X0284760Y0129917D01*
X0284760Y0129926D02*
X0284769Y0129926D01*
X0284760Y0130225D02*
X0285023Y0130225D01*
X0285285Y0130523D02*
X0284760Y0130523D01*
X0284760Y0130822D02*
X0285546Y0130822D01*
X0285845Y0131120D02*
X0284760Y0131120D01*
X0284760Y0131419D02*
X0286114Y0131419D01*
X0286370Y0131717D02*
X0284760Y0131717D01*
X0284760Y0132016D02*
X0286662Y0132016D01*
X0287062Y0132314D02*
X0284760Y0132314D01*
X0284760Y0132613D02*
X0289014Y0132613D01*
X0289684Y0132911D02*
X0284760Y0132911D01*
X0284760Y0133210D02*
X0290086Y0133210D01*
X0290398Y0133508D02*
X0284760Y0133508D01*
X0284760Y0133807D02*
X0290655Y0133807D01*
X0290857Y0134105D02*
X0284760Y0134105D01*
X0284760Y0134404D02*
X0291023Y0134404D01*
X0291183Y0134703D02*
X0284760Y0134703D01*
X0284760Y0135001D02*
X0291261Y0135001D01*
X0291340Y0135300D02*
X0284760Y0135300D01*
X0284796Y0135598D02*
X0286402Y0135598D01*
X0286166Y0135897D02*
X0284877Y0135897D01*
X0285054Y0136195D02*
X0286157Y0136195D01*
X0286418Y0136494D02*
X0285365Y0136494D01*
X0286952Y0137688D02*
X0289416Y0137688D01*
X0288974Y0137986D02*
X0286799Y0137986D01*
X0286732Y0138285D02*
X0288709Y0138285D01*
X0288579Y0138583D02*
X0286728Y0138583D01*
X0286816Y0138882D02*
X0288601Y0138882D01*
X0288803Y0139180D02*
X0286976Y0139180D01*
X0287289Y0139479D02*
X0289623Y0139479D01*
X0289056Y0139777D02*
X0287790Y0139777D01*
X0287184Y0137389D02*
X0291054Y0137389D01*
X0291175Y0137091D02*
X0287447Y0137091D01*
X0287728Y0136792D02*
X0291274Y0136792D01*
X0291339Y0136494D02*
X0287929Y0136494D01*
X0287988Y0136195D02*
X0291395Y0136195D01*
X0291402Y0135897D02*
X0287934Y0135897D01*
X0287710Y0135598D02*
X0291384Y0135598D01*
X0290864Y0137688D02*
X0290050Y0137688D01*
X0290193Y0137986D02*
X0290615Y0137986D01*
X0290223Y0138285D02*
X0290193Y0138285D01*
X0149760Y0074366D02*
X0149720Y0074406D01*
X0149563Y0074524D01*
X0149012Y0074799D01*
X0148657Y0074878D01*
X0148264Y0074878D01*
X0147831Y0074799D01*
X0147398Y0074563D01*
X0147043Y0074287D01*
X0146846Y0073972D01*
X0146728Y0073618D01*
X0146728Y0073303D01*
X0146807Y0072949D01*
X0147004Y0072594D01*
X0147280Y0072280D01*
X0147594Y0071925D01*
X0147870Y0071650D01*
X0147988Y0071335D01*
X0147988Y0071059D01*
X0147909Y0070823D01*
X0147752Y0070626D01*
X0147516Y0070469D01*
X0147201Y0070390D01*
X0146886Y0070390D01*
X0146689Y0070429D01*
X0146492Y0070508D01*
X0146256Y0070744D01*
X0146177Y0070862D01*
X0146138Y0070980D01*
X0146138Y0071138D01*
X0146177Y0071256D01*
X0146413Y0071492D01*
X0146531Y0071531D01*
X0146689Y0071610D01*
X0146728Y0071650D01*
X0146571Y0071728D01*
X0146098Y0071728D01*
X0145862Y0071689D01*
X0145665Y0071650D01*
X0145469Y0071571D01*
X0145311Y0071453D01*
X0145114Y0071295D01*
X0144878Y0070902D01*
X0144799Y0070626D01*
X0144760Y0070311D01*
X0144760Y0064917D01*
X0144957Y0065114D01*
X0145075Y0065311D01*
X0145272Y0065508D01*
X0145469Y0065744D01*
X0145941Y0066217D01*
X0146413Y0066768D01*
X0146807Y0067161D01*
X0147201Y0067398D01*
X0147437Y0067437D01*
X0148185Y0067437D01*
X0148657Y0067516D01*
X0149091Y0067634D01*
X0149484Y0067791D01*
X0149878Y0068028D01*
X0150193Y0068303D01*
X0150508Y0068618D01*
X0150783Y0068972D01*
X0151177Y0069681D01*
X0151374Y0070429D01*
X0151413Y0071098D01*
X0151295Y0071728D01*
X0151098Y0072319D01*
X0150823Y0072752D01*
X0150508Y0073106D01*
X0150193Y0073303D01*
X0150193Y0072949D01*
X0150154Y0072831D01*
X0150114Y0072752D01*
X0149996Y0072634D01*
X0149878Y0072594D01*
X0149760Y0072594D01*
X0149445Y0072673D01*
X0149287Y0072752D01*
X0149169Y0072831D01*
X0149012Y0072949D01*
X0148776Y0073185D01*
X0148618Y0073421D01*
X0148579Y0073579D01*
X0148579Y0073815D01*
X0148618Y0073933D01*
X0148657Y0074012D01*
X0148736Y0074130D01*
X0148894Y0074248D01*
X0149051Y0074327D01*
X0149248Y0074366D01*
X0149406Y0074406D01*
X0149642Y0074406D01*
X0149720Y0074366D01*
X0149760Y0074366D01*
X0149723Y0074403D02*
X0149646Y0074403D01*
X0149396Y0074403D02*
X0147192Y0074403D01*
X0146929Y0074105D02*
X0148719Y0074105D01*
X0148579Y0073806D02*
X0146791Y0073806D01*
X0146728Y0073508D02*
X0148597Y0073508D01*
X0148759Y0073209D02*
X0146749Y0073209D01*
X0146828Y0072911D02*
X0149063Y0072911D01*
X0149689Y0072612D02*
X0146994Y0072612D01*
X0147250Y0072314D02*
X0151100Y0072314D01*
X0151200Y0072015D02*
X0147515Y0072015D01*
X0147803Y0071717D02*
X0151297Y0071717D01*
X0151353Y0071418D02*
X0147957Y0071418D01*
X0147988Y0071120D02*
X0151409Y0071120D01*
X0151397Y0070821D02*
X0147908Y0070821D01*
X0147597Y0070523D02*
X0151380Y0070523D01*
X0151320Y0070224D02*
X0144760Y0070224D01*
X0144760Y0069926D02*
X0151241Y0069926D01*
X0151147Y0069627D02*
X0144760Y0069627D01*
X0144760Y0069329D02*
X0150981Y0069329D01*
X0150815Y0069030D02*
X0144760Y0069030D01*
X0144760Y0068732D02*
X0150596Y0068732D01*
X0150323Y0068433D02*
X0144760Y0068433D01*
X0144760Y0068134D02*
X0150000Y0068134D01*
X0149559Y0067836D02*
X0144760Y0067836D01*
X0144760Y0067537D02*
X0148737Y0067537D01*
X0146936Y0067239D02*
X0144760Y0067239D01*
X0144760Y0066940D02*
X0146586Y0066940D01*
X0146306Y0066642D02*
X0144760Y0066642D01*
X0144760Y0066343D02*
X0146050Y0066343D01*
X0145769Y0066045D02*
X0144760Y0066045D01*
X0144760Y0065746D02*
X0145471Y0065746D01*
X0145212Y0065448D02*
X0144760Y0065448D01*
X0144760Y0065149D02*
X0144978Y0065149D01*
X0144786Y0070523D02*
X0146477Y0070523D01*
X0146205Y0070821D02*
X0144855Y0070821D01*
X0145009Y0071120D02*
X0146138Y0071120D01*
X0146339Y0071418D02*
X0145268Y0071418D01*
X0146028Y0071717D02*
X0146594Y0071717D01*
X0147652Y0074702D02*
X0149207Y0074702D01*
X0150193Y0073209D02*
X0150343Y0073209D01*
X0150180Y0072911D02*
X0150682Y0072911D01*
X0150912Y0072612D02*
X0149931Y0072612D01*
D28*
X0079168Y0057370D02*
X0078767Y0056400D01*
X0100307Y0056400D01*
X0099227Y0057479D01*
X0098550Y0059115D01*
X0098550Y0060885D01*
X0099227Y0062521D01*
X0100479Y0063773D01*
X0102115Y0064450D01*
X0103885Y0064450D01*
X0105521Y0063773D01*
X0106773Y0062521D01*
X0107450Y0060885D01*
X0107450Y0059115D01*
X0106773Y0057479D01*
X0105693Y0056400D01*
X0127364Y0056400D01*
X0126831Y0056932D01*
X0126831Y0059883D01*
X0126800Y0059865D01*
X0126444Y0059769D01*
X0124987Y0059769D01*
X0124987Y0065100D01*
X0124987Y0065900D01*
X0127660Y0065900D01*
X0127660Y0068237D01*
X0132340Y0068237D01*
X0132340Y0065900D01*
X0135013Y0065900D01*
X0135013Y0065100D01*
X0132340Y0065100D01*
X0132340Y0062763D01*
X0127660Y0062763D01*
X0127660Y0065100D01*
X0124987Y0065100D01*
X0124187Y0065100D01*
X0124187Y0059769D01*
X0122729Y0059769D01*
X0122373Y0059865D01*
X0122054Y0060049D01*
X0121793Y0060310D01*
X0121609Y0060629D01*
X0121513Y0060985D01*
X0121513Y0065100D01*
X0124187Y0065100D01*
X0124187Y0065900D01*
X0124187Y0071231D01*
X0122729Y0071231D01*
X0122373Y0071135D01*
X0122054Y0070951D01*
X0121793Y0070690D01*
X0121609Y0070371D01*
X0121513Y0070015D01*
X0121513Y0065900D01*
X0124187Y0065900D01*
X0124987Y0065900D01*
X0124987Y0071231D01*
X0126444Y0071231D01*
X0126800Y0071135D01*
X0126831Y0071117D01*
X0126831Y0074068D01*
X0126960Y0074196D01*
X0126960Y0076713D01*
X0126637Y0076713D01*
X0125934Y0077416D01*
X0125934Y0085261D01*
X0126637Y0085964D01*
X0133143Y0085964D01*
X0133846Y0085261D01*
X0133846Y0077416D01*
X0133143Y0076713D01*
X0132820Y0076713D01*
X0132820Y0074417D01*
X0133168Y0074068D01*
X0133168Y0071117D01*
X0133200Y0071135D01*
X0133556Y0071231D01*
X0135013Y0071231D01*
X0135013Y0065900D01*
X0135813Y0065900D01*
X0135813Y0071231D01*
X0137271Y0071231D01*
X0137627Y0071135D01*
X0137946Y0070951D01*
X0138207Y0070690D01*
X0138391Y0070371D01*
X0138487Y0070015D01*
X0138487Y0065900D01*
X0135813Y0065900D01*
X0135813Y0065100D01*
X0135813Y0059769D01*
X0137271Y0059769D01*
X0137627Y0059865D01*
X0137946Y0060049D01*
X0138207Y0060310D01*
X0138391Y0060629D01*
X0138487Y0060985D01*
X0138487Y0065100D01*
X0135813Y0065100D01*
X0135013Y0065100D01*
X0135013Y0059769D01*
X0133556Y0059769D01*
X0133200Y0059865D01*
X0133168Y0059883D01*
X0133168Y0056932D01*
X0132636Y0056400D01*
X0171600Y0056400D01*
X0171600Y0143600D01*
X0074400Y0143600D01*
X0074400Y0060767D01*
X0075370Y0061168D01*
X0075820Y0061168D01*
X0074900Y0063389D01*
X0074900Y0066611D01*
X0076133Y0069588D01*
X0076133Y0069588D01*
X0078412Y0071867D01*
X0078412Y0071867D01*
X0081389Y0073100D01*
X0084611Y0073100D01*
X0087588Y0071867D01*
X0087588Y0071867D01*
X0089867Y0069588D01*
X0089867Y0069588D01*
X0091100Y0066611D01*
X0091100Y0063389D01*
X0089867Y0060412D01*
X0089867Y0060412D01*
X0087588Y0058133D01*
X0087588Y0058133D01*
X0084611Y0056900D01*
X0083331Y0056900D01*
X0081389Y0056900D01*
X0079168Y0057820D01*
X0079168Y0057370D01*
X0079168Y0057396D02*
X0080192Y0057396D01*
X0078848Y0056597D02*
X0100110Y0056597D01*
X0099311Y0057396D02*
X0085808Y0057396D01*
X0084611Y0056900D02*
X0084611Y0056900D01*
X0087649Y0058194D02*
X0098931Y0058194D01*
X0098601Y0058993D02*
X0088448Y0058993D01*
X0089246Y0059791D02*
X0098550Y0059791D01*
X0098550Y0060590D02*
X0089941Y0060590D01*
X0090271Y0061388D02*
X0098758Y0061388D01*
X0099089Y0062187D02*
X0090602Y0062187D01*
X0090933Y0062985D02*
X0099692Y0062985D01*
X0100506Y0063784D02*
X0091100Y0063784D01*
X0091100Y0064582D02*
X0121513Y0064582D01*
X0121513Y0063784D02*
X0105494Y0063784D01*
X0106308Y0062985D02*
X0121513Y0062985D01*
X0121513Y0062187D02*
X0106911Y0062187D01*
X0107242Y0061388D02*
X0121513Y0061388D01*
X0121631Y0060590D02*
X0107450Y0060590D01*
X0107450Y0059791D02*
X0122648Y0059791D01*
X0124187Y0059791D02*
X0124987Y0059791D01*
X0124987Y0060590D02*
X0124187Y0060590D01*
X0124187Y0061388D02*
X0124987Y0061388D01*
X0124987Y0062187D02*
X0124187Y0062187D01*
X0124187Y0062985D02*
X0124987Y0062985D01*
X0124987Y0063784D02*
X0124187Y0063784D01*
X0124187Y0064582D02*
X0124987Y0064582D01*
X0124987Y0065381D02*
X0135013Y0065381D01*
X0135013Y0066179D02*
X0135813Y0066179D01*
X0135813Y0065381D02*
X0143410Y0065381D01*
X0143410Y0066179D02*
X0138487Y0066179D01*
X0138487Y0066978D02*
X0143410Y0066978D01*
X0143410Y0067776D02*
X0138487Y0067776D01*
X0138487Y0068575D02*
X0143410Y0068575D01*
X0143410Y0069373D02*
X0138487Y0069373D01*
X0138445Y0070172D02*
X0143382Y0070172D01*
X0143405Y0070356D02*
X0143351Y0069924D01*
X0143410Y0069848D01*
X0143410Y0064358D01*
X0144201Y0063567D01*
X0145319Y0063567D01*
X0145647Y0063895D01*
X0145827Y0063940D01*
X0146029Y0064277D01*
X0146307Y0064555D01*
X0146307Y0064634D01*
X0146585Y0064912D01*
X0146602Y0064913D01*
X0146932Y0065299D01*
X0147291Y0065657D01*
X0147291Y0065717D01*
X0147405Y0065850D01*
X0147642Y0066087D01*
X0147752Y0066087D01*
X0147855Y0066013D01*
X0148297Y0066087D01*
X0148437Y0066087D01*
X0148473Y0066066D01*
X0148550Y0066087D01*
X0148744Y0066087D01*
X0148817Y0066160D01*
X0148947Y0066195D01*
X0148999Y0066204D01*
X0149073Y0066173D01*
X0149260Y0066247D01*
X0149431Y0066276D01*
X0149471Y0066332D01*
X0149520Y0066352D01*
X0149595Y0066372D01*
X0149699Y0066346D01*
X0149866Y0066446D01*
X0149985Y0066479D01*
X0150019Y0066538D01*
X0150086Y0066578D01*
X0150263Y0066649D01*
X0150346Y0066643D01*
X0150428Y0066715D01*
X0150505Y0066746D01*
X0150530Y0066804D01*
X0150676Y0066932D01*
X0150711Y0066953D01*
X0150752Y0066953D01*
X0150813Y0067015D01*
X0151052Y0067158D01*
X0151084Y0067285D01*
X0151116Y0067317D01*
X0151138Y0067336D01*
X0151230Y0067348D01*
X0151398Y0067564D01*
X0151503Y0067655D01*
X0151506Y0067702D01*
X0151522Y0067723D01*
X0151601Y0067802D01*
X0151692Y0067828D01*
X0151773Y0067974D01*
X0151858Y0068059D01*
X0151858Y0068127D01*
X0151913Y0068226D01*
X0152192Y0068585D01*
X0152178Y0068702D01*
X0152340Y0068797D01*
X0152440Y0069174D01*
X0152629Y0069514D01*
X0152578Y0069693D01*
X0152689Y0069792D01*
X0152714Y0070216D01*
X0152822Y0070626D01*
X0152778Y0070702D01*
X0152843Y0070798D01*
X0152771Y0071184D01*
X0152794Y0071577D01*
X0152752Y0071624D01*
X0152753Y0071625D01*
X0152605Y0072068D01*
X0152523Y0072506D01*
X0152538Y0072572D01*
X0152327Y0072903D01*
X0152202Y0073276D01*
X0152132Y0073312D01*
X0151904Y0073568D01*
X0151720Y0073856D01*
X0151698Y0073955D01*
X0151388Y0074148D01*
X0151145Y0074421D01*
X0151125Y0074422D01*
X0151110Y0074467D01*
X0151110Y0074925D01*
X0150993Y0075042D01*
X0150978Y0075150D01*
X0150850Y0075246D01*
X0150824Y0075324D01*
X0150698Y0075387D01*
X0150667Y0075481D01*
X0150441Y0075594D01*
X0150280Y0075755D01*
X0150170Y0075755D01*
X0149926Y0075939D01*
X0149890Y0075934D01*
X0149851Y0075996D01*
X0149467Y0076081D01*
X0149260Y0076184D01*
X0149217Y0076228D01*
X0149173Y0076228D01*
X0149115Y0076257D01*
X0149029Y0076228D01*
X0148806Y0076228D01*
X0148629Y0076267D01*
X0148572Y0076306D01*
X0148507Y0076294D01*
X0148404Y0076317D01*
X0148313Y0076259D01*
X0148142Y0076228D01*
X0147757Y0076228D01*
X0147675Y0076252D01*
X0147375Y0076089D01*
X0147039Y0076027D01*
X0146989Y0075956D01*
X0146655Y0075696D01*
X0146298Y0075501D01*
X0146195Y0075477D01*
X0146025Y0075206D01*
X0145773Y0075010D01*
X0145764Y0074941D01*
X0145743Y0074930D01*
X0145617Y0074552D01*
X0145405Y0074214D01*
X0145407Y0074206D01*
X0145378Y0074177D01*
X0145378Y0073837D01*
X0145271Y0073515D01*
X0145321Y0073415D01*
X0145378Y0073155D01*
X0145378Y0072989D01*
X0145328Y0072968D01*
X0145283Y0072961D01*
X0145106Y0072986D01*
X0144975Y0072888D01*
X0144852Y0072864D01*
X0144782Y0072758D01*
X0144762Y0072742D01*
X0144448Y0072617D01*
X0144402Y0072509D01*
X0144244Y0072469D01*
X0144103Y0072234D01*
X0144054Y0072197D01*
X0144050Y0072173D01*
X0143834Y0072000D01*
X0143818Y0071857D01*
X0143734Y0071810D01*
X0143629Y0071444D01*
X0143609Y0071410D01*
X0143529Y0071348D01*
X0143518Y0071259D01*
X0143433Y0071117D01*
X0143477Y0070938D01*
X0143410Y0070870D01*
X0143410Y0070677D01*
X0143348Y0070459D01*
X0143405Y0070356D01*
X0143469Y0070970D02*
X0137913Y0070970D01*
X0135813Y0070970D02*
X0135013Y0070970D01*
X0135013Y0070172D02*
X0135813Y0070172D01*
X0135813Y0069373D02*
X0135013Y0069373D01*
X0135013Y0068575D02*
X0135813Y0068575D01*
X0135813Y0067776D02*
X0135013Y0067776D01*
X0135013Y0066978D02*
X0135813Y0066978D01*
X0135813Y0064582D02*
X0135013Y0064582D01*
X0135013Y0063784D02*
X0135813Y0063784D01*
X0135813Y0062985D02*
X0135013Y0062985D01*
X0135013Y0062187D02*
X0135813Y0062187D01*
X0135813Y0061388D02*
X0135013Y0061388D01*
X0135013Y0060590D02*
X0135813Y0060590D01*
X0135813Y0059791D02*
X0135013Y0059791D01*
X0133475Y0059791D02*
X0133168Y0059791D01*
X0133168Y0058993D02*
X0157552Y0058993D01*
X0156754Y0059791D02*
X0137352Y0059791D01*
X0138368Y0060590D02*
X0156059Y0060590D01*
X0156133Y0060412D02*
X0156133Y0060412D01*
X0158412Y0058133D01*
X0161389Y0056900D01*
X0162669Y0056900D01*
X0164611Y0056900D01*
X0167588Y0058133D01*
X0167588Y0058133D01*
X0169867Y0060412D01*
X0171100Y0063389D01*
X0171100Y0066611D01*
X0169867Y0069588D01*
X0169867Y0069588D01*
X0167588Y0071867D01*
X0164611Y0073100D01*
X0161389Y0073100D01*
X0158412Y0071867D01*
X0158412Y0071867D01*
X0156133Y0069588D01*
X0154900Y0066611D01*
X0154900Y0063389D01*
X0156133Y0060412D01*
X0155729Y0061388D02*
X0138487Y0061388D01*
X0138487Y0062187D02*
X0155398Y0062187D01*
X0155067Y0062985D02*
X0138487Y0062985D01*
X0138487Y0063784D02*
X0143984Y0063784D01*
X0143410Y0064582D02*
X0138487Y0064582D01*
X0132340Y0064582D02*
X0127660Y0064582D01*
X0127660Y0063784D02*
X0132340Y0063784D01*
X0132340Y0062985D02*
X0127660Y0062985D01*
X0126831Y0059791D02*
X0126525Y0059791D01*
X0126831Y0058993D02*
X0107399Y0058993D01*
X0107069Y0058194D02*
X0126831Y0058194D01*
X0126831Y0057396D02*
X0106689Y0057396D01*
X0105890Y0056597D02*
X0127167Y0056597D01*
X0132833Y0056597D02*
X0171600Y0056597D01*
X0171600Y0057396D02*
X0165808Y0057396D01*
X0167649Y0058194D02*
X0171600Y0058194D01*
X0171600Y0058993D02*
X0168448Y0058993D01*
X0169246Y0059791D02*
X0171600Y0059791D01*
X0171600Y0060590D02*
X0169941Y0060590D01*
X0169867Y0060412D02*
X0169867Y0060412D01*
X0170271Y0061388D02*
X0171600Y0061388D01*
X0171600Y0062187D02*
X0170602Y0062187D01*
X0170933Y0062985D02*
X0171600Y0062985D01*
X0171600Y0063784D02*
X0171100Y0063784D01*
X0171100Y0064582D02*
X0171600Y0064582D01*
X0171600Y0065381D02*
X0171100Y0065381D01*
X0171100Y0066179D02*
X0171600Y0066179D01*
X0171600Y0066978D02*
X0170948Y0066978D01*
X0170617Y0067776D02*
X0171600Y0067776D01*
X0171600Y0068575D02*
X0170287Y0068575D01*
X0169956Y0069373D02*
X0171600Y0069373D01*
X0171600Y0070172D02*
X0169283Y0070172D01*
X0168485Y0070970D02*
X0171600Y0070970D01*
X0171600Y0071769D02*
X0167686Y0071769D01*
X0167588Y0071867D02*
X0167588Y0071867D01*
X0165897Y0072567D02*
X0171600Y0072567D01*
X0171600Y0073366D02*
X0152083Y0073366D01*
X0152537Y0072567D02*
X0160103Y0072567D01*
X0158314Y0071769D02*
X0152705Y0071769D01*
X0152811Y0070970D02*
X0157515Y0070970D01*
X0156717Y0070172D02*
X0152711Y0070172D01*
X0152550Y0069373D02*
X0156044Y0069373D01*
X0156133Y0069588D02*
X0156133Y0069588D01*
X0156133Y0069588D01*
X0155713Y0068575D02*
X0152184Y0068575D01*
X0151575Y0067776D02*
X0155383Y0067776D01*
X0155052Y0066978D02*
X0150777Y0066978D01*
X0149089Y0066179D02*
X0154900Y0066179D01*
X0154900Y0065381D02*
X0147014Y0065381D01*
X0146307Y0064582D02*
X0154900Y0064582D01*
X0154900Y0063784D02*
X0145535Y0063784D01*
X0148887Y0066179D02*
X0149058Y0066179D01*
X0143722Y0071769D02*
X0133168Y0071769D01*
X0133168Y0072567D02*
X0144427Y0072567D01*
X0145331Y0073366D02*
X0133168Y0073366D01*
X0133072Y0074164D02*
X0145378Y0074164D01*
X0145767Y0074963D02*
X0132820Y0074963D01*
X0132820Y0075761D02*
X0146739Y0075761D01*
X0150163Y0075761D02*
X0171600Y0075761D01*
X0171600Y0074963D02*
X0151072Y0074963D01*
X0151374Y0074164D02*
X0171600Y0074164D01*
X0171600Y0076560D02*
X0132820Y0076560D01*
X0133788Y0077358D02*
X0171600Y0077358D01*
X0171600Y0078157D02*
X0133846Y0078157D01*
X0133846Y0078955D02*
X0171600Y0078955D01*
X0171600Y0079754D02*
X0133846Y0079754D01*
X0133846Y0080552D02*
X0171600Y0080552D01*
X0171600Y0081351D02*
X0133846Y0081351D01*
X0133846Y0082149D02*
X0171600Y0082149D01*
X0171600Y0082948D02*
X0133846Y0082948D01*
X0133846Y0083746D02*
X0171600Y0083746D01*
X0171600Y0084545D02*
X0133846Y0084545D01*
X0133763Y0085343D02*
X0171600Y0085343D01*
X0171600Y0086142D02*
X0124400Y0086142D01*
X0124400Y0086940D02*
X0171600Y0086940D01*
X0171600Y0087739D02*
X0124217Y0087739D01*
X0124305Y0087588D02*
X0124120Y0087907D01*
X0123860Y0088168D01*
X0123540Y0088352D01*
X0123184Y0088447D01*
X0118676Y0088447D01*
X0118676Y0082723D01*
X0124400Y0082723D01*
X0124400Y0087232D01*
X0124305Y0087588D01*
X0124400Y0085343D02*
X0126016Y0085343D01*
X0125934Y0084545D02*
X0124400Y0084545D01*
X0124400Y0083746D02*
X0125934Y0083746D01*
X0125934Y0082948D02*
X0124400Y0082948D01*
X0124400Y0081923D02*
X0118676Y0081923D01*
X0118676Y0082723D01*
X0117876Y0082723D01*
X0117876Y0088447D01*
X0113367Y0088447D01*
X0113011Y0088352D01*
X0112692Y0088168D01*
X0112431Y0087907D01*
X0112247Y0087588D01*
X0112151Y0087232D01*
X0112151Y0082723D01*
X0117876Y0082723D01*
X0117876Y0081923D01*
X0118676Y0081923D01*
X0118676Y0076198D01*
X0123184Y0076198D01*
X0123540Y0076294D01*
X0123860Y0076478D01*
X0124120Y0076739D01*
X0124305Y0077058D01*
X0124400Y0077414D01*
X0124400Y0081923D01*
X0124400Y0081351D02*
X0125934Y0081351D01*
X0125934Y0082149D02*
X0118676Y0082149D01*
X0118676Y0081351D02*
X0117876Y0081351D01*
X0117876Y0081923D02*
X0117876Y0076198D01*
X0113367Y0076198D01*
X0113011Y0076294D01*
X0112692Y0076478D01*
X0112431Y0076739D01*
X0112247Y0077058D01*
X0112151Y0077414D01*
X0112151Y0081923D01*
X0117876Y0081923D01*
X0117876Y0082149D02*
X0074400Y0082149D01*
X0074400Y0081351D02*
X0112151Y0081351D01*
X0112151Y0080552D02*
X0074400Y0080552D01*
X0074400Y0079754D02*
X0112151Y0079754D01*
X0112151Y0078955D02*
X0074400Y0078955D01*
X0074400Y0078157D02*
X0112151Y0078157D01*
X0112166Y0077358D02*
X0074400Y0077358D01*
X0074400Y0076560D02*
X0112610Y0076560D01*
X0117876Y0076560D02*
X0118676Y0076560D01*
X0118676Y0077358D02*
X0117876Y0077358D01*
X0117876Y0078157D02*
X0118676Y0078157D01*
X0118676Y0078955D02*
X0117876Y0078955D01*
X0117876Y0079754D02*
X0118676Y0079754D01*
X0118676Y0080552D02*
X0117876Y0080552D01*
X0117876Y0082948D02*
X0118676Y0082948D01*
X0118676Y0083746D02*
X0117876Y0083746D01*
X0117876Y0084545D02*
X0118676Y0084545D01*
X0118676Y0085343D02*
X0117876Y0085343D01*
X0117876Y0086142D02*
X0118676Y0086142D01*
X0118676Y0086940D02*
X0117876Y0086940D01*
X0117876Y0087739D02*
X0118676Y0087739D01*
X0112334Y0087739D02*
X0074400Y0087739D01*
X0074400Y0088537D02*
X0171600Y0088537D01*
X0171600Y0089336D02*
X0074400Y0089336D01*
X0074400Y0090134D02*
X0171600Y0090134D01*
X0171600Y0090933D02*
X0074400Y0090933D01*
X0074400Y0091732D02*
X0171600Y0091732D01*
X0171600Y0092530D02*
X0074400Y0092530D01*
X0074400Y0093329D02*
X0171600Y0093329D01*
X0171600Y0094127D02*
X0074400Y0094127D01*
X0074400Y0094926D02*
X0171600Y0094926D01*
X0171600Y0095724D02*
X0074400Y0095724D01*
X0074400Y0096523D02*
X0171600Y0096523D01*
X0171600Y0097321D02*
X0074400Y0097321D01*
X0074400Y0098120D02*
X0171600Y0098120D01*
X0171600Y0098918D02*
X0074400Y0098918D01*
X0074400Y0099717D02*
X0171600Y0099717D01*
X0171600Y0100515D02*
X0074400Y0100515D01*
X0074400Y0101314D02*
X0171600Y0101314D01*
X0171600Y0102112D02*
X0074400Y0102112D01*
X0074400Y0102911D02*
X0171600Y0102911D01*
X0171600Y0103709D02*
X0074400Y0103709D01*
X0074400Y0104508D02*
X0171600Y0104508D01*
X0171600Y0105306D02*
X0074400Y0105306D01*
X0074400Y0106105D02*
X0171600Y0106105D01*
X0171600Y0106903D02*
X0074400Y0106903D01*
X0074400Y0107702D02*
X0171600Y0107702D01*
X0171600Y0108500D02*
X0074400Y0108500D01*
X0074400Y0109299D02*
X0171600Y0109299D01*
X0171600Y0110097D02*
X0074400Y0110097D01*
X0074400Y0110896D02*
X0171600Y0110896D01*
X0171600Y0111694D02*
X0074400Y0111694D01*
X0074400Y0112493D02*
X0171600Y0112493D01*
X0171600Y0113291D02*
X0074400Y0113291D01*
X0074400Y0114090D02*
X0171600Y0114090D01*
X0171600Y0114888D02*
X0074400Y0114888D01*
X0074400Y0115687D02*
X0171600Y0115687D01*
X0171600Y0116485D02*
X0074400Y0116485D01*
X0074400Y0117284D02*
X0097742Y0117284D01*
X0098894Y0116619D02*
X0099250Y0116523D01*
X0099619Y0116523D01*
X0099975Y0116619D01*
X0100294Y0116803D01*
X0100555Y0117063D01*
X0102907Y0121139D01*
X0097780Y0124099D01*
X0098179Y0124792D01*
X0097487Y0125192D01*
X0100447Y0130320D01*
X0096372Y0132673D01*
X0096016Y0132768D01*
X0095647Y0132768D01*
X0095291Y0132673D01*
X0094972Y0132488D01*
X0094711Y0132228D01*
X0092359Y0128153D01*
X0097487Y0125192D01*
X0097087Y0124499D01*
X0097779Y0124099D01*
X0094819Y0118971D01*
X0098894Y0116619D01*
X0100682Y0117284D02*
X0145318Y0117284D01*
X0145445Y0117063D02*
X0145706Y0116803D01*
X0146025Y0116619D01*
X0146381Y0116523D01*
X0146750Y0116523D01*
X0147106Y0116619D01*
X0151181Y0118971D01*
X0148221Y0124099D01*
X0148913Y0124499D01*
X0151874Y0119371D01*
X0155949Y0121724D01*
X0156210Y0121985D01*
X0156394Y0122304D01*
X0156489Y0122660D01*
X0156489Y0123029D01*
X0156394Y0123385D01*
X0154041Y0127460D01*
X0148913Y0124499D01*
X0148513Y0125192D01*
X0147821Y0124792D01*
X0147820Y0124792D02*
X0148220Y0124099D01*
X0143093Y0121139D01*
X0145445Y0117063D01*
X0144857Y0118082D02*
X0101143Y0118082D01*
X0101604Y0118881D02*
X0144396Y0118881D01*
X0143935Y0119679D02*
X0102065Y0119679D01*
X0102526Y0120478D02*
X0143474Y0120478D01*
X0143331Y0121276D02*
X0102669Y0121276D01*
X0102886Y0122075D02*
X0101286Y0122075D01*
X0101503Y0122873D02*
X0099903Y0122873D01*
X0100119Y0123672D02*
X0098520Y0123672D01*
X0098736Y0124470D02*
X0097994Y0124470D01*
X0098179Y0124792D02*
X0103307Y0121831D01*
X0105660Y0125907D01*
X0105756Y0126263D01*
X0105756Y0126631D01*
X0105660Y0126987D01*
X0105476Y0127307D01*
X0105215Y0127567D01*
X0101140Y0129920D01*
X0098179Y0124792D01*
X0098455Y0125269D02*
X0097531Y0125269D01*
X0097353Y0125269D02*
X0095753Y0125269D01*
X0095970Y0126068D02*
X0094370Y0126068D01*
X0094587Y0126866D02*
X0092987Y0126866D01*
X0093204Y0127665D02*
X0086457Y0127665D01*
X0087588Y0128133D02*
X0084611Y0126900D01*
X0082669Y0126900D01*
X0081389Y0126900D01*
X0078412Y0128133D01*
X0078412Y0128133D01*
X0076133Y0130412D01*
X0076133Y0130412D01*
X0074900Y0133389D01*
X0074900Y0136611D01*
X0076133Y0139588D01*
X0076133Y0139588D01*
X0078412Y0141867D01*
X0078412Y0141867D01*
X0081389Y0143100D01*
X0084611Y0143100D01*
X0087588Y0141867D01*
X0087588Y0141867D01*
X0089867Y0139588D01*
X0089867Y0139588D01*
X0091100Y0136611D01*
X0091100Y0133389D01*
X0089867Y0130412D01*
X0089867Y0130412D01*
X0089867Y0130412D01*
X0087588Y0128133D01*
X0087918Y0128463D02*
X0092538Y0128463D01*
X0092999Y0129262D02*
X0088717Y0129262D01*
X0089515Y0130060D02*
X0093460Y0130060D01*
X0093921Y0130859D02*
X0090052Y0130859D01*
X0090383Y0131657D02*
X0094382Y0131657D01*
X0094939Y0132456D02*
X0090713Y0132456D01*
X0091044Y0133254D02*
X0154956Y0133254D01*
X0154900Y0133389D02*
X0156133Y0130412D01*
X0158412Y0128133D01*
X0161389Y0126900D01*
X0162669Y0126900D01*
X0164611Y0126900D01*
X0167588Y0128133D01*
X0167588Y0128133D01*
X0169867Y0130412D01*
X0171100Y0133389D01*
X0171100Y0136611D01*
X0169867Y0139588D01*
X0169867Y0139588D01*
X0167588Y0141867D01*
X0164611Y0143100D01*
X0161389Y0143100D01*
X0158412Y0141867D01*
X0156133Y0139588D01*
X0154900Y0136611D01*
X0154900Y0133389D01*
X0154900Y0134053D02*
X0091100Y0134053D01*
X0091100Y0134851D02*
X0154900Y0134851D01*
X0154900Y0135650D02*
X0091100Y0135650D01*
X0091100Y0136448D02*
X0154900Y0136448D01*
X0155163Y0137247D02*
X0090837Y0137247D01*
X0090506Y0138045D02*
X0155494Y0138045D01*
X0155825Y0138844D02*
X0090175Y0138844D01*
X0089813Y0139642D02*
X0156187Y0139642D01*
X0156133Y0139588D02*
X0156133Y0139588D01*
X0156986Y0140441D02*
X0089014Y0140441D01*
X0088216Y0141239D02*
X0157784Y0141239D01*
X0158412Y0141867D02*
X0158412Y0141867D01*
X0158824Y0142038D02*
X0087176Y0142038D01*
X0085248Y0142836D02*
X0160752Y0142836D01*
X0161389Y0146900D02*
X0164611Y0146900D01*
X0167588Y0148133D01*
X0167588Y0148133D01*
X0169867Y0150412D01*
X0171100Y0153389D01*
X0171100Y0155331D01*
X0171100Y0156611D01*
X0171100Y0156611D01*
X0169867Y0159588D01*
X0169867Y0159588D01*
X0167588Y0161867D01*
X0164611Y0163100D01*
X0161389Y0163100D01*
X0158412Y0161867D01*
X0158412Y0161867D01*
X0156133Y0159588D01*
X0154900Y0156611D01*
X0154900Y0153389D01*
X0156133Y0150412D01*
X0158412Y0148133D01*
X0161389Y0146900D01*
X0159633Y0147627D02*
X0074400Y0147627D01*
X0074400Y0146829D02*
X0171600Y0146829D01*
X0171600Y0146400D02*
X0074400Y0146400D01*
X0074400Y0158269D01*
X0075687Y0158269D01*
X0075687Y0163600D01*
X0076487Y0163600D01*
X0076487Y0164400D01*
X0079160Y0164400D01*
X0079160Y0166737D01*
X0083840Y0166737D01*
X0083840Y0164400D01*
X0086513Y0164400D01*
X0086513Y0163600D01*
X0083840Y0163600D01*
X0083840Y0161263D01*
X0079160Y0161263D01*
X0079160Y0163600D01*
X0076487Y0163600D01*
X0076487Y0158269D01*
X0077944Y0158269D01*
X0078300Y0158365D01*
X0078331Y0158383D01*
X0078331Y0155432D01*
X0079034Y0154729D01*
X0083966Y0154729D01*
X0084668Y0155432D01*
X0084668Y0158383D01*
X0084700Y0158365D01*
X0085056Y0158269D01*
X0086513Y0158269D01*
X0086513Y0163600D01*
X0087313Y0163600D01*
X0087313Y0158269D01*
X0088771Y0158269D01*
X0089127Y0158365D01*
X0089446Y0158549D01*
X0089707Y0158810D01*
X0089891Y0159129D01*
X0089987Y0159485D01*
X0089987Y0163600D01*
X0087313Y0163600D01*
X0087313Y0164400D01*
X0086513Y0164400D01*
X0086513Y0169731D01*
X0085056Y0169731D01*
X0084700Y0169635D01*
X0084668Y0169617D01*
X0084668Y0172568D01*
X0084430Y0172806D01*
X0084430Y0174206D01*
X0103870Y0174206D01*
X0104105Y0174441D01*
X0104105Y0193600D01*
X0171600Y0193600D01*
X0171600Y0146400D01*
X0171600Y0147627D02*
X0166367Y0147627D01*
X0167881Y0148426D02*
X0171600Y0148426D01*
X0171600Y0149224D02*
X0168679Y0149224D01*
X0169478Y0150023D02*
X0171600Y0150023D01*
X0171600Y0150821D02*
X0170037Y0150821D01*
X0169867Y0150412D02*
X0169867Y0150412D01*
X0170367Y0151620D02*
X0171600Y0151620D01*
X0171600Y0152418D02*
X0170698Y0152418D01*
X0171029Y0153217D02*
X0171600Y0153217D01*
X0171600Y0154015D02*
X0171100Y0154015D01*
X0171100Y0154814D02*
X0171600Y0154814D01*
X0171600Y0155612D02*
X0171100Y0155612D01*
X0171100Y0156411D02*
X0171600Y0156411D01*
X0171600Y0157209D02*
X0170852Y0157209D01*
X0170521Y0158008D02*
X0171600Y0158008D01*
X0171600Y0158806D02*
X0170191Y0158806D01*
X0169850Y0159605D02*
X0171600Y0159605D01*
X0171600Y0160403D02*
X0169052Y0160403D01*
X0168253Y0161202D02*
X0171600Y0161202D01*
X0171600Y0162001D02*
X0167266Y0162001D01*
X0167588Y0161867D02*
X0167588Y0161867D01*
X0165338Y0162799D02*
X0171600Y0162799D01*
X0171600Y0163598D02*
X0160349Y0163598D01*
X0160319Y0163567D02*
X0160647Y0163895D01*
X0160827Y0163940D01*
X0161029Y0164277D01*
X0161307Y0164555D01*
X0161307Y0164634D01*
X0161585Y0164912D01*
X0161602Y0164913D01*
X0161932Y0165299D01*
X0162291Y0165657D01*
X0162291Y0165717D01*
X0162405Y0165850D01*
X0162642Y0166087D01*
X0162752Y0166087D01*
X0162855Y0166013D01*
X0163297Y0166087D01*
X0163437Y0166087D01*
X0163473Y0166066D01*
X0163550Y0166087D01*
X0163744Y0166087D01*
X0163817Y0166160D01*
X0163947Y0166195D01*
X0163999Y0166204D01*
X0164073Y0166173D01*
X0164260Y0166247D01*
X0164431Y0166276D01*
X0164471Y0166332D01*
X0164520Y0166352D01*
X0164595Y0166372D01*
X0164699Y0166346D01*
X0164866Y0166446D01*
X0164985Y0166479D01*
X0165019Y0166538D01*
X0165086Y0166578D01*
X0165263Y0166649D01*
X0165346Y0166643D01*
X0165428Y0166715D01*
X0165505Y0166746D01*
X0165530Y0166804D01*
X0165676Y0166932D01*
X0165711Y0166953D01*
X0165752Y0166953D01*
X0165813Y0167015D01*
X0166052Y0167158D01*
X0166084Y0167285D01*
X0166116Y0167317D01*
X0166138Y0167336D01*
X0166230Y0167348D01*
X0166398Y0167564D01*
X0166503Y0167655D01*
X0166506Y0167702D01*
X0166522Y0167723D01*
X0166601Y0167802D01*
X0166692Y0167828D01*
X0166773Y0167974D01*
X0166858Y0168059D01*
X0166858Y0168127D01*
X0166913Y0168226D01*
X0167192Y0168585D01*
X0167178Y0168702D01*
X0167340Y0168797D01*
X0167440Y0169174D01*
X0167629Y0169514D01*
X0167578Y0169693D01*
X0167689Y0169792D01*
X0167714Y0170216D01*
X0167822Y0170626D01*
X0167778Y0170702D01*
X0167843Y0170798D01*
X0167771Y0171184D01*
X0167794Y0171577D01*
X0167752Y0171624D01*
X0167753Y0171625D01*
X0167605Y0172068D01*
X0167523Y0172506D01*
X0167538Y0172572D01*
X0167327Y0172903D01*
X0167202Y0173276D01*
X0167132Y0173312D01*
X0166904Y0173568D01*
X0166720Y0173856D01*
X0166698Y0173955D01*
X0166388Y0174148D01*
X0166145Y0174421D01*
X0166125Y0174422D01*
X0166110Y0174467D01*
X0166110Y0174925D01*
X0165993Y0175042D01*
X0165978Y0175150D01*
X0165850Y0175246D01*
X0165824Y0175324D01*
X0165698Y0175387D01*
X0165667Y0175481D01*
X0165441Y0175594D01*
X0165280Y0175755D01*
X0165170Y0175755D01*
X0164926Y0175939D01*
X0164890Y0175934D01*
X0164851Y0175996D01*
X0164467Y0176081D01*
X0164260Y0176184D01*
X0164217Y0176228D01*
X0164173Y0176228D01*
X0164115Y0176257D01*
X0164029Y0176228D01*
X0163806Y0176228D01*
X0163629Y0176267D01*
X0163572Y0176306D01*
X0163507Y0176294D01*
X0163404Y0176317D01*
X0163313Y0176259D01*
X0163142Y0176228D01*
X0162757Y0176228D01*
X0162675Y0176252D01*
X0162375Y0176089D01*
X0162039Y0176027D01*
X0161989Y0175956D01*
X0161655Y0175696D01*
X0161298Y0175501D01*
X0161195Y0175477D01*
X0161025Y0175206D01*
X0160773Y0175010D01*
X0160764Y0174941D01*
X0160743Y0174930D01*
X0160617Y0174552D01*
X0160405Y0174214D01*
X0160407Y0174206D01*
X0160378Y0174177D01*
X0160378Y0173837D01*
X0160271Y0173515D01*
X0160321Y0173415D01*
X0160378Y0173155D01*
X0160378Y0172989D01*
X0160328Y0172968D01*
X0160283Y0172961D01*
X0160106Y0172986D01*
X0159975Y0172888D01*
X0159852Y0172864D01*
X0159782Y0172758D01*
X0159762Y0172742D01*
X0159448Y0172617D01*
X0159402Y0172509D01*
X0159244Y0172469D01*
X0159103Y0172234D01*
X0159054Y0172197D01*
X0159050Y0172173D01*
X0158834Y0172000D01*
X0158818Y0171857D01*
X0158734Y0171810D01*
X0158629Y0171444D01*
X0158609Y0171410D01*
X0158529Y0171348D01*
X0158518Y0171259D01*
X0158433Y0171117D01*
X0158477Y0170938D01*
X0158410Y0170870D01*
X0158410Y0170677D01*
X0158348Y0170459D01*
X0158405Y0170356D01*
X0158351Y0169924D01*
X0158410Y0169848D01*
X0158410Y0164358D01*
X0159201Y0163567D01*
X0160319Y0163567D01*
X0160662Y0162799D02*
X0121494Y0162799D01*
X0121773Y0162521D02*
X0120521Y0163773D01*
X0118885Y0164450D01*
X0117115Y0164450D01*
X0115479Y0163773D01*
X0114227Y0162521D01*
X0113550Y0160885D01*
X0113550Y0159115D01*
X0114227Y0157479D01*
X0115479Y0156227D01*
X0117115Y0155550D01*
X0118885Y0155550D01*
X0120521Y0156227D01*
X0121773Y0157479D01*
X0122450Y0159115D01*
X0122450Y0160885D01*
X0121773Y0162521D01*
X0121988Y0162001D02*
X0158734Y0162001D01*
X0157747Y0161202D02*
X0122319Y0161202D01*
X0122450Y0160403D02*
X0156948Y0160403D01*
X0156150Y0159605D02*
X0122450Y0159605D01*
X0122322Y0158806D02*
X0155809Y0158806D01*
X0156133Y0159588D02*
X0156133Y0159588D01*
X0155479Y0158008D02*
X0121991Y0158008D01*
X0121503Y0157209D02*
X0155148Y0157209D01*
X0154900Y0156411D02*
X0120704Y0156411D01*
X0119036Y0155612D02*
X0154900Y0155612D01*
X0154900Y0154814D02*
X0084050Y0154814D01*
X0084668Y0155612D02*
X0116964Y0155612D01*
X0115296Y0156411D02*
X0084668Y0156411D01*
X0084668Y0157209D02*
X0114497Y0157209D01*
X0114008Y0158008D02*
X0084668Y0158008D01*
X0086513Y0158806D02*
X0087313Y0158806D01*
X0087313Y0159605D02*
X0086513Y0159605D01*
X0086513Y0160403D02*
X0087313Y0160403D01*
X0087313Y0161202D02*
X0086513Y0161202D01*
X0086513Y0162001D02*
X0087313Y0162001D01*
X0087313Y0162799D02*
X0086513Y0162799D01*
X0086513Y0163598D02*
X0087313Y0163598D01*
X0087313Y0164396D02*
X0116985Y0164396D01*
X0117115Y0165550D02*
X0115479Y0166227D01*
X0114227Y0167479D01*
X0113550Y0169115D01*
X0113550Y0170885D01*
X0114227Y0172521D01*
X0115479Y0173773D01*
X0117115Y0174450D01*
X0118885Y0174450D01*
X0120521Y0173773D01*
X0121773Y0172521D01*
X0122450Y0170885D01*
X0122450Y0169115D01*
X0121773Y0167479D01*
X0120521Y0166227D01*
X0118885Y0165550D01*
X0117115Y0165550D01*
X0116045Y0165993D02*
X0089987Y0165993D01*
X0089987Y0165195D02*
X0158410Y0165195D01*
X0158410Y0165993D02*
X0119955Y0165993D01*
X0121085Y0166792D02*
X0158410Y0166792D01*
X0158410Y0167590D02*
X0121818Y0167590D01*
X0122149Y0168389D02*
X0158410Y0168389D01*
X0158410Y0169187D02*
X0122450Y0169187D01*
X0122450Y0169986D02*
X0158359Y0169986D01*
X0158410Y0170784D02*
X0122450Y0170784D01*
X0122161Y0171583D02*
X0158669Y0171583D01*
X0159191Y0172381D02*
X0121830Y0172381D01*
X0121114Y0173180D02*
X0160373Y0173180D01*
X0160378Y0173978D02*
X0120024Y0173978D01*
X0115976Y0173978D02*
X0084430Y0173978D01*
X0084430Y0173180D02*
X0114886Y0173180D01*
X0114170Y0172381D02*
X0084668Y0172381D01*
X0084668Y0171583D02*
X0113839Y0171583D01*
X0113550Y0170784D02*
X0084668Y0170784D01*
X0084668Y0169986D02*
X0113550Y0169986D01*
X0113550Y0169187D02*
X0089709Y0169187D01*
X0089707Y0169190D02*
X0089446Y0169451D01*
X0089127Y0169635D01*
X0088771Y0169731D01*
X0087313Y0169731D01*
X0087313Y0164400D01*
X0089987Y0164400D01*
X0089987Y0168515D01*
X0089891Y0168871D01*
X0089707Y0169190D01*
X0089987Y0168389D02*
X0113851Y0168389D01*
X0114182Y0167590D02*
X0089987Y0167590D01*
X0089987Y0166792D02*
X0114915Y0166792D01*
X0115304Y0163598D02*
X0089987Y0163598D01*
X0089987Y0162799D02*
X0114506Y0162799D01*
X0114012Y0162001D02*
X0089987Y0162001D01*
X0089987Y0161202D02*
X0113681Y0161202D01*
X0113550Y0160403D02*
X0089987Y0160403D01*
X0089987Y0159605D02*
X0113550Y0159605D01*
X0113678Y0158806D02*
X0089704Y0158806D01*
X0083840Y0162001D02*
X0079160Y0162001D01*
X0079160Y0162799D02*
X0083840Y0162799D01*
X0083840Y0163598D02*
X0079160Y0163598D01*
X0079160Y0165195D02*
X0083840Y0165195D01*
X0083840Y0165993D02*
X0079160Y0165993D01*
X0076487Y0165993D02*
X0075687Y0165993D01*
X0075687Y0165195D02*
X0076487Y0165195D01*
X0076487Y0164400D02*
X0075687Y0164400D01*
X0075687Y0169731D01*
X0074400Y0169731D01*
X0074400Y0174206D01*
X0078536Y0174206D01*
X0078570Y0174241D01*
X0078570Y0172806D01*
X0078331Y0172568D01*
X0078331Y0169617D01*
X0078300Y0169635D01*
X0077944Y0169731D01*
X0076487Y0169731D01*
X0076487Y0164400D01*
X0076487Y0164396D02*
X0086513Y0164396D01*
X0086513Y0165195D02*
X0087313Y0165195D01*
X0087313Y0165993D02*
X0086513Y0165993D01*
X0086513Y0166792D02*
X0087313Y0166792D01*
X0087313Y0167590D02*
X0086513Y0167590D01*
X0086513Y0168389D02*
X0087313Y0168389D01*
X0087313Y0169187D02*
X0086513Y0169187D01*
X0081500Y0170004D02*
X0081500Y0170004D01*
X0078331Y0169986D02*
X0074400Y0169986D01*
X0074400Y0170784D02*
X0078331Y0170784D01*
X0078331Y0171583D02*
X0074400Y0171583D01*
X0074400Y0172381D02*
X0078331Y0172381D01*
X0078570Y0173180D02*
X0074400Y0173180D01*
X0074400Y0173978D02*
X0078570Y0173978D01*
X0076487Y0169187D02*
X0075687Y0169187D01*
X0075687Y0168389D02*
X0076487Y0168389D01*
X0076487Y0167590D02*
X0075687Y0167590D01*
X0075687Y0166792D02*
X0076487Y0166792D01*
X0076487Y0163598D02*
X0075687Y0163598D01*
X0075687Y0162799D02*
X0076487Y0162799D01*
X0076487Y0162001D02*
X0075687Y0162001D01*
X0075687Y0161202D02*
X0076487Y0161202D01*
X0076487Y0160403D02*
X0075687Y0160403D01*
X0075687Y0159605D02*
X0076487Y0159605D01*
X0076487Y0158806D02*
X0075687Y0158806D01*
X0074400Y0158008D02*
X0078331Y0158008D01*
X0078331Y0157209D02*
X0074400Y0157209D01*
X0074400Y0156411D02*
X0078331Y0156411D01*
X0078331Y0155612D02*
X0074400Y0155612D01*
X0074400Y0154814D02*
X0078950Y0154814D01*
X0074400Y0154015D02*
X0154900Y0154015D01*
X0154971Y0153217D02*
X0074400Y0153217D01*
X0074400Y0152418D02*
X0155302Y0152418D01*
X0155633Y0151620D02*
X0074400Y0151620D01*
X0074400Y0150821D02*
X0155963Y0150821D01*
X0156133Y0150412D02*
X0156133Y0150412D01*
X0156522Y0150023D02*
X0074400Y0150023D01*
X0074400Y0149224D02*
X0157321Y0149224D01*
X0158119Y0148426D02*
X0074400Y0148426D01*
X0074400Y0142836D02*
X0080752Y0142836D01*
X0078824Y0142038D02*
X0074400Y0142038D01*
X0074400Y0141239D02*
X0077784Y0141239D01*
X0076986Y0140441D02*
X0074400Y0140441D01*
X0074400Y0139642D02*
X0076187Y0139642D01*
X0075825Y0138844D02*
X0074400Y0138844D01*
X0074400Y0138045D02*
X0075494Y0138045D01*
X0075163Y0137247D02*
X0074400Y0137247D01*
X0074400Y0136448D02*
X0074900Y0136448D01*
X0074900Y0135650D02*
X0074400Y0135650D01*
X0074400Y0134851D02*
X0074900Y0134851D01*
X0074900Y0134053D02*
X0074400Y0134053D01*
X0074400Y0133254D02*
X0074956Y0133254D01*
X0075287Y0132456D02*
X0074400Y0132456D01*
X0074400Y0131657D02*
X0075617Y0131657D01*
X0075948Y0130859D02*
X0074400Y0130859D01*
X0074400Y0130060D02*
X0076485Y0130060D01*
X0077283Y0129262D02*
X0074400Y0129262D01*
X0074400Y0128463D02*
X0078082Y0128463D01*
X0079543Y0127665D02*
X0074400Y0127665D01*
X0074400Y0126866D02*
X0091616Y0126866D01*
X0091959Y0127460D02*
X0089606Y0123385D01*
X0089511Y0123029D01*
X0089511Y0122660D01*
X0089606Y0122304D01*
X0089790Y0121985D01*
X0090051Y0121724D01*
X0094126Y0119371D01*
X0097087Y0124499D01*
X0091959Y0127460D01*
X0091155Y0126068D02*
X0074400Y0126068D01*
X0074400Y0125269D02*
X0090694Y0125269D01*
X0090233Y0124470D02*
X0074400Y0124470D01*
X0074400Y0123672D02*
X0089772Y0123672D01*
X0089511Y0122873D02*
X0074400Y0122873D01*
X0074400Y0122075D02*
X0089738Y0122075D01*
X0090826Y0121276D02*
X0074400Y0121276D01*
X0074400Y0120478D02*
X0092209Y0120478D01*
X0093592Y0119679D02*
X0074400Y0119679D01*
X0074400Y0118881D02*
X0094975Y0118881D01*
X0095228Y0119679D02*
X0094304Y0119679D01*
X0094765Y0120478D02*
X0095689Y0120478D01*
X0096150Y0121276D02*
X0095226Y0121276D01*
X0095687Y0122075D02*
X0096611Y0122075D01*
X0097072Y0122873D02*
X0096148Y0122873D01*
X0096609Y0123672D02*
X0097533Y0123672D01*
X0097136Y0124470D02*
X0097070Y0124470D01*
X0097992Y0126068D02*
X0098916Y0126068D01*
X0099377Y0126866D02*
X0098453Y0126866D01*
X0098914Y0127665D02*
X0099838Y0127665D01*
X0100299Y0128463D02*
X0099375Y0128463D01*
X0099836Y0129262D02*
X0100760Y0129262D01*
X0100297Y0130060D02*
X0145703Y0130060D01*
X0145553Y0130320D02*
X0148513Y0125192D01*
X0153641Y0128153D01*
X0151288Y0132228D01*
X0151028Y0132488D01*
X0150709Y0132673D01*
X0150353Y0132768D01*
X0149984Y0132768D01*
X0149628Y0132673D01*
X0145553Y0130320D01*
X0144860Y0129920D02*
X0140785Y0127567D01*
X0140524Y0127307D01*
X0140340Y0126987D01*
X0140244Y0126631D01*
X0140244Y0126263D01*
X0140340Y0125907D01*
X0142693Y0121831D01*
X0147820Y0124792D01*
X0147821Y0124792D02*
X0144860Y0129920D01*
X0145240Y0129262D02*
X0146164Y0129262D01*
X0146625Y0128463D02*
X0145701Y0128463D01*
X0146162Y0127665D02*
X0147086Y0127665D01*
X0147547Y0126866D02*
X0146623Y0126866D01*
X0147084Y0126068D02*
X0148008Y0126068D01*
X0148469Y0125269D02*
X0147545Y0125269D01*
X0147264Y0124470D02*
X0148006Y0124470D01*
X0148864Y0124470D02*
X0148930Y0124470D01*
X0148647Y0125269D02*
X0150247Y0125269D01*
X0150030Y0126068D02*
X0151630Y0126068D01*
X0151413Y0126866D02*
X0153013Y0126866D01*
X0152796Y0127665D02*
X0159543Y0127665D01*
X0158412Y0128133D02*
X0158412Y0128133D01*
X0158412Y0128133D01*
X0158082Y0128463D02*
X0153462Y0128463D01*
X0153001Y0129262D02*
X0157283Y0129262D01*
X0156485Y0130060D02*
X0152540Y0130060D01*
X0152079Y0130859D02*
X0155948Y0130859D01*
X0156133Y0130412D02*
X0156133Y0130412D01*
X0155617Y0131657D02*
X0151618Y0131657D01*
X0151061Y0132456D02*
X0155287Y0132456D01*
X0149252Y0132456D02*
X0096748Y0132456D01*
X0098131Y0131657D02*
X0147869Y0131657D01*
X0146486Y0130859D02*
X0099514Y0130859D01*
X0102281Y0129262D02*
X0143719Y0129262D01*
X0142336Y0128463D02*
X0103664Y0128463D01*
X0105047Y0127665D02*
X0140953Y0127665D01*
X0140307Y0126866D02*
X0105693Y0126866D01*
X0105703Y0126068D02*
X0140297Y0126068D01*
X0140708Y0125269D02*
X0105292Y0125269D01*
X0104831Y0124470D02*
X0141169Y0124470D01*
X0141630Y0123672D02*
X0104370Y0123672D01*
X0103909Y0122873D02*
X0142091Y0122873D01*
X0142552Y0122075D02*
X0103448Y0122075D01*
X0096358Y0118082D02*
X0074400Y0118082D01*
X0143114Y0122075D02*
X0144714Y0122075D01*
X0144497Y0122873D02*
X0146097Y0122873D01*
X0145880Y0123672D02*
X0147480Y0123672D01*
X0148467Y0123672D02*
X0149391Y0123672D01*
X0149852Y0122873D02*
X0148928Y0122873D01*
X0149389Y0122075D02*
X0150313Y0122075D01*
X0150774Y0121276D02*
X0149850Y0121276D01*
X0150311Y0120478D02*
X0151235Y0120478D01*
X0151696Y0119679D02*
X0150772Y0119679D01*
X0151025Y0118881D02*
X0171600Y0118881D01*
X0171600Y0119679D02*
X0152408Y0119679D01*
X0153791Y0120478D02*
X0171600Y0120478D01*
X0171600Y0121276D02*
X0155174Y0121276D01*
X0156262Y0122075D02*
X0171600Y0122075D01*
X0171600Y0122873D02*
X0156489Y0122873D01*
X0156228Y0123672D02*
X0171600Y0123672D01*
X0171600Y0124470D02*
X0155767Y0124470D01*
X0155306Y0125269D02*
X0171600Y0125269D01*
X0171600Y0126068D02*
X0154845Y0126068D01*
X0154384Y0126866D02*
X0171600Y0126866D01*
X0171600Y0127665D02*
X0166457Y0127665D01*
X0167918Y0128463D02*
X0171600Y0128463D01*
X0171600Y0129262D02*
X0168717Y0129262D01*
X0169515Y0130060D02*
X0171600Y0130060D01*
X0171600Y0130859D02*
X0170052Y0130859D01*
X0169867Y0130412D02*
X0169867Y0130412D01*
X0170383Y0131657D02*
X0171600Y0131657D01*
X0171600Y0132456D02*
X0170713Y0132456D01*
X0171044Y0133254D02*
X0171600Y0133254D01*
X0171600Y0134053D02*
X0171100Y0134053D01*
X0171100Y0134851D02*
X0171600Y0134851D01*
X0171600Y0135650D02*
X0171100Y0135650D01*
X0171100Y0136448D02*
X0171600Y0136448D01*
X0171600Y0137247D02*
X0170837Y0137247D01*
X0170506Y0138045D02*
X0171600Y0138045D01*
X0171600Y0138844D02*
X0170175Y0138844D01*
X0169813Y0139642D02*
X0171600Y0139642D01*
X0171600Y0140441D02*
X0169014Y0140441D01*
X0168216Y0141239D02*
X0171600Y0141239D01*
X0171600Y0142038D02*
X0167176Y0142038D01*
X0167588Y0141867D02*
X0167588Y0141867D01*
X0165248Y0142836D02*
X0171600Y0142836D01*
X0174400Y0142836D02*
X0180752Y0142836D01*
X0181389Y0143100D02*
X0178412Y0141867D01*
X0178412Y0141867D01*
X0176133Y0139588D01*
X0174900Y0136611D01*
X0174900Y0133389D01*
X0176133Y0130412D01*
X0178412Y0128133D01*
X0181389Y0126900D01*
X0184611Y0126900D01*
X0187588Y0128133D01*
X0187588Y0128133D01*
X0189867Y0130412D01*
X0191100Y0133389D01*
X0191100Y0136611D01*
X0189867Y0139588D01*
X0189867Y0139588D01*
X0187588Y0141867D01*
X0184611Y0143100D01*
X0182669Y0143100D01*
X0181389Y0143100D01*
X0181389Y0143100D01*
X0178824Y0142038D02*
X0174400Y0142038D01*
X0174400Y0141239D02*
X0177784Y0141239D01*
X0176986Y0140441D02*
X0174400Y0140441D01*
X0174400Y0139642D02*
X0176187Y0139642D01*
X0176133Y0139588D02*
X0176133Y0139588D01*
X0175825Y0138844D02*
X0174400Y0138844D01*
X0174400Y0138045D02*
X0175494Y0138045D01*
X0175163Y0137247D02*
X0174400Y0137247D01*
X0174400Y0136448D02*
X0174900Y0136448D01*
X0174900Y0135650D02*
X0174400Y0135650D01*
X0174400Y0134851D02*
X0174900Y0134851D01*
X0174900Y0134053D02*
X0174400Y0134053D01*
X0174400Y0133254D02*
X0174956Y0133254D01*
X0175287Y0132456D02*
X0174400Y0132456D01*
X0174400Y0131657D02*
X0175617Y0131657D01*
X0175948Y0130859D02*
X0174400Y0130859D01*
X0174400Y0130060D02*
X0176485Y0130060D01*
X0176133Y0130412D02*
X0176133Y0130412D01*
X0177283Y0129262D02*
X0174400Y0129262D01*
X0174400Y0128463D02*
X0178082Y0128463D01*
X0178412Y0128133D02*
X0178412Y0128133D01*
X0179543Y0127665D02*
X0174400Y0127665D01*
X0174400Y0126866D02*
X0261600Y0126866D01*
X0261600Y0126068D02*
X0256528Y0126068D01*
X0256467Y0126081D02*
X0256260Y0126184D01*
X0256217Y0126228D01*
X0256173Y0126228D01*
X0256115Y0126257D01*
X0256029Y0126228D01*
X0255806Y0126228D01*
X0255629Y0126267D01*
X0255572Y0126306D01*
X0255507Y0126294D01*
X0255404Y0126317D01*
X0255313Y0126259D01*
X0255142Y0126228D01*
X0254757Y0126228D01*
X0254675Y0126252D01*
X0254375Y0126089D01*
X0254039Y0126027D01*
X0253989Y0125956D01*
X0253655Y0125696D01*
X0253298Y0125501D01*
X0253195Y0125477D01*
X0253025Y0125206D01*
X0252773Y0125010D01*
X0252764Y0124941D01*
X0252743Y0124930D01*
X0252617Y0124552D01*
X0252405Y0124214D01*
X0252407Y0124206D01*
X0252378Y0124177D01*
X0252378Y0123837D01*
X0252271Y0123515D01*
X0252321Y0123415D01*
X0252378Y0123155D01*
X0252378Y0122989D01*
X0252328Y0122968D01*
X0252283Y0122961D01*
X0252106Y0122986D01*
X0251975Y0122888D01*
X0251852Y0122864D01*
X0251782Y0122758D01*
X0251762Y0122742D01*
X0251448Y0122617D01*
X0251402Y0122509D01*
X0251244Y0122469D01*
X0251103Y0122234D01*
X0251054Y0122197D01*
X0251050Y0122173D01*
X0250834Y0122000D01*
X0250818Y0121857D01*
X0250734Y0121810D01*
X0250629Y0121444D01*
X0250609Y0121410D01*
X0250529Y0121348D01*
X0250518Y0121259D01*
X0250433Y0121117D01*
X0250477Y0120938D01*
X0250410Y0120870D01*
X0250410Y0120677D01*
X0250348Y0120459D01*
X0250405Y0120356D01*
X0250351Y0119924D01*
X0250410Y0119848D01*
X0250410Y0114358D01*
X0251201Y0113567D01*
X0252319Y0113567D01*
X0252647Y0113895D01*
X0252827Y0113940D01*
X0253029Y0114277D01*
X0253307Y0114555D01*
X0253307Y0114634D01*
X0253585Y0114912D01*
X0253602Y0114913D01*
X0253932Y0115299D01*
X0254291Y0115657D01*
X0254291Y0115717D01*
X0254405Y0115850D01*
X0254642Y0116087D01*
X0254752Y0116087D01*
X0254855Y0116013D01*
X0255297Y0116087D01*
X0255437Y0116087D01*
X0255473Y0116066D01*
X0255550Y0116087D01*
X0255744Y0116087D01*
X0255817Y0116160D01*
X0255947Y0116195D01*
X0255999Y0116204D01*
X0256073Y0116173D01*
X0256260Y0116247D01*
X0256431Y0116276D01*
X0256471Y0116332D01*
X0256520Y0116352D01*
X0256595Y0116372D01*
X0256699Y0116346D01*
X0256866Y0116446D01*
X0256985Y0116479D01*
X0257019Y0116538D01*
X0257086Y0116578D01*
X0257263Y0116649D01*
X0257346Y0116643D01*
X0257428Y0116715D01*
X0257505Y0116746D01*
X0257530Y0116804D01*
X0257676Y0116932D01*
X0257711Y0116953D01*
X0257752Y0116953D01*
X0257813Y0117015D01*
X0258052Y0117158D01*
X0258084Y0117285D01*
X0258116Y0117317D01*
X0258138Y0117336D01*
X0258230Y0117348D01*
X0258398Y0117564D01*
X0258503Y0117655D01*
X0258506Y0117702D01*
X0258522Y0117723D01*
X0258601Y0117802D01*
X0258692Y0117828D01*
X0258773Y0117974D01*
X0258858Y0118059D01*
X0258858Y0118127D01*
X0258913Y0118226D01*
X0259192Y0118585D01*
X0259178Y0118702D01*
X0259340Y0118797D01*
X0259440Y0119174D01*
X0259629Y0119514D01*
X0259578Y0119693D01*
X0259689Y0119792D01*
X0259714Y0120216D01*
X0259822Y0120626D01*
X0259778Y0120702D01*
X0259843Y0120798D01*
X0259771Y0121184D01*
X0259794Y0121577D01*
X0259752Y0121624D01*
X0259753Y0121625D01*
X0259605Y0122068D01*
X0259523Y0122506D01*
X0259538Y0122572D01*
X0259327Y0122903D01*
X0259202Y0123276D01*
X0259132Y0123312D01*
X0258904Y0123568D01*
X0258720Y0123856D01*
X0258698Y0123955D01*
X0258388Y0124148D01*
X0258145Y0124421D01*
X0258125Y0124422D01*
X0258110Y0124467D01*
X0258110Y0124925D01*
X0257993Y0125042D01*
X0257978Y0125150D01*
X0257850Y0125246D01*
X0257824Y0125324D01*
X0257698Y0125387D01*
X0257667Y0125481D01*
X0257441Y0125594D01*
X0257280Y0125755D01*
X0257170Y0125755D01*
X0256926Y0125939D01*
X0256890Y0125934D01*
X0256851Y0125996D01*
X0256467Y0126081D01*
X0256457Y0127665D02*
X0261600Y0127665D01*
X0261600Y0128463D02*
X0257918Y0128463D01*
X0257588Y0128133D02*
X0259867Y0130412D01*
X0261100Y0133389D01*
X0261100Y0136611D01*
X0259867Y0139588D01*
X0259867Y0139588D01*
X0257588Y0141867D01*
X0254611Y0143100D01*
X0252669Y0143100D01*
X0251389Y0143100D01*
X0251389Y0143100D01*
X0248412Y0141867D01*
X0248412Y0141867D01*
X0246133Y0139588D01*
X0244900Y0136611D01*
X0244900Y0133389D01*
X0246133Y0130412D01*
X0248412Y0128133D01*
X0251389Y0126900D01*
X0254611Y0126900D01*
X0257588Y0128133D01*
X0257588Y0128133D01*
X0258717Y0129262D02*
X0261600Y0129262D01*
X0261600Y0130060D02*
X0259515Y0130060D01*
X0259867Y0130412D02*
X0259867Y0130412D01*
X0260052Y0130859D02*
X0261600Y0130859D01*
X0261600Y0131657D02*
X0260383Y0131657D01*
X0260713Y0132456D02*
X0261600Y0132456D01*
X0261600Y0133254D02*
X0261044Y0133254D01*
X0261100Y0134053D02*
X0261600Y0134053D01*
X0261600Y0134851D02*
X0261100Y0134851D01*
X0261100Y0135650D02*
X0261600Y0135650D01*
X0261600Y0136448D02*
X0261100Y0136448D01*
X0260837Y0137247D02*
X0261600Y0137247D01*
X0261600Y0138045D02*
X0260506Y0138045D01*
X0260175Y0138844D02*
X0261600Y0138844D01*
X0261600Y0139642D02*
X0259813Y0139642D01*
X0259014Y0140441D02*
X0261600Y0140441D01*
X0261600Y0141239D02*
X0258216Y0141239D01*
X0257588Y0141867D02*
X0257588Y0141867D01*
X0257176Y0142038D02*
X0261600Y0142038D01*
X0261600Y0142836D02*
X0255248Y0142836D01*
X0250752Y0142836D02*
X0185248Y0142836D01*
X0187176Y0142038D02*
X0248824Y0142038D01*
X0247784Y0141239D02*
X0188216Y0141239D01*
X0187588Y0141867D02*
X0187588Y0141867D01*
X0189014Y0140441D02*
X0246986Y0140441D01*
X0246187Y0139642D02*
X0189813Y0139642D01*
X0190175Y0138844D02*
X0245825Y0138844D01*
X0246133Y0139588D02*
X0246133Y0139588D01*
X0245494Y0138045D02*
X0190506Y0138045D01*
X0190837Y0137247D02*
X0245163Y0137247D01*
X0244900Y0136448D02*
X0191100Y0136448D01*
X0191100Y0135650D02*
X0244900Y0135650D01*
X0244900Y0134851D02*
X0191100Y0134851D01*
X0191100Y0134053D02*
X0244900Y0134053D01*
X0244956Y0133254D02*
X0191044Y0133254D01*
X0190713Y0132456D02*
X0245287Y0132456D01*
X0245617Y0131657D02*
X0190383Y0131657D01*
X0190052Y0130859D02*
X0245948Y0130859D01*
X0246133Y0130412D02*
X0246133Y0130412D01*
X0246485Y0130060D02*
X0189515Y0130060D01*
X0189867Y0130412D02*
X0189867Y0130412D01*
X0188717Y0129262D02*
X0247283Y0129262D01*
X0248082Y0128463D02*
X0187918Y0128463D01*
X0186457Y0127665D02*
X0249543Y0127665D01*
X0248412Y0128133D02*
X0248412Y0128133D01*
X0253065Y0125269D02*
X0174400Y0125269D01*
X0174400Y0124470D02*
X0252566Y0124470D01*
X0252323Y0123672D02*
X0190621Y0123672D01*
X0190521Y0123773D02*
X0188885Y0124450D01*
X0187115Y0124450D01*
X0185479Y0123773D01*
X0184227Y0122521D01*
X0183550Y0120885D01*
X0183550Y0119115D01*
X0184227Y0117479D01*
X0185479Y0116227D01*
X0187115Y0115550D01*
X0188885Y0115550D01*
X0190521Y0116227D01*
X0191773Y0117479D01*
X0192450Y0119115D01*
X0192450Y0120885D01*
X0191773Y0122521D01*
X0190521Y0123773D01*
X0191420Y0122873D02*
X0251901Y0122873D01*
X0250928Y0122075D02*
X0191957Y0122075D01*
X0192288Y0121276D02*
X0250520Y0121276D01*
X0250353Y0120478D02*
X0192450Y0120478D01*
X0192450Y0119679D02*
X0250410Y0119679D01*
X0250410Y0118881D02*
X0192353Y0118881D01*
X0192022Y0118082D02*
X0250410Y0118082D01*
X0250410Y0117284D02*
X0191577Y0117284D01*
X0190779Y0116485D02*
X0250410Y0116485D01*
X0250410Y0115687D02*
X0189216Y0115687D01*
X0186784Y0115687D02*
X0179216Y0115687D01*
X0178885Y0115550D02*
X0180521Y0116227D01*
X0181773Y0117479D01*
X0182450Y0119115D01*
X0182450Y0120885D01*
X0181773Y0122521D01*
X0180521Y0123773D01*
X0178885Y0124450D01*
X0177115Y0124450D01*
X0175479Y0123773D01*
X0174400Y0122693D01*
X0174400Y0143600D01*
X0261600Y0143600D01*
X0261600Y0056400D01*
X0240841Y0056400D01*
X0240873Y0056432D01*
X0240873Y0063725D01*
X0240170Y0064428D01*
X0226578Y0064428D01*
X0225875Y0063725D01*
X0225875Y0056432D01*
X0225907Y0056400D01*
X0210093Y0056400D01*
X0210125Y0056432D01*
X0210125Y0063725D01*
X0209422Y0064428D01*
X0195830Y0064428D01*
X0195127Y0063725D01*
X0195127Y0056432D01*
X0195159Y0056400D01*
X0174400Y0056400D01*
X0174400Y0090364D01*
X0174432Y0090331D01*
X0177383Y0090331D01*
X0177365Y0090300D01*
X0177269Y0089944D01*
X0177269Y0088487D01*
X0182600Y0088487D01*
X0182600Y0091160D01*
X0180263Y0091160D01*
X0180263Y0095840D01*
X0182600Y0095840D01*
X0182600Y0098513D01*
X0183400Y0098513D01*
X0183400Y0095840D01*
X0185737Y0095840D01*
X0185737Y0091160D01*
X0183400Y0091160D01*
X0183400Y0088487D01*
X0182600Y0088487D01*
X0182600Y0087687D01*
X0177269Y0087687D01*
X0177269Y0086229D01*
X0177365Y0085873D01*
X0177549Y0085554D01*
X0177810Y0085293D01*
X0178129Y0085109D01*
X0178485Y0085013D01*
X0182600Y0085013D01*
X0182600Y0087687D01*
X0183400Y0087687D01*
X0183400Y0088487D01*
X0188731Y0088487D01*
X0188731Y0089944D01*
X0188635Y0090300D01*
X0188617Y0090331D01*
X0191568Y0090331D01*
X0191806Y0090570D01*
X0192646Y0090570D01*
X0192646Y0090330D01*
X0192994Y0089982D01*
X0192994Y0089086D01*
X0193228Y0088852D01*
X0201926Y0088852D01*
X0202160Y0089086D01*
X0202160Y0095939D01*
X0208323Y0095939D01*
X0208557Y0096173D01*
X0208557Y0107528D01*
X0208323Y0107762D01*
X0206061Y0107762D01*
X0206002Y0107821D01*
X0205589Y0107821D01*
X0205530Y0107762D01*
X0204891Y0107762D01*
X0204657Y0107528D01*
X0204657Y0104471D01*
X0204443Y0104471D01*
X0204443Y0100872D01*
X0203643Y0100872D01*
X0203643Y0104471D01*
X0203459Y0104471D01*
X0203459Y0107528D01*
X0203225Y0107762D01*
X0199724Y0107762D01*
X0199490Y0107528D01*
X0199490Y0097821D01*
X0193228Y0097821D01*
X0192994Y0097587D01*
X0192994Y0096789D01*
X0192646Y0096442D01*
X0192646Y0096430D01*
X0191806Y0096430D01*
X0191568Y0096668D01*
X0188617Y0096668D01*
X0188635Y0096700D01*
X0188731Y0097056D01*
X0188731Y0098513D01*
X0183400Y0098513D01*
X0183400Y0099313D01*
X0188731Y0099313D01*
X0188731Y0100771D01*
X0188635Y0101127D01*
X0188451Y0101446D01*
X0188190Y0101707D01*
X0187871Y0101891D01*
X0187515Y0101987D01*
X0183400Y0101987D01*
X0183400Y0099313D01*
X0182600Y0099313D01*
X0182600Y0098513D01*
X0177269Y0098513D01*
X0177269Y0097056D01*
X0177365Y0096700D01*
X0177383Y0096668D01*
X0174432Y0096668D01*
X0174400Y0096636D01*
X0174400Y0117307D01*
X0175479Y0116227D01*
X0177115Y0115550D01*
X0178885Y0115550D01*
X0176784Y0115687D02*
X0174400Y0115687D01*
X0174400Y0116485D02*
X0175221Y0116485D01*
X0174423Y0117284D02*
X0174400Y0117284D01*
X0174400Y0114888D02*
X0250410Y0114888D01*
X0250678Y0114090D02*
X0174400Y0114090D01*
X0174400Y0113291D02*
X0261600Y0113291D01*
X0261600Y0112493D02*
X0174400Y0112493D01*
X0174400Y0111694D02*
X0261600Y0111694D01*
X0261600Y0110896D02*
X0174400Y0110896D01*
X0174400Y0110097D02*
X0261600Y0110097D01*
X0261600Y0109299D02*
X0174400Y0109299D01*
X0174400Y0108500D02*
X0261600Y0108500D01*
X0261600Y0107702D02*
X0208384Y0107702D01*
X0208557Y0106903D02*
X0261600Y0106903D01*
X0261600Y0106105D02*
X0208557Y0106105D01*
X0208557Y0105306D02*
X0261600Y0105306D01*
X0261600Y0104508D02*
X0208557Y0104508D01*
X0208557Y0103709D02*
X0226016Y0103709D01*
X0225875Y0103568D02*
X0225875Y0096275D01*
X0226578Y0095572D01*
X0240170Y0095572D01*
X0240873Y0096275D01*
X0240873Y0103568D01*
X0240170Y0104271D01*
X0226578Y0104271D01*
X0225875Y0103568D01*
X0225875Y0102911D02*
X0208557Y0102911D01*
X0208557Y0102112D02*
X0225875Y0102112D01*
X0225875Y0101314D02*
X0208557Y0101314D01*
X0208557Y0100515D02*
X0225875Y0100515D01*
X0225875Y0099717D02*
X0208557Y0099717D01*
X0208557Y0098918D02*
X0225875Y0098918D01*
X0225875Y0098120D02*
X0208557Y0098120D01*
X0208557Y0097321D02*
X0225875Y0097321D01*
X0225875Y0096523D02*
X0208557Y0096523D01*
X0202160Y0095724D02*
X0226425Y0095724D01*
X0240323Y0095724D02*
X0261600Y0095724D01*
X0261600Y0094926D02*
X0202160Y0094926D01*
X0202160Y0094127D02*
X0261600Y0094127D01*
X0261600Y0093329D02*
X0202160Y0093329D01*
X0202160Y0092530D02*
X0261600Y0092530D01*
X0261600Y0091732D02*
X0202160Y0091732D01*
X0202160Y0090933D02*
X0261600Y0090933D01*
X0261600Y0090134D02*
X0202160Y0090134D01*
X0202160Y0089336D02*
X0261600Y0089336D01*
X0261600Y0088537D02*
X0188731Y0088537D01*
X0188731Y0089336D02*
X0192994Y0089336D01*
X0192842Y0090134D02*
X0188680Y0090134D01*
X0188731Y0087687D02*
X0183400Y0087687D01*
X0183400Y0085013D01*
X0187515Y0085013D01*
X0187871Y0085109D01*
X0188190Y0085293D01*
X0188451Y0085554D01*
X0188635Y0085873D01*
X0188731Y0086229D01*
X0188731Y0087687D01*
X0188731Y0086940D02*
X0261600Y0086940D01*
X0261600Y0086142D02*
X0188707Y0086142D01*
X0188241Y0085343D02*
X0261600Y0085343D01*
X0261600Y0084545D02*
X0174400Y0084545D01*
X0174400Y0085343D02*
X0177759Y0085343D01*
X0177293Y0086142D02*
X0174400Y0086142D01*
X0174400Y0086940D02*
X0177269Y0086940D01*
X0177269Y0088537D02*
X0174400Y0088537D01*
X0174400Y0087739D02*
X0182600Y0087739D01*
X0182600Y0088537D02*
X0183400Y0088537D01*
X0183400Y0087739D02*
X0261600Y0087739D01*
X0264400Y0087739D02*
X0311600Y0087739D01*
X0311600Y0088537D02*
X0264400Y0088537D01*
X0264400Y0089336D02*
X0311600Y0089336D01*
X0311600Y0090134D02*
X0264400Y0090134D01*
X0264400Y0090933D02*
X0311600Y0090933D01*
X0311600Y0091732D02*
X0264400Y0091732D01*
X0264400Y0092530D02*
X0311600Y0092530D01*
X0311600Y0093329D02*
X0264400Y0093329D01*
X0264400Y0094127D02*
X0311600Y0094127D01*
X0311600Y0094926D02*
X0264400Y0094926D01*
X0264400Y0095724D02*
X0291695Y0095724D01*
X0292115Y0095550D02*
X0290479Y0096227D01*
X0289227Y0097479D01*
X0288550Y0099115D01*
X0288550Y0100885D01*
X0289227Y0102521D01*
X0290479Y0103773D01*
X0292115Y0104450D01*
X0293885Y0104450D01*
X0295521Y0103773D01*
X0296773Y0102521D01*
X0297450Y0100885D01*
X0297450Y0099115D01*
X0296773Y0097479D01*
X0295521Y0096227D01*
X0293885Y0095550D01*
X0292115Y0095550D01*
X0290184Y0096523D02*
X0264400Y0096523D01*
X0264400Y0097321D02*
X0289386Y0097321D01*
X0288962Y0098120D02*
X0264400Y0098120D01*
X0264400Y0098918D02*
X0288631Y0098918D01*
X0288550Y0099717D02*
X0264400Y0099717D01*
X0264400Y0100515D02*
X0288550Y0100515D01*
X0288727Y0101314D02*
X0264400Y0101314D01*
X0264400Y0102112D02*
X0289058Y0102112D01*
X0289617Y0102911D02*
X0264400Y0102911D01*
X0264400Y0103709D02*
X0290416Y0103709D01*
X0295584Y0103709D02*
X0305416Y0103709D01*
X0305479Y0103773D02*
X0304227Y0102521D01*
X0303550Y0100885D01*
X0303550Y0099115D01*
X0304227Y0097479D01*
X0305479Y0096227D01*
X0307115Y0095550D01*
X0308885Y0095550D01*
X0310521Y0096227D01*
X0311600Y0097307D01*
X0311600Y0056400D01*
X0287274Y0056400D01*
X0287274Y0057242D01*
X0283801Y0057242D01*
X0283801Y0057427D01*
X0287274Y0057427D01*
X0287274Y0058503D01*
X0287256Y0058570D01*
X0289005Y0058570D01*
X0289046Y0058528D01*
X0293387Y0058528D01*
X0293500Y0058642D01*
X0293613Y0058528D01*
X0297954Y0058528D01*
X0297995Y0058570D01*
X0299496Y0058570D01*
X0300573Y0059016D01*
X0302286Y0060729D01*
X0302694Y0060729D01*
X0303397Y0061432D01*
X0303397Y0064383D01*
X0303428Y0064365D01*
X0303784Y0064269D01*
X0305242Y0064269D01*
X0305242Y0069600D01*
X0306042Y0069600D01*
X0306042Y0070400D01*
X0308715Y0070400D01*
X0308715Y0074515D01*
X0308620Y0074871D01*
X0308435Y0075190D01*
X0308175Y0075451D01*
X0307855Y0075635D01*
X0307499Y0075731D01*
X0306042Y0075731D01*
X0306042Y0070400D01*
X0305242Y0070400D01*
X0305242Y0075731D01*
X0303784Y0075731D01*
X0303428Y0075635D01*
X0303397Y0075617D01*
X0303397Y0078568D01*
X0302694Y0079271D01*
X0297763Y0079271D01*
X0297060Y0078568D01*
X0297060Y0075617D01*
X0297029Y0075635D01*
X0296673Y0075731D01*
X0295215Y0075731D01*
X0295215Y0070400D01*
X0297888Y0070400D01*
X0297888Y0072737D01*
X0302569Y0072737D01*
X0302569Y0070400D01*
X0305242Y0070400D01*
X0305242Y0069600D01*
X0302569Y0069600D01*
X0302569Y0067263D01*
X0297888Y0067263D01*
X0297888Y0069600D01*
X0295215Y0069600D01*
X0295215Y0070400D01*
X0294415Y0070400D01*
X0294415Y0075731D01*
X0292957Y0075731D01*
X0292601Y0075635D01*
X0292282Y0075451D01*
X0292021Y0075190D01*
X0291837Y0074871D01*
X0291742Y0074515D01*
X0291742Y0070400D01*
X0294415Y0070400D01*
X0294415Y0069600D01*
X0291742Y0069600D01*
X0291742Y0065485D01*
X0291837Y0065129D01*
X0292021Y0064810D01*
X0292282Y0064549D01*
X0292416Y0064472D01*
X0289046Y0064472D01*
X0289005Y0064430D01*
X0286917Y0064430D01*
X0286274Y0064164D01*
X0286274Y0083288D01*
X0286040Y0083522D01*
X0269960Y0083522D01*
X0269726Y0083288D01*
X0269726Y0063992D01*
X0269586Y0063954D01*
X0269266Y0063770D01*
X0269006Y0063509D01*
X0268821Y0063190D01*
X0268726Y0062834D01*
X0268726Y0061757D01*
X0272199Y0061757D01*
X0272199Y0061573D01*
X0268726Y0061573D01*
X0268726Y0060497D01*
X0268821Y0060141D01*
X0269006Y0059821D01*
X0269266Y0059561D01*
X0269372Y0059500D01*
X0269266Y0059439D01*
X0269006Y0059179D01*
X0268821Y0058859D01*
X0268726Y0058503D01*
X0268726Y0057427D01*
X0272199Y0057427D01*
X0272199Y0057242D01*
X0268726Y0057242D01*
X0268726Y0056400D01*
X0264400Y0056400D01*
X0264400Y0143600D01*
X0311600Y0143600D01*
X0311600Y0102693D01*
X0310521Y0103773D01*
X0308885Y0104450D01*
X0307115Y0104450D01*
X0305479Y0103773D01*
X0304617Y0102911D02*
X0296383Y0102911D01*
X0296942Y0102112D02*
X0304058Y0102112D01*
X0303727Y0101314D02*
X0297273Y0101314D01*
X0297450Y0100515D02*
X0303550Y0100515D01*
X0303550Y0099717D02*
X0297450Y0099717D01*
X0297369Y0098918D02*
X0303631Y0098918D01*
X0303962Y0098120D02*
X0297038Y0098120D01*
X0296614Y0097321D02*
X0304386Y0097321D01*
X0305184Y0096523D02*
X0295816Y0096523D01*
X0294305Y0095724D02*
X0306695Y0095724D01*
X0309305Y0095724D02*
X0311600Y0095724D01*
X0311600Y0096523D02*
X0310816Y0096523D01*
X0311383Y0102911D02*
X0311600Y0102911D01*
X0311600Y0103709D02*
X0310584Y0103709D01*
X0311600Y0104508D02*
X0264400Y0104508D01*
X0264400Y0105306D02*
X0311600Y0105306D01*
X0311600Y0106105D02*
X0264400Y0106105D01*
X0264400Y0106903D02*
X0311600Y0106903D01*
X0311600Y0107702D02*
X0264400Y0107702D01*
X0264400Y0108500D02*
X0311600Y0108500D01*
X0311600Y0109299D02*
X0264400Y0109299D01*
X0264400Y0110097D02*
X0311600Y0110097D01*
X0311600Y0110896D02*
X0264400Y0110896D01*
X0264400Y0111694D02*
X0311600Y0111694D01*
X0311600Y0112493D02*
X0264400Y0112493D01*
X0264400Y0113291D02*
X0311600Y0113291D01*
X0311600Y0114090D02*
X0264400Y0114090D01*
X0264400Y0114888D02*
X0311600Y0114888D01*
X0311600Y0115687D02*
X0264400Y0115687D01*
X0264400Y0116485D02*
X0311600Y0116485D01*
X0311600Y0117284D02*
X0264400Y0117284D01*
X0264400Y0118082D02*
X0311600Y0118082D01*
X0311600Y0118881D02*
X0264400Y0118881D01*
X0264400Y0119679D02*
X0311600Y0119679D01*
X0311600Y0120478D02*
X0264400Y0120478D01*
X0264400Y0121276D02*
X0311600Y0121276D01*
X0311600Y0122075D02*
X0264400Y0122075D01*
X0264400Y0122873D02*
X0311600Y0122873D01*
X0311600Y0123672D02*
X0264400Y0123672D01*
X0264400Y0124470D02*
X0311600Y0124470D01*
X0311600Y0125269D02*
X0264400Y0125269D01*
X0264400Y0126068D02*
X0311600Y0126068D01*
X0311600Y0126866D02*
X0264400Y0126866D01*
X0264400Y0127665D02*
X0269543Y0127665D01*
X0268412Y0128133D02*
X0271389Y0126900D01*
X0274611Y0126900D01*
X0277588Y0128133D01*
X0277588Y0128133D01*
X0279867Y0130412D01*
X0281100Y0133389D01*
X0281100Y0136611D01*
X0279867Y0139588D01*
X0279867Y0139588D01*
X0277588Y0141867D01*
X0274611Y0143100D01*
X0271389Y0143100D01*
X0268412Y0141867D01*
X0268412Y0141867D01*
X0266133Y0139588D01*
X0264900Y0136611D01*
X0264900Y0135331D01*
X0264900Y0133389D01*
X0266133Y0130412D01*
X0268412Y0128133D01*
X0268082Y0128463D02*
X0264400Y0128463D01*
X0264400Y0129262D02*
X0267283Y0129262D01*
X0266485Y0130060D02*
X0264400Y0130060D01*
X0264400Y0130859D02*
X0265948Y0130859D01*
X0266133Y0130412D02*
X0266133Y0130412D01*
X0265617Y0131657D02*
X0264400Y0131657D01*
X0264400Y0132456D02*
X0265287Y0132456D01*
X0264956Y0133254D02*
X0264400Y0133254D01*
X0264400Y0134053D02*
X0264900Y0134053D01*
X0264900Y0134851D02*
X0264400Y0134851D01*
X0264400Y0135650D02*
X0264900Y0135650D01*
X0264900Y0136448D02*
X0264400Y0136448D01*
X0264400Y0137247D02*
X0265163Y0137247D01*
X0265494Y0138045D02*
X0264400Y0138045D01*
X0264400Y0138844D02*
X0265825Y0138844D01*
X0266133Y0139588D02*
X0266133Y0139588D01*
X0266187Y0139642D02*
X0264400Y0139642D01*
X0264400Y0140441D02*
X0266986Y0140441D01*
X0267784Y0141239D02*
X0264400Y0141239D01*
X0264400Y0142038D02*
X0268824Y0142038D01*
X0270752Y0142836D02*
X0264400Y0142836D01*
X0261600Y0146400D02*
X0215693Y0146400D01*
X0216773Y0147479D01*
X0217450Y0149115D01*
X0217450Y0150885D01*
X0216773Y0152521D01*
X0215521Y0153773D01*
X0213885Y0154450D01*
X0212115Y0154450D01*
X0210479Y0153773D01*
X0209227Y0152521D01*
X0208550Y0150885D01*
X0208550Y0149115D01*
X0209227Y0147479D01*
X0210307Y0146400D01*
X0205693Y0146400D01*
X0206773Y0147479D01*
X0207450Y0149115D01*
X0207450Y0150885D01*
X0206773Y0152521D01*
X0205521Y0153773D01*
X0203885Y0154450D01*
X0202115Y0154450D01*
X0200479Y0153773D01*
X0199227Y0152521D01*
X0198550Y0150885D01*
X0198550Y0149115D01*
X0199227Y0147479D01*
X0200307Y0146400D01*
X0174400Y0146400D01*
X0174400Y0193600D01*
X0223797Y0193600D01*
X0223726Y0193334D01*
X0223726Y0192110D01*
X0226461Y0192110D01*
X0226461Y0191630D01*
X0223726Y0191630D01*
X0223726Y0191060D01*
X0208543Y0191060D01*
X0207466Y0190614D01*
X0207123Y0190271D01*
X0205534Y0190271D01*
X0204831Y0189568D01*
X0204831Y0186617D01*
X0204800Y0186635D01*
X0204444Y0186731D01*
X0202987Y0186731D01*
X0202987Y0181400D01*
X0205660Y0181400D01*
X0205660Y0183737D01*
X0210340Y0183737D01*
X0210340Y0181400D01*
X0213013Y0181400D01*
X0213013Y0180600D01*
X0210340Y0180600D01*
X0210340Y0178263D01*
X0205660Y0178263D01*
X0205660Y0180600D01*
X0202987Y0180600D01*
X0202987Y0181400D01*
X0202187Y0181400D01*
X0202187Y0186731D01*
X0200729Y0186731D01*
X0200373Y0186635D01*
X0200054Y0186451D01*
X0199793Y0186190D01*
X0199609Y0185871D01*
X0199513Y0185515D01*
X0199513Y0181400D01*
X0202187Y0181400D01*
X0202187Y0180600D01*
X0202987Y0180600D01*
X0202987Y0175269D01*
X0204444Y0175269D01*
X0204800Y0175365D01*
X0204831Y0175383D01*
X0204831Y0172432D01*
X0205534Y0171729D01*
X0210466Y0171729D01*
X0211168Y0172432D01*
X0211168Y0175383D01*
X0211200Y0175365D01*
X0211556Y0175269D01*
X0213013Y0175269D01*
X0213013Y0180600D01*
X0213813Y0180600D01*
X0213813Y0175269D01*
X0215271Y0175269D01*
X0215627Y0175365D01*
X0215946Y0175549D01*
X0216207Y0175810D01*
X0216391Y0176129D01*
X0216487Y0176485D01*
X0216487Y0180600D01*
X0213813Y0180600D01*
X0213813Y0181400D01*
X0216487Y0181400D01*
X0216487Y0185200D01*
X0224713Y0185200D01*
X0224726Y0185205D01*
X0224726Y0178023D01*
X0224960Y0177789D01*
X0241040Y0177789D01*
X0241274Y0178023D01*
X0241274Y0185508D01*
X0241414Y0185546D01*
X0241734Y0185730D01*
X0241994Y0185991D01*
X0242179Y0186310D01*
X0242274Y0186666D01*
X0242274Y0189613D01*
X0239687Y0189613D01*
X0239687Y0190387D01*
X0242274Y0190387D01*
X0242274Y0193334D01*
X0242203Y0193600D01*
X0261600Y0193600D01*
X0261600Y0146400D01*
X0261600Y0146829D02*
X0216122Y0146829D01*
X0216834Y0147627D02*
X0261600Y0147627D01*
X0261600Y0148426D02*
X0217165Y0148426D01*
X0217450Y0149224D02*
X0261600Y0149224D01*
X0261600Y0150023D02*
X0217450Y0150023D01*
X0217450Y0150821D02*
X0261600Y0150821D01*
X0261600Y0151620D02*
X0217146Y0151620D01*
X0216815Y0152418D02*
X0261600Y0152418D01*
X0261600Y0153217D02*
X0216076Y0153217D01*
X0214934Y0154015D02*
X0261600Y0154015D01*
X0261600Y0154814D02*
X0191100Y0154814D01*
X0191100Y0155612D02*
X0261600Y0155612D01*
X0261600Y0156411D02*
X0191100Y0156411D01*
X0191100Y0156611D02*
X0189867Y0159588D01*
X0189867Y0159588D01*
X0187588Y0161867D01*
X0184611Y0163100D01*
X0182669Y0163100D01*
X0181389Y0163100D01*
X0181389Y0163100D01*
X0178412Y0161867D01*
X0178412Y0161867D01*
X0176133Y0159588D01*
X0174900Y0156611D01*
X0174900Y0153389D01*
X0176133Y0150412D01*
X0178412Y0148133D01*
X0181389Y0146900D01*
X0184611Y0146900D01*
X0187588Y0148133D01*
X0187588Y0148133D01*
X0189867Y0150412D01*
X0191100Y0153389D01*
X0191100Y0156611D01*
X0190852Y0157209D02*
X0261600Y0157209D01*
X0261600Y0158008D02*
X0190521Y0158008D01*
X0190191Y0158806D02*
X0261600Y0158806D01*
X0261600Y0159605D02*
X0189850Y0159605D01*
X0189052Y0160403D02*
X0261600Y0160403D01*
X0261600Y0161202D02*
X0188253Y0161202D01*
X0187588Y0161867D02*
X0187588Y0161867D01*
X0187266Y0162001D02*
X0261600Y0162001D01*
X0261600Y0162799D02*
X0185338Y0162799D01*
X0182291Y0165657D02*
X0181932Y0165299D01*
X0181602Y0164913D01*
X0181585Y0164912D01*
X0181307Y0164634D01*
X0181307Y0164555D01*
X0181029Y0164277D01*
X0180827Y0163940D01*
X0180647Y0163895D01*
X0180319Y0163567D01*
X0179201Y0163567D01*
X0178410Y0164358D01*
X0178410Y0169848D01*
X0178351Y0169924D01*
X0178405Y0170356D01*
X0178348Y0170459D01*
X0178410Y0170677D01*
X0178410Y0170870D01*
X0178477Y0170938D01*
X0178433Y0171117D01*
X0178518Y0171259D01*
X0178529Y0171348D01*
X0178609Y0171410D01*
X0178629Y0171444D01*
X0178734Y0171810D01*
X0178818Y0171857D01*
X0178834Y0172000D01*
X0179050Y0172173D01*
X0179054Y0172197D01*
X0179103Y0172234D01*
X0179244Y0172469D01*
X0179402Y0172509D01*
X0179448Y0172617D01*
X0179762Y0172742D01*
X0179782Y0172758D01*
X0179852Y0172864D01*
X0179975Y0172888D01*
X0180106Y0172986D01*
X0180283Y0172961D01*
X0180328Y0172968D01*
X0180378Y0172989D01*
X0180378Y0173155D01*
X0180321Y0173415D01*
X0180271Y0173515D01*
X0180378Y0173837D01*
X0180378Y0174177D01*
X0180407Y0174206D01*
X0180405Y0174214D01*
X0180617Y0174552D01*
X0180743Y0174930D01*
X0180764Y0174941D01*
X0180773Y0175010D01*
X0181025Y0175206D01*
X0181195Y0175477D01*
X0181298Y0175501D01*
X0181655Y0175696D01*
X0181989Y0175956D01*
X0182039Y0176027D01*
X0182375Y0176089D01*
X0182675Y0176252D01*
X0182757Y0176228D01*
X0183142Y0176228D01*
X0183313Y0176259D01*
X0183404Y0176317D01*
X0183507Y0176294D01*
X0183572Y0176306D01*
X0183629Y0176267D01*
X0183806Y0176228D01*
X0184029Y0176228D01*
X0184115Y0176257D01*
X0184173Y0176228D01*
X0184217Y0176228D01*
X0184260Y0176184D01*
X0184467Y0176081D01*
X0184851Y0175996D01*
X0184890Y0175934D01*
X0184926Y0175939D01*
X0185170Y0175755D01*
X0185280Y0175755D01*
X0185441Y0175594D01*
X0185667Y0175481D01*
X0185698Y0175387D01*
X0185824Y0175324D01*
X0185850Y0175246D01*
X0185978Y0175150D01*
X0185993Y0175042D01*
X0186110Y0174925D01*
X0186110Y0174467D01*
X0186125Y0174422D01*
X0186145Y0174421D01*
X0186388Y0174148D01*
X0186698Y0173955D01*
X0186720Y0173856D01*
X0186904Y0173568D01*
X0187132Y0173312D01*
X0187202Y0173276D01*
X0187327Y0172903D01*
X0187538Y0172572D01*
X0187523Y0172506D01*
X0187605Y0172068D01*
X0187753Y0171625D01*
X0187752Y0171624D01*
X0187794Y0171577D01*
X0187771Y0171184D01*
X0187843Y0170798D01*
X0187778Y0170702D01*
X0187822Y0170626D01*
X0187714Y0170216D01*
X0187689Y0169792D01*
X0187578Y0169693D01*
X0187629Y0169514D01*
X0187440Y0169174D01*
X0187340Y0168797D01*
X0187178Y0168702D01*
X0187192Y0168585D01*
X0186913Y0168226D01*
X0186858Y0168127D01*
X0186858Y0168059D01*
X0186773Y0167974D01*
X0186692Y0167828D01*
X0186601Y0167802D01*
X0186522Y0167723D01*
X0186506Y0167702D01*
X0186503Y0167655D01*
X0186398Y0167564D01*
X0186230Y0167348D01*
X0186138Y0167336D01*
X0186116Y0167317D01*
X0186084Y0167285D01*
X0186052Y0167158D01*
X0185813Y0167015D01*
X0185752Y0166953D01*
X0185711Y0166953D01*
X0185676Y0166932D01*
X0185530Y0166804D01*
X0185505Y0166746D01*
X0185428Y0166715D01*
X0185346Y0166643D01*
X0185263Y0166649D01*
X0185086Y0166578D01*
X0185019Y0166538D01*
X0184985Y0166479D01*
X0184866Y0166446D01*
X0184699Y0166346D01*
X0184595Y0166372D01*
X0184520Y0166352D01*
X0184471Y0166332D01*
X0184431Y0166276D01*
X0184260Y0166247D01*
X0184073Y0166173D01*
X0183999Y0166204D01*
X0183947Y0166195D01*
X0183817Y0166160D01*
X0183744Y0166087D01*
X0183550Y0166087D01*
X0183473Y0166066D01*
X0183437Y0166087D01*
X0183297Y0166087D01*
X0182855Y0166013D01*
X0182752Y0166087D01*
X0182642Y0166087D01*
X0182405Y0165850D01*
X0182291Y0165717D01*
X0182291Y0165657D01*
X0182548Y0165993D02*
X0261600Y0165993D01*
X0261600Y0165195D02*
X0181843Y0165195D01*
X0181148Y0164396D02*
X0261600Y0164396D01*
X0261600Y0163598D02*
X0180349Y0163598D01*
X0180662Y0162799D02*
X0174400Y0162799D01*
X0174400Y0162001D02*
X0178734Y0162001D01*
X0177747Y0161202D02*
X0174400Y0161202D01*
X0174400Y0160403D02*
X0176948Y0160403D01*
X0176150Y0159605D02*
X0174400Y0159605D01*
X0174400Y0158806D02*
X0175809Y0158806D01*
X0176133Y0159588D02*
X0176133Y0159588D01*
X0175479Y0158008D02*
X0174400Y0158008D01*
X0174400Y0157209D02*
X0175148Y0157209D01*
X0174900Y0156411D02*
X0174400Y0156411D01*
X0174400Y0155612D02*
X0174900Y0155612D01*
X0174900Y0154814D02*
X0174400Y0154814D01*
X0174400Y0154015D02*
X0174900Y0154015D01*
X0174971Y0153217D02*
X0174400Y0153217D01*
X0174400Y0152418D02*
X0175302Y0152418D01*
X0175633Y0151620D02*
X0174400Y0151620D01*
X0174400Y0150821D02*
X0175963Y0150821D01*
X0176133Y0150412D02*
X0176133Y0150412D01*
X0176522Y0150023D02*
X0174400Y0150023D01*
X0174400Y0149224D02*
X0177321Y0149224D01*
X0178119Y0148426D02*
X0174400Y0148426D01*
X0174400Y0147627D02*
X0179633Y0147627D01*
X0178412Y0148133D02*
X0178412Y0148133D01*
X0174400Y0146829D02*
X0199878Y0146829D01*
X0199166Y0147627D02*
X0186367Y0147627D01*
X0187881Y0148426D02*
X0198835Y0148426D01*
X0198550Y0149224D02*
X0188679Y0149224D01*
X0189478Y0150023D02*
X0198550Y0150023D01*
X0198550Y0150821D02*
X0190037Y0150821D01*
X0189867Y0150412D02*
X0189867Y0150412D01*
X0190367Y0151620D02*
X0198854Y0151620D01*
X0199185Y0152418D02*
X0190698Y0152418D01*
X0191029Y0153217D02*
X0199924Y0153217D01*
X0201066Y0154015D02*
X0191100Y0154015D01*
X0204934Y0154015D02*
X0211066Y0154015D01*
X0209924Y0153217D02*
X0206076Y0153217D01*
X0206815Y0152418D02*
X0209185Y0152418D01*
X0208854Y0151620D02*
X0207146Y0151620D01*
X0207450Y0150821D02*
X0208550Y0150821D01*
X0208550Y0150023D02*
X0207450Y0150023D01*
X0207450Y0149224D02*
X0208550Y0149224D01*
X0208835Y0148426D02*
X0207165Y0148426D01*
X0206834Y0147627D02*
X0209166Y0147627D01*
X0209878Y0146829D02*
X0206122Y0146829D01*
X0179170Y0163598D02*
X0174400Y0163598D01*
X0174400Y0164396D02*
X0178410Y0164396D01*
X0178410Y0165195D02*
X0174400Y0165195D01*
X0174400Y0165993D02*
X0178410Y0165993D01*
X0178410Y0166792D02*
X0174400Y0166792D01*
X0174400Y0167590D02*
X0178410Y0167590D01*
X0178410Y0168389D02*
X0174400Y0168389D01*
X0174400Y0169187D02*
X0178410Y0169187D01*
X0178359Y0169986D02*
X0174400Y0169986D01*
X0174400Y0170784D02*
X0178410Y0170784D01*
X0178669Y0171583D02*
X0174400Y0171583D01*
X0174400Y0172381D02*
X0179191Y0172381D01*
X0180373Y0173180D02*
X0174400Y0173180D01*
X0174400Y0173978D02*
X0180378Y0173978D01*
X0180692Y0174777D02*
X0174400Y0174777D01*
X0174400Y0175575D02*
X0181434Y0175575D01*
X0181389Y0176900D02*
X0184611Y0176900D01*
X0187588Y0178133D01*
X0187588Y0178133D01*
X0189867Y0180412D01*
X0191100Y0183389D01*
X0191100Y0186611D01*
X0189867Y0189588D01*
X0189867Y0189588D01*
X0187588Y0191867D01*
X0184611Y0193100D01*
X0183331Y0193100D01*
X0181389Y0193100D01*
X0178412Y0191867D01*
X0178412Y0191867D01*
X0176133Y0189588D01*
X0174900Y0186611D01*
X0174900Y0183389D01*
X0176133Y0180412D01*
X0176133Y0180412D01*
X0178412Y0178133D01*
X0181389Y0176900D01*
X0180732Y0177172D02*
X0174400Y0177172D01*
X0174400Y0176374D02*
X0199543Y0176374D01*
X0199513Y0176485D02*
X0199609Y0176129D01*
X0199793Y0175810D01*
X0200054Y0175549D01*
X0200373Y0175365D01*
X0200729Y0175269D01*
X0202187Y0175269D01*
X0202187Y0180600D01*
X0199513Y0180600D01*
X0199513Y0176485D01*
X0199513Y0177172D02*
X0185268Y0177172D01*
X0185478Y0175575D02*
X0200028Y0175575D01*
X0202187Y0175575D02*
X0202987Y0175575D01*
X0202987Y0176374D02*
X0202187Y0176374D01*
X0202187Y0177172D02*
X0202987Y0177172D01*
X0202987Y0177971D02*
X0202187Y0177971D01*
X0202187Y0178769D02*
X0202987Y0178769D01*
X0202987Y0179568D02*
X0202187Y0179568D01*
X0202187Y0180366D02*
X0202987Y0180366D01*
X0202987Y0181165D02*
X0213013Y0181165D01*
X0213013Y0180366D02*
X0213813Y0180366D01*
X0213813Y0179568D02*
X0213013Y0179568D01*
X0213013Y0178769D02*
X0213813Y0178769D01*
X0213813Y0177971D02*
X0213013Y0177971D01*
X0213013Y0177172D02*
X0213813Y0177172D01*
X0213813Y0176374D02*
X0213013Y0176374D01*
X0213013Y0175575D02*
X0213813Y0175575D01*
X0215972Y0175575D02*
X0261600Y0175575D01*
X0261600Y0174777D02*
X0211168Y0174777D01*
X0211168Y0173978D02*
X0261600Y0173978D01*
X0261600Y0173180D02*
X0211168Y0173180D01*
X0211118Y0172381D02*
X0261600Y0172381D01*
X0261600Y0171583D02*
X0187789Y0171583D01*
X0187834Y0170784D02*
X0261600Y0170784D01*
X0261600Y0169986D02*
X0187700Y0169986D01*
X0187447Y0169187D02*
X0261600Y0169187D01*
X0261600Y0168389D02*
X0187040Y0168389D01*
X0186428Y0167590D02*
X0261600Y0167590D01*
X0261600Y0166792D02*
X0185525Y0166792D01*
X0187546Y0172381D02*
X0204882Y0172381D01*
X0204831Y0173180D02*
X0187235Y0173180D01*
X0186660Y0173978D02*
X0204831Y0173978D01*
X0204831Y0174777D02*
X0186110Y0174777D01*
X0187196Y0177971D02*
X0199513Y0177971D01*
X0199513Y0178769D02*
X0188224Y0178769D01*
X0189023Y0179568D02*
X0199513Y0179568D01*
X0199513Y0180366D02*
X0189821Y0180366D01*
X0189867Y0180412D02*
X0189867Y0180412D01*
X0190179Y0181165D02*
X0202187Y0181165D01*
X0202187Y0181963D02*
X0202987Y0181963D01*
X0202987Y0182762D02*
X0202187Y0182762D01*
X0202187Y0183560D02*
X0202987Y0183560D01*
X0202987Y0184359D02*
X0202187Y0184359D01*
X0202187Y0185157D02*
X0202987Y0185157D01*
X0202987Y0185956D02*
X0202187Y0185956D01*
X0199658Y0185956D02*
X0191100Y0185956D01*
X0191100Y0185157D02*
X0199513Y0185157D01*
X0199513Y0184359D02*
X0191100Y0184359D01*
X0191100Y0183560D02*
X0199513Y0183560D01*
X0199513Y0182762D02*
X0190840Y0182762D01*
X0190510Y0181963D02*
X0199513Y0181963D01*
X0205660Y0181963D02*
X0210340Y0181963D01*
X0210340Y0182762D02*
X0205660Y0182762D01*
X0205660Y0183560D02*
X0210340Y0183560D01*
X0210340Y0180366D02*
X0205660Y0180366D01*
X0205660Y0179568D02*
X0210340Y0179568D01*
X0210340Y0178769D02*
X0205660Y0178769D01*
X0213813Y0181165D02*
X0224726Y0181165D01*
X0224726Y0181963D02*
X0216487Y0181963D01*
X0216487Y0182762D02*
X0224726Y0182762D01*
X0224726Y0183560D02*
X0216487Y0183560D01*
X0216487Y0184359D02*
X0224726Y0184359D01*
X0224726Y0185157D02*
X0216487Y0185157D01*
X0204831Y0186754D02*
X0191041Y0186754D01*
X0190710Y0187553D02*
X0204831Y0187553D01*
X0204831Y0188351D02*
X0190379Y0188351D01*
X0190048Y0189150D02*
X0204831Y0189150D01*
X0205212Y0189948D02*
X0189507Y0189948D01*
X0188708Y0190747D02*
X0207788Y0190747D01*
X0223726Y0191545D02*
X0187910Y0191545D01*
X0187588Y0191867D02*
X0187588Y0191867D01*
X0186436Y0192344D02*
X0223726Y0192344D01*
X0223726Y0193142D02*
X0174400Y0193142D01*
X0174400Y0192344D02*
X0179564Y0192344D01*
X0178090Y0191545D02*
X0174400Y0191545D01*
X0174400Y0190747D02*
X0177292Y0190747D01*
X0176493Y0189948D02*
X0174400Y0189948D01*
X0174400Y0189150D02*
X0175952Y0189150D01*
X0176133Y0189588D02*
X0176133Y0189588D01*
X0175621Y0188351D02*
X0174400Y0188351D01*
X0174400Y0187553D02*
X0175290Y0187553D01*
X0174959Y0186754D02*
X0174400Y0186754D01*
X0174400Y0185956D02*
X0174900Y0185956D01*
X0174900Y0185157D02*
X0174400Y0185157D01*
X0174400Y0184359D02*
X0174900Y0184359D01*
X0174900Y0183560D02*
X0174400Y0183560D01*
X0174400Y0182762D02*
X0175160Y0182762D01*
X0175490Y0181963D02*
X0174400Y0181963D01*
X0174400Y0181165D02*
X0175821Y0181165D01*
X0176179Y0180366D02*
X0174400Y0180366D01*
X0174400Y0179568D02*
X0176977Y0179568D01*
X0177776Y0178769D02*
X0174400Y0178769D01*
X0174400Y0177971D02*
X0178804Y0177971D01*
X0178412Y0178133D02*
X0178412Y0178133D01*
X0171600Y0177971D02*
X0167196Y0177971D01*
X0167588Y0178133D02*
X0167588Y0178133D01*
X0164611Y0176900D01*
X0161389Y0176900D01*
X0158412Y0178133D01*
X0158412Y0178133D01*
X0156133Y0180412D01*
X0156133Y0180412D01*
X0154900Y0183389D01*
X0154900Y0186611D01*
X0156133Y0189588D01*
X0156133Y0189588D01*
X0158412Y0191867D01*
X0158412Y0191867D01*
X0161389Y0193100D01*
X0164611Y0193100D01*
X0167588Y0191867D01*
X0167588Y0191867D01*
X0169867Y0189588D01*
X0169867Y0189588D01*
X0171100Y0186611D01*
X0171100Y0184669D01*
X0171100Y0183389D01*
X0169867Y0180412D01*
X0169867Y0180412D01*
X0167588Y0178133D01*
X0168224Y0178769D02*
X0171600Y0178769D01*
X0171600Y0179568D02*
X0169023Y0179568D01*
X0169821Y0180366D02*
X0171600Y0180366D01*
X0171600Y0181165D02*
X0170179Y0181165D01*
X0170510Y0181963D02*
X0171600Y0181963D01*
X0171600Y0182762D02*
X0170840Y0182762D01*
X0171100Y0183560D02*
X0171600Y0183560D01*
X0171600Y0184359D02*
X0171100Y0184359D01*
X0171100Y0185157D02*
X0171600Y0185157D01*
X0171600Y0185956D02*
X0171100Y0185956D01*
X0171041Y0186754D02*
X0171600Y0186754D01*
X0171600Y0187553D02*
X0170710Y0187553D01*
X0170379Y0188351D02*
X0171600Y0188351D01*
X0171600Y0189150D02*
X0170048Y0189150D01*
X0169507Y0189948D02*
X0171600Y0189948D01*
X0171600Y0190747D02*
X0168708Y0190747D01*
X0167910Y0191545D02*
X0171600Y0191545D01*
X0171600Y0192344D02*
X0166436Y0192344D01*
X0171600Y0193142D02*
X0104105Y0193142D01*
X0104105Y0192344D02*
X0159564Y0192344D01*
X0158090Y0191545D02*
X0104105Y0191545D01*
X0104105Y0190747D02*
X0157292Y0190747D01*
X0156493Y0189948D02*
X0104105Y0189948D01*
X0104105Y0189150D02*
X0155952Y0189150D01*
X0155621Y0188351D02*
X0104105Y0188351D01*
X0104105Y0187553D02*
X0155290Y0187553D01*
X0154959Y0186754D02*
X0104105Y0186754D01*
X0104105Y0185956D02*
X0154900Y0185956D01*
X0154900Y0185157D02*
X0104105Y0185157D01*
X0104105Y0184359D02*
X0154900Y0184359D01*
X0154900Y0183560D02*
X0104105Y0183560D01*
X0104105Y0182762D02*
X0155160Y0182762D01*
X0155490Y0181963D02*
X0104105Y0181963D01*
X0104105Y0181165D02*
X0155821Y0181165D01*
X0156179Y0180366D02*
X0104105Y0180366D01*
X0104105Y0179568D02*
X0156977Y0179568D01*
X0157776Y0178769D02*
X0104105Y0178769D01*
X0104105Y0177971D02*
X0158804Y0177971D01*
X0160732Y0177172D02*
X0104105Y0177172D01*
X0104105Y0176374D02*
X0171600Y0176374D01*
X0171600Y0177172D02*
X0165268Y0177172D01*
X0165478Y0175575D02*
X0171600Y0175575D01*
X0171600Y0174777D02*
X0166110Y0174777D01*
X0166660Y0173978D02*
X0171600Y0173978D01*
X0171600Y0173180D02*
X0167235Y0173180D01*
X0167546Y0172381D02*
X0171600Y0172381D01*
X0171600Y0171583D02*
X0167789Y0171583D01*
X0167834Y0170784D02*
X0171600Y0170784D01*
X0171600Y0169986D02*
X0167700Y0169986D01*
X0167447Y0169187D02*
X0171600Y0169187D01*
X0171600Y0168389D02*
X0167040Y0168389D01*
X0166428Y0167590D02*
X0171600Y0167590D01*
X0171600Y0166792D02*
X0165525Y0166792D01*
X0162548Y0165993D02*
X0171600Y0165993D01*
X0171600Y0165195D02*
X0161843Y0165195D01*
X0161148Y0164396D02*
X0171600Y0164396D01*
X0159170Y0163598D02*
X0120696Y0163598D01*
X0119015Y0164396D02*
X0158410Y0164396D01*
X0160692Y0174777D02*
X0104105Y0174777D01*
X0104105Y0175575D02*
X0161434Y0175575D01*
X0216457Y0176374D02*
X0261600Y0176374D01*
X0261600Y0177172D02*
X0216487Y0177172D01*
X0216487Y0177971D02*
X0224779Y0177971D01*
X0224726Y0178769D02*
X0216487Y0178769D01*
X0216487Y0179568D02*
X0224726Y0179568D01*
X0224726Y0180366D02*
X0216487Y0180366D01*
X0241274Y0180366D02*
X0261600Y0180366D01*
X0261600Y0179568D02*
X0241274Y0179568D01*
X0241274Y0178769D02*
X0261600Y0178769D01*
X0261600Y0177971D02*
X0241221Y0177971D01*
X0241274Y0181165D02*
X0261600Y0181165D01*
X0261600Y0181963D02*
X0241274Y0181963D01*
X0241274Y0182762D02*
X0261600Y0182762D01*
X0261600Y0183560D02*
X0241274Y0183560D01*
X0241274Y0184359D02*
X0261600Y0184359D01*
X0261600Y0185157D02*
X0241274Y0185157D01*
X0241959Y0185956D02*
X0261600Y0185956D01*
X0261600Y0186754D02*
X0242274Y0186754D01*
X0242274Y0187553D02*
X0261600Y0187553D01*
X0261600Y0188351D02*
X0242274Y0188351D01*
X0242274Y0189150D02*
X0261600Y0189150D01*
X0261600Y0189948D02*
X0239687Y0189948D01*
X0242274Y0190747D02*
X0261600Y0190747D01*
X0261600Y0191545D02*
X0242274Y0191545D01*
X0242274Y0192344D02*
X0261600Y0192344D01*
X0261600Y0193142D02*
X0242274Y0193142D01*
X0264400Y0189233D02*
X0265370Y0188831D01*
X0265820Y0188831D01*
X0264900Y0186611D01*
X0264900Y0183389D01*
X0266133Y0180412D01*
X0268412Y0178133D01*
X0271389Y0176900D01*
X0274611Y0176900D01*
X0277588Y0178133D01*
X0277588Y0178133D01*
X0279867Y0180412D01*
X0281100Y0183389D01*
X0281100Y0186611D01*
X0279867Y0189588D01*
X0279867Y0189588D01*
X0277588Y0191867D01*
X0274611Y0193100D01*
X0271389Y0193100D01*
X0269168Y0192180D01*
X0269168Y0192630D01*
X0268767Y0193600D01*
X0311600Y0193600D01*
X0311600Y0190254D01*
X0305197Y0190254D01*
X0305114Y0190172D01*
X0303400Y0190172D01*
X0303400Y0186711D01*
X0302600Y0186711D01*
X0302600Y0190172D01*
X0300886Y0190172D01*
X0300803Y0190254D01*
X0292598Y0190254D01*
X0292364Y0190020D01*
X0292364Y0158980D01*
X0292598Y0158746D01*
X0300070Y0158746D01*
X0300070Y0158214D01*
X0299786Y0157930D01*
X0291806Y0157930D01*
X0291568Y0158168D01*
X0288617Y0158168D01*
X0288635Y0158200D01*
X0288731Y0158556D01*
X0288731Y0160013D01*
X0283400Y0160013D01*
X0283400Y0157340D01*
X0285737Y0157340D01*
X0285737Y0152660D01*
X0283400Y0152660D01*
X0283400Y0149987D01*
X0282600Y0149987D01*
X0282600Y0152660D01*
X0280263Y0152660D01*
X0280263Y0157340D01*
X0282600Y0157340D01*
X0282600Y0160013D01*
X0283400Y0160013D01*
X0283400Y0160813D01*
X0288731Y0160813D01*
X0288731Y0162271D01*
X0288635Y0162627D01*
X0288451Y0162946D01*
X0288190Y0163207D01*
X0287871Y0163391D01*
X0287515Y0163487D01*
X0283400Y0163487D01*
X0283400Y0160813D01*
X0282600Y0160813D01*
X0282600Y0160013D01*
X0277269Y0160013D01*
X0277269Y0158556D01*
X0277365Y0158200D01*
X0277383Y0158168D01*
X0274432Y0158168D01*
X0273729Y0157466D01*
X0273729Y0152534D01*
X0274432Y0151831D01*
X0277383Y0151831D01*
X0277365Y0151800D01*
X0277269Y0151444D01*
X0277269Y0149987D01*
X0282600Y0149987D01*
X0282600Y0149187D01*
X0277269Y0149187D01*
X0277269Y0147729D01*
X0277365Y0147373D01*
X0277549Y0147054D01*
X0277810Y0146793D01*
X0278129Y0146609D01*
X0278485Y0146513D01*
X0282600Y0146513D01*
X0282600Y0149187D01*
X0283400Y0149187D01*
X0283400Y0149987D01*
X0288731Y0149987D01*
X0288731Y0151444D01*
X0288635Y0151800D01*
X0288617Y0151831D01*
X0291568Y0151831D01*
X0291806Y0152070D01*
X0301583Y0152070D01*
X0302660Y0152516D01*
X0304660Y0154516D01*
X0305484Y0155340D01*
X0305930Y0156417D01*
X0305930Y0158746D01*
X0311600Y0158746D01*
X0311600Y0146400D01*
X0270693Y0146400D01*
X0271773Y0147479D01*
X0272450Y0149115D01*
X0272450Y0150885D01*
X0271773Y0152521D01*
X0270521Y0153773D01*
X0268885Y0154450D01*
X0267115Y0154450D01*
X0265479Y0153773D01*
X0264400Y0152693D01*
X0264400Y0157307D01*
X0265479Y0156227D01*
X0267115Y0155550D01*
X0268885Y0155550D01*
X0270521Y0156227D01*
X0271773Y0157479D01*
X0272450Y0159115D01*
X0272450Y0160885D01*
X0271773Y0162521D01*
X0270521Y0163773D01*
X0268885Y0164450D01*
X0267115Y0164450D01*
X0265479Y0163773D01*
X0264400Y0162693D01*
X0264400Y0189233D01*
X0264400Y0189150D02*
X0264601Y0189150D01*
X0264400Y0188351D02*
X0265621Y0188351D01*
X0265290Y0187553D02*
X0264400Y0187553D01*
X0264400Y0186754D02*
X0264959Y0186754D01*
X0264900Y0185956D02*
X0264400Y0185956D01*
X0264400Y0185157D02*
X0264900Y0185157D01*
X0264900Y0184359D02*
X0264400Y0184359D01*
X0264400Y0183560D02*
X0264900Y0183560D01*
X0265160Y0182762D02*
X0264400Y0182762D01*
X0264400Y0181963D02*
X0265490Y0181963D01*
X0265821Y0181165D02*
X0264400Y0181165D01*
X0264400Y0180366D02*
X0266179Y0180366D01*
X0266133Y0180412D02*
X0266133Y0180412D01*
X0266977Y0179568D02*
X0264400Y0179568D01*
X0264400Y0178769D02*
X0267776Y0178769D01*
X0268412Y0178133D02*
X0268412Y0178133D01*
X0268804Y0177971D02*
X0264400Y0177971D01*
X0264400Y0177172D02*
X0270732Y0177172D01*
X0275268Y0177172D02*
X0292364Y0177172D01*
X0292364Y0176374D02*
X0264400Y0176374D01*
X0264400Y0175575D02*
X0292364Y0175575D01*
X0292364Y0174777D02*
X0264400Y0174777D01*
X0264400Y0173978D02*
X0292364Y0173978D01*
X0292364Y0173180D02*
X0264400Y0173180D01*
X0264400Y0172381D02*
X0292364Y0172381D01*
X0292364Y0171583D02*
X0264400Y0171583D01*
X0264400Y0170784D02*
X0292364Y0170784D01*
X0292364Y0169986D02*
X0264400Y0169986D01*
X0264400Y0169187D02*
X0292364Y0169187D01*
X0292364Y0168389D02*
X0264400Y0168389D01*
X0264400Y0167590D02*
X0292364Y0167590D01*
X0292364Y0166792D02*
X0264400Y0166792D01*
X0264400Y0165993D02*
X0292364Y0165993D01*
X0292364Y0165195D02*
X0264400Y0165195D01*
X0264400Y0164396D02*
X0266985Y0164396D01*
X0265304Y0163598D02*
X0264400Y0163598D01*
X0264400Y0162799D02*
X0264506Y0162799D01*
X0269015Y0164396D02*
X0292364Y0164396D01*
X0292364Y0163598D02*
X0270696Y0163598D01*
X0271494Y0162799D02*
X0277464Y0162799D01*
X0277549Y0162946D02*
X0277365Y0162627D01*
X0277269Y0162271D01*
X0277269Y0160813D01*
X0282600Y0160813D01*
X0282600Y0163487D01*
X0278485Y0163487D01*
X0278129Y0163391D01*
X0277810Y0163207D01*
X0277549Y0162946D01*
X0277269Y0162001D02*
X0271988Y0162001D01*
X0272319Y0161202D02*
X0277269Y0161202D01*
X0277269Y0159605D02*
X0272450Y0159605D01*
X0272450Y0160403D02*
X0282600Y0160403D01*
X0282600Y0159605D02*
X0283400Y0159605D01*
X0283400Y0160403D02*
X0292364Y0160403D01*
X0292364Y0159605D02*
X0288731Y0159605D01*
X0288731Y0158806D02*
X0292537Y0158806D01*
X0291728Y0158008D02*
X0299864Y0158008D01*
X0305930Y0158008D02*
X0311600Y0158008D01*
X0311600Y0157209D02*
X0305930Y0157209D01*
X0305927Y0156411D02*
X0311600Y0156411D01*
X0311600Y0155612D02*
X0305597Y0155612D01*
X0304958Y0154814D02*
X0311600Y0154814D01*
X0311600Y0154015D02*
X0304159Y0154015D01*
X0303361Y0153217D02*
X0311600Y0153217D01*
X0311600Y0152418D02*
X0302424Y0152418D01*
X0311600Y0151620D02*
X0288684Y0151620D01*
X0288731Y0150821D02*
X0311600Y0150821D01*
X0311600Y0150023D02*
X0288731Y0150023D01*
X0288731Y0149187D02*
X0283400Y0149187D01*
X0283400Y0146513D01*
X0287515Y0146513D01*
X0287871Y0146609D01*
X0288190Y0146793D01*
X0288451Y0147054D01*
X0288635Y0147373D01*
X0288731Y0147729D01*
X0288731Y0149187D01*
X0288731Y0148426D02*
X0311600Y0148426D01*
X0311600Y0149224D02*
X0283400Y0149224D01*
X0283400Y0148426D02*
X0282600Y0148426D01*
X0282600Y0149224D02*
X0272450Y0149224D01*
X0272450Y0150023D02*
X0277269Y0150023D01*
X0277269Y0150821D02*
X0272450Y0150821D01*
X0272146Y0151620D02*
X0277316Y0151620D01*
X0277269Y0148426D02*
X0272165Y0148426D01*
X0271834Y0147627D02*
X0277297Y0147627D01*
X0277774Y0146829D02*
X0271122Y0146829D01*
X0275248Y0142836D02*
X0300752Y0142836D01*
X0301389Y0143100D02*
X0298412Y0141867D01*
X0296133Y0139588D01*
X0294900Y0136611D01*
X0294900Y0135331D01*
X0294900Y0133389D01*
X0296133Y0130412D01*
X0298412Y0128133D01*
X0301389Y0126900D01*
X0304611Y0126900D01*
X0307588Y0128133D01*
X0307588Y0128133D01*
X0309867Y0130412D01*
X0311100Y0133389D01*
X0311100Y0136611D01*
X0309867Y0139588D01*
X0309867Y0139588D01*
X0307588Y0141867D01*
X0304611Y0143100D01*
X0301389Y0143100D01*
X0301389Y0143100D01*
X0298824Y0142038D02*
X0277176Y0142038D01*
X0277588Y0141867D02*
X0277588Y0141867D01*
X0278216Y0141239D02*
X0287652Y0141239D01*
X0287675Y0141252D02*
X0287375Y0141089D01*
X0287039Y0141027D01*
X0286989Y0140956D01*
X0286655Y0140696D01*
X0286298Y0140501D01*
X0286195Y0140477D01*
X0286025Y0140206D01*
X0285773Y0140010D01*
X0285764Y0139941D01*
X0285743Y0139930D01*
X0285617Y0139552D01*
X0285405Y0139214D01*
X0285407Y0139206D01*
X0285378Y0139177D01*
X0285378Y0138837D01*
X0285271Y0138515D01*
X0285321Y0138415D01*
X0285378Y0138155D01*
X0285378Y0137989D01*
X0285328Y0137968D01*
X0285283Y0137961D01*
X0285106Y0137986D01*
X0284975Y0137888D01*
X0284852Y0137864D01*
X0284782Y0137758D01*
X0284762Y0137742D01*
X0284448Y0137617D01*
X0284402Y0137509D01*
X0284244Y0137469D01*
X0284103Y0137234D01*
X0284054Y0137197D01*
X0284050Y0137173D01*
X0283834Y0137000D01*
X0283818Y0136857D01*
X0283734Y0136810D01*
X0283629Y0136444D01*
X0283609Y0136410D01*
X0283529Y0136348D01*
X0283518Y0136259D01*
X0283433Y0136117D01*
X0283477Y0135938D01*
X0283410Y0135870D01*
X0283410Y0135677D01*
X0283348Y0135459D01*
X0283405Y0135356D01*
X0283351Y0134924D01*
X0283410Y0134848D01*
X0283410Y0129358D01*
X0284201Y0128567D01*
X0285319Y0128567D01*
X0285647Y0128895D01*
X0285827Y0128940D01*
X0286029Y0129277D01*
X0286307Y0129555D01*
X0286307Y0129634D01*
X0286585Y0129912D01*
X0286602Y0129913D01*
X0286932Y0130299D01*
X0287291Y0130657D01*
X0287291Y0130717D01*
X0287405Y0130850D01*
X0287642Y0131087D01*
X0287752Y0131087D01*
X0287855Y0131013D01*
X0288297Y0131087D01*
X0288437Y0131087D01*
X0288473Y0131066D01*
X0288550Y0131087D01*
X0288744Y0131087D01*
X0288817Y0131160D01*
X0288947Y0131195D01*
X0288999Y0131204D01*
X0289073Y0131173D01*
X0289260Y0131247D01*
X0289431Y0131276D01*
X0289471Y0131332D01*
X0289520Y0131352D01*
X0289595Y0131372D01*
X0289699Y0131346D01*
X0289866Y0131446D01*
X0289985Y0131479D01*
X0290019Y0131538D01*
X0290086Y0131578D01*
X0290263Y0131649D01*
X0290346Y0131643D01*
X0290428Y0131715D01*
X0290505Y0131746D01*
X0290530Y0131804D01*
X0290676Y0131932D01*
X0290711Y0131953D01*
X0290752Y0131953D01*
X0290813Y0132015D01*
X0291052Y0132158D01*
X0291084Y0132285D01*
X0291116Y0132317D01*
X0291138Y0132336D01*
X0291230Y0132348D01*
X0291398Y0132564D01*
X0291503Y0132655D01*
X0291506Y0132702D01*
X0291522Y0132723D01*
X0291601Y0132802D01*
X0291692Y0132828D01*
X0291773Y0132974D01*
X0291858Y0133059D01*
X0291858Y0133127D01*
X0291913Y0133226D01*
X0292192Y0133585D01*
X0292178Y0133702D01*
X0292340Y0133797D01*
X0292440Y0134174D01*
X0292629Y0134514D01*
X0292578Y0134693D01*
X0292689Y0134792D01*
X0292714Y0135216D01*
X0292822Y0135626D01*
X0292778Y0135702D01*
X0292843Y0135798D01*
X0292771Y0136184D01*
X0292794Y0136577D01*
X0292752Y0136624D01*
X0292753Y0136625D01*
X0292605Y0137068D01*
X0292523Y0137506D01*
X0292538Y0137572D01*
X0292327Y0137903D01*
X0292202Y0138276D01*
X0292132Y0138312D01*
X0291904Y0138568D01*
X0291720Y0138856D01*
X0291698Y0138955D01*
X0291388Y0139148D01*
X0291145Y0139421D01*
X0291125Y0139422D01*
X0291110Y0139467D01*
X0291110Y0139925D01*
X0290993Y0140042D01*
X0290978Y0140150D01*
X0290850Y0140246D01*
X0290824Y0140324D01*
X0290698Y0140387D01*
X0290667Y0140481D01*
X0290441Y0140594D01*
X0290280Y0140755D01*
X0290170Y0140755D01*
X0289926Y0140939D01*
X0289890Y0140934D01*
X0289851Y0140996D01*
X0289467Y0141081D01*
X0289260Y0141184D01*
X0289217Y0141228D01*
X0289173Y0141228D01*
X0289115Y0141257D01*
X0289029Y0141228D01*
X0288806Y0141228D01*
X0288629Y0141267D01*
X0288572Y0141306D01*
X0288507Y0141294D01*
X0288404Y0141317D01*
X0288313Y0141259D01*
X0288142Y0141228D01*
X0287757Y0141228D01*
X0287675Y0141252D01*
X0287719Y0141239D02*
X0288204Y0141239D01*
X0288755Y0141239D02*
X0289063Y0141239D01*
X0289150Y0141239D02*
X0297784Y0141239D01*
X0296986Y0140441D02*
X0290680Y0140441D01*
X0291110Y0139642D02*
X0296187Y0139642D01*
X0296133Y0139588D02*
X0296133Y0139588D01*
X0295825Y0138844D02*
X0291728Y0138844D01*
X0292279Y0138045D02*
X0295494Y0138045D01*
X0295163Y0137247D02*
X0292572Y0137247D01*
X0292786Y0136448D02*
X0294900Y0136448D01*
X0294900Y0135650D02*
X0292808Y0135650D01*
X0292692Y0134851D02*
X0294900Y0134851D01*
X0294900Y0134053D02*
X0292408Y0134053D01*
X0291935Y0133254D02*
X0294956Y0133254D01*
X0295287Y0132456D02*
X0291314Y0132456D01*
X0290362Y0131657D02*
X0295617Y0131657D01*
X0295948Y0130859D02*
X0287413Y0130859D01*
X0286728Y0130060D02*
X0296485Y0130060D01*
X0296133Y0130412D02*
X0296133Y0130412D01*
X0297283Y0129262D02*
X0286019Y0129262D01*
X0283506Y0129262D02*
X0278717Y0129262D01*
X0279515Y0130060D02*
X0283410Y0130060D01*
X0283410Y0130859D02*
X0280052Y0130859D01*
X0279867Y0130412D02*
X0279867Y0130412D01*
X0279867Y0130412D01*
X0280383Y0131657D02*
X0283410Y0131657D01*
X0283410Y0132456D02*
X0280713Y0132456D01*
X0281044Y0133254D02*
X0283410Y0133254D01*
X0283410Y0134053D02*
X0281100Y0134053D01*
X0281100Y0134851D02*
X0283407Y0134851D01*
X0283402Y0135650D02*
X0281100Y0135650D01*
X0281100Y0136448D02*
X0283630Y0136448D01*
X0284111Y0137247D02*
X0280837Y0137247D01*
X0280506Y0138045D02*
X0285378Y0138045D01*
X0285378Y0138844D02*
X0280175Y0138844D01*
X0279813Y0139642D02*
X0285647Y0139642D01*
X0286172Y0140441D02*
X0279014Y0140441D01*
X0282600Y0146829D02*
X0283400Y0146829D01*
X0283400Y0147627D02*
X0282600Y0147627D01*
X0282600Y0150023D02*
X0283400Y0150023D01*
X0283400Y0150821D02*
X0282600Y0150821D01*
X0282600Y0151620D02*
X0283400Y0151620D01*
X0283400Y0152418D02*
X0282600Y0152418D01*
X0280263Y0153217D02*
X0285737Y0153217D01*
X0285737Y0154015D02*
X0280263Y0154015D01*
X0280263Y0154814D02*
X0285737Y0154814D01*
X0285737Y0155612D02*
X0280263Y0155612D01*
X0280263Y0156411D02*
X0285737Y0156411D01*
X0285737Y0157209D02*
X0280263Y0157209D01*
X0282600Y0158008D02*
X0283400Y0158008D01*
X0283400Y0158806D02*
X0282600Y0158806D01*
X0282600Y0161202D02*
X0283400Y0161202D01*
X0283400Y0162001D02*
X0282600Y0162001D01*
X0282600Y0162799D02*
X0283400Y0162799D01*
X0288536Y0162799D02*
X0292364Y0162799D01*
X0292364Y0162001D02*
X0288731Y0162001D01*
X0288731Y0161202D02*
X0292364Y0161202D01*
X0277269Y0158806D02*
X0272322Y0158806D01*
X0271991Y0158008D02*
X0274272Y0158008D01*
X0273729Y0157209D02*
X0271503Y0157209D01*
X0270704Y0156411D02*
X0273729Y0156411D01*
X0273729Y0155612D02*
X0269036Y0155612D01*
X0269934Y0154015D02*
X0273729Y0154015D01*
X0273729Y0153217D02*
X0271076Y0153217D01*
X0271815Y0152418D02*
X0273845Y0152418D01*
X0273729Y0154814D02*
X0264400Y0154814D01*
X0264400Y0155612D02*
X0266964Y0155612D01*
X0266066Y0154015D02*
X0264400Y0154015D01*
X0264400Y0153217D02*
X0264924Y0153217D01*
X0265296Y0156411D02*
X0264400Y0156411D01*
X0264400Y0157209D02*
X0264497Y0157209D01*
X0288703Y0147627D02*
X0311600Y0147627D01*
X0311600Y0146829D02*
X0288226Y0146829D01*
X0305248Y0142836D02*
X0311600Y0142836D01*
X0311600Y0142038D02*
X0307176Y0142038D01*
X0307588Y0141867D02*
X0307588Y0141867D01*
X0308216Y0141239D02*
X0311600Y0141239D01*
X0311600Y0140441D02*
X0309014Y0140441D01*
X0309813Y0139642D02*
X0311600Y0139642D01*
X0311600Y0138844D02*
X0310175Y0138844D01*
X0310506Y0138045D02*
X0311600Y0138045D01*
X0311600Y0137247D02*
X0310837Y0137247D01*
X0311100Y0136448D02*
X0311600Y0136448D01*
X0311600Y0135650D02*
X0311100Y0135650D01*
X0311100Y0134851D02*
X0311600Y0134851D01*
X0311600Y0134053D02*
X0311100Y0134053D01*
X0311044Y0133254D02*
X0311600Y0133254D01*
X0311600Y0132456D02*
X0310713Y0132456D01*
X0310383Y0131657D02*
X0311600Y0131657D01*
X0311600Y0130859D02*
X0310052Y0130859D01*
X0309867Y0130412D02*
X0309867Y0130412D01*
X0309515Y0130060D02*
X0311600Y0130060D01*
X0311600Y0129262D02*
X0308717Y0129262D01*
X0307918Y0128463D02*
X0311600Y0128463D01*
X0311600Y0127665D02*
X0306457Y0127665D01*
X0299543Y0127665D02*
X0276457Y0127665D01*
X0277918Y0128463D02*
X0298082Y0128463D01*
X0298412Y0128133D02*
X0298412Y0128133D01*
X0261600Y0125269D02*
X0257843Y0125269D01*
X0258110Y0124470D02*
X0261600Y0124470D01*
X0261600Y0123672D02*
X0258838Y0123672D01*
X0259346Y0122873D02*
X0261600Y0122873D01*
X0261600Y0122075D02*
X0259604Y0122075D01*
X0259776Y0121276D02*
X0261600Y0121276D01*
X0261600Y0120478D02*
X0259783Y0120478D01*
X0259582Y0119679D02*
X0261600Y0119679D01*
X0261600Y0118881D02*
X0259363Y0118881D01*
X0258858Y0118082D02*
X0261600Y0118082D01*
X0261600Y0117284D02*
X0258084Y0117284D01*
X0256989Y0116485D02*
X0261600Y0116485D01*
X0261600Y0115687D02*
X0254291Y0115687D01*
X0253561Y0114888D02*
X0261600Y0114888D01*
X0261600Y0114090D02*
X0252916Y0114090D01*
X0261600Y0103709D02*
X0240732Y0103709D01*
X0240873Y0102911D02*
X0261600Y0102911D01*
X0261600Y0102112D02*
X0240873Y0102112D01*
X0240873Y0101314D02*
X0261600Y0101314D01*
X0261600Y0100515D02*
X0240873Y0100515D01*
X0240873Y0099717D02*
X0261600Y0099717D01*
X0261600Y0098918D02*
X0240873Y0098918D01*
X0240873Y0098120D02*
X0261600Y0098120D01*
X0261600Y0097321D02*
X0240873Y0097321D01*
X0240873Y0096523D02*
X0261600Y0096523D01*
X0264400Y0086940D02*
X0311600Y0086940D01*
X0311600Y0086142D02*
X0264400Y0086142D01*
X0264400Y0085343D02*
X0311600Y0085343D01*
X0311600Y0084545D02*
X0264400Y0084545D01*
X0264400Y0083746D02*
X0311600Y0083746D01*
X0311600Y0082948D02*
X0286274Y0082948D01*
X0286274Y0082149D02*
X0311600Y0082149D01*
X0311600Y0081351D02*
X0286274Y0081351D01*
X0286274Y0080552D02*
X0311600Y0080552D01*
X0311600Y0079754D02*
X0286274Y0079754D01*
X0286274Y0078955D02*
X0297447Y0078955D01*
X0297060Y0078157D02*
X0286274Y0078157D01*
X0286274Y0077358D02*
X0297060Y0077358D01*
X0297060Y0076560D02*
X0286274Y0076560D01*
X0286274Y0075761D02*
X0297060Y0075761D01*
X0295215Y0074963D02*
X0294415Y0074963D01*
X0294415Y0074164D02*
X0295215Y0074164D01*
X0295215Y0073366D02*
X0294415Y0073366D01*
X0294415Y0072567D02*
X0295215Y0072567D01*
X0295215Y0071769D02*
X0294415Y0071769D01*
X0294415Y0070970D02*
X0295215Y0070970D01*
X0295215Y0070172D02*
X0305242Y0070172D01*
X0305242Y0070970D02*
X0306042Y0070970D01*
X0306042Y0070172D02*
X0311600Y0070172D01*
X0311600Y0070970D02*
X0308715Y0070970D01*
X0308715Y0071769D02*
X0311600Y0071769D01*
X0311600Y0072567D02*
X0308715Y0072567D01*
X0308715Y0073366D02*
X0311600Y0073366D01*
X0311600Y0074164D02*
X0308715Y0074164D01*
X0308567Y0074963D02*
X0311600Y0074963D01*
X0311600Y0075761D02*
X0303397Y0075761D01*
X0303397Y0076560D02*
X0311600Y0076560D01*
X0311600Y0077358D02*
X0303397Y0077358D01*
X0303397Y0078157D02*
X0311600Y0078157D01*
X0311600Y0078955D02*
X0303009Y0078955D01*
X0305242Y0074963D02*
X0306042Y0074963D01*
X0306042Y0074164D02*
X0305242Y0074164D01*
X0305242Y0073366D02*
X0306042Y0073366D01*
X0306042Y0072567D02*
X0305242Y0072567D01*
X0305242Y0071769D02*
X0306042Y0071769D01*
X0306042Y0069600D02*
X0308715Y0069600D01*
X0308715Y0065485D01*
X0308620Y0065129D01*
X0308435Y0064810D01*
X0308175Y0064549D01*
X0307855Y0064365D01*
X0307499Y0064269D01*
X0306042Y0064269D01*
X0306042Y0069600D01*
X0306042Y0069373D02*
X0305242Y0069373D01*
X0305242Y0068575D02*
X0306042Y0068575D01*
X0306042Y0067776D02*
X0305242Y0067776D01*
X0305242Y0066978D02*
X0306042Y0066978D01*
X0306042Y0066179D02*
X0305242Y0066179D01*
X0305242Y0065381D02*
X0306042Y0065381D01*
X0306042Y0064582D02*
X0305242Y0064582D01*
X0303397Y0063784D02*
X0311600Y0063784D01*
X0311600Y0064582D02*
X0308208Y0064582D01*
X0308687Y0065381D02*
X0311600Y0065381D01*
X0311600Y0066179D02*
X0308715Y0066179D01*
X0308715Y0066978D02*
X0311600Y0066978D01*
X0311600Y0067776D02*
X0308715Y0067776D01*
X0308715Y0068575D02*
X0311600Y0068575D01*
X0311600Y0069373D02*
X0308715Y0069373D01*
X0302569Y0069373D02*
X0297888Y0069373D01*
X0297888Y0068575D02*
X0302569Y0068575D01*
X0302569Y0067776D02*
X0297888Y0067776D01*
X0294415Y0070172D02*
X0286274Y0070172D01*
X0286274Y0070970D02*
X0291742Y0070970D01*
X0291742Y0071769D02*
X0286274Y0071769D01*
X0286274Y0072567D02*
X0291742Y0072567D01*
X0291742Y0073366D02*
X0286274Y0073366D01*
X0286274Y0074164D02*
X0291742Y0074164D01*
X0291890Y0074963D02*
X0286274Y0074963D01*
X0297888Y0072567D02*
X0302569Y0072567D01*
X0302569Y0071769D02*
X0297888Y0071769D01*
X0297888Y0070970D02*
X0302569Y0070970D01*
X0291742Y0069373D02*
X0286274Y0069373D01*
X0286274Y0068575D02*
X0291742Y0068575D01*
X0291742Y0067776D02*
X0286274Y0067776D01*
X0286274Y0066978D02*
X0291742Y0066978D01*
X0291742Y0066179D02*
X0286274Y0066179D01*
X0286274Y0065381D02*
X0291770Y0065381D01*
X0292249Y0064582D02*
X0286274Y0064582D01*
X0287382Y0061665D02*
X0287500Y0061547D01*
X0287500Y0061500D01*
X0287274Y0058194D02*
X0311600Y0058194D01*
X0311600Y0057396D02*
X0283801Y0057396D01*
X0287274Y0056597D02*
X0311600Y0056597D01*
X0311600Y0058993D02*
X0300516Y0058993D01*
X0301348Y0059791D02*
X0311600Y0059791D01*
X0311600Y0060590D02*
X0302147Y0060590D01*
X0303353Y0061388D02*
X0311600Y0061388D01*
X0311600Y0062187D02*
X0303397Y0062187D01*
X0303397Y0062985D02*
X0311600Y0062985D01*
X0272199Y0057396D02*
X0264400Y0057396D01*
X0264400Y0058194D02*
X0268726Y0058194D01*
X0268898Y0058993D02*
X0264400Y0058993D01*
X0264400Y0059791D02*
X0269036Y0059791D01*
X0268726Y0060590D02*
X0264400Y0060590D01*
X0264400Y0061388D02*
X0268726Y0061388D01*
X0268726Y0062187D02*
X0264400Y0062187D01*
X0264400Y0062985D02*
X0268766Y0062985D01*
X0269290Y0063784D02*
X0264400Y0063784D01*
X0264400Y0064582D02*
X0269726Y0064582D01*
X0269726Y0065381D02*
X0264400Y0065381D01*
X0264400Y0066179D02*
X0269726Y0066179D01*
X0269726Y0066978D02*
X0264400Y0066978D01*
X0264400Y0067776D02*
X0269726Y0067776D01*
X0269726Y0068575D02*
X0264400Y0068575D01*
X0264400Y0069373D02*
X0269726Y0069373D01*
X0269726Y0070172D02*
X0264400Y0070172D01*
X0264400Y0070970D02*
X0269726Y0070970D01*
X0269726Y0071769D02*
X0264400Y0071769D01*
X0264400Y0072567D02*
X0269726Y0072567D01*
X0269726Y0073366D02*
X0264400Y0073366D01*
X0264400Y0074164D02*
X0269726Y0074164D01*
X0269726Y0074963D02*
X0264400Y0074963D01*
X0264400Y0075761D02*
X0269726Y0075761D01*
X0269726Y0076560D02*
X0264400Y0076560D01*
X0264400Y0077358D02*
X0269726Y0077358D01*
X0269726Y0078157D02*
X0264400Y0078157D01*
X0264400Y0078955D02*
X0269726Y0078955D01*
X0269726Y0079754D02*
X0264400Y0079754D01*
X0264400Y0080552D02*
X0269726Y0080552D01*
X0269726Y0081351D02*
X0264400Y0081351D01*
X0264400Y0082149D02*
X0269726Y0082149D01*
X0269726Y0082948D02*
X0264400Y0082948D01*
X0261600Y0082948D02*
X0174400Y0082948D01*
X0174400Y0083746D02*
X0261600Y0083746D01*
X0261600Y0082149D02*
X0174400Y0082149D01*
X0174400Y0081351D02*
X0261600Y0081351D01*
X0261600Y0080552D02*
X0174400Y0080552D01*
X0174400Y0079754D02*
X0261600Y0079754D01*
X0261600Y0078955D02*
X0174400Y0078955D01*
X0174400Y0078157D02*
X0261600Y0078157D01*
X0261600Y0077358D02*
X0174400Y0077358D01*
X0174400Y0076560D02*
X0261600Y0076560D01*
X0261600Y0075761D02*
X0174400Y0075761D01*
X0174400Y0074963D02*
X0261600Y0074963D01*
X0261600Y0074164D02*
X0174400Y0074164D01*
X0174400Y0073366D02*
X0261600Y0073366D01*
X0261600Y0072567D02*
X0174400Y0072567D01*
X0174400Y0071769D02*
X0261600Y0071769D01*
X0261600Y0070970D02*
X0174400Y0070970D01*
X0174400Y0070172D02*
X0261600Y0070172D01*
X0261600Y0069373D02*
X0174400Y0069373D01*
X0174400Y0068575D02*
X0261600Y0068575D01*
X0261600Y0067776D02*
X0174400Y0067776D01*
X0174400Y0066978D02*
X0261600Y0066978D01*
X0261600Y0066179D02*
X0174400Y0066179D01*
X0174400Y0065381D02*
X0261600Y0065381D01*
X0261600Y0064582D02*
X0174400Y0064582D01*
X0174400Y0063784D02*
X0195185Y0063784D01*
X0195127Y0062985D02*
X0174400Y0062985D01*
X0174400Y0062187D02*
X0195127Y0062187D01*
X0195127Y0061388D02*
X0174400Y0061388D01*
X0174400Y0060590D02*
X0195127Y0060590D01*
X0195127Y0059791D02*
X0174400Y0059791D01*
X0174400Y0058993D02*
X0195127Y0058993D01*
X0195127Y0058194D02*
X0174400Y0058194D01*
X0174400Y0057396D02*
X0195127Y0057396D01*
X0195127Y0056597D02*
X0174400Y0056597D01*
X0160192Y0057396D02*
X0133168Y0057396D01*
X0133168Y0058194D02*
X0158351Y0058194D01*
X0158412Y0058133D02*
X0158412Y0058133D01*
X0132340Y0066179D02*
X0127660Y0066179D01*
X0127660Y0066978D02*
X0132340Y0066978D01*
X0132340Y0067776D02*
X0127660Y0067776D01*
X0124987Y0067776D02*
X0124187Y0067776D01*
X0124187Y0066978D02*
X0124987Y0066978D01*
X0124987Y0066179D02*
X0124187Y0066179D01*
X0124187Y0065381D02*
X0091100Y0065381D01*
X0091100Y0066179D02*
X0100596Y0066179D01*
X0100479Y0066227D02*
X0102115Y0065550D01*
X0103885Y0065550D01*
X0105521Y0066227D01*
X0106773Y0067479D01*
X0107450Y0069115D01*
X0107450Y0070885D01*
X0106773Y0072521D01*
X0105521Y0073773D01*
X0103885Y0074450D01*
X0102115Y0074450D01*
X0100479Y0073773D01*
X0099227Y0072521D01*
X0098550Y0070885D01*
X0098550Y0069115D01*
X0099227Y0067479D01*
X0100479Y0066227D01*
X0099729Y0066978D02*
X0090948Y0066978D01*
X0090617Y0067776D02*
X0099104Y0067776D01*
X0098774Y0068575D02*
X0090287Y0068575D01*
X0089956Y0069373D02*
X0098550Y0069373D01*
X0098550Y0070172D02*
X0089283Y0070172D01*
X0088485Y0070970D02*
X0098585Y0070970D01*
X0098916Y0071769D02*
X0087686Y0071769D01*
X0085897Y0072567D02*
X0099274Y0072567D01*
X0100073Y0073366D02*
X0074400Y0073366D01*
X0074400Y0074164D02*
X0101425Y0074164D01*
X0104575Y0074164D02*
X0126928Y0074164D01*
X0126960Y0074963D02*
X0074400Y0074963D01*
X0074400Y0075761D02*
X0126960Y0075761D01*
X0126960Y0076560D02*
X0123941Y0076560D01*
X0124385Y0077358D02*
X0125992Y0077358D01*
X0125934Y0078157D02*
X0124400Y0078157D01*
X0124400Y0078955D02*
X0125934Y0078955D01*
X0125934Y0079754D02*
X0124400Y0079754D01*
X0124400Y0080552D02*
X0125934Y0080552D01*
X0112151Y0082948D02*
X0074400Y0082948D01*
X0074400Y0083746D02*
X0112151Y0083746D01*
X0112151Y0084545D02*
X0074400Y0084545D01*
X0074400Y0085343D02*
X0112151Y0085343D01*
X0112151Y0086142D02*
X0074400Y0086142D01*
X0074400Y0086940D02*
X0112151Y0086940D01*
X0105927Y0073366D02*
X0126831Y0073366D01*
X0126831Y0072567D02*
X0106726Y0072567D01*
X0107084Y0071769D02*
X0126831Y0071769D01*
X0124987Y0070970D02*
X0124187Y0070970D01*
X0124187Y0070172D02*
X0124987Y0070172D01*
X0124987Y0069373D02*
X0124187Y0069373D01*
X0124187Y0068575D02*
X0124987Y0068575D01*
X0121513Y0068575D02*
X0107226Y0068575D01*
X0107450Y0069373D02*
X0121513Y0069373D01*
X0121555Y0070172D02*
X0107450Y0070172D01*
X0107415Y0070970D02*
X0122087Y0070970D01*
X0121513Y0067776D02*
X0106895Y0067776D01*
X0106271Y0066978D02*
X0121513Y0066978D01*
X0121513Y0066179D02*
X0105404Y0066179D01*
X0080103Y0072567D02*
X0074400Y0072567D01*
X0074400Y0071769D02*
X0078314Y0071769D01*
X0077515Y0070970D02*
X0074400Y0070970D01*
X0074400Y0070172D02*
X0076717Y0070172D01*
X0076044Y0069373D02*
X0074400Y0069373D01*
X0074400Y0068575D02*
X0075713Y0068575D01*
X0075383Y0067776D02*
X0074400Y0067776D01*
X0074400Y0066978D02*
X0075052Y0066978D01*
X0074900Y0066179D02*
X0074400Y0066179D01*
X0074400Y0065381D02*
X0074900Y0065381D01*
X0074900Y0064582D02*
X0074400Y0064582D01*
X0074400Y0063784D02*
X0074900Y0063784D01*
X0075067Y0062985D02*
X0074400Y0062985D01*
X0074400Y0062187D02*
X0075398Y0062187D01*
X0075729Y0061388D02*
X0074400Y0061388D01*
X0174400Y0089336D02*
X0177269Y0089336D01*
X0177320Y0090134D02*
X0174400Y0090134D01*
X0180263Y0091732D02*
X0185737Y0091732D01*
X0185737Y0092530D02*
X0180263Y0092530D01*
X0180263Y0093329D02*
X0185737Y0093329D01*
X0185737Y0094127D02*
X0180263Y0094127D01*
X0180263Y0094926D02*
X0185737Y0094926D01*
X0185737Y0095724D02*
X0180263Y0095724D01*
X0182600Y0096523D02*
X0183400Y0096523D01*
X0183400Y0097321D02*
X0182600Y0097321D01*
X0182600Y0098120D02*
X0183400Y0098120D01*
X0183400Y0098918D02*
X0199490Y0098918D01*
X0199490Y0098120D02*
X0188731Y0098120D01*
X0188731Y0097321D02*
X0192994Y0097321D01*
X0192727Y0096523D02*
X0191714Y0096523D01*
X0188731Y0099717D02*
X0199490Y0099717D01*
X0199490Y0100515D02*
X0188731Y0100515D01*
X0188528Y0101314D02*
X0199490Y0101314D01*
X0199490Y0102112D02*
X0174400Y0102112D01*
X0174400Y0101314D02*
X0177472Y0101314D01*
X0177549Y0101446D02*
X0177365Y0101127D01*
X0177269Y0100771D01*
X0177269Y0099313D01*
X0182600Y0099313D01*
X0182600Y0101987D01*
X0178485Y0101987D01*
X0178129Y0101891D01*
X0177810Y0101707D01*
X0177549Y0101446D01*
X0177269Y0100515D02*
X0174400Y0100515D01*
X0174400Y0099717D02*
X0177269Y0099717D01*
X0177269Y0098120D02*
X0174400Y0098120D01*
X0174400Y0098918D02*
X0182600Y0098918D01*
X0182600Y0099717D02*
X0183400Y0099717D01*
X0183400Y0100515D02*
X0182600Y0100515D01*
X0182600Y0101314D02*
X0183400Y0101314D01*
X0177269Y0097321D02*
X0174400Y0097321D01*
X0174400Y0102911D02*
X0199490Y0102911D01*
X0199490Y0103709D02*
X0174400Y0103709D01*
X0174400Y0104508D02*
X0199490Y0104508D01*
X0199490Y0105306D02*
X0174400Y0105306D01*
X0174400Y0106105D02*
X0199490Y0106105D01*
X0199490Y0106903D02*
X0174400Y0106903D01*
X0174400Y0107702D02*
X0199664Y0107702D01*
X0203285Y0107702D02*
X0204831Y0107702D01*
X0204657Y0106903D02*
X0203459Y0106903D01*
X0203459Y0106105D02*
X0204657Y0106105D01*
X0204657Y0105306D02*
X0203459Y0105306D01*
X0203459Y0104508D02*
X0204657Y0104508D01*
X0204443Y0103709D02*
X0203643Y0103709D01*
X0203643Y0102911D02*
X0204443Y0102911D01*
X0204443Y0102112D02*
X0203643Y0102112D01*
X0203643Y0101314D02*
X0204443Y0101314D01*
X0196902Y0093500D02*
X0196471Y0093500D01*
X0196902Y0093500D02*
X0197016Y0093386D01*
X0183400Y0090933D02*
X0182600Y0090933D01*
X0182600Y0090134D02*
X0183400Y0090134D01*
X0183400Y0089336D02*
X0182600Y0089336D01*
X0182600Y0086940D02*
X0183400Y0086940D01*
X0183400Y0086142D02*
X0182600Y0086142D01*
X0182600Y0085343D02*
X0183400Y0085343D01*
X0210067Y0063784D02*
X0225933Y0063784D01*
X0225875Y0062985D02*
X0210125Y0062985D01*
X0210125Y0062187D02*
X0225875Y0062187D01*
X0225875Y0061388D02*
X0210125Y0061388D01*
X0210125Y0060590D02*
X0225875Y0060590D01*
X0225875Y0059791D02*
X0210125Y0059791D01*
X0210125Y0058993D02*
X0225875Y0058993D01*
X0225875Y0058194D02*
X0210125Y0058194D01*
X0210125Y0057396D02*
X0225875Y0057396D01*
X0225875Y0056597D02*
X0210125Y0056597D01*
X0240873Y0056597D02*
X0261600Y0056597D01*
X0261600Y0057396D02*
X0240873Y0057396D01*
X0240873Y0058194D02*
X0261600Y0058194D01*
X0261600Y0058993D02*
X0240873Y0058993D01*
X0240873Y0059791D02*
X0261600Y0059791D01*
X0261600Y0060590D02*
X0240873Y0060590D01*
X0240873Y0061388D02*
X0261600Y0061388D01*
X0261600Y0062187D02*
X0240873Y0062187D01*
X0240873Y0062985D02*
X0261600Y0062985D01*
X0261600Y0063784D02*
X0240815Y0063784D01*
X0264400Y0056597D02*
X0268726Y0056597D01*
X0185221Y0116485D02*
X0180779Y0116485D01*
X0181577Y0117284D02*
X0184423Y0117284D01*
X0183978Y0118082D02*
X0182022Y0118082D01*
X0182353Y0118881D02*
X0183647Y0118881D01*
X0183550Y0119679D02*
X0182450Y0119679D01*
X0182450Y0120478D02*
X0183550Y0120478D01*
X0183712Y0121276D02*
X0182288Y0121276D01*
X0181957Y0122075D02*
X0184043Y0122075D01*
X0184580Y0122873D02*
X0181420Y0122873D01*
X0180621Y0123672D02*
X0185379Y0123672D01*
X0175379Y0123672D02*
X0174400Y0123672D01*
X0174400Y0122873D02*
X0174580Y0122873D01*
X0174400Y0126068D02*
X0254260Y0126068D01*
X0171600Y0118082D02*
X0149641Y0118082D01*
X0148258Y0117284D02*
X0171600Y0117284D01*
X0158412Y0148133D02*
X0158412Y0148133D01*
X0081500Y0181004D02*
X0081500Y0181004D01*
X0081323Y0181181D01*
X0268956Y0193142D02*
X0311600Y0193142D01*
X0311600Y0192344D02*
X0276436Y0192344D01*
X0277588Y0191867D02*
X0277588Y0191867D01*
X0277910Y0191545D02*
X0311600Y0191545D01*
X0311600Y0190747D02*
X0278708Y0190747D01*
X0279507Y0189948D02*
X0292364Y0189948D01*
X0292364Y0189150D02*
X0280048Y0189150D01*
X0280379Y0188351D02*
X0292364Y0188351D01*
X0292364Y0187553D02*
X0280710Y0187553D01*
X0281041Y0186754D02*
X0292364Y0186754D01*
X0292364Y0185956D02*
X0281100Y0185956D01*
X0281100Y0185157D02*
X0292364Y0185157D01*
X0292364Y0184359D02*
X0281100Y0184359D01*
X0281100Y0183560D02*
X0292364Y0183560D01*
X0292364Y0182762D02*
X0280840Y0182762D01*
X0280510Y0181963D02*
X0292364Y0181963D01*
X0292364Y0181165D02*
X0280179Y0181165D01*
X0279867Y0180412D02*
X0279867Y0180412D01*
X0279821Y0180366D02*
X0292364Y0180366D01*
X0292364Y0179568D02*
X0279023Y0179568D01*
X0278224Y0178769D02*
X0292364Y0178769D01*
X0292364Y0177971D02*
X0277196Y0177971D01*
X0302600Y0186754D02*
X0303400Y0186754D01*
X0303400Y0187553D02*
X0302600Y0187553D01*
X0302600Y0188351D02*
X0303400Y0188351D01*
X0303400Y0189150D02*
X0302600Y0189150D01*
X0302600Y0189948D02*
X0303400Y0189948D01*
X0269564Y0192344D02*
X0269168Y0192344D01*
D29*
X0244500Y0192059D02*
X0238500Y0192059D01*
X0238500Y0191461D02*
X0244500Y0191461D01*
X0244500Y0190862D02*
X0238500Y0190862D01*
X0238500Y0190264D02*
X0244500Y0190264D01*
X0244500Y0189665D02*
X0238500Y0189665D01*
X0238500Y0189067D02*
X0244500Y0189067D01*
X0244500Y0188468D02*
X0238500Y0188468D01*
X0238500Y0187870D02*
X0244500Y0187870D01*
X0244500Y0187271D02*
X0238500Y0187271D01*
X0238500Y0187000D02*
X0238500Y0193000D01*
X0241000Y0193000D01*
X0241000Y0193639D01*
X0241061Y0193700D01*
X0244500Y0193700D01*
X0244500Y0185000D01*
X0241174Y0185000D01*
X0241174Y0186187D01*
X0241000Y0186361D01*
X0241000Y0187000D01*
X0238500Y0187000D01*
X0241000Y0186672D02*
X0244500Y0186672D01*
X0244500Y0186074D02*
X0241174Y0186074D01*
X0241174Y0185475D02*
X0244500Y0185475D01*
X0227500Y0190900D02*
X0224837Y0190900D01*
X0224693Y0190960D01*
X0223500Y0190960D01*
X0223500Y0193700D01*
X0224939Y0193700D01*
X0225000Y0193639D01*
X0225000Y0192800D01*
X0227500Y0192800D01*
X0227500Y0190900D01*
X0227500Y0191461D02*
X0223500Y0191461D01*
X0223500Y0192059D02*
X0227500Y0192059D01*
X0227500Y0192658D02*
X0223500Y0192658D01*
X0223500Y0193256D02*
X0225000Y0193256D01*
X0225730Y0188130D02*
X0226701Y0188130D01*
X0224130Y0188130D01*
X0238500Y0192658D02*
X0244500Y0192658D01*
X0244500Y0193256D02*
X0241000Y0193256D01*
D30*
X0244000Y0190000D03*
X0249000Y0190000D03*
X0249000Y0185000D03*
X0244000Y0185000D03*
X0244000Y0180000D03*
X0249000Y0180000D03*
X0249000Y0175000D03*
X0244000Y0175000D03*
X0238000Y0175000D03*
X0233000Y0175000D03*
X0228000Y0175000D03*
X0223000Y0175000D03*
X0218000Y0175000D03*
X0212500Y0174000D03*
X0213000Y0170000D03*
X0218000Y0170000D03*
X0223000Y0170000D03*
X0228000Y0170000D03*
X0233000Y0170000D03*
X0238000Y0170000D03*
X0244000Y0170000D03*
X0249000Y0170000D03*
X0222500Y0180000D03*
X0218000Y0180000D03*
X0218000Y0184000D03*
X0222500Y0184000D03*
X0222500Y0192000D03*
X0218000Y0192000D03*
X0213000Y0192000D03*
X0208000Y0192000D03*
X0202000Y0192000D03*
X0200500Y0188500D03*
X0203500Y0188500D03*
X0198000Y0186000D03*
X0198000Y0181000D03*
X0198000Y0176000D03*
X0200500Y0174000D03*
X0203500Y0174000D03*
X0203000Y0170000D03*
X0208000Y0170000D03*
X0275500Y0159500D03*
X0278000Y0165000D03*
X0283000Y0165000D03*
X0290000Y0165000D03*
X0290000Y0159500D03*
X0275500Y0150500D03*
X0290000Y0149500D03*
X0295500Y0149500D03*
X0301000Y0149500D03*
X0306000Y0149500D03*
X0308500Y0153500D03*
X0308500Y0157000D03*
X0309000Y0192000D03*
X0303000Y0192000D03*
X0295500Y0192000D03*
X0289500Y0192000D03*
X0284000Y0192000D03*
X0112000Y0190000D03*
X0107000Y0190000D03*
X0107000Y0185000D03*
X0112000Y0185000D03*
X0112000Y0181000D03*
X0112000Y0176500D03*
X0107000Y0176500D03*
X0107000Y0181000D03*
X0107000Y0170500D03*
X0101500Y0170500D03*
X0096000Y0170500D03*
X0091000Y0170500D03*
X0086500Y0170500D03*
X0076500Y0171000D03*
X0091000Y0164000D03*
X0096000Y0164000D03*
X0101500Y0164000D03*
X0107000Y0164000D03*
X0107000Y0157000D03*
X0101500Y0157000D03*
X0096000Y0157000D03*
X0091000Y0157000D03*
X0086500Y0157000D03*
X0076500Y0157000D03*
X0088000Y0120000D03*
X0158000Y0120000D03*
X0178000Y0110000D03*
X0188000Y0110000D03*
X0193000Y0110000D03*
X0203000Y0110000D03*
X0198000Y0115000D03*
X0208000Y0115000D03*
X0213000Y0110000D03*
X0223000Y0110000D03*
X0233000Y0110000D03*
X0228000Y0115000D03*
X0238000Y0115000D03*
X0243000Y0110000D03*
X0253000Y0110000D03*
X0248000Y0105000D03*
X0253000Y0100000D03*
X0248000Y0095000D03*
X0253000Y0090000D03*
X0248000Y0085000D03*
X0253000Y0080000D03*
X0248000Y0075000D03*
X0253000Y0070000D03*
X0248000Y0065000D03*
X0253000Y0060000D03*
X0266500Y0060000D03*
X0266500Y0065000D03*
X0266500Y0070000D03*
X0266500Y0075000D03*
X0266500Y0080000D03*
X0266500Y0084500D03*
X0273000Y0086000D03*
X0278000Y0086000D03*
X0283000Y0086000D03*
X0288000Y0086000D03*
X0293000Y0086000D03*
X0293000Y0091000D03*
X0288000Y0091000D03*
X0283000Y0091000D03*
X0278000Y0091000D03*
X0273000Y0091000D03*
X0268000Y0091000D03*
X0289000Y0080000D03*
X0294728Y0080000D03*
X0294728Y0076500D03*
X0289000Y0075000D03*
X0289000Y0070000D03*
X0289000Y0066000D03*
X0305728Y0063500D03*
X0310228Y0063500D03*
X0310228Y0058500D03*
X0306228Y0058500D03*
X0301228Y0057500D03*
X0296228Y0057500D03*
X0289000Y0057500D03*
X0310228Y0070000D03*
X0310228Y0074500D03*
X0305728Y0076500D03*
X0305728Y0080000D03*
X0310228Y0080000D03*
X0300228Y0080500D03*
X0248000Y0115000D03*
X0191000Y0098000D03*
X0183000Y0103000D03*
X0176000Y0098500D03*
X0176000Y0088000D03*
X0183000Y0084000D03*
X0178000Y0080000D03*
X0188000Y0080000D03*
X0191000Y0088500D03*
X0188000Y0070000D03*
X0178000Y0070000D03*
X0178000Y0060000D03*
X0188000Y0060000D03*
X0140000Y0060000D03*
X0135000Y0058500D03*
X0125000Y0058500D03*
X0120000Y0060000D03*
X0120000Y0065500D03*
X0120000Y0070000D03*
X0125000Y0072500D03*
X0126000Y0075500D03*
X0134000Y0075500D03*
X0134500Y0072500D03*
X0140000Y0070000D03*
X0140000Y0065500D03*
X0118000Y0075000D03*
X0183000Y0115000D03*
D31*
X0267724Y0064055D02*
X0270028Y0064055D01*
X0270028Y0063396D01*
X0270047Y0063377D01*
X0270047Y0062480D01*
X0270874Y0062480D01*
X0270874Y0060906D01*
X0270047Y0060906D01*
X0270047Y0060348D01*
X0270028Y0060328D01*
X0270028Y0059724D01*
X0267724Y0059724D01*
X0267724Y0064055D01*
X0267724Y0063987D02*
X0270028Y0063987D01*
X0270028Y0063791D02*
X0267724Y0063791D01*
X0267724Y0063596D02*
X0270028Y0063596D01*
X0270028Y0063401D02*
X0267724Y0063401D01*
X0267724Y0063205D02*
X0270047Y0063205D01*
X0270047Y0063010D02*
X0267724Y0063010D01*
X0267724Y0062814D02*
X0270047Y0062814D01*
X0270047Y0062619D02*
X0267724Y0062619D01*
X0267724Y0062424D02*
X0270874Y0062424D01*
X0270874Y0062228D02*
X0267724Y0062228D01*
X0267724Y0062033D02*
X0270874Y0062033D01*
X0270874Y0061838D02*
X0267724Y0061838D01*
X0267724Y0061642D02*
X0270874Y0061642D01*
X0270874Y0061447D02*
X0267724Y0061447D01*
X0267724Y0061252D02*
X0270874Y0061252D01*
X0270874Y0061056D02*
X0267724Y0061056D01*
X0267724Y0060861D02*
X0270047Y0060861D01*
X0270047Y0060665D02*
X0267724Y0060665D01*
X0267724Y0060470D02*
X0270047Y0060470D01*
X0270028Y0060275D02*
X0267724Y0060275D01*
X0267724Y0060079D02*
X0270028Y0060079D01*
X0270028Y0059884D02*
X0267724Y0059884D01*
X0267500Y0059697D02*
X0270028Y0059697D01*
X0270028Y0058672D01*
X0270047Y0058652D01*
X0270047Y0058150D01*
X0270736Y0058150D01*
X0270736Y0056575D01*
X0270047Y0056575D01*
X0270047Y0056098D01*
X0267500Y0056098D01*
X0267500Y0059697D01*
X0267500Y0059689D02*
X0270028Y0059689D01*
X0270028Y0059493D02*
X0267500Y0059493D01*
X0267500Y0059298D02*
X0270028Y0059298D01*
X0270028Y0059103D02*
X0267500Y0059103D01*
X0267500Y0058907D02*
X0270028Y0058907D01*
X0270028Y0058712D02*
X0267500Y0058712D01*
X0267500Y0058517D02*
X0270047Y0058517D01*
X0270047Y0058321D02*
X0267500Y0058321D01*
X0267500Y0058126D02*
X0270736Y0058126D01*
X0270736Y0057930D02*
X0267500Y0057930D01*
X0267500Y0057735D02*
X0270736Y0057735D01*
X0270736Y0057540D02*
X0267500Y0057540D01*
X0267500Y0057344D02*
X0270736Y0057344D01*
X0270736Y0057149D02*
X0267500Y0057149D01*
X0267500Y0056954D02*
X0270736Y0056954D01*
X0270736Y0056758D02*
X0267500Y0056758D01*
X0267500Y0056563D02*
X0270047Y0056563D01*
X0270047Y0056368D02*
X0267500Y0056368D01*
X0267500Y0056172D02*
X0270047Y0056172D01*
X0284417Y0056378D02*
X0284417Y0058150D01*
X0285795Y0058150D01*
X0285795Y0058614D01*
X0285915Y0058614D01*
X0285972Y0058672D01*
X0285972Y0058937D01*
X0286819Y0058937D01*
X0286977Y0058872D01*
X0288748Y0058872D01*
X0288748Y0056098D01*
X0285795Y0056098D01*
X0285795Y0056378D01*
X0284417Y0056378D01*
X0284417Y0056563D02*
X0288748Y0056563D01*
X0288748Y0056758D02*
X0284417Y0056758D01*
X0284417Y0056954D02*
X0288748Y0056954D01*
X0288748Y0057149D02*
X0284417Y0057149D01*
X0284417Y0057344D02*
X0288748Y0057344D01*
X0288748Y0057540D02*
X0284417Y0057540D01*
X0284417Y0057735D02*
X0288748Y0057735D01*
X0288748Y0057930D02*
X0284417Y0057930D01*
X0284417Y0058126D02*
X0288748Y0058126D01*
X0288748Y0058321D02*
X0285795Y0058321D01*
X0285795Y0058517D02*
X0288748Y0058517D01*
X0288748Y0058712D02*
X0285972Y0058712D01*
X0285972Y0058907D02*
X0286891Y0058907D01*
X0285795Y0056368D02*
X0288748Y0056368D01*
X0288748Y0056172D02*
X0285795Y0056172D01*
X0300795Y0187677D02*
X0300795Y0190039D01*
X0299614Y0190039D01*
X0299614Y0190827D01*
X0306701Y0190827D01*
X0306701Y0190039D01*
X0305126Y0190039D01*
X0305126Y0187677D01*
X0300795Y0187677D01*
X0300795Y0187846D02*
X0305126Y0187846D01*
X0305126Y0188041D02*
X0300795Y0188041D01*
X0300795Y0188237D02*
X0305126Y0188237D01*
X0305126Y0188432D02*
X0300795Y0188432D01*
X0300795Y0188627D02*
X0305126Y0188627D01*
X0305126Y0188823D02*
X0300795Y0188823D01*
X0300795Y0189018D02*
X0305126Y0189018D01*
X0305126Y0189213D02*
X0300795Y0189213D01*
X0300795Y0189409D02*
X0305126Y0189409D01*
X0305126Y0189604D02*
X0300795Y0189604D01*
X0300795Y0189800D02*
X0305126Y0189800D01*
X0305126Y0189995D02*
X0300795Y0189995D01*
X0299614Y0190190D02*
X0306701Y0190190D01*
X0306701Y0190386D02*
X0299614Y0190386D01*
X0299614Y0190581D02*
X0306701Y0190581D01*
X0306701Y0190776D02*
X0299614Y0190776D01*
D32*
X0303000Y0162689D02*
X0303000Y0157000D01*
X0301000Y0155000D01*
X0289004Y0155000D01*
X0224130Y0188130D02*
X0209126Y0188130D01*
X0208000Y0187004D01*
X0081500Y0181004D02*
X0081500Y0170004D01*
X0189004Y0093500D02*
X0196471Y0093500D01*
X0129890Y0081339D02*
X0129890Y0071614D01*
X0130000Y0071504D01*
X0287500Y0061500D02*
X0291217Y0061500D01*
X0295783Y0061500D02*
X0298913Y0061500D01*
X0300228Y0062815D01*
X0300228Y0063996D01*
D33*
X0287382Y0061665D02*
X0283709Y0061665D01*
D34*
X0293000Y0100000D03*
X0308000Y0100000D03*
X0188000Y0120000D03*
X0178000Y0120000D03*
X0203000Y0150000D03*
X0213000Y0150000D03*
X0268000Y0150000D03*
X0268000Y0160000D03*
X0118000Y0160000D03*
X0118000Y0170000D03*
X0103000Y0070000D03*
X0103000Y0060000D03*
M02*
