G75*
%MOIN*%
%OFA0B0*%
%FSLAX25Y25*%
%IPPOS*%
%LPD*%
%AMOC8*
5,1,8,0,0,1.08239X$1,22.5*
%
%ADD10C,0.13800*%
%ADD11C,0.04737*%
%ADD12R,0.04146X0.09461*%
%ADD13R,0.04737X0.04934*%
%ADD14R,0.10249X0.10249*%
%ADD15R,0.10643X0.10643*%
%ADD16R,0.06312X0.07650*%
%ADD17R,0.13398X0.07099*%
%ADD18R,0.05918X0.05997*%
%ADD19R,0.07139X0.05918*%
%ADD20R,0.09461X0.04146*%
%ADD21R,0.04934X0.04737*%
%ADD22R,0.05131X0.02769*%
%ADD23R,0.03556X0.04343*%
%ADD24R,0.06863X0.06863*%
%ADD25R,0.07139X0.05721*%
%ADD26R,0.03950X0.07099*%
%ADD27R,0.03950X0.03359*%
%ADD28C,0.00300*%
%ADD29C,0.07300*%
D10*
X0103333Y0165000D03*
X0183333Y0165000D03*
X0183333Y0235000D03*
X0203333Y0235000D03*
X0203333Y0255000D03*
X0183333Y0255000D03*
X0183333Y0285000D03*
X0203333Y0285000D03*
X0273333Y0235000D03*
X0293333Y0235000D03*
X0323333Y0235000D03*
X0293333Y0285000D03*
X0103333Y0235000D03*
D11*
X0096333Y0158000D03*
X0286333Y0291500D03*
D12*
X0233747Y0281000D03*
X0222920Y0281000D03*
X0107247Y0264000D03*
X0096420Y0264000D03*
X0144920Y0165500D03*
X0155747Y0165500D03*
X0315148Y0170000D03*
X0325975Y0170000D03*
D13*
X0320562Y0163996D03*
X0320562Y0176004D03*
X0228333Y0274996D03*
X0228333Y0287004D03*
X0101833Y0270004D03*
X0101833Y0257996D03*
X0150333Y0171504D03*
X0150333Y0159496D03*
D14*
X0138609Y0182323D03*
D15*
G36*
X0125234Y0226593D02*
X0119913Y0217378D01*
X0110698Y0222699D01*
X0116019Y0231914D01*
X0125234Y0226593D01*
G37*
G36*
X0166753Y0217378D02*
X0161432Y0226593D01*
X0170647Y0231914D01*
X0175968Y0222699D01*
X0166753Y0217378D01*
G37*
D16*
X0150223Y0181339D03*
D17*
X0222959Y0160079D03*
X0253707Y0160079D03*
X0253707Y0199921D03*
D18*
X0224377Y0200472D03*
D19*
X0217349Y0193386D03*
D20*
X0203333Y0188087D03*
X0203333Y0198913D03*
X0303333Y0249587D03*
X0303333Y0260413D03*
D21*
X0297329Y0255000D03*
X0309337Y0255000D03*
X0209337Y0193500D03*
X0197329Y0193500D03*
D22*
X0292625Y0161665D03*
X0292625Y0157335D03*
X0304042Y0157335D03*
X0304042Y0161665D03*
D23*
X0311274Y0161500D03*
X0316392Y0161500D03*
D24*
X0117010Y0281181D03*
X0117010Y0288819D03*
X0101656Y0288819D03*
X0101656Y0281181D03*
D25*
X0323333Y0286311D03*
X0323333Y0262689D03*
D26*
X0259633Y0290000D03*
D27*
X0247034Y0288130D03*
X0247034Y0291870D03*
D28*
X0206432Y0272319D02*
X0206156Y0272752D01*
X0205841Y0273106D01*
X0205526Y0273303D01*
X0205526Y0272949D01*
X0205487Y0272831D01*
X0205448Y0272752D01*
X0205329Y0272634D01*
X0205211Y0272594D01*
X0205093Y0272594D01*
X0204778Y0272673D01*
X0204621Y0272752D01*
X0204503Y0272831D01*
X0204345Y0272949D01*
X0204109Y0273185D01*
X0203951Y0273421D01*
X0203912Y0273579D01*
X0203912Y0273815D01*
X0203951Y0273933D01*
X0203991Y0274012D01*
X0204070Y0274130D01*
X0204227Y0274248D01*
X0204385Y0274327D01*
X0204581Y0274366D01*
X0204739Y0274406D01*
X0204975Y0274406D01*
X0205054Y0274366D01*
X0205093Y0274366D01*
X0205054Y0274406D01*
X0204896Y0274524D01*
X0204345Y0274799D01*
X0203991Y0274878D01*
X0203597Y0274878D01*
X0203164Y0274799D01*
X0202731Y0274563D01*
X0202377Y0274287D01*
X0202180Y0273972D01*
X0202062Y0273618D01*
X0202062Y0273303D01*
X0202140Y0272949D01*
X0202337Y0272594D01*
X0202613Y0272280D01*
X0202928Y0271925D01*
X0203203Y0271650D01*
X0203322Y0271335D01*
X0203322Y0271059D01*
X0203243Y0270823D01*
X0203085Y0270626D01*
X0202849Y0270469D01*
X0202534Y0270390D01*
X0202219Y0270390D01*
X0202022Y0270429D01*
X0201825Y0270508D01*
X0201589Y0270744D01*
X0201510Y0270862D01*
X0201471Y0270980D01*
X0201471Y0271138D01*
X0201510Y0271256D01*
X0201747Y0271492D01*
X0201865Y0271531D01*
X0202022Y0271610D01*
X0202062Y0271650D01*
X0201904Y0271728D01*
X0201432Y0271728D01*
X0201196Y0271689D01*
X0200999Y0271650D01*
X0200802Y0271571D01*
X0200644Y0271453D01*
X0200448Y0271295D01*
X0200211Y0270902D01*
X0200133Y0270626D01*
X0200093Y0270311D01*
X0200093Y0264917D01*
X0200290Y0265114D01*
X0200408Y0265311D01*
X0200605Y0265508D01*
X0200802Y0265744D01*
X0201274Y0266217D01*
X0201747Y0266768D01*
X0202140Y0267161D01*
X0202534Y0267398D01*
X0202770Y0267437D01*
X0203518Y0267437D01*
X0203991Y0267516D01*
X0204424Y0267634D01*
X0204818Y0267791D01*
X0205211Y0268028D01*
X0205526Y0268303D01*
X0205841Y0268618D01*
X0206117Y0268972D01*
X0206510Y0269681D01*
X0206707Y0270429D01*
X0206747Y0271098D01*
X0206629Y0271728D01*
X0206432Y0272319D01*
X0206433Y0272315D02*
X0202582Y0272315D01*
X0202327Y0272613D02*
X0205017Y0272613D01*
X0205268Y0272613D02*
X0206244Y0272613D01*
X0206014Y0272912D02*
X0205514Y0272912D01*
X0205526Y0273210D02*
X0205675Y0273210D01*
X0204394Y0272912D02*
X0202161Y0272912D01*
X0202082Y0273210D02*
X0204092Y0273210D01*
X0203930Y0273509D02*
X0202062Y0273509D01*
X0202125Y0273808D02*
X0203912Y0273808D01*
X0204054Y0274106D02*
X0202263Y0274106D01*
X0202527Y0274405D02*
X0204735Y0274405D01*
X0204977Y0274405D02*
X0205055Y0274405D01*
X0204537Y0274703D02*
X0202988Y0274703D01*
X0202847Y0272016D02*
X0206533Y0272016D01*
X0206631Y0271718D02*
X0203135Y0271718D01*
X0203290Y0271419D02*
X0206687Y0271419D01*
X0206743Y0271121D02*
X0203322Y0271121D01*
X0203242Y0270822D02*
X0206730Y0270822D01*
X0206713Y0270524D02*
X0202932Y0270524D01*
X0201809Y0270524D02*
X0200120Y0270524D01*
X0200093Y0270225D02*
X0206654Y0270225D01*
X0206575Y0269927D02*
X0200093Y0269927D01*
X0200093Y0269628D02*
X0206481Y0269628D01*
X0206315Y0269330D02*
X0200093Y0269330D01*
X0200093Y0269031D02*
X0206149Y0269031D01*
X0205930Y0268733D02*
X0200093Y0268733D01*
X0200093Y0268434D02*
X0205657Y0268434D01*
X0205335Y0268136D02*
X0200093Y0268136D01*
X0200093Y0267837D02*
X0204894Y0267837D01*
X0204075Y0267539D02*
X0200093Y0267539D01*
X0200093Y0267240D02*
X0202272Y0267240D01*
X0201921Y0266942D02*
X0200093Y0266942D01*
X0200093Y0266643D02*
X0201640Y0266643D01*
X0201384Y0266345D02*
X0200093Y0266345D01*
X0200093Y0266046D02*
X0201104Y0266046D01*
X0200805Y0265748D02*
X0200093Y0265748D01*
X0200093Y0265449D02*
X0200546Y0265449D01*
X0200312Y0265151D02*
X0200093Y0265151D01*
X0200189Y0270822D02*
X0201537Y0270822D01*
X0201471Y0271121D02*
X0200343Y0271121D01*
X0200603Y0271419D02*
X0201674Y0271419D01*
X0201925Y0271718D02*
X0201369Y0271718D01*
X0186747Y0271098D02*
X0186629Y0271728D01*
X0186432Y0272319D01*
X0186156Y0272752D01*
X0185841Y0273106D01*
X0185526Y0273303D01*
X0185526Y0272949D01*
X0185487Y0272831D01*
X0185448Y0272752D01*
X0185329Y0272634D01*
X0185211Y0272594D01*
X0185093Y0272594D01*
X0184778Y0272673D01*
X0184621Y0272752D01*
X0184503Y0272831D01*
X0184345Y0272949D01*
X0184109Y0273185D01*
X0183951Y0273421D01*
X0183912Y0273579D01*
X0183912Y0273815D01*
X0183951Y0273933D01*
X0183991Y0274012D01*
X0184070Y0274130D01*
X0184227Y0274248D01*
X0184385Y0274327D01*
X0184581Y0274366D01*
X0184739Y0274406D01*
X0184975Y0274406D01*
X0185054Y0274366D01*
X0185093Y0274366D01*
X0185054Y0274406D01*
X0184896Y0274524D01*
X0184345Y0274799D01*
X0183991Y0274878D01*
X0183597Y0274878D01*
X0183164Y0274799D01*
X0182731Y0274563D01*
X0182377Y0274287D01*
X0182180Y0273972D01*
X0182062Y0273618D01*
X0182062Y0273303D01*
X0182140Y0272949D01*
X0182337Y0272594D01*
X0182613Y0272280D01*
X0182928Y0271925D01*
X0183203Y0271650D01*
X0183322Y0271335D01*
X0183322Y0271059D01*
X0183243Y0270823D01*
X0183085Y0270626D01*
X0182849Y0270469D01*
X0182534Y0270390D01*
X0182219Y0270390D01*
X0182022Y0270429D01*
X0181825Y0270508D01*
X0181589Y0270744D01*
X0181510Y0270862D01*
X0181471Y0270980D01*
X0181471Y0271138D01*
X0181510Y0271256D01*
X0181747Y0271492D01*
X0181865Y0271531D01*
X0182022Y0271610D01*
X0182062Y0271650D01*
X0181904Y0271728D01*
X0181432Y0271728D01*
X0181196Y0271689D01*
X0180999Y0271650D01*
X0180802Y0271571D01*
X0180644Y0271453D01*
X0180448Y0271295D01*
X0180211Y0270902D01*
X0180133Y0270626D01*
X0180093Y0270311D01*
X0180093Y0264917D01*
X0180290Y0265114D01*
X0180408Y0265311D01*
X0180605Y0265508D01*
X0180802Y0265744D01*
X0181274Y0266217D01*
X0181747Y0266768D01*
X0182140Y0267161D01*
X0182534Y0267398D01*
X0182770Y0267437D01*
X0183518Y0267437D01*
X0183991Y0267516D01*
X0184424Y0267634D01*
X0184818Y0267791D01*
X0185211Y0268028D01*
X0185526Y0268303D01*
X0185841Y0268618D01*
X0186117Y0268972D01*
X0186510Y0269681D01*
X0186707Y0270429D01*
X0186747Y0271098D01*
X0186743Y0271121D02*
X0183322Y0271121D01*
X0183290Y0271419D02*
X0186687Y0271419D01*
X0186631Y0271718D02*
X0183135Y0271718D01*
X0182847Y0272016D02*
X0186533Y0272016D01*
X0186433Y0272315D02*
X0182582Y0272315D01*
X0182327Y0272613D02*
X0185017Y0272613D01*
X0185268Y0272613D02*
X0186244Y0272613D01*
X0186014Y0272912D02*
X0185514Y0272912D01*
X0185526Y0273210D02*
X0185675Y0273210D01*
X0184394Y0272912D02*
X0182161Y0272912D01*
X0182082Y0273210D02*
X0184092Y0273210D01*
X0183930Y0273509D02*
X0182062Y0273509D01*
X0182125Y0273808D02*
X0183912Y0273808D01*
X0184054Y0274106D02*
X0182263Y0274106D01*
X0182527Y0274405D02*
X0184735Y0274405D01*
X0184977Y0274405D02*
X0185055Y0274405D01*
X0184537Y0274703D02*
X0182988Y0274703D01*
X0181925Y0271718D02*
X0181369Y0271718D01*
X0181674Y0271419D02*
X0180603Y0271419D01*
X0180343Y0271121D02*
X0181471Y0271121D01*
X0181537Y0270822D02*
X0180189Y0270822D01*
X0180120Y0270524D02*
X0181809Y0270524D01*
X0182932Y0270524D02*
X0186713Y0270524D01*
X0186730Y0270822D02*
X0183242Y0270822D01*
X0180093Y0270225D02*
X0186654Y0270225D01*
X0186575Y0269927D02*
X0180093Y0269927D01*
X0180093Y0269628D02*
X0186481Y0269628D01*
X0186315Y0269330D02*
X0180093Y0269330D01*
X0180093Y0269031D02*
X0186149Y0269031D01*
X0185930Y0268733D02*
X0180093Y0268733D01*
X0180093Y0268434D02*
X0185657Y0268434D01*
X0185335Y0268136D02*
X0180093Y0268136D01*
X0180093Y0267837D02*
X0184894Y0267837D01*
X0184075Y0267539D02*
X0180093Y0267539D01*
X0180093Y0267240D02*
X0182272Y0267240D01*
X0181921Y0266942D02*
X0180093Y0266942D01*
X0180093Y0266643D02*
X0181640Y0266643D01*
X0181384Y0266345D02*
X0180093Y0266345D01*
X0180093Y0266046D02*
X0181104Y0266046D01*
X0180805Y0265748D02*
X0180093Y0265748D01*
X0180093Y0265449D02*
X0180546Y0265449D01*
X0180312Y0265151D02*
X0180093Y0265151D01*
X0272211Y0220902D02*
X0272133Y0220626D01*
X0272093Y0220311D01*
X0272093Y0214917D01*
X0272290Y0215114D01*
X0272408Y0215311D01*
X0272605Y0215508D01*
X0272802Y0215744D01*
X0273274Y0216217D01*
X0273747Y0216768D01*
X0274140Y0217161D01*
X0274534Y0217398D01*
X0274770Y0217437D01*
X0275518Y0217437D01*
X0275991Y0217516D01*
X0276424Y0217634D01*
X0276818Y0217791D01*
X0277211Y0218028D01*
X0277526Y0218303D01*
X0277841Y0218618D01*
X0278117Y0218972D01*
X0278510Y0219681D01*
X0278707Y0220429D01*
X0278747Y0221098D01*
X0278629Y0221728D01*
X0278432Y0222319D01*
X0278156Y0222752D01*
X0277841Y0223106D01*
X0277526Y0223303D01*
X0277526Y0222949D01*
X0277487Y0222831D01*
X0277448Y0222752D01*
X0277329Y0222634D01*
X0277211Y0222594D01*
X0277093Y0222594D01*
X0276778Y0222673D01*
X0276621Y0222752D01*
X0276503Y0222831D01*
X0276345Y0222949D01*
X0276109Y0223185D01*
X0275951Y0223421D01*
X0275912Y0223579D01*
X0275912Y0223815D01*
X0275951Y0223933D01*
X0275991Y0224012D01*
X0276070Y0224130D01*
X0276227Y0224248D01*
X0276385Y0224327D01*
X0276581Y0224366D01*
X0276739Y0224406D01*
X0276975Y0224406D01*
X0277054Y0224366D01*
X0277093Y0224366D01*
X0277054Y0224406D01*
X0276896Y0224524D01*
X0276345Y0224799D01*
X0275991Y0224878D01*
X0275597Y0224878D01*
X0275164Y0224799D01*
X0274731Y0224563D01*
X0274377Y0224287D01*
X0274180Y0223972D01*
X0274062Y0223618D01*
X0274062Y0223303D01*
X0274140Y0222949D01*
X0274337Y0222594D01*
X0274613Y0222280D01*
X0274928Y0221925D01*
X0275203Y0221650D01*
X0275322Y0221335D01*
X0275322Y0221059D01*
X0275243Y0220823D01*
X0275085Y0220626D01*
X0274849Y0220469D01*
X0274534Y0220390D01*
X0274219Y0220390D01*
X0274022Y0220429D01*
X0273825Y0220508D01*
X0273589Y0220744D01*
X0273510Y0220862D01*
X0273471Y0220980D01*
X0273471Y0221138D01*
X0273510Y0221256D01*
X0273747Y0221492D01*
X0273865Y0221531D01*
X0274022Y0221610D01*
X0274062Y0221650D01*
X0273904Y0221728D01*
X0273432Y0221728D01*
X0273196Y0221689D01*
X0272999Y0221650D01*
X0272802Y0221571D01*
X0272644Y0221453D01*
X0272448Y0221295D01*
X0272211Y0220902D01*
X0272253Y0220971D02*
X0273474Y0220971D01*
X0273524Y0221270D02*
X0272432Y0221270D01*
X0272798Y0221568D02*
X0273938Y0221568D01*
X0273661Y0220672D02*
X0272146Y0220672D01*
X0272101Y0220374D02*
X0278693Y0220374D01*
X0278722Y0220672D02*
X0275123Y0220672D01*
X0275292Y0220971D02*
X0278739Y0220971D01*
X0278715Y0221270D02*
X0275322Y0221270D01*
X0275234Y0221568D02*
X0278659Y0221568D01*
X0278583Y0221867D02*
X0274986Y0221867D01*
X0274715Y0222165D02*
X0278483Y0222165D01*
X0278340Y0222464D02*
X0274452Y0222464D01*
X0274244Y0222762D02*
X0276606Y0222762D01*
X0276233Y0223061D02*
X0274116Y0223061D01*
X0274062Y0223359D02*
X0275993Y0223359D01*
X0275912Y0223658D02*
X0274075Y0223658D01*
X0274174Y0223956D02*
X0275963Y0223956D01*
X0276240Y0224255D02*
X0274356Y0224255D01*
X0274718Y0224553D02*
X0276837Y0224553D01*
X0276109Y0224852D02*
X0275452Y0224852D01*
X0277526Y0223061D02*
X0277882Y0223061D01*
X0278147Y0222762D02*
X0277453Y0222762D01*
X0278614Y0220075D02*
X0272093Y0220075D01*
X0272093Y0219777D02*
X0278536Y0219777D01*
X0278398Y0219478D02*
X0272093Y0219478D01*
X0272093Y0219180D02*
X0278232Y0219180D01*
X0278046Y0218881D02*
X0272093Y0218881D01*
X0272093Y0218583D02*
X0277806Y0218583D01*
X0277505Y0218284D02*
X0272093Y0218284D01*
X0272093Y0217986D02*
X0277142Y0217986D01*
X0276558Y0217687D02*
X0272093Y0217687D01*
X0272093Y0217389D02*
X0274519Y0217389D01*
X0274069Y0217090D02*
X0272093Y0217090D01*
X0272093Y0216792D02*
X0273771Y0216792D01*
X0273512Y0216493D02*
X0272093Y0216493D01*
X0272093Y0216195D02*
X0273253Y0216195D01*
X0272954Y0215896D02*
X0272093Y0215896D01*
X0272093Y0215598D02*
X0272680Y0215598D01*
X0272401Y0215299D02*
X0272093Y0215299D01*
X0272093Y0215001D02*
X0272177Y0215001D01*
X0305093Y0229917D02*
X0305290Y0230114D01*
X0305408Y0230311D01*
X0305605Y0230508D01*
X0305802Y0230744D01*
X0306274Y0231217D01*
X0306747Y0231768D01*
X0307140Y0232161D01*
X0307534Y0232398D01*
X0307770Y0232437D01*
X0308518Y0232437D01*
X0308991Y0232516D01*
X0309424Y0232634D01*
X0309818Y0232791D01*
X0310211Y0233028D01*
X0310526Y0233303D01*
X0310841Y0233618D01*
X0311117Y0233972D01*
X0311510Y0234681D01*
X0311707Y0235429D01*
X0311747Y0236098D01*
X0311629Y0236728D01*
X0311432Y0237319D01*
X0311156Y0237752D01*
X0310841Y0238106D01*
X0310526Y0238303D01*
X0310526Y0237949D01*
X0310487Y0237831D01*
X0310448Y0237752D01*
X0310329Y0237634D01*
X0310211Y0237594D01*
X0310093Y0237594D01*
X0309778Y0237673D01*
X0309621Y0237752D01*
X0309503Y0237831D01*
X0309345Y0237949D01*
X0309109Y0238185D01*
X0308951Y0238421D01*
X0308912Y0238579D01*
X0308912Y0238815D01*
X0308951Y0238933D01*
X0308991Y0239012D01*
X0309070Y0239130D01*
X0309227Y0239248D01*
X0309385Y0239327D01*
X0309581Y0239366D01*
X0309739Y0239406D01*
X0309975Y0239406D01*
X0310054Y0239366D01*
X0310093Y0239366D01*
X0310054Y0239406D01*
X0309896Y0239524D01*
X0309345Y0239799D01*
X0308991Y0239878D01*
X0308597Y0239878D01*
X0308164Y0239799D01*
X0307731Y0239563D01*
X0307377Y0239287D01*
X0307180Y0238972D01*
X0307062Y0238618D01*
X0307062Y0238303D01*
X0307140Y0237949D01*
X0307337Y0237594D01*
X0307613Y0237280D01*
X0307928Y0236925D01*
X0308203Y0236650D01*
X0308322Y0236335D01*
X0308322Y0236059D01*
X0308243Y0235823D01*
X0308085Y0235626D01*
X0307849Y0235469D01*
X0307534Y0235390D01*
X0307219Y0235390D01*
X0307022Y0235429D01*
X0306825Y0235508D01*
X0306589Y0235744D01*
X0306510Y0235862D01*
X0306471Y0235980D01*
X0306471Y0236138D01*
X0306510Y0236256D01*
X0306747Y0236492D01*
X0306865Y0236531D01*
X0307022Y0236610D01*
X0307062Y0236650D01*
X0306904Y0236728D01*
X0306432Y0236728D01*
X0306196Y0236689D01*
X0305999Y0236650D01*
X0305802Y0236571D01*
X0305644Y0236453D01*
X0305448Y0236295D01*
X0305211Y0235902D01*
X0305133Y0235626D01*
X0305093Y0235311D01*
X0305093Y0229917D01*
X0305093Y0229926D02*
X0305102Y0229926D01*
X0305093Y0230225D02*
X0305356Y0230225D01*
X0305618Y0230523D02*
X0305093Y0230523D01*
X0305093Y0230822D02*
X0305880Y0230822D01*
X0306178Y0231120D02*
X0305093Y0231120D01*
X0305093Y0231419D02*
X0306448Y0231419D01*
X0306704Y0231717D02*
X0305093Y0231717D01*
X0305093Y0232016D02*
X0306995Y0232016D01*
X0307395Y0232314D02*
X0305093Y0232314D01*
X0305093Y0232613D02*
X0309347Y0232613D01*
X0310018Y0232911D02*
X0305093Y0232911D01*
X0305093Y0233210D02*
X0310420Y0233210D01*
X0310732Y0233508D02*
X0305093Y0233508D01*
X0305093Y0233807D02*
X0310988Y0233807D01*
X0311191Y0234105D02*
X0305093Y0234105D01*
X0305093Y0234404D02*
X0311357Y0234404D01*
X0311516Y0234703D02*
X0305093Y0234703D01*
X0305093Y0235001D02*
X0311595Y0235001D01*
X0311673Y0235300D02*
X0305093Y0235300D01*
X0305129Y0235598D02*
X0306735Y0235598D01*
X0306499Y0235897D02*
X0305210Y0235897D01*
X0305387Y0236195D02*
X0306490Y0236195D01*
X0306751Y0236494D02*
X0305699Y0236494D01*
X0307286Y0237688D02*
X0309749Y0237688D01*
X0309308Y0237986D02*
X0307132Y0237986D01*
X0307066Y0238285D02*
X0309043Y0238285D01*
X0308912Y0238583D02*
X0307062Y0238583D01*
X0307150Y0238882D02*
X0308934Y0238882D01*
X0309137Y0239180D02*
X0307310Y0239180D01*
X0307623Y0239479D02*
X0309956Y0239479D01*
X0309389Y0239777D02*
X0308124Y0239777D01*
X0307517Y0237389D02*
X0311387Y0237389D01*
X0311508Y0237091D02*
X0307781Y0237091D01*
X0308061Y0236792D02*
X0311607Y0236792D01*
X0311673Y0236494D02*
X0308262Y0236494D01*
X0308322Y0236195D02*
X0311729Y0236195D01*
X0311735Y0235897D02*
X0308267Y0235897D01*
X0308043Y0235598D02*
X0311717Y0235598D01*
X0311197Y0237688D02*
X0310383Y0237688D01*
X0310526Y0237986D02*
X0310948Y0237986D01*
X0310556Y0238285D02*
X0310526Y0238285D01*
X0171432Y0172319D02*
X0171156Y0172752D01*
X0170841Y0173106D01*
X0170526Y0173303D01*
X0170526Y0172949D01*
X0170487Y0172831D01*
X0170448Y0172752D01*
X0170329Y0172634D01*
X0170211Y0172594D01*
X0170093Y0172594D01*
X0169778Y0172673D01*
X0169621Y0172752D01*
X0169503Y0172831D01*
X0169345Y0172949D01*
X0169109Y0173185D01*
X0168951Y0173421D01*
X0168912Y0173579D01*
X0168912Y0173815D01*
X0168951Y0173933D01*
X0168991Y0174012D01*
X0169070Y0174130D01*
X0169227Y0174248D01*
X0169385Y0174327D01*
X0169581Y0174366D01*
X0169739Y0174406D01*
X0169975Y0174406D01*
X0170054Y0174366D01*
X0170093Y0174366D01*
X0170054Y0174406D01*
X0169896Y0174524D01*
X0169345Y0174799D01*
X0168991Y0174878D01*
X0168597Y0174878D01*
X0168164Y0174799D01*
X0167731Y0174563D01*
X0167377Y0174287D01*
X0167180Y0173972D01*
X0167062Y0173618D01*
X0167062Y0173303D01*
X0167140Y0172949D01*
X0167337Y0172594D01*
X0167613Y0172280D01*
X0167928Y0171925D01*
X0168203Y0171650D01*
X0168322Y0171335D01*
X0168322Y0171059D01*
X0168243Y0170823D01*
X0168085Y0170626D01*
X0167849Y0170469D01*
X0167534Y0170390D01*
X0167219Y0170390D01*
X0167022Y0170429D01*
X0166825Y0170508D01*
X0166589Y0170744D01*
X0166510Y0170862D01*
X0166471Y0170980D01*
X0166471Y0171138D01*
X0166510Y0171256D01*
X0166747Y0171492D01*
X0166865Y0171531D01*
X0167022Y0171610D01*
X0167062Y0171650D01*
X0166904Y0171728D01*
X0166432Y0171728D01*
X0166196Y0171689D01*
X0165999Y0171650D01*
X0165802Y0171571D01*
X0165644Y0171453D01*
X0165448Y0171295D01*
X0165211Y0170902D01*
X0165133Y0170626D01*
X0165093Y0170311D01*
X0165093Y0164917D01*
X0165290Y0165114D01*
X0165408Y0165311D01*
X0165605Y0165508D01*
X0165802Y0165744D01*
X0166274Y0166217D01*
X0166747Y0166768D01*
X0167140Y0167161D01*
X0167534Y0167398D01*
X0167770Y0167437D01*
X0168518Y0167437D01*
X0168991Y0167516D01*
X0169424Y0167634D01*
X0169818Y0167791D01*
X0170211Y0168028D01*
X0170526Y0168303D01*
X0170841Y0168618D01*
X0171117Y0168972D01*
X0171510Y0169681D01*
X0171707Y0170429D01*
X0171747Y0171098D01*
X0171629Y0171728D01*
X0171432Y0172319D01*
X0171434Y0172314D02*
X0167583Y0172314D01*
X0167327Y0172612D02*
X0170022Y0172612D01*
X0170264Y0172612D02*
X0171245Y0172612D01*
X0171015Y0172911D02*
X0170514Y0172911D01*
X0170526Y0173209D02*
X0170677Y0173209D01*
X0169396Y0172911D02*
X0167162Y0172911D01*
X0167083Y0173209D02*
X0169093Y0173209D01*
X0168930Y0173508D02*
X0167062Y0173508D01*
X0167124Y0173806D02*
X0168912Y0173806D01*
X0169053Y0174105D02*
X0167262Y0174105D01*
X0167526Y0174403D02*
X0169730Y0174403D01*
X0169980Y0174403D02*
X0170056Y0174403D01*
X0169540Y0174702D02*
X0167985Y0174702D01*
X0167848Y0172015D02*
X0171533Y0172015D01*
X0171631Y0171717D02*
X0168136Y0171717D01*
X0168290Y0171418D02*
X0171687Y0171418D01*
X0171743Y0171120D02*
X0168322Y0171120D01*
X0168241Y0170821D02*
X0171730Y0170821D01*
X0171713Y0170523D02*
X0167930Y0170523D01*
X0166811Y0170523D02*
X0165120Y0170523D01*
X0165093Y0170224D02*
X0171653Y0170224D01*
X0171575Y0169926D02*
X0165093Y0169926D01*
X0165093Y0169627D02*
X0171480Y0169627D01*
X0171315Y0169329D02*
X0165093Y0169329D01*
X0165093Y0169030D02*
X0171149Y0169030D01*
X0170929Y0168732D02*
X0165093Y0168732D01*
X0165093Y0168433D02*
X0170656Y0168433D01*
X0170333Y0168134D02*
X0165093Y0168134D01*
X0165093Y0167836D02*
X0169892Y0167836D01*
X0169070Y0167537D02*
X0165093Y0167537D01*
X0165093Y0167239D02*
X0167270Y0167239D01*
X0166919Y0166940D02*
X0165093Y0166940D01*
X0165093Y0166642D02*
X0166639Y0166642D01*
X0166383Y0166343D02*
X0165093Y0166343D01*
X0165093Y0166045D02*
X0166103Y0166045D01*
X0165804Y0165746D02*
X0165093Y0165746D01*
X0165093Y0165448D02*
X0165545Y0165448D01*
X0165311Y0165149D02*
X0165093Y0165149D01*
X0165188Y0170821D02*
X0166538Y0170821D01*
X0166471Y0171120D02*
X0165342Y0171120D01*
X0165601Y0171418D02*
X0166673Y0171418D01*
X0166928Y0171717D02*
X0166361Y0171717D01*
D29*
X0123333Y0170000D03*
X0123333Y0160000D03*
X0198333Y0220000D03*
X0208333Y0220000D03*
X0223333Y0250000D03*
X0233333Y0250000D03*
X0288333Y0250000D03*
X0288333Y0260000D03*
X0313333Y0200000D03*
X0328333Y0200000D03*
X0138333Y0260000D03*
X0138333Y0270000D03*
M02*
