G75*
%MOIN*%
%OFA0B0*%
%FSLAX25Y25*%
%IPPOS*%
%LPD*%
%AMOC8*
5,1,8,0,0,1.08239X$1,22.5*
%
%ADD10C,0.01000*%
%ADD11C,0.00300*%
%ADD12C,0.00800*%
%ADD13C,0.02400*%
%ADD14C,0.06500*%
D10*
X0162457Y0156500D02*
X0165125Y0156500D01*
X0163791Y0156500D02*
X0163791Y0160503D01*
X0165125Y0159169D01*
X0167060Y0159836D02*
X0167060Y0157167D01*
X0167728Y0156500D01*
X0169062Y0156500D01*
X0169729Y0157167D01*
X0167060Y0159836D01*
X0167728Y0160503D01*
X0169062Y0160503D01*
X0169729Y0159836D01*
X0169729Y0157167D01*
X0171664Y0156500D02*
X0174333Y0159169D01*
X0174333Y0156500D02*
X0171664Y0159169D01*
D11*
X0291377Y0265114D02*
X0291259Y0265311D01*
X0291062Y0265508D01*
X0290865Y0265744D01*
X0290392Y0266217D01*
X0289920Y0266768D01*
X0289526Y0267161D01*
X0289133Y0267398D01*
X0288896Y0267437D01*
X0288148Y0267437D01*
X0287676Y0267516D01*
X0287243Y0267634D01*
X0286849Y0267791D01*
X0286455Y0268028D01*
X0286140Y0268303D01*
X0285825Y0268618D01*
X0285550Y0268972D01*
X0285156Y0269681D01*
X0284959Y0270429D01*
X0284920Y0271098D01*
X0285038Y0271728D01*
X0285235Y0272319D01*
X0285510Y0272752D01*
X0285825Y0273106D01*
X0286140Y0273303D01*
X0286140Y0272949D01*
X0286180Y0272831D01*
X0286219Y0272752D01*
X0286337Y0272634D01*
X0286455Y0272594D01*
X0286573Y0272594D01*
X0286888Y0272673D01*
X0287046Y0272752D01*
X0287164Y0272831D01*
X0287322Y0272949D01*
X0287558Y0273185D01*
X0287715Y0273421D01*
X0287755Y0273579D01*
X0287755Y0273815D01*
X0287715Y0273933D01*
X0287676Y0274012D01*
X0287597Y0274130D01*
X0287440Y0274248D01*
X0287282Y0274327D01*
X0287085Y0274366D01*
X0286928Y0274406D01*
X0286692Y0274406D01*
X0286613Y0274366D01*
X0286573Y0274366D01*
X0286613Y0274406D01*
X0286770Y0274524D01*
X0287322Y0274799D01*
X0287676Y0274878D01*
X0288070Y0274878D01*
X0288503Y0274799D01*
X0288936Y0274563D01*
X0289290Y0274287D01*
X0289487Y0273972D01*
X0289605Y0273618D01*
X0289605Y0273303D01*
X0289526Y0272949D01*
X0289329Y0272594D01*
X0289054Y0272280D01*
X0288739Y0271925D01*
X0288463Y0271650D01*
X0288345Y0271335D01*
X0288345Y0271059D01*
X0288424Y0270823D01*
X0288581Y0270626D01*
X0288818Y0270469D01*
X0289133Y0270390D01*
X0289448Y0270390D01*
X0289644Y0270429D01*
X0289841Y0270508D01*
X0290077Y0270744D01*
X0290156Y0270862D01*
X0290196Y0270980D01*
X0290196Y0271138D01*
X0290156Y0271256D01*
X0289920Y0271492D01*
X0289802Y0271531D01*
X0289644Y0271610D01*
X0289605Y0271650D01*
X0289762Y0271728D01*
X0290235Y0271728D01*
X0290471Y0271689D01*
X0290668Y0271650D01*
X0290865Y0271571D01*
X0291022Y0271453D01*
X0291219Y0271295D01*
X0291455Y0270902D01*
X0291534Y0270626D01*
X0291573Y0270311D01*
X0291573Y0264917D01*
X0291377Y0265114D01*
X0291355Y0265151D02*
X0291573Y0265151D01*
X0291573Y0265449D02*
X0291120Y0265449D01*
X0290861Y0265748D02*
X0291573Y0265748D01*
X0291573Y0266046D02*
X0290563Y0266046D01*
X0290283Y0266345D02*
X0291573Y0266345D01*
X0291573Y0266643D02*
X0290027Y0266643D01*
X0289746Y0266942D02*
X0291573Y0266942D01*
X0291573Y0267240D02*
X0289395Y0267240D01*
X0287591Y0267539D02*
X0291573Y0267539D01*
X0291573Y0267837D02*
X0286773Y0267837D01*
X0286332Y0268136D02*
X0291573Y0268136D01*
X0291573Y0268434D02*
X0286009Y0268434D01*
X0285736Y0268733D02*
X0291573Y0268733D01*
X0291573Y0269031D02*
X0285517Y0269031D01*
X0285351Y0269330D02*
X0291573Y0269330D01*
X0291573Y0269628D02*
X0285185Y0269628D01*
X0285091Y0269927D02*
X0291573Y0269927D01*
X0291573Y0270225D02*
X0285013Y0270225D01*
X0284954Y0270524D02*
X0288735Y0270524D01*
X0288424Y0270822D02*
X0284936Y0270822D01*
X0284924Y0271121D02*
X0288345Y0271121D01*
X0288377Y0271419D02*
X0284980Y0271419D01*
X0285036Y0271718D02*
X0288532Y0271718D01*
X0288820Y0272016D02*
X0285134Y0272016D01*
X0285234Y0272315D02*
X0289085Y0272315D01*
X0289340Y0272613D02*
X0286649Y0272613D01*
X0286398Y0272613D02*
X0285422Y0272613D01*
X0285653Y0272912D02*
X0286153Y0272912D01*
X0286140Y0273210D02*
X0285992Y0273210D01*
X0287272Y0272912D02*
X0289506Y0272912D01*
X0289584Y0273210D02*
X0287575Y0273210D01*
X0287737Y0273509D02*
X0289605Y0273509D01*
X0289542Y0273808D02*
X0287755Y0273808D01*
X0287613Y0274106D02*
X0289403Y0274106D01*
X0289139Y0274405D02*
X0286932Y0274405D01*
X0286690Y0274405D02*
X0286612Y0274405D01*
X0287129Y0274703D02*
X0288679Y0274703D01*
X0289742Y0271718D02*
X0290297Y0271718D01*
X0289993Y0271419D02*
X0291064Y0271419D01*
X0291324Y0271121D02*
X0290196Y0271121D01*
X0290130Y0270822D02*
X0291478Y0270822D01*
X0291547Y0270524D02*
X0289857Y0270524D01*
D12*
X0094733Y0243700D02*
X0094733Y0156400D01*
X0120640Y0156400D01*
X0119561Y0157479D01*
X0118883Y0159115D01*
X0118883Y0160885D01*
X0119561Y0162521D01*
X0120813Y0163773D01*
X0122448Y0164450D01*
X0124218Y0164450D01*
X0125854Y0163773D01*
X0127106Y0162521D01*
X0127783Y0160885D01*
X0127783Y0159115D01*
X0127106Y0157479D01*
X0126027Y0156400D01*
X0160757Y0156400D01*
X0160757Y0157204D01*
X0161752Y0158200D01*
X0162091Y0158200D01*
X0162091Y0161208D01*
X0163087Y0162203D01*
X0164495Y0162203D01*
X0165491Y0161208D01*
X0165759Y0160939D01*
X0166356Y0161536D01*
X0166356Y0161536D01*
X0167024Y0162203D01*
X0169766Y0162203D01*
X0170762Y0161208D01*
X0171101Y0160869D01*
X0172369Y0160869D01*
X0172999Y0160239D01*
X0173629Y0160869D01*
X0175037Y0160869D01*
X0176033Y0159873D01*
X0176033Y0158465D01*
X0175403Y0157834D01*
X0176033Y0157204D01*
X0176033Y0156400D01*
X0192033Y0156400D01*
X0192033Y0243700D01*
X0094733Y0243700D01*
X0094733Y0243635D02*
X0192033Y0243635D01*
X0192033Y0242836D02*
X0185581Y0242836D01*
X0184945Y0243100D02*
X0181722Y0243100D01*
X0178745Y0241867D01*
X0176466Y0239588D01*
X0175233Y0236611D01*
X0175233Y0233389D01*
X0176466Y0230412D01*
X0176466Y0230412D01*
X0178745Y0228133D01*
X0181722Y0226900D01*
X0183333Y0226900D01*
X0184945Y0226900D01*
X0187922Y0228133D01*
X0190200Y0230412D01*
X0191433Y0233389D01*
X0191433Y0236611D01*
X0190200Y0239588D01*
X0190200Y0239588D01*
X0187922Y0241867D01*
X0187922Y0241867D01*
X0184945Y0243100D01*
X0187509Y0242038D02*
X0192033Y0242038D01*
X0192033Y0241239D02*
X0188549Y0241239D01*
X0189348Y0240441D02*
X0192033Y0240441D01*
X0192033Y0239642D02*
X0190146Y0239642D01*
X0190509Y0238844D02*
X0192033Y0238844D01*
X0192033Y0238045D02*
X0190839Y0238045D01*
X0191170Y0237247D02*
X0192033Y0237247D01*
X0192033Y0236448D02*
X0191433Y0236448D01*
X0191433Y0235650D02*
X0192033Y0235650D01*
X0192033Y0234851D02*
X0191433Y0234851D01*
X0191433Y0234053D02*
X0192033Y0234053D01*
X0192033Y0233254D02*
X0191378Y0233254D01*
X0191047Y0232456D02*
X0192033Y0232456D01*
X0192033Y0231657D02*
X0190716Y0231657D01*
X0190385Y0230859D02*
X0192033Y0230859D01*
X0192033Y0230060D02*
X0189849Y0230060D01*
X0190200Y0230412D02*
X0190200Y0230412D01*
X0189050Y0229262D02*
X0192033Y0229262D01*
X0192033Y0228463D02*
X0188252Y0228463D01*
X0187922Y0228133D02*
X0187922Y0228133D01*
X0186790Y0227665D02*
X0192033Y0227665D01*
X0192033Y0226866D02*
X0094733Y0226866D01*
X0094733Y0226068D02*
X0192033Y0226068D01*
X0192033Y0225269D02*
X0094733Y0225269D01*
X0094733Y0224470D02*
X0192033Y0224470D01*
X0192033Y0223672D02*
X0094733Y0223672D01*
X0094733Y0222873D02*
X0192033Y0222873D01*
X0192033Y0222075D02*
X0094733Y0222075D01*
X0094733Y0221276D02*
X0192033Y0221276D01*
X0192033Y0220478D02*
X0094733Y0220478D01*
X0094733Y0219679D02*
X0192033Y0219679D01*
X0192033Y0218881D02*
X0094733Y0218881D01*
X0094733Y0218082D02*
X0192033Y0218082D01*
X0192033Y0217284D02*
X0094733Y0217284D01*
X0094733Y0216485D02*
X0192033Y0216485D01*
X0192033Y0215687D02*
X0094733Y0215687D01*
X0094733Y0214888D02*
X0192033Y0214888D01*
X0192033Y0214090D02*
X0094733Y0214090D01*
X0094733Y0213291D02*
X0192033Y0213291D01*
X0192033Y0212493D02*
X0094733Y0212493D01*
X0094733Y0211694D02*
X0192033Y0211694D01*
X0192033Y0210896D02*
X0094733Y0210896D01*
X0094733Y0210097D02*
X0192033Y0210097D01*
X0192033Y0209299D02*
X0094733Y0209299D01*
X0094733Y0208500D02*
X0192033Y0208500D01*
X0192033Y0207702D02*
X0094733Y0207702D01*
X0094733Y0206903D02*
X0192033Y0206903D01*
X0192033Y0206105D02*
X0094733Y0206105D01*
X0094733Y0205306D02*
X0192033Y0205306D01*
X0192033Y0204508D02*
X0094733Y0204508D01*
X0094733Y0203709D02*
X0192033Y0203709D01*
X0192033Y0202911D02*
X0094733Y0202911D01*
X0094733Y0202112D02*
X0192033Y0202112D01*
X0192033Y0201314D02*
X0094733Y0201314D01*
X0094733Y0200515D02*
X0192033Y0200515D01*
X0192033Y0199717D02*
X0094733Y0199717D01*
X0094733Y0198918D02*
X0192033Y0198918D01*
X0192033Y0198120D02*
X0094733Y0198120D01*
X0094733Y0197321D02*
X0192033Y0197321D01*
X0192033Y0196523D02*
X0094733Y0196523D01*
X0094733Y0195724D02*
X0192033Y0195724D01*
X0192033Y0194926D02*
X0094733Y0194926D01*
X0094733Y0194127D02*
X0192033Y0194127D01*
X0192033Y0193329D02*
X0094733Y0193329D01*
X0094733Y0192530D02*
X0192033Y0192530D01*
X0192033Y0191732D02*
X0094733Y0191732D01*
X0094733Y0190933D02*
X0192033Y0190933D01*
X0192033Y0190134D02*
X0094733Y0190134D01*
X0094733Y0189336D02*
X0192033Y0189336D01*
X0192033Y0188537D02*
X0094733Y0188537D01*
X0094733Y0187739D02*
X0192033Y0187739D01*
X0192033Y0186940D02*
X0094733Y0186940D01*
X0094733Y0186142D02*
X0192033Y0186142D01*
X0192033Y0185343D02*
X0094733Y0185343D01*
X0094733Y0184545D02*
X0192033Y0184545D01*
X0192033Y0183746D02*
X0094733Y0183746D01*
X0094733Y0182948D02*
X0192033Y0182948D01*
X0192033Y0182149D02*
X0094733Y0182149D01*
X0094733Y0181351D02*
X0192033Y0181351D01*
X0192033Y0180552D02*
X0094733Y0180552D01*
X0094733Y0179754D02*
X0192033Y0179754D01*
X0192033Y0178955D02*
X0094733Y0178955D01*
X0094733Y0178157D02*
X0192033Y0178157D01*
X0192033Y0177358D02*
X0094733Y0177358D01*
X0094733Y0176560D02*
X0192033Y0176560D01*
X0192033Y0175761D02*
X0094733Y0175761D01*
X0094733Y0174963D02*
X0192033Y0174963D01*
X0192033Y0174164D02*
X0124908Y0174164D01*
X0124218Y0174450D02*
X0125854Y0173773D01*
X0127106Y0172521D01*
X0127783Y0170885D01*
X0127783Y0169115D01*
X0127106Y0167479D01*
X0125854Y0166227D01*
X0124218Y0165550D01*
X0122448Y0165550D01*
X0120813Y0166227D01*
X0119561Y0167479D01*
X0118883Y0169115D01*
X0118883Y0170885D01*
X0119561Y0172521D01*
X0120813Y0173773D01*
X0122448Y0174450D01*
X0124218Y0174450D01*
X0126261Y0173366D02*
X0192033Y0173366D01*
X0192033Y0172567D02*
X0186231Y0172567D01*
X0184945Y0173100D02*
X0181722Y0173100D01*
X0178745Y0171867D01*
X0176466Y0169588D01*
X0175233Y0166611D01*
X0175233Y0163389D01*
X0175233Y0163389D01*
X0176466Y0160412D01*
X0178745Y0158133D01*
X0181722Y0156900D01*
X0183002Y0156900D01*
X0184945Y0156900D01*
X0187922Y0158133D01*
X0190200Y0160412D01*
X0191433Y0163389D01*
X0191433Y0166611D01*
X0190200Y0169588D01*
X0190200Y0169588D01*
X0187922Y0171867D01*
X0187922Y0171867D01*
X0184945Y0173100D01*
X0188020Y0171769D02*
X0192033Y0171769D01*
X0192033Y0170970D02*
X0188818Y0170970D01*
X0189617Y0170172D02*
X0192033Y0170172D01*
X0192033Y0169373D02*
X0190289Y0169373D01*
X0190620Y0168575D02*
X0192033Y0168575D01*
X0192033Y0167776D02*
X0190951Y0167776D01*
X0191282Y0166978D02*
X0192033Y0166978D01*
X0192033Y0166179D02*
X0191433Y0166179D01*
X0191433Y0165381D02*
X0192033Y0165381D01*
X0192033Y0164582D02*
X0191433Y0164582D01*
X0191433Y0163784D02*
X0192033Y0163784D01*
X0192033Y0162985D02*
X0191266Y0162985D01*
X0190935Y0162187D02*
X0192033Y0162187D01*
X0192033Y0161388D02*
X0190605Y0161388D01*
X0190274Y0160590D02*
X0192033Y0160590D01*
X0192033Y0159791D02*
X0189580Y0159791D01*
X0190200Y0160412D02*
X0190200Y0160412D01*
X0188781Y0158993D02*
X0192033Y0158993D01*
X0192033Y0158194D02*
X0187983Y0158194D01*
X0187922Y0158133D02*
X0187922Y0158133D01*
X0186141Y0157396D02*
X0192033Y0157396D01*
X0192033Y0156597D02*
X0176033Y0156597D01*
X0175842Y0157396D02*
X0180526Y0157396D01*
X0178745Y0158133D02*
X0178745Y0158133D01*
X0178684Y0158194D02*
X0175763Y0158194D01*
X0176033Y0158993D02*
X0177886Y0158993D01*
X0177087Y0159791D02*
X0176033Y0159791D01*
X0176393Y0160590D02*
X0175317Y0160590D01*
X0176062Y0161388D02*
X0170582Y0161388D01*
X0169783Y0162187D02*
X0175731Y0162187D01*
X0175401Y0162985D02*
X0126641Y0162985D01*
X0127244Y0162187D02*
X0163070Y0162187D01*
X0162272Y0161388D02*
X0127575Y0161388D01*
X0127783Y0160590D02*
X0162091Y0160590D01*
X0162091Y0159791D02*
X0127783Y0159791D01*
X0127733Y0158993D02*
X0162091Y0158993D01*
X0161746Y0158194D02*
X0127402Y0158194D01*
X0127022Y0157396D02*
X0160948Y0157396D01*
X0160757Y0156597D02*
X0126224Y0156597D01*
X0120443Y0156597D02*
X0094733Y0156597D01*
X0094733Y0157396D02*
X0100526Y0157396D01*
X0101722Y0156900D02*
X0103665Y0156900D01*
X0104945Y0156900D01*
X0107922Y0158133D01*
X0110200Y0160412D01*
X0111433Y0163389D01*
X0111433Y0166611D01*
X0110200Y0169588D01*
X0110200Y0169588D01*
X0107922Y0171867D01*
X0107922Y0171867D01*
X0104945Y0173100D01*
X0101722Y0173100D01*
X0098745Y0171867D01*
X0096466Y0169588D01*
X0095233Y0166611D01*
X0095233Y0163389D01*
X0096466Y0160412D01*
X0096466Y0160412D01*
X0098745Y0158133D01*
X0101722Y0156900D01*
X0098745Y0158133D02*
X0098745Y0158133D01*
X0098684Y0158194D02*
X0094733Y0158194D01*
X0094733Y0158993D02*
X0097886Y0158993D01*
X0097087Y0159791D02*
X0094733Y0159791D01*
X0094733Y0160590D02*
X0096393Y0160590D01*
X0096062Y0161388D02*
X0094733Y0161388D01*
X0094733Y0162187D02*
X0095731Y0162187D01*
X0095401Y0162985D02*
X0094733Y0162985D01*
X0094733Y0163784D02*
X0095233Y0163784D01*
X0095233Y0164582D02*
X0094733Y0164582D01*
X0094733Y0165381D02*
X0095233Y0165381D01*
X0095233Y0166179D02*
X0094733Y0166179D01*
X0094733Y0166978D02*
X0095385Y0166978D01*
X0095716Y0167776D02*
X0094733Y0167776D01*
X0094733Y0168575D02*
X0096047Y0168575D01*
X0096377Y0169373D02*
X0094733Y0169373D01*
X0094733Y0170172D02*
X0097050Y0170172D01*
X0096466Y0169588D02*
X0096466Y0169588D01*
X0097848Y0170970D02*
X0094733Y0170970D01*
X0094733Y0171769D02*
X0098647Y0171769D01*
X0098745Y0171867D02*
X0098745Y0171867D01*
X0100436Y0172567D02*
X0094733Y0172567D01*
X0094733Y0173366D02*
X0120406Y0173366D01*
X0119607Y0172567D02*
X0106231Y0172567D01*
X0108020Y0171769D02*
X0119249Y0171769D01*
X0118919Y0170970D02*
X0108818Y0170970D01*
X0109617Y0170172D02*
X0118883Y0170172D01*
X0118883Y0169373D02*
X0110289Y0169373D01*
X0110620Y0168575D02*
X0119107Y0168575D01*
X0119438Y0167776D02*
X0110951Y0167776D01*
X0111282Y0166978D02*
X0120062Y0166978D01*
X0120929Y0166179D02*
X0111433Y0166179D01*
X0111433Y0165381D02*
X0175233Y0165381D01*
X0175233Y0166179D02*
X0125737Y0166179D01*
X0126604Y0166978D02*
X0175385Y0166978D01*
X0175716Y0167776D02*
X0127229Y0167776D01*
X0127560Y0168575D02*
X0176047Y0168575D01*
X0176377Y0169373D02*
X0127783Y0169373D01*
X0127783Y0170172D02*
X0177050Y0170172D01*
X0176466Y0169588D02*
X0176466Y0169588D01*
X0177848Y0170970D02*
X0127748Y0170970D01*
X0127417Y0171769D02*
X0178647Y0171769D01*
X0178745Y0171867D02*
X0178745Y0171867D01*
X0180436Y0172567D02*
X0127059Y0172567D01*
X0121758Y0174164D02*
X0094733Y0174164D01*
X0111433Y0164582D02*
X0175233Y0164582D01*
X0175233Y0163784D02*
X0125827Y0163784D01*
X0120839Y0163784D02*
X0111433Y0163784D01*
X0111266Y0162985D02*
X0120025Y0162985D01*
X0119422Y0162187D02*
X0110935Y0162187D01*
X0110605Y0161388D02*
X0119092Y0161388D01*
X0118883Y0160590D02*
X0110274Y0160590D01*
X0110200Y0160412D02*
X0110200Y0160412D01*
X0109580Y0159791D02*
X0118883Y0159791D01*
X0118934Y0158993D02*
X0108781Y0158993D01*
X0107983Y0158194D02*
X0119265Y0158194D01*
X0119645Y0157396D02*
X0106141Y0157396D01*
X0104945Y0156900D02*
X0104945Y0156900D01*
X0107922Y0158133D02*
X0107922Y0158133D01*
X0164512Y0162187D02*
X0167007Y0162187D01*
X0166208Y0161388D02*
X0165310Y0161388D01*
X0172648Y0160590D02*
X0173350Y0160590D01*
X0194633Y0160590D02*
X0282033Y0160590D01*
X0282033Y0161388D02*
X0194633Y0161388D01*
X0194633Y0162187D02*
X0282033Y0162187D01*
X0282033Y0162985D02*
X0194633Y0162985D01*
X0194633Y0163784D02*
X0282033Y0163784D01*
X0282033Y0164582D02*
X0194633Y0164582D01*
X0194633Y0165381D02*
X0282033Y0165381D01*
X0282033Y0166179D02*
X0194633Y0166179D01*
X0194633Y0166978D02*
X0282033Y0166978D01*
X0282033Y0167776D02*
X0194633Y0167776D01*
X0194633Y0168575D02*
X0282033Y0168575D01*
X0282033Y0169373D02*
X0194633Y0169373D01*
X0194633Y0170172D02*
X0282033Y0170172D01*
X0282033Y0170970D02*
X0194633Y0170970D01*
X0194633Y0171769D02*
X0282033Y0171769D01*
X0282033Y0172567D02*
X0194633Y0172567D01*
X0194633Y0173366D02*
X0282033Y0173366D01*
X0282033Y0174164D02*
X0194633Y0174164D01*
X0194633Y0174963D02*
X0282033Y0174963D01*
X0282033Y0175761D02*
X0194633Y0175761D01*
X0194633Y0176560D02*
X0282033Y0176560D01*
X0282033Y0177358D02*
X0194633Y0177358D01*
X0194633Y0178157D02*
X0282033Y0178157D01*
X0282033Y0178955D02*
X0194633Y0178955D01*
X0194633Y0179754D02*
X0282033Y0179754D01*
X0282033Y0180552D02*
X0194633Y0180552D01*
X0194633Y0181351D02*
X0282033Y0181351D01*
X0282033Y0182149D02*
X0194633Y0182149D01*
X0194633Y0182948D02*
X0282033Y0182948D01*
X0282033Y0183746D02*
X0194633Y0183746D01*
X0194633Y0184545D02*
X0282033Y0184545D01*
X0282033Y0185343D02*
X0194633Y0185343D01*
X0194633Y0186142D02*
X0282033Y0186142D01*
X0282033Y0186940D02*
X0194633Y0186940D01*
X0194633Y0187739D02*
X0282033Y0187739D01*
X0282033Y0188537D02*
X0194633Y0188537D01*
X0194633Y0189336D02*
X0282033Y0189336D01*
X0282033Y0190134D02*
X0194633Y0190134D01*
X0194633Y0190933D02*
X0282033Y0190933D01*
X0282033Y0191732D02*
X0194633Y0191732D01*
X0194633Y0192530D02*
X0282033Y0192530D01*
X0282033Y0193329D02*
X0194633Y0193329D01*
X0194633Y0194127D02*
X0282033Y0194127D01*
X0282033Y0194926D02*
X0194633Y0194926D01*
X0194633Y0195724D02*
X0282033Y0195724D01*
X0282033Y0196523D02*
X0194633Y0196523D01*
X0194633Y0197321D02*
X0282033Y0197321D01*
X0282033Y0198120D02*
X0194633Y0198120D01*
X0194633Y0198918D02*
X0282033Y0198918D01*
X0282033Y0199717D02*
X0194633Y0199717D01*
X0194633Y0200515D02*
X0282033Y0200515D01*
X0282033Y0201314D02*
X0194633Y0201314D01*
X0194633Y0202112D02*
X0282033Y0202112D01*
X0282033Y0202911D02*
X0194633Y0202911D01*
X0194633Y0203709D02*
X0282033Y0203709D01*
X0282033Y0204508D02*
X0194633Y0204508D01*
X0194633Y0205306D02*
X0282033Y0205306D01*
X0282033Y0206105D02*
X0194633Y0206105D01*
X0194633Y0206903D02*
X0282033Y0206903D01*
X0282033Y0207702D02*
X0194633Y0207702D01*
X0194633Y0208500D02*
X0282033Y0208500D01*
X0282033Y0209299D02*
X0194633Y0209299D01*
X0194633Y0210097D02*
X0282033Y0210097D01*
X0282033Y0210896D02*
X0194633Y0210896D01*
X0194633Y0211694D02*
X0282033Y0211694D01*
X0282033Y0212493D02*
X0194633Y0212493D01*
X0194633Y0213291D02*
X0282033Y0213291D01*
X0282033Y0214090D02*
X0194633Y0214090D01*
X0194633Y0214888D02*
X0282033Y0214888D01*
X0282033Y0215687D02*
X0209549Y0215687D01*
X0209218Y0215550D02*
X0210854Y0216227D01*
X0212106Y0217479D01*
X0212783Y0219115D01*
X0212783Y0220885D01*
X0212106Y0222521D01*
X0210854Y0223773D01*
X0209218Y0224450D01*
X0207448Y0224450D01*
X0205813Y0223773D01*
X0204561Y0222521D01*
X0203883Y0220885D01*
X0203883Y0219115D01*
X0204561Y0217479D01*
X0205813Y0216227D01*
X0207448Y0215550D01*
X0209218Y0215550D01*
X0207118Y0215687D02*
X0199549Y0215687D01*
X0199218Y0215550D02*
X0200854Y0216227D01*
X0202106Y0217479D01*
X0202783Y0219115D01*
X0202783Y0220885D01*
X0202106Y0222521D01*
X0200854Y0223773D01*
X0199218Y0224450D01*
X0197448Y0224450D01*
X0195813Y0223773D01*
X0194633Y0222593D01*
X0194633Y0243700D01*
X0282033Y0243700D01*
X0282033Y0156400D01*
X0194633Y0156400D01*
X0194633Y0217407D01*
X0195813Y0216227D01*
X0197448Y0215550D01*
X0199218Y0215550D01*
X0197118Y0215687D02*
X0194633Y0215687D01*
X0194633Y0216485D02*
X0195555Y0216485D01*
X0194756Y0217284D02*
X0194633Y0217284D01*
X0201112Y0216485D02*
X0205555Y0216485D01*
X0204756Y0217284D02*
X0201910Y0217284D01*
X0202356Y0218082D02*
X0204311Y0218082D01*
X0203980Y0218881D02*
X0202686Y0218881D01*
X0202783Y0219679D02*
X0203883Y0219679D01*
X0203883Y0220478D02*
X0202783Y0220478D01*
X0202621Y0221276D02*
X0204045Y0221276D01*
X0204376Y0222075D02*
X0202290Y0222075D01*
X0201753Y0222873D02*
X0204914Y0222873D01*
X0205712Y0223672D02*
X0200955Y0223672D01*
X0201722Y0226900D02*
X0204945Y0226900D01*
X0207922Y0228133D01*
X0210200Y0230412D01*
X0211433Y0233389D01*
X0211433Y0236611D01*
X0210200Y0239588D01*
X0210200Y0239588D01*
X0207922Y0241867D01*
X0207922Y0241867D01*
X0204945Y0243100D01*
X0203002Y0243100D01*
X0201722Y0243100D01*
X0198745Y0241867D01*
X0196466Y0239588D01*
X0195233Y0236611D01*
X0195233Y0233389D01*
X0196466Y0230412D01*
X0196466Y0230412D01*
X0198745Y0228133D01*
X0201722Y0226900D01*
X0199876Y0227665D02*
X0194633Y0227665D01*
X0194633Y0228463D02*
X0198415Y0228463D01*
X0198745Y0228133D02*
X0198745Y0228133D01*
X0197617Y0229262D02*
X0194633Y0229262D01*
X0194633Y0230060D02*
X0196818Y0230060D01*
X0196281Y0230859D02*
X0194633Y0230859D01*
X0194633Y0231657D02*
X0195951Y0231657D01*
X0195620Y0232456D02*
X0194633Y0232456D01*
X0194633Y0233254D02*
X0195289Y0233254D01*
X0195233Y0234053D02*
X0194633Y0234053D01*
X0194633Y0234851D02*
X0195233Y0234851D01*
X0195233Y0235650D02*
X0194633Y0235650D01*
X0194633Y0236448D02*
X0195233Y0236448D01*
X0195497Y0237247D02*
X0194633Y0237247D01*
X0194633Y0238045D02*
X0195827Y0238045D01*
X0196158Y0238844D02*
X0194633Y0238844D01*
X0194633Y0239642D02*
X0196520Y0239642D01*
X0196466Y0239588D02*
X0196466Y0239588D01*
X0197319Y0240441D02*
X0194633Y0240441D01*
X0194633Y0241239D02*
X0198117Y0241239D01*
X0198745Y0241867D02*
X0198745Y0241867D01*
X0199158Y0242038D02*
X0194633Y0242038D01*
X0194633Y0242836D02*
X0201085Y0242836D01*
X0201722Y0243100D02*
X0201722Y0243100D01*
X0201722Y0246900D02*
X0204945Y0246900D01*
X0207922Y0248133D01*
X0210200Y0250412D01*
X0211433Y0253389D01*
X0211433Y0256611D01*
X0210200Y0259588D01*
X0210200Y0259588D01*
X0207922Y0261867D01*
X0207922Y0261867D01*
X0204945Y0263100D01*
X0203665Y0263100D01*
X0201722Y0263100D01*
X0198745Y0261867D01*
X0196466Y0259588D01*
X0195233Y0256611D01*
X0195233Y0253389D01*
X0196466Y0250412D01*
X0196466Y0250412D01*
X0198745Y0248133D01*
X0201722Y0246900D01*
X0199966Y0247627D02*
X0194633Y0247627D01*
X0194633Y0246829D02*
X0220211Y0246829D01*
X0220740Y0246300D02*
X0194633Y0246300D01*
X0194633Y0293600D01*
X0245059Y0293600D01*
X0245059Y0277826D01*
X0245294Y0277592D01*
X0261373Y0277592D01*
X0261607Y0277826D01*
X0261607Y0293600D01*
X0282033Y0293600D01*
X0282033Y0246300D01*
X0235927Y0246300D01*
X0237106Y0247479D01*
X0237783Y0249115D01*
X0237783Y0250885D01*
X0237106Y0252521D01*
X0235854Y0253773D01*
X0234218Y0254450D01*
X0232448Y0254450D01*
X0230813Y0253773D01*
X0229561Y0252521D01*
X0228883Y0250885D01*
X0228883Y0249115D01*
X0229561Y0247479D01*
X0230740Y0246300D01*
X0225927Y0246300D01*
X0227106Y0247479D01*
X0227783Y0249115D01*
X0227783Y0250885D01*
X0227106Y0252521D01*
X0225854Y0253773D01*
X0224218Y0254450D01*
X0222448Y0254450D01*
X0220813Y0253773D01*
X0219561Y0252521D01*
X0218883Y0250885D01*
X0218883Y0249115D01*
X0219561Y0247479D01*
X0220740Y0246300D01*
X0219499Y0247627D02*
X0206700Y0247627D01*
X0207922Y0248133D02*
X0207922Y0248133D01*
X0208214Y0248426D02*
X0219169Y0248426D01*
X0218883Y0249224D02*
X0209013Y0249224D01*
X0209811Y0250023D02*
X0218883Y0250023D01*
X0218883Y0250821D02*
X0210370Y0250821D01*
X0210200Y0250412D02*
X0210200Y0250412D01*
X0210701Y0251620D02*
X0219188Y0251620D01*
X0219518Y0252418D02*
X0211031Y0252418D01*
X0211362Y0253217D02*
X0220257Y0253217D01*
X0221399Y0254015D02*
X0211433Y0254015D01*
X0211433Y0254814D02*
X0282033Y0254814D01*
X0282033Y0255612D02*
X0211433Y0255612D01*
X0211433Y0256411D02*
X0282033Y0256411D01*
X0282033Y0257209D02*
X0211186Y0257209D01*
X0210855Y0258008D02*
X0282033Y0258008D01*
X0282033Y0258806D02*
X0210524Y0258806D01*
X0210183Y0259605D02*
X0282033Y0259605D01*
X0282033Y0260403D02*
X0209385Y0260403D01*
X0208586Y0261202D02*
X0282033Y0261202D01*
X0282033Y0262001D02*
X0207599Y0262001D01*
X0205671Y0262799D02*
X0282033Y0262799D01*
X0282033Y0263598D02*
X0194633Y0263598D01*
X0194633Y0264396D02*
X0282033Y0264396D01*
X0282033Y0265195D02*
X0194633Y0265195D01*
X0194633Y0265993D02*
X0282033Y0265993D01*
X0282033Y0266792D02*
X0194633Y0266792D01*
X0194633Y0267590D02*
X0282033Y0267590D01*
X0282033Y0268389D02*
X0194633Y0268389D01*
X0194633Y0269187D02*
X0282033Y0269187D01*
X0282033Y0269986D02*
X0194633Y0269986D01*
X0194633Y0270784D02*
X0282033Y0270784D01*
X0282033Y0271583D02*
X0194633Y0271583D01*
X0194633Y0272381D02*
X0282033Y0272381D01*
X0282033Y0273180D02*
X0194633Y0273180D01*
X0194633Y0273978D02*
X0282033Y0273978D01*
X0282033Y0274777D02*
X0194633Y0274777D01*
X0194633Y0275575D02*
X0282033Y0275575D01*
X0282033Y0276374D02*
X0194633Y0276374D01*
X0194633Y0277172D02*
X0201065Y0277172D01*
X0201722Y0276900D02*
X0204945Y0276900D01*
X0207922Y0278133D01*
X0210200Y0280412D01*
X0211433Y0283389D01*
X0211433Y0286611D01*
X0210200Y0289588D01*
X0210200Y0289588D01*
X0207922Y0291867D01*
X0207922Y0291867D01*
X0204945Y0293100D01*
X0203002Y0293100D01*
X0201722Y0293100D01*
X0198745Y0291867D01*
X0196466Y0289588D01*
X0195233Y0286611D01*
X0195233Y0283389D01*
X0196466Y0280412D01*
X0196466Y0280412D01*
X0198745Y0278133D01*
X0201722Y0276900D01*
X0199137Y0277971D02*
X0194633Y0277971D01*
X0194633Y0278769D02*
X0198109Y0278769D01*
X0198745Y0278133D02*
X0198745Y0278133D01*
X0197310Y0279568D02*
X0194633Y0279568D01*
X0194633Y0280366D02*
X0196512Y0280366D01*
X0196155Y0281165D02*
X0194633Y0281165D01*
X0194633Y0281963D02*
X0195824Y0281963D01*
X0195493Y0282762D02*
X0194633Y0282762D01*
X0194633Y0283560D02*
X0195233Y0283560D01*
X0195233Y0284359D02*
X0194633Y0284359D01*
X0194633Y0285157D02*
X0195233Y0285157D01*
X0195233Y0285956D02*
X0194633Y0285956D01*
X0194633Y0286754D02*
X0195293Y0286754D01*
X0195623Y0287553D02*
X0194633Y0287553D01*
X0194633Y0288351D02*
X0195954Y0288351D01*
X0196285Y0289150D02*
X0194633Y0289150D01*
X0194633Y0289948D02*
X0196827Y0289948D01*
X0196466Y0289588D02*
X0196466Y0289588D01*
X0196466Y0289588D01*
X0197625Y0290747D02*
X0194633Y0290747D01*
X0194633Y0291545D02*
X0198424Y0291545D01*
X0198745Y0291867D02*
X0198745Y0291867D01*
X0199897Y0292344D02*
X0194633Y0292344D01*
X0194633Y0293142D02*
X0245059Y0293142D01*
X0245059Y0292344D02*
X0206770Y0292344D01*
X0208243Y0291545D02*
X0245059Y0291545D01*
X0245059Y0290747D02*
X0209042Y0290747D01*
X0209840Y0289948D02*
X0245059Y0289948D01*
X0245059Y0289150D02*
X0210382Y0289150D01*
X0210713Y0288351D02*
X0245059Y0288351D01*
X0245059Y0287553D02*
X0211043Y0287553D01*
X0211374Y0286754D02*
X0245059Y0286754D01*
X0245059Y0285956D02*
X0211433Y0285956D01*
X0211433Y0285157D02*
X0245059Y0285157D01*
X0245059Y0284359D02*
X0211433Y0284359D01*
X0211433Y0283560D02*
X0245059Y0283560D01*
X0245059Y0282762D02*
X0211174Y0282762D01*
X0210843Y0281963D02*
X0245059Y0281963D01*
X0245059Y0281165D02*
X0210512Y0281165D01*
X0210200Y0280412D02*
X0210200Y0280412D01*
X0210155Y0280366D02*
X0245059Y0280366D01*
X0245059Y0279568D02*
X0209356Y0279568D01*
X0208558Y0278769D02*
X0245059Y0278769D01*
X0245059Y0277971D02*
X0207530Y0277971D01*
X0207922Y0278133D02*
X0207922Y0278133D01*
X0205602Y0277172D02*
X0282033Y0277172D01*
X0282033Y0277971D02*
X0261607Y0277971D01*
X0261607Y0278769D02*
X0282033Y0278769D01*
X0282033Y0279568D02*
X0261607Y0279568D01*
X0261607Y0280366D02*
X0282033Y0280366D01*
X0282033Y0281165D02*
X0261607Y0281165D01*
X0261607Y0281963D02*
X0282033Y0281963D01*
X0282033Y0282762D02*
X0261607Y0282762D01*
X0261607Y0283560D02*
X0282033Y0283560D01*
X0282033Y0284359D02*
X0261607Y0284359D01*
X0261607Y0285157D02*
X0282033Y0285157D01*
X0282033Y0285956D02*
X0261607Y0285956D01*
X0261607Y0286754D02*
X0282033Y0286754D01*
X0282033Y0287553D02*
X0261607Y0287553D01*
X0261607Y0288351D02*
X0282033Y0288351D01*
X0282033Y0289150D02*
X0261607Y0289150D01*
X0261607Y0289948D02*
X0282033Y0289948D01*
X0282033Y0290747D02*
X0261607Y0290747D01*
X0261607Y0291545D02*
X0282033Y0291545D01*
X0282033Y0292344D02*
X0261607Y0292344D01*
X0261607Y0293142D02*
X0282033Y0293142D01*
X0284633Y0293142D02*
X0331933Y0293142D01*
X0331933Y0293600D02*
X0284633Y0293600D01*
X0284633Y0273944D01*
X0284636Y0273955D01*
X0284945Y0274148D01*
X0285188Y0274421D01*
X0285209Y0274422D01*
X0285223Y0274467D01*
X0285223Y0274925D01*
X0285340Y0275042D01*
X0285355Y0275150D01*
X0285483Y0275246D01*
X0285509Y0275324D01*
X0285635Y0275387D01*
X0285666Y0275481D01*
X0285892Y0275594D01*
X0286054Y0275755D01*
X0286163Y0275755D01*
X0286408Y0275939D01*
X0286444Y0275934D01*
X0286483Y0275996D01*
X0286866Y0276081D01*
X0287073Y0276184D01*
X0287117Y0276228D01*
X0287160Y0276228D01*
X0287218Y0276257D01*
X0287304Y0276228D01*
X0287528Y0276228D01*
X0287705Y0276267D01*
X0287761Y0276306D01*
X0287826Y0276294D01*
X0287929Y0276317D01*
X0288020Y0276259D01*
X0288191Y0276228D01*
X0288576Y0276228D01*
X0288658Y0276252D01*
X0288958Y0276089D01*
X0289294Y0276027D01*
X0289344Y0275956D01*
X0289678Y0275696D01*
X0290036Y0275501D01*
X0290138Y0275477D01*
X0290308Y0275206D01*
X0290560Y0275010D01*
X0290569Y0274941D01*
X0290591Y0274930D01*
X0290717Y0274552D01*
X0290928Y0274214D01*
X0290926Y0274206D01*
X0290955Y0274177D01*
X0290955Y0273837D01*
X0291063Y0273515D01*
X0291013Y0273415D01*
X0290955Y0273155D01*
X0290955Y0272989D01*
X0291006Y0272968D01*
X0291050Y0272961D01*
X0291227Y0272986D01*
X0291358Y0272888D01*
X0291481Y0272864D01*
X0291551Y0272758D01*
X0291572Y0272742D01*
X0291885Y0272617D01*
X0291932Y0272509D01*
X0292089Y0272469D01*
X0292230Y0272234D01*
X0292280Y0272197D01*
X0292283Y0272173D01*
X0292499Y0272000D01*
X0292515Y0271857D01*
X0292600Y0271810D01*
X0292705Y0271444D01*
X0292724Y0271410D01*
X0292804Y0271348D01*
X0292816Y0271259D01*
X0292901Y0271117D01*
X0292856Y0270938D01*
X0292923Y0270870D01*
X0292923Y0270677D01*
X0292986Y0270459D01*
X0292928Y0270356D01*
X0292982Y0269924D01*
X0292923Y0269848D01*
X0292923Y0264358D01*
X0292133Y0263567D01*
X0291059Y0263567D01*
X0292106Y0262521D01*
X0292783Y0260885D01*
X0292783Y0259115D01*
X0292106Y0257479D01*
X0290854Y0256227D01*
X0289218Y0255550D01*
X0287448Y0255550D01*
X0285813Y0256227D01*
X0284633Y0257407D01*
X0284633Y0252593D01*
X0285813Y0253773D01*
X0287448Y0254450D01*
X0289218Y0254450D01*
X0290854Y0253773D01*
X0292106Y0252521D01*
X0292783Y0250885D01*
X0292783Y0249115D01*
X0292106Y0247479D01*
X0290927Y0246300D01*
X0331933Y0246300D01*
X0331933Y0258746D01*
X0312833Y0258746D01*
X0312599Y0258980D01*
X0312599Y0290020D01*
X0312833Y0290254D01*
X0331933Y0290254D01*
X0331933Y0293600D01*
X0331933Y0292344D02*
X0296770Y0292344D01*
X0297922Y0291867D02*
X0294945Y0293100D01*
X0291722Y0293100D01*
X0288745Y0291867D01*
X0286466Y0289588D01*
X0285233Y0286611D01*
X0285233Y0283389D01*
X0286466Y0280412D01*
X0286466Y0280412D01*
X0288745Y0278133D01*
X0291722Y0276900D01*
X0294945Y0276900D01*
X0297922Y0278133D01*
X0300200Y0280412D01*
X0301433Y0283389D01*
X0301433Y0285331D01*
X0301433Y0286611D01*
X0301433Y0286611D01*
X0300200Y0289588D01*
X0300200Y0289588D01*
X0297922Y0291867D01*
X0297922Y0291867D01*
X0298243Y0291545D02*
X0331933Y0291545D01*
X0331933Y0290747D02*
X0299042Y0290747D01*
X0299840Y0289948D02*
X0312599Y0289948D01*
X0312599Y0289150D02*
X0300382Y0289150D01*
X0300713Y0288351D02*
X0312599Y0288351D01*
X0312599Y0287553D02*
X0301043Y0287553D01*
X0301374Y0286754D02*
X0312599Y0286754D01*
X0312599Y0285956D02*
X0301433Y0285956D01*
X0301433Y0285157D02*
X0312599Y0285157D01*
X0312599Y0284359D02*
X0301433Y0284359D01*
X0301433Y0283560D02*
X0312599Y0283560D01*
X0312599Y0282762D02*
X0301174Y0282762D01*
X0300843Y0281963D02*
X0312599Y0281963D01*
X0312599Y0281165D02*
X0300512Y0281165D01*
X0300200Y0280412D02*
X0300200Y0280412D01*
X0300155Y0280366D02*
X0312599Y0280366D01*
X0312599Y0279568D02*
X0299356Y0279568D01*
X0298558Y0278769D02*
X0312599Y0278769D01*
X0312599Y0277971D02*
X0297530Y0277971D01*
X0297922Y0278133D02*
X0297922Y0278133D01*
X0295602Y0277172D02*
X0312599Y0277172D01*
X0312599Y0276374D02*
X0284633Y0276374D01*
X0284633Y0277172D02*
X0291065Y0277172D01*
X0289899Y0275575D02*
X0312599Y0275575D01*
X0312599Y0274777D02*
X0290642Y0274777D01*
X0290955Y0273978D02*
X0312599Y0273978D01*
X0312599Y0273180D02*
X0290960Y0273180D01*
X0292142Y0272381D02*
X0312599Y0272381D01*
X0312599Y0271583D02*
X0292665Y0271583D01*
X0292923Y0270784D02*
X0312599Y0270784D01*
X0312599Y0269986D02*
X0292975Y0269986D01*
X0292923Y0269187D02*
X0312599Y0269187D01*
X0312599Y0268389D02*
X0292923Y0268389D01*
X0292923Y0267590D02*
X0312599Y0267590D01*
X0312599Y0266792D02*
X0292923Y0266792D01*
X0292923Y0265993D02*
X0312599Y0265993D01*
X0312599Y0265195D02*
X0292923Y0265195D01*
X0292923Y0264396D02*
X0312599Y0264396D01*
X0312599Y0263598D02*
X0292163Y0263598D01*
X0291828Y0262799D02*
X0312599Y0262799D01*
X0312599Y0262001D02*
X0292321Y0262001D01*
X0292652Y0261202D02*
X0312599Y0261202D01*
X0312599Y0260403D02*
X0292783Y0260403D01*
X0292783Y0259605D02*
X0312599Y0259605D01*
X0312772Y0258806D02*
X0292656Y0258806D01*
X0292325Y0258008D02*
X0331933Y0258008D01*
X0331933Y0257209D02*
X0291836Y0257209D01*
X0291038Y0256411D02*
X0331933Y0256411D01*
X0331933Y0255612D02*
X0289369Y0255612D01*
X0290268Y0254015D02*
X0331933Y0254015D01*
X0331933Y0253217D02*
X0291410Y0253217D01*
X0292148Y0252418D02*
X0331933Y0252418D01*
X0331933Y0251620D02*
X0292479Y0251620D01*
X0292783Y0250821D02*
X0331933Y0250821D01*
X0331933Y0250023D02*
X0292783Y0250023D01*
X0292783Y0249224D02*
X0331933Y0249224D01*
X0331933Y0248426D02*
X0292498Y0248426D01*
X0292167Y0247627D02*
X0331933Y0247627D01*
X0331933Y0246829D02*
X0291455Y0246829D01*
X0291722Y0243100D02*
X0288745Y0241867D01*
X0286466Y0239588D01*
X0285233Y0236611D01*
X0285233Y0235331D01*
X0285233Y0233389D01*
X0286466Y0230412D01*
X0286466Y0230412D01*
X0288745Y0228133D01*
X0291722Y0226900D01*
X0294945Y0226900D01*
X0297922Y0228133D01*
X0300200Y0230412D01*
X0301433Y0233389D01*
X0301433Y0236611D01*
X0300200Y0239588D01*
X0300200Y0239588D01*
X0297922Y0241867D01*
X0297922Y0241867D01*
X0297922Y0241867D01*
X0294945Y0243100D01*
X0291722Y0243100D01*
X0291085Y0242836D02*
X0284633Y0242836D01*
X0284633Y0242038D02*
X0289158Y0242038D01*
X0288745Y0241867D02*
X0288745Y0241867D01*
X0288117Y0241239D02*
X0284633Y0241239D01*
X0284633Y0240441D02*
X0287319Y0240441D01*
X0286520Y0239642D02*
X0284633Y0239642D01*
X0284633Y0238844D02*
X0286158Y0238844D01*
X0286466Y0239588D02*
X0286466Y0239588D01*
X0285827Y0238045D02*
X0284633Y0238045D01*
X0284633Y0237247D02*
X0285497Y0237247D01*
X0285233Y0236448D02*
X0284633Y0236448D01*
X0284633Y0235650D02*
X0285233Y0235650D01*
X0285233Y0234851D02*
X0284633Y0234851D01*
X0284633Y0234053D02*
X0285233Y0234053D01*
X0285289Y0233254D02*
X0284633Y0233254D01*
X0284633Y0232456D02*
X0285620Y0232456D01*
X0285951Y0231657D02*
X0284633Y0231657D01*
X0284633Y0230859D02*
X0286281Y0230859D01*
X0286818Y0230060D02*
X0284633Y0230060D01*
X0284633Y0229262D02*
X0287617Y0229262D01*
X0288415Y0228463D02*
X0284633Y0228463D01*
X0284633Y0227665D02*
X0289876Y0227665D01*
X0288745Y0228133D02*
X0288745Y0228133D01*
X0284633Y0226866D02*
X0331933Y0226866D01*
X0331933Y0226068D02*
X0284633Y0226068D01*
X0284633Y0225269D02*
X0331933Y0225269D01*
X0331933Y0224470D02*
X0284633Y0224470D01*
X0284633Y0223672D02*
X0331933Y0223672D01*
X0331933Y0222873D02*
X0284633Y0222873D01*
X0284633Y0222075D02*
X0331933Y0222075D01*
X0331933Y0221276D02*
X0284633Y0221276D01*
X0284633Y0220478D02*
X0331933Y0220478D01*
X0331933Y0219679D02*
X0284633Y0219679D01*
X0284633Y0218881D02*
X0331933Y0218881D01*
X0331933Y0218082D02*
X0284633Y0218082D01*
X0284633Y0217284D02*
X0331933Y0217284D01*
X0331933Y0216485D02*
X0284633Y0216485D01*
X0284633Y0215687D02*
X0331933Y0215687D01*
X0331933Y0214888D02*
X0284633Y0214888D01*
X0284633Y0214090D02*
X0331933Y0214090D01*
X0331933Y0213291D02*
X0284633Y0213291D01*
X0284633Y0212493D02*
X0331933Y0212493D01*
X0331933Y0211694D02*
X0284633Y0211694D01*
X0284633Y0210896D02*
X0331933Y0210896D01*
X0331933Y0210097D02*
X0284633Y0210097D01*
X0284633Y0209299D02*
X0331933Y0209299D01*
X0331933Y0208500D02*
X0284633Y0208500D01*
X0284633Y0207702D02*
X0331933Y0207702D01*
X0331933Y0206903D02*
X0284633Y0206903D01*
X0284633Y0206105D02*
X0331933Y0206105D01*
X0331933Y0205306D02*
X0284633Y0205306D01*
X0284633Y0204508D02*
X0331933Y0204508D01*
X0331933Y0203709D02*
X0330917Y0203709D01*
X0330854Y0203773D02*
X0329218Y0204450D01*
X0327448Y0204450D01*
X0325813Y0203773D01*
X0324561Y0202521D01*
X0323883Y0200885D01*
X0323883Y0199115D01*
X0324561Y0197479D01*
X0325813Y0196227D01*
X0327448Y0195550D01*
X0329218Y0195550D01*
X0330854Y0196227D01*
X0331933Y0197307D01*
X0331933Y0156400D01*
X0306607Y0156400D01*
X0306607Y0183288D01*
X0306373Y0183522D01*
X0290294Y0183522D01*
X0290059Y0183288D01*
X0290059Y0156400D01*
X0284633Y0156400D01*
X0284633Y0243700D01*
X0331933Y0243700D01*
X0331933Y0202693D01*
X0330854Y0203773D01*
X0331716Y0202911D02*
X0331933Y0202911D01*
X0325749Y0203709D02*
X0315917Y0203709D01*
X0315854Y0203773D02*
X0314218Y0204450D01*
X0312448Y0204450D01*
X0310813Y0203773D01*
X0309561Y0202521D01*
X0308883Y0200885D01*
X0308883Y0199115D01*
X0309561Y0197479D01*
X0310813Y0196227D01*
X0312448Y0195550D01*
X0314218Y0195550D01*
X0315854Y0196227D01*
X0317106Y0197479D01*
X0317783Y0199115D01*
X0317783Y0200885D01*
X0317106Y0202521D01*
X0315854Y0203773D01*
X0316716Y0202911D02*
X0324951Y0202911D01*
X0324392Y0202112D02*
X0317275Y0202112D01*
X0317606Y0201314D02*
X0324061Y0201314D01*
X0323883Y0200515D02*
X0317783Y0200515D01*
X0317783Y0199717D02*
X0323883Y0199717D01*
X0323965Y0198918D02*
X0317702Y0198918D01*
X0317371Y0198120D02*
X0324296Y0198120D01*
X0324719Y0197321D02*
X0316948Y0197321D01*
X0316149Y0196523D02*
X0325517Y0196523D01*
X0327028Y0195724D02*
X0314639Y0195724D01*
X0312028Y0195724D02*
X0284633Y0195724D01*
X0284633Y0194926D02*
X0331933Y0194926D01*
X0331933Y0195724D02*
X0329639Y0195724D01*
X0331149Y0196523D02*
X0331933Y0196523D01*
X0331933Y0194127D02*
X0284633Y0194127D01*
X0284633Y0193329D02*
X0331933Y0193329D01*
X0331933Y0192530D02*
X0284633Y0192530D01*
X0284633Y0191732D02*
X0331933Y0191732D01*
X0331933Y0190933D02*
X0284633Y0190933D01*
X0284633Y0190134D02*
X0331933Y0190134D01*
X0331933Y0189336D02*
X0284633Y0189336D01*
X0284633Y0188537D02*
X0331933Y0188537D01*
X0331933Y0187739D02*
X0284633Y0187739D01*
X0284633Y0186940D02*
X0331933Y0186940D01*
X0331933Y0186142D02*
X0284633Y0186142D01*
X0284633Y0185343D02*
X0331933Y0185343D01*
X0331933Y0184545D02*
X0284633Y0184545D01*
X0284633Y0183746D02*
X0331933Y0183746D01*
X0331933Y0182948D02*
X0306607Y0182948D01*
X0306607Y0182149D02*
X0331933Y0182149D01*
X0331933Y0181351D02*
X0306607Y0181351D01*
X0306607Y0180552D02*
X0331933Y0180552D01*
X0331933Y0179754D02*
X0306607Y0179754D01*
X0306607Y0178955D02*
X0331933Y0178955D01*
X0331933Y0178157D02*
X0306607Y0178157D01*
X0306607Y0177358D02*
X0331933Y0177358D01*
X0331933Y0176560D02*
X0306607Y0176560D01*
X0306607Y0175761D02*
X0331933Y0175761D01*
X0331933Y0174963D02*
X0306607Y0174963D01*
X0306607Y0174164D02*
X0331933Y0174164D01*
X0331933Y0173366D02*
X0306607Y0173366D01*
X0306607Y0172567D02*
X0331933Y0172567D01*
X0331933Y0171769D02*
X0306607Y0171769D01*
X0306607Y0170970D02*
X0331933Y0170970D01*
X0331933Y0170172D02*
X0306607Y0170172D01*
X0306607Y0169373D02*
X0331933Y0169373D01*
X0331933Y0168575D02*
X0306607Y0168575D01*
X0306607Y0167776D02*
X0331933Y0167776D01*
X0331933Y0166978D02*
X0306607Y0166978D01*
X0306607Y0166179D02*
X0331933Y0166179D01*
X0331933Y0165381D02*
X0306607Y0165381D01*
X0306607Y0164582D02*
X0331933Y0164582D01*
X0331933Y0163784D02*
X0306607Y0163784D01*
X0306607Y0162985D02*
X0331933Y0162985D01*
X0331933Y0162187D02*
X0306607Y0162187D01*
X0306607Y0161388D02*
X0331933Y0161388D01*
X0331933Y0160590D02*
X0306607Y0160590D01*
X0306607Y0159791D02*
X0331933Y0159791D01*
X0331933Y0158993D02*
X0306607Y0158993D01*
X0306607Y0158194D02*
X0331933Y0158194D01*
X0331933Y0157396D02*
X0306607Y0157396D01*
X0306607Y0156597D02*
X0331933Y0156597D01*
X0290059Y0156597D02*
X0284633Y0156597D01*
X0284633Y0157396D02*
X0290059Y0157396D01*
X0290059Y0158194D02*
X0284633Y0158194D01*
X0284633Y0158993D02*
X0290059Y0158993D01*
X0290059Y0159791D02*
X0284633Y0159791D01*
X0284633Y0160590D02*
X0290059Y0160590D01*
X0290059Y0161388D02*
X0284633Y0161388D01*
X0284633Y0162187D02*
X0290059Y0162187D01*
X0290059Y0162985D02*
X0284633Y0162985D01*
X0284633Y0163784D02*
X0290059Y0163784D01*
X0290059Y0164582D02*
X0284633Y0164582D01*
X0284633Y0165381D02*
X0290059Y0165381D01*
X0290059Y0166179D02*
X0284633Y0166179D01*
X0284633Y0166978D02*
X0290059Y0166978D01*
X0290059Y0167776D02*
X0284633Y0167776D01*
X0284633Y0168575D02*
X0290059Y0168575D01*
X0290059Y0169373D02*
X0284633Y0169373D01*
X0284633Y0170172D02*
X0290059Y0170172D01*
X0290059Y0170970D02*
X0284633Y0170970D01*
X0284633Y0171769D02*
X0290059Y0171769D01*
X0290059Y0172567D02*
X0284633Y0172567D01*
X0284633Y0173366D02*
X0290059Y0173366D01*
X0290059Y0174164D02*
X0284633Y0174164D01*
X0284633Y0174963D02*
X0290059Y0174963D01*
X0290059Y0175761D02*
X0284633Y0175761D01*
X0284633Y0176560D02*
X0290059Y0176560D01*
X0290059Y0177358D02*
X0284633Y0177358D01*
X0284633Y0178157D02*
X0290059Y0178157D01*
X0290059Y0178955D02*
X0284633Y0178955D01*
X0284633Y0179754D02*
X0290059Y0179754D01*
X0290059Y0180552D02*
X0284633Y0180552D01*
X0284633Y0181351D02*
X0290059Y0181351D01*
X0290059Y0182149D02*
X0284633Y0182149D01*
X0284633Y0182948D02*
X0290059Y0182948D01*
X0284633Y0196523D02*
X0310517Y0196523D01*
X0309719Y0197321D02*
X0284633Y0197321D01*
X0284633Y0198120D02*
X0309296Y0198120D01*
X0308965Y0198918D02*
X0284633Y0198918D01*
X0284633Y0199717D02*
X0308883Y0199717D01*
X0308883Y0200515D02*
X0284633Y0200515D01*
X0284633Y0201314D02*
X0309061Y0201314D01*
X0309392Y0202112D02*
X0284633Y0202112D01*
X0284633Y0202911D02*
X0309951Y0202911D01*
X0310749Y0203709D02*
X0284633Y0203709D01*
X0282033Y0216485D02*
X0211112Y0216485D01*
X0211910Y0217284D02*
X0282033Y0217284D01*
X0282033Y0218082D02*
X0212356Y0218082D01*
X0212686Y0218881D02*
X0282033Y0218881D01*
X0282033Y0219679D02*
X0212783Y0219679D01*
X0212783Y0220478D02*
X0282033Y0220478D01*
X0282033Y0221276D02*
X0212621Y0221276D01*
X0212290Y0222075D02*
X0282033Y0222075D01*
X0282033Y0222873D02*
X0211753Y0222873D01*
X0210955Y0223672D02*
X0282033Y0223672D01*
X0282033Y0224470D02*
X0194633Y0224470D01*
X0194633Y0223672D02*
X0195712Y0223672D01*
X0194914Y0222873D02*
X0194633Y0222873D01*
X0194633Y0225269D02*
X0282033Y0225269D01*
X0282033Y0226068D02*
X0194633Y0226068D01*
X0194633Y0226866D02*
X0282033Y0226866D01*
X0282033Y0227665D02*
X0276790Y0227665D01*
X0277922Y0228133D02*
X0277922Y0228133D01*
X0280200Y0230412D01*
X0281433Y0233389D01*
X0281433Y0236611D01*
X0280200Y0239588D01*
X0280200Y0239588D01*
X0277922Y0241867D01*
X0277922Y0241867D01*
X0274945Y0243100D01*
X0273002Y0243100D01*
X0271722Y0243100D01*
X0268745Y0241867D01*
X0266466Y0239588D01*
X0265233Y0236611D01*
X0265233Y0233389D01*
X0266466Y0230412D01*
X0266466Y0230412D01*
X0268745Y0228133D01*
X0271722Y0226900D01*
X0274945Y0226900D01*
X0277922Y0228133D01*
X0278252Y0228463D02*
X0282033Y0228463D01*
X0282033Y0229262D02*
X0279050Y0229262D01*
X0279849Y0230060D02*
X0282033Y0230060D01*
X0282033Y0230859D02*
X0280385Y0230859D01*
X0280200Y0230412D02*
X0280200Y0230412D01*
X0280716Y0231657D02*
X0282033Y0231657D01*
X0282033Y0232456D02*
X0281047Y0232456D01*
X0281378Y0233254D02*
X0282033Y0233254D01*
X0282033Y0234053D02*
X0281433Y0234053D01*
X0281433Y0234851D02*
X0282033Y0234851D01*
X0282033Y0235650D02*
X0281433Y0235650D01*
X0281433Y0236448D02*
X0282033Y0236448D01*
X0282033Y0237247D02*
X0281170Y0237247D01*
X0280839Y0238045D02*
X0282033Y0238045D01*
X0282033Y0238844D02*
X0280509Y0238844D01*
X0280146Y0239642D02*
X0282033Y0239642D01*
X0282033Y0240441D02*
X0279348Y0240441D01*
X0278549Y0241239D02*
X0282033Y0241239D01*
X0282033Y0242038D02*
X0277509Y0242038D01*
X0275581Y0242836D02*
X0282033Y0242836D01*
X0282033Y0243635D02*
X0194633Y0243635D01*
X0192033Y0246300D02*
X0094733Y0246300D01*
X0094733Y0274206D01*
X0124204Y0274206D01*
X0124438Y0274441D01*
X0124438Y0293600D01*
X0192033Y0293600D01*
X0192033Y0246300D01*
X0192033Y0246829D02*
X0094733Y0246829D01*
X0094733Y0247627D02*
X0179966Y0247627D01*
X0178745Y0248133D02*
X0181722Y0246900D01*
X0184945Y0246900D01*
X0187922Y0248133D01*
X0190200Y0250412D01*
X0191433Y0253389D01*
X0191433Y0254669D01*
X0191433Y0256611D01*
X0190200Y0259588D01*
X0187922Y0261867D01*
X0187922Y0261867D01*
X0187922Y0261867D01*
X0184945Y0263100D01*
X0181722Y0263100D01*
X0178745Y0261867D01*
X0176466Y0259588D01*
X0175233Y0256611D01*
X0175233Y0253389D01*
X0176466Y0250412D01*
X0176466Y0250412D01*
X0178745Y0248133D01*
X0178745Y0248133D01*
X0178452Y0248426D02*
X0094733Y0248426D01*
X0094733Y0249224D02*
X0177654Y0249224D01*
X0176855Y0250023D02*
X0094733Y0250023D01*
X0094733Y0250821D02*
X0176297Y0250821D01*
X0175966Y0251620D02*
X0094733Y0251620D01*
X0094733Y0252418D02*
X0175635Y0252418D01*
X0175305Y0253217D02*
X0094733Y0253217D01*
X0094733Y0254015D02*
X0175233Y0254015D01*
X0175233Y0254814D02*
X0094733Y0254814D01*
X0094733Y0255612D02*
X0137297Y0255612D01*
X0137448Y0255550D02*
X0139218Y0255550D01*
X0140854Y0256227D01*
X0142106Y0257479D01*
X0142783Y0259115D01*
X0142783Y0260885D01*
X0142106Y0262521D01*
X0140854Y0263773D01*
X0139218Y0264450D01*
X0137448Y0264450D01*
X0135813Y0263773D01*
X0134561Y0262521D01*
X0133883Y0260885D01*
X0133883Y0259115D01*
X0134561Y0257479D01*
X0135813Y0256227D01*
X0137448Y0255550D01*
X0139369Y0255612D02*
X0175233Y0255612D01*
X0175233Y0256411D02*
X0141038Y0256411D01*
X0141836Y0257209D02*
X0175481Y0257209D01*
X0175812Y0258008D02*
X0142325Y0258008D01*
X0142656Y0258806D02*
X0176143Y0258806D01*
X0176466Y0259588D02*
X0176466Y0259588D01*
X0176483Y0259605D02*
X0142783Y0259605D01*
X0142783Y0260403D02*
X0177282Y0260403D01*
X0178080Y0261202D02*
X0142652Y0261202D01*
X0142321Y0262001D02*
X0179068Y0262001D01*
X0178745Y0261867D02*
X0178745Y0261867D01*
X0180996Y0262799D02*
X0141828Y0262799D01*
X0141029Y0263598D02*
X0192033Y0263598D01*
X0192033Y0264396D02*
X0139349Y0264396D01*
X0139218Y0265550D02*
X0140854Y0266227D01*
X0142106Y0267479D01*
X0142783Y0269115D01*
X0142783Y0270885D01*
X0142106Y0272521D01*
X0140854Y0273773D01*
X0139218Y0274450D01*
X0137448Y0274450D01*
X0135813Y0273773D01*
X0134561Y0272521D01*
X0133883Y0270885D01*
X0133883Y0269115D01*
X0134561Y0267479D01*
X0135813Y0266227D01*
X0137448Y0265550D01*
X0139218Y0265550D01*
X0140288Y0265993D02*
X0192033Y0265993D01*
X0192033Y0265195D02*
X0094733Y0265195D01*
X0094733Y0265993D02*
X0136378Y0265993D01*
X0135248Y0266792D02*
X0094733Y0266792D01*
X0094733Y0267590D02*
X0134515Y0267590D01*
X0134184Y0268389D02*
X0094733Y0268389D01*
X0094733Y0269187D02*
X0133883Y0269187D01*
X0133883Y0269986D02*
X0094733Y0269986D01*
X0094733Y0270784D02*
X0133883Y0270784D01*
X0134172Y0271583D02*
X0094733Y0271583D01*
X0094733Y0272381D02*
X0134503Y0272381D01*
X0135220Y0273180D02*
X0094733Y0273180D01*
X0094733Y0273978D02*
X0136309Y0273978D01*
X0140358Y0273978D02*
X0192033Y0273978D01*
X0192033Y0273180D02*
X0141447Y0273180D01*
X0142164Y0272381D02*
X0192033Y0272381D01*
X0192033Y0271583D02*
X0142494Y0271583D01*
X0142783Y0270784D02*
X0192033Y0270784D01*
X0192033Y0269986D02*
X0142783Y0269986D01*
X0142783Y0269187D02*
X0192033Y0269187D01*
X0192033Y0268389D02*
X0142483Y0268389D01*
X0142152Y0267590D02*
X0192033Y0267590D01*
X0192033Y0266792D02*
X0141418Y0266792D01*
X0137318Y0264396D02*
X0094733Y0264396D01*
X0094733Y0263598D02*
X0135638Y0263598D01*
X0134839Y0262799D02*
X0094733Y0262799D01*
X0094733Y0262001D02*
X0134345Y0262001D01*
X0134015Y0261202D02*
X0094733Y0261202D01*
X0094733Y0260403D02*
X0133883Y0260403D01*
X0133883Y0259605D02*
X0094733Y0259605D01*
X0094733Y0258806D02*
X0134011Y0258806D01*
X0134342Y0258008D02*
X0094733Y0258008D01*
X0094733Y0257209D02*
X0134831Y0257209D01*
X0135629Y0256411D02*
X0094733Y0256411D01*
X0094733Y0242836D02*
X0101085Y0242836D01*
X0101722Y0243100D02*
X0098745Y0241867D01*
X0096466Y0239588D01*
X0095233Y0236611D01*
X0095233Y0233389D01*
X0096466Y0230412D01*
X0096466Y0230412D01*
X0098745Y0228133D01*
X0101722Y0226900D01*
X0103002Y0226900D01*
X0104945Y0226900D01*
X0107922Y0228133D01*
X0110200Y0230412D01*
X0111433Y0233389D01*
X0111433Y0236611D01*
X0110200Y0239588D01*
X0110200Y0239588D01*
X0107922Y0241867D01*
X0104945Y0243100D01*
X0101722Y0243100D01*
X0099158Y0242038D02*
X0094733Y0242038D01*
X0094733Y0241239D02*
X0098117Y0241239D01*
X0098745Y0241867D02*
X0098745Y0241867D01*
X0097319Y0240441D02*
X0094733Y0240441D01*
X0094733Y0239642D02*
X0096520Y0239642D01*
X0096466Y0239588D02*
X0096466Y0239588D01*
X0096158Y0238844D02*
X0094733Y0238844D01*
X0094733Y0238045D02*
X0095827Y0238045D01*
X0095497Y0237247D02*
X0094733Y0237247D01*
X0094733Y0236448D02*
X0095233Y0236448D01*
X0095233Y0235650D02*
X0094733Y0235650D01*
X0094733Y0234851D02*
X0095233Y0234851D01*
X0095233Y0234053D02*
X0094733Y0234053D01*
X0094733Y0233254D02*
X0095289Y0233254D01*
X0095620Y0232456D02*
X0094733Y0232456D01*
X0094733Y0231657D02*
X0095951Y0231657D01*
X0096281Y0230859D02*
X0094733Y0230859D01*
X0094733Y0230060D02*
X0096818Y0230060D01*
X0097617Y0229262D02*
X0094733Y0229262D01*
X0094733Y0228463D02*
X0098415Y0228463D01*
X0098745Y0228133D02*
X0098745Y0228133D01*
X0099876Y0227665D02*
X0094733Y0227665D01*
X0106790Y0227665D02*
X0179876Y0227665D01*
X0178745Y0228133D02*
X0178745Y0228133D01*
X0178415Y0228463D02*
X0108252Y0228463D01*
X0107922Y0228133D02*
X0107922Y0228133D01*
X0109050Y0229262D02*
X0177617Y0229262D01*
X0176818Y0230060D02*
X0109849Y0230060D01*
X0110200Y0230412D02*
X0110200Y0230412D01*
X0110385Y0230859D02*
X0176281Y0230859D01*
X0175951Y0231657D02*
X0110716Y0231657D01*
X0111047Y0232456D02*
X0175620Y0232456D01*
X0175289Y0233254D02*
X0111378Y0233254D01*
X0111433Y0234053D02*
X0175233Y0234053D01*
X0175233Y0234851D02*
X0111433Y0234851D01*
X0111433Y0235650D02*
X0175233Y0235650D01*
X0175233Y0236448D02*
X0111433Y0236448D01*
X0111170Y0237247D02*
X0175497Y0237247D01*
X0175827Y0238045D02*
X0110839Y0238045D01*
X0110509Y0238844D02*
X0176158Y0238844D01*
X0176466Y0239588D02*
X0176466Y0239588D01*
X0176520Y0239642D02*
X0110146Y0239642D01*
X0109348Y0240441D02*
X0177319Y0240441D01*
X0178117Y0241239D02*
X0108549Y0241239D01*
X0107509Y0242038D02*
X0179158Y0242038D01*
X0178745Y0241867D02*
X0178745Y0241867D01*
X0181085Y0242836D02*
X0105581Y0242836D01*
X0124438Y0274777D02*
X0192033Y0274777D01*
X0192033Y0275575D02*
X0124438Y0275575D01*
X0124438Y0276374D02*
X0192033Y0276374D01*
X0192033Y0277172D02*
X0185602Y0277172D01*
X0184945Y0276900D02*
X0187922Y0278133D01*
X0190200Y0280412D01*
X0191433Y0283389D01*
X0191433Y0284669D01*
X0191433Y0286611D01*
X0190200Y0289588D01*
X0190200Y0289588D01*
X0187922Y0291867D01*
X0187922Y0291867D01*
X0184945Y0293100D01*
X0181722Y0293100D01*
X0178745Y0291867D01*
X0176466Y0289588D01*
X0175233Y0286611D01*
X0175233Y0283389D01*
X0176466Y0280412D01*
X0176466Y0280412D01*
X0178745Y0278133D01*
X0181722Y0276900D01*
X0184945Y0276900D01*
X0187530Y0277971D02*
X0192033Y0277971D01*
X0192033Y0278769D02*
X0188558Y0278769D01*
X0187922Y0278133D02*
X0187922Y0278133D01*
X0189356Y0279568D02*
X0192033Y0279568D01*
X0192033Y0280366D02*
X0190155Y0280366D01*
X0190200Y0280412D02*
X0190200Y0280412D01*
X0190200Y0280412D01*
X0190512Y0281165D02*
X0192033Y0281165D01*
X0192033Y0281963D02*
X0190843Y0281963D01*
X0191174Y0282762D02*
X0192033Y0282762D01*
X0192033Y0283560D02*
X0191433Y0283560D01*
X0191433Y0284359D02*
X0192033Y0284359D01*
X0192033Y0285157D02*
X0191433Y0285157D01*
X0191433Y0285956D02*
X0192033Y0285956D01*
X0192033Y0286754D02*
X0191374Y0286754D01*
X0191043Y0287553D02*
X0192033Y0287553D01*
X0192033Y0288351D02*
X0190713Y0288351D01*
X0190382Y0289150D02*
X0192033Y0289150D01*
X0192033Y0289948D02*
X0189840Y0289948D01*
X0189042Y0290747D02*
X0192033Y0290747D01*
X0192033Y0291545D02*
X0188243Y0291545D01*
X0186770Y0292344D02*
X0192033Y0292344D01*
X0192033Y0293142D02*
X0124438Y0293142D01*
X0124438Y0292344D02*
X0179897Y0292344D01*
X0178745Y0291867D02*
X0178745Y0291867D01*
X0178424Y0291545D02*
X0124438Y0291545D01*
X0124438Y0290747D02*
X0177625Y0290747D01*
X0176827Y0289948D02*
X0124438Y0289948D01*
X0124438Y0289150D02*
X0176285Y0289150D01*
X0176466Y0289588D02*
X0176466Y0289588D01*
X0175954Y0288351D02*
X0124438Y0288351D01*
X0124438Y0287553D02*
X0175623Y0287553D01*
X0175293Y0286754D02*
X0124438Y0286754D01*
X0124438Y0285956D02*
X0175233Y0285956D01*
X0175233Y0285157D02*
X0124438Y0285157D01*
X0124438Y0284359D02*
X0175233Y0284359D01*
X0175233Y0283560D02*
X0124438Y0283560D01*
X0124438Y0282762D02*
X0175493Y0282762D01*
X0175824Y0281963D02*
X0124438Y0281963D01*
X0124438Y0281165D02*
X0176155Y0281165D01*
X0176512Y0280366D02*
X0124438Y0280366D01*
X0124438Y0279568D02*
X0177310Y0279568D01*
X0178109Y0278769D02*
X0124438Y0278769D01*
X0124438Y0277971D02*
X0179137Y0277971D01*
X0178745Y0278133D02*
X0178745Y0278133D01*
X0181065Y0277172D02*
X0124438Y0277172D01*
X0185671Y0262799D02*
X0192033Y0262799D01*
X0192033Y0262001D02*
X0187599Y0262001D01*
X0188586Y0261202D02*
X0192033Y0261202D01*
X0192033Y0260403D02*
X0189385Y0260403D01*
X0190183Y0259605D02*
X0192033Y0259605D01*
X0192033Y0258806D02*
X0190524Y0258806D01*
X0190855Y0258008D02*
X0192033Y0258008D01*
X0192033Y0257209D02*
X0191186Y0257209D01*
X0191433Y0256411D02*
X0192033Y0256411D01*
X0192033Y0255612D02*
X0191433Y0255612D01*
X0191433Y0254814D02*
X0192033Y0254814D01*
X0192033Y0254015D02*
X0191433Y0254015D01*
X0191362Y0253217D02*
X0192033Y0253217D01*
X0192033Y0252418D02*
X0191031Y0252418D01*
X0190701Y0251620D02*
X0192033Y0251620D01*
X0192033Y0250821D02*
X0190370Y0250821D01*
X0190200Y0250412D02*
X0190200Y0250412D01*
X0189811Y0250023D02*
X0192033Y0250023D01*
X0192033Y0249224D02*
X0189013Y0249224D01*
X0188214Y0248426D02*
X0192033Y0248426D01*
X0192033Y0247627D02*
X0186700Y0247627D01*
X0187922Y0248133D02*
X0187922Y0248133D01*
X0194633Y0248426D02*
X0198452Y0248426D01*
X0198745Y0248133D02*
X0198745Y0248133D01*
X0198745Y0248133D01*
X0197654Y0249224D02*
X0194633Y0249224D01*
X0194633Y0250023D02*
X0196855Y0250023D01*
X0196297Y0250821D02*
X0194633Y0250821D01*
X0194633Y0251620D02*
X0195966Y0251620D01*
X0195635Y0252418D02*
X0194633Y0252418D01*
X0194633Y0253217D02*
X0195305Y0253217D01*
X0195233Y0254015D02*
X0194633Y0254015D01*
X0194633Y0254814D02*
X0195233Y0254814D01*
X0195233Y0255612D02*
X0194633Y0255612D01*
X0194633Y0256411D02*
X0195233Y0256411D01*
X0195481Y0257209D02*
X0194633Y0257209D01*
X0194633Y0258008D02*
X0195812Y0258008D01*
X0196143Y0258806D02*
X0194633Y0258806D01*
X0194633Y0259605D02*
X0196483Y0259605D01*
X0197282Y0260403D02*
X0194633Y0260403D01*
X0194633Y0261202D02*
X0198080Y0261202D01*
X0198745Y0261867D02*
X0198745Y0261867D01*
X0199068Y0262001D02*
X0194633Y0262001D01*
X0194633Y0262799D02*
X0200996Y0262799D01*
X0205581Y0242836D02*
X0271085Y0242836D01*
X0271722Y0243100D02*
X0271722Y0243100D01*
X0269158Y0242038D02*
X0207509Y0242038D01*
X0208549Y0241239D02*
X0268117Y0241239D01*
X0268745Y0241867D02*
X0268745Y0241867D01*
X0267319Y0240441D02*
X0209348Y0240441D01*
X0210146Y0239642D02*
X0266520Y0239642D01*
X0266466Y0239588D02*
X0266466Y0239588D01*
X0266158Y0238844D02*
X0210509Y0238844D01*
X0210839Y0238045D02*
X0265827Y0238045D01*
X0265497Y0237247D02*
X0211170Y0237247D01*
X0211433Y0236448D02*
X0265233Y0236448D01*
X0265233Y0235650D02*
X0211433Y0235650D01*
X0211433Y0234851D02*
X0265233Y0234851D01*
X0265233Y0234053D02*
X0211433Y0234053D01*
X0211378Y0233254D02*
X0265289Y0233254D01*
X0265620Y0232456D02*
X0211047Y0232456D01*
X0210716Y0231657D02*
X0265951Y0231657D01*
X0266281Y0230859D02*
X0210385Y0230859D01*
X0210200Y0230412D02*
X0210200Y0230412D01*
X0209849Y0230060D02*
X0266818Y0230060D01*
X0267617Y0229262D02*
X0209050Y0229262D01*
X0208252Y0228463D02*
X0268415Y0228463D01*
X0268745Y0228133D02*
X0268745Y0228133D01*
X0269876Y0227665D02*
X0206790Y0227665D01*
X0207922Y0228133D02*
X0207922Y0228133D01*
X0184945Y0226900D02*
X0184945Y0226900D01*
X0226455Y0246829D02*
X0230211Y0246829D01*
X0229499Y0247627D02*
X0227167Y0247627D01*
X0227498Y0248426D02*
X0229169Y0248426D01*
X0228883Y0249224D02*
X0227783Y0249224D01*
X0227783Y0250023D02*
X0228883Y0250023D01*
X0228883Y0250821D02*
X0227783Y0250821D01*
X0227479Y0251620D02*
X0229188Y0251620D01*
X0229518Y0252418D02*
X0227148Y0252418D01*
X0226410Y0253217D02*
X0230257Y0253217D01*
X0231399Y0254015D02*
X0225268Y0254015D01*
X0235268Y0254015D02*
X0282033Y0254015D01*
X0282033Y0253217D02*
X0236410Y0253217D01*
X0237148Y0252418D02*
X0282033Y0252418D01*
X0282033Y0251620D02*
X0237479Y0251620D01*
X0237783Y0250821D02*
X0282033Y0250821D01*
X0282033Y0250023D02*
X0237783Y0250023D01*
X0237783Y0249224D02*
X0282033Y0249224D01*
X0282033Y0248426D02*
X0237498Y0248426D01*
X0237167Y0247627D02*
X0282033Y0247627D01*
X0282033Y0246829D02*
X0236455Y0246829D01*
X0284633Y0243635D02*
X0331933Y0243635D01*
X0331933Y0242836D02*
X0325581Y0242836D01*
X0324945Y0243100D02*
X0321722Y0243100D01*
X0318745Y0241867D01*
X0316466Y0239588D01*
X0315233Y0236611D01*
X0315233Y0234669D01*
X0315233Y0233389D01*
X0315233Y0233389D01*
X0316466Y0230412D01*
X0316466Y0230412D01*
X0318745Y0228133D01*
X0321722Y0226900D01*
X0324945Y0226900D01*
X0327922Y0228133D01*
X0330200Y0230412D01*
X0331433Y0233389D01*
X0331433Y0236611D01*
X0330200Y0239588D01*
X0330200Y0239588D01*
X0327922Y0241867D01*
X0327922Y0241867D01*
X0324945Y0243100D01*
X0327509Y0242038D02*
X0331933Y0242038D01*
X0331933Y0241239D02*
X0328549Y0241239D01*
X0329348Y0240441D02*
X0331933Y0240441D01*
X0331933Y0239642D02*
X0330146Y0239642D01*
X0330509Y0238844D02*
X0331933Y0238844D01*
X0331933Y0238045D02*
X0330839Y0238045D01*
X0331170Y0237247D02*
X0331933Y0237247D01*
X0331933Y0236448D02*
X0331433Y0236448D01*
X0331433Y0235650D02*
X0331933Y0235650D01*
X0331933Y0234851D02*
X0331433Y0234851D01*
X0331433Y0234053D02*
X0331933Y0234053D01*
X0331933Y0233254D02*
X0331378Y0233254D01*
X0331047Y0232456D02*
X0331933Y0232456D01*
X0331933Y0231657D02*
X0330716Y0231657D01*
X0330385Y0230859D02*
X0331933Y0230859D01*
X0331933Y0230060D02*
X0329849Y0230060D01*
X0330200Y0230412D02*
X0330200Y0230412D01*
X0329050Y0229262D02*
X0331933Y0229262D01*
X0331933Y0228463D02*
X0328252Y0228463D01*
X0327922Y0228133D02*
X0327922Y0228133D01*
X0326790Y0227665D02*
X0331933Y0227665D01*
X0319876Y0227665D02*
X0296790Y0227665D01*
X0297922Y0228133D02*
X0297922Y0228133D01*
X0298252Y0228463D02*
X0318415Y0228463D01*
X0318745Y0228133D02*
X0318745Y0228133D01*
X0317617Y0229262D02*
X0299050Y0229262D01*
X0299849Y0230060D02*
X0316818Y0230060D01*
X0316281Y0230859D02*
X0300385Y0230859D01*
X0300200Y0230412D02*
X0300200Y0230412D01*
X0300716Y0231657D02*
X0315951Y0231657D01*
X0315620Y0232456D02*
X0301047Y0232456D01*
X0301378Y0233254D02*
X0315289Y0233254D01*
X0315233Y0234053D02*
X0301433Y0234053D01*
X0301433Y0234851D02*
X0315233Y0234851D01*
X0315233Y0235650D02*
X0301433Y0235650D01*
X0301433Y0236448D02*
X0315233Y0236448D01*
X0315497Y0237247D02*
X0301170Y0237247D01*
X0300839Y0238045D02*
X0315827Y0238045D01*
X0316158Y0238844D02*
X0300509Y0238844D01*
X0300146Y0239642D02*
X0316520Y0239642D01*
X0316466Y0239588D02*
X0316466Y0239588D01*
X0317319Y0240441D02*
X0299348Y0240441D01*
X0298549Y0241239D02*
X0318117Y0241239D01*
X0318745Y0241867D02*
X0318745Y0241867D01*
X0319158Y0242038D02*
X0297509Y0242038D01*
X0295581Y0242836D02*
X0321085Y0242836D01*
X0331933Y0254814D02*
X0284633Y0254814D01*
X0284633Y0255612D02*
X0287297Y0255612D01*
X0286399Y0254015D02*
X0284633Y0254015D01*
X0284633Y0253217D02*
X0285257Y0253217D01*
X0285629Y0256411D02*
X0284633Y0256411D01*
X0284633Y0257209D02*
X0284831Y0257209D01*
X0284673Y0273978D02*
X0284633Y0273978D01*
X0284633Y0274777D02*
X0285223Y0274777D01*
X0284633Y0275575D02*
X0285855Y0275575D01*
X0284633Y0277971D02*
X0289137Y0277971D01*
X0288745Y0278133D02*
X0288745Y0278133D01*
X0288109Y0278769D02*
X0284633Y0278769D01*
X0284633Y0279568D02*
X0287310Y0279568D01*
X0286512Y0280366D02*
X0284633Y0280366D01*
X0284633Y0281165D02*
X0286155Y0281165D01*
X0285824Y0281963D02*
X0284633Y0281963D01*
X0284633Y0282762D02*
X0285493Y0282762D01*
X0285233Y0283560D02*
X0284633Y0283560D01*
X0284633Y0284359D02*
X0285233Y0284359D01*
X0285233Y0285157D02*
X0284633Y0285157D01*
X0284633Y0285956D02*
X0285233Y0285956D01*
X0285293Y0286754D02*
X0284633Y0286754D01*
X0284633Y0287553D02*
X0285623Y0287553D01*
X0285954Y0288351D02*
X0284633Y0288351D01*
X0284633Y0289150D02*
X0286285Y0289150D01*
X0286466Y0289588D02*
X0286466Y0289588D01*
X0286827Y0289948D02*
X0284633Y0289948D01*
X0284633Y0290747D02*
X0287625Y0290747D01*
X0288424Y0291545D02*
X0284633Y0291545D01*
X0284633Y0292344D02*
X0289897Y0292344D01*
X0288745Y0291867D02*
X0288745Y0291867D01*
X0201722Y0293100D02*
X0201722Y0293100D01*
X0194633Y0159791D02*
X0282033Y0159791D01*
X0282033Y0158993D02*
X0194633Y0158993D01*
X0194633Y0158194D02*
X0282033Y0158194D01*
X0282033Y0157396D02*
X0194633Y0157396D01*
X0194633Y0156597D02*
X0282033Y0156597D01*
D13*
X0286833Y0160000D03*
X0286833Y0165000D03*
X0286833Y0170000D03*
X0286833Y0175000D03*
X0286833Y0180000D03*
X0286833Y0184500D03*
X0288333Y0191000D03*
X0293333Y0191000D03*
X0298333Y0191000D03*
X0303333Y0191000D03*
X0308333Y0191000D03*
X0313333Y0191000D03*
X0313333Y0186000D03*
X0308333Y0186000D03*
X0303333Y0186000D03*
X0298333Y0186000D03*
X0293333Y0186000D03*
X0309333Y0180000D03*
X0309333Y0175000D03*
X0309333Y0170000D03*
X0309333Y0166000D03*
X0309333Y0157500D03*
X0316562Y0157500D03*
X0321562Y0157500D03*
X0326562Y0158500D03*
X0330562Y0158500D03*
X0330562Y0163500D03*
X0326062Y0163500D03*
X0330562Y0170000D03*
X0330562Y0174500D03*
X0326062Y0176500D03*
X0326062Y0180000D03*
X0330562Y0180000D03*
X0320562Y0180500D03*
X0315062Y0180000D03*
X0315062Y0176500D03*
X0273333Y0180000D03*
X0268333Y0175000D03*
X0273333Y0170000D03*
X0268333Y0165000D03*
X0273333Y0160000D03*
X0268333Y0185000D03*
X0273333Y0190000D03*
X0268333Y0195000D03*
X0273333Y0200000D03*
X0268333Y0205000D03*
X0263333Y0210000D03*
X0258333Y0215000D03*
X0253333Y0210000D03*
X0248333Y0215000D03*
X0243333Y0210000D03*
X0233333Y0210000D03*
X0228333Y0215000D03*
X0223333Y0210000D03*
X0218333Y0215000D03*
X0213333Y0210000D03*
X0208333Y0210000D03*
X0203333Y0215000D03*
X0198333Y0210000D03*
X0203333Y0203000D03*
X0196333Y0198500D03*
X0196333Y0188000D03*
X0203333Y0184000D03*
X0198333Y0180000D03*
X0208333Y0180000D03*
X0211333Y0188500D03*
X0211333Y0198000D03*
X0178333Y0220000D03*
X0127333Y0257000D03*
X0121833Y0257000D03*
X0116333Y0257000D03*
X0111333Y0257000D03*
X0106833Y0257000D03*
X0096833Y0257000D03*
X0111333Y0264000D03*
X0116333Y0264000D03*
X0121833Y0264000D03*
X0127333Y0264000D03*
X0127333Y0270500D03*
X0121833Y0270500D03*
X0116333Y0270500D03*
X0111333Y0270500D03*
X0106833Y0270500D03*
X0096833Y0271000D03*
X0127333Y0276500D03*
X0127333Y0281000D03*
X0132333Y0281000D03*
X0132333Y0276500D03*
X0132333Y0285000D03*
X0127333Y0285000D03*
X0127333Y0290000D03*
X0132333Y0290000D03*
X0218333Y0286000D03*
X0220833Y0288500D03*
X0223833Y0288500D03*
X0222333Y0292000D03*
X0228333Y0292000D03*
X0233333Y0292000D03*
X0238333Y0292000D03*
X0242833Y0292000D03*
X0242833Y0284000D03*
X0242833Y0280000D03*
X0238333Y0280000D03*
X0238333Y0284000D03*
X0238333Y0275000D03*
X0238333Y0270000D03*
X0233333Y0270000D03*
X0232833Y0274000D03*
X0228333Y0270000D03*
X0223833Y0274000D03*
X0220833Y0274000D03*
X0218333Y0276000D03*
X0218333Y0281000D03*
X0223333Y0270000D03*
X0243333Y0270000D03*
X0243333Y0275000D03*
X0248333Y0275000D03*
X0248333Y0270000D03*
X0253333Y0270000D03*
X0253333Y0275000D03*
X0258333Y0275000D03*
X0258333Y0270000D03*
X0264333Y0270000D03*
X0264333Y0275000D03*
X0269333Y0275000D03*
X0269333Y0270000D03*
X0269333Y0280000D03*
X0264333Y0280000D03*
X0264333Y0285000D03*
X0264333Y0290000D03*
X0269333Y0290000D03*
X0269333Y0285000D03*
X0298333Y0265000D03*
X0303333Y0265000D03*
X0310333Y0265000D03*
X0310333Y0259500D03*
X0310333Y0249500D03*
X0315833Y0249500D03*
X0321333Y0249500D03*
X0326333Y0249500D03*
X0328833Y0253500D03*
X0328833Y0257000D03*
X0295833Y0259500D03*
X0295833Y0250500D03*
X0268333Y0215000D03*
X0273333Y0210000D03*
X0208333Y0170000D03*
X0198333Y0170000D03*
X0198333Y0160000D03*
X0208333Y0160000D03*
X0160333Y0160000D03*
X0155333Y0158500D03*
X0160333Y0165500D03*
X0160333Y0170000D03*
X0154833Y0172500D03*
X0154333Y0175500D03*
X0146333Y0175500D03*
X0145333Y0172500D03*
X0140333Y0170000D03*
X0140333Y0165500D03*
X0140333Y0160000D03*
X0145333Y0158500D03*
X0138333Y0175000D03*
X0108333Y0220000D03*
X0304333Y0292000D03*
X0309833Y0292000D03*
X0315833Y0292000D03*
X0323333Y0292000D03*
X0329333Y0292000D03*
D14*
X0288333Y0260000D03*
X0288333Y0250000D03*
X0233333Y0250000D03*
X0223333Y0250000D03*
X0208333Y0220000D03*
X0198333Y0220000D03*
X0138333Y0260000D03*
X0138333Y0270000D03*
X0123333Y0170000D03*
X0123333Y0160000D03*
X0313333Y0200000D03*
X0328333Y0200000D03*
M02*
