G75*
%MOIN*%
%OFA0B0*%
%FSLAX25Y25*%
%IPPOS*%
%LPD*%
%AMOC8*
5,1,8,0,0,1.08239X$1,22.5*
%
%ADD10C,0.13800*%
%ADD11C,0.00300*%
%ADD12C,0.07300*%
D10*
X0103333Y0165000D03*
X0183333Y0165000D03*
X0183333Y0235000D03*
X0203333Y0235000D03*
X0203333Y0255000D03*
X0183333Y0255000D03*
X0183333Y0285000D03*
X0203333Y0285000D03*
X0273333Y0235000D03*
X0293333Y0235000D03*
X0323333Y0235000D03*
X0293333Y0285000D03*
X0103333Y0235000D03*
D11*
X0284959Y0270429D02*
X0284920Y0271098D01*
X0285038Y0271728D01*
X0285235Y0272319D01*
X0285510Y0272752D01*
X0285825Y0273106D01*
X0286140Y0273303D01*
X0286140Y0272949D01*
X0286180Y0272831D01*
X0286219Y0272752D01*
X0286337Y0272634D01*
X0286455Y0272594D01*
X0286573Y0272594D01*
X0286888Y0272673D01*
X0287046Y0272752D01*
X0287164Y0272831D01*
X0287322Y0272949D01*
X0287558Y0273185D01*
X0287715Y0273421D01*
X0287755Y0273579D01*
X0287755Y0273815D01*
X0287715Y0273933D01*
X0287676Y0274012D01*
X0287597Y0274130D01*
X0287440Y0274248D01*
X0287282Y0274327D01*
X0287085Y0274366D01*
X0286928Y0274406D01*
X0286692Y0274406D01*
X0286613Y0274366D01*
X0286573Y0274366D01*
X0286613Y0274406D01*
X0286770Y0274524D01*
X0287322Y0274799D01*
X0287676Y0274878D01*
X0288070Y0274878D01*
X0288503Y0274799D01*
X0288936Y0274563D01*
X0289290Y0274287D01*
X0289487Y0273972D01*
X0289605Y0273618D01*
X0289605Y0273303D01*
X0289526Y0272949D01*
X0289329Y0272594D01*
X0289054Y0272280D01*
X0288739Y0271925D01*
X0288463Y0271650D01*
X0288345Y0271335D01*
X0288345Y0271059D01*
X0288424Y0270823D01*
X0288581Y0270626D01*
X0288818Y0270469D01*
X0289133Y0270390D01*
X0289448Y0270390D01*
X0289644Y0270429D01*
X0289841Y0270508D01*
X0290077Y0270744D01*
X0290156Y0270862D01*
X0290196Y0270980D01*
X0290196Y0271138D01*
X0290156Y0271256D01*
X0289920Y0271492D01*
X0289802Y0271531D01*
X0289644Y0271610D01*
X0289605Y0271650D01*
X0289762Y0271728D01*
X0290235Y0271728D01*
X0290471Y0271689D01*
X0290668Y0271650D01*
X0290865Y0271571D01*
X0291022Y0271453D01*
X0291219Y0271295D01*
X0291455Y0270902D01*
X0291534Y0270626D01*
X0291573Y0270311D01*
X0291573Y0264917D01*
X0291377Y0265114D01*
X0291259Y0265311D01*
X0291062Y0265508D01*
X0290865Y0265744D01*
X0290392Y0266217D01*
X0289920Y0266768D01*
X0289526Y0267161D01*
X0289133Y0267398D01*
X0288896Y0267437D01*
X0288148Y0267437D01*
X0287676Y0267516D01*
X0287243Y0267634D01*
X0286849Y0267791D01*
X0286455Y0268028D01*
X0286140Y0268303D01*
X0285825Y0268618D01*
X0285550Y0268972D01*
X0285156Y0269681D01*
X0284959Y0270429D01*
X0284954Y0270524D02*
X0288735Y0270524D01*
X0288424Y0270822D02*
X0284936Y0270822D01*
X0284924Y0271121D02*
X0288345Y0271121D01*
X0288377Y0271419D02*
X0284980Y0271419D01*
X0285036Y0271718D02*
X0288532Y0271718D01*
X0288820Y0272016D02*
X0285134Y0272016D01*
X0285234Y0272315D02*
X0289085Y0272315D01*
X0289340Y0272613D02*
X0286649Y0272613D01*
X0286398Y0272613D02*
X0285422Y0272613D01*
X0285653Y0272912D02*
X0286153Y0272912D01*
X0286140Y0273210D02*
X0285992Y0273210D01*
X0287272Y0272912D02*
X0289506Y0272912D01*
X0289584Y0273210D02*
X0287575Y0273210D01*
X0287737Y0273509D02*
X0289605Y0273509D01*
X0289542Y0273808D02*
X0287755Y0273808D01*
X0287613Y0274106D02*
X0289403Y0274106D01*
X0289139Y0274405D02*
X0286932Y0274405D01*
X0286690Y0274405D02*
X0286612Y0274405D01*
X0287129Y0274703D02*
X0288679Y0274703D01*
X0289742Y0271718D02*
X0290297Y0271718D01*
X0289993Y0271419D02*
X0291064Y0271419D01*
X0291324Y0271121D02*
X0290196Y0271121D01*
X0290130Y0270822D02*
X0291478Y0270822D01*
X0291547Y0270524D02*
X0289857Y0270524D01*
X0291573Y0270225D02*
X0285013Y0270225D01*
X0285091Y0269927D02*
X0291573Y0269927D01*
X0291573Y0269628D02*
X0285185Y0269628D01*
X0285351Y0269330D02*
X0291573Y0269330D01*
X0291573Y0269031D02*
X0285517Y0269031D01*
X0285736Y0268733D02*
X0291573Y0268733D01*
X0291573Y0268434D02*
X0286009Y0268434D01*
X0286332Y0268136D02*
X0291573Y0268136D01*
X0291573Y0267837D02*
X0286773Y0267837D01*
X0287591Y0267539D02*
X0291573Y0267539D01*
X0291573Y0267240D02*
X0289395Y0267240D01*
X0289746Y0266942D02*
X0291573Y0266942D01*
X0291573Y0266643D02*
X0290027Y0266643D01*
X0290283Y0266345D02*
X0291573Y0266345D01*
X0291573Y0266046D02*
X0290563Y0266046D01*
X0290861Y0265748D02*
X0291573Y0265748D01*
X0291573Y0265449D02*
X0291120Y0265449D01*
X0291355Y0265151D02*
X0291573Y0265151D01*
D12*
X0123333Y0160000D03*
X0123333Y0170000D03*
X0198333Y0220000D03*
X0208333Y0220000D03*
X0223333Y0250000D03*
X0233333Y0250000D03*
X0288333Y0250000D03*
X0288333Y0260000D03*
X0313333Y0200000D03*
X0328333Y0200000D03*
X0138333Y0260000D03*
X0138333Y0270000D03*
M02*
