%
M48
M72
T01C0.0120
T02C0.0400
T03C0.1300
%
T01
X14533Y15850
X14033Y16000
X14033Y16550
X14033Y17000
X14533Y17250
X14633Y17550
X15433Y17550
X15483Y17250
X16033Y17000
X16033Y16550
X16033Y16000
X15533Y15850
X13833Y17500
X19633Y18800
X20333Y18400
X19833Y18000
X20833Y18000
X21133Y18850
X21133Y19800
X20333Y20300
X19633Y19850
X19833Y21000
X20333Y21500
X20833Y21000
X21333Y21000
X21833Y21500
X22333Y21000
X22833Y21500
X23333Y21000
X24333Y21000
X24833Y21500
X25333Y21000
X25833Y21500
X26333Y21000
X26833Y20500
X27333Y20000
X26833Y19500
X27333Y19000
X26833Y18500
X27333Y18000
X26833Y17500
X27333Y17000
X26833Y16500
X27333Y16000
X28683Y16000
X28683Y16500
X28683Y17000
X28683Y17500
X28683Y18000
X28683Y18450
X28833Y19100
X29333Y19100
X29833Y19100
X30333Y19100
X30833Y19100
X31333Y19100
X31333Y18600
X30833Y18600
X30333Y18600
X29833Y18600
X29333Y18600
X30933Y18000
X30933Y17500
X30933Y17000
X30933Y16600
X30933Y15750
X31656Y15750
X32156Y15750
X32656Y15850
X33056Y15850
X33056Y16350
X32606Y16350
X33056Y17000
X33056Y17450
X32606Y17650
X32606Y18000
X33056Y18000
X32056Y18050
X31506Y18000
X31506Y17650
X27333Y21000
X26833Y21500
X29583Y25050
X29583Y25950
X29833Y26500
X30333Y26500
X31033Y26500
X31033Y25950
X31033Y24950
X31583Y24950
X32133Y24950
X32633Y24950
X32883Y25350
X32883Y25700
X32933Y29200
X32333Y29200
X31583Y29200
X30983Y29200
X30433Y29200
X26933Y29000
X26433Y29000
X26433Y28500
X26933Y28500
X26933Y28000
X26433Y28000
X26433Y27500
X26433Y27000
X26933Y27000
X26933Y27500
X25833Y27500
X25833Y27000
X25333Y27000
X24833Y27000
X24333Y27000
X23833Y27000
X23333Y27000
X23283Y27400
X23833Y27500
X24333Y27500
X24833Y27500
X25333Y27500
X24283Y28000
X24283Y28400
X23833Y28400
X23833Y28000
X22833Y27000
X22383Y27400
X22083Y27400
X21833Y27600
X21833Y28100
X21833Y28600
X22083Y28850
X22383Y28850
X22233Y29200
X22833Y29200
X23333Y29200
X23833Y29200
X24283Y29200
X22333Y27000
X17833Y22000
X12733Y25700
X12183Y25700
X11633Y25700
X11133Y25700
X10683Y25700
X9683Y25700
X11133Y26400
X11633Y26400
X12183Y26400
X12733Y26400
X12733Y27050
X12183Y27050
X11633Y27050
X11133Y27050
X10683Y27050
X9683Y27100
X12733Y27650
X12733Y28100
X13233Y28100
X13233Y27650
X13233Y28500
X12733Y28500
X12733Y29000
X13233Y29000
X10833Y22000
X19833Y17000
X20833Y17000
X20833Y16000
X19833Y16000
T02
X12333Y16000
X12333Y17000
X19833Y22000
X20833Y22000
X22333Y25000
X23333Y25000
X28833Y25000
X28833Y26000
X31333Y20000
X32833Y20000
X13833Y26000
X13833Y27000
T03
X18333Y25500
X20333Y25500
X20333Y23500
X18333Y23500
X18333Y28500
X20333Y28500
X27333Y23500
X29333Y23500
X32333Y23500
X29333Y28500
X18333Y16500
X10333Y16500
X10333Y23500
M30
