G75*
%MOIN*%
%OFA0B0*%
%FSLAX25Y25*%
%IPPOS*%
%LPD*%
%AMOC8*
5,1,8,0,0,1.08239X$1,22.5*
%
%ADD10C,0.00500*%
%ADD11C,0.00800*%
%ADD12C,0.00600*%
%ADD13R,0.01600X0.02800*%
%ADD14R,0.00984X0.00197*%
%ADD15R,0.00787X0.00197*%
%ADD16R,0.01181X0.00197*%
%ADD17R,0.00394X0.00197*%
%ADD18R,0.01378X0.00197*%
%ADD19R,0.02165X0.00197*%
%ADD20R,0.03150X0.00197*%
%ADD21R,0.02756X0.00197*%
%ADD22R,0.03543X0.00197*%
%ADD23R,0.03740X0.00197*%
%ADD24R,0.03346X0.00197*%
%ADD25R,0.03937X0.00197*%
%ADD26R,0.04134X0.00197*%
%ADD27R,0.00591X0.00197*%
%ADD28R,0.02953X0.00197*%
%ADD29R,0.02362X0.00197*%
%ADD30R,0.01772X0.00197*%
%ADD31R,0.01969X0.00197*%
%ADD32R,0.02362X0.00236*%
%ADD33R,0.03937X0.00236*%
%ADD34R,0.01378X0.00236*%
%ADD35R,0.01575X0.00236*%
%ADD36R,0.02165X0.00236*%
%ADD37R,0.01181X0.00236*%
%ADD38R,0.01575X0.00197*%
%ADD39R,0.00787X0.00236*%
%ADD40R,0.03740X0.00236*%
%ADD41R,0.04134X0.00236*%
%ADD42R,0.02756X0.00236*%
%ADD43R,0.02953X0.00236*%
%ADD44R,0.03543X0.00236*%
%ADD45R,0.23819X0.00197*%
%ADD46R,0.25000X0.00197*%
%ADD47R,0.25787X0.00197*%
%ADD48R,0.26181X0.00197*%
%ADD49R,0.26575X0.00197*%
%ADD50R,0.26969X0.00197*%
%ADD51R,0.27362X0.00197*%
%ADD52R,0.05118X0.00197*%
%ADD53R,0.02559X0.00197*%
%ADD54R,0.10630X0.00197*%
%ADD55R,0.04331X0.00197*%
%ADD56R,0.04528X0.00197*%
%ADD57R,0.00197X0.00197*%
%ADD58R,0.04724X0.00197*%
%ADD59R,0.04921X0.00236*%
%ADD60R,0.00394X0.00236*%
%ADD61R,0.00591X0.00236*%
%ADD62R,0.04331X0.00236*%
%ADD63R,0.04921X0.00197*%
%ADD64R,0.01772X0.00236*%
%ADD65R,0.01969X0.00236*%
%ADD66R,0.26181X0.00236*%
%ADD67R,0.25000X0.00157*%
%ADD68R,0.00197X0.00984*%
%ADD69R,0.00197X0.00787*%
%ADD70R,0.00197X0.01378*%
%ADD71R,0.00197X0.02165*%
%ADD72R,0.00197X0.01181*%
%ADD73R,0.00197X0.03150*%
%ADD74R,0.00197X0.02559*%
%ADD75R,0.00197X0.03543*%
%ADD76R,0.00197X0.02953*%
%ADD77R,0.00197X0.03740*%
%ADD78R,0.00197X0.03937*%
%ADD79R,0.00197X0.03346*%
%ADD80R,0.00197X0.00394*%
%ADD81R,0.00197X0.04134*%
%ADD82R,0.00197X0.01575*%
%ADD83R,0.00197X0.01772*%
%ADD84R,0.00197X0.01969*%
%ADD85R,0.00236X0.01378*%
%ADD86R,0.00236X0.01575*%
%ADD87R,0.00236X0.02165*%
%ADD88R,0.00236X0.01181*%
%ADD89R,0.00236X0.03740*%
%ADD90R,0.00236X0.04134*%
%ADD91R,0.00236X0.02559*%
%ADD92R,0.00236X0.02953*%
%ADD93R,0.00236X0.03543*%
%ADD94R,0.00197X0.00591*%
%ADD95R,0.03346X0.00236*%
%ADD96R,0.39961X0.00197*%
%ADD97R,0.40748X0.00197*%
%ADD98R,0.41535X0.00197*%
%ADD99R,0.42323X0.00197*%
%ADD100R,0.42717X0.00197*%
%ADD101R,0.43110X0.00197*%
%ADD102R,0.13976X0.00197*%
%ADD103R,0.16142X0.00197*%
%ADD104R,0.07677X0.00197*%
%ADD105R,0.13386X0.00197*%
%ADD106R,0.12402X0.00197*%
%ADD107R,0.07874X0.00197*%
%ADD108R,0.12008X0.00197*%
%ADD109R,0.11614X0.00197*%
%ADD110R,0.08071X0.00197*%
%ADD111R,0.11417X0.00197*%
%ADD112R,0.11220X0.00197*%
%ADD113R,0.11024X0.00197*%
%ADD114R,0.12598X0.00197*%
%ADD115R,0.05315X0.00197*%
%ADD116R,0.00984X0.00236*%
%ADD117R,0.03150X0.00236*%
%ADD118R,0.04528X0.00236*%
%ADD119R,0.05709X0.00197*%
%ADD120R,0.36811X0.00197*%
%ADD121R,0.05512X0.00197*%
%ADD122R,0.36614X0.00197*%
%ADD123R,0.36417X0.00197*%
%ADD124R,0.36220X0.00236*%
%ADD125R,0.35827X0.00197*%
%ADD126R,0.35433X0.00157*%
%ADD127R,0.04134X0.00157*%
%ADD128R,0.35039X0.00197*%
%ADD129R,0.43504X0.00197*%
%ADD130R,0.44094X0.00197*%
%ADD131R,0.44685X0.00197*%
%ADD132R,0.45079X0.00197*%
%ADD133R,0.45472X0.00197*%
%ADD134R,0.20472X0.00197*%
%ADD135R,0.10039X0.00197*%
%ADD136R,0.06299X0.00197*%
%ADD137R,0.11811X0.00197*%
%ADD138R,0.10236X0.00197*%
%ADD139R,0.10433X0.00197*%
%ADD140R,0.06299X0.00236*%
%ADD141R,0.00197X0.00236*%
%ADD142R,0.45866X0.00197*%
%ADD143R,0.44685X0.00236*%
%ADD144R,0.43898X0.00197*%
%ADD145R,0.43504X0.00157*%
%ADD146R,0.00197X0.29724*%
%ADD147R,0.00197X0.30906*%
%ADD148R,0.00197X0.31693*%
%ADD149R,0.00197X0.32480*%
%ADD150R,0.00197X0.32874*%
%ADD151R,0.00197X0.33268*%
%ADD152R,0.00197X0.27362*%
%ADD153R,0.00197X0.05512*%
%ADD154R,0.00197X0.27559*%
%ADD155R,0.00197X0.02362*%
%ADD156R,0.00197X0.09449*%
%ADD157R,0.00197X0.05709*%
%ADD158R,0.00197X0.09252*%
%ADD159R,0.00197X0.08858*%
%ADD160R,0.00197X0.05906*%
%ADD161R,0.00197X0.08661*%
%ADD162R,0.00197X0.06102*%
%ADD163R,0.00197X0.08465*%
%ADD164R,0.00197X0.05118*%
%ADD165R,0.00197X0.06299*%
%ADD166R,0.00197X0.04724*%
%ADD167R,0.00197X0.04921*%
%ADD168R,0.00197X0.04528*%
%ADD169R,0.00197X0.04331*%
%ADD170R,0.00236X0.05906*%
%ADD171R,0.00236X0.02362*%
%ADD172R,0.00236X0.03150*%
%ADD173R,0.00236X0.00787*%
%ADD174R,0.00236X0.00394*%
%ADD175R,0.00236X0.00984*%
%ADD176R,0.00236X0.04724*%
%ADD177R,0.00236X0.05709*%
%ADD178R,0.00236X0.04921*%
%ADD179R,0.00236X0.03346*%
%ADD180R,0.00236X0.00591*%
%ADD181R,0.00236X0.04331*%
%ADD182R,0.00197X0.05315*%
%ADD183R,0.00236X0.05315*%
%ADD184R,0.00236X0.00197*%
%ADD185R,0.00197X0.02756*%
%ADD186R,0.00197X0.33661*%
%ADD187R,0.00236X0.32480*%
%ADD188R,0.00157X0.30906*%
%ADD189R,0.28543X0.00197*%
%ADD190R,0.29331X0.00197*%
%ADD191R,0.30118X0.00197*%
%ADD192R,0.30512X0.00197*%
%ADD193R,0.30906X0.00197*%
%ADD194R,0.07480X0.00197*%
%ADD195R,0.07087X0.00197*%
%ADD196R,0.31299X0.00197*%
%ADD197R,0.30118X0.00236*%
%ADD198R,0.28543X0.00157*%
%ADD199R,0.22638X0.00197*%
%ADD200R,0.24606X0.00197*%
%ADD201R,0.25394X0.00197*%
%ADD202R,0.13780X0.00197*%
%ADD203R,0.12205X0.00197*%
%ADD204R,0.04724X0.00236*%
%ADD205R,0.25394X0.00236*%
%ADD206R,0.23819X0.00157*%
%ADD207R,0.00787X0.00157*%
%ADD208R,0.00945X0.00157*%
%ADD209R,0.01732X0.00157*%
%ADD210R,0.01102X0.00157*%
%ADD211R,0.02362X0.00157*%
%ADD212R,0.02520X0.00157*%
%ADD213R,0.02047X0.00157*%
%ADD214R,0.02835X0.00157*%
%ADD215R,0.02992X0.00157*%
%ADD216R,0.02677X0.00157*%
%ADD217R,0.03150X0.00157*%
%ADD218R,0.00472X0.00157*%
%ADD219R,0.01260X0.00157*%
%ADD220R,0.01417X0.00157*%
%ADD221R,0.01890X0.00157*%
%ADD222R,0.02205X0.00157*%
%ADD223R,0.01575X0.00157*%
%ADD224R,0.00157X0.00157*%
%ADD225R,0.00630X0.00157*%
%ADD226R,0.03307X0.00157*%
%ADD227R,0.25039X0.00157*%
%ADD228R,0.25984X0.00157*%
%ADD229R,0.26614X0.00157*%
%ADD230R,0.27244X0.00157*%
%ADD231R,0.27559X0.00157*%
%ADD232R,0.27874X0.00157*%
%ADD233R,0.28189X0.00157*%
%ADD234R,0.04094X0.00157*%
%ADD235R,0.05827X0.00157*%
%ADD236R,0.08189X0.00157*%
%ADD237R,0.04409X0.00157*%
%ADD238R,0.00315X0.00157*%
%ADD239R,0.04252X0.00157*%
%ADD240R,0.03465X0.00157*%
%ADD241R,0.03622X0.00157*%
%ADD242R,0.03780X0.00157*%
%ADD243R,0.03937X0.00157*%
D10*
X0142459Y0160382D02*
X0147577Y0160382D01*
X0142459Y0160382D02*
X0142459Y0170618D01*
X0142459Y0171406D01*
X0147577Y0171406D01*
X0147577Y0170618D01*
X0142459Y0170618D01*
X0142459Y0171012D02*
X0147577Y0171012D01*
X0153089Y0171012D02*
X0158207Y0171012D01*
X0158207Y0171406D02*
X0158207Y0170618D01*
X0153089Y0170618D01*
X0153089Y0171406D01*
X0158207Y0171406D01*
X0158207Y0170618D02*
X0158207Y0160382D01*
X0153089Y0160382D01*
X0198215Y0185626D02*
X0198215Y0190744D01*
X0198215Y0185626D02*
X0208451Y0185626D01*
X0209239Y0185626D01*
X0209239Y0190744D01*
X0208451Y0190744D01*
X0208451Y0185626D01*
X0208845Y0185626D02*
X0208845Y0190744D01*
X0208845Y0196256D02*
X0208845Y0201374D01*
X0209239Y0201374D02*
X0208451Y0201374D01*
X0198215Y0201374D01*
X0198215Y0196256D01*
X0208451Y0196256D02*
X0209239Y0196256D01*
X0209239Y0201374D01*
X0208451Y0201374D02*
X0208451Y0196256D01*
X0298215Y0247126D02*
X0298215Y0252244D01*
X0298215Y0247126D02*
X0308451Y0247126D01*
X0309239Y0247126D01*
X0309239Y0252244D01*
X0308451Y0252244D01*
X0308451Y0247126D01*
X0308845Y0247126D02*
X0308845Y0252244D01*
X0308845Y0257756D02*
X0308845Y0262874D01*
X0309239Y0262874D02*
X0308451Y0262874D01*
X0298215Y0262874D01*
X0298215Y0257756D01*
X0308451Y0257756D02*
X0309239Y0257756D01*
X0309239Y0262874D01*
X0308451Y0262874D02*
X0308451Y0257756D01*
X0236207Y0275882D02*
X0231089Y0275882D01*
X0236207Y0275882D02*
X0236207Y0286118D01*
X0236207Y0286906D01*
X0231089Y0286906D01*
X0231089Y0286118D01*
X0236207Y0286118D01*
X0236207Y0286512D02*
X0231089Y0286512D01*
X0225577Y0286512D02*
X0220459Y0286512D01*
X0220459Y0286906D02*
X0220459Y0286118D01*
X0220459Y0275882D01*
X0225577Y0275882D01*
X0225577Y0286118D02*
X0220459Y0286118D01*
X0220459Y0286906D02*
X0225577Y0286906D01*
X0225577Y0286118D01*
X0109707Y0269906D02*
X0109707Y0269118D01*
X0104589Y0269118D01*
X0104589Y0269906D01*
X0109707Y0269906D01*
X0109707Y0269512D02*
X0104589Y0269512D01*
X0109707Y0269118D02*
X0109707Y0258882D01*
X0104589Y0258882D01*
X0099077Y0258882D02*
X0093959Y0258882D01*
X0093959Y0269118D01*
X0093959Y0269906D01*
X0099077Y0269906D01*
X0099077Y0269118D01*
X0093959Y0269118D01*
X0093959Y0269512D02*
X0099077Y0269512D01*
X0312688Y0175118D02*
X0312688Y0164882D01*
X0312688Y0164094D01*
X0317806Y0164094D01*
X0317806Y0164882D01*
X0312688Y0164882D01*
X0312688Y0164488D02*
X0317806Y0164488D01*
X0323318Y0164488D02*
X0328436Y0164488D01*
X0328436Y0164094D02*
X0328436Y0164882D01*
X0328436Y0175118D01*
X0323318Y0175118D01*
X0317806Y0175118D02*
X0312688Y0175118D01*
X0323318Y0164882D02*
X0323318Y0164094D01*
X0328436Y0164094D01*
X0328436Y0164882D02*
X0323318Y0164882D01*
D11*
X0173648Y0219055D02*
X0173862Y0218332D01*
X0174058Y0217605D01*
X0174236Y0216873D01*
X0174396Y0216137D01*
X0174539Y0215398D01*
X0174663Y0214655D01*
X0174770Y0213909D01*
X0174858Y0213161D01*
X0174929Y0212412D01*
X0174981Y0211660D01*
X0175015Y0210908D01*
X0175031Y0210155D01*
X0175028Y0209402D01*
X0175008Y0208649D01*
X0174969Y0207897D01*
X0174912Y0207146D01*
X0174836Y0206396D01*
X0174743Y0205649D01*
X0174631Y0204904D01*
X0174502Y0204162D01*
X0174355Y0203423D01*
X0174189Y0202688D01*
X0174006Y0201958D01*
X0173806Y0201232D01*
X0173588Y0200511D01*
X0173352Y0199796D01*
X0173099Y0199086D01*
X0172829Y0198383D01*
X0172543Y0197686D01*
X0172239Y0196997D01*
X0171919Y0196315D01*
X0171582Y0195642D01*
X0171229Y0194976D01*
X0170861Y0194320D01*
X0170476Y0193672D01*
X0170076Y0193034D01*
X0169660Y0192406D01*
X0169230Y0191788D01*
X0168784Y0191180D01*
X0168324Y0190584D01*
X0167850Y0189999D01*
X0167362Y0189426D01*
X0166860Y0188864D01*
X0166344Y0188315D01*
X0165815Y0187779D01*
X0165274Y0187255D01*
X0164720Y0186745D01*
X0164154Y0186248D01*
X0163576Y0185765D01*
X0162986Y0185297D01*
X0162385Y0184842D01*
X0161774Y0184403D01*
X0161152Y0183978D01*
X0160520Y0183569D01*
X0159878Y0183174D01*
X0159227Y0182796D01*
X0158566Y0182434D01*
X0157898Y0182087D01*
X0157221Y0181757D01*
X0156536Y0181443D01*
X0155844Y0181146D01*
X0155145Y0180866D01*
X0131916Y0180866D02*
X0131211Y0181141D01*
X0130513Y0181433D01*
X0129822Y0181742D01*
X0129139Y0182067D01*
X0128464Y0182409D01*
X0127798Y0182766D01*
X0127141Y0183141D01*
X0126492Y0183530D01*
X0125854Y0183936D01*
X0125225Y0184357D01*
X0124607Y0184793D01*
X0123999Y0185243D01*
X0123403Y0185709D01*
X0122818Y0186189D01*
X0122245Y0186682D01*
X0121684Y0187190D01*
X0121136Y0187711D01*
X0120600Y0188245D01*
X0120077Y0188792D01*
X0119568Y0189351D01*
X0119073Y0189923D01*
X0118591Y0190507D01*
X0118124Y0191102D01*
X0117671Y0191708D01*
X0117234Y0192325D01*
X0116811Y0192952D01*
X0116404Y0193589D01*
X0116012Y0194237D01*
X0115636Y0194893D01*
X0115276Y0195558D01*
X0114932Y0196232D01*
X0114605Y0196914D01*
X0114294Y0197604D01*
X0114001Y0198301D01*
X0113724Y0199005D01*
X0113464Y0199716D01*
X0113222Y0200432D01*
X0112997Y0201154D01*
X0112789Y0201882D01*
X0112600Y0202614D01*
X0112428Y0203351D01*
X0112274Y0204092D01*
X0112138Y0204836D01*
X0112020Y0205583D01*
X0111921Y0206333D01*
X0111839Y0207085D01*
X0111776Y0207839D01*
X0111731Y0208594D01*
X0111704Y0209350D01*
X0111696Y0210106D01*
X0111706Y0210863D01*
X0111735Y0211619D01*
X0111781Y0212374D01*
X0111846Y0213127D01*
X0111930Y0213879D01*
X0112031Y0214629D01*
X0112151Y0215376D01*
X0112288Y0216120D01*
X0112444Y0216860D01*
X0112618Y0217596D01*
X0112809Y0218328D01*
X0113018Y0219055D01*
X0120499Y0231653D02*
X0121027Y0232205D01*
X0121570Y0232743D01*
X0122125Y0233268D01*
X0122693Y0233780D01*
X0123273Y0234277D01*
X0123865Y0234760D01*
X0124469Y0235228D01*
X0125084Y0235682D01*
X0125710Y0236120D01*
X0126346Y0236543D01*
X0126993Y0236950D01*
X0127649Y0237341D01*
X0128315Y0237717D01*
X0128989Y0238075D01*
X0129673Y0238418D01*
X0130364Y0238743D01*
X0131063Y0239051D01*
X0131770Y0239343D01*
X0132483Y0239616D01*
X0133203Y0239873D01*
X0133929Y0240111D01*
X0134660Y0240332D01*
X0135397Y0240535D01*
X0136139Y0240720D01*
X0136884Y0240887D01*
X0137634Y0241035D01*
X0138387Y0241165D01*
X0139143Y0241277D01*
X0139901Y0241370D01*
X0140662Y0241445D01*
X0141424Y0241501D01*
X0142187Y0241538D01*
X0142951Y0241557D01*
X0143715Y0241557D01*
X0144479Y0241538D01*
X0145242Y0241501D01*
X0146004Y0241445D01*
X0146765Y0241370D01*
X0147523Y0241277D01*
X0148279Y0241165D01*
X0149032Y0241035D01*
X0149782Y0240887D01*
X0150527Y0240720D01*
X0151269Y0240535D01*
X0152006Y0240332D01*
X0152737Y0240111D01*
X0153463Y0239873D01*
X0154183Y0239616D01*
X0154896Y0239343D01*
X0155603Y0239051D01*
X0156302Y0238743D01*
X0156993Y0238418D01*
X0157677Y0238075D01*
X0158351Y0237717D01*
X0159017Y0237341D01*
X0159673Y0236950D01*
X0160320Y0236543D01*
X0160956Y0236120D01*
X0161582Y0235682D01*
X0162197Y0235228D01*
X0162801Y0234760D01*
X0163393Y0234277D01*
X0163973Y0233780D01*
X0164541Y0233268D01*
X0165096Y0232743D01*
X0165639Y0232205D01*
X0166167Y0231653D01*
D12*
X0215333Y0189500D02*
X0215333Y0157000D01*
X0230833Y0157000D02*
X0245833Y0157000D01*
X0261333Y0157000D02*
X0261333Y0203000D01*
X0245833Y0203000D02*
X0228333Y0203000D01*
X0220333Y0203000D02*
X0215333Y0203000D01*
X0215333Y0197500D01*
X0292034Y0159894D02*
X0292034Y0159106D01*
X0295971Y0156350D02*
X0300696Y0156350D01*
X0304633Y0159106D02*
X0304633Y0159894D01*
X0300696Y0162650D02*
X0295971Y0162650D01*
X0320184Y0266626D02*
X0320184Y0282374D01*
X0326483Y0282374D02*
X0326483Y0266626D01*
X0256877Y0286850D02*
X0249790Y0286850D01*
X0249790Y0293150D02*
X0256877Y0293150D01*
X0112877Y0290906D02*
X0105790Y0290906D01*
X0107759Y0280669D02*
X0107759Y0279094D01*
X0107759Y0277520D01*
X0111302Y0277520D01*
X0111302Y0278701D01*
X0111302Y0279094D02*
X0111302Y0280669D01*
X0107759Y0280669D01*
X0107759Y0279094D02*
X0105790Y0279094D01*
X0107759Y0279094D02*
X0111302Y0279094D01*
X0112877Y0279094D01*
D13*
X0313833Y0161500D03*
D14*
X0315739Y0210421D03*
X0315739Y0214004D03*
X0316928Y0220339D03*
X0321062Y0221913D03*
X0321062Y0222110D03*
X0321259Y0218921D03*
X0316928Y0223685D03*
X0308463Y0222110D03*
X0308463Y0219354D03*
X0306298Y0219906D03*
X0304723Y0219906D03*
X0304526Y0221323D03*
X0302164Y0221323D03*
X0302164Y0221520D03*
X0302164Y0220890D03*
X0302164Y0220535D03*
X0302164Y0220339D03*
X0299999Y0219551D03*
X0299999Y0221913D03*
X0296062Y0222110D03*
X0296062Y0219551D03*
X0296062Y0219354D03*
X0293896Y0220693D03*
X0292715Y0222307D03*
X0291731Y0220535D03*
X0302550Y0213217D03*
X0309440Y0215776D03*
X0309440Y0210421D03*
X0256951Y0223406D03*
X0256755Y0224823D03*
X0254589Y0225217D03*
X0254589Y0223209D03*
X0252424Y0223839D03*
X0250259Y0222421D03*
X0248093Y0223839D03*
X0245928Y0223839D03*
X0245928Y0226004D03*
X0250259Y0226004D03*
X0243861Y0219276D03*
X0243861Y0217504D03*
X0237365Y0219276D03*
X0235987Y0217504D03*
X0233231Y0218882D03*
X0233723Y0223406D03*
X0233526Y0224823D03*
X0235298Y0223406D03*
X0237463Y0222854D03*
X0237463Y0225610D03*
X0231164Y0225020D03*
X0231164Y0224823D03*
X0231164Y0224390D03*
X0231164Y0224035D03*
X0231164Y0223839D03*
X0228999Y0223051D03*
X0228999Y0225413D03*
X0225062Y0225610D03*
X0225062Y0223051D03*
X0225062Y0222854D03*
X0222896Y0224035D03*
X0220731Y0224035D03*
X0233231Y0213921D03*
X0235987Y0213921D03*
X0237365Y0213921D03*
X0243861Y0213921D03*
X0247381Y0252421D03*
X0251514Y0252421D03*
X0255845Y0252421D03*
X0262144Y0252421D03*
X0262144Y0256004D03*
X0255845Y0257776D03*
X0254377Y0261709D03*
X0253983Y0263520D03*
X0253983Y0263717D03*
X0254377Y0265094D03*
X0258510Y0264898D03*
X0261660Y0265094D03*
X0250243Y0265685D03*
X0250046Y0264504D03*
X0244928Y0264701D03*
X0249546Y0257382D03*
X0170294Y0269839D03*
X0168325Y0269209D03*
X0168129Y0269406D03*
X0166554Y0269406D03*
X0166357Y0270823D03*
X0164388Y0271610D03*
X0164388Y0268854D03*
X0162026Y0269839D03*
X0160255Y0268854D03*
X0159664Y0269839D03*
X0159664Y0270035D03*
X0159664Y0270193D03*
X0159664Y0270390D03*
X0157499Y0271413D03*
X0157499Y0271610D03*
X0157499Y0269051D03*
X0153562Y0269051D03*
X0153562Y0271413D03*
X0151396Y0270035D03*
X0149231Y0270035D03*
X0151731Y0265882D03*
X0151731Y0260921D03*
X0153503Y0260921D03*
X0157636Y0260921D03*
X0160392Y0260921D03*
X0161770Y0260921D03*
X0160392Y0264504D03*
X0161770Y0266276D03*
X0168266Y0264504D03*
X0168266Y0260921D03*
X0165995Y0277906D03*
X0164420Y0277906D03*
X0164223Y0279323D03*
X0165798Y0280307D03*
X0161664Y0278890D03*
X0161664Y0278693D03*
X0161664Y0278535D03*
X0161664Y0278339D03*
X0159696Y0277551D03*
X0159499Y0280110D03*
X0155759Y0280110D03*
X0155759Y0277354D03*
X0153396Y0278535D03*
X0151428Y0278535D03*
X0152412Y0280307D03*
D15*
X0151329Y0278693D03*
X0153495Y0278693D03*
X0155660Y0277709D03*
X0155660Y0277551D03*
X0155660Y0279717D03*
X0155660Y0279913D03*
X0157629Y0279323D03*
X0159597Y0279913D03*
X0159794Y0277709D03*
X0162353Y0277354D03*
X0166290Y0279323D03*
X0165896Y0280110D03*
X0168062Y0279913D03*
X0168062Y0277551D03*
X0168424Y0271217D03*
X0168227Y0270035D03*
X0164290Y0269209D03*
X0164290Y0269051D03*
X0164290Y0271217D03*
X0164290Y0271413D03*
X0160156Y0269209D03*
X0160156Y0269051D03*
X0157597Y0269209D03*
X0157597Y0271217D03*
X0155629Y0270823D03*
X0153463Y0271020D03*
X0153463Y0271217D03*
X0153463Y0269406D03*
X0153463Y0269209D03*
X0151495Y0270193D03*
X0151495Y0270390D03*
X0150314Y0271807D03*
X0149133Y0270390D03*
X0149133Y0270193D03*
X0168168Y0266276D03*
X0220633Y0224390D03*
X0220633Y0224193D03*
X0221814Y0225807D03*
X0222995Y0224390D03*
X0222995Y0224193D03*
X0224963Y0223209D03*
X0224963Y0225217D03*
X0224963Y0225413D03*
X0226932Y0224823D03*
X0229097Y0225020D03*
X0229097Y0225217D03*
X0229097Y0223406D03*
X0229097Y0223209D03*
X0231066Y0224193D03*
X0231656Y0222854D03*
X0235593Y0224823D03*
X0235199Y0225610D03*
X0246223Y0223209D03*
X0246223Y0223051D03*
X0250357Y0223051D03*
X0250357Y0223209D03*
X0250357Y0223406D03*
X0250357Y0223839D03*
X0250357Y0224035D03*
X0250357Y0224193D03*
X0250357Y0224390D03*
X0250357Y0224823D03*
X0250357Y0225020D03*
X0250357Y0225217D03*
X0250357Y0225413D03*
X0250357Y0225610D03*
X0250357Y0225807D03*
X0250357Y0222854D03*
X0254491Y0223406D03*
X0254491Y0225020D03*
X0291633Y0220693D03*
X0293995Y0220890D03*
X0295963Y0221717D03*
X0295963Y0221913D03*
X0297932Y0221323D03*
X0300097Y0221520D03*
X0300097Y0221717D03*
X0300097Y0219906D03*
X0300097Y0219709D03*
X0302066Y0220693D03*
X0302656Y0219354D03*
X0306593Y0221323D03*
X0306199Y0222110D03*
X0317026Y0222701D03*
X0317026Y0222898D03*
X0317026Y0223488D03*
X0317026Y0219906D03*
X0317026Y0219354D03*
X0315837Y0215776D03*
X0323129Y0218921D03*
X0323129Y0219354D03*
X0323129Y0219551D03*
X0323129Y0219709D03*
X0323129Y0219906D03*
X0323129Y0220339D03*
X0323129Y0220535D03*
X0323129Y0220693D03*
X0323129Y0220890D03*
X0323129Y0221323D03*
X0323129Y0221520D03*
X0323129Y0221717D03*
X0323129Y0221913D03*
X0323129Y0222110D03*
X0323129Y0222307D03*
X0323129Y0222504D03*
X0321160Y0221717D03*
X0325294Y0220339D03*
X0295963Y0219709D03*
X0243148Y0254193D03*
X0246404Y0262339D03*
X0246404Y0262535D03*
X0246404Y0262693D03*
X0247782Y0264110D03*
X0247782Y0264307D03*
X0247782Y0264504D03*
X0249948Y0264701D03*
X0249948Y0264898D03*
X0250144Y0265291D03*
X0250144Y0265488D03*
X0254278Y0264898D03*
X0254278Y0264701D03*
X0254081Y0263913D03*
X0254081Y0263323D03*
X0254278Y0261906D03*
X0256444Y0264701D03*
X0261562Y0264898D03*
X0262243Y0257776D03*
X0245026Y0264307D03*
X0245026Y0264504D03*
D16*
X0245026Y0264898D03*
X0245026Y0265094D03*
X0247782Y0265094D03*
X0247782Y0264898D03*
X0247782Y0264701D03*
X0246404Y0261906D03*
X0246404Y0261709D03*
X0244526Y0257579D03*
X0243345Y0256004D03*
X0243148Y0254035D03*
X0245707Y0256004D03*
X0247479Y0253406D03*
X0249644Y0257185D03*
X0251613Y0257382D03*
X0254369Y0256004D03*
X0254369Y0252421D03*
X0260471Y0253839D03*
X0260471Y0254193D03*
X0262243Y0254193D03*
X0262243Y0254035D03*
X0262243Y0253839D03*
X0262243Y0253406D03*
X0262243Y0253209D03*
X0262243Y0253051D03*
X0262243Y0252854D03*
X0262243Y0254390D03*
X0262243Y0254823D03*
X0262243Y0255020D03*
X0262243Y0255217D03*
X0262243Y0255413D03*
X0262243Y0255610D03*
X0262243Y0255807D03*
X0262243Y0256791D03*
X0262243Y0256988D03*
X0262243Y0257185D03*
X0262243Y0257382D03*
X0262243Y0257579D03*
X0256444Y0262339D03*
X0256444Y0262535D03*
X0256444Y0264307D03*
X0256444Y0264504D03*
X0258609Y0265094D03*
X0261759Y0265291D03*
X0254278Y0265291D03*
X0252113Y0264701D03*
X0252113Y0264504D03*
X0251916Y0264307D03*
X0254278Y0261551D03*
X0254491Y0225413D03*
X0252522Y0224390D03*
X0252522Y0224193D03*
X0252522Y0224035D03*
X0254491Y0223051D03*
X0248192Y0224035D03*
X0248192Y0224193D03*
X0248192Y0224390D03*
X0248192Y0224823D03*
X0248192Y0225020D03*
X0248192Y0225217D03*
X0248192Y0225413D03*
X0248192Y0225610D03*
X0248192Y0225807D03*
X0246223Y0222854D03*
X0243762Y0218291D03*
X0239235Y0217701D03*
X0239235Y0217504D03*
X0239235Y0217307D03*
X0239235Y0217110D03*
X0239235Y0216913D03*
X0239235Y0216717D03*
X0239235Y0216520D03*
X0239235Y0216323D03*
X0239235Y0215890D03*
X0239235Y0215693D03*
X0239235Y0215535D03*
X0239235Y0215339D03*
X0237463Y0219079D03*
X0235396Y0222421D03*
X0235790Y0224390D03*
X0235199Y0225807D03*
X0231262Y0225413D03*
X0231262Y0225217D03*
X0228900Y0225610D03*
X0226932Y0223839D03*
X0228900Y0222854D03*
X0222798Y0223839D03*
X0220829Y0223839D03*
X0221814Y0226004D03*
X0234904Y0215693D03*
X0291829Y0220339D03*
X0293798Y0220339D03*
X0293798Y0220535D03*
X0292814Y0222504D03*
X0297932Y0220339D03*
X0299900Y0219354D03*
X0299900Y0222110D03*
X0302262Y0221913D03*
X0302262Y0221717D03*
X0306199Y0222307D03*
X0306790Y0220890D03*
X0306396Y0218921D03*
X0303829Y0215579D03*
X0307963Y0214004D03*
X0307963Y0210421D03*
X0314066Y0211839D03*
X0314066Y0212193D03*
X0315837Y0212193D03*
X0315837Y0212035D03*
X0315837Y0211839D03*
X0315837Y0211406D03*
X0315837Y0211209D03*
X0315837Y0211051D03*
X0315837Y0210854D03*
X0315837Y0212390D03*
X0315837Y0212823D03*
X0315837Y0213020D03*
X0315837Y0213217D03*
X0315837Y0213413D03*
X0315837Y0213610D03*
X0315837Y0213807D03*
X0315837Y0214791D03*
X0315837Y0214988D03*
X0315837Y0215185D03*
X0315837Y0215382D03*
X0315837Y0215579D03*
X0319192Y0219354D03*
X0319192Y0219551D03*
X0319192Y0219709D03*
X0319192Y0219906D03*
X0319192Y0220339D03*
X0319192Y0220535D03*
X0319192Y0220693D03*
X0319192Y0220890D03*
X0316829Y0222504D03*
X0315058Y0222701D03*
X0325294Y0220890D03*
X0325294Y0220693D03*
X0325294Y0220535D03*
X0168168Y0261354D03*
X0168168Y0261551D03*
X0168168Y0261709D03*
X0168168Y0261906D03*
X0168168Y0262339D03*
X0168168Y0262535D03*
X0168168Y0262693D03*
X0168168Y0262890D03*
X0168168Y0263323D03*
X0168168Y0263520D03*
X0168168Y0263717D03*
X0168168Y0263913D03*
X0168168Y0264110D03*
X0168168Y0264307D03*
X0168168Y0265291D03*
X0168168Y0265488D03*
X0168168Y0265685D03*
X0168168Y0265882D03*
X0168168Y0266079D03*
X0168424Y0269051D03*
X0168030Y0269839D03*
X0168424Y0271413D03*
X0170392Y0270390D03*
X0170392Y0270193D03*
X0170392Y0270035D03*
X0164487Y0271807D03*
X0159762Y0271020D03*
X0159762Y0270823D03*
X0157597Y0268854D03*
X0155629Y0269839D03*
X0153660Y0268854D03*
X0151298Y0269839D03*
X0149329Y0269839D03*
X0150314Y0272004D03*
X0153660Y0271610D03*
X0155570Y0265882D03*
X0157538Y0265882D03*
X0157538Y0265685D03*
X0159310Y0262693D03*
X0161869Y0266079D03*
X0163640Y0264701D03*
X0163640Y0264504D03*
X0163640Y0264307D03*
X0163640Y0264110D03*
X0163640Y0263913D03*
X0163640Y0263717D03*
X0163640Y0263520D03*
X0163640Y0263323D03*
X0163640Y0262890D03*
X0163640Y0262693D03*
X0163640Y0262535D03*
X0163640Y0262339D03*
X0153404Y0261906D03*
X0153298Y0278339D03*
X0151526Y0278339D03*
X0152314Y0280504D03*
X0155857Y0280307D03*
X0157629Y0278339D03*
X0159597Y0277354D03*
X0161762Y0279323D03*
X0161762Y0279520D03*
X0159400Y0280307D03*
X0166487Y0278890D03*
X0168062Y0280110D03*
X0168062Y0277354D03*
X0165896Y0276921D03*
D17*
X0165896Y0277551D03*
X0168062Y0277709D03*
X0168062Y0279717D03*
X0165896Y0279913D03*
X0159794Y0279323D03*
X0159794Y0278890D03*
X0159794Y0278693D03*
X0159794Y0278535D03*
X0159794Y0278339D03*
X0155463Y0278535D03*
X0155463Y0278693D03*
X0155463Y0278890D03*
X0153692Y0279323D03*
X0151133Y0279323D03*
X0150314Y0271413D03*
X0151692Y0271020D03*
X0151692Y0270823D03*
X0148936Y0270823D03*
X0148936Y0271020D03*
X0155570Y0266079D03*
X0157538Y0266079D03*
X0164093Y0270193D03*
X0162518Y0272004D03*
X0168227Y0270193D03*
X0170392Y0270823D03*
X0170786Y0272004D03*
X0168168Y0265094D03*
X0220436Y0225020D03*
X0220436Y0224823D03*
X0221814Y0225413D03*
X0223192Y0225020D03*
X0223192Y0224823D03*
X0224766Y0224193D03*
X0231459Y0223406D03*
X0235396Y0225217D03*
X0252129Y0226004D03*
X0252522Y0224823D03*
X0254491Y0224390D03*
X0254491Y0224193D03*
X0254491Y0224035D03*
X0254491Y0223839D03*
X0291436Y0221323D03*
X0294192Y0221520D03*
X0295766Y0220693D03*
X0302459Y0219906D03*
X0306396Y0221717D03*
X0315837Y0214594D03*
X0319192Y0221323D03*
X0318798Y0222504D03*
X0262243Y0256594D03*
X0254278Y0262339D03*
X0254278Y0262535D03*
X0254278Y0262693D03*
X0252113Y0264898D03*
X0247782Y0263913D03*
X0247782Y0263717D03*
X0247782Y0263520D03*
X0246404Y0263323D03*
X0246404Y0262890D03*
X0245026Y0263717D03*
X0245026Y0263913D03*
X0249448Y0257579D03*
X0251613Y0257579D03*
X0261365Y0264110D03*
X0261365Y0264307D03*
X0261365Y0264504D03*
D18*
X0261857Y0265488D03*
X0258707Y0265291D03*
X0256345Y0264110D03*
X0256345Y0263913D03*
X0256345Y0263717D03*
X0256345Y0262890D03*
X0256345Y0262693D03*
X0254377Y0261354D03*
X0252014Y0262339D03*
X0249652Y0262693D03*
X0249455Y0262535D03*
X0249455Y0262339D03*
X0250046Y0264307D03*
X0247684Y0265291D03*
X0244928Y0265291D03*
X0245609Y0256201D03*
X0245609Y0255807D03*
X0245806Y0254193D03*
X0245806Y0254035D03*
X0245806Y0253839D03*
X0247381Y0253209D03*
X0247381Y0253051D03*
X0247381Y0252854D03*
X0249152Y0255217D03*
X0249152Y0255413D03*
X0249349Y0255610D03*
X0249349Y0255807D03*
X0249349Y0256004D03*
X0249349Y0256201D03*
X0249546Y0256398D03*
X0249546Y0256594D03*
X0249546Y0256791D03*
X0249546Y0256988D03*
X0251514Y0256988D03*
X0251514Y0256791D03*
X0251514Y0256594D03*
X0251514Y0256398D03*
X0251514Y0256201D03*
X0251514Y0256004D03*
X0251514Y0255807D03*
X0251514Y0255610D03*
X0251514Y0255413D03*
X0251514Y0255217D03*
X0251514Y0253406D03*
X0251514Y0253209D03*
X0251514Y0253051D03*
X0251514Y0252854D03*
X0253286Y0254035D03*
X0253286Y0254193D03*
X0253286Y0254390D03*
X0253483Y0253839D03*
X0255845Y0254035D03*
X0255845Y0254193D03*
X0255845Y0254390D03*
X0255845Y0256004D03*
X0255845Y0256201D03*
X0255845Y0256398D03*
X0255845Y0256594D03*
X0255845Y0256791D03*
X0255845Y0256988D03*
X0255845Y0257185D03*
X0255845Y0257382D03*
X0255845Y0257579D03*
X0257617Y0256201D03*
X0257617Y0256004D03*
X0257617Y0255807D03*
X0257617Y0255610D03*
X0257617Y0255413D03*
X0257617Y0255217D03*
X0257617Y0255020D03*
X0257617Y0254823D03*
X0257617Y0254390D03*
X0257617Y0254193D03*
X0257617Y0254035D03*
X0257617Y0253839D03*
X0260373Y0254390D03*
X0260570Y0254035D03*
X0260373Y0255807D03*
X0260373Y0256004D03*
X0260373Y0256201D03*
X0251514Y0257185D03*
X0243444Y0256201D03*
X0243247Y0253839D03*
X0244156Y0226201D03*
X0237463Y0225807D03*
X0235888Y0224193D03*
X0235692Y0224035D03*
X0231951Y0222421D03*
X0231361Y0225610D03*
X0228802Y0225807D03*
X0227030Y0224390D03*
X0227030Y0224193D03*
X0227030Y0224035D03*
X0225259Y0225807D03*
X0233231Y0218685D03*
X0233231Y0216717D03*
X0233231Y0216520D03*
X0233231Y0216323D03*
X0233231Y0215890D03*
X0233231Y0215693D03*
X0233231Y0215535D03*
X0233231Y0215339D03*
X0233231Y0214906D03*
X0233231Y0214709D03*
X0233231Y0214551D03*
X0233231Y0214354D03*
X0235003Y0215339D03*
X0235003Y0215535D03*
X0235003Y0215890D03*
X0237365Y0215890D03*
X0237365Y0215693D03*
X0237365Y0215535D03*
X0237365Y0215339D03*
X0237365Y0217504D03*
X0237365Y0217701D03*
X0237365Y0217898D03*
X0237365Y0218094D03*
X0237365Y0218291D03*
X0237365Y0218488D03*
X0237365Y0218685D03*
X0237365Y0218882D03*
X0241892Y0217701D03*
X0241892Y0217504D03*
X0241892Y0217307D03*
X0242089Y0215890D03*
X0242089Y0215693D03*
X0242089Y0215535D03*
X0242089Y0215339D03*
X0243861Y0215339D03*
X0243861Y0215535D03*
X0243861Y0215693D03*
X0243861Y0215890D03*
X0243861Y0216323D03*
X0243861Y0216520D03*
X0243861Y0216717D03*
X0243861Y0216913D03*
X0243861Y0217110D03*
X0243861Y0217307D03*
X0243861Y0218488D03*
X0243861Y0218685D03*
X0243861Y0218882D03*
X0243861Y0219079D03*
X0243861Y0214906D03*
X0243861Y0214709D03*
X0243861Y0214551D03*
X0243861Y0214354D03*
X0292715Y0222701D03*
X0296259Y0222307D03*
X0298030Y0220890D03*
X0298030Y0220693D03*
X0298030Y0220535D03*
X0299802Y0222307D03*
X0302361Y0222110D03*
X0302951Y0218921D03*
X0306692Y0220535D03*
X0306888Y0220693D03*
X0308463Y0222307D03*
X0309440Y0215579D03*
X0309440Y0215382D03*
X0309440Y0215185D03*
X0309440Y0214988D03*
X0309440Y0214791D03*
X0309440Y0214594D03*
X0309440Y0214398D03*
X0309440Y0214201D03*
X0309440Y0214004D03*
X0309440Y0212390D03*
X0309440Y0212193D03*
X0309440Y0212035D03*
X0311211Y0212035D03*
X0311211Y0212193D03*
X0311211Y0212390D03*
X0311211Y0212823D03*
X0311211Y0213020D03*
X0311211Y0213217D03*
X0311211Y0213413D03*
X0311211Y0213610D03*
X0311211Y0213807D03*
X0311211Y0214004D03*
X0311211Y0214201D03*
X0311211Y0211839D03*
X0313967Y0212390D03*
X0314164Y0212035D03*
X0313967Y0213807D03*
X0313967Y0214004D03*
X0313967Y0214201D03*
X0307077Y0211839D03*
X0306881Y0212035D03*
X0306881Y0212193D03*
X0306881Y0212390D03*
X0305109Y0213413D03*
X0305109Y0213610D03*
X0305109Y0213807D03*
X0305109Y0214004D03*
X0302747Y0214201D03*
X0302550Y0214004D03*
X0302550Y0213807D03*
X0302550Y0213610D03*
X0302550Y0213413D03*
X0316731Y0223882D03*
X0168522Y0268854D03*
X0166298Y0264701D03*
X0166298Y0264504D03*
X0166298Y0264307D03*
X0166495Y0262890D03*
X0166495Y0262693D03*
X0166495Y0262535D03*
X0166495Y0262339D03*
X0161770Y0262339D03*
X0161770Y0262535D03*
X0161770Y0262693D03*
X0161770Y0262890D03*
X0161770Y0264504D03*
X0161770Y0264701D03*
X0161770Y0264898D03*
X0161770Y0265094D03*
X0161770Y0265291D03*
X0161770Y0265488D03*
X0161770Y0265685D03*
X0161770Y0265882D03*
X0159408Y0262890D03*
X0159408Y0262535D03*
X0159408Y0262339D03*
X0157636Y0261906D03*
X0157636Y0261709D03*
X0157636Y0261551D03*
X0157636Y0261354D03*
X0157636Y0263717D03*
X0157636Y0263913D03*
X0157636Y0264110D03*
X0157636Y0264307D03*
X0157636Y0264504D03*
X0157636Y0264701D03*
X0157636Y0264898D03*
X0157636Y0265094D03*
X0157636Y0265291D03*
X0157636Y0265488D03*
X0155668Y0265488D03*
X0155668Y0265291D03*
X0155471Y0265094D03*
X0155471Y0264898D03*
X0155471Y0264701D03*
X0155471Y0264504D03*
X0155274Y0264307D03*
X0155274Y0264110D03*
X0155274Y0263913D03*
X0155274Y0263717D03*
X0155668Y0265685D03*
X0151731Y0265685D03*
X0151731Y0263717D03*
X0151731Y0263520D03*
X0151731Y0263323D03*
X0151731Y0262890D03*
X0151731Y0262693D03*
X0151731Y0262535D03*
X0151731Y0262339D03*
X0151731Y0261906D03*
X0151731Y0261709D03*
X0151731Y0261551D03*
X0151731Y0261354D03*
X0153503Y0261354D03*
X0153503Y0261551D03*
X0153503Y0261709D03*
X0155530Y0270035D03*
X0155530Y0270193D03*
X0155530Y0270390D03*
X0153759Y0271807D03*
X0157302Y0271807D03*
X0159861Y0271413D03*
X0159861Y0271217D03*
X0162026Y0270390D03*
X0162026Y0270193D03*
X0162026Y0270035D03*
X0157727Y0278535D03*
X0157727Y0278693D03*
X0157727Y0278890D03*
X0161861Y0279717D03*
X0161861Y0279913D03*
X0165798Y0280504D03*
X0166585Y0278693D03*
X0166388Y0278535D03*
X0152412Y0280701D03*
D19*
X0152412Y0281094D03*
X0162255Y0280504D03*
X0160255Y0272004D03*
X0157499Y0268421D03*
X0164526Y0266079D03*
X0165904Y0263323D03*
X0168719Y0268421D03*
X0240416Y0225610D03*
X0240416Y0225413D03*
X0240121Y0219079D03*
X0241499Y0216323D03*
X0292715Y0223094D03*
X0303928Y0212193D03*
X0304125Y0212390D03*
X0312196Y0215579D03*
X0313377Y0213217D03*
X0313377Y0213020D03*
X0313573Y0212823D03*
X0311416Y0221913D03*
X0311416Y0222110D03*
X0259979Y0254823D03*
X0259782Y0255020D03*
X0259782Y0255217D03*
X0258601Y0257579D03*
X0258904Y0261354D03*
X0258904Y0261551D03*
X0250440Y0263913D03*
X0249455Y0261551D03*
X0249455Y0261354D03*
X0246306Y0260921D03*
X0244428Y0257382D03*
X0245018Y0254823D03*
D20*
X0244526Y0252854D03*
X0244526Y0256988D03*
X0258699Y0257382D03*
X0221814Y0227382D03*
X0221814Y0227185D03*
X0221814Y0223406D03*
X0221814Y0223209D03*
X0221814Y0223051D03*
X0221814Y0222854D03*
X0236479Y0217110D03*
X0236479Y0214354D03*
X0240219Y0218882D03*
X0240908Y0222854D03*
X0240121Y0223839D03*
X0239924Y0224193D03*
X0239924Y0224390D03*
X0292814Y0219906D03*
X0292814Y0219709D03*
X0292814Y0219551D03*
X0292814Y0219354D03*
X0303829Y0214791D03*
X0312294Y0215382D03*
X0311908Y0219354D03*
X0311121Y0220339D03*
X0310924Y0220535D03*
X0310924Y0220693D03*
X0310924Y0220890D03*
X0320176Y0223291D03*
X0164625Y0265882D03*
X0160885Y0264110D03*
X0160885Y0261354D03*
X0150314Y0268854D03*
X0150314Y0269051D03*
X0150314Y0269209D03*
X0150314Y0269406D03*
X0150314Y0273185D03*
X0150314Y0273382D03*
D21*
X0150314Y0272988D03*
X0221814Y0226988D03*
X0240121Y0224823D03*
X0240318Y0226004D03*
X0254491Y0226004D03*
X0254491Y0222421D03*
X0244526Y0257185D03*
X0258609Y0260921D03*
X0258806Y0265882D03*
X0311121Y0221323D03*
D22*
X0315648Y0220693D03*
X0315648Y0220535D03*
X0315648Y0222307D03*
X0312294Y0215185D03*
X0308357Y0213413D03*
X0308357Y0213217D03*
X0308357Y0211209D03*
X0308357Y0211051D03*
X0304026Y0210421D03*
X0303829Y0214398D03*
X0303829Y0214594D03*
X0292814Y0218921D03*
X0288286Y0218921D03*
X0244648Y0224193D03*
X0244648Y0225610D03*
X0244648Y0225807D03*
X0240416Y0218488D03*
X0236282Y0216717D03*
X0236282Y0216520D03*
X0236282Y0214906D03*
X0236282Y0214709D03*
X0240416Y0214354D03*
X0221814Y0222421D03*
X0244526Y0253051D03*
X0244526Y0256398D03*
X0244526Y0256594D03*
X0250735Y0262890D03*
X0254278Y0266079D03*
X0265696Y0260921D03*
X0258699Y0257185D03*
X0254762Y0255413D03*
X0254762Y0255217D03*
X0254762Y0253209D03*
X0254762Y0253051D03*
X0173936Y0273579D03*
X0173739Y0273776D03*
X0171408Y0276921D03*
X0171605Y0277354D03*
X0171802Y0277551D03*
X0160944Y0273579D03*
X0160944Y0273382D03*
X0160944Y0273185D03*
X0160944Y0272988D03*
X0160944Y0272791D03*
X0160944Y0272594D03*
X0160944Y0272398D03*
X0160944Y0272201D03*
X0164822Y0265488D03*
X0164822Y0261354D03*
X0160688Y0261709D03*
X0160688Y0261906D03*
X0160688Y0263520D03*
X0160688Y0263717D03*
X0150314Y0268421D03*
X0147983Y0276921D03*
X0147786Y0277354D03*
X0147786Y0281685D03*
D23*
X0147688Y0281488D03*
X0147688Y0281291D03*
X0147885Y0281882D03*
X0147688Y0277709D03*
X0147688Y0277551D03*
X0145688Y0273382D03*
X0145688Y0273185D03*
X0145688Y0268854D03*
X0145885Y0268421D03*
X0160589Y0263323D03*
X0164920Y0261551D03*
X0164920Y0265291D03*
X0173837Y0268421D03*
X0174034Y0268854D03*
X0174034Y0273185D03*
X0174034Y0273382D03*
X0171703Y0277709D03*
X0217188Y0227382D03*
X0217188Y0227185D03*
X0217188Y0222854D03*
X0217385Y0222421D03*
X0236184Y0216323D03*
X0240514Y0214551D03*
X0240514Y0218291D03*
X0244550Y0224390D03*
X0244550Y0224823D03*
X0244550Y0225020D03*
X0244550Y0225217D03*
X0244550Y0225413D03*
X0260101Y0222854D03*
X0288188Y0223685D03*
X0288188Y0223882D03*
X0288188Y0219354D03*
X0308259Y0213020D03*
X0308259Y0212823D03*
X0308259Y0211406D03*
X0312392Y0210854D03*
X0312392Y0214988D03*
X0315550Y0220890D03*
X0315550Y0221323D03*
X0315550Y0221520D03*
X0315550Y0221717D03*
X0315550Y0221913D03*
X0315550Y0222110D03*
X0320077Y0224276D03*
X0265794Y0265882D03*
X0258798Y0256988D03*
X0258798Y0252854D03*
X0254664Y0253406D03*
X0254664Y0254823D03*
X0254664Y0255020D03*
X0250333Y0255020D03*
X0250333Y0254823D03*
X0250333Y0254035D03*
X0244428Y0253209D03*
X0241188Y0265488D03*
X0241188Y0265685D03*
X0241385Y0265882D03*
D24*
X0244428Y0256791D03*
X0250530Y0253839D03*
X0254861Y0252854D03*
X0254861Y0255610D03*
X0244747Y0224035D03*
X0240022Y0224035D03*
X0240318Y0218685D03*
X0236381Y0216913D03*
X0236381Y0214551D03*
X0292715Y0223882D03*
X0308455Y0213610D03*
X0308455Y0210854D03*
X0320077Y0224079D03*
X0164723Y0265685D03*
X0160786Y0263913D03*
X0160786Y0261551D03*
X0156652Y0262339D03*
X0152412Y0276921D03*
X0152412Y0281882D03*
D25*
X0147589Y0281094D03*
X0147589Y0280898D03*
X0147589Y0280701D03*
X0147589Y0278339D03*
X0147589Y0277906D03*
X0145589Y0272988D03*
X0145589Y0272791D03*
X0145589Y0269209D03*
X0145589Y0269051D03*
X0156357Y0263520D03*
X0156357Y0263323D03*
X0156357Y0262890D03*
X0156357Y0262693D03*
X0156357Y0262535D03*
X0165018Y0261906D03*
X0165018Y0261709D03*
X0165018Y0264898D03*
X0165018Y0265094D03*
X0174133Y0269051D03*
X0174133Y0269209D03*
X0174133Y0272791D03*
X0174133Y0272988D03*
X0171999Y0279913D03*
X0160944Y0273776D03*
X0217089Y0226988D03*
X0217089Y0223051D03*
X0240613Y0218094D03*
X0240613Y0217898D03*
X0240613Y0214906D03*
X0240613Y0214709D03*
X0259806Y0222421D03*
X0260199Y0223051D03*
X0288089Y0223291D03*
X0288089Y0223488D03*
X0288089Y0219709D03*
X0288089Y0219551D03*
X0304026Y0211406D03*
X0312491Y0211051D03*
X0312491Y0214594D03*
X0312491Y0214791D03*
X0326475Y0217583D03*
X0265892Y0261354D03*
X0265892Y0261551D03*
X0265892Y0265488D03*
X0265892Y0265685D03*
X0258896Y0256791D03*
X0258896Y0256594D03*
X0258896Y0253051D03*
X0250235Y0254193D03*
X0250235Y0254390D03*
X0244526Y0253406D03*
X0241089Y0265094D03*
X0241089Y0265291D03*
X0241680Y0266079D03*
D26*
X0241188Y0264898D03*
X0258995Y0256398D03*
X0258995Y0253406D03*
X0258995Y0253209D03*
X0265991Y0261709D03*
X0265991Y0261906D03*
X0265991Y0264898D03*
X0265991Y0265094D03*
X0265991Y0265291D03*
X0216991Y0226791D03*
X0216991Y0226594D03*
X0216991Y0226398D03*
X0216991Y0223406D03*
X0216991Y0223209D03*
X0260298Y0223209D03*
X0260495Y0224193D03*
X0260495Y0224390D03*
X0260495Y0224823D03*
X0260495Y0225020D03*
X0287991Y0223094D03*
X0287991Y0222898D03*
X0287991Y0219906D03*
X0303928Y0211209D03*
X0303928Y0211051D03*
X0303928Y0210854D03*
X0312589Y0211209D03*
X0312589Y0211406D03*
X0312589Y0214398D03*
X0328542Y0219354D03*
X0328739Y0219551D03*
X0328739Y0219709D03*
X0328936Y0219906D03*
X0329133Y0220339D03*
X0329133Y0220535D03*
X0329133Y0220693D03*
X0329133Y0220890D03*
X0329133Y0221323D03*
X0174231Y0269406D03*
X0174231Y0269839D03*
X0174231Y0272201D03*
X0174231Y0272398D03*
X0174231Y0272594D03*
X0171703Y0277906D03*
X0171900Y0279717D03*
X0171900Y0280110D03*
X0171900Y0280307D03*
X0147491Y0280307D03*
X0147491Y0280110D03*
X0147491Y0279913D03*
X0147491Y0279717D03*
X0147491Y0279520D03*
X0147491Y0279323D03*
X0147491Y0278890D03*
X0147491Y0278693D03*
X0147491Y0278535D03*
X0147491Y0280504D03*
X0145491Y0272594D03*
X0145491Y0272398D03*
X0145491Y0272201D03*
X0145491Y0269839D03*
X0145491Y0269406D03*
D27*
X0150215Y0271610D03*
X0153365Y0270823D03*
X0153365Y0270390D03*
X0153365Y0270193D03*
X0153365Y0270035D03*
X0153365Y0269839D03*
X0157696Y0269839D03*
X0157696Y0270035D03*
X0157696Y0270193D03*
X0157696Y0270390D03*
X0157696Y0270823D03*
X0157696Y0271020D03*
X0157696Y0269406D03*
X0160058Y0269406D03*
X0162026Y0270823D03*
X0164192Y0270823D03*
X0164192Y0271020D03*
X0164192Y0270390D03*
X0164192Y0270035D03*
X0164192Y0269839D03*
X0164192Y0269406D03*
X0162617Y0268421D03*
X0166357Y0271020D03*
X0168325Y0271020D03*
X0168325Y0270823D03*
X0168325Y0270390D03*
X0170885Y0268421D03*
X0165995Y0277354D03*
X0165995Y0277709D03*
X0166192Y0279520D03*
X0165995Y0279717D03*
X0164223Y0279520D03*
X0162255Y0277709D03*
X0162255Y0277551D03*
X0162058Y0277906D03*
X0159696Y0277906D03*
X0159696Y0279520D03*
X0159696Y0279717D03*
X0155562Y0279520D03*
X0155562Y0279323D03*
X0155562Y0278339D03*
X0155562Y0277906D03*
X0153593Y0278890D03*
X0152412Y0280110D03*
X0151231Y0278890D03*
X0221715Y0225610D03*
X0224865Y0225020D03*
X0224865Y0224823D03*
X0224865Y0224390D03*
X0224865Y0224035D03*
X0224865Y0223839D03*
X0224865Y0223406D03*
X0229196Y0223839D03*
X0229196Y0224035D03*
X0229196Y0224193D03*
X0229196Y0224390D03*
X0229196Y0224823D03*
X0231558Y0223209D03*
X0231558Y0223051D03*
X0233526Y0225020D03*
X0235298Y0225413D03*
X0235495Y0225020D03*
X0235298Y0223209D03*
X0235298Y0223051D03*
X0235298Y0222854D03*
X0237463Y0223051D03*
X0237463Y0225413D03*
X0246125Y0223406D03*
X0248684Y0222421D03*
X0252030Y0222421D03*
X0254589Y0224823D03*
X0256755Y0225020D03*
X0243861Y0218094D03*
X0244428Y0252224D03*
X0243444Y0255807D03*
X0244928Y0264110D03*
X0250046Y0265094D03*
X0254180Y0264504D03*
X0254180Y0264307D03*
X0254180Y0264110D03*
X0254180Y0262890D03*
X0258510Y0264110D03*
X0258510Y0264307D03*
X0258510Y0264504D03*
X0258510Y0264701D03*
X0258707Y0263913D03*
X0261463Y0263913D03*
X0261463Y0264701D03*
X0292715Y0222110D03*
X0294093Y0221323D03*
X0295865Y0221323D03*
X0295865Y0221520D03*
X0295865Y0220890D03*
X0295865Y0220535D03*
X0295865Y0220339D03*
X0295865Y0219906D03*
X0300196Y0220339D03*
X0300196Y0220535D03*
X0300196Y0220693D03*
X0300196Y0220890D03*
X0300196Y0221323D03*
X0302558Y0219709D03*
X0302558Y0219551D03*
X0304526Y0221520D03*
X0306298Y0221913D03*
X0306495Y0221520D03*
X0306298Y0219709D03*
X0306298Y0219551D03*
X0306298Y0219354D03*
X0308463Y0219551D03*
X0308463Y0221913D03*
X0317125Y0223094D03*
X0317125Y0223291D03*
X0317125Y0219709D03*
X0317125Y0219551D03*
X0321259Y0219551D03*
X0321259Y0219709D03*
X0321259Y0219906D03*
X0321259Y0220339D03*
X0321259Y0220535D03*
X0321259Y0220693D03*
X0321259Y0220890D03*
X0321259Y0221323D03*
X0321259Y0221520D03*
X0321259Y0219354D03*
X0325196Y0221323D03*
X0324802Y0222504D03*
X0291534Y0220890D03*
D28*
X0292715Y0223685D03*
X0303928Y0214988D03*
X0308652Y0213807D03*
X0312196Y0210421D03*
X0311810Y0219551D03*
X0311613Y0219709D03*
X0311416Y0219906D03*
X0320077Y0223488D03*
X0320077Y0223685D03*
X0320077Y0223882D03*
X0258601Y0252421D03*
X0255058Y0255807D03*
X0249652Y0260921D03*
X0240416Y0223406D03*
X0240613Y0223209D03*
X0240810Y0223051D03*
X0236577Y0217307D03*
X0240318Y0213921D03*
X0164723Y0260921D03*
X0160983Y0264307D03*
X0152412Y0277354D03*
X0152412Y0277551D03*
X0152412Y0277709D03*
X0152412Y0277906D03*
X0152412Y0281685D03*
D29*
X0152314Y0281291D03*
X0159597Y0276921D03*
X0150314Y0272791D03*
X0151239Y0264898D03*
X0151239Y0263913D03*
X0221814Y0226791D03*
X0228900Y0222421D03*
X0232739Y0217898D03*
X0232739Y0216913D03*
X0240318Y0225217D03*
X0240318Y0225807D03*
X0246223Y0222421D03*
X0245117Y0255413D03*
X0245117Y0255610D03*
X0250341Y0263323D03*
X0250341Y0263520D03*
X0250341Y0263717D03*
X0250538Y0264110D03*
X0254278Y0265882D03*
X0258806Y0265685D03*
X0254278Y0260921D03*
X0292814Y0223291D03*
X0299900Y0218921D03*
X0303633Y0212035D03*
X0303436Y0211839D03*
X0311121Y0221520D03*
X0311318Y0221717D03*
X0311318Y0222307D03*
D30*
X0308463Y0222504D03*
X0308463Y0218921D03*
X0314959Y0220339D03*
X0313770Y0213610D03*
X0304715Y0212823D03*
X0296259Y0218921D03*
X0299605Y0222504D03*
X0292715Y0222898D03*
X0260176Y0255610D03*
X0259101Y0262339D03*
X0259101Y0262535D03*
X0259101Y0262693D03*
X0262054Y0265882D03*
X0254377Y0265685D03*
X0249455Y0261709D03*
X0245609Y0254390D03*
X0237463Y0226004D03*
X0237463Y0222421D03*
X0233034Y0218291D03*
X0241696Y0217110D03*
X0244156Y0223839D03*
X0228605Y0226004D03*
X0225259Y0222421D03*
X0221715Y0226398D03*
X0166101Y0264110D03*
X0164585Y0268421D03*
X0160058Y0271807D03*
X0153955Y0272004D03*
X0150215Y0272398D03*
X0151534Y0265291D03*
X0155955Y0276921D03*
X0152412Y0280898D03*
X0162058Y0280307D03*
D31*
X0168062Y0280504D03*
X0168062Y0276921D03*
X0168424Y0271807D03*
X0165806Y0263913D03*
X0165806Y0263717D03*
X0165806Y0263520D03*
X0153857Y0268421D03*
X0151436Y0265094D03*
X0150314Y0272594D03*
X0221814Y0226594D03*
X0231656Y0226004D03*
X0232936Y0218094D03*
X0241400Y0216913D03*
X0241400Y0216717D03*
X0241400Y0216520D03*
X0244058Y0226004D03*
X0254491Y0225807D03*
X0244526Y0252421D03*
X0244920Y0255020D03*
X0244920Y0255217D03*
X0245026Y0265882D03*
X0247782Y0265882D03*
X0258806Y0265488D03*
X0259003Y0261906D03*
X0259003Y0261709D03*
X0261955Y0260921D03*
X0259881Y0255413D03*
X0302656Y0222504D03*
X0303829Y0215382D03*
X0313475Y0213413D03*
X0315058Y0222504D03*
X0316436Y0224079D03*
X0320766Y0222504D03*
D32*
X0258806Y0261138D03*
X0249554Y0261138D03*
X0245117Y0254606D03*
D33*
X0250235Y0254606D03*
X0304026Y0210638D03*
X0156357Y0263106D03*
X0147589Y0278122D03*
D34*
X0153759Y0268638D03*
X0151731Y0263106D03*
X0151731Y0262122D03*
X0151731Y0261138D03*
X0153503Y0261138D03*
X0157636Y0262122D03*
X0159408Y0263106D03*
X0161770Y0263106D03*
X0225259Y0222638D03*
X0233231Y0216106D03*
X0233231Y0215122D03*
X0233231Y0214138D03*
X0235003Y0216106D03*
X0237365Y0216106D03*
X0243861Y0216106D03*
X0243861Y0215122D03*
X0243861Y0214138D03*
X0237463Y0222638D03*
X0243247Y0253622D03*
X0247381Y0252638D03*
X0251514Y0252638D03*
X0251514Y0253622D03*
X0253483Y0254606D03*
X0257617Y0254606D03*
X0256345Y0263106D03*
X0296259Y0219138D03*
X0308463Y0219138D03*
X0307077Y0212606D03*
X0311211Y0212606D03*
D35*
X0309341Y0212606D03*
X0299900Y0219138D03*
X0246223Y0222638D03*
X0228900Y0222638D03*
X0245707Y0253622D03*
X0255747Y0254606D03*
X0261955Y0261138D03*
X0261955Y0262122D03*
X0261955Y0263106D03*
X0259199Y0263106D03*
X0249357Y0262122D03*
X0168621Y0268638D03*
X0168062Y0277138D03*
X0159597Y0277138D03*
X0155857Y0277138D03*
X0157400Y0268638D03*
D36*
X0259979Y0254606D03*
X0313573Y0212606D03*
D37*
X0315837Y0212606D03*
X0315837Y0211622D03*
X0315837Y0210638D03*
X0319192Y0219138D03*
X0319192Y0220122D03*
X0319192Y0221106D03*
X0315058Y0220122D03*
X0304428Y0221106D03*
X0297932Y0221106D03*
X0256656Y0224606D03*
X0248192Y0224606D03*
X0239235Y0216106D03*
X0233428Y0224606D03*
X0226932Y0224606D03*
X0262243Y0252638D03*
X0262243Y0253622D03*
X0262243Y0254606D03*
X0252113Y0262122D03*
X0246404Y0262122D03*
X0168168Y0262122D03*
X0168168Y0261138D03*
X0168168Y0263106D03*
X0163640Y0263106D03*
X0164487Y0268638D03*
X0166259Y0270606D03*
X0160353Y0268638D03*
X0159762Y0269622D03*
X0155629Y0270606D03*
X0157629Y0279106D03*
X0164125Y0279106D03*
X0157538Y0261138D03*
D38*
X0151633Y0265488D03*
X0150314Y0272201D03*
X0157203Y0272004D03*
X0159959Y0271610D03*
X0160550Y0268421D03*
X0164684Y0272004D03*
X0168424Y0271610D03*
X0166093Y0278339D03*
X0168062Y0280307D03*
X0161959Y0280110D03*
X0159203Y0280504D03*
X0156054Y0280504D03*
X0162550Y0276921D03*
X0221814Y0226201D03*
X0225357Y0226004D03*
X0231459Y0225807D03*
X0235199Y0226004D03*
X0235396Y0223839D03*
X0233133Y0218488D03*
X0248192Y0226004D03*
X0254491Y0225610D03*
X0254491Y0222854D03*
X0296357Y0222504D03*
X0302459Y0222307D03*
X0306199Y0222504D03*
X0306396Y0220339D03*
X0305010Y0214201D03*
X0305010Y0213217D03*
X0304814Y0213020D03*
X0309341Y0211839D03*
X0316633Y0218921D03*
X0319192Y0218921D03*
X0320963Y0222307D03*
X0261955Y0261354D03*
X0261955Y0261551D03*
X0261955Y0261709D03*
X0261955Y0261906D03*
X0261955Y0262339D03*
X0261955Y0262535D03*
X0261955Y0262693D03*
X0261955Y0262890D03*
X0261955Y0263323D03*
X0261955Y0263520D03*
X0261955Y0263717D03*
X0261955Y0265685D03*
X0259199Y0263717D03*
X0259199Y0263520D03*
X0259199Y0263323D03*
X0259199Y0262890D03*
X0256444Y0263323D03*
X0256444Y0263520D03*
X0254278Y0265488D03*
X0251916Y0262693D03*
X0252113Y0262535D03*
X0249357Y0261906D03*
X0246404Y0261551D03*
X0246404Y0261354D03*
X0245026Y0265488D03*
X0245026Y0265685D03*
X0247782Y0265685D03*
X0247782Y0265488D03*
X0250341Y0265882D03*
X0255747Y0253839D03*
D39*
X0247479Y0253622D03*
X0256444Y0262122D03*
X0250357Y0224606D03*
X0250357Y0223622D03*
X0250357Y0222638D03*
X0246026Y0223622D03*
X0235396Y0222638D03*
X0226932Y0223622D03*
X0297932Y0220122D03*
X0306396Y0219138D03*
X0317026Y0220122D03*
X0321357Y0219138D03*
X0323129Y0219138D03*
X0323129Y0220122D03*
X0323129Y0221106D03*
X0157629Y0278122D03*
X0153404Y0262122D03*
D40*
X0160589Y0262122D03*
X0174034Y0268638D03*
X0147885Y0277138D03*
X0145688Y0268638D03*
X0217188Y0222638D03*
X0236184Y0215122D03*
X0241007Y0222638D03*
X0244550Y0224606D03*
X0260101Y0222638D03*
X0288188Y0219138D03*
X0308259Y0211622D03*
X0315550Y0221106D03*
X0265794Y0261138D03*
X0254664Y0253622D03*
D41*
X0258995Y0253622D03*
X0265991Y0262122D03*
X0260495Y0224606D03*
X0240711Y0215122D03*
X0216991Y0223622D03*
X0165117Y0262122D03*
X0174231Y0269622D03*
X0147491Y0279106D03*
X0145491Y0269622D03*
X0287991Y0220122D03*
X0312589Y0211622D03*
X0328936Y0220122D03*
X0329133Y0221106D03*
D42*
X0250341Y0263106D03*
X0244526Y0252638D03*
D43*
X0255058Y0252638D03*
X0240022Y0224606D03*
X0236577Y0214138D03*
X0308652Y0210638D03*
X0311219Y0220122D03*
X0311022Y0221106D03*
X0167144Y0269622D03*
X0160983Y0261138D03*
X0152412Y0278122D03*
D44*
X0171605Y0277138D03*
X0258699Y0252638D03*
X0311908Y0219138D03*
X0312294Y0210638D03*
D45*
X0253589Y0259583D03*
X0253589Y0267457D03*
X0159696Y0283260D03*
D46*
X0253589Y0267260D03*
D47*
X0253589Y0267063D03*
X0253589Y0259937D03*
X0159696Y0276370D03*
X0159696Y0282669D03*
D48*
X0159696Y0282472D03*
X0159696Y0276567D03*
X0253589Y0266866D03*
D49*
X0253589Y0266669D03*
X0253589Y0260370D03*
X0159696Y0276724D03*
D50*
X0253589Y0266472D03*
X0253589Y0260567D03*
D51*
X0253589Y0260724D03*
X0253589Y0266276D03*
X0159861Y0267083D03*
X0159861Y0274957D03*
D52*
X0241483Y0262535D03*
X0241483Y0262339D03*
X0241680Y0261906D03*
X0241680Y0261709D03*
X0241877Y0261551D03*
X0241877Y0261354D03*
X0246404Y0266079D03*
X0248192Y0226201D03*
X0297932Y0223882D03*
X0327262Y0218370D03*
D53*
X0311219Y0222504D03*
X0303928Y0215185D03*
X0292715Y0223488D03*
X0240219Y0225020D03*
X0232640Y0217701D03*
X0232640Y0217504D03*
X0232640Y0217307D03*
X0232640Y0217110D03*
X0250440Y0266079D03*
X0168522Y0272004D03*
X0152412Y0281488D03*
X0151140Y0264701D03*
X0151140Y0264504D03*
X0151140Y0264307D03*
X0151140Y0264110D03*
D54*
X0257247Y0226201D03*
X0262152Y0266079D03*
D55*
X0266089Y0264701D03*
X0266089Y0264504D03*
X0266089Y0264307D03*
X0266089Y0264110D03*
X0266089Y0263913D03*
X0266089Y0263717D03*
X0266089Y0263520D03*
X0266089Y0263323D03*
X0266089Y0262890D03*
X0266089Y0262693D03*
X0266089Y0262535D03*
X0266089Y0262339D03*
X0241089Y0264504D03*
X0241089Y0264701D03*
X0260396Y0225413D03*
X0260396Y0225217D03*
X0260396Y0224035D03*
X0260199Y0223406D03*
X0241105Y0222421D03*
X0216892Y0223839D03*
X0216892Y0224035D03*
X0216892Y0224193D03*
X0216892Y0224390D03*
X0216892Y0224823D03*
X0216892Y0225020D03*
X0216892Y0225217D03*
X0216892Y0225413D03*
X0216892Y0225610D03*
X0216892Y0225807D03*
X0216892Y0226004D03*
X0216892Y0226201D03*
X0174329Y0270035D03*
X0174329Y0270193D03*
X0174329Y0270390D03*
X0174329Y0270823D03*
X0174329Y0271020D03*
X0174329Y0271217D03*
X0174329Y0271413D03*
X0174329Y0271610D03*
X0174329Y0271807D03*
X0174329Y0272004D03*
X0171802Y0279520D03*
X0171802Y0280504D03*
X0145392Y0272004D03*
X0145392Y0271807D03*
X0145392Y0271610D03*
X0145392Y0271413D03*
X0145392Y0271217D03*
X0145392Y0271020D03*
X0145392Y0270823D03*
X0145392Y0270390D03*
X0145392Y0270193D03*
X0145392Y0270035D03*
X0287892Y0222701D03*
X0287892Y0222504D03*
X0287892Y0222307D03*
X0287892Y0222110D03*
X0287892Y0221913D03*
X0287892Y0221717D03*
X0287892Y0221520D03*
X0287892Y0221323D03*
X0287892Y0220890D03*
X0287892Y0220693D03*
X0287892Y0220535D03*
X0287892Y0220339D03*
X0312105Y0218921D03*
X0329034Y0221520D03*
X0329034Y0221717D03*
D56*
X0328936Y0221913D03*
X0326967Y0217937D03*
X0260298Y0225610D03*
X0241188Y0263913D03*
X0241188Y0264110D03*
X0241188Y0264307D03*
X0171507Y0278339D03*
X0171703Y0279323D03*
D57*
X0153790Y0279520D03*
X0152412Y0279913D03*
X0151034Y0279520D03*
X0151790Y0271217D03*
X0151731Y0266079D03*
X0150550Y0263717D03*
X0223290Y0225217D03*
X0233231Y0219079D03*
X0232050Y0216717D03*
X0237463Y0223209D03*
X0237463Y0225217D03*
X0291337Y0221520D03*
X0292715Y0221913D03*
X0308463Y0221717D03*
X0308463Y0219709D03*
X0318699Y0222307D03*
X0259888Y0263913D03*
X0244928Y0263520D03*
D58*
X0241286Y0263520D03*
X0241286Y0263717D03*
X0241286Y0263323D03*
X0260199Y0225807D03*
X0260199Y0223839D03*
X0328837Y0222110D03*
X0157629Y0280701D03*
X0157629Y0280898D03*
X0157629Y0281094D03*
X0157629Y0281291D03*
X0157629Y0281488D03*
X0157629Y0281685D03*
D59*
X0241385Y0263106D03*
X0241581Y0262122D03*
X0241975Y0261138D03*
X0327164Y0218154D03*
D60*
X0254491Y0224606D03*
X0252522Y0223622D03*
X0248192Y0223622D03*
X0246404Y0263106D03*
X0170392Y0269622D03*
X0159794Y0278122D03*
X0159794Y0279106D03*
X0151133Y0279106D03*
D61*
X0153593Y0279106D03*
X0155562Y0279106D03*
X0155562Y0278122D03*
X0157696Y0270606D03*
X0157696Y0269622D03*
X0155530Y0269622D03*
X0153365Y0269622D03*
X0153365Y0270606D03*
X0151593Y0270606D03*
X0149034Y0270606D03*
X0162026Y0269622D03*
X0164192Y0269622D03*
X0164192Y0270606D03*
X0168325Y0270606D03*
X0165995Y0277138D03*
X0220534Y0224606D03*
X0223093Y0224606D03*
X0224865Y0224606D03*
X0224865Y0223622D03*
X0229196Y0223622D03*
X0229196Y0224606D03*
X0254589Y0223622D03*
X0291534Y0221106D03*
X0294093Y0221106D03*
X0295865Y0221106D03*
X0295865Y0220122D03*
X0300196Y0220122D03*
X0300196Y0221106D03*
X0321259Y0221106D03*
X0321259Y0220122D03*
X0254377Y0262122D03*
X0254180Y0263106D03*
D62*
X0266089Y0263106D03*
X0216892Y0224606D03*
X0174329Y0270606D03*
X0171605Y0278122D03*
X0145392Y0270606D03*
X0287892Y0221106D03*
D63*
X0298030Y0222701D03*
X0298030Y0222898D03*
X0298030Y0223094D03*
X0298030Y0223291D03*
X0298030Y0223488D03*
X0298030Y0223685D03*
X0328739Y0222307D03*
X0260101Y0226004D03*
X0248290Y0226398D03*
X0248290Y0226594D03*
X0248290Y0226791D03*
X0248290Y0226988D03*
X0227030Y0226988D03*
X0227030Y0226791D03*
X0227030Y0226594D03*
X0227030Y0226398D03*
X0227030Y0226201D03*
X0227030Y0227185D03*
X0227030Y0227382D03*
X0242172Y0260921D03*
X0241385Y0262693D03*
X0241385Y0262890D03*
X0171507Y0278535D03*
X0171507Y0278693D03*
X0171507Y0278890D03*
X0157530Y0281882D03*
X0155530Y0273382D03*
X0155530Y0273185D03*
X0155530Y0272988D03*
X0155530Y0272791D03*
X0155530Y0272594D03*
X0155530Y0272398D03*
X0155530Y0272201D03*
D64*
X0246306Y0261138D03*
X0259101Y0262122D03*
D65*
X0254278Y0261138D03*
X0254491Y0222638D03*
X0241597Y0216106D03*
X0304420Y0212606D03*
X0166003Y0263106D03*
D66*
X0253589Y0260154D03*
D67*
X0253589Y0259760D03*
D68*
X0110412Y0206406D03*
X0106829Y0206406D03*
X0101979Y0206902D03*
X0100995Y0204539D03*
X0100444Y0202177D03*
X0099223Y0206902D03*
X0099026Y0212217D03*
X0105058Y0200106D03*
X0110412Y0200106D03*
X0105255Y0194594D03*
D69*
X0097451Y0191646D03*
X0098829Y0202472D03*
X0100010Y0202276D03*
X0099420Y0206803D03*
X0101782Y0206803D03*
X0105058Y0206504D03*
X0100010Y0210150D03*
X0099026Y0210150D03*
X0099223Y0212118D03*
X0101979Y0212118D03*
D70*
X0102412Y0212413D03*
X0102412Y0210051D03*
X0099026Y0206902D03*
X0099026Y0204539D03*
X0099223Y0204539D03*
X0099617Y0200012D03*
X0098633Y0200012D03*
X0105255Y0200106D03*
X0105451Y0200106D03*
X0105648Y0200106D03*
X0105845Y0200106D03*
X0106042Y0200106D03*
X0106239Y0200106D03*
X0106436Y0200106D03*
X0106633Y0200106D03*
X0106829Y0200106D03*
X0108444Y0200106D03*
X0108640Y0200106D03*
X0108798Y0200106D03*
X0108798Y0201878D03*
X0108640Y0201878D03*
X0108444Y0201878D03*
X0108010Y0201878D03*
X0107814Y0201878D03*
X0107617Y0201878D03*
X0107420Y0201878D03*
X0107223Y0201878D03*
X0107026Y0201878D03*
X0106829Y0201878D03*
X0106633Y0201878D03*
X0108995Y0201878D03*
X0108444Y0204634D03*
X0108798Y0204831D03*
X0107026Y0204634D03*
X0106829Y0204634D03*
X0106633Y0204634D03*
X0108995Y0197744D03*
X0108798Y0197547D03*
X0108640Y0197547D03*
X0108444Y0197547D03*
X0108444Y0195972D03*
X0108798Y0195776D03*
X0108995Y0195776D03*
X0108010Y0195972D03*
X0107814Y0195972D03*
X0107617Y0195972D03*
X0107420Y0195972D03*
X0107026Y0195776D03*
X0106829Y0195776D03*
X0106829Y0193413D03*
X0107223Y0193217D03*
X0107420Y0193217D03*
X0107617Y0193217D03*
X0107814Y0193217D03*
X0108010Y0193217D03*
X0108444Y0193217D03*
X0108640Y0193217D03*
X0108798Y0193413D03*
X0108995Y0193413D03*
D71*
X0105451Y0194594D03*
X0105255Y0202862D03*
X0107617Y0204043D03*
X0107814Y0204043D03*
X0108010Y0204240D03*
D72*
X0108640Y0204732D03*
X0108995Y0204732D03*
X0108995Y0206504D03*
X0108798Y0206504D03*
X0108640Y0206504D03*
X0108444Y0206504D03*
X0108010Y0206504D03*
X0107814Y0206504D03*
X0107617Y0206504D03*
X0107420Y0206504D03*
X0107223Y0206504D03*
X0107026Y0206504D03*
X0106042Y0206504D03*
X0105845Y0206504D03*
X0105648Y0206504D03*
X0105451Y0206504D03*
X0105255Y0206504D03*
X0109428Y0206504D03*
X0109625Y0206504D03*
X0109782Y0206504D03*
X0109979Y0206504D03*
X0100798Y0204441D03*
X0100640Y0204441D03*
X0100444Y0204441D03*
X0100010Y0204441D03*
X0099814Y0204441D03*
X0099617Y0204441D03*
X0099420Y0204441D03*
X0100640Y0202079D03*
X0106829Y0198630D03*
X0107223Y0195874D03*
X0108640Y0195874D03*
X0107026Y0193315D03*
X0110412Y0198630D03*
X0098829Y0209953D03*
D73*
X0105451Y0202961D03*
X0100444Y0196567D03*
X0100010Y0196567D03*
X0099617Y0196567D03*
X0099420Y0196567D03*
X0106042Y0194496D03*
D74*
X0105648Y0194594D03*
X0102412Y0197059D03*
X0100798Y0209264D03*
X0100640Y0209264D03*
X0100444Y0209264D03*
D75*
X0102412Y0215465D03*
X0101979Y0215661D03*
X0105648Y0202961D03*
X0101625Y0201094D03*
X0101428Y0201094D03*
X0107420Y0199024D03*
X0107617Y0199024D03*
X0109625Y0199024D03*
X0109782Y0199024D03*
X0106436Y0194496D03*
X0097648Y0184756D03*
X0097451Y0184756D03*
D76*
X0105845Y0194594D03*
X0109782Y0194594D03*
X0109979Y0194594D03*
X0107026Y0199319D03*
X0110412Y0202862D03*
X0099814Y0196665D03*
D77*
X0101782Y0201193D03*
X0105845Y0203059D03*
X0109979Y0203059D03*
X0109428Y0198925D03*
X0108010Y0198925D03*
X0107814Y0198925D03*
X0098042Y0184657D03*
X0097845Y0184657D03*
X0101625Y0215760D03*
X0101782Y0215760D03*
D78*
X0106042Y0203157D03*
X0106239Y0203157D03*
X0109782Y0203157D03*
X0101979Y0201291D03*
D79*
X0107223Y0199122D03*
X0109979Y0199122D03*
X0109625Y0194594D03*
X0109428Y0194594D03*
X0106239Y0194594D03*
D80*
X0098042Y0191646D03*
X0097845Y0191646D03*
X0097648Y0191646D03*
X0100010Y0206606D03*
X0100444Y0206606D03*
X0100640Y0206606D03*
X0100798Y0206606D03*
X0100995Y0206606D03*
X0101625Y0210346D03*
X0101782Y0210346D03*
X0101625Y0211921D03*
X0099617Y0211921D03*
X0099420Y0210346D03*
X0106239Y0206504D03*
D81*
X0106436Y0203256D03*
X0109428Y0203256D03*
X0109625Y0203256D03*
X0101428Y0215760D03*
X0098239Y0184657D03*
D82*
X0106633Y0193512D03*
X0106633Y0195677D03*
X0108995Y0200008D03*
X0100798Y0201882D03*
X0099420Y0200110D03*
X0099223Y0200110D03*
X0099026Y0200110D03*
X0098829Y0200110D03*
X0098829Y0204441D03*
D83*
X0098829Y0207098D03*
X0102412Y0207098D03*
X0107223Y0204437D03*
X0110412Y0194594D03*
D84*
X0100995Y0201685D03*
X0107420Y0204142D03*
D85*
X0108227Y0201878D03*
X0108227Y0197744D03*
X0108227Y0195972D03*
X0108227Y0193217D03*
X0102196Y0206902D03*
D86*
X0108227Y0200008D03*
X0109211Y0195677D03*
X0109211Y0193512D03*
D87*
X0108227Y0204240D03*
D88*
X0108227Y0206504D03*
X0109211Y0206504D03*
X0110196Y0206504D03*
X0100227Y0204441D03*
X0100227Y0208772D03*
D89*
X0109211Y0198925D03*
D90*
X0109211Y0203256D03*
X0102196Y0201390D03*
D91*
X0110196Y0194594D03*
D92*
X0110196Y0199319D03*
D93*
X0110196Y0202961D03*
X0102196Y0215661D03*
D94*
X0101782Y0212020D03*
X0101979Y0210248D03*
X0101428Y0210248D03*
X0099814Y0210248D03*
X0099617Y0210248D03*
X0099223Y0210248D03*
X0100010Y0208673D03*
X0099814Y0206705D03*
X0099617Y0206705D03*
X0101428Y0206705D03*
X0101625Y0206705D03*
X0102412Y0204933D03*
X0099814Y0202374D03*
X0099617Y0202374D03*
X0099420Y0202374D03*
X0099223Y0202374D03*
X0099026Y0202374D03*
X0099420Y0212020D03*
X0110609Y0194594D03*
X0098239Y0191547D03*
D95*
X0164723Y0261138D03*
X0152412Y0277138D03*
X0240318Y0214138D03*
X0303731Y0211622D03*
D96*
X0308463Y0225457D03*
D97*
X0308463Y0225260D03*
D98*
X0308463Y0225063D03*
D99*
X0308463Y0224866D03*
X0238644Y0221083D03*
X0238644Y0228957D03*
D100*
X0308463Y0224669D03*
D101*
X0308463Y0224472D03*
D102*
X0293699Y0224276D03*
X0293503Y0224079D03*
X0222699Y0227776D03*
X0222503Y0227579D03*
X0151199Y0273776D03*
X0151003Y0273579D03*
X0153199Y0282079D03*
D103*
X0309546Y0224276D03*
D104*
X0326377Y0224276D03*
X0326573Y0224079D03*
D105*
X0308168Y0224079D03*
X0237168Y0227579D03*
D106*
X0236873Y0227382D03*
X0307873Y0223882D03*
X0324802Y0223094D03*
X0324802Y0222898D03*
X0167373Y0281291D03*
X0167373Y0281488D03*
D107*
X0326672Y0223882D03*
X0326672Y0223685D03*
D108*
X0307676Y0223685D03*
X0236676Y0227185D03*
X0167176Y0282079D03*
X0166979Y0282276D03*
D109*
X0307479Y0223488D03*
D110*
X0326770Y0223488D03*
X0326770Y0223291D03*
D111*
X0307381Y0223291D03*
X0236381Y0226594D03*
X0236381Y0226791D03*
D112*
X0236282Y0226398D03*
X0307282Y0223094D03*
D113*
X0307184Y0222898D03*
X0307184Y0222701D03*
X0236184Y0226201D03*
D114*
X0167471Y0280701D03*
X0167471Y0280898D03*
X0167471Y0281094D03*
X0324900Y0222701D03*
D115*
X0328542Y0222504D03*
X0327361Y0218567D03*
X0248093Y0227185D03*
D116*
X0252424Y0224606D03*
X0244156Y0223622D03*
X0235692Y0224606D03*
X0231755Y0222638D03*
X0231164Y0223622D03*
X0231164Y0224606D03*
X0170294Y0270606D03*
X0162026Y0270606D03*
X0159664Y0270606D03*
X0162451Y0277138D03*
X0161861Y0278122D03*
X0161664Y0279106D03*
X0166388Y0279106D03*
X0302164Y0221106D03*
X0302164Y0220122D03*
X0302755Y0219138D03*
X0306692Y0221106D03*
X0316928Y0219138D03*
X0325196Y0221106D03*
D117*
X0305412Y0220122D03*
X0292814Y0220122D03*
X0292814Y0219138D03*
X0240318Y0223622D03*
X0234412Y0223622D03*
X0221814Y0223622D03*
X0221814Y0222638D03*
X0150314Y0268638D03*
X0150314Y0269622D03*
X0165109Y0278122D03*
D118*
X0328345Y0219138D03*
D119*
X0327558Y0218921D03*
D120*
X0305117Y0218724D03*
D121*
X0327459Y0218724D03*
X0247995Y0227382D03*
D122*
X0305215Y0218567D03*
D123*
X0305314Y0218370D03*
D124*
X0305412Y0218154D03*
D125*
X0305609Y0217937D03*
D126*
X0305806Y0217760D03*
D127*
X0326770Y0217760D03*
D128*
X0306003Y0217583D03*
D129*
X0238644Y0228760D03*
D130*
X0238546Y0228563D03*
D131*
X0238644Y0228366D03*
D132*
X0238644Y0228169D03*
X0238644Y0221870D03*
D133*
X0238644Y0222067D03*
X0238644Y0227972D03*
D134*
X0240711Y0227776D03*
D135*
X0256558Y0227776D03*
X0256755Y0227579D03*
X0256951Y0227382D03*
X0256951Y0227185D03*
D136*
X0247601Y0227579D03*
D137*
X0236577Y0226988D03*
D138*
X0257050Y0226988D03*
D139*
X0257148Y0226791D03*
X0257148Y0226594D03*
X0257148Y0226398D03*
D140*
X0259215Y0223622D03*
D141*
X0248684Y0222638D03*
D142*
X0238644Y0222224D03*
D143*
X0238644Y0221654D03*
D144*
X0238644Y0221437D03*
D145*
X0238644Y0221260D03*
D146*
X0103751Y0200209D03*
X0095877Y0200209D03*
D147*
X0096073Y0200209D03*
D148*
X0096270Y0200209D03*
X0103396Y0200209D03*
D149*
X0096467Y0200209D03*
D150*
X0096664Y0200209D03*
X0102963Y0200209D03*
D151*
X0102766Y0200209D03*
X0096861Y0200209D03*
D152*
X0097058Y0197059D03*
D153*
X0101625Y0185543D03*
X0101782Y0185543D03*
X0097058Y0214283D03*
X0097255Y0214480D03*
D154*
X0097255Y0196961D03*
D155*
X0097451Y0196961D03*
X0097648Y0196961D03*
X0097845Y0196961D03*
X0098042Y0196961D03*
X0098239Y0196961D03*
X0098436Y0196961D03*
X0101428Y0196961D03*
X0101625Y0196961D03*
X0101782Y0196961D03*
X0101979Y0196961D03*
X0101979Y0190661D03*
X0101782Y0190661D03*
X0101625Y0190661D03*
X0101428Y0190661D03*
X0100995Y0190661D03*
X0100798Y0190661D03*
X0100640Y0190661D03*
X0100444Y0190661D03*
X0100010Y0190661D03*
X0099814Y0190661D03*
X0099617Y0190661D03*
X0099420Y0190661D03*
X0099223Y0190661D03*
X0099026Y0190661D03*
X0098829Y0190661D03*
X0098633Y0190661D03*
X0098436Y0190661D03*
X0100995Y0209362D03*
D156*
X0097451Y0205819D03*
D157*
X0097451Y0214579D03*
X0097648Y0214579D03*
X0098436Y0185445D03*
X0098633Y0185445D03*
X0100995Y0185445D03*
X0101428Y0185445D03*
D158*
X0097648Y0205917D03*
D159*
X0097845Y0206114D03*
X0098042Y0206114D03*
D160*
X0098042Y0214677D03*
X0097845Y0214677D03*
X0098829Y0185346D03*
X0099026Y0185346D03*
X0099223Y0185346D03*
X0099420Y0185346D03*
X0099617Y0185346D03*
X0099814Y0185346D03*
X0100010Y0185346D03*
X0100444Y0185346D03*
X0100640Y0185346D03*
X0100798Y0185346D03*
D161*
X0098239Y0206213D03*
D162*
X0098239Y0214776D03*
X0098436Y0214776D03*
X0098633Y0214776D03*
D163*
X0098633Y0206311D03*
X0098436Y0206311D03*
D164*
X0100640Y0215465D03*
X0100640Y0195583D03*
X0100798Y0195583D03*
X0100995Y0195583D03*
X0099026Y0195583D03*
X0098829Y0195583D03*
X0098633Y0195583D03*
D165*
X0098829Y0214874D03*
D166*
X0099026Y0215661D03*
X0102412Y0201488D03*
D167*
X0099223Y0195681D03*
X0100444Y0215563D03*
X0100798Y0215563D03*
D168*
X0100995Y0215563D03*
X0100010Y0215760D03*
X0099223Y0215760D03*
D169*
X0099420Y0215858D03*
X0099617Y0215858D03*
X0099814Y0215858D03*
D170*
X0100227Y0185346D03*
D171*
X0100227Y0190661D03*
X0101211Y0190661D03*
X0102196Y0190661D03*
X0102196Y0196961D03*
D172*
X0100227Y0196567D03*
D173*
X0100227Y0202276D03*
X0101211Y0210150D03*
D174*
X0101211Y0206606D03*
X0100227Y0206606D03*
X0101211Y0204441D03*
D175*
X0100227Y0210051D03*
X0102196Y0210248D03*
X0102196Y0212217D03*
D176*
X0100227Y0215661D03*
D177*
X0101211Y0185445D03*
D178*
X0101211Y0195681D03*
D179*
X0101211Y0200996D03*
D180*
X0101211Y0208673D03*
D181*
X0101211Y0215661D03*
D182*
X0102412Y0185839D03*
X0101979Y0185642D03*
D183*
X0102196Y0185642D03*
D184*
X0102196Y0205130D03*
D185*
X0102412Y0190661D03*
D186*
X0102609Y0200209D03*
D187*
X0103180Y0200209D03*
D188*
X0103573Y0200209D03*
D189*
X0159861Y0274760D03*
D190*
X0159861Y0274563D03*
X0159861Y0267437D03*
D191*
X0159861Y0274366D03*
D192*
X0159861Y0274169D03*
X0159861Y0267870D03*
D193*
X0159861Y0268067D03*
X0159861Y0273972D03*
D194*
X0167440Y0273776D03*
D195*
X0167440Y0273579D03*
X0167440Y0273382D03*
X0167440Y0273185D03*
X0167440Y0272988D03*
X0167440Y0272791D03*
X0167440Y0272594D03*
X0167440Y0272398D03*
X0167440Y0272201D03*
D196*
X0159861Y0268224D03*
D197*
X0159861Y0267654D03*
D198*
X0159861Y0267260D03*
D199*
X0159696Y0275583D03*
X0159696Y0283457D03*
D200*
X0159696Y0283063D03*
X0159696Y0275937D03*
D201*
X0159696Y0282866D03*
D202*
X0153298Y0282276D03*
D203*
X0167274Y0281882D03*
X0167274Y0281685D03*
D204*
X0171605Y0279106D03*
D205*
X0159696Y0276154D03*
D206*
X0159696Y0275760D03*
D207*
X0291609Y0274945D03*
X0292711Y0273055D03*
X0292711Y0272898D03*
X0293814Y0274945D03*
X0295861Y0275732D03*
X0299168Y0275260D03*
X0298853Y0274157D03*
X0298853Y0274000D03*
X0299168Y0272583D03*
X0302475Y0272583D03*
X0304050Y0272898D03*
X0304050Y0273213D03*
X0305467Y0272110D03*
X0305940Y0273213D03*
X0307357Y0274945D03*
X0305782Y0275575D03*
X0302633Y0274945D03*
X0303428Y0269705D03*
X0308467Y0269705D03*
X0308467Y0268287D03*
X0308467Y0265453D03*
X0303428Y0265453D03*
X0298388Y0266398D03*
X0298546Y0267028D03*
X0311294Y0273685D03*
D208*
X0307278Y0274315D03*
X0306018Y0273370D03*
X0304129Y0273055D03*
X0302396Y0272425D03*
X0300822Y0273055D03*
X0300822Y0273213D03*
X0300822Y0274630D03*
X0300822Y0274787D03*
X0302554Y0275102D03*
X0305861Y0275732D03*
X0303349Y0269547D03*
X0302247Y0268287D03*
X0302247Y0265453D03*
X0307129Y0266713D03*
X0307129Y0266870D03*
X0308546Y0268917D03*
X0299089Y0272425D03*
X0297357Y0272898D03*
X0297199Y0274630D03*
X0297357Y0274787D03*
X0297357Y0274945D03*
X0295625Y0274787D03*
X0293892Y0275102D03*
X0293892Y0275260D03*
X0291688Y0275260D03*
X0291688Y0275102D03*
X0292790Y0272740D03*
X0294530Y0269547D03*
X0293585Y0268130D03*
X0293585Y0267972D03*
X0293585Y0267815D03*
X0293585Y0267657D03*
X0295633Y0268130D03*
X0297050Y0266240D03*
X0297050Y0265610D03*
X0297050Y0265453D03*
X0299089Y0275417D03*
D209*
X0295231Y0272268D03*
X0292711Y0271953D03*
X0294609Y0269390D03*
X0295081Y0267185D03*
X0294924Y0267028D03*
X0294451Y0266713D03*
X0294294Y0266555D03*
X0299333Y0269547D03*
X0304995Y0274787D03*
X0306255Y0273685D03*
X0308774Y0273055D03*
X0311294Y0272583D03*
X0305633Y0269547D03*
X0306577Y0267657D03*
X0306577Y0267500D03*
X0306577Y0267343D03*
X0306735Y0267185D03*
D210*
X0307050Y0267028D03*
X0307050Y0266555D03*
X0308467Y0266555D03*
X0308467Y0266398D03*
X0308467Y0266240D03*
X0308467Y0266083D03*
X0308467Y0265925D03*
X0308467Y0265768D03*
X0308467Y0265610D03*
X0308467Y0266713D03*
X0308467Y0266870D03*
X0308467Y0267028D03*
X0308467Y0267185D03*
X0308467Y0267343D03*
X0308467Y0267500D03*
X0308467Y0267657D03*
X0308467Y0267815D03*
X0308467Y0267972D03*
X0308467Y0268130D03*
X0308467Y0269075D03*
X0308467Y0269232D03*
X0308467Y0269390D03*
X0308467Y0269547D03*
X0307050Y0268287D03*
X0307050Y0268130D03*
X0304845Y0268130D03*
X0304845Y0268287D03*
X0304845Y0268445D03*
X0304845Y0267972D03*
X0304845Y0267815D03*
X0304845Y0267657D03*
X0304845Y0267500D03*
X0304845Y0267343D03*
X0304845Y0267185D03*
X0304845Y0267028D03*
X0304845Y0266870D03*
X0304845Y0266713D03*
X0304845Y0266555D03*
X0303428Y0266713D03*
X0303428Y0266870D03*
X0303428Y0267028D03*
X0303428Y0268287D03*
X0303428Y0268445D03*
X0303428Y0268602D03*
X0303428Y0268760D03*
X0303428Y0268917D03*
X0303428Y0269075D03*
X0303428Y0269232D03*
X0303428Y0269390D03*
X0302475Y0272268D03*
X0300743Y0273370D03*
X0300743Y0273528D03*
X0300743Y0273685D03*
X0300743Y0274157D03*
X0300743Y0274315D03*
X0300743Y0274472D03*
X0302633Y0275260D03*
X0305467Y0274157D03*
X0307199Y0274157D03*
X0307357Y0274472D03*
X0307357Y0274630D03*
X0307357Y0274787D03*
X0301381Y0267028D03*
X0301381Y0266870D03*
X0301381Y0266713D03*
X0300121Y0266713D03*
X0300121Y0266870D03*
X0299963Y0267028D03*
X0300121Y0266555D03*
X0299963Y0266398D03*
X0298546Y0268287D03*
X0298546Y0268445D03*
X0297129Y0266083D03*
X0297129Y0265768D03*
X0295554Y0267815D03*
X0295554Y0267972D03*
X0295554Y0268287D03*
X0295554Y0268445D03*
X0293664Y0268445D03*
X0293664Y0268287D03*
X0292711Y0272583D03*
X0295231Y0273055D03*
X0295231Y0273213D03*
X0295703Y0274630D03*
X0293814Y0275417D03*
X0291609Y0275417D03*
X0297278Y0273055D03*
D211*
X0299333Y0269390D03*
X0299333Y0269232D03*
X0299333Y0269075D03*
X0299176Y0268602D03*
X0299018Y0267657D03*
X0302640Y0265610D03*
X0305633Y0265453D03*
X0311294Y0271953D03*
X0294609Y0269075D03*
D212*
X0295310Y0271953D03*
X0299255Y0268917D03*
X0299255Y0268760D03*
X0299097Y0267500D03*
X0299097Y0265925D03*
X0302719Y0268130D03*
X0305711Y0269390D03*
X0306333Y0274000D03*
X0309640Y0275732D03*
X0302869Y0275890D03*
D213*
X0302790Y0275732D03*
X0304837Y0274472D03*
X0306255Y0273843D03*
X0311294Y0272268D03*
X0299010Y0271953D03*
X0295861Y0273843D03*
X0294609Y0269232D03*
D214*
X0296255Y0273528D03*
X0299089Y0276047D03*
X0288696Y0275890D03*
X0288696Y0275732D03*
X0302562Y0267815D03*
X0302562Y0267657D03*
X0302562Y0266083D03*
X0302562Y0265925D03*
X0305711Y0265610D03*
X0305711Y0269232D03*
X0314522Y0271953D03*
X0314680Y0272110D03*
X0314837Y0272425D03*
X0309483Y0275890D03*
D215*
X0314759Y0272583D03*
X0305790Y0269075D03*
X0305790Y0265768D03*
X0302483Y0266240D03*
X0302483Y0266398D03*
X0302483Y0267343D03*
X0302483Y0267500D03*
X0294609Y0268602D03*
X0294766Y0265453D03*
X0288617Y0275417D03*
X0288617Y0275575D03*
D216*
X0294609Y0268917D03*
X0294609Y0268760D03*
X0294609Y0266398D03*
X0299176Y0266240D03*
X0299176Y0266083D03*
X0299176Y0267185D03*
X0299176Y0267343D03*
X0302640Y0267972D03*
X0302640Y0265768D03*
X0314759Y0272268D03*
D217*
X0314837Y0272740D03*
X0305869Y0268917D03*
X0305869Y0268760D03*
X0305869Y0268602D03*
X0305869Y0266083D03*
X0305869Y0265925D03*
X0294688Y0265925D03*
X0294688Y0265768D03*
X0294688Y0265610D03*
X0294688Y0266083D03*
X0294688Y0266240D03*
X0288538Y0275102D03*
X0288538Y0275260D03*
X0289010Y0276047D03*
D218*
X0291609Y0274472D03*
X0292711Y0273528D03*
X0292711Y0273370D03*
X0293814Y0274472D03*
X0295703Y0275260D03*
X0299010Y0274787D03*
X0299010Y0274630D03*
X0299010Y0274472D03*
X0299010Y0273685D03*
X0299010Y0273528D03*
X0299168Y0272898D03*
X0302475Y0272898D03*
X0302475Y0273055D03*
X0302475Y0273213D03*
X0302475Y0273370D03*
X0302475Y0274472D03*
X0305625Y0272740D03*
X0305625Y0272583D03*
X0305782Y0272898D03*
X0309247Y0272740D03*
X0311294Y0273843D03*
X0311294Y0274000D03*
X0308467Y0268760D03*
X0299176Y0265295D03*
X0298388Y0266555D03*
D219*
X0297050Y0265925D03*
X0295475Y0267657D03*
X0292790Y0272268D03*
X0292790Y0272425D03*
X0295152Y0272740D03*
X0295152Y0272898D03*
X0295310Y0273370D03*
X0297199Y0273370D03*
X0297357Y0273213D03*
X0299089Y0272268D03*
X0300822Y0273843D03*
X0300822Y0274000D03*
X0299089Y0275575D03*
X0295940Y0275890D03*
X0293892Y0275732D03*
X0293892Y0275575D03*
X0291688Y0275575D03*
X0291688Y0275732D03*
X0302711Y0275417D03*
X0306018Y0275890D03*
X0309483Y0274315D03*
X0309483Y0274157D03*
X0309325Y0274000D03*
X0309325Y0273843D03*
X0309168Y0273685D03*
X0305388Y0271953D03*
X0306971Y0268445D03*
X0306814Y0267972D03*
X0303349Y0267185D03*
X0303349Y0266555D03*
X0301459Y0266555D03*
X0301459Y0267185D03*
D220*
X0298703Y0268130D03*
X0295396Y0267500D03*
X0295239Y0267343D03*
X0295231Y0272583D03*
X0292711Y0272110D03*
X0293814Y0275890D03*
X0302475Y0272110D03*
X0305152Y0274315D03*
X0305152Y0274945D03*
X0306097Y0273528D03*
X0309089Y0273528D03*
X0309562Y0274472D03*
X0309562Y0274630D03*
D221*
X0309640Y0275102D03*
X0309640Y0275260D03*
X0308538Y0272898D03*
X0311373Y0272425D03*
X0304916Y0274630D03*
X0302396Y0271953D03*
X0298940Y0267972D03*
X0299097Y0265610D03*
X0294688Y0266870D03*
X0295310Y0272110D03*
X0295940Y0274000D03*
X0295940Y0274157D03*
X0295940Y0274315D03*
X0296097Y0274472D03*
X0295940Y0276047D03*
X0299089Y0275890D03*
D222*
X0295940Y0273685D03*
X0298940Y0267815D03*
X0299097Y0265768D03*
X0311373Y0272110D03*
X0309640Y0275417D03*
X0309640Y0275575D03*
D223*
X0309640Y0274945D03*
X0309640Y0274787D03*
X0309010Y0273370D03*
X0308853Y0273213D03*
X0311373Y0272740D03*
X0306656Y0267815D03*
X0299097Y0265453D03*
X0299089Y0272110D03*
X0295152Y0272425D03*
X0291688Y0275890D03*
X0299089Y0275732D03*
X0302711Y0275575D03*
D224*
X0303892Y0274315D03*
X0302475Y0273528D03*
X0309089Y0272268D03*
X0311294Y0274157D03*
X0298546Y0266870D03*
X0293814Y0274000D03*
X0292711Y0273843D03*
X0291609Y0274000D03*
D225*
X0291688Y0274630D03*
X0291688Y0274787D03*
X0292790Y0273213D03*
X0293892Y0274630D03*
X0293892Y0274787D03*
X0295625Y0274945D03*
X0295625Y0275102D03*
X0295782Y0275417D03*
X0295782Y0275575D03*
X0299089Y0275102D03*
X0299089Y0274945D03*
X0298932Y0274315D03*
X0298932Y0273843D03*
X0299089Y0272740D03*
X0300822Y0272898D03*
X0302396Y0272740D03*
X0304129Y0273370D03*
X0305546Y0272425D03*
X0305546Y0272268D03*
X0305861Y0273055D03*
X0305546Y0275102D03*
X0305703Y0275260D03*
X0305703Y0275417D03*
X0302554Y0274787D03*
X0302554Y0274630D03*
X0300822Y0274945D03*
X0309168Y0271953D03*
X0297050Y0266398D03*
D226*
X0305948Y0266398D03*
X0305948Y0266240D03*
X0314759Y0272898D03*
X0314759Y0273055D03*
X0288617Y0274945D03*
D227*
X0301688Y0277150D03*
X0301688Y0270850D03*
D228*
X0301688Y0271008D03*
X0301688Y0276992D03*
D229*
X0301688Y0276835D03*
X0301688Y0271165D03*
D230*
X0301688Y0271323D03*
X0301688Y0276677D03*
D231*
X0301688Y0276520D03*
X0301688Y0271480D03*
D232*
X0301688Y0271638D03*
X0301688Y0276362D03*
D233*
X0301688Y0276205D03*
X0301688Y0271795D03*
D234*
X0292790Y0276047D03*
X0288853Y0273213D03*
X0289010Y0272740D03*
X0314522Y0274157D03*
X0314522Y0274315D03*
D235*
X0304050Y0276047D03*
D236*
X0311845Y0276047D03*
D237*
X0313892Y0275890D03*
X0313892Y0275732D03*
X0314050Y0275575D03*
X0314050Y0275417D03*
X0314207Y0275260D03*
X0314207Y0275102D03*
X0314365Y0274787D03*
D238*
X0309168Y0272583D03*
X0309168Y0272425D03*
X0309168Y0272110D03*
X0304129Y0272740D03*
X0302554Y0273685D03*
X0302554Y0273843D03*
X0302554Y0274000D03*
X0302554Y0274157D03*
X0302554Y0274315D03*
X0299089Y0273370D03*
X0299089Y0273213D03*
X0299089Y0273055D03*
X0297357Y0275102D03*
X0293892Y0274315D03*
X0293892Y0274157D03*
X0292790Y0273685D03*
X0291688Y0274157D03*
X0291688Y0274315D03*
D239*
X0314286Y0274945D03*
X0314444Y0274630D03*
X0314444Y0274472D03*
D240*
X0288538Y0274630D03*
X0288538Y0274787D03*
D241*
X0288617Y0274472D03*
X0288617Y0274315D03*
X0314759Y0273370D03*
X0314759Y0273213D03*
D242*
X0314680Y0273528D03*
X0314680Y0273685D03*
X0288696Y0273843D03*
X0288696Y0274000D03*
X0288696Y0274157D03*
D243*
X0288774Y0273685D03*
X0288774Y0273528D03*
X0288774Y0273370D03*
X0288932Y0273055D03*
X0288932Y0272898D03*
X0289089Y0272583D03*
X0289089Y0272425D03*
X0289247Y0272268D03*
X0289247Y0272110D03*
X0289404Y0271953D03*
X0314601Y0273843D03*
X0314601Y0274000D03*
M02*
