G75*
%MOIN*%
%OFA0B0*%
%FSLAX25Y25*%
%IPPOS*%
%LPD*%
%AMOC8*
5,1,8,0,0,1.08239X$1,22.5*
%
%ADD10C,0.00800*%
%ADD11C,0.00600*%
%ADD12C,0.00000*%
D10*
X0179404Y0137900D02*
X0180806Y0140702D01*
X0182607Y0140002D02*
X0185410Y0140002D01*
X0187211Y0140002D02*
X0187912Y0140702D01*
X0190013Y0140702D01*
X0189313Y0139301D02*
X0187912Y0139301D01*
X0187211Y0140002D01*
X0187211Y0137900D02*
X0189313Y0137900D01*
X0190013Y0138601D01*
X0189313Y0139301D01*
X0191815Y0138601D02*
X0192516Y0137900D01*
X0194617Y0137900D01*
X0196419Y0138601D02*
X0197120Y0137900D01*
X0198521Y0137900D01*
X0199221Y0138601D01*
X0199221Y0140002D01*
X0198521Y0140702D01*
X0197120Y0140702D01*
X0196419Y0140002D01*
X0196419Y0138601D01*
X0194617Y0140702D02*
X0192516Y0140702D01*
X0191815Y0140002D01*
X0191815Y0138601D01*
X0201023Y0139301D02*
X0202424Y0140702D01*
X0203125Y0140702D01*
X0204859Y0140002D02*
X0205560Y0140702D01*
X0206961Y0140702D01*
X0207662Y0140002D01*
X0207662Y0139301D01*
X0204859Y0139301D01*
X0204859Y0138601D02*
X0204859Y0140002D01*
X0204859Y0138601D02*
X0205560Y0137900D01*
X0206961Y0137900D01*
X0201023Y0137900D02*
X0201023Y0140702D01*
X0179404Y0137900D02*
X0178003Y0140702D01*
X0093333Y0155000D02*
X0093333Y0295000D01*
X0333333Y0295000D01*
X0333333Y0155000D01*
X0093333Y0155000D01*
X0077631Y0229670D02*
X0080433Y0231071D01*
X0077631Y0232472D01*
X0078332Y0234274D02*
X0078332Y0237076D01*
X0078332Y0238878D02*
X0077631Y0239578D01*
X0077631Y0241680D01*
X0079032Y0240980D02*
X0079032Y0239578D01*
X0078332Y0238878D01*
X0080433Y0238878D02*
X0080433Y0240980D01*
X0079733Y0241680D01*
X0079032Y0240980D01*
X0078332Y0243482D02*
X0079733Y0243482D01*
X0080433Y0244182D01*
X0080433Y0246284D01*
X0079733Y0248086D02*
X0080433Y0248786D01*
X0080433Y0250187D01*
X0079733Y0250888D01*
X0078332Y0250888D01*
X0077631Y0250187D01*
X0077631Y0248786D01*
X0078332Y0248086D01*
X0079733Y0248086D01*
X0077631Y0246284D02*
X0077631Y0244182D01*
X0078332Y0243482D01*
X0079032Y0252690D02*
X0077631Y0254091D01*
X0077631Y0254791D01*
X0078332Y0256526D02*
X0077631Y0257227D01*
X0077631Y0258628D01*
X0078332Y0259329D01*
X0079032Y0259329D01*
X0079032Y0256526D01*
X0078332Y0256526D02*
X0079733Y0256526D01*
X0080433Y0257227D01*
X0080433Y0258628D01*
X0080433Y0252690D02*
X0077631Y0252690D01*
X0268003Y0140702D02*
X0269404Y0137900D01*
X0270806Y0140702D01*
X0272607Y0140002D02*
X0275410Y0140002D01*
X0277211Y0140002D02*
X0277912Y0140702D01*
X0280013Y0140702D01*
X0279313Y0139301D02*
X0280013Y0138601D01*
X0279313Y0137900D01*
X0277211Y0137900D01*
X0277912Y0139301D02*
X0277211Y0140002D01*
X0277912Y0139301D02*
X0279313Y0139301D01*
X0281815Y0138601D02*
X0282516Y0137900D01*
X0284617Y0137900D01*
X0286419Y0138601D02*
X0287120Y0137900D01*
X0288521Y0137900D01*
X0289221Y0138601D01*
X0289221Y0140002D01*
X0288521Y0140702D01*
X0287120Y0140702D01*
X0286419Y0140002D01*
X0286419Y0138601D01*
X0284617Y0140702D02*
X0282516Y0140702D01*
X0281815Y0140002D01*
X0281815Y0138601D01*
X0291023Y0139301D02*
X0292424Y0140702D01*
X0293125Y0140702D01*
X0294859Y0140002D02*
X0295560Y0140702D01*
X0296961Y0140702D01*
X0297662Y0140002D01*
X0297662Y0139301D01*
X0294859Y0139301D01*
X0294859Y0138601D02*
X0294859Y0140002D01*
X0294859Y0138601D02*
X0295560Y0137900D01*
X0296961Y0137900D01*
X0291023Y0137900D02*
X0291023Y0140702D01*
D11*
X0283333Y0145000D02*
X0283333Y0305000D01*
X0343333Y0245000D02*
X0083333Y0245000D01*
X0193333Y0305000D02*
X0193333Y0145000D01*
D12*
X0176833Y0165000D02*
X0176835Y0165161D01*
X0176841Y0165321D01*
X0176851Y0165482D01*
X0176865Y0165642D01*
X0176883Y0165802D01*
X0176904Y0165961D01*
X0176930Y0166120D01*
X0176960Y0166278D01*
X0176993Y0166435D01*
X0177031Y0166592D01*
X0177072Y0166747D01*
X0177117Y0166901D01*
X0177166Y0167054D01*
X0177219Y0167206D01*
X0177275Y0167357D01*
X0177336Y0167506D01*
X0177399Y0167654D01*
X0177467Y0167800D01*
X0177538Y0167944D01*
X0177612Y0168086D01*
X0177690Y0168227D01*
X0177772Y0168365D01*
X0177857Y0168502D01*
X0177945Y0168636D01*
X0178037Y0168768D01*
X0178132Y0168898D01*
X0178230Y0169026D01*
X0178331Y0169151D01*
X0178435Y0169273D01*
X0178542Y0169393D01*
X0178652Y0169510D01*
X0178765Y0169625D01*
X0178881Y0169736D01*
X0179000Y0169845D01*
X0179121Y0169950D01*
X0179245Y0170053D01*
X0179371Y0170153D01*
X0179499Y0170249D01*
X0179630Y0170342D01*
X0179764Y0170432D01*
X0179899Y0170519D01*
X0180037Y0170602D01*
X0180176Y0170682D01*
X0180318Y0170758D01*
X0180461Y0170831D01*
X0180606Y0170900D01*
X0180753Y0170966D01*
X0180901Y0171028D01*
X0181051Y0171086D01*
X0181202Y0171141D01*
X0181355Y0171192D01*
X0181509Y0171239D01*
X0181664Y0171282D01*
X0181820Y0171321D01*
X0181976Y0171357D01*
X0182134Y0171388D01*
X0182292Y0171416D01*
X0182451Y0171440D01*
X0182611Y0171460D01*
X0182771Y0171476D01*
X0182931Y0171488D01*
X0183092Y0171496D01*
X0183253Y0171500D01*
X0183413Y0171500D01*
X0183574Y0171496D01*
X0183735Y0171488D01*
X0183895Y0171476D01*
X0184055Y0171460D01*
X0184215Y0171440D01*
X0184374Y0171416D01*
X0184532Y0171388D01*
X0184690Y0171357D01*
X0184846Y0171321D01*
X0185002Y0171282D01*
X0185157Y0171239D01*
X0185311Y0171192D01*
X0185464Y0171141D01*
X0185615Y0171086D01*
X0185765Y0171028D01*
X0185913Y0170966D01*
X0186060Y0170900D01*
X0186205Y0170831D01*
X0186348Y0170758D01*
X0186490Y0170682D01*
X0186629Y0170602D01*
X0186767Y0170519D01*
X0186902Y0170432D01*
X0187036Y0170342D01*
X0187167Y0170249D01*
X0187295Y0170153D01*
X0187421Y0170053D01*
X0187545Y0169950D01*
X0187666Y0169845D01*
X0187785Y0169736D01*
X0187901Y0169625D01*
X0188014Y0169510D01*
X0188124Y0169393D01*
X0188231Y0169273D01*
X0188335Y0169151D01*
X0188436Y0169026D01*
X0188534Y0168898D01*
X0188629Y0168768D01*
X0188721Y0168636D01*
X0188809Y0168502D01*
X0188894Y0168365D01*
X0188976Y0168227D01*
X0189054Y0168086D01*
X0189128Y0167944D01*
X0189199Y0167800D01*
X0189267Y0167654D01*
X0189330Y0167506D01*
X0189391Y0167357D01*
X0189447Y0167206D01*
X0189500Y0167054D01*
X0189549Y0166901D01*
X0189594Y0166747D01*
X0189635Y0166592D01*
X0189673Y0166435D01*
X0189706Y0166278D01*
X0189736Y0166120D01*
X0189762Y0165961D01*
X0189783Y0165802D01*
X0189801Y0165642D01*
X0189815Y0165482D01*
X0189825Y0165321D01*
X0189831Y0165161D01*
X0189833Y0165000D01*
X0189831Y0164839D01*
X0189825Y0164679D01*
X0189815Y0164518D01*
X0189801Y0164358D01*
X0189783Y0164198D01*
X0189762Y0164039D01*
X0189736Y0163880D01*
X0189706Y0163722D01*
X0189673Y0163565D01*
X0189635Y0163408D01*
X0189594Y0163253D01*
X0189549Y0163099D01*
X0189500Y0162946D01*
X0189447Y0162794D01*
X0189391Y0162643D01*
X0189330Y0162494D01*
X0189267Y0162346D01*
X0189199Y0162200D01*
X0189128Y0162056D01*
X0189054Y0161914D01*
X0188976Y0161773D01*
X0188894Y0161635D01*
X0188809Y0161498D01*
X0188721Y0161364D01*
X0188629Y0161232D01*
X0188534Y0161102D01*
X0188436Y0160974D01*
X0188335Y0160849D01*
X0188231Y0160727D01*
X0188124Y0160607D01*
X0188014Y0160490D01*
X0187901Y0160375D01*
X0187785Y0160264D01*
X0187666Y0160155D01*
X0187545Y0160050D01*
X0187421Y0159947D01*
X0187295Y0159847D01*
X0187167Y0159751D01*
X0187036Y0159658D01*
X0186902Y0159568D01*
X0186767Y0159481D01*
X0186629Y0159398D01*
X0186490Y0159318D01*
X0186348Y0159242D01*
X0186205Y0159169D01*
X0186060Y0159100D01*
X0185913Y0159034D01*
X0185765Y0158972D01*
X0185615Y0158914D01*
X0185464Y0158859D01*
X0185311Y0158808D01*
X0185157Y0158761D01*
X0185002Y0158718D01*
X0184846Y0158679D01*
X0184690Y0158643D01*
X0184532Y0158612D01*
X0184374Y0158584D01*
X0184215Y0158560D01*
X0184055Y0158540D01*
X0183895Y0158524D01*
X0183735Y0158512D01*
X0183574Y0158504D01*
X0183413Y0158500D01*
X0183253Y0158500D01*
X0183092Y0158504D01*
X0182931Y0158512D01*
X0182771Y0158524D01*
X0182611Y0158540D01*
X0182451Y0158560D01*
X0182292Y0158584D01*
X0182134Y0158612D01*
X0181976Y0158643D01*
X0181820Y0158679D01*
X0181664Y0158718D01*
X0181509Y0158761D01*
X0181355Y0158808D01*
X0181202Y0158859D01*
X0181051Y0158914D01*
X0180901Y0158972D01*
X0180753Y0159034D01*
X0180606Y0159100D01*
X0180461Y0159169D01*
X0180318Y0159242D01*
X0180176Y0159318D01*
X0180037Y0159398D01*
X0179899Y0159481D01*
X0179764Y0159568D01*
X0179630Y0159658D01*
X0179499Y0159751D01*
X0179371Y0159847D01*
X0179245Y0159947D01*
X0179121Y0160050D01*
X0179000Y0160155D01*
X0178881Y0160264D01*
X0178765Y0160375D01*
X0178652Y0160490D01*
X0178542Y0160607D01*
X0178435Y0160727D01*
X0178331Y0160849D01*
X0178230Y0160974D01*
X0178132Y0161102D01*
X0178037Y0161232D01*
X0177945Y0161364D01*
X0177857Y0161498D01*
X0177772Y0161635D01*
X0177690Y0161773D01*
X0177612Y0161914D01*
X0177538Y0162056D01*
X0177467Y0162200D01*
X0177399Y0162346D01*
X0177336Y0162494D01*
X0177275Y0162643D01*
X0177219Y0162794D01*
X0177166Y0162946D01*
X0177117Y0163099D01*
X0177072Y0163253D01*
X0177031Y0163408D01*
X0176993Y0163565D01*
X0176960Y0163722D01*
X0176930Y0163880D01*
X0176904Y0164039D01*
X0176883Y0164198D01*
X0176865Y0164358D01*
X0176851Y0164518D01*
X0176841Y0164679D01*
X0176835Y0164839D01*
X0176833Y0165000D01*
X0096833Y0165000D02*
X0096835Y0165161D01*
X0096841Y0165321D01*
X0096851Y0165482D01*
X0096865Y0165642D01*
X0096883Y0165802D01*
X0096904Y0165961D01*
X0096930Y0166120D01*
X0096960Y0166278D01*
X0096993Y0166435D01*
X0097031Y0166592D01*
X0097072Y0166747D01*
X0097117Y0166901D01*
X0097166Y0167054D01*
X0097219Y0167206D01*
X0097275Y0167357D01*
X0097336Y0167506D01*
X0097399Y0167654D01*
X0097467Y0167800D01*
X0097538Y0167944D01*
X0097612Y0168086D01*
X0097690Y0168227D01*
X0097772Y0168365D01*
X0097857Y0168502D01*
X0097945Y0168636D01*
X0098037Y0168768D01*
X0098132Y0168898D01*
X0098230Y0169026D01*
X0098331Y0169151D01*
X0098435Y0169273D01*
X0098542Y0169393D01*
X0098652Y0169510D01*
X0098765Y0169625D01*
X0098881Y0169736D01*
X0099000Y0169845D01*
X0099121Y0169950D01*
X0099245Y0170053D01*
X0099371Y0170153D01*
X0099499Y0170249D01*
X0099630Y0170342D01*
X0099764Y0170432D01*
X0099899Y0170519D01*
X0100037Y0170602D01*
X0100176Y0170682D01*
X0100318Y0170758D01*
X0100461Y0170831D01*
X0100606Y0170900D01*
X0100753Y0170966D01*
X0100901Y0171028D01*
X0101051Y0171086D01*
X0101202Y0171141D01*
X0101355Y0171192D01*
X0101509Y0171239D01*
X0101664Y0171282D01*
X0101820Y0171321D01*
X0101976Y0171357D01*
X0102134Y0171388D01*
X0102292Y0171416D01*
X0102451Y0171440D01*
X0102611Y0171460D01*
X0102771Y0171476D01*
X0102931Y0171488D01*
X0103092Y0171496D01*
X0103253Y0171500D01*
X0103413Y0171500D01*
X0103574Y0171496D01*
X0103735Y0171488D01*
X0103895Y0171476D01*
X0104055Y0171460D01*
X0104215Y0171440D01*
X0104374Y0171416D01*
X0104532Y0171388D01*
X0104690Y0171357D01*
X0104846Y0171321D01*
X0105002Y0171282D01*
X0105157Y0171239D01*
X0105311Y0171192D01*
X0105464Y0171141D01*
X0105615Y0171086D01*
X0105765Y0171028D01*
X0105913Y0170966D01*
X0106060Y0170900D01*
X0106205Y0170831D01*
X0106348Y0170758D01*
X0106490Y0170682D01*
X0106629Y0170602D01*
X0106767Y0170519D01*
X0106902Y0170432D01*
X0107036Y0170342D01*
X0107167Y0170249D01*
X0107295Y0170153D01*
X0107421Y0170053D01*
X0107545Y0169950D01*
X0107666Y0169845D01*
X0107785Y0169736D01*
X0107901Y0169625D01*
X0108014Y0169510D01*
X0108124Y0169393D01*
X0108231Y0169273D01*
X0108335Y0169151D01*
X0108436Y0169026D01*
X0108534Y0168898D01*
X0108629Y0168768D01*
X0108721Y0168636D01*
X0108809Y0168502D01*
X0108894Y0168365D01*
X0108976Y0168227D01*
X0109054Y0168086D01*
X0109128Y0167944D01*
X0109199Y0167800D01*
X0109267Y0167654D01*
X0109330Y0167506D01*
X0109391Y0167357D01*
X0109447Y0167206D01*
X0109500Y0167054D01*
X0109549Y0166901D01*
X0109594Y0166747D01*
X0109635Y0166592D01*
X0109673Y0166435D01*
X0109706Y0166278D01*
X0109736Y0166120D01*
X0109762Y0165961D01*
X0109783Y0165802D01*
X0109801Y0165642D01*
X0109815Y0165482D01*
X0109825Y0165321D01*
X0109831Y0165161D01*
X0109833Y0165000D01*
X0109831Y0164839D01*
X0109825Y0164679D01*
X0109815Y0164518D01*
X0109801Y0164358D01*
X0109783Y0164198D01*
X0109762Y0164039D01*
X0109736Y0163880D01*
X0109706Y0163722D01*
X0109673Y0163565D01*
X0109635Y0163408D01*
X0109594Y0163253D01*
X0109549Y0163099D01*
X0109500Y0162946D01*
X0109447Y0162794D01*
X0109391Y0162643D01*
X0109330Y0162494D01*
X0109267Y0162346D01*
X0109199Y0162200D01*
X0109128Y0162056D01*
X0109054Y0161914D01*
X0108976Y0161773D01*
X0108894Y0161635D01*
X0108809Y0161498D01*
X0108721Y0161364D01*
X0108629Y0161232D01*
X0108534Y0161102D01*
X0108436Y0160974D01*
X0108335Y0160849D01*
X0108231Y0160727D01*
X0108124Y0160607D01*
X0108014Y0160490D01*
X0107901Y0160375D01*
X0107785Y0160264D01*
X0107666Y0160155D01*
X0107545Y0160050D01*
X0107421Y0159947D01*
X0107295Y0159847D01*
X0107167Y0159751D01*
X0107036Y0159658D01*
X0106902Y0159568D01*
X0106767Y0159481D01*
X0106629Y0159398D01*
X0106490Y0159318D01*
X0106348Y0159242D01*
X0106205Y0159169D01*
X0106060Y0159100D01*
X0105913Y0159034D01*
X0105765Y0158972D01*
X0105615Y0158914D01*
X0105464Y0158859D01*
X0105311Y0158808D01*
X0105157Y0158761D01*
X0105002Y0158718D01*
X0104846Y0158679D01*
X0104690Y0158643D01*
X0104532Y0158612D01*
X0104374Y0158584D01*
X0104215Y0158560D01*
X0104055Y0158540D01*
X0103895Y0158524D01*
X0103735Y0158512D01*
X0103574Y0158504D01*
X0103413Y0158500D01*
X0103253Y0158500D01*
X0103092Y0158504D01*
X0102931Y0158512D01*
X0102771Y0158524D01*
X0102611Y0158540D01*
X0102451Y0158560D01*
X0102292Y0158584D01*
X0102134Y0158612D01*
X0101976Y0158643D01*
X0101820Y0158679D01*
X0101664Y0158718D01*
X0101509Y0158761D01*
X0101355Y0158808D01*
X0101202Y0158859D01*
X0101051Y0158914D01*
X0100901Y0158972D01*
X0100753Y0159034D01*
X0100606Y0159100D01*
X0100461Y0159169D01*
X0100318Y0159242D01*
X0100176Y0159318D01*
X0100037Y0159398D01*
X0099899Y0159481D01*
X0099764Y0159568D01*
X0099630Y0159658D01*
X0099499Y0159751D01*
X0099371Y0159847D01*
X0099245Y0159947D01*
X0099121Y0160050D01*
X0099000Y0160155D01*
X0098881Y0160264D01*
X0098765Y0160375D01*
X0098652Y0160490D01*
X0098542Y0160607D01*
X0098435Y0160727D01*
X0098331Y0160849D01*
X0098230Y0160974D01*
X0098132Y0161102D01*
X0098037Y0161232D01*
X0097945Y0161364D01*
X0097857Y0161498D01*
X0097772Y0161635D01*
X0097690Y0161773D01*
X0097612Y0161914D01*
X0097538Y0162056D01*
X0097467Y0162200D01*
X0097399Y0162346D01*
X0097336Y0162494D01*
X0097275Y0162643D01*
X0097219Y0162794D01*
X0097166Y0162946D01*
X0097117Y0163099D01*
X0097072Y0163253D01*
X0097031Y0163408D01*
X0096993Y0163565D01*
X0096960Y0163722D01*
X0096930Y0163880D01*
X0096904Y0164039D01*
X0096883Y0164198D01*
X0096865Y0164358D01*
X0096851Y0164518D01*
X0096841Y0164679D01*
X0096835Y0164839D01*
X0096833Y0165000D01*
X0096833Y0235000D02*
X0096835Y0235161D01*
X0096841Y0235321D01*
X0096851Y0235482D01*
X0096865Y0235642D01*
X0096883Y0235802D01*
X0096904Y0235961D01*
X0096930Y0236120D01*
X0096960Y0236278D01*
X0096993Y0236435D01*
X0097031Y0236592D01*
X0097072Y0236747D01*
X0097117Y0236901D01*
X0097166Y0237054D01*
X0097219Y0237206D01*
X0097275Y0237357D01*
X0097336Y0237506D01*
X0097399Y0237654D01*
X0097467Y0237800D01*
X0097538Y0237944D01*
X0097612Y0238086D01*
X0097690Y0238227D01*
X0097772Y0238365D01*
X0097857Y0238502D01*
X0097945Y0238636D01*
X0098037Y0238768D01*
X0098132Y0238898D01*
X0098230Y0239026D01*
X0098331Y0239151D01*
X0098435Y0239273D01*
X0098542Y0239393D01*
X0098652Y0239510D01*
X0098765Y0239625D01*
X0098881Y0239736D01*
X0099000Y0239845D01*
X0099121Y0239950D01*
X0099245Y0240053D01*
X0099371Y0240153D01*
X0099499Y0240249D01*
X0099630Y0240342D01*
X0099764Y0240432D01*
X0099899Y0240519D01*
X0100037Y0240602D01*
X0100176Y0240682D01*
X0100318Y0240758D01*
X0100461Y0240831D01*
X0100606Y0240900D01*
X0100753Y0240966D01*
X0100901Y0241028D01*
X0101051Y0241086D01*
X0101202Y0241141D01*
X0101355Y0241192D01*
X0101509Y0241239D01*
X0101664Y0241282D01*
X0101820Y0241321D01*
X0101976Y0241357D01*
X0102134Y0241388D01*
X0102292Y0241416D01*
X0102451Y0241440D01*
X0102611Y0241460D01*
X0102771Y0241476D01*
X0102931Y0241488D01*
X0103092Y0241496D01*
X0103253Y0241500D01*
X0103413Y0241500D01*
X0103574Y0241496D01*
X0103735Y0241488D01*
X0103895Y0241476D01*
X0104055Y0241460D01*
X0104215Y0241440D01*
X0104374Y0241416D01*
X0104532Y0241388D01*
X0104690Y0241357D01*
X0104846Y0241321D01*
X0105002Y0241282D01*
X0105157Y0241239D01*
X0105311Y0241192D01*
X0105464Y0241141D01*
X0105615Y0241086D01*
X0105765Y0241028D01*
X0105913Y0240966D01*
X0106060Y0240900D01*
X0106205Y0240831D01*
X0106348Y0240758D01*
X0106490Y0240682D01*
X0106629Y0240602D01*
X0106767Y0240519D01*
X0106902Y0240432D01*
X0107036Y0240342D01*
X0107167Y0240249D01*
X0107295Y0240153D01*
X0107421Y0240053D01*
X0107545Y0239950D01*
X0107666Y0239845D01*
X0107785Y0239736D01*
X0107901Y0239625D01*
X0108014Y0239510D01*
X0108124Y0239393D01*
X0108231Y0239273D01*
X0108335Y0239151D01*
X0108436Y0239026D01*
X0108534Y0238898D01*
X0108629Y0238768D01*
X0108721Y0238636D01*
X0108809Y0238502D01*
X0108894Y0238365D01*
X0108976Y0238227D01*
X0109054Y0238086D01*
X0109128Y0237944D01*
X0109199Y0237800D01*
X0109267Y0237654D01*
X0109330Y0237506D01*
X0109391Y0237357D01*
X0109447Y0237206D01*
X0109500Y0237054D01*
X0109549Y0236901D01*
X0109594Y0236747D01*
X0109635Y0236592D01*
X0109673Y0236435D01*
X0109706Y0236278D01*
X0109736Y0236120D01*
X0109762Y0235961D01*
X0109783Y0235802D01*
X0109801Y0235642D01*
X0109815Y0235482D01*
X0109825Y0235321D01*
X0109831Y0235161D01*
X0109833Y0235000D01*
X0109831Y0234839D01*
X0109825Y0234679D01*
X0109815Y0234518D01*
X0109801Y0234358D01*
X0109783Y0234198D01*
X0109762Y0234039D01*
X0109736Y0233880D01*
X0109706Y0233722D01*
X0109673Y0233565D01*
X0109635Y0233408D01*
X0109594Y0233253D01*
X0109549Y0233099D01*
X0109500Y0232946D01*
X0109447Y0232794D01*
X0109391Y0232643D01*
X0109330Y0232494D01*
X0109267Y0232346D01*
X0109199Y0232200D01*
X0109128Y0232056D01*
X0109054Y0231914D01*
X0108976Y0231773D01*
X0108894Y0231635D01*
X0108809Y0231498D01*
X0108721Y0231364D01*
X0108629Y0231232D01*
X0108534Y0231102D01*
X0108436Y0230974D01*
X0108335Y0230849D01*
X0108231Y0230727D01*
X0108124Y0230607D01*
X0108014Y0230490D01*
X0107901Y0230375D01*
X0107785Y0230264D01*
X0107666Y0230155D01*
X0107545Y0230050D01*
X0107421Y0229947D01*
X0107295Y0229847D01*
X0107167Y0229751D01*
X0107036Y0229658D01*
X0106902Y0229568D01*
X0106767Y0229481D01*
X0106629Y0229398D01*
X0106490Y0229318D01*
X0106348Y0229242D01*
X0106205Y0229169D01*
X0106060Y0229100D01*
X0105913Y0229034D01*
X0105765Y0228972D01*
X0105615Y0228914D01*
X0105464Y0228859D01*
X0105311Y0228808D01*
X0105157Y0228761D01*
X0105002Y0228718D01*
X0104846Y0228679D01*
X0104690Y0228643D01*
X0104532Y0228612D01*
X0104374Y0228584D01*
X0104215Y0228560D01*
X0104055Y0228540D01*
X0103895Y0228524D01*
X0103735Y0228512D01*
X0103574Y0228504D01*
X0103413Y0228500D01*
X0103253Y0228500D01*
X0103092Y0228504D01*
X0102931Y0228512D01*
X0102771Y0228524D01*
X0102611Y0228540D01*
X0102451Y0228560D01*
X0102292Y0228584D01*
X0102134Y0228612D01*
X0101976Y0228643D01*
X0101820Y0228679D01*
X0101664Y0228718D01*
X0101509Y0228761D01*
X0101355Y0228808D01*
X0101202Y0228859D01*
X0101051Y0228914D01*
X0100901Y0228972D01*
X0100753Y0229034D01*
X0100606Y0229100D01*
X0100461Y0229169D01*
X0100318Y0229242D01*
X0100176Y0229318D01*
X0100037Y0229398D01*
X0099899Y0229481D01*
X0099764Y0229568D01*
X0099630Y0229658D01*
X0099499Y0229751D01*
X0099371Y0229847D01*
X0099245Y0229947D01*
X0099121Y0230050D01*
X0099000Y0230155D01*
X0098881Y0230264D01*
X0098765Y0230375D01*
X0098652Y0230490D01*
X0098542Y0230607D01*
X0098435Y0230727D01*
X0098331Y0230849D01*
X0098230Y0230974D01*
X0098132Y0231102D01*
X0098037Y0231232D01*
X0097945Y0231364D01*
X0097857Y0231498D01*
X0097772Y0231635D01*
X0097690Y0231773D01*
X0097612Y0231914D01*
X0097538Y0232056D01*
X0097467Y0232200D01*
X0097399Y0232346D01*
X0097336Y0232494D01*
X0097275Y0232643D01*
X0097219Y0232794D01*
X0097166Y0232946D01*
X0097117Y0233099D01*
X0097072Y0233253D01*
X0097031Y0233408D01*
X0096993Y0233565D01*
X0096960Y0233722D01*
X0096930Y0233880D01*
X0096904Y0234039D01*
X0096883Y0234198D01*
X0096865Y0234358D01*
X0096851Y0234518D01*
X0096841Y0234679D01*
X0096835Y0234839D01*
X0096833Y0235000D01*
X0176833Y0235000D02*
X0176835Y0235161D01*
X0176841Y0235321D01*
X0176851Y0235482D01*
X0176865Y0235642D01*
X0176883Y0235802D01*
X0176904Y0235961D01*
X0176930Y0236120D01*
X0176960Y0236278D01*
X0176993Y0236435D01*
X0177031Y0236592D01*
X0177072Y0236747D01*
X0177117Y0236901D01*
X0177166Y0237054D01*
X0177219Y0237206D01*
X0177275Y0237357D01*
X0177336Y0237506D01*
X0177399Y0237654D01*
X0177467Y0237800D01*
X0177538Y0237944D01*
X0177612Y0238086D01*
X0177690Y0238227D01*
X0177772Y0238365D01*
X0177857Y0238502D01*
X0177945Y0238636D01*
X0178037Y0238768D01*
X0178132Y0238898D01*
X0178230Y0239026D01*
X0178331Y0239151D01*
X0178435Y0239273D01*
X0178542Y0239393D01*
X0178652Y0239510D01*
X0178765Y0239625D01*
X0178881Y0239736D01*
X0179000Y0239845D01*
X0179121Y0239950D01*
X0179245Y0240053D01*
X0179371Y0240153D01*
X0179499Y0240249D01*
X0179630Y0240342D01*
X0179764Y0240432D01*
X0179899Y0240519D01*
X0180037Y0240602D01*
X0180176Y0240682D01*
X0180318Y0240758D01*
X0180461Y0240831D01*
X0180606Y0240900D01*
X0180753Y0240966D01*
X0180901Y0241028D01*
X0181051Y0241086D01*
X0181202Y0241141D01*
X0181355Y0241192D01*
X0181509Y0241239D01*
X0181664Y0241282D01*
X0181820Y0241321D01*
X0181976Y0241357D01*
X0182134Y0241388D01*
X0182292Y0241416D01*
X0182451Y0241440D01*
X0182611Y0241460D01*
X0182771Y0241476D01*
X0182931Y0241488D01*
X0183092Y0241496D01*
X0183253Y0241500D01*
X0183413Y0241500D01*
X0183574Y0241496D01*
X0183735Y0241488D01*
X0183895Y0241476D01*
X0184055Y0241460D01*
X0184215Y0241440D01*
X0184374Y0241416D01*
X0184532Y0241388D01*
X0184690Y0241357D01*
X0184846Y0241321D01*
X0185002Y0241282D01*
X0185157Y0241239D01*
X0185311Y0241192D01*
X0185464Y0241141D01*
X0185615Y0241086D01*
X0185765Y0241028D01*
X0185913Y0240966D01*
X0186060Y0240900D01*
X0186205Y0240831D01*
X0186348Y0240758D01*
X0186490Y0240682D01*
X0186629Y0240602D01*
X0186767Y0240519D01*
X0186902Y0240432D01*
X0187036Y0240342D01*
X0187167Y0240249D01*
X0187295Y0240153D01*
X0187421Y0240053D01*
X0187545Y0239950D01*
X0187666Y0239845D01*
X0187785Y0239736D01*
X0187901Y0239625D01*
X0188014Y0239510D01*
X0188124Y0239393D01*
X0188231Y0239273D01*
X0188335Y0239151D01*
X0188436Y0239026D01*
X0188534Y0238898D01*
X0188629Y0238768D01*
X0188721Y0238636D01*
X0188809Y0238502D01*
X0188894Y0238365D01*
X0188976Y0238227D01*
X0189054Y0238086D01*
X0189128Y0237944D01*
X0189199Y0237800D01*
X0189267Y0237654D01*
X0189330Y0237506D01*
X0189391Y0237357D01*
X0189447Y0237206D01*
X0189500Y0237054D01*
X0189549Y0236901D01*
X0189594Y0236747D01*
X0189635Y0236592D01*
X0189673Y0236435D01*
X0189706Y0236278D01*
X0189736Y0236120D01*
X0189762Y0235961D01*
X0189783Y0235802D01*
X0189801Y0235642D01*
X0189815Y0235482D01*
X0189825Y0235321D01*
X0189831Y0235161D01*
X0189833Y0235000D01*
X0189831Y0234839D01*
X0189825Y0234679D01*
X0189815Y0234518D01*
X0189801Y0234358D01*
X0189783Y0234198D01*
X0189762Y0234039D01*
X0189736Y0233880D01*
X0189706Y0233722D01*
X0189673Y0233565D01*
X0189635Y0233408D01*
X0189594Y0233253D01*
X0189549Y0233099D01*
X0189500Y0232946D01*
X0189447Y0232794D01*
X0189391Y0232643D01*
X0189330Y0232494D01*
X0189267Y0232346D01*
X0189199Y0232200D01*
X0189128Y0232056D01*
X0189054Y0231914D01*
X0188976Y0231773D01*
X0188894Y0231635D01*
X0188809Y0231498D01*
X0188721Y0231364D01*
X0188629Y0231232D01*
X0188534Y0231102D01*
X0188436Y0230974D01*
X0188335Y0230849D01*
X0188231Y0230727D01*
X0188124Y0230607D01*
X0188014Y0230490D01*
X0187901Y0230375D01*
X0187785Y0230264D01*
X0187666Y0230155D01*
X0187545Y0230050D01*
X0187421Y0229947D01*
X0187295Y0229847D01*
X0187167Y0229751D01*
X0187036Y0229658D01*
X0186902Y0229568D01*
X0186767Y0229481D01*
X0186629Y0229398D01*
X0186490Y0229318D01*
X0186348Y0229242D01*
X0186205Y0229169D01*
X0186060Y0229100D01*
X0185913Y0229034D01*
X0185765Y0228972D01*
X0185615Y0228914D01*
X0185464Y0228859D01*
X0185311Y0228808D01*
X0185157Y0228761D01*
X0185002Y0228718D01*
X0184846Y0228679D01*
X0184690Y0228643D01*
X0184532Y0228612D01*
X0184374Y0228584D01*
X0184215Y0228560D01*
X0184055Y0228540D01*
X0183895Y0228524D01*
X0183735Y0228512D01*
X0183574Y0228504D01*
X0183413Y0228500D01*
X0183253Y0228500D01*
X0183092Y0228504D01*
X0182931Y0228512D01*
X0182771Y0228524D01*
X0182611Y0228540D01*
X0182451Y0228560D01*
X0182292Y0228584D01*
X0182134Y0228612D01*
X0181976Y0228643D01*
X0181820Y0228679D01*
X0181664Y0228718D01*
X0181509Y0228761D01*
X0181355Y0228808D01*
X0181202Y0228859D01*
X0181051Y0228914D01*
X0180901Y0228972D01*
X0180753Y0229034D01*
X0180606Y0229100D01*
X0180461Y0229169D01*
X0180318Y0229242D01*
X0180176Y0229318D01*
X0180037Y0229398D01*
X0179899Y0229481D01*
X0179764Y0229568D01*
X0179630Y0229658D01*
X0179499Y0229751D01*
X0179371Y0229847D01*
X0179245Y0229947D01*
X0179121Y0230050D01*
X0179000Y0230155D01*
X0178881Y0230264D01*
X0178765Y0230375D01*
X0178652Y0230490D01*
X0178542Y0230607D01*
X0178435Y0230727D01*
X0178331Y0230849D01*
X0178230Y0230974D01*
X0178132Y0231102D01*
X0178037Y0231232D01*
X0177945Y0231364D01*
X0177857Y0231498D01*
X0177772Y0231635D01*
X0177690Y0231773D01*
X0177612Y0231914D01*
X0177538Y0232056D01*
X0177467Y0232200D01*
X0177399Y0232346D01*
X0177336Y0232494D01*
X0177275Y0232643D01*
X0177219Y0232794D01*
X0177166Y0232946D01*
X0177117Y0233099D01*
X0177072Y0233253D01*
X0177031Y0233408D01*
X0176993Y0233565D01*
X0176960Y0233722D01*
X0176930Y0233880D01*
X0176904Y0234039D01*
X0176883Y0234198D01*
X0176865Y0234358D01*
X0176851Y0234518D01*
X0176841Y0234679D01*
X0176835Y0234839D01*
X0176833Y0235000D01*
X0196833Y0235000D02*
X0196835Y0235161D01*
X0196841Y0235321D01*
X0196851Y0235482D01*
X0196865Y0235642D01*
X0196883Y0235802D01*
X0196904Y0235961D01*
X0196930Y0236120D01*
X0196960Y0236278D01*
X0196993Y0236435D01*
X0197031Y0236592D01*
X0197072Y0236747D01*
X0197117Y0236901D01*
X0197166Y0237054D01*
X0197219Y0237206D01*
X0197275Y0237357D01*
X0197336Y0237506D01*
X0197399Y0237654D01*
X0197467Y0237800D01*
X0197538Y0237944D01*
X0197612Y0238086D01*
X0197690Y0238227D01*
X0197772Y0238365D01*
X0197857Y0238502D01*
X0197945Y0238636D01*
X0198037Y0238768D01*
X0198132Y0238898D01*
X0198230Y0239026D01*
X0198331Y0239151D01*
X0198435Y0239273D01*
X0198542Y0239393D01*
X0198652Y0239510D01*
X0198765Y0239625D01*
X0198881Y0239736D01*
X0199000Y0239845D01*
X0199121Y0239950D01*
X0199245Y0240053D01*
X0199371Y0240153D01*
X0199499Y0240249D01*
X0199630Y0240342D01*
X0199764Y0240432D01*
X0199899Y0240519D01*
X0200037Y0240602D01*
X0200176Y0240682D01*
X0200318Y0240758D01*
X0200461Y0240831D01*
X0200606Y0240900D01*
X0200753Y0240966D01*
X0200901Y0241028D01*
X0201051Y0241086D01*
X0201202Y0241141D01*
X0201355Y0241192D01*
X0201509Y0241239D01*
X0201664Y0241282D01*
X0201820Y0241321D01*
X0201976Y0241357D01*
X0202134Y0241388D01*
X0202292Y0241416D01*
X0202451Y0241440D01*
X0202611Y0241460D01*
X0202771Y0241476D01*
X0202931Y0241488D01*
X0203092Y0241496D01*
X0203253Y0241500D01*
X0203413Y0241500D01*
X0203574Y0241496D01*
X0203735Y0241488D01*
X0203895Y0241476D01*
X0204055Y0241460D01*
X0204215Y0241440D01*
X0204374Y0241416D01*
X0204532Y0241388D01*
X0204690Y0241357D01*
X0204846Y0241321D01*
X0205002Y0241282D01*
X0205157Y0241239D01*
X0205311Y0241192D01*
X0205464Y0241141D01*
X0205615Y0241086D01*
X0205765Y0241028D01*
X0205913Y0240966D01*
X0206060Y0240900D01*
X0206205Y0240831D01*
X0206348Y0240758D01*
X0206490Y0240682D01*
X0206629Y0240602D01*
X0206767Y0240519D01*
X0206902Y0240432D01*
X0207036Y0240342D01*
X0207167Y0240249D01*
X0207295Y0240153D01*
X0207421Y0240053D01*
X0207545Y0239950D01*
X0207666Y0239845D01*
X0207785Y0239736D01*
X0207901Y0239625D01*
X0208014Y0239510D01*
X0208124Y0239393D01*
X0208231Y0239273D01*
X0208335Y0239151D01*
X0208436Y0239026D01*
X0208534Y0238898D01*
X0208629Y0238768D01*
X0208721Y0238636D01*
X0208809Y0238502D01*
X0208894Y0238365D01*
X0208976Y0238227D01*
X0209054Y0238086D01*
X0209128Y0237944D01*
X0209199Y0237800D01*
X0209267Y0237654D01*
X0209330Y0237506D01*
X0209391Y0237357D01*
X0209447Y0237206D01*
X0209500Y0237054D01*
X0209549Y0236901D01*
X0209594Y0236747D01*
X0209635Y0236592D01*
X0209673Y0236435D01*
X0209706Y0236278D01*
X0209736Y0236120D01*
X0209762Y0235961D01*
X0209783Y0235802D01*
X0209801Y0235642D01*
X0209815Y0235482D01*
X0209825Y0235321D01*
X0209831Y0235161D01*
X0209833Y0235000D01*
X0209831Y0234839D01*
X0209825Y0234679D01*
X0209815Y0234518D01*
X0209801Y0234358D01*
X0209783Y0234198D01*
X0209762Y0234039D01*
X0209736Y0233880D01*
X0209706Y0233722D01*
X0209673Y0233565D01*
X0209635Y0233408D01*
X0209594Y0233253D01*
X0209549Y0233099D01*
X0209500Y0232946D01*
X0209447Y0232794D01*
X0209391Y0232643D01*
X0209330Y0232494D01*
X0209267Y0232346D01*
X0209199Y0232200D01*
X0209128Y0232056D01*
X0209054Y0231914D01*
X0208976Y0231773D01*
X0208894Y0231635D01*
X0208809Y0231498D01*
X0208721Y0231364D01*
X0208629Y0231232D01*
X0208534Y0231102D01*
X0208436Y0230974D01*
X0208335Y0230849D01*
X0208231Y0230727D01*
X0208124Y0230607D01*
X0208014Y0230490D01*
X0207901Y0230375D01*
X0207785Y0230264D01*
X0207666Y0230155D01*
X0207545Y0230050D01*
X0207421Y0229947D01*
X0207295Y0229847D01*
X0207167Y0229751D01*
X0207036Y0229658D01*
X0206902Y0229568D01*
X0206767Y0229481D01*
X0206629Y0229398D01*
X0206490Y0229318D01*
X0206348Y0229242D01*
X0206205Y0229169D01*
X0206060Y0229100D01*
X0205913Y0229034D01*
X0205765Y0228972D01*
X0205615Y0228914D01*
X0205464Y0228859D01*
X0205311Y0228808D01*
X0205157Y0228761D01*
X0205002Y0228718D01*
X0204846Y0228679D01*
X0204690Y0228643D01*
X0204532Y0228612D01*
X0204374Y0228584D01*
X0204215Y0228560D01*
X0204055Y0228540D01*
X0203895Y0228524D01*
X0203735Y0228512D01*
X0203574Y0228504D01*
X0203413Y0228500D01*
X0203253Y0228500D01*
X0203092Y0228504D01*
X0202931Y0228512D01*
X0202771Y0228524D01*
X0202611Y0228540D01*
X0202451Y0228560D01*
X0202292Y0228584D01*
X0202134Y0228612D01*
X0201976Y0228643D01*
X0201820Y0228679D01*
X0201664Y0228718D01*
X0201509Y0228761D01*
X0201355Y0228808D01*
X0201202Y0228859D01*
X0201051Y0228914D01*
X0200901Y0228972D01*
X0200753Y0229034D01*
X0200606Y0229100D01*
X0200461Y0229169D01*
X0200318Y0229242D01*
X0200176Y0229318D01*
X0200037Y0229398D01*
X0199899Y0229481D01*
X0199764Y0229568D01*
X0199630Y0229658D01*
X0199499Y0229751D01*
X0199371Y0229847D01*
X0199245Y0229947D01*
X0199121Y0230050D01*
X0199000Y0230155D01*
X0198881Y0230264D01*
X0198765Y0230375D01*
X0198652Y0230490D01*
X0198542Y0230607D01*
X0198435Y0230727D01*
X0198331Y0230849D01*
X0198230Y0230974D01*
X0198132Y0231102D01*
X0198037Y0231232D01*
X0197945Y0231364D01*
X0197857Y0231498D01*
X0197772Y0231635D01*
X0197690Y0231773D01*
X0197612Y0231914D01*
X0197538Y0232056D01*
X0197467Y0232200D01*
X0197399Y0232346D01*
X0197336Y0232494D01*
X0197275Y0232643D01*
X0197219Y0232794D01*
X0197166Y0232946D01*
X0197117Y0233099D01*
X0197072Y0233253D01*
X0197031Y0233408D01*
X0196993Y0233565D01*
X0196960Y0233722D01*
X0196930Y0233880D01*
X0196904Y0234039D01*
X0196883Y0234198D01*
X0196865Y0234358D01*
X0196851Y0234518D01*
X0196841Y0234679D01*
X0196835Y0234839D01*
X0196833Y0235000D01*
X0196833Y0255000D02*
X0196835Y0255161D01*
X0196841Y0255321D01*
X0196851Y0255482D01*
X0196865Y0255642D01*
X0196883Y0255802D01*
X0196904Y0255961D01*
X0196930Y0256120D01*
X0196960Y0256278D01*
X0196993Y0256435D01*
X0197031Y0256592D01*
X0197072Y0256747D01*
X0197117Y0256901D01*
X0197166Y0257054D01*
X0197219Y0257206D01*
X0197275Y0257357D01*
X0197336Y0257506D01*
X0197399Y0257654D01*
X0197467Y0257800D01*
X0197538Y0257944D01*
X0197612Y0258086D01*
X0197690Y0258227D01*
X0197772Y0258365D01*
X0197857Y0258502D01*
X0197945Y0258636D01*
X0198037Y0258768D01*
X0198132Y0258898D01*
X0198230Y0259026D01*
X0198331Y0259151D01*
X0198435Y0259273D01*
X0198542Y0259393D01*
X0198652Y0259510D01*
X0198765Y0259625D01*
X0198881Y0259736D01*
X0199000Y0259845D01*
X0199121Y0259950D01*
X0199245Y0260053D01*
X0199371Y0260153D01*
X0199499Y0260249D01*
X0199630Y0260342D01*
X0199764Y0260432D01*
X0199899Y0260519D01*
X0200037Y0260602D01*
X0200176Y0260682D01*
X0200318Y0260758D01*
X0200461Y0260831D01*
X0200606Y0260900D01*
X0200753Y0260966D01*
X0200901Y0261028D01*
X0201051Y0261086D01*
X0201202Y0261141D01*
X0201355Y0261192D01*
X0201509Y0261239D01*
X0201664Y0261282D01*
X0201820Y0261321D01*
X0201976Y0261357D01*
X0202134Y0261388D01*
X0202292Y0261416D01*
X0202451Y0261440D01*
X0202611Y0261460D01*
X0202771Y0261476D01*
X0202931Y0261488D01*
X0203092Y0261496D01*
X0203253Y0261500D01*
X0203413Y0261500D01*
X0203574Y0261496D01*
X0203735Y0261488D01*
X0203895Y0261476D01*
X0204055Y0261460D01*
X0204215Y0261440D01*
X0204374Y0261416D01*
X0204532Y0261388D01*
X0204690Y0261357D01*
X0204846Y0261321D01*
X0205002Y0261282D01*
X0205157Y0261239D01*
X0205311Y0261192D01*
X0205464Y0261141D01*
X0205615Y0261086D01*
X0205765Y0261028D01*
X0205913Y0260966D01*
X0206060Y0260900D01*
X0206205Y0260831D01*
X0206348Y0260758D01*
X0206490Y0260682D01*
X0206629Y0260602D01*
X0206767Y0260519D01*
X0206902Y0260432D01*
X0207036Y0260342D01*
X0207167Y0260249D01*
X0207295Y0260153D01*
X0207421Y0260053D01*
X0207545Y0259950D01*
X0207666Y0259845D01*
X0207785Y0259736D01*
X0207901Y0259625D01*
X0208014Y0259510D01*
X0208124Y0259393D01*
X0208231Y0259273D01*
X0208335Y0259151D01*
X0208436Y0259026D01*
X0208534Y0258898D01*
X0208629Y0258768D01*
X0208721Y0258636D01*
X0208809Y0258502D01*
X0208894Y0258365D01*
X0208976Y0258227D01*
X0209054Y0258086D01*
X0209128Y0257944D01*
X0209199Y0257800D01*
X0209267Y0257654D01*
X0209330Y0257506D01*
X0209391Y0257357D01*
X0209447Y0257206D01*
X0209500Y0257054D01*
X0209549Y0256901D01*
X0209594Y0256747D01*
X0209635Y0256592D01*
X0209673Y0256435D01*
X0209706Y0256278D01*
X0209736Y0256120D01*
X0209762Y0255961D01*
X0209783Y0255802D01*
X0209801Y0255642D01*
X0209815Y0255482D01*
X0209825Y0255321D01*
X0209831Y0255161D01*
X0209833Y0255000D01*
X0209831Y0254839D01*
X0209825Y0254679D01*
X0209815Y0254518D01*
X0209801Y0254358D01*
X0209783Y0254198D01*
X0209762Y0254039D01*
X0209736Y0253880D01*
X0209706Y0253722D01*
X0209673Y0253565D01*
X0209635Y0253408D01*
X0209594Y0253253D01*
X0209549Y0253099D01*
X0209500Y0252946D01*
X0209447Y0252794D01*
X0209391Y0252643D01*
X0209330Y0252494D01*
X0209267Y0252346D01*
X0209199Y0252200D01*
X0209128Y0252056D01*
X0209054Y0251914D01*
X0208976Y0251773D01*
X0208894Y0251635D01*
X0208809Y0251498D01*
X0208721Y0251364D01*
X0208629Y0251232D01*
X0208534Y0251102D01*
X0208436Y0250974D01*
X0208335Y0250849D01*
X0208231Y0250727D01*
X0208124Y0250607D01*
X0208014Y0250490D01*
X0207901Y0250375D01*
X0207785Y0250264D01*
X0207666Y0250155D01*
X0207545Y0250050D01*
X0207421Y0249947D01*
X0207295Y0249847D01*
X0207167Y0249751D01*
X0207036Y0249658D01*
X0206902Y0249568D01*
X0206767Y0249481D01*
X0206629Y0249398D01*
X0206490Y0249318D01*
X0206348Y0249242D01*
X0206205Y0249169D01*
X0206060Y0249100D01*
X0205913Y0249034D01*
X0205765Y0248972D01*
X0205615Y0248914D01*
X0205464Y0248859D01*
X0205311Y0248808D01*
X0205157Y0248761D01*
X0205002Y0248718D01*
X0204846Y0248679D01*
X0204690Y0248643D01*
X0204532Y0248612D01*
X0204374Y0248584D01*
X0204215Y0248560D01*
X0204055Y0248540D01*
X0203895Y0248524D01*
X0203735Y0248512D01*
X0203574Y0248504D01*
X0203413Y0248500D01*
X0203253Y0248500D01*
X0203092Y0248504D01*
X0202931Y0248512D01*
X0202771Y0248524D01*
X0202611Y0248540D01*
X0202451Y0248560D01*
X0202292Y0248584D01*
X0202134Y0248612D01*
X0201976Y0248643D01*
X0201820Y0248679D01*
X0201664Y0248718D01*
X0201509Y0248761D01*
X0201355Y0248808D01*
X0201202Y0248859D01*
X0201051Y0248914D01*
X0200901Y0248972D01*
X0200753Y0249034D01*
X0200606Y0249100D01*
X0200461Y0249169D01*
X0200318Y0249242D01*
X0200176Y0249318D01*
X0200037Y0249398D01*
X0199899Y0249481D01*
X0199764Y0249568D01*
X0199630Y0249658D01*
X0199499Y0249751D01*
X0199371Y0249847D01*
X0199245Y0249947D01*
X0199121Y0250050D01*
X0199000Y0250155D01*
X0198881Y0250264D01*
X0198765Y0250375D01*
X0198652Y0250490D01*
X0198542Y0250607D01*
X0198435Y0250727D01*
X0198331Y0250849D01*
X0198230Y0250974D01*
X0198132Y0251102D01*
X0198037Y0251232D01*
X0197945Y0251364D01*
X0197857Y0251498D01*
X0197772Y0251635D01*
X0197690Y0251773D01*
X0197612Y0251914D01*
X0197538Y0252056D01*
X0197467Y0252200D01*
X0197399Y0252346D01*
X0197336Y0252494D01*
X0197275Y0252643D01*
X0197219Y0252794D01*
X0197166Y0252946D01*
X0197117Y0253099D01*
X0197072Y0253253D01*
X0197031Y0253408D01*
X0196993Y0253565D01*
X0196960Y0253722D01*
X0196930Y0253880D01*
X0196904Y0254039D01*
X0196883Y0254198D01*
X0196865Y0254358D01*
X0196851Y0254518D01*
X0196841Y0254679D01*
X0196835Y0254839D01*
X0196833Y0255000D01*
X0176833Y0255000D02*
X0176835Y0255161D01*
X0176841Y0255321D01*
X0176851Y0255482D01*
X0176865Y0255642D01*
X0176883Y0255802D01*
X0176904Y0255961D01*
X0176930Y0256120D01*
X0176960Y0256278D01*
X0176993Y0256435D01*
X0177031Y0256592D01*
X0177072Y0256747D01*
X0177117Y0256901D01*
X0177166Y0257054D01*
X0177219Y0257206D01*
X0177275Y0257357D01*
X0177336Y0257506D01*
X0177399Y0257654D01*
X0177467Y0257800D01*
X0177538Y0257944D01*
X0177612Y0258086D01*
X0177690Y0258227D01*
X0177772Y0258365D01*
X0177857Y0258502D01*
X0177945Y0258636D01*
X0178037Y0258768D01*
X0178132Y0258898D01*
X0178230Y0259026D01*
X0178331Y0259151D01*
X0178435Y0259273D01*
X0178542Y0259393D01*
X0178652Y0259510D01*
X0178765Y0259625D01*
X0178881Y0259736D01*
X0179000Y0259845D01*
X0179121Y0259950D01*
X0179245Y0260053D01*
X0179371Y0260153D01*
X0179499Y0260249D01*
X0179630Y0260342D01*
X0179764Y0260432D01*
X0179899Y0260519D01*
X0180037Y0260602D01*
X0180176Y0260682D01*
X0180318Y0260758D01*
X0180461Y0260831D01*
X0180606Y0260900D01*
X0180753Y0260966D01*
X0180901Y0261028D01*
X0181051Y0261086D01*
X0181202Y0261141D01*
X0181355Y0261192D01*
X0181509Y0261239D01*
X0181664Y0261282D01*
X0181820Y0261321D01*
X0181976Y0261357D01*
X0182134Y0261388D01*
X0182292Y0261416D01*
X0182451Y0261440D01*
X0182611Y0261460D01*
X0182771Y0261476D01*
X0182931Y0261488D01*
X0183092Y0261496D01*
X0183253Y0261500D01*
X0183413Y0261500D01*
X0183574Y0261496D01*
X0183735Y0261488D01*
X0183895Y0261476D01*
X0184055Y0261460D01*
X0184215Y0261440D01*
X0184374Y0261416D01*
X0184532Y0261388D01*
X0184690Y0261357D01*
X0184846Y0261321D01*
X0185002Y0261282D01*
X0185157Y0261239D01*
X0185311Y0261192D01*
X0185464Y0261141D01*
X0185615Y0261086D01*
X0185765Y0261028D01*
X0185913Y0260966D01*
X0186060Y0260900D01*
X0186205Y0260831D01*
X0186348Y0260758D01*
X0186490Y0260682D01*
X0186629Y0260602D01*
X0186767Y0260519D01*
X0186902Y0260432D01*
X0187036Y0260342D01*
X0187167Y0260249D01*
X0187295Y0260153D01*
X0187421Y0260053D01*
X0187545Y0259950D01*
X0187666Y0259845D01*
X0187785Y0259736D01*
X0187901Y0259625D01*
X0188014Y0259510D01*
X0188124Y0259393D01*
X0188231Y0259273D01*
X0188335Y0259151D01*
X0188436Y0259026D01*
X0188534Y0258898D01*
X0188629Y0258768D01*
X0188721Y0258636D01*
X0188809Y0258502D01*
X0188894Y0258365D01*
X0188976Y0258227D01*
X0189054Y0258086D01*
X0189128Y0257944D01*
X0189199Y0257800D01*
X0189267Y0257654D01*
X0189330Y0257506D01*
X0189391Y0257357D01*
X0189447Y0257206D01*
X0189500Y0257054D01*
X0189549Y0256901D01*
X0189594Y0256747D01*
X0189635Y0256592D01*
X0189673Y0256435D01*
X0189706Y0256278D01*
X0189736Y0256120D01*
X0189762Y0255961D01*
X0189783Y0255802D01*
X0189801Y0255642D01*
X0189815Y0255482D01*
X0189825Y0255321D01*
X0189831Y0255161D01*
X0189833Y0255000D01*
X0189831Y0254839D01*
X0189825Y0254679D01*
X0189815Y0254518D01*
X0189801Y0254358D01*
X0189783Y0254198D01*
X0189762Y0254039D01*
X0189736Y0253880D01*
X0189706Y0253722D01*
X0189673Y0253565D01*
X0189635Y0253408D01*
X0189594Y0253253D01*
X0189549Y0253099D01*
X0189500Y0252946D01*
X0189447Y0252794D01*
X0189391Y0252643D01*
X0189330Y0252494D01*
X0189267Y0252346D01*
X0189199Y0252200D01*
X0189128Y0252056D01*
X0189054Y0251914D01*
X0188976Y0251773D01*
X0188894Y0251635D01*
X0188809Y0251498D01*
X0188721Y0251364D01*
X0188629Y0251232D01*
X0188534Y0251102D01*
X0188436Y0250974D01*
X0188335Y0250849D01*
X0188231Y0250727D01*
X0188124Y0250607D01*
X0188014Y0250490D01*
X0187901Y0250375D01*
X0187785Y0250264D01*
X0187666Y0250155D01*
X0187545Y0250050D01*
X0187421Y0249947D01*
X0187295Y0249847D01*
X0187167Y0249751D01*
X0187036Y0249658D01*
X0186902Y0249568D01*
X0186767Y0249481D01*
X0186629Y0249398D01*
X0186490Y0249318D01*
X0186348Y0249242D01*
X0186205Y0249169D01*
X0186060Y0249100D01*
X0185913Y0249034D01*
X0185765Y0248972D01*
X0185615Y0248914D01*
X0185464Y0248859D01*
X0185311Y0248808D01*
X0185157Y0248761D01*
X0185002Y0248718D01*
X0184846Y0248679D01*
X0184690Y0248643D01*
X0184532Y0248612D01*
X0184374Y0248584D01*
X0184215Y0248560D01*
X0184055Y0248540D01*
X0183895Y0248524D01*
X0183735Y0248512D01*
X0183574Y0248504D01*
X0183413Y0248500D01*
X0183253Y0248500D01*
X0183092Y0248504D01*
X0182931Y0248512D01*
X0182771Y0248524D01*
X0182611Y0248540D01*
X0182451Y0248560D01*
X0182292Y0248584D01*
X0182134Y0248612D01*
X0181976Y0248643D01*
X0181820Y0248679D01*
X0181664Y0248718D01*
X0181509Y0248761D01*
X0181355Y0248808D01*
X0181202Y0248859D01*
X0181051Y0248914D01*
X0180901Y0248972D01*
X0180753Y0249034D01*
X0180606Y0249100D01*
X0180461Y0249169D01*
X0180318Y0249242D01*
X0180176Y0249318D01*
X0180037Y0249398D01*
X0179899Y0249481D01*
X0179764Y0249568D01*
X0179630Y0249658D01*
X0179499Y0249751D01*
X0179371Y0249847D01*
X0179245Y0249947D01*
X0179121Y0250050D01*
X0179000Y0250155D01*
X0178881Y0250264D01*
X0178765Y0250375D01*
X0178652Y0250490D01*
X0178542Y0250607D01*
X0178435Y0250727D01*
X0178331Y0250849D01*
X0178230Y0250974D01*
X0178132Y0251102D01*
X0178037Y0251232D01*
X0177945Y0251364D01*
X0177857Y0251498D01*
X0177772Y0251635D01*
X0177690Y0251773D01*
X0177612Y0251914D01*
X0177538Y0252056D01*
X0177467Y0252200D01*
X0177399Y0252346D01*
X0177336Y0252494D01*
X0177275Y0252643D01*
X0177219Y0252794D01*
X0177166Y0252946D01*
X0177117Y0253099D01*
X0177072Y0253253D01*
X0177031Y0253408D01*
X0176993Y0253565D01*
X0176960Y0253722D01*
X0176930Y0253880D01*
X0176904Y0254039D01*
X0176883Y0254198D01*
X0176865Y0254358D01*
X0176851Y0254518D01*
X0176841Y0254679D01*
X0176835Y0254839D01*
X0176833Y0255000D01*
X0176833Y0285000D02*
X0176835Y0285161D01*
X0176841Y0285321D01*
X0176851Y0285482D01*
X0176865Y0285642D01*
X0176883Y0285802D01*
X0176904Y0285961D01*
X0176930Y0286120D01*
X0176960Y0286278D01*
X0176993Y0286435D01*
X0177031Y0286592D01*
X0177072Y0286747D01*
X0177117Y0286901D01*
X0177166Y0287054D01*
X0177219Y0287206D01*
X0177275Y0287357D01*
X0177336Y0287506D01*
X0177399Y0287654D01*
X0177467Y0287800D01*
X0177538Y0287944D01*
X0177612Y0288086D01*
X0177690Y0288227D01*
X0177772Y0288365D01*
X0177857Y0288502D01*
X0177945Y0288636D01*
X0178037Y0288768D01*
X0178132Y0288898D01*
X0178230Y0289026D01*
X0178331Y0289151D01*
X0178435Y0289273D01*
X0178542Y0289393D01*
X0178652Y0289510D01*
X0178765Y0289625D01*
X0178881Y0289736D01*
X0179000Y0289845D01*
X0179121Y0289950D01*
X0179245Y0290053D01*
X0179371Y0290153D01*
X0179499Y0290249D01*
X0179630Y0290342D01*
X0179764Y0290432D01*
X0179899Y0290519D01*
X0180037Y0290602D01*
X0180176Y0290682D01*
X0180318Y0290758D01*
X0180461Y0290831D01*
X0180606Y0290900D01*
X0180753Y0290966D01*
X0180901Y0291028D01*
X0181051Y0291086D01*
X0181202Y0291141D01*
X0181355Y0291192D01*
X0181509Y0291239D01*
X0181664Y0291282D01*
X0181820Y0291321D01*
X0181976Y0291357D01*
X0182134Y0291388D01*
X0182292Y0291416D01*
X0182451Y0291440D01*
X0182611Y0291460D01*
X0182771Y0291476D01*
X0182931Y0291488D01*
X0183092Y0291496D01*
X0183253Y0291500D01*
X0183413Y0291500D01*
X0183574Y0291496D01*
X0183735Y0291488D01*
X0183895Y0291476D01*
X0184055Y0291460D01*
X0184215Y0291440D01*
X0184374Y0291416D01*
X0184532Y0291388D01*
X0184690Y0291357D01*
X0184846Y0291321D01*
X0185002Y0291282D01*
X0185157Y0291239D01*
X0185311Y0291192D01*
X0185464Y0291141D01*
X0185615Y0291086D01*
X0185765Y0291028D01*
X0185913Y0290966D01*
X0186060Y0290900D01*
X0186205Y0290831D01*
X0186348Y0290758D01*
X0186490Y0290682D01*
X0186629Y0290602D01*
X0186767Y0290519D01*
X0186902Y0290432D01*
X0187036Y0290342D01*
X0187167Y0290249D01*
X0187295Y0290153D01*
X0187421Y0290053D01*
X0187545Y0289950D01*
X0187666Y0289845D01*
X0187785Y0289736D01*
X0187901Y0289625D01*
X0188014Y0289510D01*
X0188124Y0289393D01*
X0188231Y0289273D01*
X0188335Y0289151D01*
X0188436Y0289026D01*
X0188534Y0288898D01*
X0188629Y0288768D01*
X0188721Y0288636D01*
X0188809Y0288502D01*
X0188894Y0288365D01*
X0188976Y0288227D01*
X0189054Y0288086D01*
X0189128Y0287944D01*
X0189199Y0287800D01*
X0189267Y0287654D01*
X0189330Y0287506D01*
X0189391Y0287357D01*
X0189447Y0287206D01*
X0189500Y0287054D01*
X0189549Y0286901D01*
X0189594Y0286747D01*
X0189635Y0286592D01*
X0189673Y0286435D01*
X0189706Y0286278D01*
X0189736Y0286120D01*
X0189762Y0285961D01*
X0189783Y0285802D01*
X0189801Y0285642D01*
X0189815Y0285482D01*
X0189825Y0285321D01*
X0189831Y0285161D01*
X0189833Y0285000D01*
X0189831Y0284839D01*
X0189825Y0284679D01*
X0189815Y0284518D01*
X0189801Y0284358D01*
X0189783Y0284198D01*
X0189762Y0284039D01*
X0189736Y0283880D01*
X0189706Y0283722D01*
X0189673Y0283565D01*
X0189635Y0283408D01*
X0189594Y0283253D01*
X0189549Y0283099D01*
X0189500Y0282946D01*
X0189447Y0282794D01*
X0189391Y0282643D01*
X0189330Y0282494D01*
X0189267Y0282346D01*
X0189199Y0282200D01*
X0189128Y0282056D01*
X0189054Y0281914D01*
X0188976Y0281773D01*
X0188894Y0281635D01*
X0188809Y0281498D01*
X0188721Y0281364D01*
X0188629Y0281232D01*
X0188534Y0281102D01*
X0188436Y0280974D01*
X0188335Y0280849D01*
X0188231Y0280727D01*
X0188124Y0280607D01*
X0188014Y0280490D01*
X0187901Y0280375D01*
X0187785Y0280264D01*
X0187666Y0280155D01*
X0187545Y0280050D01*
X0187421Y0279947D01*
X0187295Y0279847D01*
X0187167Y0279751D01*
X0187036Y0279658D01*
X0186902Y0279568D01*
X0186767Y0279481D01*
X0186629Y0279398D01*
X0186490Y0279318D01*
X0186348Y0279242D01*
X0186205Y0279169D01*
X0186060Y0279100D01*
X0185913Y0279034D01*
X0185765Y0278972D01*
X0185615Y0278914D01*
X0185464Y0278859D01*
X0185311Y0278808D01*
X0185157Y0278761D01*
X0185002Y0278718D01*
X0184846Y0278679D01*
X0184690Y0278643D01*
X0184532Y0278612D01*
X0184374Y0278584D01*
X0184215Y0278560D01*
X0184055Y0278540D01*
X0183895Y0278524D01*
X0183735Y0278512D01*
X0183574Y0278504D01*
X0183413Y0278500D01*
X0183253Y0278500D01*
X0183092Y0278504D01*
X0182931Y0278512D01*
X0182771Y0278524D01*
X0182611Y0278540D01*
X0182451Y0278560D01*
X0182292Y0278584D01*
X0182134Y0278612D01*
X0181976Y0278643D01*
X0181820Y0278679D01*
X0181664Y0278718D01*
X0181509Y0278761D01*
X0181355Y0278808D01*
X0181202Y0278859D01*
X0181051Y0278914D01*
X0180901Y0278972D01*
X0180753Y0279034D01*
X0180606Y0279100D01*
X0180461Y0279169D01*
X0180318Y0279242D01*
X0180176Y0279318D01*
X0180037Y0279398D01*
X0179899Y0279481D01*
X0179764Y0279568D01*
X0179630Y0279658D01*
X0179499Y0279751D01*
X0179371Y0279847D01*
X0179245Y0279947D01*
X0179121Y0280050D01*
X0179000Y0280155D01*
X0178881Y0280264D01*
X0178765Y0280375D01*
X0178652Y0280490D01*
X0178542Y0280607D01*
X0178435Y0280727D01*
X0178331Y0280849D01*
X0178230Y0280974D01*
X0178132Y0281102D01*
X0178037Y0281232D01*
X0177945Y0281364D01*
X0177857Y0281498D01*
X0177772Y0281635D01*
X0177690Y0281773D01*
X0177612Y0281914D01*
X0177538Y0282056D01*
X0177467Y0282200D01*
X0177399Y0282346D01*
X0177336Y0282494D01*
X0177275Y0282643D01*
X0177219Y0282794D01*
X0177166Y0282946D01*
X0177117Y0283099D01*
X0177072Y0283253D01*
X0177031Y0283408D01*
X0176993Y0283565D01*
X0176960Y0283722D01*
X0176930Y0283880D01*
X0176904Y0284039D01*
X0176883Y0284198D01*
X0176865Y0284358D01*
X0176851Y0284518D01*
X0176841Y0284679D01*
X0176835Y0284839D01*
X0176833Y0285000D01*
X0196833Y0285000D02*
X0196835Y0285161D01*
X0196841Y0285321D01*
X0196851Y0285482D01*
X0196865Y0285642D01*
X0196883Y0285802D01*
X0196904Y0285961D01*
X0196930Y0286120D01*
X0196960Y0286278D01*
X0196993Y0286435D01*
X0197031Y0286592D01*
X0197072Y0286747D01*
X0197117Y0286901D01*
X0197166Y0287054D01*
X0197219Y0287206D01*
X0197275Y0287357D01*
X0197336Y0287506D01*
X0197399Y0287654D01*
X0197467Y0287800D01*
X0197538Y0287944D01*
X0197612Y0288086D01*
X0197690Y0288227D01*
X0197772Y0288365D01*
X0197857Y0288502D01*
X0197945Y0288636D01*
X0198037Y0288768D01*
X0198132Y0288898D01*
X0198230Y0289026D01*
X0198331Y0289151D01*
X0198435Y0289273D01*
X0198542Y0289393D01*
X0198652Y0289510D01*
X0198765Y0289625D01*
X0198881Y0289736D01*
X0199000Y0289845D01*
X0199121Y0289950D01*
X0199245Y0290053D01*
X0199371Y0290153D01*
X0199499Y0290249D01*
X0199630Y0290342D01*
X0199764Y0290432D01*
X0199899Y0290519D01*
X0200037Y0290602D01*
X0200176Y0290682D01*
X0200318Y0290758D01*
X0200461Y0290831D01*
X0200606Y0290900D01*
X0200753Y0290966D01*
X0200901Y0291028D01*
X0201051Y0291086D01*
X0201202Y0291141D01*
X0201355Y0291192D01*
X0201509Y0291239D01*
X0201664Y0291282D01*
X0201820Y0291321D01*
X0201976Y0291357D01*
X0202134Y0291388D01*
X0202292Y0291416D01*
X0202451Y0291440D01*
X0202611Y0291460D01*
X0202771Y0291476D01*
X0202931Y0291488D01*
X0203092Y0291496D01*
X0203253Y0291500D01*
X0203413Y0291500D01*
X0203574Y0291496D01*
X0203735Y0291488D01*
X0203895Y0291476D01*
X0204055Y0291460D01*
X0204215Y0291440D01*
X0204374Y0291416D01*
X0204532Y0291388D01*
X0204690Y0291357D01*
X0204846Y0291321D01*
X0205002Y0291282D01*
X0205157Y0291239D01*
X0205311Y0291192D01*
X0205464Y0291141D01*
X0205615Y0291086D01*
X0205765Y0291028D01*
X0205913Y0290966D01*
X0206060Y0290900D01*
X0206205Y0290831D01*
X0206348Y0290758D01*
X0206490Y0290682D01*
X0206629Y0290602D01*
X0206767Y0290519D01*
X0206902Y0290432D01*
X0207036Y0290342D01*
X0207167Y0290249D01*
X0207295Y0290153D01*
X0207421Y0290053D01*
X0207545Y0289950D01*
X0207666Y0289845D01*
X0207785Y0289736D01*
X0207901Y0289625D01*
X0208014Y0289510D01*
X0208124Y0289393D01*
X0208231Y0289273D01*
X0208335Y0289151D01*
X0208436Y0289026D01*
X0208534Y0288898D01*
X0208629Y0288768D01*
X0208721Y0288636D01*
X0208809Y0288502D01*
X0208894Y0288365D01*
X0208976Y0288227D01*
X0209054Y0288086D01*
X0209128Y0287944D01*
X0209199Y0287800D01*
X0209267Y0287654D01*
X0209330Y0287506D01*
X0209391Y0287357D01*
X0209447Y0287206D01*
X0209500Y0287054D01*
X0209549Y0286901D01*
X0209594Y0286747D01*
X0209635Y0286592D01*
X0209673Y0286435D01*
X0209706Y0286278D01*
X0209736Y0286120D01*
X0209762Y0285961D01*
X0209783Y0285802D01*
X0209801Y0285642D01*
X0209815Y0285482D01*
X0209825Y0285321D01*
X0209831Y0285161D01*
X0209833Y0285000D01*
X0209831Y0284839D01*
X0209825Y0284679D01*
X0209815Y0284518D01*
X0209801Y0284358D01*
X0209783Y0284198D01*
X0209762Y0284039D01*
X0209736Y0283880D01*
X0209706Y0283722D01*
X0209673Y0283565D01*
X0209635Y0283408D01*
X0209594Y0283253D01*
X0209549Y0283099D01*
X0209500Y0282946D01*
X0209447Y0282794D01*
X0209391Y0282643D01*
X0209330Y0282494D01*
X0209267Y0282346D01*
X0209199Y0282200D01*
X0209128Y0282056D01*
X0209054Y0281914D01*
X0208976Y0281773D01*
X0208894Y0281635D01*
X0208809Y0281498D01*
X0208721Y0281364D01*
X0208629Y0281232D01*
X0208534Y0281102D01*
X0208436Y0280974D01*
X0208335Y0280849D01*
X0208231Y0280727D01*
X0208124Y0280607D01*
X0208014Y0280490D01*
X0207901Y0280375D01*
X0207785Y0280264D01*
X0207666Y0280155D01*
X0207545Y0280050D01*
X0207421Y0279947D01*
X0207295Y0279847D01*
X0207167Y0279751D01*
X0207036Y0279658D01*
X0206902Y0279568D01*
X0206767Y0279481D01*
X0206629Y0279398D01*
X0206490Y0279318D01*
X0206348Y0279242D01*
X0206205Y0279169D01*
X0206060Y0279100D01*
X0205913Y0279034D01*
X0205765Y0278972D01*
X0205615Y0278914D01*
X0205464Y0278859D01*
X0205311Y0278808D01*
X0205157Y0278761D01*
X0205002Y0278718D01*
X0204846Y0278679D01*
X0204690Y0278643D01*
X0204532Y0278612D01*
X0204374Y0278584D01*
X0204215Y0278560D01*
X0204055Y0278540D01*
X0203895Y0278524D01*
X0203735Y0278512D01*
X0203574Y0278504D01*
X0203413Y0278500D01*
X0203253Y0278500D01*
X0203092Y0278504D01*
X0202931Y0278512D01*
X0202771Y0278524D01*
X0202611Y0278540D01*
X0202451Y0278560D01*
X0202292Y0278584D01*
X0202134Y0278612D01*
X0201976Y0278643D01*
X0201820Y0278679D01*
X0201664Y0278718D01*
X0201509Y0278761D01*
X0201355Y0278808D01*
X0201202Y0278859D01*
X0201051Y0278914D01*
X0200901Y0278972D01*
X0200753Y0279034D01*
X0200606Y0279100D01*
X0200461Y0279169D01*
X0200318Y0279242D01*
X0200176Y0279318D01*
X0200037Y0279398D01*
X0199899Y0279481D01*
X0199764Y0279568D01*
X0199630Y0279658D01*
X0199499Y0279751D01*
X0199371Y0279847D01*
X0199245Y0279947D01*
X0199121Y0280050D01*
X0199000Y0280155D01*
X0198881Y0280264D01*
X0198765Y0280375D01*
X0198652Y0280490D01*
X0198542Y0280607D01*
X0198435Y0280727D01*
X0198331Y0280849D01*
X0198230Y0280974D01*
X0198132Y0281102D01*
X0198037Y0281232D01*
X0197945Y0281364D01*
X0197857Y0281498D01*
X0197772Y0281635D01*
X0197690Y0281773D01*
X0197612Y0281914D01*
X0197538Y0282056D01*
X0197467Y0282200D01*
X0197399Y0282346D01*
X0197336Y0282494D01*
X0197275Y0282643D01*
X0197219Y0282794D01*
X0197166Y0282946D01*
X0197117Y0283099D01*
X0197072Y0283253D01*
X0197031Y0283408D01*
X0196993Y0283565D01*
X0196960Y0283722D01*
X0196930Y0283880D01*
X0196904Y0284039D01*
X0196883Y0284198D01*
X0196865Y0284358D01*
X0196851Y0284518D01*
X0196841Y0284679D01*
X0196835Y0284839D01*
X0196833Y0285000D01*
X0266833Y0235000D02*
X0266835Y0235161D01*
X0266841Y0235321D01*
X0266851Y0235482D01*
X0266865Y0235642D01*
X0266883Y0235802D01*
X0266904Y0235961D01*
X0266930Y0236120D01*
X0266960Y0236278D01*
X0266993Y0236435D01*
X0267031Y0236592D01*
X0267072Y0236747D01*
X0267117Y0236901D01*
X0267166Y0237054D01*
X0267219Y0237206D01*
X0267275Y0237357D01*
X0267336Y0237506D01*
X0267399Y0237654D01*
X0267467Y0237800D01*
X0267538Y0237944D01*
X0267612Y0238086D01*
X0267690Y0238227D01*
X0267772Y0238365D01*
X0267857Y0238502D01*
X0267945Y0238636D01*
X0268037Y0238768D01*
X0268132Y0238898D01*
X0268230Y0239026D01*
X0268331Y0239151D01*
X0268435Y0239273D01*
X0268542Y0239393D01*
X0268652Y0239510D01*
X0268765Y0239625D01*
X0268881Y0239736D01*
X0269000Y0239845D01*
X0269121Y0239950D01*
X0269245Y0240053D01*
X0269371Y0240153D01*
X0269499Y0240249D01*
X0269630Y0240342D01*
X0269764Y0240432D01*
X0269899Y0240519D01*
X0270037Y0240602D01*
X0270176Y0240682D01*
X0270318Y0240758D01*
X0270461Y0240831D01*
X0270606Y0240900D01*
X0270753Y0240966D01*
X0270901Y0241028D01*
X0271051Y0241086D01*
X0271202Y0241141D01*
X0271355Y0241192D01*
X0271509Y0241239D01*
X0271664Y0241282D01*
X0271820Y0241321D01*
X0271976Y0241357D01*
X0272134Y0241388D01*
X0272292Y0241416D01*
X0272451Y0241440D01*
X0272611Y0241460D01*
X0272771Y0241476D01*
X0272931Y0241488D01*
X0273092Y0241496D01*
X0273253Y0241500D01*
X0273413Y0241500D01*
X0273574Y0241496D01*
X0273735Y0241488D01*
X0273895Y0241476D01*
X0274055Y0241460D01*
X0274215Y0241440D01*
X0274374Y0241416D01*
X0274532Y0241388D01*
X0274690Y0241357D01*
X0274846Y0241321D01*
X0275002Y0241282D01*
X0275157Y0241239D01*
X0275311Y0241192D01*
X0275464Y0241141D01*
X0275615Y0241086D01*
X0275765Y0241028D01*
X0275913Y0240966D01*
X0276060Y0240900D01*
X0276205Y0240831D01*
X0276348Y0240758D01*
X0276490Y0240682D01*
X0276629Y0240602D01*
X0276767Y0240519D01*
X0276902Y0240432D01*
X0277036Y0240342D01*
X0277167Y0240249D01*
X0277295Y0240153D01*
X0277421Y0240053D01*
X0277545Y0239950D01*
X0277666Y0239845D01*
X0277785Y0239736D01*
X0277901Y0239625D01*
X0278014Y0239510D01*
X0278124Y0239393D01*
X0278231Y0239273D01*
X0278335Y0239151D01*
X0278436Y0239026D01*
X0278534Y0238898D01*
X0278629Y0238768D01*
X0278721Y0238636D01*
X0278809Y0238502D01*
X0278894Y0238365D01*
X0278976Y0238227D01*
X0279054Y0238086D01*
X0279128Y0237944D01*
X0279199Y0237800D01*
X0279267Y0237654D01*
X0279330Y0237506D01*
X0279391Y0237357D01*
X0279447Y0237206D01*
X0279500Y0237054D01*
X0279549Y0236901D01*
X0279594Y0236747D01*
X0279635Y0236592D01*
X0279673Y0236435D01*
X0279706Y0236278D01*
X0279736Y0236120D01*
X0279762Y0235961D01*
X0279783Y0235802D01*
X0279801Y0235642D01*
X0279815Y0235482D01*
X0279825Y0235321D01*
X0279831Y0235161D01*
X0279833Y0235000D01*
X0279831Y0234839D01*
X0279825Y0234679D01*
X0279815Y0234518D01*
X0279801Y0234358D01*
X0279783Y0234198D01*
X0279762Y0234039D01*
X0279736Y0233880D01*
X0279706Y0233722D01*
X0279673Y0233565D01*
X0279635Y0233408D01*
X0279594Y0233253D01*
X0279549Y0233099D01*
X0279500Y0232946D01*
X0279447Y0232794D01*
X0279391Y0232643D01*
X0279330Y0232494D01*
X0279267Y0232346D01*
X0279199Y0232200D01*
X0279128Y0232056D01*
X0279054Y0231914D01*
X0278976Y0231773D01*
X0278894Y0231635D01*
X0278809Y0231498D01*
X0278721Y0231364D01*
X0278629Y0231232D01*
X0278534Y0231102D01*
X0278436Y0230974D01*
X0278335Y0230849D01*
X0278231Y0230727D01*
X0278124Y0230607D01*
X0278014Y0230490D01*
X0277901Y0230375D01*
X0277785Y0230264D01*
X0277666Y0230155D01*
X0277545Y0230050D01*
X0277421Y0229947D01*
X0277295Y0229847D01*
X0277167Y0229751D01*
X0277036Y0229658D01*
X0276902Y0229568D01*
X0276767Y0229481D01*
X0276629Y0229398D01*
X0276490Y0229318D01*
X0276348Y0229242D01*
X0276205Y0229169D01*
X0276060Y0229100D01*
X0275913Y0229034D01*
X0275765Y0228972D01*
X0275615Y0228914D01*
X0275464Y0228859D01*
X0275311Y0228808D01*
X0275157Y0228761D01*
X0275002Y0228718D01*
X0274846Y0228679D01*
X0274690Y0228643D01*
X0274532Y0228612D01*
X0274374Y0228584D01*
X0274215Y0228560D01*
X0274055Y0228540D01*
X0273895Y0228524D01*
X0273735Y0228512D01*
X0273574Y0228504D01*
X0273413Y0228500D01*
X0273253Y0228500D01*
X0273092Y0228504D01*
X0272931Y0228512D01*
X0272771Y0228524D01*
X0272611Y0228540D01*
X0272451Y0228560D01*
X0272292Y0228584D01*
X0272134Y0228612D01*
X0271976Y0228643D01*
X0271820Y0228679D01*
X0271664Y0228718D01*
X0271509Y0228761D01*
X0271355Y0228808D01*
X0271202Y0228859D01*
X0271051Y0228914D01*
X0270901Y0228972D01*
X0270753Y0229034D01*
X0270606Y0229100D01*
X0270461Y0229169D01*
X0270318Y0229242D01*
X0270176Y0229318D01*
X0270037Y0229398D01*
X0269899Y0229481D01*
X0269764Y0229568D01*
X0269630Y0229658D01*
X0269499Y0229751D01*
X0269371Y0229847D01*
X0269245Y0229947D01*
X0269121Y0230050D01*
X0269000Y0230155D01*
X0268881Y0230264D01*
X0268765Y0230375D01*
X0268652Y0230490D01*
X0268542Y0230607D01*
X0268435Y0230727D01*
X0268331Y0230849D01*
X0268230Y0230974D01*
X0268132Y0231102D01*
X0268037Y0231232D01*
X0267945Y0231364D01*
X0267857Y0231498D01*
X0267772Y0231635D01*
X0267690Y0231773D01*
X0267612Y0231914D01*
X0267538Y0232056D01*
X0267467Y0232200D01*
X0267399Y0232346D01*
X0267336Y0232494D01*
X0267275Y0232643D01*
X0267219Y0232794D01*
X0267166Y0232946D01*
X0267117Y0233099D01*
X0267072Y0233253D01*
X0267031Y0233408D01*
X0266993Y0233565D01*
X0266960Y0233722D01*
X0266930Y0233880D01*
X0266904Y0234039D01*
X0266883Y0234198D01*
X0266865Y0234358D01*
X0266851Y0234518D01*
X0266841Y0234679D01*
X0266835Y0234839D01*
X0266833Y0235000D01*
X0286833Y0235000D02*
X0286835Y0235161D01*
X0286841Y0235321D01*
X0286851Y0235482D01*
X0286865Y0235642D01*
X0286883Y0235802D01*
X0286904Y0235961D01*
X0286930Y0236120D01*
X0286960Y0236278D01*
X0286993Y0236435D01*
X0287031Y0236592D01*
X0287072Y0236747D01*
X0287117Y0236901D01*
X0287166Y0237054D01*
X0287219Y0237206D01*
X0287275Y0237357D01*
X0287336Y0237506D01*
X0287399Y0237654D01*
X0287467Y0237800D01*
X0287538Y0237944D01*
X0287612Y0238086D01*
X0287690Y0238227D01*
X0287772Y0238365D01*
X0287857Y0238502D01*
X0287945Y0238636D01*
X0288037Y0238768D01*
X0288132Y0238898D01*
X0288230Y0239026D01*
X0288331Y0239151D01*
X0288435Y0239273D01*
X0288542Y0239393D01*
X0288652Y0239510D01*
X0288765Y0239625D01*
X0288881Y0239736D01*
X0289000Y0239845D01*
X0289121Y0239950D01*
X0289245Y0240053D01*
X0289371Y0240153D01*
X0289499Y0240249D01*
X0289630Y0240342D01*
X0289764Y0240432D01*
X0289899Y0240519D01*
X0290037Y0240602D01*
X0290176Y0240682D01*
X0290318Y0240758D01*
X0290461Y0240831D01*
X0290606Y0240900D01*
X0290753Y0240966D01*
X0290901Y0241028D01*
X0291051Y0241086D01*
X0291202Y0241141D01*
X0291355Y0241192D01*
X0291509Y0241239D01*
X0291664Y0241282D01*
X0291820Y0241321D01*
X0291976Y0241357D01*
X0292134Y0241388D01*
X0292292Y0241416D01*
X0292451Y0241440D01*
X0292611Y0241460D01*
X0292771Y0241476D01*
X0292931Y0241488D01*
X0293092Y0241496D01*
X0293253Y0241500D01*
X0293413Y0241500D01*
X0293574Y0241496D01*
X0293735Y0241488D01*
X0293895Y0241476D01*
X0294055Y0241460D01*
X0294215Y0241440D01*
X0294374Y0241416D01*
X0294532Y0241388D01*
X0294690Y0241357D01*
X0294846Y0241321D01*
X0295002Y0241282D01*
X0295157Y0241239D01*
X0295311Y0241192D01*
X0295464Y0241141D01*
X0295615Y0241086D01*
X0295765Y0241028D01*
X0295913Y0240966D01*
X0296060Y0240900D01*
X0296205Y0240831D01*
X0296348Y0240758D01*
X0296490Y0240682D01*
X0296629Y0240602D01*
X0296767Y0240519D01*
X0296902Y0240432D01*
X0297036Y0240342D01*
X0297167Y0240249D01*
X0297295Y0240153D01*
X0297421Y0240053D01*
X0297545Y0239950D01*
X0297666Y0239845D01*
X0297785Y0239736D01*
X0297901Y0239625D01*
X0298014Y0239510D01*
X0298124Y0239393D01*
X0298231Y0239273D01*
X0298335Y0239151D01*
X0298436Y0239026D01*
X0298534Y0238898D01*
X0298629Y0238768D01*
X0298721Y0238636D01*
X0298809Y0238502D01*
X0298894Y0238365D01*
X0298976Y0238227D01*
X0299054Y0238086D01*
X0299128Y0237944D01*
X0299199Y0237800D01*
X0299267Y0237654D01*
X0299330Y0237506D01*
X0299391Y0237357D01*
X0299447Y0237206D01*
X0299500Y0237054D01*
X0299549Y0236901D01*
X0299594Y0236747D01*
X0299635Y0236592D01*
X0299673Y0236435D01*
X0299706Y0236278D01*
X0299736Y0236120D01*
X0299762Y0235961D01*
X0299783Y0235802D01*
X0299801Y0235642D01*
X0299815Y0235482D01*
X0299825Y0235321D01*
X0299831Y0235161D01*
X0299833Y0235000D01*
X0299831Y0234839D01*
X0299825Y0234679D01*
X0299815Y0234518D01*
X0299801Y0234358D01*
X0299783Y0234198D01*
X0299762Y0234039D01*
X0299736Y0233880D01*
X0299706Y0233722D01*
X0299673Y0233565D01*
X0299635Y0233408D01*
X0299594Y0233253D01*
X0299549Y0233099D01*
X0299500Y0232946D01*
X0299447Y0232794D01*
X0299391Y0232643D01*
X0299330Y0232494D01*
X0299267Y0232346D01*
X0299199Y0232200D01*
X0299128Y0232056D01*
X0299054Y0231914D01*
X0298976Y0231773D01*
X0298894Y0231635D01*
X0298809Y0231498D01*
X0298721Y0231364D01*
X0298629Y0231232D01*
X0298534Y0231102D01*
X0298436Y0230974D01*
X0298335Y0230849D01*
X0298231Y0230727D01*
X0298124Y0230607D01*
X0298014Y0230490D01*
X0297901Y0230375D01*
X0297785Y0230264D01*
X0297666Y0230155D01*
X0297545Y0230050D01*
X0297421Y0229947D01*
X0297295Y0229847D01*
X0297167Y0229751D01*
X0297036Y0229658D01*
X0296902Y0229568D01*
X0296767Y0229481D01*
X0296629Y0229398D01*
X0296490Y0229318D01*
X0296348Y0229242D01*
X0296205Y0229169D01*
X0296060Y0229100D01*
X0295913Y0229034D01*
X0295765Y0228972D01*
X0295615Y0228914D01*
X0295464Y0228859D01*
X0295311Y0228808D01*
X0295157Y0228761D01*
X0295002Y0228718D01*
X0294846Y0228679D01*
X0294690Y0228643D01*
X0294532Y0228612D01*
X0294374Y0228584D01*
X0294215Y0228560D01*
X0294055Y0228540D01*
X0293895Y0228524D01*
X0293735Y0228512D01*
X0293574Y0228504D01*
X0293413Y0228500D01*
X0293253Y0228500D01*
X0293092Y0228504D01*
X0292931Y0228512D01*
X0292771Y0228524D01*
X0292611Y0228540D01*
X0292451Y0228560D01*
X0292292Y0228584D01*
X0292134Y0228612D01*
X0291976Y0228643D01*
X0291820Y0228679D01*
X0291664Y0228718D01*
X0291509Y0228761D01*
X0291355Y0228808D01*
X0291202Y0228859D01*
X0291051Y0228914D01*
X0290901Y0228972D01*
X0290753Y0229034D01*
X0290606Y0229100D01*
X0290461Y0229169D01*
X0290318Y0229242D01*
X0290176Y0229318D01*
X0290037Y0229398D01*
X0289899Y0229481D01*
X0289764Y0229568D01*
X0289630Y0229658D01*
X0289499Y0229751D01*
X0289371Y0229847D01*
X0289245Y0229947D01*
X0289121Y0230050D01*
X0289000Y0230155D01*
X0288881Y0230264D01*
X0288765Y0230375D01*
X0288652Y0230490D01*
X0288542Y0230607D01*
X0288435Y0230727D01*
X0288331Y0230849D01*
X0288230Y0230974D01*
X0288132Y0231102D01*
X0288037Y0231232D01*
X0287945Y0231364D01*
X0287857Y0231498D01*
X0287772Y0231635D01*
X0287690Y0231773D01*
X0287612Y0231914D01*
X0287538Y0232056D01*
X0287467Y0232200D01*
X0287399Y0232346D01*
X0287336Y0232494D01*
X0287275Y0232643D01*
X0287219Y0232794D01*
X0287166Y0232946D01*
X0287117Y0233099D01*
X0287072Y0233253D01*
X0287031Y0233408D01*
X0286993Y0233565D01*
X0286960Y0233722D01*
X0286930Y0233880D01*
X0286904Y0234039D01*
X0286883Y0234198D01*
X0286865Y0234358D01*
X0286851Y0234518D01*
X0286841Y0234679D01*
X0286835Y0234839D01*
X0286833Y0235000D01*
X0316833Y0235000D02*
X0316835Y0235161D01*
X0316841Y0235321D01*
X0316851Y0235482D01*
X0316865Y0235642D01*
X0316883Y0235802D01*
X0316904Y0235961D01*
X0316930Y0236120D01*
X0316960Y0236278D01*
X0316993Y0236435D01*
X0317031Y0236592D01*
X0317072Y0236747D01*
X0317117Y0236901D01*
X0317166Y0237054D01*
X0317219Y0237206D01*
X0317275Y0237357D01*
X0317336Y0237506D01*
X0317399Y0237654D01*
X0317467Y0237800D01*
X0317538Y0237944D01*
X0317612Y0238086D01*
X0317690Y0238227D01*
X0317772Y0238365D01*
X0317857Y0238502D01*
X0317945Y0238636D01*
X0318037Y0238768D01*
X0318132Y0238898D01*
X0318230Y0239026D01*
X0318331Y0239151D01*
X0318435Y0239273D01*
X0318542Y0239393D01*
X0318652Y0239510D01*
X0318765Y0239625D01*
X0318881Y0239736D01*
X0319000Y0239845D01*
X0319121Y0239950D01*
X0319245Y0240053D01*
X0319371Y0240153D01*
X0319499Y0240249D01*
X0319630Y0240342D01*
X0319764Y0240432D01*
X0319899Y0240519D01*
X0320037Y0240602D01*
X0320176Y0240682D01*
X0320318Y0240758D01*
X0320461Y0240831D01*
X0320606Y0240900D01*
X0320753Y0240966D01*
X0320901Y0241028D01*
X0321051Y0241086D01*
X0321202Y0241141D01*
X0321355Y0241192D01*
X0321509Y0241239D01*
X0321664Y0241282D01*
X0321820Y0241321D01*
X0321976Y0241357D01*
X0322134Y0241388D01*
X0322292Y0241416D01*
X0322451Y0241440D01*
X0322611Y0241460D01*
X0322771Y0241476D01*
X0322931Y0241488D01*
X0323092Y0241496D01*
X0323253Y0241500D01*
X0323413Y0241500D01*
X0323574Y0241496D01*
X0323735Y0241488D01*
X0323895Y0241476D01*
X0324055Y0241460D01*
X0324215Y0241440D01*
X0324374Y0241416D01*
X0324532Y0241388D01*
X0324690Y0241357D01*
X0324846Y0241321D01*
X0325002Y0241282D01*
X0325157Y0241239D01*
X0325311Y0241192D01*
X0325464Y0241141D01*
X0325615Y0241086D01*
X0325765Y0241028D01*
X0325913Y0240966D01*
X0326060Y0240900D01*
X0326205Y0240831D01*
X0326348Y0240758D01*
X0326490Y0240682D01*
X0326629Y0240602D01*
X0326767Y0240519D01*
X0326902Y0240432D01*
X0327036Y0240342D01*
X0327167Y0240249D01*
X0327295Y0240153D01*
X0327421Y0240053D01*
X0327545Y0239950D01*
X0327666Y0239845D01*
X0327785Y0239736D01*
X0327901Y0239625D01*
X0328014Y0239510D01*
X0328124Y0239393D01*
X0328231Y0239273D01*
X0328335Y0239151D01*
X0328436Y0239026D01*
X0328534Y0238898D01*
X0328629Y0238768D01*
X0328721Y0238636D01*
X0328809Y0238502D01*
X0328894Y0238365D01*
X0328976Y0238227D01*
X0329054Y0238086D01*
X0329128Y0237944D01*
X0329199Y0237800D01*
X0329267Y0237654D01*
X0329330Y0237506D01*
X0329391Y0237357D01*
X0329447Y0237206D01*
X0329500Y0237054D01*
X0329549Y0236901D01*
X0329594Y0236747D01*
X0329635Y0236592D01*
X0329673Y0236435D01*
X0329706Y0236278D01*
X0329736Y0236120D01*
X0329762Y0235961D01*
X0329783Y0235802D01*
X0329801Y0235642D01*
X0329815Y0235482D01*
X0329825Y0235321D01*
X0329831Y0235161D01*
X0329833Y0235000D01*
X0329831Y0234839D01*
X0329825Y0234679D01*
X0329815Y0234518D01*
X0329801Y0234358D01*
X0329783Y0234198D01*
X0329762Y0234039D01*
X0329736Y0233880D01*
X0329706Y0233722D01*
X0329673Y0233565D01*
X0329635Y0233408D01*
X0329594Y0233253D01*
X0329549Y0233099D01*
X0329500Y0232946D01*
X0329447Y0232794D01*
X0329391Y0232643D01*
X0329330Y0232494D01*
X0329267Y0232346D01*
X0329199Y0232200D01*
X0329128Y0232056D01*
X0329054Y0231914D01*
X0328976Y0231773D01*
X0328894Y0231635D01*
X0328809Y0231498D01*
X0328721Y0231364D01*
X0328629Y0231232D01*
X0328534Y0231102D01*
X0328436Y0230974D01*
X0328335Y0230849D01*
X0328231Y0230727D01*
X0328124Y0230607D01*
X0328014Y0230490D01*
X0327901Y0230375D01*
X0327785Y0230264D01*
X0327666Y0230155D01*
X0327545Y0230050D01*
X0327421Y0229947D01*
X0327295Y0229847D01*
X0327167Y0229751D01*
X0327036Y0229658D01*
X0326902Y0229568D01*
X0326767Y0229481D01*
X0326629Y0229398D01*
X0326490Y0229318D01*
X0326348Y0229242D01*
X0326205Y0229169D01*
X0326060Y0229100D01*
X0325913Y0229034D01*
X0325765Y0228972D01*
X0325615Y0228914D01*
X0325464Y0228859D01*
X0325311Y0228808D01*
X0325157Y0228761D01*
X0325002Y0228718D01*
X0324846Y0228679D01*
X0324690Y0228643D01*
X0324532Y0228612D01*
X0324374Y0228584D01*
X0324215Y0228560D01*
X0324055Y0228540D01*
X0323895Y0228524D01*
X0323735Y0228512D01*
X0323574Y0228504D01*
X0323413Y0228500D01*
X0323253Y0228500D01*
X0323092Y0228504D01*
X0322931Y0228512D01*
X0322771Y0228524D01*
X0322611Y0228540D01*
X0322451Y0228560D01*
X0322292Y0228584D01*
X0322134Y0228612D01*
X0321976Y0228643D01*
X0321820Y0228679D01*
X0321664Y0228718D01*
X0321509Y0228761D01*
X0321355Y0228808D01*
X0321202Y0228859D01*
X0321051Y0228914D01*
X0320901Y0228972D01*
X0320753Y0229034D01*
X0320606Y0229100D01*
X0320461Y0229169D01*
X0320318Y0229242D01*
X0320176Y0229318D01*
X0320037Y0229398D01*
X0319899Y0229481D01*
X0319764Y0229568D01*
X0319630Y0229658D01*
X0319499Y0229751D01*
X0319371Y0229847D01*
X0319245Y0229947D01*
X0319121Y0230050D01*
X0319000Y0230155D01*
X0318881Y0230264D01*
X0318765Y0230375D01*
X0318652Y0230490D01*
X0318542Y0230607D01*
X0318435Y0230727D01*
X0318331Y0230849D01*
X0318230Y0230974D01*
X0318132Y0231102D01*
X0318037Y0231232D01*
X0317945Y0231364D01*
X0317857Y0231498D01*
X0317772Y0231635D01*
X0317690Y0231773D01*
X0317612Y0231914D01*
X0317538Y0232056D01*
X0317467Y0232200D01*
X0317399Y0232346D01*
X0317336Y0232494D01*
X0317275Y0232643D01*
X0317219Y0232794D01*
X0317166Y0232946D01*
X0317117Y0233099D01*
X0317072Y0233253D01*
X0317031Y0233408D01*
X0316993Y0233565D01*
X0316960Y0233722D01*
X0316930Y0233880D01*
X0316904Y0234039D01*
X0316883Y0234198D01*
X0316865Y0234358D01*
X0316851Y0234518D01*
X0316841Y0234679D01*
X0316835Y0234839D01*
X0316833Y0235000D01*
X0286833Y0285000D02*
X0286835Y0285161D01*
X0286841Y0285321D01*
X0286851Y0285482D01*
X0286865Y0285642D01*
X0286883Y0285802D01*
X0286904Y0285961D01*
X0286930Y0286120D01*
X0286960Y0286278D01*
X0286993Y0286435D01*
X0287031Y0286592D01*
X0287072Y0286747D01*
X0287117Y0286901D01*
X0287166Y0287054D01*
X0287219Y0287206D01*
X0287275Y0287357D01*
X0287336Y0287506D01*
X0287399Y0287654D01*
X0287467Y0287800D01*
X0287538Y0287944D01*
X0287612Y0288086D01*
X0287690Y0288227D01*
X0287772Y0288365D01*
X0287857Y0288502D01*
X0287945Y0288636D01*
X0288037Y0288768D01*
X0288132Y0288898D01*
X0288230Y0289026D01*
X0288331Y0289151D01*
X0288435Y0289273D01*
X0288542Y0289393D01*
X0288652Y0289510D01*
X0288765Y0289625D01*
X0288881Y0289736D01*
X0289000Y0289845D01*
X0289121Y0289950D01*
X0289245Y0290053D01*
X0289371Y0290153D01*
X0289499Y0290249D01*
X0289630Y0290342D01*
X0289764Y0290432D01*
X0289899Y0290519D01*
X0290037Y0290602D01*
X0290176Y0290682D01*
X0290318Y0290758D01*
X0290461Y0290831D01*
X0290606Y0290900D01*
X0290753Y0290966D01*
X0290901Y0291028D01*
X0291051Y0291086D01*
X0291202Y0291141D01*
X0291355Y0291192D01*
X0291509Y0291239D01*
X0291664Y0291282D01*
X0291820Y0291321D01*
X0291976Y0291357D01*
X0292134Y0291388D01*
X0292292Y0291416D01*
X0292451Y0291440D01*
X0292611Y0291460D01*
X0292771Y0291476D01*
X0292931Y0291488D01*
X0293092Y0291496D01*
X0293253Y0291500D01*
X0293413Y0291500D01*
X0293574Y0291496D01*
X0293735Y0291488D01*
X0293895Y0291476D01*
X0294055Y0291460D01*
X0294215Y0291440D01*
X0294374Y0291416D01*
X0294532Y0291388D01*
X0294690Y0291357D01*
X0294846Y0291321D01*
X0295002Y0291282D01*
X0295157Y0291239D01*
X0295311Y0291192D01*
X0295464Y0291141D01*
X0295615Y0291086D01*
X0295765Y0291028D01*
X0295913Y0290966D01*
X0296060Y0290900D01*
X0296205Y0290831D01*
X0296348Y0290758D01*
X0296490Y0290682D01*
X0296629Y0290602D01*
X0296767Y0290519D01*
X0296902Y0290432D01*
X0297036Y0290342D01*
X0297167Y0290249D01*
X0297295Y0290153D01*
X0297421Y0290053D01*
X0297545Y0289950D01*
X0297666Y0289845D01*
X0297785Y0289736D01*
X0297901Y0289625D01*
X0298014Y0289510D01*
X0298124Y0289393D01*
X0298231Y0289273D01*
X0298335Y0289151D01*
X0298436Y0289026D01*
X0298534Y0288898D01*
X0298629Y0288768D01*
X0298721Y0288636D01*
X0298809Y0288502D01*
X0298894Y0288365D01*
X0298976Y0288227D01*
X0299054Y0288086D01*
X0299128Y0287944D01*
X0299199Y0287800D01*
X0299267Y0287654D01*
X0299330Y0287506D01*
X0299391Y0287357D01*
X0299447Y0287206D01*
X0299500Y0287054D01*
X0299549Y0286901D01*
X0299594Y0286747D01*
X0299635Y0286592D01*
X0299673Y0286435D01*
X0299706Y0286278D01*
X0299736Y0286120D01*
X0299762Y0285961D01*
X0299783Y0285802D01*
X0299801Y0285642D01*
X0299815Y0285482D01*
X0299825Y0285321D01*
X0299831Y0285161D01*
X0299833Y0285000D01*
X0299831Y0284839D01*
X0299825Y0284679D01*
X0299815Y0284518D01*
X0299801Y0284358D01*
X0299783Y0284198D01*
X0299762Y0284039D01*
X0299736Y0283880D01*
X0299706Y0283722D01*
X0299673Y0283565D01*
X0299635Y0283408D01*
X0299594Y0283253D01*
X0299549Y0283099D01*
X0299500Y0282946D01*
X0299447Y0282794D01*
X0299391Y0282643D01*
X0299330Y0282494D01*
X0299267Y0282346D01*
X0299199Y0282200D01*
X0299128Y0282056D01*
X0299054Y0281914D01*
X0298976Y0281773D01*
X0298894Y0281635D01*
X0298809Y0281498D01*
X0298721Y0281364D01*
X0298629Y0281232D01*
X0298534Y0281102D01*
X0298436Y0280974D01*
X0298335Y0280849D01*
X0298231Y0280727D01*
X0298124Y0280607D01*
X0298014Y0280490D01*
X0297901Y0280375D01*
X0297785Y0280264D01*
X0297666Y0280155D01*
X0297545Y0280050D01*
X0297421Y0279947D01*
X0297295Y0279847D01*
X0297167Y0279751D01*
X0297036Y0279658D01*
X0296902Y0279568D01*
X0296767Y0279481D01*
X0296629Y0279398D01*
X0296490Y0279318D01*
X0296348Y0279242D01*
X0296205Y0279169D01*
X0296060Y0279100D01*
X0295913Y0279034D01*
X0295765Y0278972D01*
X0295615Y0278914D01*
X0295464Y0278859D01*
X0295311Y0278808D01*
X0295157Y0278761D01*
X0295002Y0278718D01*
X0294846Y0278679D01*
X0294690Y0278643D01*
X0294532Y0278612D01*
X0294374Y0278584D01*
X0294215Y0278560D01*
X0294055Y0278540D01*
X0293895Y0278524D01*
X0293735Y0278512D01*
X0293574Y0278504D01*
X0293413Y0278500D01*
X0293253Y0278500D01*
X0293092Y0278504D01*
X0292931Y0278512D01*
X0292771Y0278524D01*
X0292611Y0278540D01*
X0292451Y0278560D01*
X0292292Y0278584D01*
X0292134Y0278612D01*
X0291976Y0278643D01*
X0291820Y0278679D01*
X0291664Y0278718D01*
X0291509Y0278761D01*
X0291355Y0278808D01*
X0291202Y0278859D01*
X0291051Y0278914D01*
X0290901Y0278972D01*
X0290753Y0279034D01*
X0290606Y0279100D01*
X0290461Y0279169D01*
X0290318Y0279242D01*
X0290176Y0279318D01*
X0290037Y0279398D01*
X0289899Y0279481D01*
X0289764Y0279568D01*
X0289630Y0279658D01*
X0289499Y0279751D01*
X0289371Y0279847D01*
X0289245Y0279947D01*
X0289121Y0280050D01*
X0289000Y0280155D01*
X0288881Y0280264D01*
X0288765Y0280375D01*
X0288652Y0280490D01*
X0288542Y0280607D01*
X0288435Y0280727D01*
X0288331Y0280849D01*
X0288230Y0280974D01*
X0288132Y0281102D01*
X0288037Y0281232D01*
X0287945Y0281364D01*
X0287857Y0281498D01*
X0287772Y0281635D01*
X0287690Y0281773D01*
X0287612Y0281914D01*
X0287538Y0282056D01*
X0287467Y0282200D01*
X0287399Y0282346D01*
X0287336Y0282494D01*
X0287275Y0282643D01*
X0287219Y0282794D01*
X0287166Y0282946D01*
X0287117Y0283099D01*
X0287072Y0283253D01*
X0287031Y0283408D01*
X0286993Y0283565D01*
X0286960Y0283722D01*
X0286930Y0283880D01*
X0286904Y0284039D01*
X0286883Y0284198D01*
X0286865Y0284358D01*
X0286851Y0284518D01*
X0286841Y0284679D01*
X0286835Y0284839D01*
X0286833Y0285000D01*
M02*
