G75*
%MOIN*%
%OFA0B0*%
%FSLAX25Y25*%
%IPPOS*%
%LPD*%
%AMOC8*
5,1,8,0,0,1.08239X$1,22.5*
%
%ADD10C,0.13800*%
%ADD11C,0.04737*%
%ADD12R,0.04146X0.09461*%
%ADD13R,0.04737X0.04934*%
%ADD14R,0.10249X0.10249*%
%ADD15R,0.10643X0.10643*%
%ADD16R,0.06312X0.07650*%
%ADD17R,0.13398X0.07099*%
%ADD18R,0.05918X0.05997*%
%ADD19R,0.07139X0.05918*%
%ADD20R,0.09461X0.04146*%
%ADD21R,0.04934X0.04737*%
%ADD22R,0.05131X0.02769*%
%ADD23R,0.04146X0.04343*%
%ADD24R,0.06863X0.06863*%
%ADD25R,0.07139X0.05721*%
%ADD26R,0.03950X0.07099*%
%ADD27R,0.03950X0.03359*%
%ADD28C,0.00300*%
%ADD29C,0.05000*%
%ADD30C,0.06706*%
%ADD31C,0.07300*%
D10*
X0063342Y0041750D03*
X0063342Y0111750D03*
X0063342Y0183750D03*
X0063342Y0253750D03*
X0063342Y0325750D03*
X0063342Y0395750D03*
X0063342Y0467750D03*
X0063342Y0537750D03*
X0143342Y0537750D03*
X0143342Y0557750D03*
X0143342Y0587750D03*
X0163342Y0587750D03*
X0163342Y0557750D03*
X0163342Y0537750D03*
X0143342Y0467750D03*
X0143342Y0445750D03*
X0143342Y0415750D03*
X0143342Y0395750D03*
X0163342Y0395750D03*
X0163342Y0415750D03*
X0163342Y0445750D03*
X0233342Y0395750D03*
X0253342Y0395750D03*
X0253342Y0445750D03*
X0283342Y0395750D03*
X0253342Y0303750D03*
X0253342Y0253750D03*
X0233342Y0253750D03*
X0283342Y0253750D03*
X0253342Y0161750D03*
X0253342Y0111750D03*
X0233342Y0111750D03*
X0283342Y0111750D03*
X0163342Y0111750D03*
X0163342Y0131750D03*
X0163342Y0161750D03*
X0143342Y0161750D03*
X0143342Y0183750D03*
X0143342Y0131750D03*
X0143342Y0111750D03*
X0143342Y0041750D03*
X0143342Y0253750D03*
X0143342Y0273750D03*
X0143342Y0303750D03*
X0143342Y0325750D03*
X0163342Y0303750D03*
X0163342Y0273750D03*
X0163342Y0253750D03*
X0233342Y0537750D03*
X0253342Y0537750D03*
X0253342Y0587750D03*
X0283342Y0537750D03*
D11*
X0056342Y0034750D03*
X0056342Y0176750D03*
X0056342Y0318750D03*
X0056342Y0460750D03*
X0080342Y0606000D03*
X0246342Y0594750D03*
X0266342Y0606000D03*
X0246342Y0452750D03*
X0246342Y0310750D03*
X0246342Y0168750D03*
D12*
X0275157Y0188750D03*
X0285984Y0188750D03*
X0285984Y0046750D03*
X0275157Y0046750D03*
X0193755Y0157750D03*
X0182928Y0157750D03*
X0115755Y0184250D03*
X0104928Y0184250D03*
X0067255Y0140750D03*
X0056428Y0140750D03*
X0104928Y0042250D03*
X0115755Y0042250D03*
X0067255Y0282750D03*
X0056428Y0282750D03*
X0104928Y0326250D03*
X0115755Y0326250D03*
X0067255Y0424750D03*
X0056428Y0424750D03*
X0104928Y0468250D03*
X0115755Y0468250D03*
X0067255Y0566750D03*
X0056428Y0566750D03*
X0182928Y0583750D03*
X0193755Y0583750D03*
X0275157Y0472750D03*
X0285984Y0472750D03*
X0285984Y0330750D03*
X0275157Y0330750D03*
X0193755Y0299750D03*
X0182928Y0299750D03*
X0182928Y0441750D03*
X0193755Y0441750D03*
D13*
X0188342Y0435746D03*
X0188342Y0447754D03*
X0188342Y0577746D03*
X0188342Y0589754D03*
X0110342Y0474254D03*
X0110342Y0462246D03*
X0061842Y0430754D03*
X0061842Y0418746D03*
X0110342Y0332254D03*
X0110342Y0320246D03*
X0061842Y0288754D03*
X0061842Y0276746D03*
X0110342Y0190254D03*
X0110342Y0178246D03*
X0061842Y0146754D03*
X0061842Y0134746D03*
X0110342Y0048254D03*
X0110342Y0036246D03*
X0188342Y0151746D03*
X0188342Y0163754D03*
X0188342Y0293746D03*
X0188342Y0305754D03*
X0280570Y0324746D03*
X0280570Y0336754D03*
X0280570Y0466746D03*
X0280570Y0478754D03*
X0280570Y0194754D03*
X0280570Y0182746D03*
X0280570Y0052754D03*
X0280570Y0040746D03*
X0061842Y0560746D03*
X0061842Y0572754D03*
D14*
X0098617Y0485073D03*
X0098617Y0343073D03*
X0098617Y0201073D03*
X0098617Y0059073D03*
D15*
G36*
X0085243Y0103343D02*
X0079922Y0094128D01*
X0070707Y0099449D01*
X0076028Y0108664D01*
X0085243Y0103343D01*
G37*
G36*
X0126762Y0094128D02*
X0121441Y0103343D01*
X0130656Y0108664D01*
X0135977Y0099449D01*
X0126762Y0094128D01*
G37*
G36*
X0126762Y0236128D02*
X0121441Y0245343D01*
X0130656Y0250664D01*
X0135977Y0241449D01*
X0126762Y0236128D01*
G37*
G36*
X0085243Y0245343D02*
X0079922Y0236128D01*
X0070707Y0241449D01*
X0076028Y0250664D01*
X0085243Y0245343D01*
G37*
G36*
X0085243Y0387343D02*
X0079922Y0378128D01*
X0070707Y0383449D01*
X0076028Y0392664D01*
X0085243Y0387343D01*
G37*
G36*
X0126762Y0378128D02*
X0121441Y0387343D01*
X0130656Y0392664D01*
X0135977Y0383449D01*
X0126762Y0378128D01*
G37*
G36*
X0126762Y0520128D02*
X0121441Y0529343D01*
X0130656Y0534664D01*
X0135977Y0525449D01*
X0126762Y0520128D01*
G37*
G36*
X0085243Y0529343D02*
X0079922Y0520128D01*
X0070707Y0525449D01*
X0076028Y0534664D01*
X0085243Y0529343D01*
G37*
D16*
X0110232Y0484089D03*
X0110232Y0342089D03*
X0110232Y0200089D03*
X0110232Y0058089D03*
D17*
X0182968Y0036829D03*
X0213716Y0036829D03*
X0213716Y0076671D03*
X0213716Y0178829D03*
X0213716Y0218671D03*
X0182968Y0178829D03*
X0182968Y0320829D03*
X0213716Y0320829D03*
X0213716Y0360671D03*
X0213716Y0462829D03*
X0213716Y0502671D03*
X0182968Y0462829D03*
D18*
X0184385Y0503222D03*
X0184385Y0361222D03*
X0184385Y0219222D03*
X0184385Y0077222D03*
D19*
X0177358Y0070136D03*
X0177358Y0212136D03*
X0177358Y0354136D03*
X0177358Y0496136D03*
D20*
X0163342Y0490837D03*
X0163342Y0501663D03*
X0163342Y0359663D03*
X0163342Y0348837D03*
X0163342Y0217663D03*
X0163342Y0206837D03*
X0163342Y0075663D03*
X0163342Y0064837D03*
X0263342Y0126337D03*
X0263342Y0137163D03*
X0263342Y0268337D03*
X0263342Y0279163D03*
X0263342Y0410337D03*
X0263342Y0421163D03*
X0263342Y0552337D03*
X0263342Y0563163D03*
D21*
X0269346Y0557750D03*
X0257338Y0557750D03*
X0257338Y0415750D03*
X0269346Y0415750D03*
X0269346Y0273750D03*
X0257338Y0273750D03*
X0257338Y0131750D03*
X0269346Y0131750D03*
X0169346Y0070250D03*
X0157338Y0070250D03*
X0157338Y0212250D03*
X0169346Y0212250D03*
X0169346Y0354250D03*
X0157338Y0354250D03*
X0157338Y0496250D03*
X0169346Y0496250D03*
D22*
X0252633Y0464415D03*
X0252633Y0460085D03*
X0264050Y0460085D03*
X0264050Y0464415D03*
X0264050Y0322415D03*
X0264050Y0318085D03*
X0252633Y0318085D03*
X0252633Y0322415D03*
X0252633Y0180415D03*
X0252633Y0176085D03*
X0264050Y0176085D03*
X0264050Y0180415D03*
X0264050Y0038415D03*
X0264050Y0034085D03*
X0252633Y0034085D03*
X0252633Y0038415D03*
D23*
X0271558Y0038250D03*
X0276125Y0038250D03*
X0276125Y0180250D03*
X0271558Y0180250D03*
X0271558Y0322250D03*
X0276125Y0322250D03*
X0276125Y0464250D03*
X0271558Y0464250D03*
D24*
X0077019Y0449569D03*
X0077019Y0441931D03*
X0061665Y0441931D03*
X0061665Y0449569D03*
X0061665Y0583931D03*
X0061665Y0591569D03*
X0077019Y0591569D03*
X0077019Y0583931D03*
X0077019Y0307569D03*
X0077019Y0299931D03*
X0061665Y0299931D03*
X0061665Y0307569D03*
X0061665Y0165569D03*
X0061665Y0157931D03*
X0077019Y0157931D03*
X0077019Y0165569D03*
D25*
X0283342Y0163061D03*
X0283342Y0139439D03*
X0283342Y0281439D03*
X0283342Y0305061D03*
X0283342Y0423439D03*
X0283342Y0447061D03*
X0283342Y0565439D03*
X0283342Y0589061D03*
D26*
X0219641Y0592750D03*
X0219641Y0450750D03*
X0219641Y0308750D03*
X0219641Y0166750D03*
D27*
X0207043Y0164880D03*
X0207043Y0168620D03*
X0207043Y0306880D03*
X0207043Y0310620D03*
X0207043Y0448880D03*
X0207043Y0452620D03*
X0207043Y0590880D03*
X0207043Y0594620D03*
D28*
X0235173Y0527549D02*
X0234739Y0527313D01*
X0234385Y0527037D01*
X0234188Y0526722D01*
X0234070Y0526368D01*
X0234070Y0526053D01*
X0234149Y0525699D01*
X0234346Y0525344D01*
X0234621Y0525030D01*
X0234936Y0524675D01*
X0235212Y0524400D01*
X0235330Y0524085D01*
X0235330Y0523809D01*
X0235251Y0523573D01*
X0235094Y0523376D01*
X0234858Y0523219D01*
X0234543Y0523140D01*
X0234228Y0523140D01*
X0234031Y0523179D01*
X0233834Y0523258D01*
X0233598Y0523494D01*
X0233519Y0523612D01*
X0233480Y0523730D01*
X0233480Y0523888D01*
X0233519Y0524006D01*
X0233755Y0524242D01*
X0233873Y0524281D01*
X0234031Y0524360D01*
X0234070Y0524400D01*
X0233913Y0524478D01*
X0233440Y0524478D01*
X0233204Y0524439D01*
X0233007Y0524400D01*
X0232810Y0524321D01*
X0232653Y0524203D01*
X0232456Y0524045D01*
X0232220Y0523652D01*
X0232141Y0523376D01*
X0232102Y0523061D01*
X0232102Y0517667D01*
X0232298Y0517864D01*
X0232417Y0518061D01*
X0232613Y0518258D01*
X0232810Y0518494D01*
X0233283Y0518967D01*
X0233755Y0519518D01*
X0234149Y0519911D01*
X0234543Y0520148D01*
X0234779Y0520187D01*
X0235527Y0520187D01*
X0235999Y0520266D01*
X0236432Y0520384D01*
X0236826Y0520541D01*
X0237220Y0520778D01*
X0237535Y0521053D01*
X0237850Y0521368D01*
X0238125Y0521722D01*
X0238519Y0522431D01*
X0238716Y0523179D01*
X0238755Y0523848D01*
X0238637Y0524478D01*
X0238440Y0525069D01*
X0238165Y0525502D01*
X0237850Y0525856D01*
X0237535Y0526053D01*
X0237535Y0525699D01*
X0237495Y0525581D01*
X0237456Y0525502D01*
X0237338Y0525384D01*
X0237220Y0525344D01*
X0237102Y0525344D01*
X0236787Y0525423D01*
X0236629Y0525502D01*
X0236511Y0525581D01*
X0236354Y0525699D01*
X0236117Y0525935D01*
X0235960Y0526171D01*
X0235921Y0526329D01*
X0235921Y0526565D01*
X0235960Y0526683D01*
X0235999Y0526762D01*
X0236078Y0526880D01*
X0236236Y0526998D01*
X0236393Y0527077D01*
X0236590Y0527116D01*
X0236747Y0527156D01*
X0236984Y0527156D01*
X0237062Y0527116D01*
X0237102Y0527116D01*
X0237062Y0527156D01*
X0236905Y0527274D01*
X0236354Y0527549D01*
X0235999Y0527628D01*
X0235606Y0527628D01*
X0235173Y0527549D01*
X0235327Y0527577D02*
X0236227Y0527577D01*
X0236212Y0526980D02*
X0234349Y0526980D01*
X0234175Y0526682D02*
X0235959Y0526682D01*
X0235921Y0526383D02*
X0234075Y0526383D01*
X0234070Y0526085D02*
X0236018Y0526085D01*
X0236266Y0525786D02*
X0234129Y0525786D01*
X0234266Y0525488D02*
X0236658Y0525488D01*
X0237442Y0525488D02*
X0238174Y0525488D01*
X0238364Y0525189D02*
X0234482Y0525189D01*
X0234745Y0524891D02*
X0238500Y0524891D01*
X0238599Y0524592D02*
X0235019Y0524592D01*
X0235252Y0524294D02*
X0238672Y0524294D01*
X0238728Y0523995D02*
X0235330Y0523995D01*
X0235293Y0523697D02*
X0238746Y0523697D01*
X0238729Y0523398D02*
X0235112Y0523398D01*
X0233694Y0523398D02*
X0232147Y0523398D01*
X0232106Y0523100D02*
X0238695Y0523100D01*
X0238616Y0522801D02*
X0232102Y0522801D01*
X0232102Y0522503D02*
X0238538Y0522503D01*
X0238393Y0522204D02*
X0232102Y0522204D01*
X0232102Y0521906D02*
X0238227Y0521906D01*
X0238036Y0521607D02*
X0232102Y0521607D01*
X0232102Y0521309D02*
X0237790Y0521309D01*
X0237485Y0521010D02*
X0232102Y0521010D01*
X0232102Y0520712D02*
X0237110Y0520712D01*
X0236505Y0520413D02*
X0232102Y0520413D01*
X0232102Y0520115D02*
X0234487Y0520115D01*
X0234053Y0519816D02*
X0232102Y0519816D01*
X0232102Y0519517D02*
X0233755Y0519517D01*
X0233499Y0519219D02*
X0232102Y0519219D01*
X0232102Y0518920D02*
X0233237Y0518920D01*
X0232938Y0518622D02*
X0232102Y0518622D01*
X0232102Y0518323D02*
X0232668Y0518323D01*
X0232395Y0518025D02*
X0232102Y0518025D01*
X0232102Y0517726D02*
X0232161Y0517726D01*
X0232247Y0523697D02*
X0233491Y0523697D01*
X0233515Y0523995D02*
X0232426Y0523995D01*
X0232774Y0524294D02*
X0233898Y0524294D01*
X0234695Y0527279D02*
X0236894Y0527279D01*
X0237535Y0525786D02*
X0237912Y0525786D01*
X0265102Y0532667D02*
X0265298Y0532864D01*
X0265417Y0533061D01*
X0265613Y0533258D01*
X0265810Y0533494D01*
X0266283Y0533967D01*
X0266755Y0534518D01*
X0267149Y0534911D01*
X0267543Y0535148D01*
X0267779Y0535187D01*
X0268527Y0535187D01*
X0268999Y0535266D01*
X0269432Y0535384D01*
X0269826Y0535541D01*
X0270220Y0535778D01*
X0270535Y0536053D01*
X0270850Y0536368D01*
X0271125Y0536722D01*
X0271519Y0537431D01*
X0271716Y0538179D01*
X0271755Y0538848D01*
X0271637Y0539478D01*
X0271440Y0540069D01*
X0271165Y0540502D01*
X0270850Y0540856D01*
X0270535Y0541053D01*
X0270535Y0540699D01*
X0270495Y0540581D01*
X0270456Y0540502D01*
X0270338Y0540384D01*
X0270220Y0540344D01*
X0270102Y0540344D01*
X0269787Y0540423D01*
X0269629Y0540502D01*
X0269511Y0540581D01*
X0269354Y0540699D01*
X0269117Y0540935D01*
X0268960Y0541171D01*
X0268921Y0541329D01*
X0268921Y0541565D01*
X0268960Y0541683D01*
X0268999Y0541762D01*
X0269078Y0541880D01*
X0269236Y0541998D01*
X0269393Y0542077D01*
X0269590Y0542116D01*
X0269747Y0542156D01*
X0269984Y0542156D01*
X0270062Y0542116D01*
X0270102Y0542116D01*
X0270062Y0542156D01*
X0269905Y0542274D01*
X0269354Y0542549D01*
X0268999Y0542628D01*
X0268606Y0542628D01*
X0268173Y0542549D01*
X0267739Y0542313D01*
X0267385Y0542037D01*
X0267188Y0541722D01*
X0267070Y0541368D01*
X0267070Y0541053D01*
X0267149Y0540699D01*
X0267346Y0540344D01*
X0267621Y0540030D01*
X0267936Y0539675D01*
X0268212Y0539400D01*
X0268330Y0539085D01*
X0268330Y0538809D01*
X0268251Y0538573D01*
X0268094Y0538376D01*
X0267858Y0538219D01*
X0267543Y0538140D01*
X0267228Y0538140D01*
X0267031Y0538179D01*
X0266834Y0538258D01*
X0266598Y0538494D01*
X0266519Y0538612D01*
X0266480Y0538730D01*
X0266480Y0538888D01*
X0266519Y0539006D01*
X0266755Y0539242D01*
X0266873Y0539281D01*
X0267031Y0539360D01*
X0267070Y0539400D01*
X0266913Y0539478D01*
X0266440Y0539478D01*
X0266204Y0539439D01*
X0266007Y0539400D01*
X0265810Y0539321D01*
X0265653Y0539203D01*
X0265456Y0539045D01*
X0265220Y0538652D01*
X0265141Y0538376D01*
X0265102Y0538061D01*
X0265102Y0532667D01*
X0265102Y0532951D02*
X0265350Y0532951D01*
X0265102Y0533249D02*
X0265605Y0533249D01*
X0265864Y0533548D02*
X0265102Y0533548D01*
X0265102Y0533846D02*
X0266162Y0533846D01*
X0266435Y0534145D02*
X0265102Y0534145D01*
X0265102Y0534443D02*
X0266691Y0534443D01*
X0266979Y0534742D02*
X0265102Y0534742D01*
X0265102Y0535040D02*
X0267363Y0535040D01*
X0269266Y0535339D02*
X0265102Y0535339D01*
X0265102Y0535637D02*
X0269986Y0535637D01*
X0270400Y0535936D02*
X0265102Y0535936D01*
X0265102Y0536234D02*
X0270716Y0536234D01*
X0270978Y0536533D02*
X0265102Y0536533D01*
X0265102Y0536831D02*
X0271186Y0536831D01*
X0271352Y0537130D02*
X0265102Y0537130D01*
X0265102Y0537428D02*
X0271517Y0537428D01*
X0271597Y0537727D02*
X0265102Y0537727D01*
X0265102Y0538025D02*
X0271675Y0538025D01*
X0271724Y0538324D02*
X0268015Y0538324D01*
X0268268Y0538622D02*
X0271742Y0538622D01*
X0271742Y0538921D02*
X0268330Y0538921D01*
X0268280Y0539219D02*
X0271686Y0539219D01*
X0271624Y0539518D02*
X0268094Y0539518D01*
X0267811Y0539816D02*
X0271524Y0539816D01*
X0271411Y0540115D02*
X0267547Y0540115D01*
X0267308Y0540413D02*
X0269826Y0540413D01*
X0270367Y0540413D02*
X0271221Y0540413D01*
X0270978Y0540712D02*
X0270535Y0540712D01*
X0270535Y0541010D02*
X0270603Y0541010D01*
X0269341Y0540712D02*
X0267146Y0540712D01*
X0267080Y0541010D02*
X0269067Y0541010D01*
X0268926Y0541309D02*
X0267070Y0541309D01*
X0267150Y0541607D02*
X0268935Y0541607D01*
X0269113Y0541906D02*
X0267303Y0541906D01*
X0267600Y0542204D02*
X0269997Y0542204D01*
X0269446Y0542503D02*
X0268088Y0542503D01*
X0266732Y0539219D02*
X0265675Y0539219D01*
X0265381Y0538921D02*
X0266491Y0538921D01*
X0266516Y0538622D02*
X0265211Y0538622D01*
X0265134Y0538324D02*
X0266768Y0538324D01*
X0268606Y0400628D02*
X0268173Y0400549D01*
X0267739Y0400313D01*
X0267385Y0400037D01*
X0267188Y0399722D01*
X0267070Y0399368D01*
X0267070Y0399053D01*
X0267149Y0398699D01*
X0267346Y0398344D01*
X0267621Y0398030D01*
X0267936Y0397675D01*
X0268212Y0397400D01*
X0268330Y0397085D01*
X0268330Y0396809D01*
X0268251Y0396573D01*
X0268094Y0396376D01*
X0267858Y0396219D01*
X0267543Y0396140D01*
X0267228Y0396140D01*
X0267031Y0396179D01*
X0266834Y0396258D01*
X0266598Y0396494D01*
X0266519Y0396612D01*
X0266480Y0396730D01*
X0266480Y0396888D01*
X0266519Y0397006D01*
X0266755Y0397242D01*
X0266873Y0397281D01*
X0267031Y0397360D01*
X0267070Y0397400D01*
X0266913Y0397478D01*
X0266440Y0397478D01*
X0266204Y0397439D01*
X0266007Y0397400D01*
X0265810Y0397321D01*
X0265653Y0397203D01*
X0265456Y0397045D01*
X0265220Y0396652D01*
X0265141Y0396376D01*
X0265102Y0396061D01*
X0265102Y0390667D01*
X0265298Y0390864D01*
X0265417Y0391061D01*
X0265613Y0391258D01*
X0265810Y0391494D01*
X0266283Y0391967D01*
X0266755Y0392518D01*
X0267149Y0392911D01*
X0267543Y0393148D01*
X0267779Y0393187D01*
X0268527Y0393187D01*
X0268999Y0393266D01*
X0269432Y0393384D01*
X0269826Y0393541D01*
X0270220Y0393778D01*
X0270535Y0394053D01*
X0270850Y0394368D01*
X0271125Y0394722D01*
X0271519Y0395431D01*
X0271716Y0396179D01*
X0271755Y0396848D01*
X0271637Y0397478D01*
X0271440Y0398069D01*
X0271165Y0398502D01*
X0270850Y0398856D01*
X0270535Y0399053D01*
X0270535Y0398699D01*
X0270495Y0398581D01*
X0270456Y0398502D01*
X0270338Y0398384D01*
X0270220Y0398344D01*
X0270102Y0398344D01*
X0269787Y0398423D01*
X0269629Y0398502D01*
X0269511Y0398581D01*
X0269354Y0398699D01*
X0269117Y0398935D01*
X0268960Y0399171D01*
X0268921Y0399329D01*
X0268921Y0399565D01*
X0268960Y0399683D01*
X0268999Y0399762D01*
X0269078Y0399880D01*
X0269236Y0399998D01*
X0269393Y0400077D01*
X0269590Y0400116D01*
X0269747Y0400156D01*
X0269984Y0400156D01*
X0270062Y0400116D01*
X0270102Y0400116D01*
X0270062Y0400156D01*
X0269905Y0400274D01*
X0269354Y0400549D01*
X0268999Y0400628D01*
X0268606Y0400628D01*
X0267920Y0400411D02*
X0269629Y0400411D01*
X0269574Y0400113D02*
X0267482Y0400113D01*
X0267246Y0399814D02*
X0269034Y0399814D01*
X0268921Y0399516D02*
X0267119Y0399516D01*
X0267070Y0399217D02*
X0268948Y0399217D01*
X0269134Y0398919D02*
X0267100Y0398919D01*
X0267192Y0398620D02*
X0269458Y0398620D01*
X0270509Y0398620D02*
X0271059Y0398620D01*
X0271279Y0398322D02*
X0267366Y0398322D01*
X0267627Y0398023D02*
X0271455Y0398023D01*
X0271555Y0397725D02*
X0267892Y0397725D01*
X0268185Y0397426D02*
X0271647Y0397426D01*
X0271703Y0397128D02*
X0268314Y0397128D01*
X0268330Y0396829D02*
X0271754Y0396829D01*
X0271737Y0396531D02*
X0268218Y0396531D01*
X0267878Y0396232D02*
X0271719Y0396232D01*
X0271651Y0395934D02*
X0265102Y0395934D01*
X0265102Y0395635D02*
X0271573Y0395635D01*
X0271467Y0395337D02*
X0265102Y0395337D01*
X0265102Y0395038D02*
X0271301Y0395038D01*
X0271135Y0394740D02*
X0265102Y0394740D01*
X0265102Y0394441D02*
X0270907Y0394441D01*
X0270624Y0394143D02*
X0265102Y0394143D01*
X0265102Y0393844D02*
X0270296Y0393844D01*
X0269833Y0393546D02*
X0265102Y0393546D01*
X0265102Y0393247D02*
X0268888Y0393247D01*
X0267211Y0392949D02*
X0265102Y0392949D01*
X0265102Y0392650D02*
X0266888Y0392650D01*
X0266613Y0392352D02*
X0265102Y0392352D01*
X0265102Y0392053D02*
X0266357Y0392053D01*
X0266071Y0391755D02*
X0265102Y0391755D01*
X0265102Y0391456D02*
X0265779Y0391456D01*
X0265513Y0391158D02*
X0265102Y0391158D01*
X0265102Y0390859D02*
X0265293Y0390859D01*
X0265123Y0396232D02*
X0266898Y0396232D01*
X0266573Y0396531D02*
X0265185Y0396531D01*
X0265326Y0396829D02*
X0266480Y0396829D01*
X0266641Y0397128D02*
X0265559Y0397128D01*
X0266141Y0397426D02*
X0267017Y0397426D01*
X0270535Y0398919D02*
X0270749Y0398919D01*
X0238440Y0383069D02*
X0238165Y0383502D01*
X0237850Y0383856D01*
X0237535Y0384053D01*
X0237535Y0383699D01*
X0237495Y0383581D01*
X0237456Y0383502D01*
X0237338Y0383384D01*
X0237220Y0383344D01*
X0237102Y0383344D01*
X0236787Y0383423D01*
X0236629Y0383502D01*
X0236511Y0383581D01*
X0236354Y0383699D01*
X0236117Y0383935D01*
X0235960Y0384171D01*
X0235921Y0384329D01*
X0235921Y0384565D01*
X0235960Y0384683D01*
X0235999Y0384762D01*
X0236078Y0384880D01*
X0236236Y0384998D01*
X0236393Y0385077D01*
X0236590Y0385116D01*
X0236747Y0385156D01*
X0236984Y0385156D01*
X0237062Y0385116D01*
X0237102Y0385116D01*
X0237062Y0385156D01*
X0236905Y0385274D01*
X0236354Y0385549D01*
X0235999Y0385628D01*
X0235606Y0385628D01*
X0235173Y0385549D01*
X0234739Y0385313D01*
X0234385Y0385037D01*
X0234188Y0384722D01*
X0234070Y0384368D01*
X0234070Y0384053D01*
X0234149Y0383699D01*
X0234346Y0383344D01*
X0234621Y0383030D01*
X0234936Y0382675D01*
X0235212Y0382400D01*
X0235330Y0382085D01*
X0235330Y0381809D01*
X0235251Y0381573D01*
X0235094Y0381376D01*
X0234858Y0381219D01*
X0234543Y0381140D01*
X0234228Y0381140D01*
X0234031Y0381179D01*
X0233834Y0381258D01*
X0233598Y0381494D01*
X0233519Y0381612D01*
X0233480Y0381730D01*
X0233480Y0381888D01*
X0233519Y0382006D01*
X0233755Y0382242D01*
X0233873Y0382281D01*
X0234031Y0382360D01*
X0234070Y0382400D01*
X0233913Y0382478D01*
X0233440Y0382478D01*
X0233204Y0382439D01*
X0233007Y0382400D01*
X0232810Y0382321D01*
X0232653Y0382203D01*
X0232456Y0382045D01*
X0232220Y0381652D01*
X0232141Y0381376D01*
X0232102Y0381061D01*
X0232102Y0375667D01*
X0232298Y0375864D01*
X0232417Y0376061D01*
X0232613Y0376258D01*
X0232810Y0376494D01*
X0233283Y0376967D01*
X0233755Y0377518D01*
X0234149Y0377911D01*
X0234543Y0378148D01*
X0234779Y0378187D01*
X0235527Y0378187D01*
X0235999Y0378266D01*
X0236432Y0378384D01*
X0236826Y0378541D01*
X0237220Y0378778D01*
X0237535Y0379053D01*
X0237850Y0379368D01*
X0238125Y0379722D01*
X0238519Y0380431D01*
X0238716Y0381179D01*
X0238755Y0381848D01*
X0238637Y0382478D01*
X0238440Y0383069D01*
X0238422Y0383098D02*
X0234562Y0383098D01*
X0234317Y0383396D02*
X0236894Y0383396D01*
X0237350Y0383396D02*
X0238232Y0383396D01*
X0237993Y0383695D02*
X0237533Y0383695D01*
X0237535Y0383993D02*
X0237630Y0383993D01*
X0236359Y0383695D02*
X0234151Y0383695D01*
X0234083Y0383993D02*
X0236079Y0383993D01*
X0235930Y0384292D02*
X0234070Y0384292D01*
X0234144Y0384590D02*
X0235929Y0384590D01*
X0236090Y0384889D02*
X0234292Y0384889D01*
X0234578Y0385187D02*
X0237020Y0385187D01*
X0236480Y0385486D02*
X0235056Y0385486D01*
X0234826Y0382799D02*
X0238530Y0382799D01*
X0238630Y0382501D02*
X0235111Y0382501D01*
X0235286Y0382202D02*
X0238689Y0382202D01*
X0238745Y0381904D02*
X0235330Y0381904D01*
X0235262Y0381605D02*
X0238741Y0381605D01*
X0238723Y0381307D02*
X0234990Y0381307D01*
X0233785Y0381307D02*
X0232132Y0381307D01*
X0232102Y0381008D02*
X0238671Y0381008D01*
X0238592Y0380710D02*
X0232102Y0380710D01*
X0232102Y0380411D02*
X0238508Y0380411D01*
X0238342Y0380113D02*
X0232102Y0380113D01*
X0232102Y0379814D02*
X0238176Y0379814D01*
X0237964Y0379516D02*
X0232102Y0379516D01*
X0232102Y0379217D02*
X0237699Y0379217D01*
X0237381Y0378919D02*
X0232102Y0378919D01*
X0232102Y0378620D02*
X0236957Y0378620D01*
X0236204Y0378322D02*
X0232102Y0378322D01*
X0232102Y0378023D02*
X0234335Y0378023D01*
X0233962Y0377725D02*
X0232102Y0377725D01*
X0232102Y0377426D02*
X0233677Y0377426D01*
X0233421Y0377128D02*
X0232102Y0377128D01*
X0232102Y0376829D02*
X0233145Y0376829D01*
X0232847Y0376531D02*
X0232102Y0376531D01*
X0232102Y0376232D02*
X0232588Y0376232D01*
X0232340Y0375934D02*
X0232102Y0375934D01*
X0232207Y0381605D02*
X0233524Y0381605D01*
X0233485Y0381904D02*
X0232371Y0381904D01*
X0232652Y0382202D02*
X0233715Y0382202D01*
X0166125Y0429722D02*
X0166519Y0430431D01*
X0166716Y0431179D01*
X0166755Y0431848D01*
X0166637Y0432478D01*
X0166440Y0433069D01*
X0166165Y0433502D01*
X0165850Y0433856D01*
X0165535Y0434053D01*
X0165535Y0433699D01*
X0165495Y0433581D01*
X0165456Y0433502D01*
X0165338Y0433384D01*
X0165220Y0433344D01*
X0165102Y0433344D01*
X0164787Y0433423D01*
X0164629Y0433502D01*
X0164511Y0433581D01*
X0164354Y0433699D01*
X0164117Y0433935D01*
X0163960Y0434171D01*
X0163921Y0434329D01*
X0163921Y0434565D01*
X0163960Y0434683D01*
X0163999Y0434762D01*
X0164078Y0434880D01*
X0164236Y0434998D01*
X0164393Y0435077D01*
X0164590Y0435116D01*
X0164747Y0435156D01*
X0164984Y0435156D01*
X0165062Y0435116D01*
X0165102Y0435116D01*
X0165062Y0435156D01*
X0164905Y0435274D01*
X0164354Y0435549D01*
X0163999Y0435628D01*
X0163606Y0435628D01*
X0163173Y0435549D01*
X0162739Y0435313D01*
X0162385Y0435037D01*
X0162188Y0434722D01*
X0162070Y0434368D01*
X0162070Y0434053D01*
X0162149Y0433699D01*
X0162346Y0433344D01*
X0162621Y0433030D01*
X0162936Y0432675D01*
X0163212Y0432400D01*
X0163330Y0432085D01*
X0163330Y0431809D01*
X0163251Y0431573D01*
X0163094Y0431376D01*
X0162858Y0431219D01*
X0162543Y0431140D01*
X0162228Y0431140D01*
X0162031Y0431179D01*
X0161834Y0431258D01*
X0161598Y0431494D01*
X0161519Y0431612D01*
X0161480Y0431730D01*
X0161480Y0431888D01*
X0161519Y0432006D01*
X0161755Y0432242D01*
X0161873Y0432281D01*
X0162031Y0432360D01*
X0162070Y0432400D01*
X0161913Y0432478D01*
X0161440Y0432478D01*
X0161204Y0432439D01*
X0161007Y0432400D01*
X0160810Y0432321D01*
X0160653Y0432203D01*
X0160456Y0432045D01*
X0160220Y0431652D01*
X0160141Y0431376D01*
X0160102Y0431061D01*
X0160102Y0425667D01*
X0160298Y0425864D01*
X0160417Y0426061D01*
X0160613Y0426258D01*
X0160810Y0426494D01*
X0161283Y0426967D01*
X0161755Y0427518D01*
X0162149Y0427911D01*
X0162543Y0428148D01*
X0162779Y0428187D01*
X0163527Y0428187D01*
X0163999Y0428266D01*
X0164432Y0428384D01*
X0164826Y0428541D01*
X0165220Y0428778D01*
X0165535Y0429053D01*
X0165850Y0429368D01*
X0166125Y0429722D01*
X0166081Y0429666D02*
X0160102Y0429666D01*
X0160102Y0429964D02*
X0166260Y0429964D01*
X0166425Y0430263D02*
X0160102Y0430263D01*
X0160102Y0430561D02*
X0166553Y0430561D01*
X0166632Y0430860D02*
X0160102Y0430860D01*
X0160114Y0431158D02*
X0162136Y0431158D01*
X0162616Y0431158D02*
X0166710Y0431158D01*
X0166732Y0431457D02*
X0163158Y0431457D01*
X0163312Y0431755D02*
X0166750Y0431755D01*
X0166717Y0432054D02*
X0163330Y0432054D01*
X0163230Y0432352D02*
X0166661Y0432352D01*
X0166580Y0432651D02*
X0162961Y0432651D01*
X0162693Y0432949D02*
X0166480Y0432949D01*
X0166326Y0433248D02*
X0162430Y0433248D01*
X0162234Y0433546D02*
X0164563Y0433546D01*
X0164208Y0433845D02*
X0162116Y0433845D01*
X0162070Y0434143D02*
X0163979Y0434143D01*
X0163921Y0434442D02*
X0162095Y0434442D01*
X0162199Y0434740D02*
X0163989Y0434740D01*
X0164317Y0435039D02*
X0162387Y0435039D01*
X0162784Y0435337D02*
X0164777Y0435337D01*
X0165535Y0433845D02*
X0165860Y0433845D01*
X0166125Y0433546D02*
X0165478Y0433546D01*
X0162015Y0432352D02*
X0160889Y0432352D01*
X0160466Y0432054D02*
X0161567Y0432054D01*
X0161480Y0431755D02*
X0160282Y0431755D01*
X0160164Y0431457D02*
X0161635Y0431457D01*
X0160102Y0429367D02*
X0165849Y0429367D01*
X0165550Y0429069D02*
X0160102Y0429069D01*
X0160102Y0428770D02*
X0165207Y0428770D01*
X0164652Y0428472D02*
X0160102Y0428472D01*
X0160102Y0428173D02*
X0162695Y0428173D01*
X0162112Y0427875D02*
X0160102Y0427875D01*
X0160102Y0427576D02*
X0161813Y0427576D01*
X0161549Y0427277D02*
X0160102Y0427277D01*
X0160102Y0426979D02*
X0161293Y0426979D01*
X0160997Y0426680D02*
X0160102Y0426680D01*
X0160102Y0426382D02*
X0160717Y0426382D01*
X0160439Y0426083D02*
X0160102Y0426083D01*
X0160102Y0425785D02*
X0160219Y0425785D01*
X0146519Y0430431D02*
X0146716Y0431179D01*
X0146755Y0431848D01*
X0146637Y0432478D01*
X0146440Y0433069D01*
X0146165Y0433502D01*
X0145850Y0433856D01*
X0145535Y0434053D01*
X0145535Y0433699D01*
X0145495Y0433581D01*
X0145456Y0433502D01*
X0145338Y0433384D01*
X0145220Y0433344D01*
X0145102Y0433344D01*
X0144787Y0433423D01*
X0144629Y0433502D01*
X0144511Y0433581D01*
X0144354Y0433699D01*
X0144117Y0433935D01*
X0143960Y0434171D01*
X0143921Y0434329D01*
X0143921Y0434565D01*
X0143960Y0434683D01*
X0143999Y0434762D01*
X0144078Y0434880D01*
X0144236Y0434998D01*
X0144393Y0435077D01*
X0144590Y0435116D01*
X0144747Y0435156D01*
X0144984Y0435156D01*
X0145062Y0435116D01*
X0145102Y0435116D01*
X0145062Y0435156D01*
X0144905Y0435274D01*
X0144354Y0435549D01*
X0143999Y0435628D01*
X0143606Y0435628D01*
X0143173Y0435549D01*
X0142739Y0435313D01*
X0142385Y0435037D01*
X0142188Y0434722D01*
X0142070Y0434368D01*
X0142070Y0434053D01*
X0142149Y0433699D01*
X0142346Y0433344D01*
X0142621Y0433030D01*
X0142936Y0432675D01*
X0143212Y0432400D01*
X0143330Y0432085D01*
X0143330Y0431809D01*
X0143251Y0431573D01*
X0143094Y0431376D01*
X0142858Y0431219D01*
X0142543Y0431140D01*
X0142228Y0431140D01*
X0142031Y0431179D01*
X0141834Y0431258D01*
X0141598Y0431494D01*
X0141519Y0431612D01*
X0141480Y0431730D01*
X0141480Y0431888D01*
X0141519Y0432006D01*
X0141755Y0432242D01*
X0141873Y0432281D01*
X0142031Y0432360D01*
X0142070Y0432400D01*
X0141913Y0432478D01*
X0141440Y0432478D01*
X0141204Y0432439D01*
X0141007Y0432400D01*
X0140810Y0432321D01*
X0140653Y0432203D01*
X0140456Y0432045D01*
X0140220Y0431652D01*
X0140141Y0431376D01*
X0140102Y0431061D01*
X0140102Y0425667D01*
X0140298Y0425864D01*
X0140417Y0426061D01*
X0140613Y0426258D01*
X0140810Y0426494D01*
X0141283Y0426967D01*
X0141755Y0427518D01*
X0142149Y0427911D01*
X0142543Y0428148D01*
X0142779Y0428187D01*
X0143527Y0428187D01*
X0143999Y0428266D01*
X0144432Y0428384D01*
X0144826Y0428541D01*
X0145220Y0428778D01*
X0145535Y0429053D01*
X0145850Y0429368D01*
X0146125Y0429722D01*
X0146519Y0430431D01*
X0146553Y0430561D02*
X0140102Y0430561D01*
X0140102Y0430263D02*
X0146425Y0430263D01*
X0146260Y0429964D02*
X0140102Y0429964D01*
X0140102Y0429666D02*
X0146081Y0429666D01*
X0145849Y0429367D02*
X0140102Y0429367D01*
X0140102Y0429069D02*
X0145550Y0429069D01*
X0145207Y0428770D02*
X0140102Y0428770D01*
X0140102Y0428472D02*
X0144652Y0428472D01*
X0142695Y0428173D02*
X0140102Y0428173D01*
X0140102Y0427875D02*
X0142112Y0427875D01*
X0141813Y0427576D02*
X0140102Y0427576D01*
X0140102Y0427277D02*
X0141549Y0427277D01*
X0141293Y0426979D02*
X0140102Y0426979D01*
X0140102Y0426680D02*
X0140997Y0426680D01*
X0140717Y0426382D02*
X0140102Y0426382D01*
X0140102Y0426083D02*
X0140439Y0426083D01*
X0140219Y0425785D02*
X0140102Y0425785D01*
X0140102Y0430860D02*
X0146632Y0430860D01*
X0146710Y0431158D02*
X0142616Y0431158D01*
X0142136Y0431158D02*
X0140114Y0431158D01*
X0140164Y0431457D02*
X0141635Y0431457D01*
X0141480Y0431755D02*
X0140282Y0431755D01*
X0140466Y0432054D02*
X0141567Y0432054D01*
X0142015Y0432352D02*
X0140889Y0432352D01*
X0142430Y0433248D02*
X0146326Y0433248D01*
X0146480Y0432949D02*
X0142693Y0432949D01*
X0142961Y0432651D02*
X0146580Y0432651D01*
X0146661Y0432352D02*
X0143230Y0432352D01*
X0143330Y0432054D02*
X0146717Y0432054D01*
X0146750Y0431755D02*
X0143312Y0431755D01*
X0143158Y0431457D02*
X0146732Y0431457D01*
X0146125Y0433546D02*
X0145478Y0433546D01*
X0145535Y0433845D02*
X0145860Y0433845D01*
X0144563Y0433546D02*
X0142234Y0433546D01*
X0142116Y0433845D02*
X0144208Y0433845D01*
X0143979Y0434143D02*
X0142070Y0434143D01*
X0142095Y0434442D02*
X0143921Y0434442D01*
X0143989Y0434740D02*
X0142199Y0434740D01*
X0142387Y0435039D02*
X0144317Y0435039D01*
X0144777Y0435337D02*
X0142784Y0435337D01*
X0125102Y0467667D02*
X0125298Y0467864D01*
X0125417Y0468061D01*
X0125613Y0468258D01*
X0125810Y0468494D01*
X0126283Y0468967D01*
X0126755Y0469518D01*
X0127149Y0469911D01*
X0127543Y0470148D01*
X0127779Y0470187D01*
X0128527Y0470187D01*
X0128999Y0470266D01*
X0129432Y0470384D01*
X0129826Y0470541D01*
X0130220Y0470778D01*
X0130535Y0471053D01*
X0130850Y0471368D01*
X0131125Y0471722D01*
X0131519Y0472431D01*
X0131716Y0473179D01*
X0131755Y0473848D01*
X0131637Y0474478D01*
X0131440Y0475069D01*
X0131165Y0475502D01*
X0130850Y0475856D01*
X0130535Y0476053D01*
X0130535Y0475699D01*
X0130495Y0475581D01*
X0130456Y0475502D01*
X0130338Y0475384D01*
X0130220Y0475344D01*
X0130102Y0475344D01*
X0129787Y0475423D01*
X0129629Y0475502D01*
X0129511Y0475581D01*
X0129354Y0475699D01*
X0129117Y0475935D01*
X0128960Y0476171D01*
X0128921Y0476329D01*
X0128921Y0476565D01*
X0128960Y0476683D01*
X0128999Y0476762D01*
X0129078Y0476880D01*
X0129236Y0476998D01*
X0129393Y0477077D01*
X0129590Y0477116D01*
X0129747Y0477156D01*
X0129984Y0477156D01*
X0130062Y0477116D01*
X0130102Y0477116D01*
X0130062Y0477156D01*
X0129905Y0477274D01*
X0129354Y0477549D01*
X0128999Y0477628D01*
X0128606Y0477628D01*
X0128173Y0477549D01*
X0127739Y0477313D01*
X0127385Y0477037D01*
X0127188Y0476722D01*
X0127070Y0476368D01*
X0127070Y0476053D01*
X0127149Y0475699D01*
X0127346Y0475344D01*
X0127621Y0475030D01*
X0127936Y0474675D01*
X0128212Y0474400D01*
X0128330Y0474085D01*
X0128330Y0473809D01*
X0128251Y0473573D01*
X0128094Y0473376D01*
X0127858Y0473219D01*
X0127543Y0473140D01*
X0127228Y0473140D01*
X0127031Y0473179D01*
X0126834Y0473258D01*
X0126598Y0473494D01*
X0126519Y0473612D01*
X0126480Y0473730D01*
X0126480Y0473888D01*
X0126519Y0474006D01*
X0126755Y0474242D01*
X0126873Y0474281D01*
X0127031Y0474360D01*
X0127070Y0474400D01*
X0126913Y0474478D01*
X0126440Y0474478D01*
X0126204Y0474439D01*
X0126007Y0474400D01*
X0125810Y0474321D01*
X0125653Y0474203D01*
X0125456Y0474045D01*
X0125220Y0473652D01*
X0125141Y0473376D01*
X0125102Y0473061D01*
X0125102Y0467667D01*
X0125102Y0467875D02*
X0125305Y0467875D01*
X0125102Y0468174D02*
X0125529Y0468174D01*
X0125792Y0468472D02*
X0125102Y0468472D01*
X0125102Y0468771D02*
X0126087Y0468771D01*
X0126371Y0469069D02*
X0125102Y0469069D01*
X0125102Y0469368D02*
X0126627Y0469368D01*
X0126904Y0469666D02*
X0125102Y0469666D01*
X0125102Y0469965D02*
X0127238Y0469965D01*
X0128984Y0470263D02*
X0125102Y0470263D01*
X0125102Y0470562D02*
X0129860Y0470562D01*
X0130314Y0470860D02*
X0125102Y0470860D01*
X0125102Y0471159D02*
X0130640Y0471159D01*
X0130919Y0471457D02*
X0125102Y0471457D01*
X0125102Y0471756D02*
X0131144Y0471756D01*
X0131310Y0472054D02*
X0125102Y0472054D01*
X0125102Y0472353D02*
X0131475Y0472353D01*
X0131577Y0472651D02*
X0125102Y0472651D01*
X0125102Y0472950D02*
X0131655Y0472950D01*
X0131720Y0473248D02*
X0127902Y0473248D01*
X0128230Y0473547D02*
X0131737Y0473547D01*
X0131755Y0473845D02*
X0128330Y0473845D01*
X0128308Y0474144D02*
X0131700Y0474144D01*
X0131644Y0474442D02*
X0128169Y0474442D01*
X0127878Y0474741D02*
X0131550Y0474741D01*
X0131450Y0475039D02*
X0127613Y0475039D01*
X0127352Y0475338D02*
X0131269Y0475338D01*
X0131045Y0475636D02*
X0130514Y0475636D01*
X0130535Y0475935D02*
X0130724Y0475935D01*
X0129437Y0475636D02*
X0127184Y0475636D01*
X0127096Y0475935D02*
X0129118Y0475935D01*
X0128944Y0476233D02*
X0127070Y0476233D01*
X0127125Y0476532D02*
X0128921Y0476532D01*
X0129045Y0476830D02*
X0127256Y0476830D01*
X0127503Y0477129D02*
X0129641Y0477129D01*
X0129597Y0477427D02*
X0127949Y0477427D01*
X0130037Y0477129D02*
X0130089Y0477129D01*
X0126985Y0474442D02*
X0126224Y0474442D01*
X0126657Y0474144D02*
X0125579Y0474144D01*
X0125336Y0473845D02*
X0126480Y0473845D01*
X0126563Y0473547D02*
X0125190Y0473547D01*
X0125125Y0473248D02*
X0126858Y0473248D01*
X0140102Y0567667D02*
X0140298Y0567864D01*
X0140417Y0568061D01*
X0140613Y0568258D01*
X0140810Y0568494D01*
X0141283Y0568967D01*
X0141755Y0569518D01*
X0142149Y0569911D01*
X0142543Y0570148D01*
X0142779Y0570187D01*
X0143527Y0570187D01*
X0143999Y0570266D01*
X0144432Y0570384D01*
X0144826Y0570541D01*
X0145220Y0570778D01*
X0145535Y0571053D01*
X0145850Y0571368D01*
X0146125Y0571722D01*
X0146519Y0572431D01*
X0146716Y0573179D01*
X0146755Y0573848D01*
X0146637Y0574478D01*
X0146440Y0575069D01*
X0146165Y0575502D01*
X0145850Y0575856D01*
X0145535Y0576053D01*
X0145535Y0575699D01*
X0145495Y0575581D01*
X0145456Y0575502D01*
X0145338Y0575384D01*
X0145220Y0575344D01*
X0145102Y0575344D01*
X0144787Y0575423D01*
X0144629Y0575502D01*
X0144511Y0575581D01*
X0144354Y0575699D01*
X0144117Y0575935D01*
X0143960Y0576171D01*
X0143921Y0576329D01*
X0143921Y0576565D01*
X0143960Y0576683D01*
X0143999Y0576762D01*
X0144078Y0576880D01*
X0144236Y0576998D01*
X0144393Y0577077D01*
X0144590Y0577116D01*
X0144747Y0577156D01*
X0144984Y0577156D01*
X0145062Y0577116D01*
X0145102Y0577116D01*
X0145062Y0577156D01*
X0144905Y0577274D01*
X0144354Y0577549D01*
X0143999Y0577628D01*
X0143606Y0577628D01*
X0143173Y0577549D01*
X0142739Y0577313D01*
X0142385Y0577037D01*
X0142188Y0576722D01*
X0142070Y0576368D01*
X0142070Y0576053D01*
X0142149Y0575699D01*
X0142346Y0575344D01*
X0142621Y0575030D01*
X0142936Y0574675D01*
X0143212Y0574400D01*
X0143330Y0574085D01*
X0143330Y0573809D01*
X0143251Y0573573D01*
X0143094Y0573376D01*
X0142858Y0573219D01*
X0142543Y0573140D01*
X0142228Y0573140D01*
X0142031Y0573179D01*
X0141834Y0573258D01*
X0141598Y0573494D01*
X0141519Y0573612D01*
X0141480Y0573730D01*
X0141480Y0573888D01*
X0141519Y0574006D01*
X0141755Y0574242D01*
X0141873Y0574281D01*
X0142031Y0574360D01*
X0142070Y0574400D01*
X0141913Y0574478D01*
X0141440Y0574478D01*
X0141204Y0574439D01*
X0141007Y0574400D01*
X0140810Y0574321D01*
X0140653Y0574203D01*
X0140456Y0574045D01*
X0140220Y0573652D01*
X0140141Y0573376D01*
X0140102Y0573061D01*
X0140102Y0567667D01*
X0140102Y0567876D02*
X0140306Y0567876D01*
X0140102Y0568175D02*
X0140530Y0568175D01*
X0140793Y0568473D02*
X0140102Y0568473D01*
X0140102Y0568772D02*
X0141088Y0568772D01*
X0141372Y0569070D02*
X0140102Y0569070D01*
X0140102Y0569369D02*
X0141628Y0569369D01*
X0141905Y0569667D02*
X0140102Y0569667D01*
X0140102Y0569966D02*
X0142240Y0569966D01*
X0143991Y0570264D02*
X0140102Y0570264D01*
X0140102Y0570563D02*
X0144862Y0570563D01*
X0145316Y0570861D02*
X0140102Y0570861D01*
X0140102Y0571160D02*
X0145642Y0571160D01*
X0145920Y0571458D02*
X0140102Y0571458D01*
X0140102Y0571757D02*
X0146144Y0571757D01*
X0146310Y0572055D02*
X0140102Y0572055D01*
X0140102Y0572354D02*
X0146476Y0572354D01*
X0146577Y0572653D02*
X0140102Y0572653D01*
X0140102Y0572951D02*
X0146656Y0572951D01*
X0146720Y0573250D02*
X0142904Y0573250D01*
X0143231Y0573548D02*
X0146738Y0573548D01*
X0146755Y0573847D02*
X0143330Y0573847D01*
X0143307Y0574145D02*
X0146700Y0574145D01*
X0146644Y0574444D02*
X0143168Y0574444D01*
X0142877Y0574742D02*
X0146549Y0574742D01*
X0146450Y0575041D02*
X0142612Y0575041D01*
X0142350Y0575339D02*
X0146268Y0575339D01*
X0146044Y0575638D02*
X0145514Y0575638D01*
X0145535Y0575936D02*
X0145722Y0575936D01*
X0144435Y0575638D02*
X0142183Y0575638D01*
X0142096Y0575936D02*
X0144117Y0575936D01*
X0143944Y0576235D02*
X0142070Y0576235D01*
X0142125Y0576533D02*
X0143921Y0576533D01*
X0144046Y0576832D02*
X0142257Y0576832D01*
X0142504Y0577130D02*
X0144646Y0577130D01*
X0144595Y0577429D02*
X0142952Y0577429D01*
X0145034Y0577130D02*
X0145088Y0577130D01*
X0141982Y0574444D02*
X0141232Y0574444D01*
X0141658Y0574145D02*
X0140581Y0574145D01*
X0140337Y0573847D02*
X0141480Y0573847D01*
X0141562Y0573548D02*
X0140190Y0573548D01*
X0140125Y0573250D02*
X0141855Y0573250D01*
X0160102Y0573061D02*
X0160102Y0567667D01*
X0160298Y0567864D01*
X0160417Y0568061D01*
X0160613Y0568258D01*
X0160810Y0568494D01*
X0161283Y0568967D01*
X0161755Y0569518D01*
X0162149Y0569911D01*
X0162543Y0570148D01*
X0162779Y0570187D01*
X0163527Y0570187D01*
X0163999Y0570266D01*
X0164432Y0570384D01*
X0164826Y0570541D01*
X0165220Y0570778D01*
X0165535Y0571053D01*
X0165850Y0571368D01*
X0166125Y0571722D01*
X0166519Y0572431D01*
X0166716Y0573179D01*
X0166755Y0573848D01*
X0166637Y0574478D01*
X0166440Y0575069D01*
X0166165Y0575502D01*
X0165850Y0575856D01*
X0165535Y0576053D01*
X0165535Y0575699D01*
X0165495Y0575581D01*
X0165456Y0575502D01*
X0165338Y0575384D01*
X0165220Y0575344D01*
X0165102Y0575344D01*
X0164787Y0575423D01*
X0164629Y0575502D01*
X0164511Y0575581D01*
X0164354Y0575699D01*
X0164117Y0575935D01*
X0163960Y0576171D01*
X0163921Y0576329D01*
X0163921Y0576565D01*
X0163960Y0576683D01*
X0163999Y0576762D01*
X0164078Y0576880D01*
X0164236Y0576998D01*
X0164393Y0577077D01*
X0164590Y0577116D01*
X0164747Y0577156D01*
X0164984Y0577156D01*
X0165062Y0577116D01*
X0165102Y0577116D01*
X0165062Y0577156D01*
X0164905Y0577274D01*
X0164354Y0577549D01*
X0163999Y0577628D01*
X0163606Y0577628D01*
X0163173Y0577549D01*
X0162739Y0577313D01*
X0162385Y0577037D01*
X0162188Y0576722D01*
X0162070Y0576368D01*
X0162070Y0576053D01*
X0162149Y0575699D01*
X0162346Y0575344D01*
X0162621Y0575030D01*
X0162936Y0574675D01*
X0163212Y0574400D01*
X0163330Y0574085D01*
X0163330Y0573809D01*
X0163251Y0573573D01*
X0163094Y0573376D01*
X0162858Y0573219D01*
X0162543Y0573140D01*
X0162228Y0573140D01*
X0162031Y0573179D01*
X0161834Y0573258D01*
X0161598Y0573494D01*
X0161519Y0573612D01*
X0161480Y0573730D01*
X0161480Y0573888D01*
X0161519Y0574006D01*
X0161755Y0574242D01*
X0161873Y0574281D01*
X0162031Y0574360D01*
X0162070Y0574400D01*
X0161913Y0574478D01*
X0161440Y0574478D01*
X0161204Y0574439D01*
X0161007Y0574400D01*
X0160810Y0574321D01*
X0160653Y0574203D01*
X0160456Y0574045D01*
X0160220Y0573652D01*
X0160141Y0573376D01*
X0160102Y0573061D01*
X0160102Y0572951D02*
X0166656Y0572951D01*
X0166720Y0573250D02*
X0162904Y0573250D01*
X0163231Y0573548D02*
X0166738Y0573548D01*
X0166755Y0573847D02*
X0163330Y0573847D01*
X0163307Y0574145D02*
X0166700Y0574145D01*
X0166644Y0574444D02*
X0163168Y0574444D01*
X0162877Y0574742D02*
X0166549Y0574742D01*
X0166450Y0575041D02*
X0162612Y0575041D01*
X0162350Y0575339D02*
X0166268Y0575339D01*
X0166044Y0575638D02*
X0165514Y0575638D01*
X0165535Y0575936D02*
X0165722Y0575936D01*
X0164435Y0575638D02*
X0162183Y0575638D01*
X0162096Y0575936D02*
X0164117Y0575936D01*
X0163944Y0576235D02*
X0162070Y0576235D01*
X0162125Y0576533D02*
X0163921Y0576533D01*
X0164046Y0576832D02*
X0162257Y0576832D01*
X0162504Y0577130D02*
X0164646Y0577130D01*
X0164595Y0577429D02*
X0162952Y0577429D01*
X0165034Y0577130D02*
X0165088Y0577130D01*
X0161982Y0574444D02*
X0161232Y0574444D01*
X0161658Y0574145D02*
X0160581Y0574145D01*
X0160337Y0573847D02*
X0161480Y0573847D01*
X0161562Y0573548D02*
X0160190Y0573548D01*
X0160125Y0573250D02*
X0161855Y0573250D01*
X0160102Y0572653D02*
X0166577Y0572653D01*
X0166476Y0572354D02*
X0160102Y0572354D01*
X0160102Y0572055D02*
X0166310Y0572055D01*
X0166144Y0571757D02*
X0160102Y0571757D01*
X0160102Y0571458D02*
X0165920Y0571458D01*
X0165642Y0571160D02*
X0160102Y0571160D01*
X0160102Y0570861D02*
X0165316Y0570861D01*
X0164862Y0570563D02*
X0160102Y0570563D01*
X0160102Y0570264D02*
X0163991Y0570264D01*
X0162240Y0569966D02*
X0160102Y0569966D01*
X0160102Y0569667D02*
X0161905Y0569667D01*
X0161628Y0569369D02*
X0160102Y0569369D01*
X0160102Y0569070D02*
X0161372Y0569070D01*
X0161088Y0568772D02*
X0160102Y0568772D01*
X0160102Y0568473D02*
X0160793Y0568473D01*
X0160530Y0568175D02*
X0160102Y0568175D01*
X0160102Y0567876D02*
X0160306Y0567876D01*
X0128999Y0335628D02*
X0128606Y0335628D01*
X0128173Y0335549D01*
X0127739Y0335313D01*
X0127385Y0335037D01*
X0127188Y0334722D01*
X0127070Y0334368D01*
X0127070Y0334053D01*
X0127149Y0333699D01*
X0127346Y0333344D01*
X0127621Y0333030D01*
X0127936Y0332675D01*
X0128212Y0332400D01*
X0128330Y0332085D01*
X0128330Y0331809D01*
X0128251Y0331573D01*
X0128094Y0331376D01*
X0127858Y0331219D01*
X0127543Y0331140D01*
X0127228Y0331140D01*
X0127031Y0331179D01*
X0126834Y0331258D01*
X0126598Y0331494D01*
X0126519Y0331612D01*
X0126480Y0331730D01*
X0126480Y0331888D01*
X0126519Y0332006D01*
X0126755Y0332242D01*
X0126873Y0332281D01*
X0127031Y0332360D01*
X0127070Y0332400D01*
X0126913Y0332478D01*
X0126440Y0332478D01*
X0126204Y0332439D01*
X0126007Y0332400D01*
X0125810Y0332321D01*
X0125653Y0332203D01*
X0125456Y0332045D01*
X0125220Y0331652D01*
X0125141Y0331376D01*
X0125102Y0331061D01*
X0125102Y0325667D01*
X0125298Y0325864D01*
X0125417Y0326061D01*
X0125613Y0326258D01*
X0125810Y0326494D01*
X0126283Y0326967D01*
X0126755Y0327518D01*
X0127149Y0327911D01*
X0127543Y0328148D01*
X0127779Y0328187D01*
X0128527Y0328187D01*
X0128999Y0328266D01*
X0129432Y0328384D01*
X0129826Y0328541D01*
X0130220Y0328778D01*
X0130535Y0329053D01*
X0130850Y0329368D01*
X0131125Y0329722D01*
X0131519Y0330431D01*
X0131716Y0331179D01*
X0131755Y0331848D01*
X0131637Y0332478D01*
X0131440Y0333069D01*
X0131165Y0333502D01*
X0130850Y0333856D01*
X0130535Y0334053D01*
X0130535Y0333699D01*
X0130495Y0333581D01*
X0130456Y0333502D01*
X0130338Y0333384D01*
X0130220Y0333344D01*
X0130102Y0333344D01*
X0129787Y0333423D01*
X0129629Y0333502D01*
X0129511Y0333581D01*
X0129354Y0333699D01*
X0129117Y0333935D01*
X0128960Y0334171D01*
X0128921Y0334329D01*
X0128921Y0334565D01*
X0128960Y0334683D01*
X0128999Y0334762D01*
X0129078Y0334880D01*
X0129236Y0334998D01*
X0129393Y0335077D01*
X0129590Y0335116D01*
X0129747Y0335156D01*
X0129984Y0335156D01*
X0130062Y0335116D01*
X0130102Y0335116D01*
X0130062Y0335156D01*
X0129905Y0335274D01*
X0129354Y0335549D01*
X0128999Y0335628D01*
X0129314Y0335038D02*
X0127385Y0335038D01*
X0127199Y0334739D02*
X0128988Y0334739D01*
X0128921Y0334440D02*
X0127094Y0334440D01*
X0127070Y0334142D02*
X0128979Y0334142D01*
X0129209Y0333843D02*
X0127117Y0333843D01*
X0127234Y0333545D02*
X0129565Y0333545D01*
X0130477Y0333545D02*
X0131126Y0333545D01*
X0131327Y0333246D02*
X0127432Y0333246D01*
X0127694Y0332948D02*
X0131481Y0332948D01*
X0131580Y0332649D02*
X0127962Y0332649D01*
X0128230Y0332351D02*
X0131661Y0332351D01*
X0131717Y0332052D02*
X0128330Y0332052D01*
X0128312Y0331754D02*
X0131750Y0331754D01*
X0131732Y0331455D02*
X0128157Y0331455D01*
X0127611Y0331157D02*
X0131710Y0331157D01*
X0131631Y0330858D02*
X0125102Y0330858D01*
X0125102Y0330560D02*
X0131553Y0330560D01*
X0131425Y0330261D02*
X0125102Y0330261D01*
X0125102Y0329963D02*
X0131259Y0329963D01*
X0131080Y0329664D02*
X0125102Y0329664D01*
X0125102Y0329366D02*
X0130847Y0329366D01*
X0130549Y0329067D02*
X0125102Y0329067D01*
X0125102Y0328769D02*
X0130205Y0328769D01*
X0129648Y0328470D02*
X0125102Y0328470D01*
X0125102Y0328172D02*
X0127687Y0328172D01*
X0127111Y0327873D02*
X0125102Y0327873D01*
X0125102Y0327575D02*
X0126812Y0327575D01*
X0126548Y0327276D02*
X0125102Y0327276D01*
X0125102Y0326978D02*
X0126292Y0326978D01*
X0125995Y0326679D02*
X0125102Y0326679D01*
X0125102Y0326381D02*
X0125716Y0326381D01*
X0125438Y0326082D02*
X0125102Y0326082D01*
X0125102Y0325784D02*
X0125218Y0325784D01*
X0125114Y0331157D02*
X0127142Y0331157D01*
X0126636Y0331455D02*
X0125164Y0331455D01*
X0125281Y0331754D02*
X0126480Y0331754D01*
X0126565Y0332052D02*
X0125465Y0332052D01*
X0125885Y0332351D02*
X0127012Y0332351D01*
X0127782Y0335336D02*
X0129780Y0335336D01*
X0130535Y0333843D02*
X0130861Y0333843D01*
X0143173Y0293549D02*
X0142739Y0293313D01*
X0142385Y0293037D01*
X0142188Y0292722D01*
X0142070Y0292368D01*
X0142070Y0292053D01*
X0142149Y0291699D01*
X0142346Y0291344D01*
X0142621Y0291030D01*
X0142936Y0290675D01*
X0143212Y0290400D01*
X0143330Y0290085D01*
X0143330Y0289809D01*
X0143251Y0289573D01*
X0143094Y0289376D01*
X0142858Y0289219D01*
X0142543Y0289140D01*
X0142228Y0289140D01*
X0142031Y0289179D01*
X0141834Y0289258D01*
X0141598Y0289494D01*
X0141519Y0289612D01*
X0141480Y0289730D01*
X0141480Y0289888D01*
X0141519Y0290006D01*
X0141755Y0290242D01*
X0141873Y0290281D01*
X0142031Y0290360D01*
X0142070Y0290400D01*
X0141913Y0290478D01*
X0141440Y0290478D01*
X0141204Y0290439D01*
X0141007Y0290400D01*
X0140810Y0290321D01*
X0140653Y0290203D01*
X0140456Y0290045D01*
X0140220Y0289652D01*
X0140141Y0289376D01*
X0140102Y0289061D01*
X0140102Y0283667D01*
X0140298Y0283864D01*
X0140417Y0284061D01*
X0140613Y0284258D01*
X0140810Y0284494D01*
X0141283Y0284967D01*
X0141755Y0285518D01*
X0142149Y0285911D01*
X0142543Y0286148D01*
X0142779Y0286187D01*
X0143527Y0286187D01*
X0143999Y0286266D01*
X0144432Y0286384D01*
X0144826Y0286541D01*
X0145220Y0286778D01*
X0145535Y0287053D01*
X0145850Y0287368D01*
X0146125Y0287722D01*
X0146519Y0288431D01*
X0146716Y0289179D01*
X0146755Y0289848D01*
X0146637Y0290478D01*
X0146440Y0291069D01*
X0146165Y0291502D01*
X0145850Y0291856D01*
X0145535Y0292053D01*
X0145535Y0291699D01*
X0145495Y0291581D01*
X0145456Y0291502D01*
X0145338Y0291384D01*
X0145220Y0291344D01*
X0145102Y0291344D01*
X0144787Y0291423D01*
X0144629Y0291502D01*
X0144511Y0291581D01*
X0144354Y0291699D01*
X0144117Y0291935D01*
X0143960Y0292171D01*
X0143921Y0292329D01*
X0143921Y0292565D01*
X0143960Y0292683D01*
X0143999Y0292762D01*
X0144078Y0292880D01*
X0144236Y0292998D01*
X0144393Y0293077D01*
X0144590Y0293116D01*
X0144747Y0293156D01*
X0144984Y0293156D01*
X0145062Y0293116D01*
X0145102Y0293116D01*
X0145062Y0293156D01*
X0144905Y0293274D01*
X0144354Y0293549D01*
X0143999Y0293628D01*
X0143606Y0293628D01*
X0143173Y0293549D01*
X0143164Y0293544D02*
X0144363Y0293544D01*
X0144168Y0292947D02*
X0142329Y0292947D01*
X0142164Y0292649D02*
X0143949Y0292649D01*
X0143921Y0292350D02*
X0142070Y0292350D01*
X0142070Y0292052D02*
X0144040Y0292052D01*
X0144299Y0291753D02*
X0142137Y0291753D01*
X0142284Y0291455D02*
X0144723Y0291455D01*
X0145409Y0291455D02*
X0146195Y0291455D01*
X0146385Y0291156D02*
X0142510Y0291156D01*
X0142774Y0290858D02*
X0146511Y0290858D01*
X0146610Y0290559D02*
X0143052Y0290559D01*
X0143264Y0290261D02*
X0146678Y0290261D01*
X0146734Y0289962D02*
X0143330Y0289962D01*
X0143282Y0289664D02*
X0146744Y0289664D01*
X0146727Y0289365D02*
X0143078Y0289365D01*
X0141727Y0289365D02*
X0140140Y0289365D01*
X0140102Y0289067D02*
X0146686Y0289067D01*
X0146608Y0288768D02*
X0140102Y0288768D01*
X0140102Y0288470D02*
X0146529Y0288470D01*
X0146375Y0288171D02*
X0140102Y0288171D01*
X0140102Y0287873D02*
X0146209Y0287873D01*
X0146010Y0287574D02*
X0140102Y0287574D01*
X0140102Y0287276D02*
X0145757Y0287276D01*
X0145448Y0286977D02*
X0140102Y0286977D01*
X0140102Y0286679D02*
X0145055Y0286679D01*
X0144419Y0286380D02*
X0140102Y0286380D01*
X0140102Y0286082D02*
X0142433Y0286082D01*
X0142021Y0285783D02*
X0140102Y0285783D01*
X0140102Y0285485D02*
X0141727Y0285485D01*
X0141471Y0285186D02*
X0140102Y0285186D01*
X0140102Y0284888D02*
X0141204Y0284888D01*
X0140905Y0284589D02*
X0140102Y0284589D01*
X0140102Y0284291D02*
X0140641Y0284291D01*
X0140375Y0283992D02*
X0140102Y0283992D01*
X0140102Y0283694D02*
X0140128Y0283694D01*
X0140227Y0289664D02*
X0141502Y0289664D01*
X0141504Y0289962D02*
X0140406Y0289962D01*
X0140730Y0290261D02*
X0141811Y0290261D01*
X0142653Y0293246D02*
X0144942Y0293246D01*
X0145535Y0292052D02*
X0145537Y0292052D01*
X0145535Y0291753D02*
X0145941Y0291753D01*
X0160141Y0289376D02*
X0160102Y0289061D01*
X0160102Y0283667D01*
X0160298Y0283864D01*
X0160417Y0284061D01*
X0160613Y0284258D01*
X0160810Y0284494D01*
X0161283Y0284967D01*
X0161755Y0285518D01*
X0162149Y0285911D01*
X0162543Y0286148D01*
X0162779Y0286187D01*
X0163527Y0286187D01*
X0163999Y0286266D01*
X0164432Y0286384D01*
X0164826Y0286541D01*
X0165220Y0286778D01*
X0165535Y0287053D01*
X0165850Y0287368D01*
X0166125Y0287722D01*
X0166519Y0288431D01*
X0166716Y0289179D01*
X0166755Y0289848D01*
X0166637Y0290478D01*
X0166440Y0291069D01*
X0166165Y0291502D01*
X0165850Y0291856D01*
X0165535Y0292053D01*
X0165535Y0291699D01*
X0165495Y0291581D01*
X0165456Y0291502D01*
X0165338Y0291384D01*
X0165220Y0291344D01*
X0165102Y0291344D01*
X0164787Y0291423D01*
X0164629Y0291502D01*
X0164511Y0291581D01*
X0164354Y0291699D01*
X0164117Y0291935D01*
X0163960Y0292171D01*
X0163921Y0292329D01*
X0163921Y0292565D01*
X0163960Y0292683D01*
X0163999Y0292762D01*
X0164078Y0292880D01*
X0164236Y0292998D01*
X0164393Y0293077D01*
X0164590Y0293116D01*
X0164747Y0293156D01*
X0164984Y0293156D01*
X0165062Y0293116D01*
X0165102Y0293116D01*
X0165062Y0293156D01*
X0164905Y0293274D01*
X0164354Y0293549D01*
X0163999Y0293628D01*
X0163606Y0293628D01*
X0163173Y0293549D01*
X0162739Y0293313D01*
X0162385Y0293037D01*
X0162188Y0292722D01*
X0162070Y0292368D01*
X0162070Y0292053D01*
X0162149Y0291699D01*
X0162346Y0291344D01*
X0162621Y0291030D01*
X0162936Y0290675D01*
X0163212Y0290400D01*
X0163330Y0290085D01*
X0163330Y0289809D01*
X0163251Y0289573D01*
X0163094Y0289376D01*
X0162858Y0289219D01*
X0162543Y0289140D01*
X0162228Y0289140D01*
X0162031Y0289179D01*
X0161834Y0289258D01*
X0161598Y0289494D01*
X0161519Y0289612D01*
X0161480Y0289730D01*
X0161480Y0289888D01*
X0161519Y0290006D01*
X0161755Y0290242D01*
X0161873Y0290281D01*
X0162031Y0290360D01*
X0162070Y0290400D01*
X0161913Y0290478D01*
X0161440Y0290478D01*
X0161204Y0290439D01*
X0161007Y0290400D01*
X0160810Y0290321D01*
X0160653Y0290203D01*
X0160456Y0290045D01*
X0160220Y0289652D01*
X0160141Y0289376D01*
X0160140Y0289365D02*
X0161727Y0289365D01*
X0161502Y0289664D02*
X0160227Y0289664D01*
X0160406Y0289962D02*
X0161504Y0289962D01*
X0161811Y0290261D02*
X0160730Y0290261D01*
X0160102Y0289067D02*
X0166686Y0289067D01*
X0166727Y0289365D02*
X0163078Y0289365D01*
X0163282Y0289664D02*
X0166744Y0289664D01*
X0166734Y0289962D02*
X0163330Y0289962D01*
X0163264Y0290261D02*
X0166678Y0290261D01*
X0166610Y0290559D02*
X0163052Y0290559D01*
X0162774Y0290858D02*
X0166511Y0290858D01*
X0166385Y0291156D02*
X0162510Y0291156D01*
X0162284Y0291455D02*
X0164723Y0291455D01*
X0164299Y0291753D02*
X0162137Y0291753D01*
X0162070Y0292052D02*
X0164040Y0292052D01*
X0163921Y0292350D02*
X0162070Y0292350D01*
X0162164Y0292649D02*
X0163949Y0292649D01*
X0164168Y0292947D02*
X0162329Y0292947D01*
X0162653Y0293246D02*
X0164942Y0293246D01*
X0164363Y0293544D02*
X0163164Y0293544D01*
X0165535Y0292052D02*
X0165537Y0292052D01*
X0165535Y0291753D02*
X0165941Y0291753D01*
X0166195Y0291455D02*
X0165409Y0291455D01*
X0166608Y0288768D02*
X0160102Y0288768D01*
X0160102Y0288470D02*
X0166529Y0288470D01*
X0166375Y0288171D02*
X0160102Y0288171D01*
X0160102Y0287873D02*
X0166209Y0287873D01*
X0166010Y0287574D02*
X0160102Y0287574D01*
X0160102Y0287276D02*
X0165757Y0287276D01*
X0165448Y0286977D02*
X0160102Y0286977D01*
X0160102Y0286679D02*
X0165055Y0286679D01*
X0164419Y0286380D02*
X0160102Y0286380D01*
X0160102Y0286082D02*
X0162433Y0286082D01*
X0162021Y0285783D02*
X0160102Y0285783D01*
X0160102Y0285485D02*
X0161727Y0285485D01*
X0161471Y0285186D02*
X0160102Y0285186D01*
X0160102Y0284888D02*
X0161204Y0284888D01*
X0160905Y0284589D02*
X0160102Y0284589D01*
X0160102Y0284291D02*
X0160641Y0284291D01*
X0160375Y0283992D02*
X0160102Y0283992D01*
X0160102Y0283694D02*
X0160128Y0283694D01*
X0129354Y0193549D02*
X0128999Y0193628D01*
X0128606Y0193628D01*
X0128173Y0193549D01*
X0127739Y0193313D01*
X0127385Y0193037D01*
X0127188Y0192722D01*
X0127070Y0192368D01*
X0127070Y0192053D01*
X0127149Y0191699D01*
X0127346Y0191344D01*
X0127621Y0191030D01*
X0127936Y0190675D01*
X0128212Y0190400D01*
X0128330Y0190085D01*
X0128330Y0189809D01*
X0128251Y0189573D01*
X0128094Y0189376D01*
X0127858Y0189219D01*
X0127543Y0189140D01*
X0127228Y0189140D01*
X0127031Y0189179D01*
X0126834Y0189258D01*
X0126598Y0189494D01*
X0126519Y0189612D01*
X0126480Y0189730D01*
X0126480Y0189888D01*
X0126519Y0190006D01*
X0126755Y0190242D01*
X0126873Y0190281D01*
X0127031Y0190360D01*
X0127070Y0190400D01*
X0126913Y0190478D01*
X0126440Y0190478D01*
X0126204Y0190439D01*
X0126007Y0190400D01*
X0125810Y0190321D01*
X0125653Y0190203D01*
X0125456Y0190045D01*
X0125220Y0189652D01*
X0125141Y0189376D01*
X0125102Y0189061D01*
X0125102Y0183667D01*
X0125298Y0183864D01*
X0125417Y0184061D01*
X0125613Y0184258D01*
X0125810Y0184494D01*
X0126283Y0184967D01*
X0126755Y0185518D01*
X0127149Y0185911D01*
X0127543Y0186148D01*
X0127779Y0186187D01*
X0128527Y0186187D01*
X0128999Y0186266D01*
X0129432Y0186384D01*
X0129826Y0186541D01*
X0130220Y0186778D01*
X0130535Y0187053D01*
X0130850Y0187368D01*
X0131125Y0187722D01*
X0131519Y0188431D01*
X0131716Y0189179D01*
X0131755Y0189848D01*
X0131637Y0190478D01*
X0131440Y0191069D01*
X0131165Y0191502D01*
X0130850Y0191856D01*
X0130535Y0192053D01*
X0130535Y0191699D01*
X0130495Y0191581D01*
X0130456Y0191502D01*
X0130338Y0191384D01*
X0130220Y0191344D01*
X0130102Y0191344D01*
X0129787Y0191423D01*
X0129629Y0191502D01*
X0129511Y0191581D01*
X0129354Y0191699D01*
X0129117Y0191935D01*
X0128960Y0192171D01*
X0128921Y0192329D01*
X0128921Y0192565D01*
X0128960Y0192683D01*
X0128999Y0192762D01*
X0129078Y0192880D01*
X0129236Y0192998D01*
X0129393Y0193077D01*
X0129590Y0193116D01*
X0129747Y0193156D01*
X0129984Y0193156D01*
X0130062Y0193116D01*
X0130102Y0193116D01*
X0130062Y0193156D01*
X0129905Y0193274D01*
X0129354Y0193549D01*
X0129366Y0193543D02*
X0128161Y0193543D01*
X0127652Y0193245D02*
X0129943Y0193245D01*
X0129166Y0192946D02*
X0127328Y0192946D01*
X0127163Y0192648D02*
X0128948Y0192648D01*
X0128921Y0192349D02*
X0127070Y0192349D01*
X0127071Y0192051D02*
X0129040Y0192051D01*
X0129300Y0191752D02*
X0127137Y0191752D01*
X0127285Y0191454D02*
X0129726Y0191454D01*
X0130408Y0191454D02*
X0131195Y0191454D01*
X0131385Y0191155D02*
X0127512Y0191155D01*
X0127775Y0190857D02*
X0131511Y0190857D01*
X0131611Y0190558D02*
X0128053Y0190558D01*
X0128264Y0190260D02*
X0131678Y0190260D01*
X0131734Y0189961D02*
X0128330Y0189961D01*
X0128281Y0189662D02*
X0131744Y0189662D01*
X0131727Y0189364D02*
X0128076Y0189364D01*
X0126728Y0189364D02*
X0125140Y0189364D01*
X0125102Y0189065D02*
X0131686Y0189065D01*
X0131607Y0188767D02*
X0125102Y0188767D01*
X0125102Y0188468D02*
X0131529Y0188468D01*
X0131374Y0188170D02*
X0125102Y0188170D01*
X0125102Y0187871D02*
X0131208Y0187871D01*
X0131009Y0187573D02*
X0125102Y0187573D01*
X0125102Y0187274D02*
X0130756Y0187274D01*
X0130446Y0186976D02*
X0125102Y0186976D01*
X0125102Y0186677D02*
X0130053Y0186677D01*
X0129414Y0186379D02*
X0125102Y0186379D01*
X0125102Y0186080D02*
X0127430Y0186080D01*
X0127019Y0185782D02*
X0125102Y0185782D01*
X0125102Y0185483D02*
X0126726Y0185483D01*
X0126470Y0185185D02*
X0125102Y0185185D01*
X0125102Y0184886D02*
X0126203Y0184886D01*
X0125904Y0184588D02*
X0125102Y0184588D01*
X0125102Y0184289D02*
X0125640Y0184289D01*
X0125374Y0183991D02*
X0125102Y0183991D01*
X0125102Y0183692D02*
X0125127Y0183692D01*
X0125226Y0189662D02*
X0126502Y0189662D01*
X0126504Y0189961D02*
X0125405Y0189961D01*
X0125729Y0190260D02*
X0126807Y0190260D01*
X0130535Y0191752D02*
X0130942Y0191752D01*
X0130539Y0192051D02*
X0130535Y0192051D01*
X0143173Y0151549D02*
X0142739Y0151313D01*
X0142385Y0151037D01*
X0142188Y0150722D01*
X0142070Y0150368D01*
X0142070Y0150053D01*
X0142149Y0149699D01*
X0142346Y0149344D01*
X0142621Y0149030D01*
X0142936Y0148675D01*
X0143212Y0148400D01*
X0143330Y0148085D01*
X0143330Y0147809D01*
X0143251Y0147573D01*
X0143094Y0147376D01*
X0142858Y0147219D01*
X0142543Y0147140D01*
X0142228Y0147140D01*
X0142031Y0147179D01*
X0141834Y0147258D01*
X0141598Y0147494D01*
X0141519Y0147612D01*
X0141480Y0147730D01*
X0141480Y0147888D01*
X0141519Y0148006D01*
X0141755Y0148242D01*
X0141873Y0148281D01*
X0142031Y0148360D01*
X0142070Y0148400D01*
X0141913Y0148478D01*
X0141440Y0148478D01*
X0141204Y0148439D01*
X0141007Y0148400D01*
X0140810Y0148321D01*
X0140653Y0148203D01*
X0140456Y0148045D01*
X0140220Y0147652D01*
X0140141Y0147376D01*
X0140102Y0147061D01*
X0140102Y0141667D01*
X0140298Y0141864D01*
X0140417Y0142061D01*
X0140613Y0142258D01*
X0140810Y0142494D01*
X0141283Y0142967D01*
X0141755Y0143518D01*
X0142149Y0143911D01*
X0142543Y0144148D01*
X0142779Y0144187D01*
X0143527Y0144187D01*
X0143999Y0144266D01*
X0144432Y0144384D01*
X0144826Y0144541D01*
X0145220Y0144778D01*
X0145535Y0145053D01*
X0145850Y0145368D01*
X0146125Y0145722D01*
X0146519Y0146431D01*
X0146716Y0147179D01*
X0146755Y0147848D01*
X0146637Y0148478D01*
X0146440Y0149069D01*
X0146165Y0149502D01*
X0145850Y0149856D01*
X0145535Y0150053D01*
X0145535Y0149699D01*
X0145495Y0149581D01*
X0145456Y0149502D01*
X0145338Y0149384D01*
X0145220Y0149344D01*
X0145102Y0149344D01*
X0144787Y0149423D01*
X0144629Y0149502D01*
X0144511Y0149581D01*
X0144354Y0149699D01*
X0144117Y0149935D01*
X0143960Y0150171D01*
X0143921Y0150329D01*
X0143921Y0150565D01*
X0143960Y0150683D01*
X0143999Y0150762D01*
X0144078Y0150880D01*
X0144236Y0150998D01*
X0144393Y0151077D01*
X0144590Y0151116D01*
X0144747Y0151156D01*
X0144984Y0151156D01*
X0145062Y0151116D01*
X0145102Y0151116D01*
X0145062Y0151156D01*
X0144905Y0151274D01*
X0144354Y0151549D01*
X0143999Y0151628D01*
X0143606Y0151628D01*
X0143173Y0151549D01*
X0142996Y0151453D02*
X0144546Y0151453D01*
X0144743Y0151155D02*
X0142536Y0151155D01*
X0142272Y0150856D02*
X0144062Y0150856D01*
X0143921Y0150558D02*
X0142133Y0150558D01*
X0142070Y0150259D02*
X0143938Y0150259D01*
X0144100Y0149960D02*
X0142091Y0149960D01*
X0142169Y0149662D02*
X0144403Y0149662D01*
X0145026Y0149363D02*
X0142335Y0149363D01*
X0142590Y0149065D02*
X0146442Y0149065D01*
X0146541Y0148766D02*
X0142855Y0148766D01*
X0143144Y0148468D02*
X0146639Y0148468D01*
X0146695Y0148169D02*
X0143298Y0148169D01*
X0143330Y0147871D02*
X0146751Y0147871D01*
X0146739Y0147572D02*
X0143251Y0147572D01*
X0142941Y0147274D02*
X0146721Y0147274D01*
X0146662Y0146975D02*
X0140102Y0146975D01*
X0140102Y0146677D02*
X0146584Y0146677D01*
X0146490Y0146378D02*
X0140102Y0146378D01*
X0140102Y0146080D02*
X0146324Y0146080D01*
X0146158Y0145781D02*
X0140102Y0145781D01*
X0140102Y0145483D02*
X0145939Y0145483D01*
X0145666Y0145184D02*
X0140102Y0145184D01*
X0140102Y0144886D02*
X0145343Y0144886D01*
X0144903Y0144587D02*
X0140102Y0144587D01*
X0140102Y0144289D02*
X0144084Y0144289D01*
X0142280Y0143990D02*
X0140102Y0143990D01*
X0140102Y0143692D02*
X0141929Y0143692D01*
X0141648Y0143393D02*
X0140102Y0143393D01*
X0140102Y0143095D02*
X0141393Y0143095D01*
X0141112Y0142796D02*
X0140102Y0142796D01*
X0140102Y0142498D02*
X0140814Y0142498D01*
X0140555Y0142199D02*
X0140102Y0142199D01*
X0140102Y0141901D02*
X0140320Y0141901D01*
X0140128Y0147274D02*
X0141818Y0147274D01*
X0141546Y0147572D02*
X0140197Y0147572D01*
X0140351Y0147871D02*
X0141480Y0147871D01*
X0141682Y0148169D02*
X0140611Y0148169D01*
X0141378Y0148468D02*
X0141934Y0148468D01*
X0145277Y0149363D02*
X0146253Y0149363D01*
X0146022Y0149662D02*
X0145522Y0149662D01*
X0145535Y0149960D02*
X0145683Y0149960D01*
X0145063Y0151155D02*
X0144986Y0151155D01*
X0160141Y0147376D02*
X0160102Y0147061D01*
X0160102Y0141667D01*
X0160298Y0141864D01*
X0160417Y0142061D01*
X0160613Y0142258D01*
X0160810Y0142494D01*
X0161283Y0142967D01*
X0161755Y0143518D01*
X0162149Y0143911D01*
X0162543Y0144148D01*
X0162779Y0144187D01*
X0163527Y0144187D01*
X0163999Y0144266D01*
X0164432Y0144384D01*
X0164826Y0144541D01*
X0165220Y0144778D01*
X0165535Y0145053D01*
X0165850Y0145368D01*
X0166125Y0145722D01*
X0166519Y0146431D01*
X0166716Y0147179D01*
X0166755Y0147848D01*
X0166637Y0148478D01*
X0166440Y0149069D01*
X0166165Y0149502D01*
X0165850Y0149856D01*
X0165535Y0150053D01*
X0165535Y0149699D01*
X0165495Y0149581D01*
X0165456Y0149502D01*
X0165338Y0149384D01*
X0165220Y0149344D01*
X0165102Y0149344D01*
X0164787Y0149423D01*
X0164629Y0149502D01*
X0164511Y0149581D01*
X0164354Y0149699D01*
X0164117Y0149935D01*
X0163960Y0150171D01*
X0163921Y0150329D01*
X0163921Y0150565D01*
X0163960Y0150683D01*
X0163999Y0150762D01*
X0164078Y0150880D01*
X0164236Y0150998D01*
X0164393Y0151077D01*
X0164590Y0151116D01*
X0164747Y0151156D01*
X0164984Y0151156D01*
X0165062Y0151116D01*
X0165102Y0151116D01*
X0165062Y0151156D01*
X0164905Y0151274D01*
X0164354Y0151549D01*
X0163999Y0151628D01*
X0163606Y0151628D01*
X0163173Y0151549D01*
X0162739Y0151313D01*
X0162385Y0151037D01*
X0162188Y0150722D01*
X0162070Y0150368D01*
X0162070Y0150053D01*
X0162149Y0149699D01*
X0162346Y0149344D01*
X0162621Y0149030D01*
X0162936Y0148675D01*
X0163212Y0148400D01*
X0163330Y0148085D01*
X0163330Y0147809D01*
X0163251Y0147573D01*
X0163094Y0147376D01*
X0162858Y0147219D01*
X0162543Y0147140D01*
X0162228Y0147140D01*
X0162031Y0147179D01*
X0161834Y0147258D01*
X0161598Y0147494D01*
X0161519Y0147612D01*
X0161480Y0147730D01*
X0161480Y0147888D01*
X0161519Y0148006D01*
X0161755Y0148242D01*
X0161873Y0148281D01*
X0162031Y0148360D01*
X0162070Y0148400D01*
X0161913Y0148478D01*
X0161440Y0148478D01*
X0161204Y0148439D01*
X0161007Y0148400D01*
X0160810Y0148321D01*
X0160653Y0148203D01*
X0160456Y0148045D01*
X0160220Y0147652D01*
X0160141Y0147376D01*
X0160128Y0147274D02*
X0161818Y0147274D01*
X0161546Y0147572D02*
X0160197Y0147572D01*
X0160351Y0147871D02*
X0161480Y0147871D01*
X0161682Y0148169D02*
X0160611Y0148169D01*
X0161378Y0148468D02*
X0161934Y0148468D01*
X0162590Y0149065D02*
X0166442Y0149065D01*
X0166541Y0148766D02*
X0162855Y0148766D01*
X0163144Y0148468D02*
X0166639Y0148468D01*
X0166695Y0148169D02*
X0163298Y0148169D01*
X0163330Y0147871D02*
X0166751Y0147871D01*
X0166739Y0147572D02*
X0163251Y0147572D01*
X0162941Y0147274D02*
X0166721Y0147274D01*
X0166662Y0146975D02*
X0160102Y0146975D01*
X0160102Y0146677D02*
X0166584Y0146677D01*
X0166490Y0146378D02*
X0160102Y0146378D01*
X0160102Y0146080D02*
X0166324Y0146080D01*
X0166158Y0145781D02*
X0160102Y0145781D01*
X0160102Y0145483D02*
X0165939Y0145483D01*
X0165666Y0145184D02*
X0160102Y0145184D01*
X0160102Y0144886D02*
X0165343Y0144886D01*
X0164903Y0144587D02*
X0160102Y0144587D01*
X0160102Y0144289D02*
X0164084Y0144289D01*
X0162280Y0143990D02*
X0160102Y0143990D01*
X0160102Y0143692D02*
X0161929Y0143692D01*
X0161648Y0143393D02*
X0160102Y0143393D01*
X0160102Y0143095D02*
X0161393Y0143095D01*
X0161112Y0142796D02*
X0160102Y0142796D01*
X0160102Y0142498D02*
X0160814Y0142498D01*
X0160555Y0142199D02*
X0160102Y0142199D01*
X0160102Y0141901D02*
X0160320Y0141901D01*
X0162335Y0149363D02*
X0165026Y0149363D01*
X0165277Y0149363D02*
X0166253Y0149363D01*
X0166022Y0149662D02*
X0165522Y0149662D01*
X0165535Y0149960D02*
X0165683Y0149960D01*
X0164403Y0149662D02*
X0162169Y0149662D01*
X0162091Y0149960D02*
X0164100Y0149960D01*
X0163938Y0150259D02*
X0162070Y0150259D01*
X0162133Y0150558D02*
X0163921Y0150558D01*
X0164062Y0150856D02*
X0162272Y0150856D01*
X0162536Y0151155D02*
X0164743Y0151155D01*
X0164986Y0151155D02*
X0165063Y0151155D01*
X0164546Y0151453D02*
X0162996Y0151453D01*
X0129354Y0051549D02*
X0128999Y0051628D01*
X0128606Y0051628D01*
X0128173Y0051549D01*
X0127739Y0051313D01*
X0127385Y0051037D01*
X0127188Y0050722D01*
X0127070Y0050368D01*
X0127070Y0050053D01*
X0127149Y0049699D01*
X0127346Y0049344D01*
X0127621Y0049030D01*
X0127936Y0048675D01*
X0128212Y0048400D01*
X0128330Y0048085D01*
X0128330Y0047809D01*
X0128251Y0047573D01*
X0128094Y0047376D01*
X0127858Y0047219D01*
X0127543Y0047140D01*
X0127228Y0047140D01*
X0127031Y0047179D01*
X0126834Y0047258D01*
X0126598Y0047494D01*
X0126519Y0047612D01*
X0126480Y0047730D01*
X0126480Y0047888D01*
X0126519Y0048006D01*
X0126755Y0048242D01*
X0126873Y0048281D01*
X0127031Y0048360D01*
X0127070Y0048400D01*
X0126913Y0048478D01*
X0126440Y0048478D01*
X0126204Y0048439D01*
X0126007Y0048400D01*
X0125810Y0048321D01*
X0125653Y0048203D01*
X0125456Y0048045D01*
X0125220Y0047652D01*
X0125141Y0047376D01*
X0125102Y0047061D01*
X0125102Y0041667D01*
X0125298Y0041864D01*
X0125417Y0042061D01*
X0125613Y0042258D01*
X0125810Y0042494D01*
X0126283Y0042967D01*
X0126755Y0043518D01*
X0127149Y0043911D01*
X0127543Y0044148D01*
X0127779Y0044187D01*
X0128527Y0044187D01*
X0128999Y0044266D01*
X0129432Y0044384D01*
X0129826Y0044541D01*
X0130220Y0044778D01*
X0130535Y0045053D01*
X0130850Y0045368D01*
X0131125Y0045722D01*
X0131519Y0046431D01*
X0131716Y0047179D01*
X0131755Y0047848D01*
X0131637Y0048478D01*
X0131440Y0049069D01*
X0131165Y0049502D01*
X0130850Y0049856D01*
X0130535Y0050053D01*
X0130535Y0049699D01*
X0130495Y0049581D01*
X0130456Y0049502D01*
X0130338Y0049384D01*
X0130220Y0049344D01*
X0130102Y0049344D01*
X0129787Y0049423D01*
X0129629Y0049502D01*
X0129511Y0049581D01*
X0129354Y0049699D01*
X0129117Y0049935D01*
X0128960Y0050171D01*
X0128921Y0050329D01*
X0128921Y0050565D01*
X0128960Y0050683D01*
X0128999Y0050762D01*
X0129078Y0050880D01*
X0129236Y0050998D01*
X0129393Y0051077D01*
X0129590Y0051116D01*
X0129747Y0051156D01*
X0129984Y0051156D01*
X0130062Y0051116D01*
X0130102Y0051116D01*
X0130062Y0051156D01*
X0129905Y0051274D01*
X0129354Y0051549D01*
X0129549Y0051452D02*
X0127994Y0051452D01*
X0127534Y0051153D02*
X0129738Y0051153D01*
X0129988Y0051153D02*
X0130065Y0051153D01*
X0129061Y0050855D02*
X0127271Y0050855D01*
X0127133Y0050556D02*
X0128921Y0050556D01*
X0128938Y0050258D02*
X0127070Y0050258D01*
X0127091Y0049959D02*
X0129101Y0049959D01*
X0129404Y0049661D02*
X0127170Y0049661D01*
X0127336Y0049362D02*
X0130031Y0049362D01*
X0130273Y0049362D02*
X0131254Y0049362D01*
X0131442Y0049064D02*
X0127591Y0049064D01*
X0127856Y0048765D02*
X0131541Y0048765D01*
X0131639Y0048467D02*
X0128145Y0048467D01*
X0128299Y0048168D02*
X0131695Y0048168D01*
X0131751Y0047870D02*
X0128330Y0047870D01*
X0128250Y0047571D02*
X0131739Y0047571D01*
X0131721Y0047273D02*
X0127939Y0047273D01*
X0126819Y0047273D02*
X0125128Y0047273D01*
X0125102Y0046974D02*
X0131662Y0046974D01*
X0131583Y0046676D02*
X0125102Y0046676D01*
X0125102Y0046377D02*
X0131489Y0046377D01*
X0131323Y0046079D02*
X0125102Y0046079D01*
X0125102Y0045780D02*
X0131157Y0045780D01*
X0130938Y0045482D02*
X0125102Y0045482D01*
X0125102Y0045183D02*
X0130665Y0045183D01*
X0130342Y0044884D02*
X0125102Y0044884D01*
X0125102Y0044586D02*
X0129900Y0044586D01*
X0129079Y0044287D02*
X0125102Y0044287D01*
X0125102Y0043989D02*
X0127278Y0043989D01*
X0126928Y0043690D02*
X0125102Y0043690D01*
X0125102Y0043392D02*
X0126647Y0043392D01*
X0126392Y0043093D02*
X0125102Y0043093D01*
X0125102Y0042795D02*
X0126111Y0042795D01*
X0125813Y0042496D02*
X0125102Y0042496D01*
X0125102Y0042198D02*
X0125553Y0042198D01*
X0125320Y0041899D02*
X0125102Y0041899D01*
X0125197Y0047571D02*
X0126546Y0047571D01*
X0126480Y0047870D02*
X0125351Y0047870D01*
X0125610Y0048168D02*
X0126681Y0048168D01*
X0126936Y0048467D02*
X0126370Y0048467D01*
X0130522Y0049661D02*
X0131024Y0049661D01*
X0130685Y0049959D02*
X0130535Y0049959D01*
X0232102Y0091667D02*
X0232298Y0091864D01*
X0232417Y0092061D01*
X0232613Y0092258D01*
X0232810Y0092494D01*
X0233283Y0092967D01*
X0233755Y0093518D01*
X0234149Y0093911D01*
X0234543Y0094148D01*
X0234779Y0094187D01*
X0235527Y0094187D01*
X0235999Y0094266D01*
X0236432Y0094384D01*
X0236826Y0094541D01*
X0237220Y0094778D01*
X0237535Y0095053D01*
X0237850Y0095368D01*
X0238125Y0095722D01*
X0238519Y0096431D01*
X0238716Y0097179D01*
X0238755Y0097848D01*
X0238637Y0098478D01*
X0238440Y0099069D01*
X0238165Y0099502D01*
X0237850Y0099856D01*
X0237535Y0100053D01*
X0237535Y0099699D01*
X0237495Y0099581D01*
X0237456Y0099502D01*
X0237338Y0099384D01*
X0237220Y0099344D01*
X0237102Y0099344D01*
X0236787Y0099423D01*
X0236629Y0099502D01*
X0236511Y0099581D01*
X0236354Y0099699D01*
X0236117Y0099935D01*
X0235960Y0100171D01*
X0235921Y0100329D01*
X0235921Y0100565D01*
X0235960Y0100683D01*
X0235999Y0100762D01*
X0236078Y0100880D01*
X0236236Y0100998D01*
X0236393Y0101077D01*
X0236590Y0101116D01*
X0236747Y0101156D01*
X0236984Y0101156D01*
X0237062Y0101116D01*
X0237102Y0101116D01*
X0237062Y0101156D01*
X0236905Y0101274D01*
X0236354Y0101549D01*
X0235999Y0101628D01*
X0235606Y0101628D01*
X0235173Y0101549D01*
X0234739Y0101313D01*
X0234385Y0101037D01*
X0234188Y0100722D01*
X0234070Y0100368D01*
X0234070Y0100053D01*
X0234149Y0099699D01*
X0234346Y0099344D01*
X0234621Y0099030D01*
X0234936Y0098675D01*
X0235212Y0098400D01*
X0235330Y0098085D01*
X0235330Y0097809D01*
X0235251Y0097573D01*
X0235094Y0097376D01*
X0234858Y0097219D01*
X0234543Y0097140D01*
X0234228Y0097140D01*
X0234031Y0097179D01*
X0233834Y0097258D01*
X0233598Y0097494D01*
X0233519Y0097612D01*
X0233480Y0097730D01*
X0233480Y0097888D01*
X0233519Y0098006D01*
X0233755Y0098242D01*
X0233873Y0098281D01*
X0234031Y0098360D01*
X0234070Y0098400D01*
X0233913Y0098478D01*
X0233440Y0098478D01*
X0233204Y0098439D01*
X0233007Y0098400D01*
X0232810Y0098321D01*
X0232653Y0098203D01*
X0232456Y0098045D01*
X0232220Y0097652D01*
X0232141Y0097376D01*
X0232102Y0097061D01*
X0232102Y0091667D01*
X0232102Y0091751D02*
X0232185Y0091751D01*
X0232102Y0092049D02*
X0232410Y0092049D01*
X0232688Y0092348D02*
X0232102Y0092348D01*
X0232102Y0092646D02*
X0232963Y0092646D01*
X0233261Y0092945D02*
X0232102Y0092945D01*
X0232102Y0093243D02*
X0233520Y0093243D01*
X0233779Y0093542D02*
X0232102Y0093542D01*
X0232102Y0093840D02*
X0234078Y0093840D01*
X0234528Y0094139D02*
X0232102Y0094139D01*
X0232102Y0094437D02*
X0236566Y0094437D01*
X0237150Y0094736D02*
X0232102Y0094736D01*
X0232102Y0095034D02*
X0237513Y0095034D01*
X0237814Y0095333D02*
X0232102Y0095333D01*
X0232102Y0095631D02*
X0238054Y0095631D01*
X0238241Y0095930D02*
X0232102Y0095930D01*
X0232102Y0096228D02*
X0238406Y0096228D01*
X0238544Y0096527D02*
X0232102Y0096527D01*
X0232102Y0096825D02*
X0238623Y0096825D01*
X0238701Y0097124D02*
X0232110Y0097124D01*
X0232154Y0097422D02*
X0233669Y0097422D01*
X0233483Y0097721D02*
X0232261Y0097721D01*
X0232441Y0098020D02*
X0233533Y0098020D01*
X0233946Y0098318D02*
X0232807Y0098318D01*
X0234253Y0099512D02*
X0236614Y0099512D01*
X0236242Y0099811D02*
X0234124Y0099811D01*
X0234070Y0100109D02*
X0236001Y0100109D01*
X0235921Y0100408D02*
X0234083Y0100408D01*
X0234183Y0100706D02*
X0235971Y0100706D01*
X0236249Y0101005D02*
X0234365Y0101005D01*
X0234727Y0101303D02*
X0236846Y0101303D01*
X0236118Y0101602D02*
X0235461Y0101602D01*
X0234460Y0099214D02*
X0238348Y0099214D01*
X0238492Y0098915D02*
X0234723Y0098915D01*
X0234995Y0098617D02*
X0238591Y0098617D01*
X0238667Y0098318D02*
X0235242Y0098318D01*
X0235330Y0098020D02*
X0238723Y0098020D01*
X0238748Y0097721D02*
X0235301Y0097721D01*
X0235131Y0097422D02*
X0238730Y0097422D01*
X0238156Y0099512D02*
X0237461Y0099512D01*
X0237535Y0099811D02*
X0237890Y0099811D01*
X0265102Y0106667D02*
X0265298Y0106864D01*
X0265417Y0107061D01*
X0265613Y0107258D01*
X0265810Y0107494D01*
X0266283Y0107967D01*
X0266755Y0108518D01*
X0267149Y0108911D01*
X0267543Y0109148D01*
X0267779Y0109187D01*
X0268527Y0109187D01*
X0268999Y0109266D01*
X0269432Y0109384D01*
X0269826Y0109541D01*
X0270220Y0109778D01*
X0270535Y0110053D01*
X0270850Y0110368D01*
X0271125Y0110722D01*
X0271519Y0111431D01*
X0271716Y0112179D01*
X0271755Y0112848D01*
X0271637Y0113478D01*
X0271440Y0114069D01*
X0271165Y0114502D01*
X0270850Y0114856D01*
X0270535Y0115053D01*
X0270535Y0114699D01*
X0270495Y0114581D01*
X0270456Y0114502D01*
X0270338Y0114384D01*
X0270220Y0114344D01*
X0270102Y0114344D01*
X0269787Y0114423D01*
X0269629Y0114502D01*
X0269511Y0114581D01*
X0269354Y0114699D01*
X0269117Y0114935D01*
X0268960Y0115171D01*
X0268921Y0115329D01*
X0268921Y0115565D01*
X0268960Y0115683D01*
X0268999Y0115762D01*
X0269078Y0115880D01*
X0269236Y0115998D01*
X0269393Y0116077D01*
X0269590Y0116116D01*
X0269747Y0116156D01*
X0269984Y0116156D01*
X0270062Y0116116D01*
X0270102Y0116116D01*
X0270062Y0116156D01*
X0269905Y0116274D01*
X0269354Y0116549D01*
X0268999Y0116628D01*
X0268606Y0116628D01*
X0268173Y0116549D01*
X0267739Y0116313D01*
X0267385Y0116037D01*
X0267188Y0115722D01*
X0267070Y0115368D01*
X0267070Y0115053D01*
X0267149Y0114699D01*
X0267346Y0114344D01*
X0267621Y0114030D01*
X0267936Y0113675D01*
X0268212Y0113400D01*
X0268330Y0113085D01*
X0268330Y0112809D01*
X0268251Y0112573D01*
X0268094Y0112376D01*
X0267858Y0112219D01*
X0267543Y0112140D01*
X0267228Y0112140D01*
X0267031Y0112179D01*
X0266834Y0112258D01*
X0266598Y0112494D01*
X0266519Y0112612D01*
X0266480Y0112730D01*
X0266480Y0112888D01*
X0266519Y0113006D01*
X0266755Y0113242D01*
X0266873Y0113281D01*
X0267031Y0113360D01*
X0267070Y0113400D01*
X0266913Y0113478D01*
X0266440Y0113478D01*
X0266204Y0113439D01*
X0266007Y0113400D01*
X0265810Y0113321D01*
X0265653Y0113203D01*
X0265456Y0113045D01*
X0265220Y0112652D01*
X0265141Y0112376D01*
X0265102Y0112061D01*
X0265102Y0106667D01*
X0265102Y0106676D02*
X0265111Y0106676D01*
X0265102Y0106975D02*
X0265365Y0106975D01*
X0265626Y0107273D02*
X0265102Y0107273D01*
X0265102Y0107572D02*
X0265888Y0107572D01*
X0266187Y0107870D02*
X0265102Y0107870D01*
X0265102Y0108169D02*
X0266456Y0108169D01*
X0266712Y0108467D02*
X0265102Y0108467D01*
X0265102Y0108766D02*
X0267003Y0108766D01*
X0267404Y0109064D02*
X0265102Y0109064D01*
X0265102Y0109363D02*
X0269356Y0109363D01*
X0270026Y0109661D02*
X0265102Y0109661D01*
X0265102Y0109960D02*
X0270428Y0109960D01*
X0270740Y0110258D02*
X0265102Y0110258D01*
X0265102Y0110557D02*
X0270997Y0110557D01*
X0271199Y0110855D02*
X0265102Y0110855D01*
X0265102Y0111154D02*
X0271365Y0111154D01*
X0271525Y0111453D02*
X0265102Y0111453D01*
X0265102Y0111751D02*
X0271603Y0111751D01*
X0271682Y0112050D02*
X0265102Y0112050D01*
X0265138Y0112348D02*
X0266744Y0112348D01*
X0266508Y0112647D02*
X0265218Y0112647D01*
X0265396Y0112945D02*
X0266499Y0112945D01*
X0266760Y0113244D02*
X0265707Y0113244D01*
X0267294Y0114438D02*
X0269758Y0114438D01*
X0269316Y0114736D02*
X0267141Y0114736D01*
X0267074Y0115035D02*
X0269051Y0115035D01*
X0268921Y0115333D02*
X0267070Y0115333D01*
X0267158Y0115632D02*
X0268943Y0115632D01*
X0269145Y0115930D02*
X0267318Y0115930D01*
X0267631Y0116229D02*
X0269965Y0116229D01*
X0269398Y0116527D02*
X0268132Y0116527D01*
X0267525Y0114139D02*
X0271396Y0114139D01*
X0271516Y0113841D02*
X0267789Y0113841D01*
X0268069Y0113542D02*
X0271616Y0113542D01*
X0271681Y0113244D02*
X0268270Y0113244D01*
X0268330Y0112945D02*
X0271737Y0112945D01*
X0271743Y0112647D02*
X0268276Y0112647D01*
X0268052Y0112348D02*
X0271726Y0112348D01*
X0271206Y0114438D02*
X0270392Y0114438D01*
X0270535Y0114736D02*
X0270956Y0114736D01*
X0270564Y0115035D02*
X0270535Y0115035D01*
X0232102Y0233667D02*
X0232298Y0233864D01*
X0232417Y0234061D01*
X0232613Y0234258D01*
X0232810Y0234494D01*
X0233283Y0234967D01*
X0233755Y0235518D01*
X0234149Y0235911D01*
X0234543Y0236148D01*
X0234779Y0236187D01*
X0235527Y0236187D01*
X0235999Y0236266D01*
X0236432Y0236384D01*
X0236826Y0236541D01*
X0237220Y0236778D01*
X0237535Y0237053D01*
X0237850Y0237368D01*
X0238125Y0237722D01*
X0238519Y0238431D01*
X0238716Y0239179D01*
X0238755Y0239848D01*
X0238637Y0240478D01*
X0238440Y0241069D01*
X0238165Y0241502D01*
X0237850Y0241856D01*
X0237535Y0242053D01*
X0237535Y0241699D01*
X0237495Y0241581D01*
X0237456Y0241502D01*
X0237338Y0241384D01*
X0237220Y0241344D01*
X0237102Y0241344D01*
X0236787Y0241423D01*
X0236629Y0241502D01*
X0236511Y0241581D01*
X0236354Y0241699D01*
X0236117Y0241935D01*
X0235960Y0242171D01*
X0235921Y0242329D01*
X0235921Y0242565D01*
X0235960Y0242683D01*
X0235999Y0242762D01*
X0236078Y0242880D01*
X0236236Y0242998D01*
X0236393Y0243077D01*
X0236590Y0243116D01*
X0236747Y0243156D01*
X0236984Y0243156D01*
X0237062Y0243116D01*
X0237102Y0243116D01*
X0237062Y0243156D01*
X0236905Y0243274D01*
X0236354Y0243549D01*
X0235999Y0243628D01*
X0235606Y0243628D01*
X0235173Y0243549D01*
X0234739Y0243313D01*
X0234385Y0243037D01*
X0234188Y0242722D01*
X0234070Y0242368D01*
X0234070Y0242053D01*
X0234149Y0241699D01*
X0234346Y0241344D01*
X0234621Y0241030D01*
X0234936Y0240675D01*
X0235212Y0240400D01*
X0235330Y0240085D01*
X0235330Y0239809D01*
X0235251Y0239573D01*
X0235094Y0239376D01*
X0234858Y0239219D01*
X0234543Y0239140D01*
X0234228Y0239140D01*
X0234031Y0239179D01*
X0233834Y0239258D01*
X0233598Y0239494D01*
X0233519Y0239612D01*
X0233480Y0239730D01*
X0233480Y0239888D01*
X0233519Y0240006D01*
X0233755Y0240242D01*
X0233873Y0240281D01*
X0234031Y0240360D01*
X0234070Y0240400D01*
X0233913Y0240478D01*
X0233440Y0240478D01*
X0233204Y0240439D01*
X0233007Y0240400D01*
X0232810Y0240321D01*
X0232653Y0240203D01*
X0232456Y0240045D01*
X0232220Y0239652D01*
X0232141Y0239376D01*
X0232102Y0239061D01*
X0232102Y0233667D01*
X0232102Y0233842D02*
X0232276Y0233842D01*
X0232102Y0234141D02*
X0232496Y0234141D01*
X0232765Y0234439D02*
X0232102Y0234439D01*
X0232102Y0234738D02*
X0233054Y0234738D01*
X0233342Y0235036D02*
X0232102Y0235036D01*
X0232102Y0235335D02*
X0233598Y0235335D01*
X0233871Y0235633D02*
X0232102Y0235633D01*
X0232102Y0235932D02*
X0234183Y0235932D01*
X0235786Y0236230D02*
X0232102Y0236230D01*
X0232102Y0236529D02*
X0236795Y0236529D01*
X0237277Y0236827D02*
X0232102Y0236827D01*
X0232102Y0237126D02*
X0237607Y0237126D01*
X0237893Y0237424D02*
X0232102Y0237424D01*
X0232102Y0237723D02*
X0238125Y0237723D01*
X0238291Y0238021D02*
X0232102Y0238021D01*
X0232102Y0238320D02*
X0238457Y0238320D01*
X0238568Y0238618D02*
X0232102Y0238618D01*
X0232102Y0238917D02*
X0238647Y0238917D01*
X0238718Y0239215D02*
X0234845Y0239215D01*
X0235204Y0239514D02*
X0238736Y0239514D01*
X0238753Y0239812D02*
X0235330Y0239812D01*
X0235320Y0240111D02*
X0238706Y0240111D01*
X0238650Y0240409D02*
X0235202Y0240409D01*
X0234907Y0240708D02*
X0238561Y0240708D01*
X0238461Y0241006D02*
X0234642Y0241006D01*
X0234380Y0241305D02*
X0238290Y0241305D01*
X0238074Y0241603D02*
X0237503Y0241603D01*
X0237535Y0241902D02*
X0237777Y0241902D01*
X0236481Y0241603D02*
X0234202Y0241603D01*
X0234104Y0241902D02*
X0236150Y0241902D01*
X0235953Y0242200D02*
X0234070Y0242200D01*
X0234114Y0242499D02*
X0235921Y0242499D01*
X0236023Y0242798D02*
X0234235Y0242798D01*
X0234460Y0243096D02*
X0236489Y0243096D01*
X0236663Y0243395D02*
X0234889Y0243395D01*
X0234051Y0240409D02*
X0233056Y0240409D01*
X0232538Y0240111D02*
X0233624Y0240111D01*
X0233480Y0239812D02*
X0232316Y0239812D01*
X0232180Y0239514D02*
X0233585Y0239514D01*
X0233940Y0239215D02*
X0232121Y0239215D01*
X0265102Y0248667D02*
X0265298Y0248864D01*
X0265417Y0249061D01*
X0265613Y0249258D01*
X0265810Y0249494D01*
X0266283Y0249967D01*
X0266755Y0250518D01*
X0267149Y0250911D01*
X0267543Y0251148D01*
X0267779Y0251187D01*
X0268527Y0251187D01*
X0268999Y0251266D01*
X0269432Y0251384D01*
X0269826Y0251541D01*
X0270220Y0251778D01*
X0270535Y0252053D01*
X0270850Y0252368D01*
X0271125Y0252722D01*
X0271519Y0253431D01*
X0271716Y0254179D01*
X0271755Y0254848D01*
X0271637Y0255478D01*
X0271440Y0256069D01*
X0271165Y0256502D01*
X0270850Y0256856D01*
X0270535Y0257053D01*
X0270535Y0256699D01*
X0270495Y0256581D01*
X0270456Y0256502D01*
X0270338Y0256384D01*
X0270220Y0256344D01*
X0270102Y0256344D01*
X0269787Y0256423D01*
X0269629Y0256502D01*
X0269511Y0256581D01*
X0269354Y0256699D01*
X0269117Y0256935D01*
X0268960Y0257171D01*
X0268921Y0257329D01*
X0268921Y0257565D01*
X0268960Y0257683D01*
X0268999Y0257762D01*
X0269078Y0257880D01*
X0269236Y0257998D01*
X0269393Y0258077D01*
X0269590Y0258116D01*
X0269747Y0258156D01*
X0269984Y0258156D01*
X0270062Y0258116D01*
X0270102Y0258116D01*
X0270062Y0258156D01*
X0269905Y0258274D01*
X0269354Y0258549D01*
X0268999Y0258628D01*
X0268606Y0258628D01*
X0268173Y0258549D01*
X0267739Y0258313D01*
X0267385Y0258037D01*
X0267188Y0257722D01*
X0267070Y0257368D01*
X0267070Y0257053D01*
X0267149Y0256699D01*
X0267346Y0256344D01*
X0267621Y0256030D01*
X0267936Y0255675D01*
X0268212Y0255400D01*
X0268330Y0255085D01*
X0268330Y0254809D01*
X0268251Y0254573D01*
X0268094Y0254376D01*
X0267858Y0254219D01*
X0267543Y0254140D01*
X0267228Y0254140D01*
X0267031Y0254179D01*
X0266834Y0254258D01*
X0266598Y0254494D01*
X0266519Y0254612D01*
X0266480Y0254730D01*
X0266480Y0254888D01*
X0266519Y0255006D01*
X0266755Y0255242D01*
X0266873Y0255281D01*
X0267031Y0255360D01*
X0267070Y0255400D01*
X0266913Y0255478D01*
X0266440Y0255478D01*
X0266204Y0255439D01*
X0266007Y0255400D01*
X0265810Y0255321D01*
X0265653Y0255203D01*
X0265456Y0255045D01*
X0265220Y0254652D01*
X0265141Y0254376D01*
X0265102Y0254061D01*
X0265102Y0248667D01*
X0265102Y0248768D02*
X0265202Y0248768D01*
X0265102Y0249066D02*
X0265422Y0249066D01*
X0265703Y0249365D02*
X0265102Y0249365D01*
X0265102Y0249663D02*
X0265979Y0249663D01*
X0266278Y0249962D02*
X0265102Y0249962D01*
X0265102Y0250260D02*
X0266535Y0250260D01*
X0266796Y0250559D02*
X0265102Y0250559D01*
X0265102Y0250857D02*
X0267095Y0250857D01*
X0267592Y0251156D02*
X0265102Y0251156D01*
X0265102Y0251454D02*
X0269609Y0251454D01*
X0270179Y0251753D02*
X0265102Y0251753D01*
X0265102Y0252051D02*
X0270533Y0252051D01*
X0270831Y0252350D02*
X0265102Y0252350D01*
X0265102Y0252648D02*
X0271068Y0252648D01*
X0271250Y0252947D02*
X0265102Y0252947D01*
X0265102Y0253245D02*
X0271416Y0253245D01*
X0271549Y0253544D02*
X0265102Y0253544D01*
X0265102Y0253842D02*
X0271627Y0253842D01*
X0271706Y0254141D02*
X0267547Y0254141D01*
X0267222Y0254141D02*
X0265112Y0254141D01*
X0265159Y0254439D02*
X0266652Y0254439D01*
X0266480Y0254738D02*
X0265272Y0254738D01*
X0265451Y0255036D02*
X0266550Y0255036D01*
X0266980Y0255335D02*
X0265846Y0255335D01*
X0267445Y0256231D02*
X0271337Y0256231D01*
X0271486Y0255932D02*
X0267708Y0255932D01*
X0267978Y0255633D02*
X0271585Y0255633D01*
X0271664Y0255335D02*
X0268236Y0255335D01*
X0268330Y0255036D02*
X0271720Y0255036D01*
X0271749Y0254738D02*
X0268306Y0254738D01*
X0268145Y0254439D02*
X0271731Y0254439D01*
X0271141Y0256529D02*
X0270470Y0256529D01*
X0270535Y0256828D02*
X0270875Y0256828D01*
X0269589Y0256529D02*
X0267243Y0256529D01*
X0267120Y0256828D02*
X0269225Y0256828D01*
X0268990Y0257126D02*
X0267070Y0257126D01*
X0267089Y0257425D02*
X0268921Y0257425D01*
X0268980Y0257723D02*
X0267189Y0257723D01*
X0267375Y0258022D02*
X0269283Y0258022D01*
X0269812Y0258320D02*
X0267752Y0258320D01*
X0268554Y0258619D02*
X0269041Y0258619D01*
D29*
X0076777Y0023500D02*
X0076779Y0023619D01*
X0076785Y0023738D01*
X0076795Y0023857D01*
X0076809Y0023975D01*
X0076827Y0024093D01*
X0076848Y0024210D01*
X0076874Y0024326D01*
X0076904Y0024442D01*
X0076937Y0024556D01*
X0076974Y0024669D01*
X0077015Y0024781D01*
X0077060Y0024892D01*
X0077108Y0025001D01*
X0077160Y0025108D01*
X0077216Y0025213D01*
X0077275Y0025317D01*
X0077337Y0025418D01*
X0077403Y0025518D01*
X0077472Y0025615D01*
X0077544Y0025709D01*
X0077620Y0025802D01*
X0077698Y0025891D01*
X0077779Y0025978D01*
X0077864Y0026063D01*
X0077951Y0026144D01*
X0078040Y0026222D01*
X0078133Y0026298D01*
X0078227Y0026370D01*
X0078324Y0026439D01*
X0078424Y0026505D01*
X0078525Y0026567D01*
X0078629Y0026626D01*
X0078734Y0026682D01*
X0078841Y0026734D01*
X0078950Y0026782D01*
X0079061Y0026827D01*
X0079173Y0026868D01*
X0079286Y0026905D01*
X0079400Y0026938D01*
X0079516Y0026968D01*
X0079632Y0026994D01*
X0079749Y0027015D01*
X0079867Y0027033D01*
X0079985Y0027047D01*
X0080104Y0027057D01*
X0080223Y0027063D01*
X0080342Y0027065D01*
X0080461Y0027063D01*
X0080580Y0027057D01*
X0080699Y0027047D01*
X0080817Y0027033D01*
X0080935Y0027015D01*
X0081052Y0026994D01*
X0081168Y0026968D01*
X0081284Y0026938D01*
X0081398Y0026905D01*
X0081511Y0026868D01*
X0081623Y0026827D01*
X0081734Y0026782D01*
X0081843Y0026734D01*
X0081950Y0026682D01*
X0082055Y0026626D01*
X0082159Y0026567D01*
X0082260Y0026505D01*
X0082360Y0026439D01*
X0082457Y0026370D01*
X0082551Y0026298D01*
X0082644Y0026222D01*
X0082733Y0026144D01*
X0082820Y0026063D01*
X0082905Y0025978D01*
X0082986Y0025891D01*
X0083064Y0025802D01*
X0083140Y0025709D01*
X0083212Y0025615D01*
X0083281Y0025518D01*
X0083347Y0025418D01*
X0083409Y0025317D01*
X0083468Y0025213D01*
X0083524Y0025108D01*
X0083576Y0025001D01*
X0083624Y0024892D01*
X0083669Y0024781D01*
X0083710Y0024669D01*
X0083747Y0024556D01*
X0083780Y0024442D01*
X0083810Y0024326D01*
X0083836Y0024210D01*
X0083857Y0024093D01*
X0083875Y0023975D01*
X0083889Y0023857D01*
X0083899Y0023738D01*
X0083905Y0023619D01*
X0083907Y0023500D01*
X0083905Y0023381D01*
X0083899Y0023262D01*
X0083889Y0023143D01*
X0083875Y0023025D01*
X0083857Y0022907D01*
X0083836Y0022790D01*
X0083810Y0022674D01*
X0083780Y0022558D01*
X0083747Y0022444D01*
X0083710Y0022331D01*
X0083669Y0022219D01*
X0083624Y0022108D01*
X0083576Y0021999D01*
X0083524Y0021892D01*
X0083468Y0021787D01*
X0083409Y0021683D01*
X0083347Y0021582D01*
X0083281Y0021482D01*
X0083212Y0021385D01*
X0083140Y0021291D01*
X0083064Y0021198D01*
X0082986Y0021109D01*
X0082905Y0021022D01*
X0082820Y0020937D01*
X0082733Y0020856D01*
X0082644Y0020778D01*
X0082551Y0020702D01*
X0082457Y0020630D01*
X0082360Y0020561D01*
X0082260Y0020495D01*
X0082159Y0020433D01*
X0082055Y0020374D01*
X0081950Y0020318D01*
X0081843Y0020266D01*
X0081734Y0020218D01*
X0081623Y0020173D01*
X0081511Y0020132D01*
X0081398Y0020095D01*
X0081284Y0020062D01*
X0081168Y0020032D01*
X0081052Y0020006D01*
X0080935Y0019985D01*
X0080817Y0019967D01*
X0080699Y0019953D01*
X0080580Y0019943D01*
X0080461Y0019937D01*
X0080342Y0019935D01*
X0080223Y0019937D01*
X0080104Y0019943D01*
X0079985Y0019953D01*
X0079867Y0019967D01*
X0079749Y0019985D01*
X0079632Y0020006D01*
X0079516Y0020032D01*
X0079400Y0020062D01*
X0079286Y0020095D01*
X0079173Y0020132D01*
X0079061Y0020173D01*
X0078950Y0020218D01*
X0078841Y0020266D01*
X0078734Y0020318D01*
X0078629Y0020374D01*
X0078525Y0020433D01*
X0078424Y0020495D01*
X0078324Y0020561D01*
X0078227Y0020630D01*
X0078133Y0020702D01*
X0078040Y0020778D01*
X0077951Y0020856D01*
X0077864Y0020937D01*
X0077779Y0021022D01*
X0077698Y0021109D01*
X0077620Y0021198D01*
X0077544Y0021291D01*
X0077472Y0021385D01*
X0077403Y0021482D01*
X0077337Y0021582D01*
X0077275Y0021683D01*
X0077216Y0021787D01*
X0077160Y0021892D01*
X0077108Y0021999D01*
X0077060Y0022108D01*
X0077015Y0022219D01*
X0076974Y0022331D01*
X0076937Y0022444D01*
X0076904Y0022558D01*
X0076874Y0022674D01*
X0076848Y0022790D01*
X0076827Y0022907D01*
X0076809Y0023025D01*
X0076795Y0023143D01*
X0076785Y0023262D01*
X0076779Y0023381D01*
X0076777Y0023500D01*
D30*
X0080342Y0023500D03*
D31*
X0083342Y0036750D03*
X0083342Y0046750D03*
X0098342Y0136750D03*
X0098342Y0146750D03*
X0083342Y0178750D03*
X0083342Y0188750D03*
X0098342Y0278750D03*
X0098342Y0288750D03*
X0083342Y0320750D03*
X0083342Y0330750D03*
X0098342Y0420750D03*
X0098342Y0430750D03*
X0083342Y0462750D03*
X0083342Y0472750D03*
X0098342Y0562750D03*
X0098342Y0572750D03*
X0158342Y0522750D03*
X0168342Y0522750D03*
X0183342Y0552750D03*
X0193342Y0552750D03*
X0248342Y0552750D03*
X0248342Y0562750D03*
X0273342Y0502750D03*
X0288342Y0502750D03*
X0248342Y0420750D03*
X0248342Y0410750D03*
X0273342Y0360750D03*
X0288342Y0360750D03*
X0248342Y0278750D03*
X0248342Y0268750D03*
X0273342Y0218750D03*
X0288342Y0218750D03*
X0248342Y0136750D03*
X0248342Y0126750D03*
X0273342Y0076750D03*
X0288342Y0076750D03*
X0193342Y0126750D03*
X0183342Y0126750D03*
X0168342Y0096750D03*
X0158342Y0096750D03*
X0158342Y0238750D03*
X0168342Y0238750D03*
X0183342Y0268750D03*
X0193342Y0268750D03*
X0168342Y0380750D03*
X0158342Y0380750D03*
X0183342Y0410750D03*
X0193342Y0410750D03*
M02*
