G75*
%MOIN*%
%OFA0B0*%
%FSLAX25Y25*%
%IPPOS*%
%LPD*%
%AMOC8*
5,1,8,0,0,1.08239X$1,22.5*
%
%ADD10C,0.13800*%
%ADD11C,0.00300*%
%ADD12C,0.07300*%
D10*
X0063342Y0041750D03*
X0063342Y0111750D03*
X0063342Y0183750D03*
X0063342Y0253750D03*
X0063342Y0325750D03*
X0063342Y0395750D03*
X0063342Y0467750D03*
X0063342Y0537750D03*
X0143342Y0537750D03*
X0143342Y0557750D03*
X0143342Y0587750D03*
X0163342Y0587750D03*
X0163342Y0557750D03*
X0163342Y0537750D03*
X0143342Y0467750D03*
X0143342Y0445750D03*
X0143342Y0415750D03*
X0143342Y0395750D03*
X0163342Y0395750D03*
X0163342Y0415750D03*
X0163342Y0445750D03*
X0233342Y0395750D03*
X0253342Y0395750D03*
X0253342Y0445750D03*
X0283342Y0395750D03*
X0253342Y0303750D03*
X0253342Y0253750D03*
X0233342Y0253750D03*
X0283342Y0253750D03*
X0253342Y0161750D03*
X0253342Y0111750D03*
X0233342Y0111750D03*
X0283342Y0111750D03*
X0163342Y0111750D03*
X0163342Y0131750D03*
X0163342Y0161750D03*
X0143342Y0161750D03*
X0143342Y0183750D03*
X0143342Y0131750D03*
X0143342Y0111750D03*
X0143342Y0041750D03*
X0143342Y0253750D03*
X0143342Y0273750D03*
X0143342Y0303750D03*
X0143342Y0325750D03*
X0163342Y0303750D03*
X0163342Y0273750D03*
X0163342Y0253750D03*
X0233342Y0537750D03*
X0253342Y0537750D03*
X0253342Y0587750D03*
X0283342Y0537750D03*
D11*
X0251582Y0567667D02*
X0251385Y0567864D01*
X0251267Y0568061D01*
X0251070Y0568258D01*
X0250873Y0568494D01*
X0250401Y0568967D01*
X0249928Y0569518D01*
X0249535Y0569911D01*
X0249141Y0570148D01*
X0248905Y0570187D01*
X0248157Y0570187D01*
X0247684Y0570266D01*
X0247251Y0570384D01*
X0246858Y0570541D01*
X0246464Y0570778D01*
X0246149Y0571053D01*
X0245834Y0571368D01*
X0245558Y0571722D01*
X0245165Y0572431D01*
X0244968Y0573179D01*
X0244928Y0573848D01*
X0245047Y0574478D01*
X0245243Y0575069D01*
X0245519Y0575502D01*
X0245834Y0575856D01*
X0246149Y0576053D01*
X0246149Y0575699D01*
X0246188Y0575581D01*
X0246228Y0575502D01*
X0246346Y0575384D01*
X0246464Y0575344D01*
X0246582Y0575344D01*
X0246897Y0575423D01*
X0247054Y0575502D01*
X0247173Y0575581D01*
X0247330Y0575699D01*
X0247566Y0575935D01*
X0247724Y0576171D01*
X0247763Y0576329D01*
X0247763Y0576565D01*
X0247724Y0576683D01*
X0247684Y0576762D01*
X0247606Y0576880D01*
X0247448Y0576998D01*
X0247291Y0577077D01*
X0247094Y0577116D01*
X0246936Y0577156D01*
X0246700Y0577156D01*
X0246621Y0577116D01*
X0246582Y0577116D01*
X0246621Y0577156D01*
X0246779Y0577274D01*
X0247330Y0577549D01*
X0247684Y0577628D01*
X0248078Y0577628D01*
X0248511Y0577549D01*
X0248944Y0577313D01*
X0249298Y0577037D01*
X0249495Y0576722D01*
X0249613Y0576368D01*
X0249613Y0576053D01*
X0249535Y0575699D01*
X0249338Y0575344D01*
X0249062Y0575030D01*
X0248747Y0574675D01*
X0248472Y0574400D01*
X0248354Y0574085D01*
X0248354Y0573809D01*
X0248432Y0573573D01*
X0248590Y0573376D01*
X0248826Y0573219D01*
X0249141Y0573140D01*
X0249456Y0573140D01*
X0249653Y0573179D01*
X0249850Y0573258D01*
X0250086Y0573494D01*
X0250165Y0573612D01*
X0250204Y0573730D01*
X0250204Y0573888D01*
X0250165Y0574006D01*
X0249928Y0574242D01*
X0249810Y0574281D01*
X0249653Y0574360D01*
X0249613Y0574400D01*
X0249771Y0574478D01*
X0250243Y0574478D01*
X0250480Y0574439D01*
X0250676Y0574400D01*
X0250873Y0574321D01*
X0251031Y0574203D01*
X0251228Y0574045D01*
X0251464Y0573652D01*
X0251543Y0573376D01*
X0251582Y0573061D01*
X0251582Y0567667D01*
X0251582Y0567876D02*
X0251378Y0567876D01*
X0251582Y0568175D02*
X0251153Y0568175D01*
X0250891Y0568473D02*
X0251582Y0568473D01*
X0251582Y0568772D02*
X0250596Y0568772D01*
X0250312Y0569070D02*
X0251582Y0569070D01*
X0251582Y0569369D02*
X0250056Y0569369D01*
X0249779Y0569667D02*
X0251582Y0569667D01*
X0251582Y0569966D02*
X0249444Y0569966D01*
X0247692Y0570264D02*
X0251582Y0570264D01*
X0251582Y0570563D02*
X0246822Y0570563D01*
X0246368Y0570861D02*
X0251582Y0570861D01*
X0251582Y0571160D02*
X0246042Y0571160D01*
X0245764Y0571458D02*
X0251582Y0571458D01*
X0251582Y0571757D02*
X0245539Y0571757D01*
X0245373Y0572055D02*
X0251582Y0572055D01*
X0251582Y0572354D02*
X0245207Y0572354D01*
X0245106Y0572653D02*
X0251582Y0572653D01*
X0251582Y0572951D02*
X0245028Y0572951D01*
X0244964Y0573250D02*
X0248780Y0573250D01*
X0248452Y0573548D02*
X0244946Y0573548D01*
X0244929Y0573847D02*
X0248354Y0573847D01*
X0248376Y0574145D02*
X0244984Y0574145D01*
X0245040Y0574444D02*
X0248516Y0574444D01*
X0248807Y0574742D02*
X0245134Y0574742D01*
X0245234Y0575041D02*
X0249072Y0575041D01*
X0249333Y0575339D02*
X0245415Y0575339D01*
X0245640Y0575638D02*
X0246169Y0575638D01*
X0246149Y0575936D02*
X0245962Y0575936D01*
X0247248Y0575638D02*
X0249501Y0575638D01*
X0249587Y0575936D02*
X0247567Y0575936D01*
X0247740Y0576235D02*
X0249613Y0576235D01*
X0249558Y0576533D02*
X0247763Y0576533D01*
X0247638Y0576832D02*
X0249427Y0576832D01*
X0249179Y0577130D02*
X0247038Y0577130D01*
X0247089Y0577429D02*
X0248732Y0577429D01*
X0246649Y0577130D02*
X0246596Y0577130D01*
X0249701Y0574444D02*
X0250452Y0574444D01*
X0250025Y0574145D02*
X0251103Y0574145D01*
X0251347Y0573847D02*
X0250204Y0573847D01*
X0250122Y0573548D02*
X0251493Y0573548D01*
X0251558Y0573250D02*
X0249829Y0573250D01*
X0248078Y0435628D02*
X0248511Y0435549D01*
X0248944Y0435313D01*
X0249298Y0435037D01*
X0249495Y0434722D01*
X0249613Y0434368D01*
X0249613Y0434053D01*
X0249535Y0433699D01*
X0249338Y0433344D01*
X0249062Y0433030D01*
X0248747Y0432675D01*
X0248472Y0432400D01*
X0248354Y0432085D01*
X0248354Y0431809D01*
X0248432Y0431573D01*
X0248590Y0431376D01*
X0248826Y0431219D01*
X0249141Y0431140D01*
X0249456Y0431140D01*
X0249653Y0431179D01*
X0249850Y0431258D01*
X0250086Y0431494D01*
X0250165Y0431612D01*
X0250204Y0431730D01*
X0250204Y0431888D01*
X0250165Y0432006D01*
X0249928Y0432242D01*
X0249810Y0432281D01*
X0249653Y0432360D01*
X0249613Y0432400D01*
X0249771Y0432478D01*
X0250243Y0432478D01*
X0250480Y0432439D01*
X0250676Y0432400D01*
X0250873Y0432321D01*
X0251031Y0432203D01*
X0251228Y0432045D01*
X0251464Y0431652D01*
X0251543Y0431376D01*
X0251582Y0431061D01*
X0251582Y0425667D01*
X0251385Y0425864D01*
X0251267Y0426061D01*
X0251070Y0426258D01*
X0250873Y0426494D01*
X0250401Y0426967D01*
X0249928Y0427518D01*
X0249535Y0427911D01*
X0249141Y0428148D01*
X0248905Y0428187D01*
X0248157Y0428187D01*
X0247684Y0428266D01*
X0247251Y0428384D01*
X0246858Y0428541D01*
X0246464Y0428778D01*
X0246149Y0429053D01*
X0245834Y0429368D01*
X0245558Y0429722D01*
X0245165Y0430431D01*
X0244968Y0431179D01*
X0244928Y0431848D01*
X0245047Y0432478D01*
X0245243Y0433069D01*
X0245519Y0433502D01*
X0245834Y0433856D01*
X0246149Y0434053D01*
X0246149Y0433699D01*
X0246188Y0433581D01*
X0246228Y0433502D01*
X0246346Y0433384D01*
X0246464Y0433344D01*
X0246582Y0433344D01*
X0246897Y0433423D01*
X0247054Y0433502D01*
X0247173Y0433581D01*
X0247330Y0433699D01*
X0247566Y0433935D01*
X0247724Y0434171D01*
X0247763Y0434329D01*
X0247763Y0434565D01*
X0247724Y0434683D01*
X0247684Y0434762D01*
X0247606Y0434880D01*
X0247448Y0434998D01*
X0247291Y0435077D01*
X0247094Y0435116D01*
X0246936Y0435156D01*
X0246700Y0435156D01*
X0246621Y0435116D01*
X0246582Y0435116D01*
X0246621Y0435156D01*
X0246779Y0435274D01*
X0247330Y0435549D01*
X0247684Y0435628D01*
X0248078Y0435628D01*
X0248900Y0435337D02*
X0246906Y0435337D01*
X0247367Y0435039D02*
X0249297Y0435039D01*
X0249484Y0434740D02*
X0247695Y0434740D01*
X0247763Y0434442D02*
X0249589Y0434442D01*
X0249613Y0434143D02*
X0247705Y0434143D01*
X0247476Y0433845D02*
X0249567Y0433845D01*
X0249450Y0433546D02*
X0247121Y0433546D01*
X0246205Y0433546D02*
X0245558Y0433546D01*
X0245357Y0433248D02*
X0249253Y0433248D01*
X0248991Y0432949D02*
X0245203Y0432949D01*
X0245104Y0432651D02*
X0248723Y0432651D01*
X0248454Y0432352D02*
X0245023Y0432352D01*
X0244967Y0432054D02*
X0248354Y0432054D01*
X0248372Y0431755D02*
X0244934Y0431755D01*
X0244951Y0431457D02*
X0248525Y0431457D01*
X0249067Y0431158D02*
X0244973Y0431158D01*
X0245052Y0430860D02*
X0251582Y0430860D01*
X0251570Y0431158D02*
X0249548Y0431158D01*
X0250048Y0431457D02*
X0251520Y0431457D01*
X0251402Y0431755D02*
X0250204Y0431755D01*
X0250117Y0432054D02*
X0251217Y0432054D01*
X0250795Y0432352D02*
X0249669Y0432352D01*
X0251582Y0430561D02*
X0245130Y0430561D01*
X0245258Y0430263D02*
X0251582Y0430263D01*
X0251582Y0429964D02*
X0245424Y0429964D01*
X0245603Y0429666D02*
X0251582Y0429666D01*
X0251582Y0429367D02*
X0245835Y0429367D01*
X0246133Y0429069D02*
X0251582Y0429069D01*
X0251582Y0428770D02*
X0246476Y0428770D01*
X0247032Y0428472D02*
X0251582Y0428472D01*
X0251582Y0428173D02*
X0248989Y0428173D01*
X0249572Y0427875D02*
X0251582Y0427875D01*
X0251582Y0427576D02*
X0249870Y0427576D01*
X0250134Y0427277D02*
X0251582Y0427277D01*
X0251582Y0426979D02*
X0250390Y0426979D01*
X0250687Y0426680D02*
X0251582Y0426680D01*
X0251582Y0426382D02*
X0250967Y0426382D01*
X0251245Y0426083D02*
X0251582Y0426083D01*
X0251582Y0425785D02*
X0251464Y0425785D01*
X0246149Y0433845D02*
X0245824Y0433845D01*
X0247684Y0293628D02*
X0248078Y0293628D01*
X0248511Y0293549D01*
X0248944Y0293313D01*
X0249298Y0293037D01*
X0249495Y0292722D01*
X0249613Y0292368D01*
X0249613Y0292053D01*
X0249535Y0291699D01*
X0249338Y0291344D01*
X0249062Y0291030D01*
X0248747Y0290675D01*
X0248472Y0290400D01*
X0248354Y0290085D01*
X0248354Y0289809D01*
X0248432Y0289573D01*
X0248590Y0289376D01*
X0248826Y0289219D01*
X0249141Y0289140D01*
X0249456Y0289140D01*
X0249653Y0289179D01*
X0249850Y0289258D01*
X0250086Y0289494D01*
X0250165Y0289612D01*
X0250204Y0289730D01*
X0250204Y0289888D01*
X0250165Y0290006D01*
X0249928Y0290242D01*
X0249810Y0290281D01*
X0249653Y0290360D01*
X0249613Y0290400D01*
X0249771Y0290478D01*
X0250243Y0290478D01*
X0250480Y0290439D01*
X0250676Y0290400D01*
X0250873Y0290321D01*
X0251031Y0290203D01*
X0251228Y0290045D01*
X0251464Y0289652D01*
X0251543Y0289376D01*
X0251582Y0289061D01*
X0251582Y0283667D01*
X0251385Y0283864D01*
X0251267Y0284061D01*
X0251070Y0284258D01*
X0250873Y0284494D01*
X0250401Y0284967D01*
X0249928Y0285518D01*
X0249535Y0285911D01*
X0249141Y0286148D01*
X0248905Y0286187D01*
X0248157Y0286187D01*
X0247684Y0286266D01*
X0247251Y0286384D01*
X0246858Y0286541D01*
X0246464Y0286778D01*
X0246149Y0287053D01*
X0245834Y0287368D01*
X0245558Y0287722D01*
X0245165Y0288431D01*
X0244968Y0289179D01*
X0244928Y0289848D01*
X0245047Y0290478D01*
X0245243Y0291069D01*
X0245519Y0291502D01*
X0245834Y0291856D01*
X0246149Y0292053D01*
X0246149Y0291699D01*
X0246188Y0291581D01*
X0246228Y0291502D01*
X0246346Y0291384D01*
X0246464Y0291344D01*
X0246582Y0291344D01*
X0246897Y0291423D01*
X0247054Y0291502D01*
X0247173Y0291581D01*
X0247330Y0291699D01*
X0247566Y0291935D01*
X0247724Y0292171D01*
X0247763Y0292329D01*
X0247763Y0292565D01*
X0247724Y0292683D01*
X0247684Y0292762D01*
X0247606Y0292880D01*
X0247448Y0292998D01*
X0247291Y0293077D01*
X0247094Y0293116D01*
X0246936Y0293156D01*
X0246700Y0293156D01*
X0246621Y0293116D01*
X0246582Y0293116D01*
X0246621Y0293156D01*
X0246779Y0293274D01*
X0247330Y0293549D01*
X0247684Y0293628D01*
X0247320Y0293544D02*
X0248520Y0293544D01*
X0249030Y0293246D02*
X0246742Y0293246D01*
X0247516Y0292947D02*
X0249355Y0292947D01*
X0249520Y0292649D02*
X0247735Y0292649D01*
X0247763Y0292350D02*
X0249613Y0292350D01*
X0249613Y0292052D02*
X0247644Y0292052D01*
X0247385Y0291753D02*
X0249547Y0291753D01*
X0249399Y0291455D02*
X0246960Y0291455D01*
X0246275Y0291455D02*
X0245489Y0291455D01*
X0245299Y0291156D02*
X0249173Y0291156D01*
X0248910Y0290858D02*
X0245173Y0290858D01*
X0245074Y0290559D02*
X0248631Y0290559D01*
X0248420Y0290261D02*
X0245006Y0290261D01*
X0244950Y0289962D02*
X0248354Y0289962D01*
X0248402Y0289664D02*
X0244939Y0289664D01*
X0244957Y0289365D02*
X0248606Y0289365D01*
X0249957Y0289365D02*
X0251544Y0289365D01*
X0251581Y0289067D02*
X0244997Y0289067D01*
X0245076Y0288768D02*
X0251582Y0288768D01*
X0251582Y0288470D02*
X0245154Y0288470D01*
X0245309Y0288171D02*
X0251582Y0288171D01*
X0251582Y0287873D02*
X0245475Y0287873D01*
X0245674Y0287574D02*
X0251582Y0287574D01*
X0251582Y0287276D02*
X0245926Y0287276D01*
X0246236Y0286977D02*
X0251582Y0286977D01*
X0251582Y0286679D02*
X0246629Y0286679D01*
X0247265Y0286380D02*
X0251582Y0286380D01*
X0251582Y0286082D02*
X0249251Y0286082D01*
X0249663Y0285783D02*
X0251582Y0285783D01*
X0251582Y0285485D02*
X0249957Y0285485D01*
X0250213Y0285186D02*
X0251582Y0285186D01*
X0251582Y0284888D02*
X0250480Y0284888D01*
X0250778Y0284589D02*
X0251582Y0284589D01*
X0251582Y0284291D02*
X0251043Y0284291D01*
X0251308Y0283992D02*
X0251582Y0283992D01*
X0251582Y0283694D02*
X0251556Y0283694D01*
X0251457Y0289664D02*
X0250182Y0289664D01*
X0250179Y0289962D02*
X0251277Y0289962D01*
X0250953Y0290261D02*
X0249872Y0290261D01*
X0246149Y0291753D02*
X0245742Y0291753D01*
X0246147Y0292052D02*
X0246149Y0292052D01*
X0247684Y0151628D02*
X0248078Y0151628D01*
X0248511Y0151549D01*
X0248944Y0151313D01*
X0249298Y0151037D01*
X0249495Y0150722D01*
X0249613Y0150368D01*
X0249613Y0150053D01*
X0249535Y0149699D01*
X0249338Y0149344D01*
X0249062Y0149030D01*
X0248747Y0148675D01*
X0248472Y0148400D01*
X0248354Y0148085D01*
X0248354Y0147809D01*
X0248432Y0147573D01*
X0248590Y0147376D01*
X0248826Y0147219D01*
X0249141Y0147140D01*
X0249456Y0147140D01*
X0249653Y0147179D01*
X0249850Y0147258D01*
X0250086Y0147494D01*
X0250165Y0147612D01*
X0250204Y0147730D01*
X0250204Y0147888D01*
X0250165Y0148006D01*
X0249928Y0148242D01*
X0249810Y0148281D01*
X0249653Y0148360D01*
X0249613Y0148400D01*
X0249771Y0148478D01*
X0250243Y0148478D01*
X0250480Y0148439D01*
X0250676Y0148400D01*
X0250873Y0148321D01*
X0251031Y0148203D01*
X0251228Y0148045D01*
X0251464Y0147652D01*
X0251543Y0147376D01*
X0251582Y0147061D01*
X0251582Y0141667D01*
X0251385Y0141864D01*
X0251267Y0142061D01*
X0251070Y0142258D01*
X0250873Y0142494D01*
X0250401Y0142967D01*
X0249928Y0143518D01*
X0249535Y0143911D01*
X0249141Y0144148D01*
X0248905Y0144187D01*
X0248157Y0144187D01*
X0247684Y0144266D01*
X0247251Y0144384D01*
X0246858Y0144541D01*
X0246464Y0144778D01*
X0246149Y0145053D01*
X0245834Y0145368D01*
X0245558Y0145722D01*
X0245165Y0146431D01*
X0244968Y0147179D01*
X0244928Y0147848D01*
X0245047Y0148478D01*
X0245243Y0149069D01*
X0245519Y0149502D01*
X0245834Y0149856D01*
X0246149Y0150053D01*
X0246149Y0149699D01*
X0246188Y0149581D01*
X0246228Y0149502D01*
X0246346Y0149384D01*
X0246464Y0149344D01*
X0246582Y0149344D01*
X0246897Y0149423D01*
X0247054Y0149502D01*
X0247173Y0149581D01*
X0247330Y0149699D01*
X0247566Y0149935D01*
X0247724Y0150171D01*
X0247763Y0150329D01*
X0247763Y0150565D01*
X0247724Y0150683D01*
X0247684Y0150762D01*
X0247606Y0150880D01*
X0247448Y0150998D01*
X0247291Y0151077D01*
X0247094Y0151116D01*
X0246936Y0151156D01*
X0246700Y0151156D01*
X0246621Y0151116D01*
X0246582Y0151116D01*
X0246621Y0151156D01*
X0246779Y0151274D01*
X0247330Y0151549D01*
X0247684Y0151628D01*
X0247138Y0151453D02*
X0248687Y0151453D01*
X0249148Y0151155D02*
X0246940Y0151155D01*
X0246698Y0151155D02*
X0246620Y0151155D01*
X0247622Y0150856D02*
X0249412Y0150856D01*
X0249550Y0150558D02*
X0247763Y0150558D01*
X0247746Y0150259D02*
X0249613Y0150259D01*
X0249593Y0149960D02*
X0247583Y0149960D01*
X0247281Y0149662D02*
X0249514Y0149662D01*
X0249348Y0149363D02*
X0246658Y0149363D01*
X0246407Y0149363D02*
X0245431Y0149363D01*
X0245242Y0149065D02*
X0249093Y0149065D01*
X0248828Y0148766D02*
X0245143Y0148766D01*
X0245045Y0148468D02*
X0248540Y0148468D01*
X0248385Y0148169D02*
X0244989Y0148169D01*
X0244933Y0147871D02*
X0248354Y0147871D01*
X0248433Y0147572D02*
X0244945Y0147572D01*
X0244962Y0147274D02*
X0248743Y0147274D01*
X0249866Y0147274D02*
X0251555Y0147274D01*
X0251582Y0146975D02*
X0245021Y0146975D01*
X0245100Y0146677D02*
X0251582Y0146677D01*
X0251582Y0146378D02*
X0245194Y0146378D01*
X0245360Y0146080D02*
X0251582Y0146080D01*
X0251582Y0145781D02*
X0245526Y0145781D01*
X0245745Y0145483D02*
X0251582Y0145483D01*
X0251582Y0145184D02*
X0246018Y0145184D01*
X0246340Y0144886D02*
X0251582Y0144886D01*
X0251582Y0144587D02*
X0246781Y0144587D01*
X0247600Y0144289D02*
X0251582Y0144289D01*
X0251582Y0143990D02*
X0249403Y0143990D01*
X0249754Y0143692D02*
X0251582Y0143692D01*
X0251582Y0143393D02*
X0250035Y0143393D01*
X0250291Y0143095D02*
X0251582Y0143095D01*
X0251582Y0142796D02*
X0250571Y0142796D01*
X0250870Y0142498D02*
X0251582Y0142498D01*
X0251582Y0142199D02*
X0251129Y0142199D01*
X0251363Y0141901D02*
X0251582Y0141901D01*
X0251486Y0147572D02*
X0250138Y0147572D01*
X0250204Y0147871D02*
X0251332Y0147871D01*
X0251072Y0148169D02*
X0250001Y0148169D01*
X0249750Y0148468D02*
X0250306Y0148468D01*
X0246161Y0149662D02*
X0245661Y0149662D01*
X0246001Y0149960D02*
X0246149Y0149960D01*
D12*
X0248342Y0136750D03*
X0248342Y0126750D03*
X0273342Y0076750D03*
X0288342Y0076750D03*
X0288342Y0218750D03*
X0273342Y0218750D03*
X0248342Y0268750D03*
X0248342Y0278750D03*
X0273342Y0360750D03*
X0288342Y0360750D03*
X0248342Y0410750D03*
X0248342Y0420750D03*
X0273342Y0502750D03*
X0288342Y0502750D03*
X0248342Y0552750D03*
X0248342Y0562750D03*
X0193342Y0552750D03*
X0183342Y0552750D03*
X0168342Y0522750D03*
X0158342Y0522750D03*
X0098342Y0562750D03*
X0098342Y0572750D03*
X0083342Y0472750D03*
X0083342Y0462750D03*
X0098342Y0430750D03*
X0098342Y0420750D03*
X0083342Y0330750D03*
X0083342Y0320750D03*
X0098342Y0288750D03*
X0098342Y0278750D03*
X0083342Y0188750D03*
X0083342Y0178750D03*
X0098342Y0146750D03*
X0098342Y0136750D03*
X0083342Y0046750D03*
X0083342Y0036750D03*
X0158342Y0096750D03*
X0168342Y0096750D03*
X0183342Y0126750D03*
X0193342Y0126750D03*
X0168342Y0238750D03*
X0158342Y0238750D03*
X0183342Y0268750D03*
X0193342Y0268750D03*
X0168342Y0380750D03*
X0158342Y0380750D03*
X0183342Y0410750D03*
X0193342Y0410750D03*
M02*
