%
M48
M72
T01C0.0120
T02C0.0400
T03C0.1300
%
T01
X8675Y3375
X8675Y3925
X8675Y4375
X8475Y4875
X9175Y4625
X9275Y4925
X10075Y4925
X10125Y4625
X10675Y4375
X10675Y3925
X10675Y3375
X10175Y3225
X9175Y3225
X14475Y3375
X14475Y4375
X14475Y5375
X14975Y5775
X15475Y5375
X15775Y6225
X15775Y7175
X14975Y7675
X14275Y7225
X14275Y6175
X15475Y4375
X15475Y3375
X15475Y8375
X15975Y8375
X16475Y8875
X16975Y8375
X17475Y8875
X17975Y8375
X18975Y8375
X19475Y8875
X19975Y8375
X20475Y8875
X20975Y8375
X21475Y7875
X21975Y8375
X21475Y8875
X21975Y7375
X21475Y6875
X21975Y6375
X21475Y5875
X21975Y5375
X21475Y4875
X21975Y4375
X21475Y3875
X21975Y3375
X23325Y3375
X23325Y3875
X23325Y4375
X23325Y4875
X23325Y5375
X23325Y5825
X23975Y5975
X23975Y6475
X23475Y6475
X24475Y6475
X24475Y5975
X24975Y5975
X24975Y6475
X25475Y6475
X25475Y5975
X25975Y5975
X25975Y6475
X26148Y5375
X26148Y5025
X25575Y4875
X25575Y4375
X25575Y3975
X25575Y3125
X26298Y3125
X26798Y3125
X27298Y3225
X27698Y3225
X27698Y3725
X27248Y3725
X27698Y4375
X27698Y4825
X27248Y5025
X27248Y5375
X27698Y5375
X26698Y5425
X25575Y5375
X25675Y12325
X26225Y12325
X26775Y12325
X27275Y12325
X27525Y12725
X27525Y13075
X25675Y13325
X25675Y13875
X24975Y13875
X24475Y13875
X24225Y13325
X24225Y12425
X21575Y14375
X21575Y14875
X21075Y14875
X21075Y14375
X20475Y14375
X20475Y14875
X19975Y14875
X19975Y14375
X19475Y14375
X19475Y14875
X18975Y14875
X18975Y14375
X18475Y14375
X18475Y14875
X17925Y14775
X17975Y14375
X17475Y14375
X16975Y14375
X17025Y14775
X16725Y14775
X16475Y14975
X16475Y15475
X16475Y15975
X16725Y16225
X17025Y16225
X16875Y16575
X17475Y16575
X17975Y16575
X18475Y16575
X18925Y16575
X18925Y15775
X18925Y15375
X18475Y15375
X18475Y15775
X21075Y15875
X21075Y15375
X21575Y15375
X21575Y15875
X21575Y16375
X21075Y16375
X21975Y17575
X21475Y18075
X21975Y18575
X21475Y19075
X21975Y19575
X21475Y20075
X21975Y20575
X21475Y21075
X21975Y21575
X21475Y22075
X20975Y22575
X20475Y23075
X19975Y22575
X19475Y23075
X18975Y22575
X17975Y22575
X17475Y23075
X16975Y22575
X16475Y23075
X15975Y22575
X15475Y22575
X14975Y23075
X14475Y22575
X14975Y21875
X15775Y21375
X15775Y20425
X14975Y19975
X15475Y19575
X15475Y18575
X15475Y17575
X14475Y17575
X14475Y18575
X14475Y19575
X14275Y20375
X14275Y21425
X12475Y23575
X10075Y19125
X10125Y18825
X10675Y18575
X10675Y18125
X10675Y17575
X10175Y17425
X9175Y17425
X8675Y17575
X8675Y18125
X8675Y18575
X8475Y19075
X9175Y18825
X9275Y19125
X7875Y16375
X7875Y15875
X7875Y15475
X7875Y15025
X7375Y15025
X7375Y15475
X7375Y15875
X7375Y16375
X7375Y14425
X6825Y14425
X6275Y14425
X6275Y13775
X6825Y13775
X7375Y13775
X7375Y13075
X6825Y13075
X6275Y13075
X5775Y13075
X5325Y13075
X5775Y13775
X5775Y14425
X5325Y14425
X4325Y14475
X4325Y13075
X5475Y9375
X12475Y9375
X14475Y8375
X14975Y8875
X23325Y17575
X23325Y18075
X23325Y18575
X23325Y19075
X23325Y19575
X23325Y20025
X23975Y20175
X23975Y20675
X23475Y20675
X24475Y20675
X24475Y20175
X24975Y20175
X24975Y20675
X25475Y20675
X25475Y20175
X25975Y20175
X25975Y20675
X26148Y19575
X26148Y19225
X25575Y19075
X25575Y18575
X25575Y18175
X25575Y17325
X26298Y17325
X26798Y17325
X27298Y17425
X27698Y17425
X27698Y17925
X27248Y17925
X27698Y18575
X27698Y19025
X27248Y19225
X27248Y19575
X27698Y19575
X26698Y19625
X25575Y19575
X25625Y16575
X25075Y16575
X26225Y16575
X26975Y16575
X27575Y16575
X21975Y22575
X21475Y23075
X24225Y26625
X24225Y27525
X24475Y28075
X24975Y28075
X25675Y28075
X25675Y27525
X25675Y26525
X26225Y26525
X26775Y26525
X27275Y26525
X27525Y26925
X27525Y27275
X27575Y30775
X26975Y30775
X26225Y30775
X25625Y30775
X25075Y30775
X21575Y30575
X21575Y30075
X21575Y29575
X21075Y29575
X21075Y30075
X21075Y30575
X21075Y29075
X21075Y28575
X21575Y28575
X21575Y29075
X20475Y29075
X20475Y28575
X19975Y28575
X19975Y29075
X19475Y29075
X19475Y28575
X18975Y28575
X18975Y29075
X18475Y29075
X18475Y28575
X17975Y28575
X17925Y28975
X17475Y28575
X16975Y28575
X17025Y28975
X16725Y28975
X16475Y29175
X16475Y29675
X16475Y30175
X16725Y30425
X17025Y30425
X16875Y30775
X17475Y30775
X17975Y30775
X18475Y30775
X18925Y30775
X18925Y29975
X18925Y29575
X18475Y29575
X18475Y29975
X7875Y30075
X7875Y29675
X7875Y29225
X7375Y29225
X7375Y29675
X7375Y30075
X7375Y30575
X7875Y30575
X7375Y28625
X6825Y28625
X6275Y28625
X6275Y27975
X6825Y27975
X7375Y27975
X7375Y27275
X6825Y27275
X6275Y27275
X5775Y27275
X5325Y27275
X5775Y27975
X5775Y28625
X5325Y28625
X4325Y28675
X4325Y27275
X5475Y23575
T02
X8475Y27575
X8475Y28575
X14475Y23575
X15475Y23575
X16975Y26575
X17975Y26575
X23475Y26575
X23475Y27575
X25975Y21575
X27475Y21575
X23475Y13375
X23475Y12375
X17975Y12375
X16975Y12375
X15475Y9375
X14475Y9375
X8475Y13375
X8475Y14375
X6975Y17575
X6975Y18575
X6975Y4375
X6975Y3375
X25975Y7375
X27475Y7375
T03
X4975Y3875
X4975Y10875
X4975Y18075
X4975Y25075
X12975Y25075
X12975Y27075
X14975Y27075
X14975Y25075
X14975Y30075
X12975Y30075
X21975Y25075
X23975Y25075
X26975Y25075
X23975Y30075
X12975Y18075
X12975Y15875
X14975Y15875
X14975Y12875
X14975Y10875
X12975Y10875
X12975Y12875
X21975Y10875
X23975Y10875
X26975Y10875
X23975Y15875
X12975Y3875
M30
