G75*
%MOIN*%
%OFA0B0*%
%FSLAX25Y25*%
%IPPOS*%
%LPD*%
%AMOC8*
5,1,8,0,0,1.08239X$1,22.5*
%
%ADD10C,0.13800*%
%ADD11C,0.04737*%
%ADD12R,0.04146X0.09461*%
%ADD13R,0.04737X0.04934*%
%ADD14R,0.10249X0.10249*%
%ADD15R,0.10643X0.10643*%
%ADD16R,0.06312X0.07650*%
%ADD17R,0.13398X0.07099*%
%ADD18R,0.05918X0.05997*%
%ADD19R,0.07139X0.05918*%
%ADD20R,0.09461X0.04146*%
%ADD21R,0.04934X0.04737*%
%ADD22R,0.05131X0.02769*%
%ADD23R,0.03556X0.04343*%
%ADD24R,0.06863X0.06863*%
%ADD25R,0.07139X0.05721*%
%ADD26R,0.03950X0.07099*%
%ADD27R,0.03950X0.03359*%
%ADD28C,0.00300*%
%ADD29C,0.05000*%
%ADD30C,0.06706*%
%ADD31C,0.07300*%
D10*
X0049750Y0038750D03*
X0049750Y0108750D03*
X0049750Y0180750D03*
X0049750Y0250750D03*
X0129750Y0250750D03*
X0129750Y0270750D03*
X0149750Y0270750D03*
X0149750Y0250750D03*
X0149750Y0300750D03*
X0129750Y0300750D03*
X0219750Y0250750D03*
X0239750Y0250750D03*
X0269750Y0250750D03*
X0239750Y0300750D03*
X0129750Y0180750D03*
X0129750Y0158750D03*
X0149750Y0158750D03*
X0149750Y0128750D03*
X0149750Y0108750D03*
X0129750Y0108750D03*
X0129750Y0128750D03*
X0219750Y0108750D03*
X0239750Y0108750D03*
X0269750Y0108750D03*
X0239750Y0158750D03*
X0129750Y0038750D03*
D11*
X0042750Y0031750D03*
X0042750Y0173750D03*
X0066750Y0319000D03*
X0232750Y0307250D03*
X0252750Y0319000D03*
X0232750Y0165250D03*
D12*
X0261565Y0185750D03*
X0272392Y0185750D03*
X0180163Y0154750D03*
X0169337Y0154750D03*
X0102163Y0181250D03*
X0091337Y0181250D03*
X0053663Y0137750D03*
X0042837Y0137750D03*
X0091337Y0039250D03*
X0102163Y0039250D03*
X0261565Y0043750D03*
X0272392Y0043750D03*
X0053663Y0279750D03*
X0042837Y0279750D03*
X0169337Y0296750D03*
X0180163Y0296750D03*
D13*
X0174750Y0302754D03*
X0174750Y0290746D03*
X0266978Y0191754D03*
X0266978Y0179746D03*
X0174750Y0160754D03*
X0174750Y0148746D03*
X0096750Y0175246D03*
X0096750Y0187254D03*
X0048250Y0143754D03*
X0048250Y0131746D03*
X0096750Y0045254D03*
X0096750Y0033246D03*
X0266978Y0037746D03*
X0266978Y0049754D03*
X0048250Y0273746D03*
X0048250Y0285754D03*
D14*
X0085026Y0198073D03*
X0085026Y0056073D03*
D15*
G36*
X0071651Y0100343D02*
X0066330Y0091128D01*
X0057115Y0096449D01*
X0062436Y0105664D01*
X0071651Y0100343D01*
G37*
G36*
X0113170Y0091128D02*
X0107849Y0100343D01*
X0117064Y0105664D01*
X0122385Y0096449D01*
X0113170Y0091128D01*
G37*
G36*
X0113170Y0233128D02*
X0107849Y0242343D01*
X0117064Y0247664D01*
X0122385Y0238449D01*
X0113170Y0233128D01*
G37*
G36*
X0071651Y0242343D02*
X0066330Y0233128D01*
X0057115Y0238449D01*
X0062436Y0247664D01*
X0071651Y0242343D01*
G37*
D16*
X0096640Y0197089D03*
X0096640Y0055089D03*
D17*
X0169376Y0033829D03*
X0200124Y0033829D03*
X0200124Y0073671D03*
X0200124Y0175829D03*
X0169376Y0175829D03*
X0200124Y0215671D03*
D18*
X0170793Y0216222D03*
X0170793Y0074222D03*
D19*
X0163766Y0067136D03*
X0163766Y0209136D03*
D20*
X0149750Y0203837D03*
X0149750Y0214663D03*
X0249750Y0265337D03*
X0249750Y0276163D03*
X0249750Y0134163D03*
X0249750Y0123337D03*
X0149750Y0072663D03*
X0149750Y0061837D03*
D21*
X0143746Y0067250D03*
X0155754Y0067250D03*
X0243746Y0128750D03*
X0255754Y0128750D03*
X0155754Y0209250D03*
X0143746Y0209250D03*
X0243746Y0270750D03*
X0255754Y0270750D03*
D22*
X0250459Y0177415D03*
X0250459Y0173085D03*
X0239041Y0173085D03*
X0239041Y0177415D03*
X0239041Y0035415D03*
X0239041Y0031085D03*
X0250459Y0031085D03*
X0250459Y0035415D03*
D23*
X0257691Y0035250D03*
X0262809Y0035250D03*
X0262809Y0177250D03*
X0257691Y0177250D03*
D24*
X0063427Y0162569D03*
X0063427Y0154931D03*
X0048073Y0154931D03*
X0048073Y0162569D03*
X0048073Y0296931D03*
X0048073Y0304569D03*
X0063427Y0304569D03*
X0063427Y0296931D03*
D25*
X0269750Y0302061D03*
X0269750Y0278439D03*
X0269750Y0160061D03*
X0269750Y0136439D03*
D26*
X0206049Y0163750D03*
X0206049Y0305750D03*
D27*
X0193451Y0303880D03*
X0193451Y0307620D03*
X0193451Y0165620D03*
X0193451Y0161880D03*
D28*
X0152848Y0146069D02*
X0153045Y0145478D01*
X0153163Y0144848D01*
X0153124Y0144179D01*
X0152927Y0143431D01*
X0152533Y0142722D01*
X0152258Y0142368D01*
X0151943Y0142053D01*
X0151628Y0141778D01*
X0151234Y0141541D01*
X0150841Y0141384D01*
X0150407Y0141266D01*
X0149935Y0141187D01*
X0149187Y0141187D01*
X0148951Y0141148D01*
X0148557Y0140911D01*
X0148163Y0140518D01*
X0147691Y0139967D01*
X0147219Y0139494D01*
X0147022Y0139258D01*
X0146825Y0139061D01*
X0146707Y0138864D01*
X0146510Y0138667D01*
X0146510Y0144061D01*
X0146549Y0144376D01*
X0146628Y0144652D01*
X0146864Y0145045D01*
X0147061Y0145203D01*
X0147219Y0145321D01*
X0147415Y0145400D01*
X0147612Y0145439D01*
X0147848Y0145478D01*
X0148321Y0145478D01*
X0148478Y0145400D01*
X0148439Y0145360D01*
X0148281Y0145281D01*
X0148163Y0145242D01*
X0147927Y0145006D01*
X0147888Y0144888D01*
X0147888Y0144730D01*
X0147927Y0144612D01*
X0148006Y0144494D01*
X0148242Y0144258D01*
X0148439Y0144179D01*
X0148636Y0144140D01*
X0148951Y0144140D01*
X0149266Y0144219D01*
X0149502Y0144376D01*
X0149659Y0144573D01*
X0149738Y0144809D01*
X0149738Y0145085D01*
X0149620Y0145400D01*
X0149344Y0145675D01*
X0149030Y0146030D01*
X0148754Y0146344D01*
X0148557Y0146699D01*
X0148478Y0147053D01*
X0148478Y0147368D01*
X0148596Y0147722D01*
X0148793Y0148037D01*
X0149148Y0148313D01*
X0149581Y0148549D01*
X0150014Y0148628D01*
X0150407Y0148628D01*
X0150762Y0148549D01*
X0151313Y0148274D01*
X0151470Y0148156D01*
X0151510Y0148116D01*
X0151470Y0148116D01*
X0151392Y0148156D01*
X0151156Y0148156D01*
X0150998Y0148116D01*
X0150801Y0148077D01*
X0150644Y0147998D01*
X0150486Y0147880D01*
X0150407Y0147762D01*
X0150368Y0147683D01*
X0150329Y0147565D01*
X0150329Y0147329D01*
X0150368Y0147171D01*
X0150526Y0146935D01*
X0150762Y0146699D01*
X0150919Y0146581D01*
X0151037Y0146502D01*
X0151195Y0146423D01*
X0151510Y0146344D01*
X0151628Y0146344D01*
X0151746Y0146384D01*
X0151864Y0146502D01*
X0151904Y0146581D01*
X0151943Y0146699D01*
X0151943Y0147053D01*
X0152258Y0146856D01*
X0152573Y0146502D01*
X0152848Y0146069D01*
X0152850Y0146065D02*
X0148999Y0146065D01*
X0148743Y0146363D02*
X0151434Y0146363D01*
X0151685Y0146363D02*
X0152661Y0146363D01*
X0152431Y0146662D02*
X0151931Y0146662D01*
X0151943Y0146960D02*
X0152091Y0146960D01*
X0150811Y0146662D02*
X0148578Y0146662D01*
X0148499Y0146960D02*
X0150509Y0146960D01*
X0150346Y0147259D02*
X0148478Y0147259D01*
X0148541Y0147558D02*
X0150329Y0147558D01*
X0150470Y0147856D02*
X0148680Y0147856D01*
X0148944Y0148155D02*
X0151152Y0148155D01*
X0151394Y0148155D02*
X0151471Y0148155D01*
X0150954Y0148453D02*
X0149404Y0148453D01*
X0149263Y0145766D02*
X0152949Y0145766D01*
X0153047Y0145468D02*
X0149552Y0145468D01*
X0149706Y0145169D02*
X0153103Y0145169D01*
X0153159Y0144871D02*
X0149738Y0144871D01*
X0149659Y0144572D02*
X0153147Y0144572D01*
X0153130Y0144274D02*
X0149349Y0144274D01*
X0148226Y0144274D02*
X0146536Y0144274D01*
X0146510Y0143975D02*
X0153070Y0143975D01*
X0152992Y0143677D02*
X0146510Y0143677D01*
X0146510Y0143378D02*
X0152898Y0143378D01*
X0152732Y0143080D02*
X0146510Y0143080D01*
X0146510Y0142781D02*
X0152566Y0142781D01*
X0152347Y0142483D02*
X0146510Y0142483D01*
X0146510Y0142184D02*
X0152074Y0142184D01*
X0151752Y0141886D02*
X0146510Y0141886D01*
X0146510Y0141587D02*
X0151311Y0141587D01*
X0150492Y0141289D02*
X0146510Y0141289D01*
X0146510Y0140990D02*
X0148688Y0140990D01*
X0148337Y0140692D02*
X0146510Y0140692D01*
X0146510Y0140393D02*
X0148057Y0140393D01*
X0147801Y0140095D02*
X0146510Y0140095D01*
X0146510Y0139796D02*
X0147521Y0139796D01*
X0147222Y0139498D02*
X0146510Y0139498D01*
X0146510Y0139199D02*
X0146963Y0139199D01*
X0146729Y0138901D02*
X0146510Y0138901D01*
X0146605Y0144572D02*
X0147954Y0144572D01*
X0147888Y0144871D02*
X0146760Y0144871D01*
X0147019Y0145169D02*
X0148091Y0145169D01*
X0148342Y0145468D02*
X0147786Y0145468D01*
X0133163Y0144848D02*
X0133045Y0145478D01*
X0132848Y0146069D01*
X0132573Y0146502D01*
X0132258Y0146856D01*
X0131943Y0147053D01*
X0131943Y0146699D01*
X0131904Y0146581D01*
X0131864Y0146502D01*
X0131746Y0146384D01*
X0131628Y0146344D01*
X0131510Y0146344D01*
X0131195Y0146423D01*
X0131037Y0146502D01*
X0130919Y0146581D01*
X0130762Y0146699D01*
X0130526Y0146935D01*
X0130368Y0147171D01*
X0130329Y0147329D01*
X0130329Y0147565D01*
X0130368Y0147683D01*
X0130407Y0147762D01*
X0130486Y0147880D01*
X0130644Y0147998D01*
X0130801Y0148077D01*
X0130998Y0148116D01*
X0131156Y0148156D01*
X0131392Y0148156D01*
X0131470Y0148116D01*
X0131510Y0148116D01*
X0131470Y0148156D01*
X0131313Y0148274D01*
X0130762Y0148549D01*
X0130407Y0148628D01*
X0130014Y0148628D01*
X0129581Y0148549D01*
X0129148Y0148313D01*
X0128793Y0148037D01*
X0128596Y0147722D01*
X0128478Y0147368D01*
X0128478Y0147053D01*
X0128557Y0146699D01*
X0128754Y0146344D01*
X0129030Y0146030D01*
X0129344Y0145675D01*
X0129620Y0145400D01*
X0129738Y0145085D01*
X0129738Y0144809D01*
X0129659Y0144573D01*
X0129502Y0144376D01*
X0129266Y0144219D01*
X0128951Y0144140D01*
X0128636Y0144140D01*
X0128439Y0144179D01*
X0128242Y0144258D01*
X0128006Y0144494D01*
X0127927Y0144612D01*
X0127888Y0144730D01*
X0127888Y0144888D01*
X0127927Y0145006D01*
X0128163Y0145242D01*
X0128281Y0145281D01*
X0128439Y0145360D01*
X0128478Y0145400D01*
X0128321Y0145478D01*
X0127848Y0145478D01*
X0127612Y0145439D01*
X0127415Y0145400D01*
X0127219Y0145321D01*
X0127061Y0145203D01*
X0126864Y0145045D01*
X0126628Y0144652D01*
X0126549Y0144376D01*
X0126510Y0144061D01*
X0126510Y0138667D01*
X0126707Y0138864D01*
X0126825Y0139061D01*
X0127022Y0139258D01*
X0127219Y0139494D01*
X0127691Y0139967D01*
X0128163Y0140518D01*
X0128557Y0140911D01*
X0128951Y0141148D01*
X0129187Y0141187D01*
X0129935Y0141187D01*
X0130407Y0141266D01*
X0130841Y0141384D01*
X0131234Y0141541D01*
X0131628Y0141778D01*
X0131943Y0142053D01*
X0132258Y0142368D01*
X0132533Y0142722D01*
X0132927Y0143431D01*
X0133124Y0144179D01*
X0133163Y0144848D01*
X0133159Y0144871D02*
X0129738Y0144871D01*
X0129706Y0145169D02*
X0133103Y0145169D01*
X0133047Y0145468D02*
X0129552Y0145468D01*
X0129263Y0145766D02*
X0132949Y0145766D01*
X0132850Y0146065D02*
X0128999Y0146065D01*
X0128743Y0146363D02*
X0131434Y0146363D01*
X0131685Y0146363D02*
X0132661Y0146363D01*
X0132431Y0146662D02*
X0131931Y0146662D01*
X0131943Y0146960D02*
X0132091Y0146960D01*
X0130811Y0146662D02*
X0128578Y0146662D01*
X0128499Y0146960D02*
X0130509Y0146960D01*
X0130346Y0147259D02*
X0128478Y0147259D01*
X0128541Y0147558D02*
X0130329Y0147558D01*
X0130470Y0147856D02*
X0128680Y0147856D01*
X0128944Y0148155D02*
X0131152Y0148155D01*
X0131394Y0148155D02*
X0131471Y0148155D01*
X0130954Y0148453D02*
X0129404Y0148453D01*
X0128342Y0145468D02*
X0127786Y0145468D01*
X0128091Y0145169D02*
X0127019Y0145169D01*
X0126760Y0144871D02*
X0127888Y0144871D01*
X0127954Y0144572D02*
X0126605Y0144572D01*
X0126536Y0144274D02*
X0128226Y0144274D01*
X0129349Y0144274D02*
X0133130Y0144274D01*
X0133147Y0144572D02*
X0129659Y0144572D01*
X0126510Y0143975D02*
X0133070Y0143975D01*
X0132992Y0143677D02*
X0126510Y0143677D01*
X0126510Y0143378D02*
X0132898Y0143378D01*
X0132732Y0143080D02*
X0126510Y0143080D01*
X0126510Y0142781D02*
X0132566Y0142781D01*
X0132347Y0142483D02*
X0126510Y0142483D01*
X0126510Y0142184D02*
X0132074Y0142184D01*
X0131752Y0141886D02*
X0126510Y0141886D01*
X0126510Y0141587D02*
X0131311Y0141587D01*
X0130492Y0141289D02*
X0126510Y0141289D01*
X0126510Y0140990D02*
X0128688Y0140990D01*
X0128337Y0140692D02*
X0126510Y0140692D01*
X0126510Y0140393D02*
X0128057Y0140393D01*
X0127801Y0140095D02*
X0126510Y0140095D01*
X0126510Y0139796D02*
X0127521Y0139796D01*
X0127222Y0139498D02*
X0126510Y0139498D01*
X0126510Y0139199D02*
X0126963Y0139199D01*
X0126729Y0138901D02*
X0126510Y0138901D01*
X0111510Y0180667D02*
X0111707Y0180864D01*
X0111825Y0181061D01*
X0112022Y0181258D01*
X0112219Y0181494D01*
X0112691Y0181967D01*
X0113163Y0182518D01*
X0113557Y0182911D01*
X0113951Y0183148D01*
X0114187Y0183187D01*
X0114935Y0183187D01*
X0115407Y0183266D01*
X0115841Y0183384D01*
X0116234Y0183541D01*
X0116628Y0183778D01*
X0116943Y0184053D01*
X0117258Y0184368D01*
X0117533Y0184722D01*
X0117927Y0185431D01*
X0118124Y0186179D01*
X0118163Y0186848D01*
X0118045Y0187478D01*
X0117848Y0188069D01*
X0117573Y0188502D01*
X0117258Y0188856D01*
X0116943Y0189053D01*
X0116943Y0188699D01*
X0116904Y0188581D01*
X0116864Y0188502D01*
X0116746Y0188384D01*
X0116628Y0188344D01*
X0116510Y0188344D01*
X0116195Y0188423D01*
X0116037Y0188502D01*
X0115919Y0188581D01*
X0115762Y0188699D01*
X0115526Y0188935D01*
X0115368Y0189171D01*
X0115329Y0189329D01*
X0115329Y0189565D01*
X0115368Y0189683D01*
X0115407Y0189762D01*
X0115486Y0189880D01*
X0115644Y0189998D01*
X0115801Y0190077D01*
X0115998Y0190116D01*
X0116156Y0190156D01*
X0116392Y0190156D01*
X0116470Y0190116D01*
X0116510Y0190116D01*
X0116470Y0190156D01*
X0116313Y0190274D01*
X0115762Y0190549D01*
X0115407Y0190628D01*
X0115014Y0190628D01*
X0114581Y0190549D01*
X0114148Y0190313D01*
X0113793Y0190037D01*
X0113596Y0189722D01*
X0113478Y0189368D01*
X0113478Y0189053D01*
X0113557Y0188699D01*
X0113754Y0188344D01*
X0114030Y0188030D01*
X0114344Y0187675D01*
X0114620Y0187400D01*
X0114738Y0187085D01*
X0114738Y0186809D01*
X0114659Y0186573D01*
X0114502Y0186376D01*
X0114266Y0186219D01*
X0113951Y0186140D01*
X0113636Y0186140D01*
X0113439Y0186179D01*
X0113242Y0186258D01*
X0113006Y0186494D01*
X0112927Y0186612D01*
X0112888Y0186730D01*
X0112888Y0186888D01*
X0112927Y0187006D01*
X0113163Y0187242D01*
X0113281Y0187281D01*
X0113439Y0187360D01*
X0113478Y0187400D01*
X0113321Y0187478D01*
X0112848Y0187478D01*
X0112612Y0187439D01*
X0112415Y0187400D01*
X0112219Y0187321D01*
X0112061Y0187203D01*
X0111864Y0187045D01*
X0111628Y0186652D01*
X0111549Y0186376D01*
X0111510Y0186061D01*
X0111510Y0180667D01*
X0111510Y0180692D02*
X0111535Y0180692D01*
X0111510Y0180991D02*
X0111783Y0180991D01*
X0112048Y0181289D02*
X0111510Y0181289D01*
X0111510Y0181588D02*
X0112312Y0181588D01*
X0112611Y0181886D02*
X0111510Y0181886D01*
X0111510Y0182185D02*
X0112878Y0182185D01*
X0113134Y0182483D02*
X0111510Y0182483D01*
X0111510Y0182782D02*
X0113428Y0182782D01*
X0113839Y0183080D02*
X0111510Y0183080D01*
X0111510Y0183379D02*
X0115822Y0183379D01*
X0116461Y0183677D02*
X0111510Y0183677D01*
X0111510Y0183976D02*
X0116855Y0183976D01*
X0117164Y0184274D02*
X0111510Y0184274D01*
X0111510Y0184573D02*
X0117417Y0184573D01*
X0117616Y0184871D02*
X0111510Y0184871D01*
X0111510Y0185170D02*
X0117782Y0185170D01*
X0117937Y0185468D02*
X0111510Y0185468D01*
X0111510Y0185767D02*
X0118016Y0185767D01*
X0118094Y0186065D02*
X0111510Y0186065D01*
X0111548Y0186364D02*
X0113136Y0186364D01*
X0112910Y0186662D02*
X0111635Y0186662D01*
X0111814Y0186961D02*
X0112912Y0186961D01*
X0113216Y0187260D02*
X0112137Y0187260D01*
X0113693Y0188454D02*
X0116134Y0188454D01*
X0115709Y0188752D02*
X0113545Y0188752D01*
X0113479Y0189051D02*
X0115449Y0189051D01*
X0115329Y0189349D02*
X0113478Y0189349D01*
X0113572Y0189648D02*
X0115356Y0189648D01*
X0115574Y0189946D02*
X0113736Y0189946D01*
X0114060Y0190245D02*
X0116352Y0190245D01*
X0115774Y0190543D02*
X0114570Y0190543D01*
X0113920Y0188155D02*
X0117794Y0188155D01*
X0117919Y0187857D02*
X0114183Y0187857D01*
X0114462Y0187558D02*
X0118019Y0187558D01*
X0118086Y0187260D02*
X0114673Y0187260D01*
X0114738Y0186961D02*
X0118142Y0186961D01*
X0118152Y0186662D02*
X0114689Y0186662D01*
X0114484Y0186364D02*
X0118135Y0186364D01*
X0117604Y0188454D02*
X0116816Y0188454D01*
X0116943Y0188752D02*
X0117351Y0188752D01*
X0116947Y0189051D02*
X0116943Y0189051D01*
X0126510Y0280667D02*
X0126707Y0280864D01*
X0126825Y0281061D01*
X0127022Y0281258D01*
X0127219Y0281494D01*
X0127691Y0281967D01*
X0128163Y0282518D01*
X0128557Y0282911D01*
X0128951Y0283148D01*
X0129187Y0283187D01*
X0129935Y0283187D01*
X0130407Y0283266D01*
X0130841Y0283384D01*
X0131234Y0283541D01*
X0131628Y0283778D01*
X0131943Y0284053D01*
X0132258Y0284368D01*
X0132533Y0284722D01*
X0132927Y0285431D01*
X0133124Y0286179D01*
X0133163Y0286848D01*
X0133045Y0287478D01*
X0132848Y0288069D01*
X0132573Y0288502D01*
X0132258Y0288856D01*
X0131943Y0289053D01*
X0131943Y0288699D01*
X0131904Y0288581D01*
X0131864Y0288502D01*
X0131746Y0288384D01*
X0131628Y0288344D01*
X0131510Y0288344D01*
X0131195Y0288423D01*
X0131037Y0288502D01*
X0130919Y0288581D01*
X0130762Y0288699D01*
X0130526Y0288935D01*
X0130368Y0289171D01*
X0130329Y0289329D01*
X0130329Y0289565D01*
X0130368Y0289683D01*
X0130407Y0289762D01*
X0130486Y0289880D01*
X0130644Y0289998D01*
X0130801Y0290077D01*
X0130998Y0290116D01*
X0131156Y0290156D01*
X0131392Y0290156D01*
X0131470Y0290116D01*
X0131510Y0290116D01*
X0131470Y0290156D01*
X0131313Y0290274D01*
X0130762Y0290549D01*
X0130407Y0290628D01*
X0130014Y0290628D01*
X0129581Y0290549D01*
X0129148Y0290313D01*
X0128793Y0290037D01*
X0128596Y0289722D01*
X0128478Y0289368D01*
X0128478Y0289053D01*
X0128557Y0288699D01*
X0128754Y0288344D01*
X0129030Y0288030D01*
X0129344Y0287675D01*
X0129620Y0287400D01*
X0129738Y0287085D01*
X0129738Y0286809D01*
X0129659Y0286573D01*
X0129502Y0286376D01*
X0129266Y0286219D01*
X0128951Y0286140D01*
X0128636Y0286140D01*
X0128439Y0286179D01*
X0128242Y0286258D01*
X0128006Y0286494D01*
X0127927Y0286612D01*
X0127888Y0286730D01*
X0127888Y0286888D01*
X0127927Y0287006D01*
X0128163Y0287242D01*
X0128281Y0287281D01*
X0128439Y0287360D01*
X0128478Y0287400D01*
X0128321Y0287478D01*
X0127848Y0287478D01*
X0127612Y0287439D01*
X0127415Y0287400D01*
X0127219Y0287321D01*
X0127061Y0287203D01*
X0126864Y0287045D01*
X0126628Y0286652D01*
X0126549Y0286376D01*
X0126510Y0286061D01*
X0126510Y0280667D01*
X0126510Y0280694D02*
X0126536Y0280694D01*
X0126510Y0280992D02*
X0126783Y0280992D01*
X0127049Y0281291D02*
X0126510Y0281291D01*
X0126510Y0281589D02*
X0127313Y0281589D01*
X0127612Y0281888D02*
X0126510Y0281888D01*
X0126510Y0282186D02*
X0127879Y0282186D01*
X0128135Y0282485D02*
X0126510Y0282485D01*
X0126510Y0282783D02*
X0128429Y0282783D01*
X0128841Y0283082D02*
X0126510Y0283082D01*
X0126510Y0283380D02*
X0130827Y0283380D01*
X0131463Y0283679D02*
X0126510Y0283679D01*
X0126510Y0283977D02*
X0131856Y0283977D01*
X0132165Y0284276D02*
X0126510Y0284276D01*
X0126510Y0284574D02*
X0132418Y0284574D01*
X0132617Y0284873D02*
X0126510Y0284873D01*
X0126510Y0285171D02*
X0132783Y0285171D01*
X0132937Y0285470D02*
X0126510Y0285470D01*
X0126510Y0285768D02*
X0133016Y0285768D01*
X0133094Y0286067D02*
X0126511Y0286067D01*
X0126548Y0286365D02*
X0128135Y0286365D01*
X0127910Y0286664D02*
X0126635Y0286664D01*
X0126814Y0286962D02*
X0127913Y0286962D01*
X0128219Y0287261D02*
X0127138Y0287261D01*
X0128693Y0288455D02*
X0131132Y0288455D01*
X0130707Y0288753D02*
X0128545Y0288753D01*
X0128479Y0289052D02*
X0130448Y0289052D01*
X0130329Y0289350D02*
X0128478Y0289350D01*
X0128572Y0289649D02*
X0130357Y0289649D01*
X0130576Y0289947D02*
X0128737Y0289947D01*
X0129061Y0290246D02*
X0131350Y0290246D01*
X0130771Y0290544D02*
X0129572Y0290544D01*
X0128919Y0288156D02*
X0132793Y0288156D01*
X0132919Y0287858D02*
X0129182Y0287858D01*
X0129460Y0287559D02*
X0133018Y0287559D01*
X0133086Y0287261D02*
X0129672Y0287261D01*
X0129738Y0286962D02*
X0133142Y0286962D01*
X0133153Y0286664D02*
X0129690Y0286664D01*
X0129486Y0286365D02*
X0133135Y0286365D01*
X0132603Y0288455D02*
X0131817Y0288455D01*
X0131943Y0288753D02*
X0132349Y0288753D01*
X0131945Y0289052D02*
X0131943Y0289052D01*
X0146549Y0286376D02*
X0146510Y0286061D01*
X0146510Y0280667D01*
X0146707Y0280864D01*
X0146825Y0281061D01*
X0147022Y0281258D01*
X0147219Y0281494D01*
X0147691Y0281967D01*
X0148163Y0282518D01*
X0148557Y0282911D01*
X0148951Y0283148D01*
X0149187Y0283187D01*
X0149935Y0283187D01*
X0150407Y0283266D01*
X0150841Y0283384D01*
X0151234Y0283541D01*
X0151628Y0283778D01*
X0151943Y0284053D01*
X0152258Y0284368D01*
X0152533Y0284722D01*
X0152927Y0285431D01*
X0153124Y0286179D01*
X0153163Y0286848D01*
X0153045Y0287478D01*
X0152848Y0288069D01*
X0152573Y0288502D01*
X0152258Y0288856D01*
X0151943Y0289053D01*
X0151943Y0288699D01*
X0151904Y0288581D01*
X0151864Y0288502D01*
X0151746Y0288384D01*
X0151628Y0288344D01*
X0151510Y0288344D01*
X0151195Y0288423D01*
X0151037Y0288502D01*
X0150919Y0288581D01*
X0150762Y0288699D01*
X0150526Y0288935D01*
X0150368Y0289171D01*
X0150329Y0289329D01*
X0150329Y0289565D01*
X0150368Y0289683D01*
X0150407Y0289762D01*
X0150486Y0289880D01*
X0150644Y0289998D01*
X0150801Y0290077D01*
X0150998Y0290116D01*
X0151156Y0290156D01*
X0151392Y0290156D01*
X0151470Y0290116D01*
X0151510Y0290116D01*
X0151470Y0290156D01*
X0151313Y0290274D01*
X0150762Y0290549D01*
X0150407Y0290628D01*
X0150014Y0290628D01*
X0149581Y0290549D01*
X0149148Y0290313D01*
X0148793Y0290037D01*
X0148596Y0289722D01*
X0148478Y0289368D01*
X0148478Y0289053D01*
X0148557Y0288699D01*
X0148754Y0288344D01*
X0149030Y0288030D01*
X0149344Y0287675D01*
X0149620Y0287400D01*
X0149738Y0287085D01*
X0149738Y0286809D01*
X0149659Y0286573D01*
X0149502Y0286376D01*
X0149266Y0286219D01*
X0148951Y0286140D01*
X0148636Y0286140D01*
X0148439Y0286179D01*
X0148242Y0286258D01*
X0148006Y0286494D01*
X0147927Y0286612D01*
X0147888Y0286730D01*
X0147888Y0286888D01*
X0147927Y0287006D01*
X0148163Y0287242D01*
X0148281Y0287281D01*
X0148439Y0287360D01*
X0148478Y0287400D01*
X0148321Y0287478D01*
X0147848Y0287478D01*
X0147612Y0287439D01*
X0147415Y0287400D01*
X0147219Y0287321D01*
X0147061Y0287203D01*
X0146864Y0287045D01*
X0146628Y0286652D01*
X0146549Y0286376D01*
X0146548Y0286365D02*
X0148135Y0286365D01*
X0147910Y0286664D02*
X0146635Y0286664D01*
X0146814Y0286962D02*
X0147913Y0286962D01*
X0148219Y0287261D02*
X0147138Y0287261D01*
X0146511Y0286067D02*
X0153094Y0286067D01*
X0153135Y0286365D02*
X0149486Y0286365D01*
X0149690Y0286664D02*
X0153153Y0286664D01*
X0153142Y0286962D02*
X0149738Y0286962D01*
X0149672Y0287261D02*
X0153086Y0287261D01*
X0153018Y0287559D02*
X0149460Y0287559D01*
X0149182Y0287858D02*
X0152919Y0287858D01*
X0152793Y0288156D02*
X0148919Y0288156D01*
X0148693Y0288455D02*
X0151132Y0288455D01*
X0150707Y0288753D02*
X0148545Y0288753D01*
X0148479Y0289052D02*
X0150448Y0289052D01*
X0150329Y0289350D02*
X0148478Y0289350D01*
X0148572Y0289649D02*
X0150357Y0289649D01*
X0150576Y0289947D02*
X0148737Y0289947D01*
X0149061Y0290246D02*
X0151350Y0290246D01*
X0150771Y0290544D02*
X0149572Y0290544D01*
X0151943Y0289052D02*
X0151945Y0289052D01*
X0151943Y0288753D02*
X0152349Y0288753D01*
X0152603Y0288455D02*
X0151817Y0288455D01*
X0153016Y0285768D02*
X0146510Y0285768D01*
X0146510Y0285470D02*
X0152937Y0285470D01*
X0152783Y0285171D02*
X0146510Y0285171D01*
X0146510Y0284873D02*
X0152617Y0284873D01*
X0152418Y0284574D02*
X0146510Y0284574D01*
X0146510Y0284276D02*
X0152165Y0284276D01*
X0151856Y0283977D02*
X0146510Y0283977D01*
X0146510Y0283679D02*
X0151463Y0283679D01*
X0150827Y0283380D02*
X0146510Y0283380D01*
X0146510Y0283082D02*
X0148841Y0283082D01*
X0148429Y0282783D02*
X0146510Y0282783D01*
X0146510Y0282485D02*
X0148135Y0282485D01*
X0147879Y0282186D02*
X0146510Y0282186D01*
X0146510Y0281888D02*
X0147612Y0281888D01*
X0147313Y0281589D02*
X0146510Y0281589D01*
X0146510Y0281291D02*
X0147049Y0281291D01*
X0146783Y0280992D02*
X0146510Y0280992D01*
X0146510Y0280694D02*
X0146536Y0280694D01*
X0218864Y0237045D02*
X0218628Y0236652D01*
X0218549Y0236376D01*
X0218510Y0236061D01*
X0218510Y0230667D01*
X0218707Y0230864D01*
X0218825Y0231061D01*
X0219022Y0231258D01*
X0219219Y0231494D01*
X0219691Y0231967D01*
X0220163Y0232518D01*
X0220557Y0232911D01*
X0220951Y0233148D01*
X0221187Y0233187D01*
X0221935Y0233187D01*
X0222407Y0233266D01*
X0222841Y0233384D01*
X0223234Y0233541D01*
X0223628Y0233778D01*
X0223943Y0234053D01*
X0224258Y0234368D01*
X0224533Y0234722D01*
X0224927Y0235431D01*
X0225124Y0236179D01*
X0225163Y0236848D01*
X0225045Y0237478D01*
X0224848Y0238069D01*
X0224573Y0238502D01*
X0224258Y0238856D01*
X0223943Y0239053D01*
X0223943Y0238699D01*
X0223904Y0238581D01*
X0223864Y0238502D01*
X0223746Y0238384D01*
X0223628Y0238344D01*
X0223510Y0238344D01*
X0223195Y0238423D01*
X0223037Y0238502D01*
X0222919Y0238581D01*
X0222762Y0238699D01*
X0222526Y0238935D01*
X0222368Y0239171D01*
X0222329Y0239329D01*
X0222329Y0239565D01*
X0222368Y0239683D01*
X0222407Y0239762D01*
X0222486Y0239880D01*
X0222644Y0239998D01*
X0222801Y0240077D01*
X0222998Y0240116D01*
X0223156Y0240156D01*
X0223392Y0240156D01*
X0223470Y0240116D01*
X0223510Y0240116D01*
X0223470Y0240156D01*
X0223313Y0240274D01*
X0222762Y0240549D01*
X0222407Y0240628D01*
X0222014Y0240628D01*
X0221581Y0240549D01*
X0221148Y0240313D01*
X0220793Y0240037D01*
X0220596Y0239722D01*
X0220478Y0239368D01*
X0220478Y0239053D01*
X0220557Y0238699D01*
X0220754Y0238344D01*
X0221030Y0238030D01*
X0221344Y0237675D01*
X0221620Y0237400D01*
X0221738Y0237085D01*
X0221738Y0236809D01*
X0221659Y0236573D01*
X0221502Y0236376D01*
X0221266Y0236219D01*
X0220951Y0236140D01*
X0220636Y0236140D01*
X0220439Y0236179D01*
X0220242Y0236258D01*
X0220006Y0236494D01*
X0219927Y0236612D01*
X0219888Y0236730D01*
X0219888Y0236888D01*
X0219927Y0237006D01*
X0220163Y0237242D01*
X0220281Y0237281D01*
X0220439Y0237360D01*
X0220478Y0237400D01*
X0220321Y0237478D01*
X0219848Y0237478D01*
X0219612Y0237439D01*
X0219415Y0237400D01*
X0219219Y0237321D01*
X0219061Y0237203D01*
X0218864Y0237045D01*
X0218946Y0237111D02*
X0220032Y0237111D01*
X0219888Y0236812D02*
X0218724Y0236812D01*
X0218589Y0236514D02*
X0219993Y0236514D01*
X0220348Y0236215D02*
X0218529Y0236215D01*
X0218510Y0235917D02*
X0225055Y0235917D01*
X0225126Y0236215D02*
X0221253Y0236215D01*
X0221612Y0236514D02*
X0225144Y0236514D01*
X0225161Y0236812D02*
X0221738Y0236812D01*
X0221728Y0237111D02*
X0225114Y0237111D01*
X0225058Y0237409D02*
X0221610Y0237409D01*
X0221315Y0237708D02*
X0224969Y0237708D01*
X0224869Y0238006D02*
X0221050Y0238006D01*
X0220789Y0238305D02*
X0224698Y0238305D01*
X0224483Y0238603D02*
X0223911Y0238603D01*
X0223943Y0238902D02*
X0224185Y0238902D01*
X0222889Y0238603D02*
X0220610Y0238603D01*
X0220512Y0238902D02*
X0222559Y0238902D01*
X0222361Y0239200D02*
X0220478Y0239200D01*
X0220522Y0239499D02*
X0222329Y0239499D01*
X0222431Y0239798D02*
X0220643Y0239798D01*
X0220869Y0240096D02*
X0222897Y0240096D01*
X0223071Y0240395D02*
X0221297Y0240395D01*
X0220459Y0237409D02*
X0219464Y0237409D01*
X0218510Y0235618D02*
X0224976Y0235618D01*
X0224865Y0235320D02*
X0218510Y0235320D01*
X0218510Y0235021D02*
X0224700Y0235021D01*
X0224534Y0234723D02*
X0218510Y0234723D01*
X0218510Y0234424D02*
X0224302Y0234424D01*
X0224016Y0234126D02*
X0218510Y0234126D01*
X0218510Y0233827D02*
X0223685Y0233827D01*
X0223203Y0233529D02*
X0218510Y0233529D01*
X0218510Y0233230D02*
X0222195Y0233230D01*
X0220591Y0232932D02*
X0218510Y0232932D01*
X0218510Y0232633D02*
X0220279Y0232633D01*
X0220007Y0232335D02*
X0218510Y0232335D01*
X0218510Y0232036D02*
X0219751Y0232036D01*
X0219462Y0231738D02*
X0218510Y0231738D01*
X0218510Y0231439D02*
X0219173Y0231439D01*
X0218904Y0231141D02*
X0218510Y0231141D01*
X0218510Y0230842D02*
X0218685Y0230842D01*
X0251510Y0245667D02*
X0251707Y0245864D01*
X0251825Y0246061D01*
X0252022Y0246258D01*
X0252219Y0246494D01*
X0252691Y0246967D01*
X0253163Y0247518D01*
X0253557Y0247911D01*
X0253951Y0248148D01*
X0254187Y0248187D01*
X0254935Y0248187D01*
X0255407Y0248266D01*
X0255841Y0248384D01*
X0256234Y0248541D01*
X0256628Y0248778D01*
X0256943Y0249053D01*
X0257258Y0249368D01*
X0257533Y0249722D01*
X0257927Y0250431D01*
X0258124Y0251179D01*
X0258163Y0251848D01*
X0258045Y0252478D01*
X0257848Y0253069D01*
X0257573Y0253502D01*
X0257258Y0253856D01*
X0256943Y0254053D01*
X0256943Y0253699D01*
X0256904Y0253581D01*
X0256864Y0253502D01*
X0256746Y0253384D01*
X0256628Y0253344D01*
X0256510Y0253344D01*
X0256195Y0253423D01*
X0256037Y0253502D01*
X0255919Y0253581D01*
X0255762Y0253699D01*
X0255526Y0253935D01*
X0255368Y0254171D01*
X0255329Y0254329D01*
X0255329Y0254565D01*
X0255368Y0254683D01*
X0255407Y0254762D01*
X0255486Y0254880D01*
X0255644Y0254998D01*
X0255801Y0255077D01*
X0255998Y0255116D01*
X0256156Y0255156D01*
X0256392Y0255156D01*
X0256470Y0255116D01*
X0256510Y0255116D01*
X0256470Y0255156D01*
X0256313Y0255274D01*
X0255762Y0255549D01*
X0255407Y0255628D01*
X0255014Y0255628D01*
X0254581Y0255549D01*
X0254148Y0255313D01*
X0253793Y0255037D01*
X0253596Y0254722D01*
X0253478Y0254368D01*
X0253478Y0254053D01*
X0253557Y0253699D01*
X0253754Y0253344D01*
X0254030Y0253030D01*
X0254344Y0252675D01*
X0254620Y0252400D01*
X0254738Y0252085D01*
X0254738Y0251809D01*
X0254659Y0251573D01*
X0254502Y0251376D01*
X0254266Y0251219D01*
X0253951Y0251140D01*
X0253636Y0251140D01*
X0253439Y0251179D01*
X0253242Y0251258D01*
X0253006Y0251494D01*
X0252927Y0251612D01*
X0252888Y0251730D01*
X0252888Y0251888D01*
X0252927Y0252006D01*
X0253163Y0252242D01*
X0253281Y0252281D01*
X0253439Y0252360D01*
X0253478Y0252400D01*
X0253321Y0252478D01*
X0252848Y0252478D01*
X0252612Y0252439D01*
X0252415Y0252400D01*
X0252219Y0252321D01*
X0252061Y0252203D01*
X0251864Y0252045D01*
X0251628Y0251652D01*
X0251549Y0251376D01*
X0251510Y0251061D01*
X0251510Y0245667D01*
X0251510Y0245768D02*
X0251610Y0245768D01*
X0251510Y0246066D02*
X0251830Y0246066D01*
X0252111Y0246365D02*
X0251510Y0246365D01*
X0251510Y0246663D02*
X0252388Y0246663D01*
X0252686Y0246962D02*
X0251510Y0246962D01*
X0251510Y0247260D02*
X0252943Y0247260D01*
X0253204Y0247559D02*
X0251510Y0247559D01*
X0251510Y0247857D02*
X0253503Y0247857D01*
X0254000Y0248156D02*
X0251510Y0248156D01*
X0251510Y0248454D02*
X0256017Y0248454D01*
X0256587Y0248753D02*
X0251510Y0248753D01*
X0251510Y0249051D02*
X0256941Y0249051D01*
X0257240Y0249350D02*
X0251510Y0249350D01*
X0251510Y0249648D02*
X0257476Y0249648D01*
X0257658Y0249947D02*
X0251510Y0249947D01*
X0251510Y0250245D02*
X0257824Y0250245D01*
X0257957Y0250544D02*
X0251510Y0250544D01*
X0251510Y0250842D02*
X0258035Y0250842D01*
X0258114Y0251141D02*
X0253955Y0251141D01*
X0253630Y0251141D02*
X0251520Y0251141D01*
X0251567Y0251439D02*
X0253061Y0251439D01*
X0252888Y0251738D02*
X0251680Y0251738D01*
X0251859Y0252036D02*
X0252958Y0252036D01*
X0253388Y0252335D02*
X0252254Y0252335D01*
X0253854Y0253231D02*
X0257746Y0253231D01*
X0257894Y0252932D02*
X0254116Y0252932D01*
X0254386Y0252633D02*
X0257994Y0252633D01*
X0258072Y0252335D02*
X0254644Y0252335D01*
X0254738Y0252036D02*
X0258128Y0252036D01*
X0258157Y0251738D02*
X0254714Y0251738D01*
X0254553Y0251439D02*
X0258139Y0251439D01*
X0257549Y0253529D02*
X0256878Y0253529D01*
X0256943Y0253828D02*
X0257283Y0253828D01*
X0255997Y0253529D02*
X0253651Y0253529D01*
X0253528Y0253828D02*
X0255633Y0253828D01*
X0255398Y0254126D02*
X0253478Y0254126D01*
X0253497Y0254425D02*
X0255329Y0254425D01*
X0255388Y0254723D02*
X0253597Y0254723D01*
X0253783Y0255022D02*
X0255691Y0255022D01*
X0256220Y0255320D02*
X0254161Y0255320D01*
X0254962Y0255619D02*
X0255450Y0255619D01*
X0255407Y0113628D02*
X0255014Y0113628D01*
X0254581Y0113549D01*
X0254148Y0113313D01*
X0253793Y0113037D01*
X0253596Y0112722D01*
X0253478Y0112368D01*
X0253478Y0112053D01*
X0253557Y0111699D01*
X0253754Y0111344D01*
X0254030Y0111030D01*
X0254344Y0110675D01*
X0254620Y0110400D01*
X0254738Y0110085D01*
X0254738Y0109809D01*
X0254659Y0109573D01*
X0254502Y0109376D01*
X0254266Y0109219D01*
X0253951Y0109140D01*
X0253636Y0109140D01*
X0253439Y0109179D01*
X0253242Y0109258D01*
X0253006Y0109494D01*
X0252927Y0109612D01*
X0252888Y0109730D01*
X0252888Y0109888D01*
X0252927Y0110006D01*
X0253163Y0110242D01*
X0253281Y0110281D01*
X0253439Y0110360D01*
X0253478Y0110400D01*
X0253321Y0110478D01*
X0252848Y0110478D01*
X0252612Y0110439D01*
X0252415Y0110400D01*
X0252219Y0110321D01*
X0252061Y0110203D01*
X0251864Y0110045D01*
X0251628Y0109652D01*
X0251549Y0109376D01*
X0251510Y0109061D01*
X0251510Y0103667D01*
X0251707Y0103864D01*
X0251825Y0104061D01*
X0252022Y0104258D01*
X0252219Y0104494D01*
X0252691Y0104967D01*
X0253163Y0105518D01*
X0253557Y0105911D01*
X0253951Y0106148D01*
X0254187Y0106187D01*
X0254935Y0106187D01*
X0255407Y0106266D01*
X0255841Y0106384D01*
X0256234Y0106541D01*
X0256628Y0106778D01*
X0256943Y0107053D01*
X0257258Y0107368D01*
X0257533Y0107722D01*
X0257927Y0108431D01*
X0258124Y0109179D01*
X0258163Y0109848D01*
X0258045Y0110478D01*
X0257848Y0111069D01*
X0257573Y0111502D01*
X0257258Y0111856D01*
X0256943Y0112053D01*
X0256943Y0111699D01*
X0256904Y0111581D01*
X0256864Y0111502D01*
X0256746Y0111384D01*
X0256628Y0111344D01*
X0256510Y0111344D01*
X0256195Y0111423D01*
X0256037Y0111502D01*
X0255919Y0111581D01*
X0255762Y0111699D01*
X0255526Y0111935D01*
X0255368Y0112171D01*
X0255329Y0112329D01*
X0255329Y0112565D01*
X0255368Y0112683D01*
X0255407Y0112762D01*
X0255486Y0112880D01*
X0255644Y0112998D01*
X0255801Y0113077D01*
X0255998Y0113116D01*
X0256156Y0113156D01*
X0256392Y0113156D01*
X0256470Y0113116D01*
X0256510Y0113116D01*
X0256470Y0113156D01*
X0256313Y0113274D01*
X0255762Y0113549D01*
X0255407Y0113628D01*
X0255806Y0113527D02*
X0254540Y0113527D01*
X0254039Y0113229D02*
X0256373Y0113229D01*
X0255553Y0112930D02*
X0253726Y0112930D01*
X0253566Y0112632D02*
X0255351Y0112632D01*
X0255329Y0112333D02*
X0253478Y0112333D01*
X0253482Y0112035D02*
X0255459Y0112035D01*
X0255724Y0111736D02*
X0253549Y0111736D01*
X0253702Y0111438D02*
X0256166Y0111438D01*
X0256800Y0111438D02*
X0257614Y0111438D01*
X0257804Y0111139D02*
X0253934Y0111139D01*
X0254197Y0110841D02*
X0257925Y0110841D01*
X0258024Y0110542D02*
X0254478Y0110542D01*
X0254679Y0110244D02*
X0258089Y0110244D01*
X0258145Y0109945D02*
X0254738Y0109945D01*
X0254684Y0109647D02*
X0258152Y0109647D01*
X0258134Y0109348D02*
X0254460Y0109348D01*
X0253152Y0109348D02*
X0251546Y0109348D01*
X0251510Y0109050D02*
X0258090Y0109050D01*
X0258011Y0108751D02*
X0251510Y0108751D01*
X0251510Y0108453D02*
X0257933Y0108453D01*
X0257773Y0108154D02*
X0251510Y0108154D01*
X0251510Y0107855D02*
X0257607Y0107855D01*
X0257405Y0107557D02*
X0251510Y0107557D01*
X0251510Y0107258D02*
X0257148Y0107258D01*
X0256836Y0106960D02*
X0251510Y0106960D01*
X0251510Y0106661D02*
X0256434Y0106661D01*
X0255764Y0106363D02*
X0251510Y0106363D01*
X0251510Y0106064D02*
X0253812Y0106064D01*
X0253412Y0105766D02*
X0251510Y0105766D01*
X0251510Y0105467D02*
X0253120Y0105467D01*
X0252864Y0105169D02*
X0251510Y0105169D01*
X0251510Y0104870D02*
X0252595Y0104870D01*
X0252296Y0104572D02*
X0251510Y0104572D01*
X0251510Y0104273D02*
X0252035Y0104273D01*
X0251773Y0103975D02*
X0251510Y0103975D01*
X0251510Y0103676D02*
X0251519Y0103676D01*
X0251627Y0109647D02*
X0252916Y0109647D01*
X0252907Y0109945D02*
X0251804Y0109945D01*
X0252115Y0110244D02*
X0253168Y0110244D01*
X0256943Y0111736D02*
X0257365Y0111736D01*
X0256973Y0112035D02*
X0256943Y0112035D01*
X0224848Y0096069D02*
X0224573Y0096502D01*
X0224258Y0096856D01*
X0223943Y0097053D01*
X0223943Y0096699D01*
X0223904Y0096581D01*
X0223864Y0096502D01*
X0223746Y0096384D01*
X0223628Y0096344D01*
X0223510Y0096344D01*
X0223195Y0096423D01*
X0223037Y0096502D01*
X0222919Y0096581D01*
X0222762Y0096699D01*
X0222526Y0096935D01*
X0222368Y0097171D01*
X0222329Y0097329D01*
X0222329Y0097565D01*
X0222368Y0097683D01*
X0222407Y0097762D01*
X0222486Y0097880D01*
X0222644Y0097998D01*
X0222801Y0098077D01*
X0222998Y0098116D01*
X0223156Y0098156D01*
X0223392Y0098156D01*
X0223470Y0098116D01*
X0223510Y0098116D01*
X0223470Y0098156D01*
X0223313Y0098274D01*
X0222762Y0098549D01*
X0222407Y0098628D01*
X0222014Y0098628D01*
X0221581Y0098549D01*
X0221148Y0098313D01*
X0220793Y0098037D01*
X0220596Y0097722D01*
X0220478Y0097368D01*
X0220478Y0097053D01*
X0220557Y0096699D01*
X0220754Y0096344D01*
X0221030Y0096030D01*
X0221344Y0095675D01*
X0221620Y0095400D01*
X0221738Y0095085D01*
X0221738Y0094809D01*
X0221659Y0094573D01*
X0221502Y0094376D01*
X0221266Y0094219D01*
X0220951Y0094140D01*
X0220636Y0094140D01*
X0220439Y0094179D01*
X0220242Y0094258D01*
X0220006Y0094494D01*
X0219927Y0094612D01*
X0219888Y0094730D01*
X0219888Y0094888D01*
X0219927Y0095006D01*
X0220163Y0095242D01*
X0220281Y0095281D01*
X0220439Y0095360D01*
X0220478Y0095400D01*
X0220321Y0095478D01*
X0219848Y0095478D01*
X0219612Y0095439D01*
X0219415Y0095400D01*
X0219219Y0095321D01*
X0219061Y0095203D01*
X0218864Y0095045D01*
X0218628Y0094652D01*
X0218549Y0094376D01*
X0218510Y0094061D01*
X0218510Y0088667D01*
X0218707Y0088864D01*
X0218825Y0089061D01*
X0219022Y0089258D01*
X0219219Y0089494D01*
X0219691Y0089967D01*
X0220163Y0090518D01*
X0220557Y0090911D01*
X0220951Y0091148D01*
X0221187Y0091187D01*
X0221935Y0091187D01*
X0222407Y0091266D01*
X0222841Y0091384D01*
X0223234Y0091541D01*
X0223628Y0091778D01*
X0223943Y0092053D01*
X0224258Y0092368D01*
X0224533Y0092722D01*
X0224927Y0093431D01*
X0225124Y0094179D01*
X0225163Y0094848D01*
X0225045Y0095478D01*
X0224848Y0096069D01*
X0224900Y0095915D02*
X0221131Y0095915D01*
X0220868Y0096214D02*
X0224756Y0096214D01*
X0224564Y0096512D02*
X0223869Y0096512D01*
X0223943Y0096811D02*
X0224299Y0096811D01*
X0223022Y0096512D02*
X0220661Y0096512D01*
X0220532Y0096811D02*
X0222650Y0096811D01*
X0222410Y0097109D02*
X0220478Y0097109D01*
X0220492Y0097408D02*
X0222329Y0097408D01*
X0222380Y0097706D02*
X0220591Y0097706D01*
X0220773Y0098005D02*
X0222657Y0098005D01*
X0222526Y0098602D02*
X0221869Y0098602D01*
X0221135Y0098303D02*
X0223254Y0098303D01*
X0224999Y0095617D02*
X0221403Y0095617D01*
X0221651Y0095318D02*
X0225075Y0095318D01*
X0225131Y0095020D02*
X0221738Y0095020D01*
X0221709Y0094721D02*
X0225156Y0094721D01*
X0225138Y0094422D02*
X0221539Y0094422D01*
X0220078Y0094422D02*
X0218562Y0094422D01*
X0218518Y0094124D02*
X0225109Y0094124D01*
X0225031Y0093825D02*
X0218510Y0093825D01*
X0218510Y0093527D02*
X0224952Y0093527D01*
X0224815Y0093228D02*
X0218510Y0093228D01*
X0218510Y0092930D02*
X0224649Y0092930D01*
X0224463Y0092631D02*
X0218510Y0092631D01*
X0218510Y0092333D02*
X0224223Y0092333D01*
X0223921Y0092034D02*
X0218510Y0092034D01*
X0218510Y0091736D02*
X0223559Y0091736D01*
X0222974Y0091437D02*
X0218510Y0091437D01*
X0218510Y0091139D02*
X0220936Y0091139D01*
X0220486Y0090840D02*
X0218510Y0090840D01*
X0218510Y0090542D02*
X0220188Y0090542D01*
X0219928Y0090243D02*
X0218510Y0090243D01*
X0218510Y0089945D02*
X0219669Y0089945D01*
X0219371Y0089646D02*
X0218510Y0089646D01*
X0218510Y0089348D02*
X0219097Y0089348D01*
X0218818Y0089049D02*
X0218510Y0089049D01*
X0218510Y0088751D02*
X0218593Y0088751D01*
X0218670Y0094721D02*
X0219891Y0094721D01*
X0219941Y0095020D02*
X0218849Y0095020D01*
X0219215Y0095318D02*
X0220355Y0095318D01*
X0117848Y0046069D02*
X0117573Y0046502D01*
X0117258Y0046856D01*
X0116943Y0047053D01*
X0116943Y0046699D01*
X0116904Y0046581D01*
X0116864Y0046502D01*
X0116746Y0046384D01*
X0116628Y0046344D01*
X0116510Y0046344D01*
X0116195Y0046423D01*
X0116037Y0046502D01*
X0115919Y0046581D01*
X0115762Y0046699D01*
X0115526Y0046935D01*
X0115368Y0047171D01*
X0115329Y0047329D01*
X0115329Y0047565D01*
X0115368Y0047683D01*
X0115407Y0047762D01*
X0115486Y0047880D01*
X0115644Y0047998D01*
X0115801Y0048077D01*
X0115998Y0048116D01*
X0116156Y0048156D01*
X0116392Y0048156D01*
X0116470Y0048116D01*
X0116510Y0048116D01*
X0116470Y0048156D01*
X0116313Y0048274D01*
X0115762Y0048549D01*
X0115407Y0048628D01*
X0115014Y0048628D01*
X0114581Y0048549D01*
X0114148Y0048313D01*
X0113793Y0048037D01*
X0113596Y0047722D01*
X0113478Y0047368D01*
X0113478Y0047053D01*
X0113557Y0046699D01*
X0113754Y0046344D01*
X0114030Y0046030D01*
X0114344Y0045675D01*
X0114620Y0045400D01*
X0114738Y0045085D01*
X0114738Y0044809D01*
X0114659Y0044573D01*
X0114502Y0044376D01*
X0114266Y0044219D01*
X0113951Y0044140D01*
X0113636Y0044140D01*
X0113439Y0044179D01*
X0113242Y0044258D01*
X0113006Y0044494D01*
X0112927Y0044612D01*
X0112888Y0044730D01*
X0112888Y0044888D01*
X0112927Y0045006D01*
X0113163Y0045242D01*
X0113281Y0045281D01*
X0113439Y0045360D01*
X0113478Y0045400D01*
X0113321Y0045478D01*
X0112848Y0045478D01*
X0112612Y0045439D01*
X0112415Y0045400D01*
X0112219Y0045321D01*
X0112061Y0045203D01*
X0111864Y0045045D01*
X0111628Y0044652D01*
X0111549Y0044376D01*
X0111510Y0044061D01*
X0111510Y0038667D01*
X0111707Y0038864D01*
X0111825Y0039061D01*
X0112022Y0039258D01*
X0112219Y0039494D01*
X0112691Y0039967D01*
X0113163Y0040518D01*
X0113557Y0040911D01*
X0113951Y0041148D01*
X0114187Y0041187D01*
X0114935Y0041187D01*
X0115407Y0041266D01*
X0115841Y0041384D01*
X0116234Y0041541D01*
X0116628Y0041778D01*
X0116943Y0042053D01*
X0117258Y0042368D01*
X0117533Y0042722D01*
X0117927Y0043431D01*
X0118124Y0044179D01*
X0118163Y0044848D01*
X0118045Y0045478D01*
X0117848Y0046069D01*
X0117850Y0046064D02*
X0114000Y0046064D01*
X0113744Y0046362D02*
X0116439Y0046362D01*
X0116681Y0046362D02*
X0117662Y0046362D01*
X0117432Y0046661D02*
X0116930Y0046661D01*
X0116943Y0046959D02*
X0117093Y0046959D01*
X0115813Y0046661D02*
X0113578Y0046661D01*
X0113499Y0046959D02*
X0115509Y0046959D01*
X0115347Y0047258D02*
X0113478Y0047258D01*
X0113541Y0047556D02*
X0115329Y0047556D01*
X0115469Y0047855D02*
X0113679Y0047855D01*
X0113942Y0048153D02*
X0116146Y0048153D01*
X0116396Y0048153D02*
X0116473Y0048153D01*
X0115957Y0048452D02*
X0114402Y0048452D01*
X0114265Y0045765D02*
X0117950Y0045765D01*
X0118047Y0045467D02*
X0114553Y0045467D01*
X0114707Y0045168D02*
X0118103Y0045168D01*
X0118159Y0044870D02*
X0114738Y0044870D01*
X0114658Y0044571D02*
X0118147Y0044571D01*
X0118130Y0044273D02*
X0114347Y0044273D01*
X0113227Y0044273D02*
X0111536Y0044273D01*
X0111510Y0043974D02*
X0118070Y0043974D01*
X0117991Y0043676D02*
X0111510Y0043676D01*
X0111510Y0043377D02*
X0117897Y0043377D01*
X0117731Y0043079D02*
X0111510Y0043079D01*
X0111510Y0042780D02*
X0117565Y0042780D01*
X0117346Y0042482D02*
X0111510Y0042482D01*
X0111510Y0042183D02*
X0117073Y0042183D01*
X0116750Y0041884D02*
X0111510Y0041884D01*
X0111510Y0041586D02*
X0116309Y0041586D01*
X0115487Y0041287D02*
X0111510Y0041287D01*
X0111510Y0040989D02*
X0113686Y0040989D01*
X0113336Y0040690D02*
X0111510Y0040690D01*
X0111510Y0040392D02*
X0113056Y0040392D01*
X0112800Y0040093D02*
X0111510Y0040093D01*
X0111510Y0039795D02*
X0112519Y0039795D01*
X0112221Y0039496D02*
X0111510Y0039496D01*
X0111510Y0039198D02*
X0111962Y0039198D01*
X0111728Y0038899D02*
X0111510Y0038899D01*
X0111605Y0044571D02*
X0112955Y0044571D01*
X0112888Y0044870D02*
X0111759Y0044870D01*
X0112018Y0045168D02*
X0113089Y0045168D01*
X0113344Y0045467D02*
X0112778Y0045467D01*
D29*
X0063185Y0020500D02*
X0063187Y0020619D01*
X0063193Y0020738D01*
X0063203Y0020857D01*
X0063217Y0020975D01*
X0063235Y0021093D01*
X0063256Y0021210D01*
X0063282Y0021326D01*
X0063312Y0021442D01*
X0063345Y0021556D01*
X0063382Y0021669D01*
X0063423Y0021781D01*
X0063468Y0021892D01*
X0063516Y0022001D01*
X0063568Y0022108D01*
X0063624Y0022213D01*
X0063683Y0022317D01*
X0063745Y0022418D01*
X0063811Y0022518D01*
X0063880Y0022615D01*
X0063952Y0022709D01*
X0064028Y0022802D01*
X0064106Y0022891D01*
X0064187Y0022978D01*
X0064272Y0023063D01*
X0064359Y0023144D01*
X0064448Y0023222D01*
X0064541Y0023298D01*
X0064635Y0023370D01*
X0064732Y0023439D01*
X0064832Y0023505D01*
X0064933Y0023567D01*
X0065037Y0023626D01*
X0065142Y0023682D01*
X0065249Y0023734D01*
X0065358Y0023782D01*
X0065469Y0023827D01*
X0065581Y0023868D01*
X0065694Y0023905D01*
X0065808Y0023938D01*
X0065924Y0023968D01*
X0066040Y0023994D01*
X0066157Y0024015D01*
X0066275Y0024033D01*
X0066393Y0024047D01*
X0066512Y0024057D01*
X0066631Y0024063D01*
X0066750Y0024065D01*
X0066869Y0024063D01*
X0066988Y0024057D01*
X0067107Y0024047D01*
X0067225Y0024033D01*
X0067343Y0024015D01*
X0067460Y0023994D01*
X0067576Y0023968D01*
X0067692Y0023938D01*
X0067806Y0023905D01*
X0067919Y0023868D01*
X0068031Y0023827D01*
X0068142Y0023782D01*
X0068251Y0023734D01*
X0068358Y0023682D01*
X0068463Y0023626D01*
X0068567Y0023567D01*
X0068668Y0023505D01*
X0068768Y0023439D01*
X0068865Y0023370D01*
X0068959Y0023298D01*
X0069052Y0023222D01*
X0069141Y0023144D01*
X0069228Y0023063D01*
X0069313Y0022978D01*
X0069394Y0022891D01*
X0069472Y0022802D01*
X0069548Y0022709D01*
X0069620Y0022615D01*
X0069689Y0022518D01*
X0069755Y0022418D01*
X0069817Y0022317D01*
X0069876Y0022213D01*
X0069932Y0022108D01*
X0069984Y0022001D01*
X0070032Y0021892D01*
X0070077Y0021781D01*
X0070118Y0021669D01*
X0070155Y0021556D01*
X0070188Y0021442D01*
X0070218Y0021326D01*
X0070244Y0021210D01*
X0070265Y0021093D01*
X0070283Y0020975D01*
X0070297Y0020857D01*
X0070307Y0020738D01*
X0070313Y0020619D01*
X0070315Y0020500D01*
X0070313Y0020381D01*
X0070307Y0020262D01*
X0070297Y0020143D01*
X0070283Y0020025D01*
X0070265Y0019907D01*
X0070244Y0019790D01*
X0070218Y0019674D01*
X0070188Y0019558D01*
X0070155Y0019444D01*
X0070118Y0019331D01*
X0070077Y0019219D01*
X0070032Y0019108D01*
X0069984Y0018999D01*
X0069932Y0018892D01*
X0069876Y0018787D01*
X0069817Y0018683D01*
X0069755Y0018582D01*
X0069689Y0018482D01*
X0069620Y0018385D01*
X0069548Y0018291D01*
X0069472Y0018198D01*
X0069394Y0018109D01*
X0069313Y0018022D01*
X0069228Y0017937D01*
X0069141Y0017856D01*
X0069052Y0017778D01*
X0068959Y0017702D01*
X0068865Y0017630D01*
X0068768Y0017561D01*
X0068668Y0017495D01*
X0068567Y0017433D01*
X0068463Y0017374D01*
X0068358Y0017318D01*
X0068251Y0017266D01*
X0068142Y0017218D01*
X0068031Y0017173D01*
X0067919Y0017132D01*
X0067806Y0017095D01*
X0067692Y0017062D01*
X0067576Y0017032D01*
X0067460Y0017006D01*
X0067343Y0016985D01*
X0067225Y0016967D01*
X0067107Y0016953D01*
X0066988Y0016943D01*
X0066869Y0016937D01*
X0066750Y0016935D01*
X0066631Y0016937D01*
X0066512Y0016943D01*
X0066393Y0016953D01*
X0066275Y0016967D01*
X0066157Y0016985D01*
X0066040Y0017006D01*
X0065924Y0017032D01*
X0065808Y0017062D01*
X0065694Y0017095D01*
X0065581Y0017132D01*
X0065469Y0017173D01*
X0065358Y0017218D01*
X0065249Y0017266D01*
X0065142Y0017318D01*
X0065037Y0017374D01*
X0064933Y0017433D01*
X0064832Y0017495D01*
X0064732Y0017561D01*
X0064635Y0017630D01*
X0064541Y0017702D01*
X0064448Y0017778D01*
X0064359Y0017856D01*
X0064272Y0017937D01*
X0064187Y0018022D01*
X0064106Y0018109D01*
X0064028Y0018198D01*
X0063952Y0018291D01*
X0063880Y0018385D01*
X0063811Y0018482D01*
X0063745Y0018582D01*
X0063683Y0018683D01*
X0063624Y0018787D01*
X0063568Y0018892D01*
X0063516Y0018999D01*
X0063468Y0019108D01*
X0063423Y0019219D01*
X0063382Y0019331D01*
X0063345Y0019444D01*
X0063312Y0019558D01*
X0063282Y0019674D01*
X0063256Y0019790D01*
X0063235Y0019907D01*
X0063217Y0020025D01*
X0063203Y0020143D01*
X0063193Y0020262D01*
X0063187Y0020381D01*
X0063185Y0020500D01*
D30*
X0066750Y0020500D03*
D31*
X0069750Y0033750D03*
X0069750Y0043750D03*
X0144750Y0093750D03*
X0154750Y0093750D03*
X0169750Y0123750D03*
X0179750Y0123750D03*
X0234750Y0123750D03*
X0234750Y0133750D03*
X0259750Y0073750D03*
X0274750Y0073750D03*
X0274750Y0215750D03*
X0259750Y0215750D03*
X0234750Y0265750D03*
X0234750Y0275750D03*
X0179750Y0265750D03*
X0169750Y0265750D03*
X0154750Y0235750D03*
X0144750Y0235750D03*
X0084750Y0275750D03*
X0084750Y0285750D03*
X0069750Y0185750D03*
X0069750Y0175750D03*
X0084750Y0143750D03*
X0084750Y0133750D03*
M02*
