G75*
%MOIN*%
%OFA0B0*%
%FSLAX25Y25*%
%IPPOS*%
%LPD*%
%AMOC8*
5,1,8,0,0,1.08239X$1,22.5*
%
%ADD10R,0.03346X0.08661*%
%ADD11R,0.03937X0.04134*%
%ADD12R,0.09449X0.09449*%
%ADD13R,0.09843X0.09843*%
%ADD14R,0.05512X0.06850*%
%ADD15R,0.12598X0.06299*%
%ADD16R,0.05118X0.05197*%
%ADD17R,0.06339X0.05118*%
%ADD18R,0.08661X0.03346*%
%ADD19R,0.04134X0.03937*%
%ADD20R,0.04331X0.01969*%
%ADD21R,0.03346X0.03543*%
%ADD22R,0.06063X0.06063*%
%ADD23R,0.06339X0.04921*%
%ADD24R,0.03150X0.06299*%
%ADD25R,0.03150X0.02559*%
D10*
X0056428Y0140750D03*
X0067255Y0140750D03*
X0104928Y0184250D03*
X0115755Y0184250D03*
X0067255Y0282750D03*
X0056428Y0282750D03*
X0104928Y0326250D03*
X0115755Y0326250D03*
X0067255Y0424750D03*
X0056428Y0424750D03*
X0104928Y0468250D03*
X0115755Y0468250D03*
X0067255Y0566750D03*
X0056428Y0566750D03*
X0182928Y0583750D03*
X0193755Y0583750D03*
X0275157Y0472750D03*
X0285984Y0472750D03*
X0285984Y0330750D03*
X0275157Y0330750D03*
X0193755Y0299750D03*
X0182928Y0299750D03*
X0182928Y0157750D03*
X0193755Y0157750D03*
X0115755Y0042250D03*
X0104928Y0042250D03*
X0275157Y0046750D03*
X0285984Y0046750D03*
X0285984Y0188750D03*
X0275157Y0188750D03*
X0193755Y0441750D03*
X0182928Y0441750D03*
D11*
X0188342Y0447754D03*
X0110342Y0474254D03*
X0061842Y0430754D03*
X0110342Y0332254D03*
X0061842Y0288754D03*
X0110342Y0190254D03*
X0061842Y0146754D03*
X0110342Y0048254D03*
X0188342Y0163754D03*
X0188342Y0305754D03*
X0280570Y0324746D03*
X0280570Y0182746D03*
X0280570Y0040746D03*
X0280570Y0466746D03*
X0188342Y0589754D03*
X0061842Y0572754D03*
D12*
X0098617Y0485073D03*
X0098617Y0343073D03*
X0098617Y0201073D03*
X0098617Y0059073D03*
D13*
G36*
X0084697Y0103197D02*
X0079776Y0094674D01*
X0071253Y0099595D01*
X0076174Y0108118D01*
X0084697Y0103197D01*
G37*
G36*
X0126908Y0094674D02*
X0121987Y0103197D01*
X0130510Y0108118D01*
X0135431Y0099595D01*
X0126908Y0094674D01*
G37*
G36*
X0126908Y0236674D02*
X0121987Y0245197D01*
X0130510Y0250118D01*
X0135431Y0241595D01*
X0126908Y0236674D01*
G37*
G36*
X0084697Y0245197D02*
X0079776Y0236674D01*
X0071253Y0241595D01*
X0076174Y0250118D01*
X0084697Y0245197D01*
G37*
G36*
X0084697Y0387197D02*
X0079776Y0378674D01*
X0071253Y0383595D01*
X0076174Y0392118D01*
X0084697Y0387197D01*
G37*
G36*
X0126908Y0378674D02*
X0121987Y0387197D01*
X0130510Y0392118D01*
X0135431Y0383595D01*
X0126908Y0378674D01*
G37*
G36*
X0126908Y0520674D02*
X0121987Y0529197D01*
X0130510Y0534118D01*
X0135431Y0525595D01*
X0126908Y0520674D01*
G37*
G36*
X0084697Y0529197D02*
X0079776Y0520674D01*
X0071253Y0525595D01*
X0076174Y0534118D01*
X0084697Y0529197D01*
G37*
D14*
X0110232Y0484089D03*
X0110232Y0342089D03*
X0110232Y0200089D03*
X0110232Y0058089D03*
D15*
X0182968Y0036829D03*
X0213716Y0036829D03*
X0213716Y0076671D03*
X0213716Y0178829D03*
X0213716Y0218671D03*
X0182968Y0178829D03*
X0182968Y0320829D03*
X0213716Y0320829D03*
X0213716Y0360671D03*
X0213716Y0462829D03*
X0213716Y0502671D03*
X0182968Y0462829D03*
D16*
X0184385Y0503222D03*
X0184385Y0361222D03*
X0184385Y0219222D03*
X0184385Y0077222D03*
D17*
X0177358Y0070136D03*
X0177358Y0212136D03*
X0177358Y0354136D03*
X0177358Y0496136D03*
D18*
X0163342Y0490837D03*
X0163342Y0501663D03*
X0163342Y0359663D03*
X0163342Y0348837D03*
X0163342Y0217663D03*
X0163342Y0206837D03*
X0163342Y0075663D03*
X0163342Y0064837D03*
X0263342Y0126337D03*
X0263342Y0137163D03*
X0263342Y0268337D03*
X0263342Y0279163D03*
X0263342Y0410337D03*
X0263342Y0421163D03*
X0263342Y0552337D03*
X0263342Y0563163D03*
D19*
X0269346Y0557750D03*
X0269346Y0415750D03*
X0269346Y0273750D03*
X0269346Y0131750D03*
X0169346Y0070250D03*
X0169346Y0212250D03*
X0169346Y0354250D03*
X0169346Y0496250D03*
D20*
X0252633Y0464415D03*
X0252633Y0460085D03*
X0264050Y0460085D03*
X0264050Y0464415D03*
X0264050Y0322415D03*
X0264050Y0318085D03*
X0252633Y0318085D03*
X0252633Y0322415D03*
X0252633Y0180415D03*
X0252633Y0176085D03*
X0264050Y0176085D03*
X0264050Y0180415D03*
X0264050Y0038415D03*
X0264050Y0034085D03*
X0252633Y0034085D03*
X0252633Y0038415D03*
D21*
X0271558Y0038250D03*
X0276125Y0038250D03*
X0276125Y0180250D03*
X0271558Y0180250D03*
X0271558Y0322250D03*
X0276125Y0322250D03*
X0276125Y0464250D03*
X0271558Y0464250D03*
D22*
X0077019Y0449569D03*
X0077019Y0441931D03*
X0061665Y0441931D03*
X0061665Y0449569D03*
X0061665Y0583931D03*
X0061665Y0591569D03*
X0077019Y0591569D03*
X0077019Y0583931D03*
X0077019Y0307569D03*
X0077019Y0299931D03*
X0061665Y0299931D03*
X0061665Y0307569D03*
X0061665Y0165569D03*
X0061665Y0157931D03*
X0077019Y0157931D03*
X0077019Y0165569D03*
D23*
X0283342Y0163061D03*
X0283342Y0139439D03*
X0283342Y0281439D03*
X0283342Y0305061D03*
X0283342Y0423439D03*
X0283342Y0447061D03*
X0283342Y0565439D03*
X0283342Y0589061D03*
D24*
X0219641Y0592750D03*
X0219641Y0450750D03*
X0219641Y0308750D03*
X0219641Y0166750D03*
D25*
X0207043Y0164880D03*
X0207043Y0168620D03*
X0207043Y0306880D03*
X0207043Y0310620D03*
X0207043Y0448880D03*
X0207043Y0452620D03*
X0207043Y0590880D03*
X0207043Y0594620D03*
M02*
