%
M48
M72
T01C0.0120
T02C0.0400
T03C0.1300
%
T01
X6834Y9675
X6684Y13375
X7134Y13375
X7134Y14075
X7134Y14725
X6684Y14725
X5684Y14775
X5684Y13375
X7634Y13375
X8184Y13375
X8184Y14075
X7634Y14075
X7634Y14725
X8184Y14725
X8734Y14725
X8734Y15325
X8734Y15775
X8734Y16175
X8734Y16675
X9234Y16675
X9234Y16175
X9234Y15775
X9234Y15325
X8734Y14075
X8734Y13375
X10034Y17875
X10534Y17725
X10034Y18425
X10034Y18875
X9834Y19375
X10534Y19125
X10634Y19425
X11434Y19425
X11484Y19125
X12034Y18875
X12034Y18425
X12034Y17875
X11534Y17725
X13834Y23875
X15834Y22875
X15634Y21725
X16334Y22175
X16834Y22875
X17334Y22875
X17834Y23375
X18334Y22875
X18834Y23375
X19334Y22875
X20334Y22875
X20834Y23375
X21334Y22875
X21834Y23375
X22334Y22875
X22834Y23375
X23334Y22875
X22834Y22375
X23334Y21875
X22834Y21375
X23334Y20875
X22834Y20375
X23334Y19875
X22834Y19375
X23334Y18875
X22834Y18375
X23334Y17875
X22934Y16675
X22434Y16675
X22434Y16175
X22434Y15675
X22434Y15175
X22434Y14675
X22934Y14675
X22934Y15175
X22934Y15675
X22934Y16175
X21834Y15175
X21834Y14675
X21334Y14675
X20834Y14675
X20334Y14675
X19834Y14675
X19834Y15175
X19834Y15675
X19834Y16075
X20284Y16075
X20284Y15675
X20334Y15175
X20834Y15175
X21334Y15175
X20284Y16875
X19834Y16875
X19334Y16875
X18834Y16875
X18384Y16525
X18084Y16525
X17834Y16275
X17834Y15775
X17834Y15275
X18084Y15075
X18384Y15075
X18334Y14675
X18834Y14675
X19334Y14675
X19284Y15075
X18234Y16875
X16834Y17875
X16834Y18875
X16834Y19875
X16334Y20275
X15834Y19875
X15634Y20675
X15834Y18875
X15834Y17875
X17134Y20725
X17134Y21675
X16334Y23375
X18334Y28875
X18384Y29275
X18084Y29275
X17834Y29475
X17834Y29975
X17834Y30475
X18084Y30725
X18384Y30725
X18234Y31075
X18834Y31075
X19334Y31075
X19834Y31075
X20284Y31075
X20284Y30275
X20284Y29875
X19834Y29875
X19834Y30275
X19834Y29375
X19834Y28875
X20334Y28875
X20334Y29375
X20834Y29375
X20834Y28875
X21334Y28875
X21334Y29375
X21834Y29375
X21834Y28875
X22434Y28875
X22434Y29375
X22434Y29875
X22434Y30375
X22434Y30875
X22934Y30875
X22934Y30375
X22934Y29875
X22934Y29375
X22934Y28875
X23334Y32075
X22834Y32575
X23334Y33075
X22834Y33575
X23334Y34075
X22834Y34575
X23334Y35075
X22834Y35575
X23334Y36075
X22834Y36575
X22334Y37075
X21834Y37575
X21334Y37075
X20834Y37575
X20334Y37075
X19334Y37075
X18834Y37575
X18334Y37075
X17834Y37575
X17334Y37075
X16834Y37075
X16334Y37575
X15834Y37075
X15634Y35925
X16334Y36375
X17134Y35875
X17134Y34925
X16834Y34075
X16334Y34475
X15834Y34075
X15634Y34875
X15834Y33075
X15834Y32075
X16834Y32075
X16834Y33075
X19284Y29275
X19334Y28875
X18834Y28875
X23334Y37075
X22834Y37575
X24834Y35175
X25334Y35175
X25334Y34675
X24684Y34525
X24684Y34075
X24684Y33575
X24684Y33075
X24684Y32575
X24684Y32075
X26434Y31075
X26984Y31075
X27584Y31075
X28334Y31075
X28934Y31075
X29057Y31925
X28657Y31925
X28607Y32425
X29057Y32425
X29057Y33075
X29057Y33525
X28607Y33725
X28607Y34075
X29057Y34075
X28057Y34125
X27507Y34075
X27507Y33725
X26934Y33575
X26934Y33075
X26934Y32675
X26934Y31825
X27657Y31825
X28157Y31825
X26934Y34075
X26834Y34675
X26334Y34675
X25834Y34675
X25834Y35175
X26334Y35175
X26834Y35175
X27334Y35175
X27334Y34675
X27584Y41025
X27034Y41025
X27034Y42025
X27034Y42575
X26334Y42575
X25834Y42575
X25584Y42025
X25584Y41125
X28134Y41025
X28634Y41025
X28884Y41425
X28884Y41775
X28934Y45275
X28334Y45275
X27584Y45275
X26984Y45275
X26434Y45275
X26934Y46025
X26934Y46875
X26934Y47275
X26934Y47775
X26934Y48275
X26834Y48875
X26334Y48875
X25834Y48875
X25834Y49375
X26334Y49375
X26834Y49375
X27334Y49375
X27334Y48875
X27507Y48275
X27507Y47925
X28057Y48325
X28607Y48275
X28607Y47925
X29057Y47725
X29057Y47275
X29057Y46625
X28607Y46625
X28657Y46125
X29057Y46125
X28157Y46025
X27657Y46025
X29057Y48275
X25334Y48875
X25334Y49375
X24834Y49375
X24684Y48725
X24684Y48275
X24684Y47775
X24684Y47275
X24684Y46775
X24684Y46275
X23334Y46275
X22834Y46775
X23334Y47275
X22834Y47775
X23334Y48275
X22834Y48775
X23334Y49275
X22834Y49775
X23334Y50275
X22834Y50775
X22334Y51275
X21834Y51775
X21334Y51275
X20834Y51775
X20334Y51275
X19334Y51275
X18834Y51775
X18334Y51275
X17834Y51775
X17334Y51275
X16834Y51275
X16334Y51775
X15834Y51275
X15634Y50125
X16334Y50575
X17134Y50075
X17134Y49125
X16834Y48275
X16334Y48675
X15834Y48275
X15634Y49075
X15834Y47275
X15834Y46275
X16834Y46275
X16834Y47275
X18234Y45275
X18084Y44925
X18384Y44925
X18834Y45275
X19334Y45275
X19834Y45275
X20284Y45275
X20284Y44475
X20284Y44075
X19834Y44075
X19834Y44475
X19834Y43575
X19834Y43075
X20334Y43075
X20334Y43575
X20834Y43575
X20834Y43075
X21334Y43075
X21334Y43575
X21834Y43575
X21834Y43075
X22434Y43075
X22434Y43575
X22434Y44075
X22434Y44575
X22434Y45075
X22934Y45075
X22934Y44575
X22934Y44075
X22934Y43575
X22934Y43075
X19334Y43075
X19284Y43475
X18834Y43075
X18334Y43075
X18384Y43475
X18084Y43475
X17834Y43675
X17834Y44175
X17834Y44675
X13834Y38075
X11434Y33625
X11484Y33325
X12034Y33075
X12034Y32625
X12034Y32075
X11534Y31925
X10534Y31925
X10034Y32075
X10034Y32625
X10034Y33075
X9834Y33575
X10534Y33325
X10634Y33625
X9234Y30875
X8734Y30875
X8734Y30375
X8734Y29975
X8734Y29525
X9234Y29525
X9234Y29975
X9234Y30375
X8734Y28925
X8734Y28275
X8734Y27575
X8184Y27575
X7634Y27575
X7634Y28275
X8184Y28275
X8184Y28925
X7634Y28925
X7134Y28925
X6684Y28925
X7134Y28275
X7134Y27575
X6684Y27575
X5684Y27575
X5684Y28975
X6834Y23875
X6834Y38075
X6684Y41775
X7134Y41775
X7134Y42475
X7134Y43125
X6684Y43125
X5684Y43175
X5684Y41775
X7634Y41775
X8184Y41775
X8184Y42475
X7634Y42475
X7634Y43125
X8184Y43125
X8734Y43125
X8734Y43725
X8734Y44175
X8734Y44575
X8734Y45075
X9234Y45075
X9234Y44575
X9234Y44175
X9234Y43725
X8734Y42475
X8734Y41775
X10034Y46275
X10534Y46125
X10034Y46825
X10034Y47275
X9834Y47775
X10534Y47525
X10634Y47825
X11434Y47825
X11484Y47525
X12034Y47275
X12034Y46825
X12034Y46275
X11534Y46125
X13834Y52275
X17834Y57875
X18084Y57675
X18384Y57675
X18334Y57275
X18834Y57275
X19334Y57275
X19284Y57675
X19834Y57775
X19834Y57275
X20334Y57275
X20334Y57775
X20834Y57775
X20834Y57275
X21334Y57275
X21334Y57775
X21834Y57775
X21834Y57275
X22434Y57275
X22434Y57775
X22434Y58275
X22434Y58775
X22434Y59275
X22934Y59275
X22934Y58775
X22934Y58275
X22934Y57775
X22934Y57275
X20284Y58275
X20284Y58675
X19834Y58675
X19834Y58275
X19834Y59475
X20284Y59475
X19334Y59475
X18834Y59475
X18384Y59125
X18084Y59125
X17834Y58875
X17834Y58375
X18234Y59475
X22834Y51775
X23334Y51275
X25584Y55325
X25584Y56225
X25834Y56775
X26334Y56775
X27034Y56775
X27034Y56225
X27034Y55225
X27584Y55225
X28134Y55225
X28634Y55225
X28884Y55625
X28884Y55975
X28934Y59475
X28334Y59475
X27584Y59475
X26984Y59475
X26434Y59475
X9234Y59275
X8734Y59275
X8734Y58775
X8734Y58375
X8734Y57925
X9234Y57925
X9234Y58375
X9234Y58775
X8734Y57325
X8734Y56675
X8734Y55975
X8184Y55975
X7634Y55975
X7634Y56675
X8184Y56675
X8184Y57325
X7634Y57325
X7134Y57325
X6684Y57325
X7134Y56675
X7134Y55975
X6684Y55975
X5684Y55975
X5684Y57375
X6834Y52275
X24834Y20975
X25334Y20975
X25334Y20475
X24684Y20325
X24684Y19875
X24684Y19375
X24684Y18875
X24684Y18375
X24684Y17875
X26434Y16875
X26984Y16875
X27584Y16875
X28334Y16875
X28934Y16875
X29057Y17725
X28657Y17725
X28607Y18225
X29057Y18225
X29057Y18875
X29057Y19325
X28607Y19525
X28607Y19875
X29057Y19875
X28057Y19925
X27507Y19875
X27507Y19525
X26934Y19375
X26934Y18875
X26934Y18475
X26934Y17625
X27657Y17625
X28157Y17625
X26934Y19875
X26834Y20475
X26334Y20475
X25834Y20475
X25834Y20975
X26334Y20975
X26834Y20975
X27334Y20975
X27334Y20475
X27584Y26825
X27034Y26825
X27034Y27825
X27034Y28375
X26334Y28375
X25834Y28375
X25584Y27825
X25584Y26925
X28134Y26825
X28634Y26825
X28884Y27225
X28884Y27575
X27034Y14175
X27034Y13625
X26334Y14175
X25834Y14175
X25584Y13625
X25584Y12725
X27034Y12625
X27584Y12625
X28134Y12625
X28634Y12625
X28884Y13025
X28884Y13375
X27334Y6775
X26834Y6775
X26334Y6775
X25834Y6775
X25834Y6275
X26334Y6275
X26834Y6275
X27334Y6275
X27507Y5675
X27507Y5325
X28057Y5725
X28607Y5675
X28607Y5325
X29057Y5125
X29057Y4675
X29057Y4025
X28607Y4025
X28657Y3525
X29057Y3525
X28157Y3425
X27657Y3425
X26934Y3425
X26934Y4275
X26934Y4675
X26934Y5175
X26934Y5675
X25334Y6275
X25334Y6775
X24834Y6775
X24684Y6125
X24684Y5675
X24684Y5175
X24684Y4675
X24684Y4175
X24684Y3675
X23334Y3675
X22834Y4175
X23334Y4675
X22834Y5175
X23334Y5675
X22834Y6175
X23334Y6675
X22834Y7175
X23334Y7675
X22834Y8175
X22334Y8675
X21834Y9175
X21334Y8675
X20834Y9175
X20334Y8675
X19334Y8675
X18834Y9175
X18334Y8675
X17834Y9175
X17334Y8675
X16834Y8675
X16334Y9175
X15834Y8675
X15634Y7525
X16334Y7975
X17134Y7475
X17134Y6525
X16834Y5675
X16334Y6075
X15834Y5675
X15634Y6475
X15834Y4675
X15834Y3675
X16834Y3675
X16834Y4675
X13834Y9675
X11434Y5225
X11484Y4925
X12034Y4675
X12034Y4225
X12034Y3675
X11534Y3525
X10534Y3525
X10034Y3675
X10034Y4225
X10034Y4675
X9834Y5175
X10534Y4925
X10634Y5225
X22834Y9175
X23334Y8675
X29057Y5675
T02
X28834Y7675
X27334Y7675
X24834Y12675
X24834Y13675
X27334Y21875
X28834Y21875
X24834Y26875
X24834Y27875
X27334Y36075
X28834Y36075
X24834Y41075
X24834Y42075
X27334Y50275
X28834Y50275
X24834Y55275
X24834Y56275
X19334Y55275
X18334Y55275
X16834Y52275
X15834Y52275
X9834Y56275
X9834Y57275
X8334Y47275
X8334Y46275
X9834Y43075
X9834Y42075
X8334Y33075
X8334Y32075
X9834Y28875
X9834Y27875
X8334Y18875
X8334Y17875
X9834Y14675
X9834Y13675
X8334Y4675
X8334Y3675
X15834Y9675
X16834Y9675
X18334Y12675
X19334Y12675
X16834Y23875
X15834Y23875
X18334Y26875
X19334Y26875
X16834Y38075
X15834Y38075
X18334Y41075
X19334Y41075
T03
X6334Y4175
X6334Y11175
X6334Y18375
X6334Y25375
X6334Y32575
X6334Y39575
X6334Y46775
X6334Y53775
X14334Y53775
X14334Y55775
X14334Y58775
X16334Y58775
X16334Y55775
X16334Y53775
X14334Y46775
X14334Y44575
X14334Y41575
X14334Y39575
X16334Y39575
X16334Y41575
X16334Y44575
X23334Y39575
X25334Y39575
X25334Y44575
X28334Y39575
X25334Y30375
X25334Y25375
X23334Y25375
X28334Y25375
X25334Y16175
X25334Y11175
X23334Y11175
X28334Y11175
X16334Y11175
X16334Y13175
X16334Y16175
X14334Y16175
X14334Y18375
X14334Y13175
X14334Y11175
X14334Y4175
X14334Y25375
X14334Y27375
X14334Y30375
X14334Y32575
X16334Y30375
X16334Y27375
X16334Y25375
X23334Y53775
X25334Y53775
X25334Y58775
X28334Y53775
M30
