G75*
%MOIN*%
%OFA0B0*%
%FSLAX25Y25*%
%IPPOS*%
%LPD*%
%AMOC8*
5,1,8,0,0,1.08239X$1,22.5*
%
%ADD10C,0.01000*%
%ADD11C,0.00300*%
%ADD12C,0.00800*%
%ADD13C,0.02400*%
%ADD14C,0.06500*%
D10*
X0111194Y0030806D02*
X0111239Y0030902D01*
X0111281Y0031001D01*
X0111320Y0031100D01*
X0111356Y0031201D01*
X0111388Y0031302D01*
X0111417Y0031405D01*
X0111443Y0031509D01*
X0111465Y0031613D01*
X0111484Y0031718D01*
X0111499Y0031824D01*
X0111511Y0031930D01*
X0111520Y0032037D01*
X0111525Y0032143D01*
X0111527Y0032250D01*
X0109306Y0032250D02*
X0109308Y0032357D01*
X0109313Y0032463D01*
X0109322Y0032570D01*
X0109334Y0032676D01*
X0109349Y0032782D01*
X0109368Y0032887D01*
X0109390Y0032991D01*
X0109416Y0033095D01*
X0109445Y0033198D01*
X0109478Y0033299D01*
X0109513Y0033400D01*
X0109552Y0033499D01*
X0109594Y0033598D01*
X0109639Y0033694D01*
X0109528Y0033361D02*
X0111306Y0031139D01*
X0110417Y0030250D02*
X0110360Y0030252D01*
X0110304Y0030258D01*
X0110248Y0030268D01*
X0110193Y0030281D01*
X0110139Y0030298D01*
X0110087Y0030319D01*
X0110036Y0030344D01*
X0109986Y0030372D01*
X0109939Y0030403D01*
X0109894Y0030438D01*
X0109852Y0030475D01*
X0109812Y0030515D01*
X0109775Y0030558D01*
X0109741Y0030604D01*
X0109711Y0030651D01*
X0109683Y0030701D01*
X0109660Y0030752D01*
X0109639Y0030805D01*
X0110417Y0030250D02*
X0110474Y0030252D01*
X0110530Y0030258D01*
X0110586Y0030268D01*
X0110641Y0030281D01*
X0110695Y0030298D01*
X0110747Y0030319D01*
X0110798Y0030344D01*
X0110848Y0030372D01*
X0110895Y0030403D01*
X0110940Y0030438D01*
X0110982Y0030475D01*
X0111022Y0030515D01*
X0111059Y0030558D01*
X0111093Y0030604D01*
X0111123Y0030651D01*
X0111151Y0030701D01*
X0111174Y0030752D01*
X0111195Y0030805D01*
X0109639Y0030806D02*
X0109594Y0030902D01*
X0109552Y0031001D01*
X0109513Y0031100D01*
X0109477Y0031201D01*
X0109445Y0031302D01*
X0109416Y0031405D01*
X0109390Y0031509D01*
X0109368Y0031613D01*
X0109349Y0031718D01*
X0109334Y0031824D01*
X0109322Y0031930D01*
X0109313Y0032037D01*
X0109308Y0032143D01*
X0109306Y0032250D01*
X0111527Y0032250D02*
X0111525Y0032357D01*
X0111520Y0032463D01*
X0111511Y0032570D01*
X0111499Y0032676D01*
X0111484Y0032782D01*
X0111465Y0032887D01*
X0111443Y0032991D01*
X0111417Y0033095D01*
X0111388Y0033198D01*
X0111356Y0033299D01*
X0111320Y0033400D01*
X0111281Y0033499D01*
X0111239Y0033598D01*
X0111194Y0033694D01*
X0110417Y0034250D02*
X0110360Y0034248D01*
X0110304Y0034242D01*
X0110248Y0034232D01*
X0110193Y0034219D01*
X0110139Y0034202D01*
X0110087Y0034181D01*
X0110036Y0034156D01*
X0109986Y0034128D01*
X0109939Y0034097D01*
X0109894Y0034062D01*
X0109852Y0034025D01*
X0109812Y0033985D01*
X0109775Y0033942D01*
X0109741Y0033896D01*
X0109711Y0033849D01*
X0109683Y0033799D01*
X0109660Y0033748D01*
X0109639Y0033695D01*
X0110417Y0034250D02*
X0110474Y0034248D01*
X0110530Y0034242D01*
X0110586Y0034232D01*
X0110641Y0034219D01*
X0110695Y0034202D01*
X0110747Y0034181D01*
X0110798Y0034156D01*
X0110848Y0034128D01*
X0110895Y0034097D01*
X0110940Y0034062D01*
X0110982Y0034025D01*
X0111022Y0033985D01*
X0111059Y0033942D01*
X0111093Y0033896D01*
X0111123Y0033849D01*
X0111151Y0033799D01*
X0111174Y0033747D01*
X0111195Y0033695D01*
X0114917Y0034250D02*
X0114917Y0030250D01*
X0116028Y0030250D02*
X0113806Y0030250D01*
X0116028Y0033361D02*
X0114917Y0034250D01*
X0118083Y0034250D02*
X0119417Y0030250D01*
X0120750Y0034250D01*
X0119417Y0172250D02*
X0118083Y0176250D01*
X0116028Y0175361D02*
X0114917Y0176250D01*
X0114917Y0172250D01*
X0116028Y0172250D02*
X0113806Y0172250D01*
X0109639Y0172806D02*
X0109594Y0172902D01*
X0109552Y0173001D01*
X0109513Y0173100D01*
X0109477Y0173201D01*
X0109445Y0173302D01*
X0109416Y0173405D01*
X0109390Y0173509D01*
X0109368Y0173613D01*
X0109349Y0173718D01*
X0109334Y0173824D01*
X0109322Y0173930D01*
X0109313Y0174037D01*
X0109308Y0174143D01*
X0109306Y0174250D01*
X0111527Y0174250D02*
X0111525Y0174357D01*
X0111520Y0174463D01*
X0111511Y0174570D01*
X0111499Y0174676D01*
X0111484Y0174782D01*
X0111465Y0174887D01*
X0111443Y0174991D01*
X0111417Y0175095D01*
X0111388Y0175198D01*
X0111356Y0175299D01*
X0111320Y0175400D01*
X0111281Y0175499D01*
X0111239Y0175598D01*
X0111194Y0175694D01*
X0110417Y0176250D02*
X0110360Y0176248D01*
X0110304Y0176242D01*
X0110248Y0176232D01*
X0110193Y0176219D01*
X0110139Y0176202D01*
X0110087Y0176181D01*
X0110036Y0176156D01*
X0109986Y0176128D01*
X0109939Y0176097D01*
X0109894Y0176062D01*
X0109852Y0176025D01*
X0109812Y0175985D01*
X0109775Y0175942D01*
X0109741Y0175896D01*
X0109711Y0175849D01*
X0109683Y0175799D01*
X0109660Y0175748D01*
X0109639Y0175695D01*
X0109528Y0175361D02*
X0111306Y0173139D01*
X0110417Y0172250D02*
X0110360Y0172252D01*
X0110304Y0172258D01*
X0110248Y0172268D01*
X0110193Y0172281D01*
X0110139Y0172298D01*
X0110087Y0172319D01*
X0110036Y0172344D01*
X0109986Y0172372D01*
X0109939Y0172403D01*
X0109894Y0172438D01*
X0109852Y0172475D01*
X0109812Y0172515D01*
X0109775Y0172558D01*
X0109741Y0172604D01*
X0109711Y0172651D01*
X0109683Y0172701D01*
X0109660Y0172752D01*
X0109639Y0172805D01*
X0110417Y0172250D02*
X0110474Y0172252D01*
X0110530Y0172258D01*
X0110586Y0172268D01*
X0110641Y0172281D01*
X0110695Y0172298D01*
X0110747Y0172319D01*
X0110798Y0172344D01*
X0110848Y0172372D01*
X0110895Y0172403D01*
X0110940Y0172438D01*
X0110982Y0172475D01*
X0111022Y0172515D01*
X0111059Y0172558D01*
X0111093Y0172604D01*
X0111123Y0172651D01*
X0111151Y0172701D01*
X0111174Y0172752D01*
X0111195Y0172805D01*
X0109306Y0174250D02*
X0109308Y0174357D01*
X0109313Y0174463D01*
X0109322Y0174570D01*
X0109334Y0174676D01*
X0109349Y0174782D01*
X0109368Y0174887D01*
X0109390Y0174991D01*
X0109416Y0175095D01*
X0109445Y0175198D01*
X0109478Y0175299D01*
X0109513Y0175400D01*
X0109552Y0175499D01*
X0109594Y0175598D01*
X0109639Y0175694D01*
X0110417Y0176250D02*
X0110474Y0176248D01*
X0110530Y0176242D01*
X0110586Y0176232D01*
X0110641Y0176219D01*
X0110695Y0176202D01*
X0110747Y0176181D01*
X0110798Y0176156D01*
X0110848Y0176128D01*
X0110895Y0176097D01*
X0110940Y0176062D01*
X0110982Y0176025D01*
X0111022Y0175985D01*
X0111059Y0175942D01*
X0111093Y0175896D01*
X0111123Y0175849D01*
X0111151Y0175799D01*
X0111174Y0175747D01*
X0111195Y0175695D01*
X0111527Y0174250D02*
X0111525Y0174143D01*
X0111520Y0174037D01*
X0111511Y0173930D01*
X0111499Y0173824D01*
X0111484Y0173718D01*
X0111465Y0173613D01*
X0111443Y0173509D01*
X0111417Y0173405D01*
X0111388Y0173302D01*
X0111356Y0173201D01*
X0111320Y0173100D01*
X0111281Y0173001D01*
X0111239Y0172902D01*
X0111194Y0172806D01*
X0119417Y0172250D02*
X0120750Y0176250D01*
D11*
X0231455Y0145478D02*
X0231652Y0146069D01*
X0231927Y0146502D01*
X0232242Y0146856D01*
X0232557Y0147053D01*
X0232557Y0146699D01*
X0232596Y0146581D01*
X0232636Y0146502D01*
X0232754Y0146384D01*
X0232872Y0146344D01*
X0232990Y0146344D01*
X0233305Y0146423D01*
X0233463Y0146502D01*
X0233581Y0146581D01*
X0233738Y0146699D01*
X0233974Y0146935D01*
X0234132Y0147171D01*
X0234171Y0147329D01*
X0234171Y0147565D01*
X0234132Y0147683D01*
X0234093Y0147762D01*
X0234014Y0147880D01*
X0233856Y0147998D01*
X0233699Y0148077D01*
X0233502Y0148116D01*
X0233344Y0148156D01*
X0233108Y0148156D01*
X0233030Y0148116D01*
X0232990Y0148116D01*
X0233030Y0148156D01*
X0233187Y0148274D01*
X0233738Y0148549D01*
X0234093Y0148628D01*
X0234486Y0148628D01*
X0234919Y0148549D01*
X0235352Y0148313D01*
X0235707Y0148037D01*
X0235904Y0147722D01*
X0236022Y0147368D01*
X0236022Y0147053D01*
X0235943Y0146699D01*
X0235746Y0146344D01*
X0235470Y0146030D01*
X0235156Y0145675D01*
X0234880Y0145400D01*
X0234762Y0145085D01*
X0234762Y0144809D01*
X0234841Y0144573D01*
X0234998Y0144376D01*
X0235234Y0144219D01*
X0235549Y0144140D01*
X0235864Y0144140D01*
X0236061Y0144179D01*
X0236258Y0144258D01*
X0236494Y0144494D01*
X0236573Y0144612D01*
X0236612Y0144730D01*
X0236612Y0144888D01*
X0236573Y0145006D01*
X0236337Y0145242D01*
X0236219Y0145281D01*
X0236061Y0145360D01*
X0236022Y0145400D01*
X0236179Y0145478D01*
X0236652Y0145478D01*
X0236888Y0145439D01*
X0237085Y0145400D01*
X0237281Y0145321D01*
X0237439Y0145203D01*
X0237636Y0145045D01*
X0237872Y0144652D01*
X0237951Y0144376D01*
X0237990Y0144061D01*
X0237990Y0138667D01*
X0237793Y0138864D01*
X0237675Y0139061D01*
X0237478Y0139258D01*
X0237281Y0139494D01*
X0236809Y0139967D01*
X0236337Y0140518D01*
X0235943Y0140911D01*
X0235549Y0141148D01*
X0235313Y0141187D01*
X0234565Y0141187D01*
X0234093Y0141266D01*
X0233659Y0141384D01*
X0233266Y0141541D01*
X0232872Y0141778D01*
X0232557Y0142053D01*
X0232242Y0142368D01*
X0231967Y0142722D01*
X0231573Y0143431D01*
X0231376Y0144179D01*
X0231337Y0144848D01*
X0231455Y0145478D01*
X0231453Y0145468D02*
X0234948Y0145468D01*
X0234794Y0145169D02*
X0231397Y0145169D01*
X0231341Y0144871D02*
X0234762Y0144871D01*
X0234841Y0144572D02*
X0231353Y0144572D01*
X0231370Y0144274D02*
X0235151Y0144274D01*
X0236274Y0144274D02*
X0237964Y0144274D01*
X0237990Y0143975D02*
X0231430Y0143975D01*
X0231508Y0143677D02*
X0237990Y0143677D01*
X0237990Y0143378D02*
X0231602Y0143378D01*
X0231768Y0143080D02*
X0237990Y0143080D01*
X0237990Y0142781D02*
X0231934Y0142781D01*
X0232153Y0142483D02*
X0237990Y0142483D01*
X0237990Y0142184D02*
X0232426Y0142184D01*
X0232748Y0141886D02*
X0237990Y0141886D01*
X0237990Y0141587D02*
X0233189Y0141587D01*
X0234008Y0141289D02*
X0237990Y0141289D01*
X0237990Y0140990D02*
X0235812Y0140990D01*
X0236163Y0140692D02*
X0237990Y0140692D01*
X0237990Y0140393D02*
X0236443Y0140393D01*
X0236699Y0140095D02*
X0237990Y0140095D01*
X0237990Y0139796D02*
X0236979Y0139796D01*
X0237278Y0139498D02*
X0237990Y0139498D01*
X0237990Y0139199D02*
X0237537Y0139199D01*
X0237771Y0138901D02*
X0237990Y0138901D01*
X0237895Y0144572D02*
X0236546Y0144572D01*
X0236612Y0144871D02*
X0237740Y0144871D01*
X0237481Y0145169D02*
X0236409Y0145169D01*
X0236158Y0145468D02*
X0236714Y0145468D01*
X0235757Y0146363D02*
X0233066Y0146363D01*
X0232815Y0146363D02*
X0231839Y0146363D01*
X0231650Y0146065D02*
X0235501Y0146065D01*
X0235237Y0145766D02*
X0231551Y0145766D01*
X0232069Y0146662D02*
X0232569Y0146662D01*
X0232557Y0146960D02*
X0232409Y0146960D01*
X0233689Y0146662D02*
X0235922Y0146662D01*
X0236001Y0146960D02*
X0233991Y0146960D01*
X0234154Y0147259D02*
X0236022Y0147259D01*
X0235959Y0147558D02*
X0234171Y0147558D01*
X0234030Y0147856D02*
X0235820Y0147856D01*
X0235556Y0148155D02*
X0233348Y0148155D01*
X0233106Y0148155D02*
X0233029Y0148155D01*
X0233546Y0148453D02*
X0235096Y0148453D01*
X0237990Y0280667D02*
X0237793Y0280864D01*
X0237675Y0281061D01*
X0237478Y0281258D01*
X0237281Y0281494D01*
X0236809Y0281967D01*
X0236337Y0282518D01*
X0235943Y0282911D01*
X0235549Y0283148D01*
X0235313Y0283187D01*
X0234565Y0283187D01*
X0234093Y0283266D01*
X0233659Y0283384D01*
X0233266Y0283541D01*
X0232872Y0283778D01*
X0232557Y0284053D01*
X0232242Y0284368D01*
X0231967Y0284722D01*
X0231573Y0285431D01*
X0231376Y0286179D01*
X0231337Y0286848D01*
X0231455Y0287478D01*
X0231652Y0288069D01*
X0231927Y0288502D01*
X0232242Y0288856D01*
X0232557Y0289053D01*
X0232557Y0288699D01*
X0232596Y0288581D01*
X0232636Y0288502D01*
X0232754Y0288384D01*
X0232872Y0288344D01*
X0232990Y0288344D01*
X0233305Y0288423D01*
X0233463Y0288502D01*
X0233581Y0288581D01*
X0233738Y0288699D01*
X0233974Y0288935D01*
X0234132Y0289171D01*
X0234171Y0289329D01*
X0234171Y0289565D01*
X0234132Y0289683D01*
X0234093Y0289762D01*
X0234014Y0289880D01*
X0233856Y0289998D01*
X0233699Y0290077D01*
X0233502Y0290116D01*
X0233344Y0290156D01*
X0233108Y0290156D01*
X0233030Y0290116D01*
X0232990Y0290116D01*
X0233030Y0290156D01*
X0233187Y0290274D01*
X0233738Y0290549D01*
X0234093Y0290628D01*
X0234486Y0290628D01*
X0234919Y0290549D01*
X0235352Y0290313D01*
X0235707Y0290037D01*
X0235904Y0289722D01*
X0236022Y0289368D01*
X0236022Y0289053D01*
X0235943Y0288699D01*
X0235746Y0288344D01*
X0235470Y0288030D01*
X0235156Y0287675D01*
X0234880Y0287400D01*
X0234762Y0287085D01*
X0234762Y0286809D01*
X0234841Y0286573D01*
X0234998Y0286376D01*
X0235234Y0286219D01*
X0235549Y0286140D01*
X0235864Y0286140D01*
X0236061Y0286179D01*
X0236258Y0286258D01*
X0236494Y0286494D01*
X0236573Y0286612D01*
X0236612Y0286730D01*
X0236612Y0286888D01*
X0236573Y0287006D01*
X0236337Y0287242D01*
X0236219Y0287281D01*
X0236061Y0287360D01*
X0236022Y0287400D01*
X0236179Y0287478D01*
X0236652Y0287478D01*
X0236888Y0287439D01*
X0237085Y0287400D01*
X0237281Y0287321D01*
X0237439Y0287203D01*
X0237636Y0287045D01*
X0237872Y0286652D01*
X0237951Y0286376D01*
X0237990Y0286061D01*
X0237990Y0280667D01*
X0237990Y0280694D02*
X0237964Y0280694D01*
X0237990Y0280992D02*
X0237717Y0280992D01*
X0237451Y0281291D02*
X0237990Y0281291D01*
X0237990Y0281589D02*
X0237187Y0281589D01*
X0236888Y0281888D02*
X0237990Y0281888D01*
X0237990Y0282186D02*
X0236621Y0282186D01*
X0236365Y0282485D02*
X0237990Y0282485D01*
X0237990Y0282783D02*
X0236071Y0282783D01*
X0235659Y0283082D02*
X0237990Y0283082D01*
X0237990Y0283380D02*
X0233673Y0283380D01*
X0233037Y0283679D02*
X0237990Y0283679D01*
X0237990Y0283977D02*
X0232644Y0283977D01*
X0232335Y0284276D02*
X0237990Y0284276D01*
X0237990Y0284574D02*
X0232082Y0284574D01*
X0231883Y0284873D02*
X0237990Y0284873D01*
X0237990Y0285171D02*
X0231717Y0285171D01*
X0231563Y0285470D02*
X0237990Y0285470D01*
X0237990Y0285768D02*
X0231484Y0285768D01*
X0231406Y0286067D02*
X0237989Y0286067D01*
X0237952Y0286365D02*
X0236365Y0286365D01*
X0236590Y0286664D02*
X0237865Y0286664D01*
X0237686Y0286962D02*
X0236587Y0286962D01*
X0236281Y0287261D02*
X0237362Y0287261D01*
X0235807Y0288455D02*
X0233368Y0288455D01*
X0233793Y0288753D02*
X0235955Y0288753D01*
X0236021Y0289052D02*
X0234052Y0289052D01*
X0234171Y0289350D02*
X0236022Y0289350D01*
X0235928Y0289649D02*
X0234143Y0289649D01*
X0233924Y0289947D02*
X0235763Y0289947D01*
X0235439Y0290246D02*
X0233150Y0290246D01*
X0233729Y0290544D02*
X0234928Y0290544D01*
X0235581Y0288156D02*
X0231707Y0288156D01*
X0231581Y0287858D02*
X0235318Y0287858D01*
X0235040Y0287559D02*
X0231482Y0287559D01*
X0231414Y0287261D02*
X0234828Y0287261D01*
X0234762Y0286962D02*
X0231358Y0286962D01*
X0231347Y0286664D02*
X0234810Y0286664D01*
X0235014Y0286365D02*
X0231365Y0286365D01*
X0231897Y0288455D02*
X0232683Y0288455D01*
X0232557Y0288753D02*
X0232151Y0288753D01*
X0232555Y0289052D02*
X0232557Y0289052D01*
D12*
X0041150Y0117450D02*
X0041150Y0030150D01*
X0067340Y0030150D01*
X0066147Y0031343D01*
X0065500Y0032905D01*
X0065500Y0034595D01*
X0066147Y0036157D01*
X0067343Y0037353D01*
X0068905Y0038000D01*
X0070595Y0038000D01*
X0072157Y0037353D01*
X0073353Y0036157D01*
X0074000Y0034595D01*
X0074000Y0032905D01*
X0073353Y0031343D01*
X0072160Y0030150D01*
X0108278Y0030150D01*
X0108250Y0030231D01*
X0107806Y0031143D01*
X0107806Y0033357D01*
X0108081Y0033921D01*
X0108106Y0034144D01*
X0108243Y0034254D01*
X0108250Y0034268D01*
X0108461Y0034885D01*
X0108461Y0034885D01*
X0108461Y0034885D01*
X0109672Y0035750D01*
X0111161Y0035750D01*
X0112372Y0034885D01*
X0112372Y0034885D01*
X0112583Y0034268D01*
X0113028Y0033357D01*
X0113028Y0031594D01*
X0113184Y0031750D01*
X0113417Y0031750D01*
X0113417Y0034167D01*
X0113357Y0034702D01*
X0113417Y0034776D01*
X0113417Y0034871D01*
X0113797Y0035252D01*
X0114134Y0035672D01*
X0114228Y0035683D01*
X0114295Y0035750D01*
X0114834Y0035750D01*
X0115369Y0035809D01*
X0115443Y0035750D01*
X0115538Y0035750D01*
X0115919Y0035369D01*
X0116667Y0034771D01*
X0117020Y0035477D01*
X0118198Y0035869D01*
X0119310Y0035314D01*
X0119417Y0034993D01*
X0119523Y0035314D01*
X0120635Y0035869D01*
X0121814Y0035477D01*
X0122369Y0034365D01*
X0120998Y0030250D01*
X0121031Y0030150D01*
X0138450Y0030150D01*
X0138450Y0117450D01*
X0041150Y0117450D01*
X0041150Y0117385D02*
X0138450Y0117385D01*
X0138450Y0116586D02*
X0131998Y0116586D01*
X0131361Y0116850D02*
X0128139Y0116850D01*
X0125162Y0115617D01*
X0125162Y0115617D01*
X0122883Y0113338D01*
X0121650Y0110361D01*
X0121650Y0107139D01*
X0122883Y0104162D01*
X0125162Y0101883D01*
X0128139Y0100650D01*
X0130081Y0100650D01*
X0131361Y0100650D01*
X0131361Y0100650D01*
X0134338Y0101883D01*
X0134338Y0101883D01*
X0136617Y0104162D01*
X0137850Y0107139D01*
X0137850Y0110361D01*
X0136617Y0113338D01*
X0136617Y0113338D01*
X0134338Y0115617D01*
X0131361Y0116850D01*
X0133926Y0115788D02*
X0138450Y0115788D01*
X0138450Y0114989D02*
X0134966Y0114989D01*
X0134338Y0115617D02*
X0134338Y0115617D01*
X0135764Y0114191D02*
X0138450Y0114191D01*
X0138450Y0113392D02*
X0136563Y0113392D01*
X0136925Y0112594D02*
X0138450Y0112594D01*
X0138450Y0111795D02*
X0137256Y0111795D01*
X0137587Y0110997D02*
X0138450Y0110997D01*
X0138450Y0110198D02*
X0137850Y0110198D01*
X0137850Y0109400D02*
X0138450Y0109400D01*
X0138450Y0108601D02*
X0137850Y0108601D01*
X0137850Y0107803D02*
X0138450Y0107803D01*
X0138450Y0107004D02*
X0137794Y0107004D01*
X0137463Y0106206D02*
X0138450Y0106206D01*
X0138450Y0105407D02*
X0137133Y0105407D01*
X0136802Y0104609D02*
X0138450Y0104609D01*
X0138450Y0103810D02*
X0136265Y0103810D01*
X0136617Y0104162D02*
X0136617Y0104162D01*
X0135467Y0103012D02*
X0138450Y0103012D01*
X0138450Y0102213D02*
X0134668Y0102213D01*
X0133207Y0101415D02*
X0138450Y0101415D01*
X0138450Y0100616D02*
X0041150Y0100616D01*
X0041150Y0099818D02*
X0138450Y0099818D01*
X0138450Y0099019D02*
X0041150Y0099019D01*
X0041150Y0098220D02*
X0138450Y0098220D01*
X0138450Y0097422D02*
X0041150Y0097422D01*
X0041150Y0096623D02*
X0138450Y0096623D01*
X0138450Y0095825D02*
X0041150Y0095825D01*
X0041150Y0095026D02*
X0138450Y0095026D01*
X0138450Y0094228D02*
X0041150Y0094228D01*
X0041150Y0093429D02*
X0138450Y0093429D01*
X0138450Y0092631D02*
X0041150Y0092631D01*
X0041150Y0091832D02*
X0138450Y0091832D01*
X0138450Y0091034D02*
X0041150Y0091034D01*
X0041150Y0090235D02*
X0138450Y0090235D01*
X0138450Y0089437D02*
X0041150Y0089437D01*
X0041150Y0088638D02*
X0138450Y0088638D01*
X0138450Y0087840D02*
X0041150Y0087840D01*
X0041150Y0087041D02*
X0138450Y0087041D01*
X0138450Y0086243D02*
X0041150Y0086243D01*
X0041150Y0085444D02*
X0138450Y0085444D01*
X0138450Y0084646D02*
X0041150Y0084646D01*
X0041150Y0083847D02*
X0138450Y0083847D01*
X0138450Y0083049D02*
X0041150Y0083049D01*
X0041150Y0082250D02*
X0138450Y0082250D01*
X0138450Y0081452D02*
X0041150Y0081452D01*
X0041150Y0080653D02*
X0138450Y0080653D01*
X0138450Y0079855D02*
X0041150Y0079855D01*
X0041150Y0079056D02*
X0138450Y0079056D01*
X0138450Y0078258D02*
X0041150Y0078258D01*
X0041150Y0077459D02*
X0138450Y0077459D01*
X0138450Y0076661D02*
X0041150Y0076661D01*
X0041150Y0075862D02*
X0138450Y0075862D01*
X0138450Y0075064D02*
X0041150Y0075064D01*
X0041150Y0074265D02*
X0138450Y0074265D01*
X0138450Y0073467D02*
X0041150Y0073467D01*
X0041150Y0072668D02*
X0138450Y0072668D01*
X0138450Y0071870D02*
X0041150Y0071870D01*
X0041150Y0071071D02*
X0138450Y0071071D01*
X0138450Y0070273D02*
X0041150Y0070273D01*
X0041150Y0069474D02*
X0138450Y0069474D01*
X0138450Y0068676D02*
X0041150Y0068676D01*
X0041150Y0067877D02*
X0138450Y0067877D01*
X0138450Y0067079D02*
X0041150Y0067079D01*
X0041150Y0066280D02*
X0138450Y0066280D01*
X0138450Y0065482D02*
X0041150Y0065482D01*
X0041150Y0064683D02*
X0138450Y0064683D01*
X0138450Y0063884D02*
X0041150Y0063884D01*
X0041150Y0063086D02*
X0138450Y0063086D01*
X0138450Y0062287D02*
X0041150Y0062287D01*
X0041150Y0061489D02*
X0138450Y0061489D01*
X0138450Y0060690D02*
X0041150Y0060690D01*
X0041150Y0059892D02*
X0138450Y0059892D01*
X0138450Y0059093D02*
X0041150Y0059093D01*
X0041150Y0058295D02*
X0138450Y0058295D01*
X0138450Y0057496D02*
X0041150Y0057496D01*
X0041150Y0056698D02*
X0138450Y0056698D01*
X0138450Y0055899D02*
X0041150Y0055899D01*
X0041150Y0055101D02*
X0138450Y0055101D01*
X0138450Y0054302D02*
X0041150Y0054302D01*
X0041150Y0053504D02*
X0138450Y0053504D01*
X0138450Y0052705D02*
X0041150Y0052705D01*
X0041150Y0051907D02*
X0138450Y0051907D01*
X0138450Y0051108D02*
X0041150Y0051108D01*
X0041150Y0050310D02*
X0138450Y0050310D01*
X0138450Y0049511D02*
X0041150Y0049511D01*
X0041150Y0048713D02*
X0138450Y0048713D01*
X0138450Y0047914D02*
X0070802Y0047914D01*
X0070595Y0048000D02*
X0072157Y0047353D01*
X0073353Y0046157D01*
X0074000Y0044595D01*
X0074000Y0042905D01*
X0073353Y0041343D01*
X0072157Y0040147D01*
X0070595Y0039500D01*
X0068905Y0039500D01*
X0067343Y0040147D01*
X0066147Y0041343D01*
X0065500Y0042905D01*
X0065500Y0044595D01*
X0066147Y0046157D01*
X0067343Y0047353D01*
X0068905Y0048000D01*
X0070595Y0048000D01*
X0068698Y0047914D02*
X0041150Y0047914D01*
X0041150Y0047116D02*
X0067105Y0047116D01*
X0066307Y0046317D02*
X0052647Y0046317D01*
X0051361Y0046850D02*
X0048139Y0046850D01*
X0045162Y0045617D01*
X0045162Y0045617D01*
X0042883Y0043338D01*
X0041650Y0040361D01*
X0041650Y0037139D01*
X0042883Y0034162D01*
X0045162Y0031883D01*
X0048139Y0030650D01*
X0049419Y0030650D01*
X0051361Y0030650D01*
X0054338Y0031883D01*
X0056617Y0034162D01*
X0057850Y0037139D01*
X0057850Y0040361D01*
X0056617Y0043338D01*
X0056617Y0043338D01*
X0054338Y0045617D01*
X0051361Y0046850D01*
X0054338Y0045617D02*
X0054338Y0045617D01*
X0054338Y0045617D01*
X0054436Y0045519D02*
X0065882Y0045519D01*
X0065552Y0044720D02*
X0055235Y0044720D01*
X0056033Y0043922D02*
X0065500Y0043922D01*
X0065500Y0043123D02*
X0056706Y0043123D01*
X0057037Y0042325D02*
X0065740Y0042325D01*
X0066071Y0041526D02*
X0057367Y0041526D01*
X0057698Y0040728D02*
X0066762Y0040728D01*
X0067869Y0039929D02*
X0057850Y0039929D01*
X0057850Y0039131D02*
X0121650Y0039131D01*
X0121650Y0039929D02*
X0071631Y0039929D01*
X0072738Y0040728D02*
X0121802Y0040728D01*
X0121650Y0040361D02*
X0121650Y0037139D01*
X0122883Y0034162D01*
X0125162Y0031883D01*
X0128139Y0030650D01*
X0130081Y0030650D01*
X0131361Y0030650D01*
X0131361Y0030650D01*
X0134338Y0031883D01*
X0134338Y0031883D01*
X0136617Y0034162D01*
X0137850Y0037139D01*
X0137850Y0040361D01*
X0136617Y0043338D01*
X0136617Y0043338D01*
X0134338Y0045617D01*
X0131361Y0046850D01*
X0128139Y0046850D01*
X0125162Y0045617D01*
X0125162Y0045617D01*
X0122883Y0043338D01*
X0121650Y0040361D01*
X0122133Y0041526D02*
X0073429Y0041526D01*
X0073760Y0042325D02*
X0122463Y0042325D01*
X0122794Y0043123D02*
X0074000Y0043123D01*
X0074000Y0043922D02*
X0123467Y0043922D01*
X0122883Y0043338D02*
X0122883Y0043338D01*
X0124265Y0044720D02*
X0073948Y0044720D01*
X0073618Y0045519D02*
X0125064Y0045519D01*
X0126853Y0046317D02*
X0073193Y0046317D01*
X0072395Y0047116D02*
X0138450Y0047116D01*
X0138450Y0046317D02*
X0132647Y0046317D01*
X0134338Y0045617D02*
X0134338Y0045617D01*
X0134436Y0045519D02*
X0138450Y0045519D01*
X0138450Y0044720D02*
X0135235Y0044720D01*
X0136033Y0043922D02*
X0138450Y0043922D01*
X0138450Y0043123D02*
X0136706Y0043123D01*
X0137037Y0042325D02*
X0138450Y0042325D01*
X0138450Y0041526D02*
X0137367Y0041526D01*
X0137698Y0040728D02*
X0138450Y0040728D01*
X0138450Y0039929D02*
X0137850Y0039929D01*
X0137850Y0039131D02*
X0138450Y0039131D01*
X0138450Y0038332D02*
X0137850Y0038332D01*
X0137850Y0037534D02*
X0138450Y0037534D01*
X0138450Y0036735D02*
X0137683Y0036735D01*
X0137352Y0035937D02*
X0138450Y0035937D01*
X0138450Y0035138D02*
X0137021Y0035138D01*
X0136691Y0034340D02*
X0138450Y0034340D01*
X0138450Y0033541D02*
X0135996Y0033541D01*
X0136617Y0034162D02*
X0136617Y0034162D01*
X0135198Y0032743D02*
X0138450Y0032743D01*
X0138450Y0031944D02*
X0134399Y0031944D01*
X0132558Y0031146D02*
X0138450Y0031146D01*
X0138450Y0030347D02*
X0121030Y0030347D01*
X0121296Y0031146D02*
X0126942Y0031146D01*
X0125162Y0031883D02*
X0125162Y0031883D01*
X0125101Y0031944D02*
X0121562Y0031944D01*
X0121829Y0032743D02*
X0124302Y0032743D01*
X0123504Y0033541D02*
X0122095Y0033541D01*
X0122361Y0034340D02*
X0122809Y0034340D01*
X0122883Y0034162D02*
X0122883Y0034162D01*
X0122479Y0035138D02*
X0121983Y0035138D01*
X0122148Y0035937D02*
X0073444Y0035937D01*
X0073775Y0035138D02*
X0108816Y0035138D01*
X0108274Y0034340D02*
X0074000Y0034340D01*
X0074000Y0033541D02*
X0107895Y0033541D01*
X0107806Y0032743D02*
X0073933Y0032743D01*
X0073602Y0031944D02*
X0107806Y0031944D01*
X0107806Y0031146D02*
X0073156Y0031146D01*
X0072357Y0030347D02*
X0108194Y0030347D01*
X0113028Y0031944D02*
X0113417Y0031944D01*
X0113417Y0032743D02*
X0113028Y0032743D01*
X0112938Y0033541D02*
X0113417Y0033541D01*
X0113397Y0034340D02*
X0112559Y0034340D01*
X0112018Y0035138D02*
X0113683Y0035138D01*
X0116208Y0035138D02*
X0116850Y0035138D01*
X0119368Y0035138D02*
X0119465Y0035138D01*
X0121817Y0036735D02*
X0072775Y0036735D01*
X0071721Y0037534D02*
X0121650Y0037534D01*
X0121650Y0038332D02*
X0057850Y0038332D01*
X0057850Y0037534D02*
X0067779Y0037534D01*
X0066725Y0036735D02*
X0057683Y0036735D01*
X0057352Y0035937D02*
X0066056Y0035937D01*
X0065725Y0035138D02*
X0057021Y0035138D01*
X0056691Y0034340D02*
X0065500Y0034340D01*
X0065500Y0033541D02*
X0055996Y0033541D01*
X0056617Y0034162D02*
X0056617Y0034162D01*
X0055198Y0032743D02*
X0065567Y0032743D01*
X0065898Y0031944D02*
X0054399Y0031944D01*
X0054338Y0031883D02*
X0054338Y0031883D01*
X0052558Y0031146D02*
X0066344Y0031146D01*
X0067143Y0030347D02*
X0041150Y0030347D01*
X0041150Y0031146D02*
X0046942Y0031146D01*
X0045162Y0031883D02*
X0045162Y0031883D01*
X0045101Y0031944D02*
X0041150Y0031944D01*
X0041150Y0032743D02*
X0044302Y0032743D01*
X0043504Y0033541D02*
X0041150Y0033541D01*
X0041150Y0034340D02*
X0042809Y0034340D01*
X0042883Y0034162D02*
X0042883Y0034162D01*
X0042479Y0035138D02*
X0041150Y0035138D01*
X0041150Y0035937D02*
X0042148Y0035937D01*
X0041817Y0036735D02*
X0041150Y0036735D01*
X0041150Y0037534D02*
X0041650Y0037534D01*
X0041650Y0038332D02*
X0041150Y0038332D01*
X0041150Y0039131D02*
X0041650Y0039131D01*
X0041650Y0039929D02*
X0041150Y0039929D01*
X0041150Y0040728D02*
X0041802Y0040728D01*
X0042133Y0041526D02*
X0041150Y0041526D01*
X0041150Y0042325D02*
X0042463Y0042325D01*
X0042794Y0043123D02*
X0041150Y0043123D01*
X0041150Y0043922D02*
X0043467Y0043922D01*
X0042883Y0043338D02*
X0042883Y0043338D01*
X0044265Y0044720D02*
X0041150Y0044720D01*
X0041150Y0045519D02*
X0045064Y0045519D01*
X0046853Y0046317D02*
X0041150Y0046317D01*
X0048139Y0100650D02*
X0045162Y0101883D01*
X0045162Y0101883D01*
X0042883Y0104162D01*
X0041650Y0107139D01*
X0041650Y0107139D01*
X0041650Y0110361D01*
X0042883Y0113338D01*
X0042883Y0113338D01*
X0045162Y0115617D01*
X0045162Y0115617D01*
X0048139Y0116850D01*
X0051361Y0116850D01*
X0054338Y0115617D01*
X0054338Y0115617D01*
X0056617Y0113338D01*
X0056617Y0113338D01*
X0057850Y0110361D01*
X0057850Y0107139D01*
X0056617Y0104162D01*
X0056617Y0104162D01*
X0054338Y0101883D01*
X0054338Y0101883D01*
X0051361Y0100650D01*
X0049419Y0100650D01*
X0048139Y0100650D01*
X0046293Y0101415D02*
X0041150Y0101415D01*
X0041150Y0102213D02*
X0044832Y0102213D01*
X0044033Y0103012D02*
X0041150Y0103012D01*
X0041150Y0103810D02*
X0043235Y0103810D01*
X0042698Y0104609D02*
X0041150Y0104609D01*
X0041150Y0105407D02*
X0042367Y0105407D01*
X0042037Y0106206D02*
X0041150Y0106206D01*
X0041150Y0107004D02*
X0041706Y0107004D01*
X0041650Y0107803D02*
X0041150Y0107803D01*
X0041150Y0108601D02*
X0041650Y0108601D01*
X0041650Y0109400D02*
X0041150Y0109400D01*
X0041150Y0110198D02*
X0041650Y0110198D01*
X0041913Y0110997D02*
X0041150Y0110997D01*
X0041150Y0111795D02*
X0042244Y0111795D01*
X0042575Y0112594D02*
X0041150Y0112594D01*
X0041150Y0113392D02*
X0042937Y0113392D01*
X0043736Y0114191D02*
X0041150Y0114191D01*
X0041150Y0114989D02*
X0044534Y0114989D01*
X0045574Y0115788D02*
X0041150Y0115788D01*
X0041150Y0116586D02*
X0047502Y0116586D01*
X0051998Y0116586D02*
X0127502Y0116586D01*
X0125574Y0115788D02*
X0053926Y0115788D01*
X0054966Y0114989D02*
X0124534Y0114989D01*
X0123736Y0114191D02*
X0055764Y0114191D01*
X0056563Y0113392D02*
X0122937Y0113392D01*
X0122883Y0113338D02*
X0122883Y0113338D01*
X0122575Y0112594D02*
X0056925Y0112594D01*
X0057256Y0111795D02*
X0122244Y0111795D01*
X0121913Y0110997D02*
X0057587Y0110997D01*
X0057850Y0110198D02*
X0121650Y0110198D01*
X0121650Y0109400D02*
X0057850Y0109400D01*
X0057850Y0108601D02*
X0121650Y0108601D01*
X0121650Y0107803D02*
X0057850Y0107803D01*
X0057794Y0107004D02*
X0121706Y0107004D01*
X0122037Y0106206D02*
X0057463Y0106206D01*
X0057133Y0105407D02*
X0122367Y0105407D01*
X0122698Y0104609D02*
X0056802Y0104609D01*
X0056265Y0103810D02*
X0123235Y0103810D01*
X0122883Y0104162D02*
X0122883Y0104162D01*
X0124033Y0103012D02*
X0055467Y0103012D01*
X0054668Y0102213D02*
X0124832Y0102213D01*
X0125162Y0101883D02*
X0125162Y0101883D01*
X0126293Y0101415D02*
X0053207Y0101415D01*
X0041150Y0120050D02*
X0041150Y0147956D01*
X0070620Y0147956D01*
X0070855Y0148191D01*
X0070855Y0167350D01*
X0138450Y0167350D01*
X0138450Y0120050D01*
X0041150Y0120050D01*
X0041150Y0120579D02*
X0138450Y0120579D01*
X0138450Y0121377D02*
X0133117Y0121377D01*
X0134338Y0121883D02*
X0134338Y0121883D01*
X0131361Y0120650D01*
X0128139Y0120650D01*
X0125162Y0121883D01*
X0125162Y0121883D01*
X0125162Y0121883D01*
X0122883Y0124162D01*
X0122883Y0124162D01*
X0121650Y0127139D01*
X0121650Y0130361D01*
X0122883Y0133338D01*
X0122883Y0133338D01*
X0125162Y0135617D01*
X0125162Y0135617D01*
X0128139Y0136850D01*
X0131361Y0136850D01*
X0134338Y0135617D01*
X0134338Y0135617D01*
X0136617Y0133338D01*
X0136617Y0133338D01*
X0137850Y0130361D01*
X0137850Y0128419D01*
X0137850Y0127139D01*
X0136617Y0124162D01*
X0136617Y0124162D01*
X0134338Y0121883D01*
X0134631Y0122176D02*
X0138450Y0122176D01*
X0138450Y0122974D02*
X0135429Y0122974D01*
X0136228Y0123773D02*
X0138450Y0123773D01*
X0138450Y0124571D02*
X0136787Y0124571D01*
X0137117Y0125370D02*
X0138450Y0125370D01*
X0138450Y0126168D02*
X0137448Y0126168D01*
X0137779Y0126967D02*
X0138450Y0126967D01*
X0138450Y0127765D02*
X0137850Y0127765D01*
X0137850Y0128564D02*
X0138450Y0128564D01*
X0138450Y0129362D02*
X0137850Y0129362D01*
X0137850Y0130161D02*
X0138450Y0130161D01*
X0138450Y0130959D02*
X0137602Y0130959D01*
X0137271Y0131758D02*
X0138450Y0131758D01*
X0138450Y0132556D02*
X0136941Y0132556D01*
X0136600Y0133355D02*
X0138450Y0133355D01*
X0138450Y0134153D02*
X0135802Y0134153D01*
X0135003Y0134952D02*
X0138450Y0134952D01*
X0138450Y0135751D02*
X0134016Y0135751D01*
X0132088Y0136549D02*
X0138450Y0136549D01*
X0138450Y0137348D02*
X0087163Y0137348D01*
X0087157Y0137353D02*
X0085595Y0138000D01*
X0083905Y0138000D01*
X0082343Y0137353D01*
X0081147Y0136157D01*
X0080500Y0134595D01*
X0080500Y0132905D01*
X0081147Y0131343D01*
X0082343Y0130147D01*
X0083905Y0129500D01*
X0085595Y0129500D01*
X0087157Y0130147D01*
X0088353Y0131343D01*
X0089000Y0132905D01*
X0089000Y0134595D01*
X0088353Y0136157D01*
X0087157Y0137353D01*
X0087961Y0136549D02*
X0127412Y0136549D01*
X0125484Y0135751D02*
X0088522Y0135751D01*
X0088852Y0134952D02*
X0124497Y0134952D01*
X0123698Y0134153D02*
X0089000Y0134153D01*
X0089000Y0133355D02*
X0122900Y0133355D01*
X0122559Y0132556D02*
X0088856Y0132556D01*
X0088525Y0131758D02*
X0122229Y0131758D01*
X0121898Y0130959D02*
X0087970Y0130959D01*
X0087171Y0130161D02*
X0121650Y0130161D01*
X0121650Y0129362D02*
X0041150Y0129362D01*
X0041150Y0128564D02*
X0121650Y0128564D01*
X0121650Y0127765D02*
X0041150Y0127765D01*
X0041150Y0126967D02*
X0121721Y0126967D01*
X0122052Y0126168D02*
X0041150Y0126168D01*
X0041150Y0125370D02*
X0122383Y0125370D01*
X0122713Y0124571D02*
X0041150Y0124571D01*
X0041150Y0123773D02*
X0123272Y0123773D01*
X0124071Y0122974D02*
X0041150Y0122974D01*
X0041150Y0122176D02*
X0124869Y0122176D01*
X0126383Y0121377D02*
X0041150Y0121377D01*
X0041150Y0130161D02*
X0082329Y0130161D01*
X0081530Y0130959D02*
X0041150Y0130959D01*
X0041150Y0131758D02*
X0080975Y0131758D01*
X0080644Y0132556D02*
X0041150Y0132556D01*
X0041150Y0133355D02*
X0080500Y0133355D01*
X0080500Y0134153D02*
X0041150Y0134153D01*
X0041150Y0134952D02*
X0080648Y0134952D01*
X0080978Y0135751D02*
X0041150Y0135751D01*
X0041150Y0136549D02*
X0081539Y0136549D01*
X0082337Y0137348D02*
X0041150Y0137348D01*
X0041150Y0138146D02*
X0138450Y0138146D01*
X0138450Y0138945D02*
X0041150Y0138945D01*
X0041150Y0139743D02*
X0083318Y0139743D01*
X0083905Y0139500D02*
X0085595Y0139500D01*
X0087157Y0140147D01*
X0088353Y0141343D01*
X0089000Y0142905D01*
X0089000Y0144595D01*
X0088353Y0146157D01*
X0087157Y0147353D01*
X0085595Y0148000D01*
X0083905Y0148000D01*
X0082343Y0147353D01*
X0081147Y0146157D01*
X0080500Y0144595D01*
X0080500Y0142905D01*
X0081147Y0141343D01*
X0082343Y0140147D01*
X0083905Y0139500D01*
X0081948Y0140542D02*
X0041150Y0140542D01*
X0041150Y0141340D02*
X0081149Y0141340D01*
X0080817Y0142139D02*
X0041150Y0142139D01*
X0041150Y0142937D02*
X0080500Y0142937D01*
X0080500Y0143736D02*
X0041150Y0143736D01*
X0041150Y0144534D02*
X0080500Y0144534D01*
X0080805Y0145333D02*
X0041150Y0145333D01*
X0041150Y0146131D02*
X0081136Y0146131D01*
X0081919Y0146930D02*
X0041150Y0146930D01*
X0041150Y0147728D02*
X0083248Y0147728D01*
X0086252Y0147728D02*
X0138450Y0147728D01*
X0138450Y0146930D02*
X0087581Y0146930D01*
X0088364Y0146131D02*
X0138450Y0146131D01*
X0138450Y0145333D02*
X0088695Y0145333D01*
X0089000Y0144534D02*
X0138450Y0144534D01*
X0138450Y0143736D02*
X0089000Y0143736D01*
X0089000Y0142937D02*
X0138450Y0142937D01*
X0138450Y0142139D02*
X0088683Y0142139D01*
X0088350Y0141340D02*
X0138450Y0141340D01*
X0138450Y0140542D02*
X0087552Y0140542D01*
X0086182Y0139743D02*
X0138450Y0139743D01*
X0141050Y0139743D02*
X0228450Y0139743D01*
X0228450Y0138945D02*
X0141050Y0138945D01*
X0141050Y0138146D02*
X0228450Y0138146D01*
X0228450Y0137348D02*
X0141050Y0137348D01*
X0141050Y0136549D02*
X0147412Y0136549D01*
X0148139Y0136850D02*
X0145162Y0135617D01*
X0145162Y0135617D01*
X0142883Y0133338D01*
X0141650Y0130361D01*
X0141650Y0127139D01*
X0142883Y0124162D01*
X0145162Y0121883D01*
X0148139Y0120650D01*
X0151361Y0120650D01*
X0154338Y0121883D01*
X0156617Y0124162D01*
X0157850Y0127139D01*
X0157850Y0130361D01*
X0156617Y0133338D01*
X0156617Y0133338D01*
X0154338Y0135617D01*
X0151361Y0136850D01*
X0150081Y0136850D01*
X0148139Y0136850D01*
X0145484Y0135751D02*
X0141050Y0135751D01*
X0141050Y0134952D02*
X0144497Y0134952D01*
X0143698Y0134153D02*
X0141050Y0134153D01*
X0141050Y0133355D02*
X0142900Y0133355D01*
X0142883Y0133338D02*
X0142883Y0133338D01*
X0142559Y0132556D02*
X0141050Y0132556D01*
X0141050Y0131758D02*
X0142229Y0131758D01*
X0141898Y0130959D02*
X0141050Y0130959D01*
X0141050Y0130161D02*
X0141650Y0130161D01*
X0141650Y0129362D02*
X0141050Y0129362D01*
X0141050Y0128564D02*
X0141650Y0128564D01*
X0141650Y0127765D02*
X0141050Y0127765D01*
X0141050Y0126967D02*
X0141721Y0126967D01*
X0142052Y0126168D02*
X0141050Y0126168D01*
X0141050Y0125370D02*
X0142383Y0125370D01*
X0142713Y0124571D02*
X0141050Y0124571D01*
X0141050Y0123773D02*
X0143272Y0123773D01*
X0142883Y0124162D02*
X0142883Y0124162D01*
X0144071Y0122974D02*
X0141050Y0122974D01*
X0141050Y0122176D02*
X0144869Y0122176D01*
X0145162Y0121883D02*
X0145162Y0121883D01*
X0146383Y0121377D02*
X0141050Y0121377D01*
X0141050Y0120579D02*
X0166911Y0120579D01*
X0167343Y0120147D02*
X0167577Y0120050D01*
X0141050Y0120050D01*
X0141050Y0167350D01*
X0191476Y0167350D01*
X0191476Y0151576D01*
X0191710Y0151342D01*
X0207790Y0151342D01*
X0208024Y0151576D01*
X0208024Y0167350D01*
X0228450Y0167350D01*
X0228450Y0120050D01*
X0181923Y0120050D01*
X0182157Y0120147D01*
X0183353Y0121343D01*
X0184000Y0122905D01*
X0184000Y0124595D01*
X0183353Y0126157D01*
X0182157Y0127353D01*
X0180595Y0128000D01*
X0178905Y0128000D01*
X0177343Y0127353D01*
X0176147Y0126157D01*
X0175500Y0124595D01*
X0175500Y0122905D01*
X0176147Y0121343D01*
X0177343Y0120147D01*
X0177577Y0120050D01*
X0171923Y0120050D01*
X0172157Y0120147D01*
X0173353Y0121343D01*
X0174000Y0122905D01*
X0174000Y0124595D01*
X0173353Y0126157D01*
X0172157Y0127353D01*
X0170595Y0128000D01*
X0168905Y0128000D01*
X0167343Y0127353D01*
X0166147Y0126157D01*
X0165500Y0124595D01*
X0165500Y0122905D01*
X0166147Y0121343D01*
X0167343Y0120147D01*
X0166133Y0121377D02*
X0153117Y0121377D01*
X0154631Y0122176D02*
X0165802Y0122176D01*
X0165500Y0122974D02*
X0155429Y0122974D01*
X0156228Y0123773D02*
X0165500Y0123773D01*
X0165500Y0124571D02*
X0156787Y0124571D01*
X0156617Y0124162D02*
X0156617Y0124162D01*
X0157117Y0125370D02*
X0165821Y0125370D01*
X0166158Y0126168D02*
X0157448Y0126168D01*
X0157779Y0126967D02*
X0166956Y0126967D01*
X0168338Y0127765D02*
X0157850Y0127765D01*
X0157850Y0128564D02*
X0228450Y0128564D01*
X0228450Y0129362D02*
X0157850Y0129362D01*
X0157850Y0130161D02*
X0228450Y0130161D01*
X0228450Y0130959D02*
X0157602Y0130959D01*
X0157271Y0131758D02*
X0228450Y0131758D01*
X0228450Y0132556D02*
X0156941Y0132556D01*
X0156600Y0133355D02*
X0228450Y0133355D01*
X0228450Y0134153D02*
X0155802Y0134153D01*
X0155003Y0134952D02*
X0228450Y0134952D01*
X0228450Y0135751D02*
X0154016Y0135751D01*
X0154338Y0135617D02*
X0154338Y0135617D01*
X0152088Y0136549D02*
X0228450Y0136549D01*
X0231050Y0136549D02*
X0231539Y0136549D01*
X0231147Y0136157D02*
X0231050Y0135923D01*
X0231050Y0142004D01*
X0231092Y0141928D01*
X0231092Y0141892D01*
X0231138Y0141846D01*
X0231193Y0141748D01*
X0231254Y0141730D01*
X0231378Y0141606D01*
X0231440Y0141527D01*
X0231441Y0141501D01*
X0231498Y0141452D01*
X0231627Y0141286D01*
X0231697Y0141277D01*
X0231771Y0141213D01*
X0231847Y0141137D01*
X0231872Y0141037D01*
X0232061Y0140923D01*
X0232081Y0140903D01*
X0232094Y0140903D01*
X0232192Y0140844D01*
X0232386Y0140675D01*
X0232396Y0140650D01*
X0232428Y0140638D01*
X0232473Y0140598D01*
X0232519Y0140601D01*
X0232753Y0140508D01*
X0232879Y0140433D01*
X0232897Y0140400D01*
X0232963Y0140382D01*
X0233083Y0140310D01*
X0233157Y0140329D01*
X0233293Y0140292D01*
X0233408Y0140246D01*
X0233434Y0140210D01*
X0233545Y0140191D01*
X0233675Y0140139D01*
X0233726Y0140161D01*
X0233846Y0140141D01*
X0234037Y0140089D01*
X0234089Y0140037D01*
X0234227Y0140037D01*
X0234249Y0140031D01*
X0234260Y0140037D01*
X0234470Y0140037D01*
X0234846Y0139974D01*
X0234933Y0140037D01*
X0235165Y0140037D01*
X0235230Y0139998D01*
X0235492Y0139736D01*
X0235659Y0139541D01*
X0235659Y0139490D01*
X0235965Y0139185D01*
X0236246Y0138856D01*
X0236297Y0138853D01*
X0236328Y0138821D01*
X0236328Y0138782D01*
X0236628Y0138482D01*
X0236643Y0138464D01*
X0236643Y0138388D01*
X0236880Y0138151D01*
X0237052Y0137864D01*
X0237205Y0137826D01*
X0237514Y0137517D01*
X0238466Y0137517D01*
X0239140Y0138191D01*
X0239140Y0143666D01*
X0239190Y0143731D01*
X0239140Y0144133D01*
X0239140Y0144149D01*
X0239187Y0144234D01*
X0239140Y0144399D01*
X0239140Y0144537D01*
X0239085Y0144593D01*
X0239081Y0144607D01*
X0239069Y0144699D01*
X0239103Y0144835D01*
X0239039Y0144942D01*
X0239033Y0144991D01*
X0238989Y0145026D01*
X0238936Y0145113D01*
X0238847Y0145426D01*
X0238744Y0145483D01*
X0238726Y0145646D01*
X0238516Y0145814D01*
X0238513Y0145819D01*
X0238510Y0145837D01*
X0238495Y0145848D01*
X0238377Y0146045D01*
X0238204Y0146089D01*
X0238151Y0146212D01*
X0237886Y0146317D01*
X0237819Y0146372D01*
X0237777Y0146434D01*
X0237691Y0146451D01*
X0237590Y0146527D01*
X0237465Y0146509D01*
X0237368Y0146525D01*
X0237172Y0146603D01*
X0237172Y0146927D01*
X0237240Y0147232D01*
X0237263Y0147280D01*
X0237172Y0147555D01*
X0237172Y0147844D01*
X0237123Y0147893D01*
X0237131Y0147928D01*
X0236951Y0148216D01*
X0236844Y0148538D01*
X0236800Y0148560D01*
X0236789Y0148653D01*
X0236574Y0148820D01*
X0236429Y0149051D01*
X0236327Y0149074D01*
X0236321Y0149094D01*
X0235985Y0149278D01*
X0235682Y0149513D01*
X0235653Y0149510D01*
X0235594Y0149595D01*
X0235307Y0149648D01*
X0235052Y0149787D01*
X0234976Y0149765D01*
X0234963Y0149778D01*
X0234590Y0149778D01*
X0234362Y0149819D01*
X0234308Y0149854D01*
X0234247Y0149840D01*
X0234223Y0149845D01*
X0234203Y0149831D01*
X0233966Y0149778D01*
X0233689Y0149778D01*
X0233650Y0149791D01*
X0233624Y0149778D01*
X0233616Y0149778D01*
X0233608Y0149770D01*
X0233351Y0149641D01*
X0233024Y0149568D01*
X0232960Y0149468D01*
X0232878Y0149479D01*
X0232646Y0149305D01*
X0232553Y0149305D01*
X0232427Y0149179D01*
X0232247Y0149089D01*
X0232215Y0148995D01*
X0232089Y0148932D01*
X0232070Y0148873D01*
X0231958Y0148790D01*
X0231945Y0148698D01*
X0231840Y0148592D01*
X0231840Y0148185D01*
X0231788Y0148028D01*
X0231810Y0147983D01*
X0231699Y0147976D01*
X0231492Y0147744D01*
X0231229Y0147579D01*
X0231216Y0147522D01*
X0231213Y0147521D01*
X0231050Y0147266D01*
X0231050Y0167350D01*
X0278350Y0167350D01*
X0278350Y0164004D01*
X0259250Y0164004D01*
X0259015Y0163770D01*
X0259015Y0132730D01*
X0259250Y0132496D01*
X0278350Y0132496D01*
X0278350Y0120050D01*
X0236923Y0120050D01*
X0237157Y0120147D01*
X0238353Y0121343D01*
X0239000Y0122905D01*
X0239000Y0124595D01*
X0238353Y0126157D01*
X0237157Y0127353D01*
X0235595Y0128000D01*
X0233905Y0128000D01*
X0232343Y0127353D01*
X0231147Y0126157D01*
X0231050Y0125923D01*
X0231050Y0131577D01*
X0231147Y0131343D01*
X0232343Y0130147D01*
X0233905Y0129500D01*
X0235595Y0129500D01*
X0237157Y0130147D01*
X0238353Y0131343D01*
X0239000Y0132905D01*
X0239000Y0134595D01*
X0238353Y0136157D01*
X0237157Y0137353D01*
X0235595Y0138000D01*
X0233905Y0138000D01*
X0232343Y0137353D01*
X0231147Y0136157D01*
X0231050Y0137348D02*
X0232337Y0137348D01*
X0231050Y0138146D02*
X0236883Y0138146D01*
X0237163Y0137348D02*
X0259015Y0137348D01*
X0259015Y0138146D02*
X0239095Y0138146D01*
X0239140Y0138945D02*
X0259015Y0138945D01*
X0259015Y0139743D02*
X0239140Y0139743D01*
X0239140Y0140542D02*
X0259015Y0140542D01*
X0259015Y0141340D02*
X0239140Y0141340D01*
X0239140Y0142139D02*
X0259015Y0142139D01*
X0259015Y0142937D02*
X0239140Y0142937D01*
X0239190Y0143736D02*
X0259015Y0143736D01*
X0259015Y0144534D02*
X0239140Y0144534D01*
X0238873Y0145333D02*
X0259015Y0145333D01*
X0259015Y0146131D02*
X0238185Y0146131D01*
X0237172Y0146930D02*
X0259015Y0146930D01*
X0259015Y0147728D02*
X0237172Y0147728D01*
X0236848Y0148527D02*
X0259015Y0148527D01*
X0259015Y0149325D02*
X0235924Y0149325D01*
X0237482Y0150922D02*
X0231050Y0150922D01*
X0231050Y0150124D02*
X0259015Y0150124D01*
X0259015Y0150922D02*
X0242018Y0150922D01*
X0241361Y0150650D02*
X0244338Y0151883D01*
X0244338Y0151883D01*
X0246617Y0154162D01*
X0247850Y0157139D01*
X0247850Y0159081D01*
X0247850Y0160361D01*
X0246617Y0163338D01*
X0246617Y0163338D01*
X0244338Y0165617D01*
X0241361Y0166850D01*
X0238139Y0166850D01*
X0235162Y0165617D01*
X0235162Y0165617D01*
X0232883Y0163338D01*
X0231650Y0160361D01*
X0231650Y0157139D01*
X0232883Y0154162D01*
X0235162Y0151883D01*
X0238139Y0150650D01*
X0241361Y0150650D01*
X0243946Y0151721D02*
X0259015Y0151721D01*
X0259015Y0152519D02*
X0244974Y0152519D01*
X0245773Y0153318D02*
X0259015Y0153318D01*
X0259015Y0154116D02*
X0246571Y0154116D01*
X0246617Y0154162D02*
X0246617Y0154162D01*
X0246929Y0154915D02*
X0259015Y0154915D01*
X0259015Y0155713D02*
X0247260Y0155713D01*
X0247590Y0156512D02*
X0259015Y0156512D01*
X0259015Y0157310D02*
X0247850Y0157310D01*
X0247850Y0158109D02*
X0259015Y0158109D01*
X0259015Y0158907D02*
X0247850Y0158907D01*
X0247850Y0159706D02*
X0259015Y0159706D01*
X0259015Y0160504D02*
X0247791Y0160504D01*
X0247460Y0161303D02*
X0259015Y0161303D01*
X0259015Y0162101D02*
X0247129Y0162101D01*
X0246798Y0162900D02*
X0259015Y0162900D01*
X0259015Y0163698D02*
X0246257Y0163698D01*
X0245458Y0164497D02*
X0278350Y0164497D01*
X0278350Y0165295D02*
X0244660Y0165295D01*
X0244338Y0165617D02*
X0244338Y0165617D01*
X0244338Y0165617D01*
X0243186Y0166094D02*
X0278350Y0166094D01*
X0278350Y0166892D02*
X0231050Y0166892D01*
X0231050Y0166094D02*
X0236314Y0166094D01*
X0234840Y0165295D02*
X0231050Y0165295D01*
X0231050Y0164497D02*
X0234042Y0164497D01*
X0233243Y0163698D02*
X0231050Y0163698D01*
X0231050Y0162900D02*
X0232702Y0162900D01*
X0232883Y0163338D02*
X0232883Y0163338D01*
X0232371Y0162101D02*
X0231050Y0162101D01*
X0231050Y0161303D02*
X0232040Y0161303D01*
X0231709Y0160504D02*
X0231050Y0160504D01*
X0231050Y0159706D02*
X0231650Y0159706D01*
X0231650Y0158907D02*
X0231050Y0158907D01*
X0231050Y0158109D02*
X0231650Y0158109D01*
X0231650Y0157310D02*
X0231050Y0157310D01*
X0231050Y0156512D02*
X0231910Y0156512D01*
X0232240Y0155713D02*
X0231050Y0155713D01*
X0231050Y0154915D02*
X0232571Y0154915D01*
X0232883Y0154162D02*
X0232883Y0154162D01*
X0232929Y0154116D02*
X0231050Y0154116D01*
X0231050Y0153318D02*
X0233727Y0153318D01*
X0234526Y0152519D02*
X0231050Y0152519D01*
X0231050Y0151721D02*
X0235554Y0151721D01*
X0235162Y0151883D02*
X0235162Y0151883D01*
X0232672Y0149325D02*
X0231050Y0149325D01*
X0231050Y0148527D02*
X0231840Y0148527D01*
X0231467Y0147728D02*
X0231050Y0147728D01*
X0228450Y0147728D02*
X0141050Y0147728D01*
X0141050Y0146930D02*
X0228450Y0146930D01*
X0228450Y0146131D02*
X0141050Y0146131D01*
X0141050Y0145333D02*
X0228450Y0145333D01*
X0228450Y0144534D02*
X0141050Y0144534D01*
X0141050Y0143736D02*
X0228450Y0143736D01*
X0228450Y0142937D02*
X0141050Y0142937D01*
X0141050Y0142139D02*
X0228450Y0142139D01*
X0228450Y0141340D02*
X0141050Y0141340D01*
X0141050Y0140542D02*
X0228450Y0140542D01*
X0231050Y0140542D02*
X0232669Y0140542D01*
X0231585Y0141340D02*
X0231050Y0141340D01*
X0231050Y0139743D02*
X0235485Y0139743D01*
X0236170Y0138945D02*
X0231050Y0138945D01*
X0237961Y0136549D02*
X0259015Y0136549D01*
X0259015Y0135751D02*
X0238522Y0135751D01*
X0238852Y0134952D02*
X0259015Y0134952D01*
X0259015Y0134153D02*
X0239000Y0134153D01*
X0239000Y0133355D02*
X0259015Y0133355D01*
X0259189Y0132556D02*
X0238856Y0132556D01*
X0238525Y0131758D02*
X0278350Y0131758D01*
X0278350Y0130959D02*
X0237970Y0130959D01*
X0237171Y0130161D02*
X0278350Y0130161D01*
X0278350Y0129362D02*
X0231050Y0129362D01*
X0231050Y0128564D02*
X0278350Y0128564D01*
X0278350Y0127765D02*
X0236162Y0127765D01*
X0237543Y0126967D02*
X0278350Y0126967D01*
X0278350Y0126168D02*
X0238342Y0126168D01*
X0238679Y0125370D02*
X0278350Y0125370D01*
X0278350Y0124571D02*
X0239000Y0124571D01*
X0239000Y0123773D02*
X0278350Y0123773D01*
X0278350Y0122974D02*
X0239000Y0122974D01*
X0238698Y0122176D02*
X0278350Y0122176D01*
X0278350Y0121377D02*
X0238367Y0121377D01*
X0237589Y0120579D02*
X0278350Y0120579D01*
X0278350Y0117450D02*
X0278350Y0076160D01*
X0277157Y0077353D01*
X0275595Y0078000D01*
X0273905Y0078000D01*
X0272343Y0077353D01*
X0271147Y0076157D01*
X0270500Y0074595D01*
X0270500Y0072905D01*
X0271147Y0071343D01*
X0272343Y0070147D01*
X0273905Y0069500D01*
X0275595Y0069500D01*
X0277157Y0070147D01*
X0278350Y0071340D01*
X0278350Y0030150D01*
X0253024Y0030150D01*
X0253024Y0057038D01*
X0252790Y0057272D01*
X0236710Y0057272D01*
X0236476Y0057038D01*
X0236476Y0030150D01*
X0231050Y0030150D01*
X0231050Y0117450D01*
X0278350Y0117450D01*
X0278350Y0117385D02*
X0231050Y0117385D01*
X0231050Y0116586D02*
X0237502Y0116586D01*
X0238139Y0116850D02*
X0235162Y0115617D01*
X0235162Y0115617D01*
X0232883Y0113338D01*
X0231650Y0110361D01*
X0231650Y0109081D01*
X0231650Y0107139D01*
X0232883Y0104162D01*
X0235162Y0101883D01*
X0238139Y0100650D01*
X0241361Y0100650D01*
X0244338Y0101883D01*
X0244338Y0101883D01*
X0246617Y0104162D01*
X0247850Y0107139D01*
X0247850Y0110361D01*
X0246617Y0113338D01*
X0246617Y0113338D01*
X0244338Y0115617D01*
X0241361Y0116850D01*
X0238139Y0116850D01*
X0235574Y0115788D02*
X0231050Y0115788D01*
X0231050Y0114989D02*
X0234534Y0114989D01*
X0233736Y0114191D02*
X0231050Y0114191D01*
X0231050Y0113392D02*
X0232937Y0113392D01*
X0232883Y0113338D02*
X0232883Y0113338D01*
X0232575Y0112594D02*
X0231050Y0112594D01*
X0231050Y0111795D02*
X0232244Y0111795D01*
X0231913Y0110997D02*
X0231050Y0110997D01*
X0231050Y0110198D02*
X0231650Y0110198D01*
X0231650Y0109400D02*
X0231050Y0109400D01*
X0231050Y0108601D02*
X0231650Y0108601D01*
X0231650Y0107803D02*
X0231050Y0107803D01*
X0231050Y0107004D02*
X0231706Y0107004D01*
X0232037Y0106206D02*
X0231050Y0106206D01*
X0231050Y0105407D02*
X0232367Y0105407D01*
X0232698Y0104609D02*
X0231050Y0104609D01*
X0231050Y0103810D02*
X0233235Y0103810D01*
X0232883Y0104162D02*
X0232883Y0104162D01*
X0234033Y0103012D02*
X0231050Y0103012D01*
X0231050Y0102213D02*
X0234832Y0102213D01*
X0235162Y0101883D02*
X0235162Y0101883D01*
X0236293Y0101415D02*
X0231050Y0101415D01*
X0231050Y0100616D02*
X0278350Y0100616D01*
X0278350Y0099818D02*
X0231050Y0099818D01*
X0231050Y0099019D02*
X0278350Y0099019D01*
X0278350Y0098220D02*
X0231050Y0098220D01*
X0231050Y0097422D02*
X0278350Y0097422D01*
X0278350Y0096623D02*
X0231050Y0096623D01*
X0231050Y0095825D02*
X0278350Y0095825D01*
X0278350Y0095026D02*
X0231050Y0095026D01*
X0231050Y0094228D02*
X0278350Y0094228D01*
X0278350Y0093429D02*
X0231050Y0093429D01*
X0231050Y0092631D02*
X0278350Y0092631D01*
X0278350Y0091832D02*
X0231050Y0091832D01*
X0231050Y0091034D02*
X0278350Y0091034D01*
X0278350Y0090235D02*
X0231050Y0090235D01*
X0231050Y0089437D02*
X0278350Y0089437D01*
X0278350Y0088638D02*
X0231050Y0088638D01*
X0231050Y0087840D02*
X0278350Y0087840D01*
X0278350Y0087041D02*
X0231050Y0087041D01*
X0231050Y0086243D02*
X0278350Y0086243D01*
X0278350Y0085444D02*
X0231050Y0085444D01*
X0231050Y0084646D02*
X0278350Y0084646D01*
X0278350Y0083847D02*
X0231050Y0083847D01*
X0231050Y0083049D02*
X0278350Y0083049D01*
X0278350Y0082250D02*
X0231050Y0082250D01*
X0231050Y0081452D02*
X0278350Y0081452D01*
X0278350Y0080653D02*
X0231050Y0080653D01*
X0231050Y0079855D02*
X0278350Y0079855D01*
X0278350Y0079056D02*
X0231050Y0079056D01*
X0231050Y0078258D02*
X0278350Y0078258D01*
X0278350Y0077459D02*
X0276901Y0077459D01*
X0277850Y0076661D02*
X0278350Y0076661D01*
X0278350Y0071071D02*
X0278081Y0071071D01*
X0278350Y0070273D02*
X0277283Y0070273D01*
X0278350Y0069474D02*
X0231050Y0069474D01*
X0231050Y0068676D02*
X0278350Y0068676D01*
X0278350Y0067877D02*
X0231050Y0067877D01*
X0231050Y0067079D02*
X0278350Y0067079D01*
X0278350Y0066280D02*
X0231050Y0066280D01*
X0231050Y0065482D02*
X0278350Y0065482D01*
X0278350Y0064683D02*
X0231050Y0064683D01*
X0231050Y0063884D02*
X0278350Y0063884D01*
X0278350Y0063086D02*
X0231050Y0063086D01*
X0231050Y0062287D02*
X0278350Y0062287D01*
X0278350Y0061489D02*
X0231050Y0061489D01*
X0231050Y0060690D02*
X0278350Y0060690D01*
X0278350Y0059892D02*
X0231050Y0059892D01*
X0231050Y0059093D02*
X0278350Y0059093D01*
X0278350Y0058295D02*
X0231050Y0058295D01*
X0231050Y0057496D02*
X0278350Y0057496D01*
X0278350Y0056698D02*
X0253024Y0056698D01*
X0253024Y0055899D02*
X0278350Y0055899D01*
X0278350Y0055101D02*
X0253024Y0055101D01*
X0253024Y0054302D02*
X0278350Y0054302D01*
X0278350Y0053504D02*
X0253024Y0053504D01*
X0253024Y0052705D02*
X0278350Y0052705D01*
X0278350Y0051907D02*
X0253024Y0051907D01*
X0253024Y0051108D02*
X0278350Y0051108D01*
X0278350Y0050310D02*
X0253024Y0050310D01*
X0253024Y0049511D02*
X0278350Y0049511D01*
X0278350Y0048713D02*
X0253024Y0048713D01*
X0253024Y0047914D02*
X0278350Y0047914D01*
X0278350Y0047116D02*
X0253024Y0047116D01*
X0253024Y0046317D02*
X0278350Y0046317D01*
X0278350Y0045519D02*
X0253024Y0045519D01*
X0253024Y0044720D02*
X0278350Y0044720D01*
X0278350Y0043922D02*
X0253024Y0043922D01*
X0253024Y0043123D02*
X0278350Y0043123D01*
X0278350Y0042325D02*
X0253024Y0042325D01*
X0253024Y0041526D02*
X0278350Y0041526D01*
X0278350Y0040728D02*
X0253024Y0040728D01*
X0253024Y0039929D02*
X0278350Y0039929D01*
X0278350Y0039131D02*
X0253024Y0039131D01*
X0253024Y0038332D02*
X0278350Y0038332D01*
X0278350Y0037534D02*
X0253024Y0037534D01*
X0253024Y0036735D02*
X0278350Y0036735D01*
X0278350Y0035937D02*
X0253024Y0035937D01*
X0253024Y0035138D02*
X0278350Y0035138D01*
X0278350Y0034340D02*
X0253024Y0034340D01*
X0253024Y0033541D02*
X0278350Y0033541D01*
X0278350Y0032743D02*
X0253024Y0032743D01*
X0253024Y0031944D02*
X0278350Y0031944D01*
X0278350Y0031146D02*
X0253024Y0031146D01*
X0253024Y0030347D02*
X0278350Y0030347D01*
X0272217Y0070273D02*
X0262283Y0070273D01*
X0262157Y0070147D02*
X0263353Y0071343D01*
X0264000Y0072905D01*
X0264000Y0074595D01*
X0263353Y0076157D01*
X0262157Y0077353D01*
X0260595Y0078000D01*
X0258905Y0078000D01*
X0257343Y0077353D01*
X0256147Y0076157D01*
X0255500Y0074595D01*
X0255500Y0072905D01*
X0256147Y0071343D01*
X0257343Y0070147D01*
X0258905Y0069500D01*
X0260595Y0069500D01*
X0262157Y0070147D01*
X0263081Y0071071D02*
X0271418Y0071071D01*
X0270929Y0071870D02*
X0263571Y0071870D01*
X0263902Y0072668D02*
X0270598Y0072668D01*
X0270500Y0073467D02*
X0264000Y0073467D01*
X0264000Y0074265D02*
X0270500Y0074265D01*
X0270694Y0075064D02*
X0263806Y0075064D01*
X0263475Y0075862D02*
X0271025Y0075862D01*
X0271650Y0076661D02*
X0262850Y0076661D01*
X0261901Y0077459D02*
X0272599Y0077459D01*
X0257599Y0077459D02*
X0231050Y0077459D01*
X0231050Y0076661D02*
X0256650Y0076661D01*
X0256025Y0075862D02*
X0231050Y0075862D01*
X0231050Y0075064D02*
X0255694Y0075064D01*
X0255500Y0074265D02*
X0231050Y0074265D01*
X0231050Y0073467D02*
X0255500Y0073467D01*
X0255598Y0072668D02*
X0231050Y0072668D01*
X0231050Y0071870D02*
X0255929Y0071870D01*
X0256418Y0071071D02*
X0231050Y0071071D01*
X0231050Y0070273D02*
X0257217Y0070273D01*
X0236476Y0056698D02*
X0231050Y0056698D01*
X0231050Y0055899D02*
X0236476Y0055899D01*
X0236476Y0055101D02*
X0231050Y0055101D01*
X0231050Y0054302D02*
X0236476Y0054302D01*
X0236476Y0053504D02*
X0231050Y0053504D01*
X0231050Y0052705D02*
X0236476Y0052705D01*
X0236476Y0051907D02*
X0231050Y0051907D01*
X0231050Y0051108D02*
X0236476Y0051108D01*
X0236476Y0050310D02*
X0231050Y0050310D01*
X0231050Y0049511D02*
X0236476Y0049511D01*
X0236476Y0048713D02*
X0231050Y0048713D01*
X0231050Y0047914D02*
X0236476Y0047914D01*
X0236476Y0047116D02*
X0231050Y0047116D01*
X0231050Y0046317D02*
X0236476Y0046317D01*
X0236476Y0045519D02*
X0231050Y0045519D01*
X0231050Y0044720D02*
X0236476Y0044720D01*
X0236476Y0043922D02*
X0231050Y0043922D01*
X0231050Y0043123D02*
X0236476Y0043123D01*
X0236476Y0042325D02*
X0231050Y0042325D01*
X0231050Y0041526D02*
X0236476Y0041526D01*
X0236476Y0040728D02*
X0231050Y0040728D01*
X0231050Y0039929D02*
X0236476Y0039929D01*
X0236476Y0039131D02*
X0231050Y0039131D01*
X0231050Y0038332D02*
X0236476Y0038332D01*
X0236476Y0037534D02*
X0231050Y0037534D01*
X0231050Y0036735D02*
X0236476Y0036735D01*
X0236476Y0035937D02*
X0231050Y0035937D01*
X0231050Y0035138D02*
X0236476Y0035138D01*
X0236476Y0034340D02*
X0231050Y0034340D01*
X0231050Y0033541D02*
X0236476Y0033541D01*
X0236476Y0032743D02*
X0231050Y0032743D01*
X0231050Y0031944D02*
X0236476Y0031944D01*
X0236476Y0031146D02*
X0231050Y0031146D01*
X0231050Y0030347D02*
X0236476Y0030347D01*
X0228450Y0030347D02*
X0141050Y0030347D01*
X0141050Y0030150D02*
X0228450Y0030150D01*
X0228450Y0117450D01*
X0141050Y0117450D01*
X0141050Y0095923D01*
X0141147Y0096157D01*
X0142343Y0097353D01*
X0143905Y0098000D01*
X0145595Y0098000D01*
X0147157Y0097353D01*
X0148353Y0096157D01*
X0149000Y0094595D01*
X0149000Y0092905D01*
X0148353Y0091343D01*
X0147157Y0090147D01*
X0145595Y0089500D01*
X0143905Y0089500D01*
X0142343Y0090147D01*
X0141147Y0091343D01*
X0141050Y0091577D01*
X0141050Y0030150D01*
X0141050Y0031146D02*
X0228450Y0031146D01*
X0228450Y0031944D02*
X0141050Y0031944D01*
X0141050Y0032743D02*
X0228450Y0032743D01*
X0228450Y0033541D02*
X0141050Y0033541D01*
X0141050Y0034340D02*
X0228450Y0034340D01*
X0228450Y0035138D02*
X0141050Y0035138D01*
X0141050Y0035937D02*
X0228450Y0035937D01*
X0228450Y0036735D02*
X0141050Y0036735D01*
X0141050Y0037534D02*
X0228450Y0037534D01*
X0228450Y0038332D02*
X0141050Y0038332D01*
X0141050Y0039131D02*
X0228450Y0039131D01*
X0228450Y0039929D02*
X0141050Y0039929D01*
X0141050Y0040728D02*
X0228450Y0040728D01*
X0228450Y0041526D02*
X0141050Y0041526D01*
X0141050Y0042325D02*
X0228450Y0042325D01*
X0228450Y0043123D02*
X0141050Y0043123D01*
X0141050Y0043922D02*
X0228450Y0043922D01*
X0228450Y0044720D02*
X0141050Y0044720D01*
X0141050Y0045519D02*
X0228450Y0045519D01*
X0228450Y0046317D02*
X0141050Y0046317D01*
X0141050Y0047116D02*
X0228450Y0047116D01*
X0228450Y0047914D02*
X0141050Y0047914D01*
X0141050Y0048713D02*
X0228450Y0048713D01*
X0228450Y0049511D02*
X0141050Y0049511D01*
X0141050Y0050310D02*
X0228450Y0050310D01*
X0228450Y0051108D02*
X0141050Y0051108D01*
X0141050Y0051907D02*
X0228450Y0051907D01*
X0228450Y0052705D02*
X0141050Y0052705D01*
X0141050Y0053504D02*
X0228450Y0053504D01*
X0228450Y0054302D02*
X0141050Y0054302D01*
X0141050Y0055101D02*
X0228450Y0055101D01*
X0228450Y0055899D02*
X0141050Y0055899D01*
X0141050Y0056698D02*
X0228450Y0056698D01*
X0228450Y0057496D02*
X0141050Y0057496D01*
X0141050Y0058295D02*
X0228450Y0058295D01*
X0228450Y0059093D02*
X0141050Y0059093D01*
X0141050Y0059892D02*
X0228450Y0059892D01*
X0228450Y0060690D02*
X0141050Y0060690D01*
X0141050Y0061489D02*
X0228450Y0061489D01*
X0228450Y0062287D02*
X0141050Y0062287D01*
X0141050Y0063086D02*
X0228450Y0063086D01*
X0228450Y0063884D02*
X0141050Y0063884D01*
X0141050Y0064683D02*
X0228450Y0064683D01*
X0228450Y0065482D02*
X0141050Y0065482D01*
X0141050Y0066280D02*
X0228450Y0066280D01*
X0228450Y0067079D02*
X0141050Y0067079D01*
X0141050Y0067877D02*
X0228450Y0067877D01*
X0228450Y0068676D02*
X0141050Y0068676D01*
X0141050Y0069474D02*
X0228450Y0069474D01*
X0228450Y0070273D02*
X0141050Y0070273D01*
X0141050Y0071071D02*
X0228450Y0071071D01*
X0228450Y0071870D02*
X0141050Y0071870D01*
X0141050Y0072668D02*
X0228450Y0072668D01*
X0228450Y0073467D02*
X0141050Y0073467D01*
X0141050Y0074265D02*
X0228450Y0074265D01*
X0228450Y0075064D02*
X0141050Y0075064D01*
X0141050Y0075862D02*
X0228450Y0075862D01*
X0228450Y0076661D02*
X0141050Y0076661D01*
X0141050Y0077459D02*
X0228450Y0077459D01*
X0228450Y0078258D02*
X0141050Y0078258D01*
X0141050Y0079056D02*
X0228450Y0079056D01*
X0228450Y0079855D02*
X0141050Y0079855D01*
X0141050Y0080653D02*
X0228450Y0080653D01*
X0228450Y0081452D02*
X0141050Y0081452D01*
X0141050Y0082250D02*
X0228450Y0082250D01*
X0228450Y0083049D02*
X0141050Y0083049D01*
X0141050Y0083847D02*
X0228450Y0083847D01*
X0228450Y0084646D02*
X0141050Y0084646D01*
X0141050Y0085444D02*
X0228450Y0085444D01*
X0228450Y0086243D02*
X0141050Y0086243D01*
X0141050Y0087041D02*
X0228450Y0087041D01*
X0228450Y0087840D02*
X0141050Y0087840D01*
X0141050Y0088638D02*
X0228450Y0088638D01*
X0228450Y0089437D02*
X0141050Y0089437D01*
X0141050Y0090235D02*
X0142254Y0090235D01*
X0141456Y0091034D02*
X0141050Y0091034D01*
X0141050Y0096623D02*
X0141613Y0096623D01*
X0141050Y0097422D02*
X0142509Y0097422D01*
X0141050Y0098220D02*
X0228450Y0098220D01*
X0228450Y0097422D02*
X0156991Y0097422D01*
X0157157Y0097353D02*
X0155595Y0098000D01*
X0153905Y0098000D01*
X0152343Y0097353D01*
X0151147Y0096157D01*
X0150500Y0094595D01*
X0150500Y0092905D01*
X0151147Y0091343D01*
X0152343Y0090147D01*
X0153905Y0089500D01*
X0155595Y0089500D01*
X0157157Y0090147D01*
X0158353Y0091343D01*
X0159000Y0092905D01*
X0159000Y0094595D01*
X0158353Y0096157D01*
X0157157Y0097353D01*
X0157887Y0096623D02*
X0228450Y0096623D01*
X0228450Y0095825D02*
X0158491Y0095825D01*
X0158821Y0095026D02*
X0228450Y0095026D01*
X0228450Y0094228D02*
X0159000Y0094228D01*
X0159000Y0093429D02*
X0228450Y0093429D01*
X0228450Y0092631D02*
X0158887Y0092631D01*
X0158556Y0091832D02*
X0228450Y0091832D01*
X0228450Y0091034D02*
X0158044Y0091034D01*
X0157246Y0090235D02*
X0228450Y0090235D01*
X0228450Y0099019D02*
X0141050Y0099019D01*
X0141050Y0099818D02*
X0228450Y0099818D01*
X0228450Y0100616D02*
X0141050Y0100616D01*
X0141050Y0101415D02*
X0146293Y0101415D01*
X0145162Y0101883D02*
X0148139Y0100650D01*
X0151361Y0100650D01*
X0154338Y0101883D01*
X0154338Y0101883D01*
X0156617Y0104162D01*
X0157850Y0107139D01*
X0157850Y0110361D01*
X0156617Y0113338D01*
X0156617Y0113338D01*
X0154338Y0115617D01*
X0151361Y0116850D01*
X0150081Y0116850D01*
X0148139Y0116850D01*
X0145162Y0115617D01*
X0145162Y0115617D01*
X0142883Y0113338D01*
X0141650Y0110361D01*
X0141650Y0107139D01*
X0142883Y0104162D01*
X0142883Y0104162D01*
X0145162Y0101883D01*
X0145162Y0101883D01*
X0144832Y0102213D02*
X0141050Y0102213D01*
X0141050Y0103012D02*
X0144033Y0103012D01*
X0143235Y0103810D02*
X0141050Y0103810D01*
X0141050Y0104609D02*
X0142698Y0104609D01*
X0142367Y0105407D02*
X0141050Y0105407D01*
X0141050Y0106206D02*
X0142037Y0106206D01*
X0141706Y0107004D02*
X0141050Y0107004D01*
X0141050Y0107803D02*
X0141650Y0107803D01*
X0141650Y0108601D02*
X0141050Y0108601D01*
X0141050Y0109400D02*
X0141650Y0109400D01*
X0141650Y0110198D02*
X0141050Y0110198D01*
X0141050Y0110997D02*
X0141913Y0110997D01*
X0142244Y0111795D02*
X0141050Y0111795D01*
X0141050Y0112594D02*
X0142575Y0112594D01*
X0142883Y0113338D02*
X0142883Y0113338D01*
X0142937Y0113392D02*
X0141050Y0113392D01*
X0141050Y0114191D02*
X0143736Y0114191D01*
X0144534Y0114989D02*
X0141050Y0114989D01*
X0141050Y0115788D02*
X0145574Y0115788D01*
X0147502Y0116586D02*
X0141050Y0116586D01*
X0141050Y0117385D02*
X0228450Y0117385D01*
X0228450Y0116586D02*
X0221998Y0116586D01*
X0221361Y0116850D02*
X0219419Y0116850D01*
X0218139Y0116850D01*
X0218139Y0116850D01*
X0215162Y0115617D01*
X0215162Y0115617D01*
X0212883Y0113338D01*
X0211650Y0110361D01*
X0211650Y0107139D01*
X0212883Y0104162D01*
X0215162Y0101883D01*
X0218139Y0100650D01*
X0221361Y0100650D01*
X0224338Y0101883D01*
X0224338Y0101883D01*
X0226617Y0104162D01*
X0227850Y0107139D01*
X0227850Y0110361D01*
X0226617Y0113338D01*
X0226617Y0113338D01*
X0224338Y0115617D01*
X0221361Y0116850D01*
X0223926Y0115788D02*
X0228450Y0115788D01*
X0228450Y0114989D02*
X0224966Y0114989D01*
X0224338Y0115617D02*
X0224338Y0115617D01*
X0225764Y0114191D02*
X0228450Y0114191D01*
X0228450Y0113392D02*
X0226563Y0113392D01*
X0226925Y0112594D02*
X0228450Y0112594D01*
X0228450Y0111795D02*
X0227256Y0111795D01*
X0227587Y0110997D02*
X0228450Y0110997D01*
X0228450Y0110198D02*
X0227850Y0110198D01*
X0227850Y0109400D02*
X0228450Y0109400D01*
X0228450Y0108601D02*
X0227850Y0108601D01*
X0227850Y0107803D02*
X0228450Y0107803D01*
X0228450Y0107004D02*
X0227794Y0107004D01*
X0227463Y0106206D02*
X0228450Y0106206D01*
X0228450Y0105407D02*
X0227133Y0105407D01*
X0226802Y0104609D02*
X0228450Y0104609D01*
X0228450Y0103810D02*
X0226265Y0103810D01*
X0226617Y0104162D02*
X0226617Y0104162D01*
X0225467Y0103012D02*
X0228450Y0103012D01*
X0228450Y0102213D02*
X0224668Y0102213D01*
X0223207Y0101415D02*
X0228450Y0101415D01*
X0216293Y0101415D02*
X0153207Y0101415D01*
X0154668Y0102213D02*
X0214832Y0102213D01*
X0215162Y0101883D02*
X0215162Y0101883D01*
X0214033Y0103012D02*
X0155467Y0103012D01*
X0156265Y0103810D02*
X0213235Y0103810D01*
X0212883Y0104162D02*
X0212883Y0104162D01*
X0212698Y0104609D02*
X0156802Y0104609D01*
X0156617Y0104162D02*
X0156617Y0104162D01*
X0157133Y0105407D02*
X0212367Y0105407D01*
X0212037Y0106206D02*
X0157463Y0106206D01*
X0157794Y0107004D02*
X0211706Y0107004D01*
X0211650Y0107803D02*
X0157850Y0107803D01*
X0157850Y0108601D02*
X0211650Y0108601D01*
X0211650Y0109400D02*
X0157850Y0109400D01*
X0157850Y0110198D02*
X0211650Y0110198D01*
X0211913Y0110997D02*
X0157587Y0110997D01*
X0157256Y0111795D02*
X0212244Y0111795D01*
X0212575Y0112594D02*
X0156925Y0112594D01*
X0156563Y0113392D02*
X0212937Y0113392D01*
X0212883Y0113338D02*
X0212883Y0113338D01*
X0213736Y0114191D02*
X0155764Y0114191D01*
X0154966Y0114989D02*
X0214534Y0114989D01*
X0215574Y0115788D02*
X0153926Y0115788D01*
X0154338Y0115617D02*
X0154338Y0115617D01*
X0151998Y0116586D02*
X0217502Y0116586D01*
X0228450Y0120579D02*
X0182589Y0120579D01*
X0183367Y0121377D02*
X0228450Y0121377D01*
X0228450Y0122176D02*
X0183698Y0122176D01*
X0184000Y0122974D02*
X0228450Y0122974D01*
X0228450Y0123773D02*
X0184000Y0123773D01*
X0184000Y0124571D02*
X0228450Y0124571D01*
X0228450Y0125370D02*
X0183679Y0125370D01*
X0183342Y0126168D02*
X0228450Y0126168D01*
X0228450Y0126967D02*
X0182543Y0126967D01*
X0181162Y0127765D02*
X0228450Y0127765D01*
X0231050Y0127765D02*
X0233338Y0127765D01*
X0231956Y0126967D02*
X0231050Y0126967D01*
X0231050Y0126168D02*
X0231158Y0126168D01*
X0231050Y0130161D02*
X0232329Y0130161D01*
X0231530Y0130959D02*
X0231050Y0130959D01*
X0228450Y0148527D02*
X0141050Y0148527D01*
X0141050Y0149325D02*
X0228450Y0149325D01*
X0228450Y0150124D02*
X0141050Y0150124D01*
X0141050Y0150922D02*
X0147482Y0150922D01*
X0148139Y0150650D02*
X0151361Y0150650D01*
X0154338Y0151883D01*
X0154338Y0151883D01*
X0156617Y0154162D01*
X0157850Y0157139D01*
X0157850Y0160361D01*
X0156617Y0163338D01*
X0156617Y0163338D01*
X0154338Y0165617D01*
X0151361Y0166850D01*
X0150081Y0166850D01*
X0148139Y0166850D01*
X0145162Y0165617D01*
X0145162Y0165617D01*
X0142883Y0163338D01*
X0141650Y0160361D01*
X0141650Y0157139D01*
X0142883Y0154162D01*
X0145162Y0151883D01*
X0148139Y0150650D01*
X0145554Y0151721D02*
X0141050Y0151721D01*
X0141050Y0152519D02*
X0144526Y0152519D01*
X0143727Y0153318D02*
X0141050Y0153318D01*
X0141050Y0154116D02*
X0142929Y0154116D01*
X0142883Y0154162D02*
X0142883Y0154162D01*
X0142571Y0154915D02*
X0141050Y0154915D01*
X0141050Y0155713D02*
X0142240Y0155713D01*
X0141910Y0156512D02*
X0141050Y0156512D01*
X0141050Y0157310D02*
X0141650Y0157310D01*
X0141650Y0158109D02*
X0141050Y0158109D01*
X0141050Y0158907D02*
X0141650Y0158907D01*
X0141650Y0159706D02*
X0141050Y0159706D01*
X0141050Y0160504D02*
X0141709Y0160504D01*
X0142040Y0161303D02*
X0141050Y0161303D01*
X0141050Y0162101D02*
X0142371Y0162101D01*
X0142702Y0162900D02*
X0141050Y0162900D01*
X0141050Y0163698D02*
X0143243Y0163698D01*
X0142883Y0163338D02*
X0142883Y0163338D01*
X0144042Y0164497D02*
X0141050Y0164497D01*
X0141050Y0165295D02*
X0144840Y0165295D01*
X0146314Y0166094D02*
X0141050Y0166094D01*
X0141050Y0166892D02*
X0191476Y0166892D01*
X0191476Y0166094D02*
X0153186Y0166094D01*
X0154338Y0165617D02*
X0154338Y0165617D01*
X0154660Y0165295D02*
X0191476Y0165295D01*
X0191476Y0164497D02*
X0155458Y0164497D01*
X0156257Y0163698D02*
X0191476Y0163698D01*
X0191476Y0162900D02*
X0156798Y0162900D01*
X0157129Y0162101D02*
X0191476Y0162101D01*
X0191476Y0161303D02*
X0157460Y0161303D01*
X0157791Y0160504D02*
X0191476Y0160504D01*
X0191476Y0159706D02*
X0157850Y0159706D01*
X0157850Y0158907D02*
X0191476Y0158907D01*
X0191476Y0158109D02*
X0157850Y0158109D01*
X0157850Y0157310D02*
X0191476Y0157310D01*
X0191476Y0156512D02*
X0157590Y0156512D01*
X0157260Y0155713D02*
X0191476Y0155713D01*
X0191476Y0154915D02*
X0156929Y0154915D01*
X0156617Y0154162D02*
X0156617Y0154162D01*
X0156571Y0154116D02*
X0191476Y0154116D01*
X0191476Y0153318D02*
X0155773Y0153318D01*
X0154974Y0152519D02*
X0191476Y0152519D01*
X0191476Y0151721D02*
X0153946Y0151721D01*
X0152018Y0150922D02*
X0228450Y0150922D01*
X0228450Y0151721D02*
X0208024Y0151721D01*
X0208024Y0152519D02*
X0228450Y0152519D01*
X0228450Y0153318D02*
X0208024Y0153318D01*
X0208024Y0154116D02*
X0228450Y0154116D01*
X0228450Y0154915D02*
X0208024Y0154915D01*
X0208024Y0155713D02*
X0228450Y0155713D01*
X0228450Y0156512D02*
X0208024Y0156512D01*
X0208024Y0157310D02*
X0228450Y0157310D01*
X0228450Y0158109D02*
X0208024Y0158109D01*
X0208024Y0158907D02*
X0228450Y0158907D01*
X0228450Y0159706D02*
X0208024Y0159706D01*
X0208024Y0160504D02*
X0228450Y0160504D01*
X0228450Y0161303D02*
X0208024Y0161303D01*
X0208024Y0162101D02*
X0228450Y0162101D01*
X0228450Y0162900D02*
X0208024Y0162900D01*
X0208024Y0163698D02*
X0228450Y0163698D01*
X0228450Y0164497D02*
X0208024Y0164497D01*
X0208024Y0165295D02*
X0228450Y0165295D01*
X0228450Y0166094D02*
X0208024Y0166094D01*
X0208024Y0166892D02*
X0228450Y0166892D01*
X0228450Y0172150D02*
X0141050Y0172150D01*
X0141050Y0233577D01*
X0141147Y0233343D01*
X0142343Y0232147D01*
X0143905Y0231500D01*
X0145595Y0231500D01*
X0147157Y0232147D01*
X0148353Y0233343D01*
X0149000Y0234905D01*
X0149000Y0236595D01*
X0148353Y0238157D01*
X0147157Y0239353D01*
X0145595Y0240000D01*
X0143905Y0240000D01*
X0142343Y0239353D01*
X0141147Y0238157D01*
X0141050Y0237923D01*
X0141050Y0259450D01*
X0228450Y0259450D01*
X0228450Y0172150D01*
X0228450Y0172482D02*
X0141050Y0172482D01*
X0141050Y0173281D02*
X0228450Y0173281D01*
X0228450Y0174079D02*
X0141050Y0174079D01*
X0141050Y0174878D02*
X0228450Y0174878D01*
X0228450Y0175676D02*
X0141050Y0175676D01*
X0141050Y0176475D02*
X0228450Y0176475D01*
X0228450Y0177273D02*
X0141050Y0177273D01*
X0141050Y0178072D02*
X0228450Y0178072D01*
X0228450Y0178870D02*
X0141050Y0178870D01*
X0141050Y0179669D02*
X0228450Y0179669D01*
X0228450Y0180467D02*
X0141050Y0180467D01*
X0141050Y0181266D02*
X0228450Y0181266D01*
X0228450Y0182064D02*
X0141050Y0182064D01*
X0141050Y0182863D02*
X0228450Y0182863D01*
X0228450Y0183661D02*
X0141050Y0183661D01*
X0141050Y0184460D02*
X0228450Y0184460D01*
X0228450Y0185258D02*
X0141050Y0185258D01*
X0141050Y0186057D02*
X0228450Y0186057D01*
X0228450Y0186855D02*
X0141050Y0186855D01*
X0141050Y0187654D02*
X0228450Y0187654D01*
X0228450Y0188452D02*
X0141050Y0188452D01*
X0141050Y0189251D02*
X0228450Y0189251D01*
X0228450Y0190049D02*
X0141050Y0190049D01*
X0141050Y0190848D02*
X0228450Y0190848D01*
X0228450Y0191646D02*
X0141050Y0191646D01*
X0141050Y0192445D02*
X0228450Y0192445D01*
X0228450Y0193243D02*
X0141050Y0193243D01*
X0141050Y0194042D02*
X0228450Y0194042D01*
X0228450Y0194840D02*
X0141050Y0194840D01*
X0141050Y0195639D02*
X0228450Y0195639D01*
X0228450Y0196437D02*
X0141050Y0196437D01*
X0141050Y0197236D02*
X0228450Y0197236D01*
X0228450Y0198034D02*
X0141050Y0198034D01*
X0141050Y0198833D02*
X0228450Y0198833D01*
X0228450Y0199631D02*
X0141050Y0199631D01*
X0141050Y0200430D02*
X0228450Y0200430D01*
X0228450Y0201228D02*
X0141050Y0201228D01*
X0141050Y0202027D02*
X0228450Y0202027D01*
X0228450Y0202825D02*
X0141050Y0202825D01*
X0141050Y0203624D02*
X0228450Y0203624D01*
X0228450Y0204422D02*
X0141050Y0204422D01*
X0141050Y0205221D02*
X0228450Y0205221D01*
X0228450Y0206020D02*
X0141050Y0206020D01*
X0141050Y0206818D02*
X0228450Y0206818D01*
X0228450Y0207617D02*
X0141050Y0207617D01*
X0141050Y0208415D02*
X0228450Y0208415D01*
X0228450Y0209214D02*
X0141050Y0209214D01*
X0141050Y0210012D02*
X0228450Y0210012D01*
X0228450Y0210811D02*
X0141050Y0210811D01*
X0141050Y0211609D02*
X0228450Y0211609D01*
X0228450Y0212408D02*
X0141050Y0212408D01*
X0141050Y0213206D02*
X0228450Y0213206D01*
X0228450Y0214005D02*
X0141050Y0214005D01*
X0141050Y0214803D02*
X0228450Y0214803D01*
X0228450Y0215602D02*
X0141050Y0215602D01*
X0141050Y0216400D02*
X0228450Y0216400D01*
X0228450Y0217199D02*
X0141050Y0217199D01*
X0141050Y0217997D02*
X0228450Y0217997D01*
X0228450Y0218796D02*
X0141050Y0218796D01*
X0141050Y0219594D02*
X0228450Y0219594D01*
X0228450Y0220393D02*
X0141050Y0220393D01*
X0141050Y0221191D02*
X0228450Y0221191D01*
X0228450Y0221990D02*
X0141050Y0221990D01*
X0141050Y0222788D02*
X0228450Y0222788D01*
X0228450Y0223587D02*
X0141050Y0223587D01*
X0141050Y0224385D02*
X0228450Y0224385D01*
X0228450Y0225184D02*
X0141050Y0225184D01*
X0141050Y0225982D02*
X0228450Y0225982D01*
X0228450Y0226781D02*
X0141050Y0226781D01*
X0141050Y0227579D02*
X0228450Y0227579D01*
X0228450Y0228378D02*
X0141050Y0228378D01*
X0141050Y0229176D02*
X0228450Y0229176D01*
X0228450Y0229975D02*
X0141050Y0229975D01*
X0141050Y0230773D02*
X0228450Y0230773D01*
X0228450Y0231572D02*
X0155769Y0231572D01*
X0155595Y0231500D02*
X0157157Y0232147D01*
X0158353Y0233343D01*
X0159000Y0234905D01*
X0159000Y0236595D01*
X0158353Y0238157D01*
X0157157Y0239353D01*
X0155595Y0240000D01*
X0153905Y0240000D01*
X0152343Y0239353D01*
X0151147Y0238157D01*
X0150500Y0236595D01*
X0150500Y0234905D01*
X0151147Y0233343D01*
X0152343Y0232147D01*
X0153905Y0231500D01*
X0155595Y0231500D01*
X0153731Y0231572D02*
X0145769Y0231572D01*
X0147381Y0232370D02*
X0152119Y0232370D01*
X0151321Y0233169D02*
X0148179Y0233169D01*
X0148612Y0233967D02*
X0150888Y0233967D01*
X0150557Y0234766D02*
X0148943Y0234766D01*
X0149000Y0235564D02*
X0150500Y0235564D01*
X0150500Y0236363D02*
X0149000Y0236363D01*
X0148766Y0237161D02*
X0150734Y0237161D01*
X0151065Y0237960D02*
X0148435Y0237960D01*
X0147752Y0238758D02*
X0151748Y0238758D01*
X0152835Y0239557D02*
X0146665Y0239557D01*
X0147895Y0242751D02*
X0141050Y0242751D01*
X0141050Y0241953D02*
X0228450Y0241953D01*
X0228450Y0242751D02*
X0221605Y0242751D01*
X0221361Y0242650D02*
X0224338Y0243883D01*
X0224338Y0243883D01*
X0226617Y0246162D01*
X0227850Y0249139D01*
X0228450Y0249139D01*
X0227850Y0249139D02*
X0227850Y0252361D01*
X0226617Y0255338D01*
X0226617Y0255338D01*
X0224338Y0257617D01*
X0221361Y0258850D01*
X0219419Y0258850D01*
X0218139Y0258850D01*
X0218139Y0258850D01*
X0215162Y0257617D01*
X0215162Y0257617D01*
X0212883Y0255338D01*
X0211650Y0252361D01*
X0211650Y0249139D01*
X0157850Y0249139D01*
X0157850Y0252361D01*
X0156617Y0255338D01*
X0156617Y0255338D01*
X0154338Y0257617D01*
X0151361Y0258850D01*
X0150081Y0258850D01*
X0148139Y0258850D01*
X0145162Y0257617D01*
X0145162Y0257617D01*
X0142883Y0255338D01*
X0141650Y0252361D01*
X0141650Y0249139D01*
X0141050Y0249139D01*
X0141650Y0249139D02*
X0141650Y0249139D01*
X0142883Y0246162D01*
X0145162Y0243883D01*
X0148139Y0242650D01*
X0151361Y0242650D01*
X0154338Y0243883D01*
X0154338Y0243883D01*
X0156617Y0246162D01*
X0157850Y0249139D01*
X0157850Y0249938D02*
X0211650Y0249938D01*
X0211650Y0250736D02*
X0157850Y0250736D01*
X0157850Y0251535D02*
X0211650Y0251535D01*
X0211650Y0252333D02*
X0157850Y0252333D01*
X0157531Y0253132D02*
X0211969Y0253132D01*
X0212300Y0253930D02*
X0157200Y0253930D01*
X0156869Y0254729D02*
X0212631Y0254729D01*
X0212883Y0255338D02*
X0212883Y0255338D01*
X0213072Y0255527D02*
X0156428Y0255527D01*
X0155629Y0256326D02*
X0213871Y0256326D01*
X0214669Y0257124D02*
X0154831Y0257124D01*
X0154338Y0257617D02*
X0154338Y0257617D01*
X0153600Y0257923D02*
X0215900Y0257923D01*
X0217828Y0258721D02*
X0151672Y0258721D01*
X0147828Y0258721D02*
X0141050Y0258721D01*
X0141050Y0257923D02*
X0145900Y0257923D01*
X0144669Y0257124D02*
X0141050Y0257124D01*
X0141050Y0256326D02*
X0143871Y0256326D01*
X0143072Y0255527D02*
X0141050Y0255527D01*
X0141050Y0254729D02*
X0142631Y0254729D01*
X0142883Y0255338D02*
X0142883Y0255338D01*
X0142300Y0253930D02*
X0141050Y0253930D01*
X0141050Y0253132D02*
X0141969Y0253132D01*
X0141650Y0252333D02*
X0141050Y0252333D01*
X0141050Y0251535D02*
X0141650Y0251535D01*
X0141650Y0250736D02*
X0141050Y0250736D01*
X0141050Y0249938D02*
X0141650Y0249938D01*
X0141981Y0248341D02*
X0141050Y0248341D01*
X0141050Y0247542D02*
X0142311Y0247542D01*
X0142642Y0246744D02*
X0141050Y0246744D01*
X0141050Y0245945D02*
X0143100Y0245945D01*
X0143898Y0245147D02*
X0141050Y0245147D01*
X0141050Y0244348D02*
X0144697Y0244348D01*
X0145162Y0243883D02*
X0145162Y0243883D01*
X0145967Y0243550D02*
X0141050Y0243550D01*
X0141050Y0241154D02*
X0228450Y0241154D01*
X0228450Y0240355D02*
X0141050Y0240355D01*
X0141050Y0239557D02*
X0142835Y0239557D01*
X0141748Y0238758D02*
X0141050Y0238758D01*
X0141050Y0237960D02*
X0141065Y0237960D01*
X0138450Y0237960D02*
X0041150Y0237960D01*
X0041150Y0238758D02*
X0138450Y0238758D01*
X0138450Y0239557D02*
X0041150Y0239557D01*
X0041150Y0240355D02*
X0138450Y0240355D01*
X0138450Y0241154D02*
X0041150Y0241154D01*
X0041150Y0241953D02*
X0138450Y0241953D01*
X0138450Y0242751D02*
X0131605Y0242751D01*
X0131361Y0242650D02*
X0134338Y0243883D01*
X0134338Y0243883D01*
X0136617Y0246162D01*
X0137850Y0249139D01*
X0138450Y0249139D01*
X0137850Y0249139D02*
X0137850Y0252361D01*
X0136617Y0255338D01*
X0136617Y0255338D01*
X0134338Y0257617D01*
X0131361Y0258850D01*
X0128139Y0258850D01*
X0125162Y0257617D01*
X0125162Y0257617D01*
X0122883Y0255338D01*
X0121650Y0252361D01*
X0121650Y0249139D01*
X0057850Y0249139D01*
X0057850Y0252361D01*
X0056617Y0255338D01*
X0056617Y0255338D01*
X0054338Y0257617D01*
X0051361Y0258850D01*
X0048139Y0258850D01*
X0045162Y0257617D01*
X0045162Y0257617D01*
X0042883Y0255338D01*
X0041650Y0252361D01*
X0041650Y0249139D01*
X0041150Y0249139D01*
X0041650Y0249139D02*
X0042883Y0246162D01*
X0045162Y0243883D01*
X0048139Y0242650D01*
X0049419Y0242650D01*
X0051361Y0242650D01*
X0054338Y0243883D01*
X0054338Y0243883D01*
X0056617Y0246162D01*
X0057850Y0249139D01*
X0057850Y0249938D02*
X0121650Y0249938D01*
X0121650Y0250736D02*
X0057850Y0250736D01*
X0057850Y0251535D02*
X0121650Y0251535D01*
X0121650Y0252333D02*
X0057850Y0252333D01*
X0057531Y0253132D02*
X0121969Y0253132D01*
X0122300Y0253930D02*
X0057200Y0253930D01*
X0056869Y0254729D02*
X0122631Y0254729D01*
X0122883Y0255338D02*
X0122883Y0255338D01*
X0123072Y0255527D02*
X0056428Y0255527D01*
X0055629Y0256326D02*
X0123871Y0256326D01*
X0124669Y0257124D02*
X0054831Y0257124D01*
X0054338Y0257617D02*
X0054338Y0257617D01*
X0053600Y0257923D02*
X0125900Y0257923D01*
X0127828Y0258721D02*
X0051672Y0258721D01*
X0047828Y0258721D02*
X0041150Y0258721D01*
X0041150Y0259450D02*
X0138450Y0259450D01*
X0138450Y0172150D01*
X0121031Y0172150D01*
X0120998Y0172250D01*
X0122369Y0176365D01*
X0121814Y0177477D01*
X0120635Y0177869D01*
X0119523Y0177314D01*
X0119417Y0176993D01*
X0119310Y0177314D01*
X0118198Y0177869D01*
X0117020Y0177477D01*
X0116667Y0176771D01*
X0115919Y0177369D01*
X0115538Y0177750D01*
X0115443Y0177750D01*
X0115369Y0177809D01*
X0114834Y0177750D01*
X0114295Y0177750D01*
X0114228Y0177683D01*
X0114134Y0177672D01*
X0113797Y0177252D01*
X0113417Y0176871D01*
X0113417Y0176776D01*
X0113357Y0176702D01*
X0113417Y0176167D01*
X0113417Y0173750D01*
X0113184Y0173750D01*
X0113028Y0173594D01*
X0113028Y0175357D01*
X0112583Y0176268D01*
X0112372Y0176885D01*
X0111161Y0177750D01*
X0109672Y0177750D01*
X0108461Y0176885D01*
X0108461Y0176885D01*
X0108461Y0176885D01*
X0108250Y0176268D01*
X0108243Y0176254D01*
X0108106Y0176144D01*
X0108081Y0175921D01*
X0107806Y0175357D01*
X0107806Y0173143D01*
X0108250Y0172231D01*
X0108278Y0172150D01*
X0072160Y0172150D01*
X0073353Y0173343D01*
X0074000Y0174905D01*
X0074000Y0176595D01*
X0073353Y0178157D01*
X0072157Y0179353D01*
X0070595Y0180000D01*
X0068905Y0180000D01*
X0067343Y0179353D01*
X0066147Y0178157D01*
X0065500Y0176595D01*
X0065500Y0174905D01*
X0066147Y0173343D01*
X0067340Y0172150D01*
X0041150Y0172150D01*
X0041150Y0259450D01*
X0041150Y0257923D02*
X0045900Y0257923D01*
X0044669Y0257124D02*
X0041150Y0257124D01*
X0041150Y0256326D02*
X0043871Y0256326D01*
X0043072Y0255527D02*
X0041150Y0255527D01*
X0041150Y0254729D02*
X0042631Y0254729D01*
X0042883Y0255338D02*
X0042883Y0255338D01*
X0042300Y0253930D02*
X0041150Y0253930D01*
X0041150Y0253132D02*
X0041969Y0253132D01*
X0041650Y0252333D02*
X0041150Y0252333D01*
X0041150Y0251535D02*
X0041650Y0251535D01*
X0041650Y0250736D02*
X0041150Y0250736D01*
X0041150Y0249938D02*
X0041650Y0249938D01*
X0041981Y0248341D02*
X0041150Y0248341D01*
X0041150Y0247542D02*
X0042311Y0247542D01*
X0042642Y0246744D02*
X0041150Y0246744D01*
X0041150Y0245945D02*
X0043100Y0245945D01*
X0043898Y0245147D02*
X0041150Y0245147D01*
X0041150Y0244348D02*
X0044697Y0244348D01*
X0045162Y0243883D02*
X0045162Y0243883D01*
X0045162Y0243883D01*
X0045967Y0243550D02*
X0041150Y0243550D01*
X0041150Y0242751D02*
X0047895Y0242751D01*
X0051605Y0242751D02*
X0127895Y0242751D01*
X0128139Y0242650D02*
X0130081Y0242650D01*
X0131361Y0242650D01*
X0131361Y0242650D01*
X0133533Y0243550D02*
X0138450Y0243550D01*
X0138450Y0244348D02*
X0134803Y0244348D01*
X0135602Y0245147D02*
X0138450Y0245147D01*
X0138450Y0245945D02*
X0136400Y0245945D01*
X0136617Y0246162D02*
X0136617Y0246162D01*
X0136858Y0246744D02*
X0138450Y0246744D01*
X0138450Y0247542D02*
X0137189Y0247542D01*
X0137519Y0248341D02*
X0138450Y0248341D01*
X0138450Y0249938D02*
X0137850Y0249938D01*
X0137850Y0250736D02*
X0138450Y0250736D01*
X0138450Y0251535D02*
X0137850Y0251535D01*
X0137850Y0252333D02*
X0138450Y0252333D01*
X0138450Y0253132D02*
X0137531Y0253132D01*
X0137200Y0253930D02*
X0138450Y0253930D01*
X0138450Y0254729D02*
X0136869Y0254729D01*
X0136428Y0255527D02*
X0138450Y0255527D01*
X0138450Y0256326D02*
X0135629Y0256326D01*
X0134831Y0257124D02*
X0138450Y0257124D01*
X0138450Y0257923D02*
X0133600Y0257923D01*
X0134338Y0257617D02*
X0134338Y0257617D01*
X0131672Y0258721D02*
X0138450Y0258721D01*
X0138450Y0262050D02*
X0041150Y0262050D01*
X0041150Y0289956D01*
X0070620Y0289956D01*
X0070855Y0290191D01*
X0070855Y0309350D01*
X0138450Y0309350D01*
X0138450Y0262050D01*
X0138450Y0262714D02*
X0131515Y0262714D01*
X0131361Y0262650D02*
X0134338Y0263883D01*
X0134338Y0263883D01*
X0136617Y0266162D01*
X0137850Y0269139D01*
X0137850Y0270419D01*
X0137850Y0272361D01*
X0136617Y0275338D01*
X0136617Y0275338D01*
X0134338Y0277617D01*
X0131361Y0278850D01*
X0128139Y0278850D01*
X0125162Y0277617D01*
X0125162Y0277617D01*
X0122883Y0275338D01*
X0121650Y0272361D01*
X0121650Y0269139D01*
X0122883Y0266162D01*
X0125162Y0263883D01*
X0128139Y0262650D01*
X0131361Y0262650D01*
X0133443Y0263512D02*
X0138450Y0263512D01*
X0138450Y0264311D02*
X0134766Y0264311D01*
X0135564Y0265109D02*
X0138450Y0265109D01*
X0138450Y0265908D02*
X0136363Y0265908D01*
X0136617Y0266162D02*
X0136617Y0266162D01*
X0136842Y0266706D02*
X0138450Y0266706D01*
X0138450Y0267505D02*
X0137173Y0267505D01*
X0137504Y0268303D02*
X0138450Y0268303D01*
X0138450Y0269102D02*
X0137835Y0269102D01*
X0137850Y0269900D02*
X0138450Y0269900D01*
X0138450Y0270699D02*
X0137850Y0270699D01*
X0137850Y0271497D02*
X0138450Y0271497D01*
X0138450Y0272296D02*
X0137850Y0272296D01*
X0137546Y0273094D02*
X0138450Y0273094D01*
X0138450Y0273893D02*
X0137216Y0273893D01*
X0136885Y0274691D02*
X0138450Y0274691D01*
X0138450Y0275490D02*
X0136465Y0275490D01*
X0135667Y0276289D02*
X0138450Y0276289D01*
X0138450Y0277087D02*
X0134868Y0277087D01*
X0134338Y0277617D02*
X0134338Y0277617D01*
X0133690Y0277886D02*
X0138450Y0277886D01*
X0138450Y0278684D02*
X0131762Y0278684D01*
X0127738Y0278684D02*
X0087826Y0278684D01*
X0088353Y0278157D02*
X0087157Y0279353D01*
X0085595Y0280000D01*
X0083905Y0280000D01*
X0082343Y0279353D01*
X0081147Y0278157D01*
X0080500Y0276595D01*
X0080500Y0274905D01*
X0081147Y0273343D01*
X0082343Y0272147D01*
X0083905Y0271500D01*
X0085595Y0271500D01*
X0087157Y0272147D01*
X0088353Y0273343D01*
X0089000Y0274905D01*
X0089000Y0276595D01*
X0088353Y0278157D01*
X0088466Y0277886D02*
X0125810Y0277886D01*
X0124632Y0277087D02*
X0088796Y0277087D01*
X0089000Y0276289D02*
X0123833Y0276289D01*
X0123035Y0275490D02*
X0089000Y0275490D01*
X0088912Y0274691D02*
X0122615Y0274691D01*
X0122883Y0275338D02*
X0122883Y0275338D01*
X0122284Y0273893D02*
X0088581Y0273893D01*
X0088105Y0273094D02*
X0121954Y0273094D01*
X0121650Y0272296D02*
X0087306Y0272296D01*
X0082194Y0272296D02*
X0041150Y0272296D01*
X0041150Y0273094D02*
X0081395Y0273094D01*
X0080919Y0273893D02*
X0041150Y0273893D01*
X0041150Y0274691D02*
X0080588Y0274691D01*
X0080500Y0275490D02*
X0041150Y0275490D01*
X0041150Y0276289D02*
X0080500Y0276289D01*
X0080704Y0277087D02*
X0041150Y0277087D01*
X0041150Y0277886D02*
X0081034Y0277886D01*
X0081674Y0278684D02*
X0041150Y0278684D01*
X0041150Y0279483D02*
X0082655Y0279483D01*
X0083905Y0281500D02*
X0082343Y0282147D01*
X0081147Y0283343D01*
X0080500Y0284905D01*
X0080500Y0286595D01*
X0081147Y0288157D01*
X0082343Y0289353D01*
X0083905Y0290000D01*
X0085595Y0290000D01*
X0087157Y0289353D01*
X0088353Y0288157D01*
X0089000Y0286595D01*
X0089000Y0284905D01*
X0088353Y0283343D01*
X0087157Y0282147D01*
X0085595Y0281500D01*
X0083905Y0281500D01*
X0082992Y0281878D02*
X0041150Y0281878D01*
X0041150Y0281080D02*
X0138450Y0281080D01*
X0138450Y0281878D02*
X0086508Y0281878D01*
X0087687Y0282677D02*
X0138450Y0282677D01*
X0138450Y0283475D02*
X0088408Y0283475D01*
X0088739Y0284274D02*
X0138450Y0284274D01*
X0138450Y0285072D02*
X0089000Y0285072D01*
X0089000Y0285871D02*
X0138450Y0285871D01*
X0138450Y0286669D02*
X0088969Y0286669D01*
X0088639Y0287468D02*
X0138450Y0287468D01*
X0138450Y0288266D02*
X0088244Y0288266D01*
X0087446Y0289065D02*
X0138450Y0289065D01*
X0138450Y0289863D02*
X0085926Y0289863D01*
X0083574Y0289863D02*
X0041150Y0289863D01*
X0041150Y0289065D02*
X0082054Y0289065D01*
X0081256Y0288266D02*
X0041150Y0288266D01*
X0041150Y0287468D02*
X0080861Y0287468D01*
X0080531Y0286669D02*
X0041150Y0286669D01*
X0041150Y0285871D02*
X0080500Y0285871D01*
X0080500Y0285072D02*
X0041150Y0285072D01*
X0041150Y0284274D02*
X0080761Y0284274D01*
X0081092Y0283475D02*
X0041150Y0283475D01*
X0041150Y0282677D02*
X0081813Y0282677D01*
X0086845Y0279483D02*
X0138450Y0279483D01*
X0138450Y0280281D02*
X0041150Y0280281D01*
X0041150Y0271497D02*
X0121650Y0271497D01*
X0121650Y0270699D02*
X0041150Y0270699D01*
X0041150Y0269900D02*
X0121650Y0269900D01*
X0121665Y0269102D02*
X0041150Y0269102D01*
X0041150Y0268303D02*
X0121996Y0268303D01*
X0122327Y0267505D02*
X0041150Y0267505D01*
X0041150Y0266706D02*
X0122658Y0266706D01*
X0122883Y0266162D02*
X0122883Y0266162D01*
X0123137Y0265908D02*
X0041150Y0265908D01*
X0041150Y0265109D02*
X0123936Y0265109D01*
X0124734Y0264311D02*
X0041150Y0264311D01*
X0041150Y0263512D02*
X0126057Y0263512D01*
X0125162Y0263883D02*
X0125162Y0263883D01*
X0127985Y0262714D02*
X0041150Y0262714D01*
X0057519Y0248341D02*
X0121981Y0248341D01*
X0121650Y0249139D02*
X0122883Y0246162D01*
X0125162Y0243883D01*
X0128139Y0242650D01*
X0125967Y0243550D02*
X0053533Y0243550D01*
X0054803Y0244348D02*
X0124697Y0244348D01*
X0125162Y0243883D02*
X0125162Y0243883D01*
X0123898Y0245147D02*
X0055602Y0245147D01*
X0056400Y0245945D02*
X0123100Y0245945D01*
X0122883Y0246162D02*
X0122883Y0246162D01*
X0122642Y0246744D02*
X0056858Y0246744D01*
X0056617Y0246162D02*
X0056617Y0246162D01*
X0057189Y0247542D02*
X0122311Y0247542D01*
X0138450Y0237161D02*
X0041150Y0237161D01*
X0041150Y0236363D02*
X0138450Y0236363D01*
X0138450Y0235564D02*
X0041150Y0235564D01*
X0041150Y0234766D02*
X0138450Y0234766D01*
X0138450Y0233967D02*
X0041150Y0233967D01*
X0041150Y0233169D02*
X0138450Y0233169D01*
X0138450Y0232370D02*
X0041150Y0232370D01*
X0041150Y0231572D02*
X0138450Y0231572D01*
X0138450Y0230773D02*
X0041150Y0230773D01*
X0041150Y0229975D02*
X0138450Y0229975D01*
X0138450Y0229176D02*
X0041150Y0229176D01*
X0041150Y0228378D02*
X0138450Y0228378D01*
X0138450Y0227579D02*
X0041150Y0227579D01*
X0041150Y0226781D02*
X0138450Y0226781D01*
X0138450Y0225982D02*
X0041150Y0225982D01*
X0041150Y0225184D02*
X0138450Y0225184D01*
X0138450Y0224385D02*
X0041150Y0224385D01*
X0041150Y0223587D02*
X0138450Y0223587D01*
X0138450Y0222788D02*
X0041150Y0222788D01*
X0041150Y0221990D02*
X0138450Y0221990D01*
X0138450Y0221191D02*
X0041150Y0221191D01*
X0041150Y0220393D02*
X0138450Y0220393D01*
X0138450Y0219594D02*
X0041150Y0219594D01*
X0041150Y0218796D02*
X0138450Y0218796D01*
X0138450Y0217997D02*
X0041150Y0217997D01*
X0041150Y0217199D02*
X0138450Y0217199D01*
X0138450Y0216400D02*
X0041150Y0216400D01*
X0041150Y0215602D02*
X0138450Y0215602D01*
X0138450Y0214803D02*
X0041150Y0214803D01*
X0041150Y0214005D02*
X0138450Y0214005D01*
X0138450Y0213206D02*
X0041150Y0213206D01*
X0041150Y0212408D02*
X0138450Y0212408D01*
X0138450Y0211609D02*
X0041150Y0211609D01*
X0041150Y0210811D02*
X0138450Y0210811D01*
X0138450Y0210012D02*
X0041150Y0210012D01*
X0041150Y0209214D02*
X0138450Y0209214D01*
X0138450Y0208415D02*
X0041150Y0208415D01*
X0041150Y0207617D02*
X0138450Y0207617D01*
X0138450Y0206818D02*
X0041150Y0206818D01*
X0041150Y0206020D02*
X0138450Y0206020D01*
X0138450Y0205221D02*
X0041150Y0205221D01*
X0041150Y0204422D02*
X0138450Y0204422D01*
X0138450Y0203624D02*
X0041150Y0203624D01*
X0041150Y0202825D02*
X0138450Y0202825D01*
X0138450Y0202027D02*
X0041150Y0202027D01*
X0041150Y0201228D02*
X0138450Y0201228D01*
X0138450Y0200430D02*
X0041150Y0200430D01*
X0041150Y0199631D02*
X0138450Y0199631D01*
X0138450Y0198833D02*
X0041150Y0198833D01*
X0041150Y0198034D02*
X0138450Y0198034D01*
X0138450Y0197236D02*
X0041150Y0197236D01*
X0041150Y0196437D02*
X0138450Y0196437D01*
X0138450Y0195639D02*
X0041150Y0195639D01*
X0041150Y0194840D02*
X0138450Y0194840D01*
X0138450Y0194042D02*
X0041150Y0194042D01*
X0041150Y0193243D02*
X0138450Y0193243D01*
X0138450Y0192445D02*
X0041150Y0192445D01*
X0041150Y0191646D02*
X0138450Y0191646D01*
X0138450Y0190848D02*
X0041150Y0190848D01*
X0041150Y0190049D02*
X0138450Y0190049D01*
X0138450Y0189251D02*
X0072260Y0189251D01*
X0072157Y0189353D02*
X0070595Y0190000D01*
X0068905Y0190000D01*
X0067343Y0189353D01*
X0066147Y0188157D01*
X0065500Y0186595D01*
X0065500Y0184905D01*
X0066147Y0183343D01*
X0067343Y0182147D01*
X0068905Y0181500D01*
X0070595Y0181500D01*
X0072157Y0182147D01*
X0073353Y0183343D01*
X0074000Y0184905D01*
X0074000Y0186595D01*
X0073353Y0188157D01*
X0072157Y0189353D01*
X0073058Y0188452D02*
X0127179Y0188452D01*
X0128139Y0188850D02*
X0125162Y0187617D01*
X0125162Y0187617D01*
X0122883Y0185338D01*
X0121650Y0182361D01*
X0121650Y0179139D01*
X0122883Y0176162D01*
X0125162Y0173883D01*
X0128139Y0172650D01*
X0130081Y0172650D01*
X0131361Y0172650D01*
X0131361Y0172650D01*
X0134338Y0173883D01*
X0134338Y0173883D01*
X0136617Y0176162D01*
X0137850Y0179139D01*
X0137850Y0182361D01*
X0136617Y0185338D01*
X0136617Y0185338D01*
X0134338Y0187617D01*
X0131361Y0188850D01*
X0128139Y0188850D01*
X0125251Y0187654D02*
X0073562Y0187654D01*
X0073892Y0186855D02*
X0124400Y0186855D01*
X0123602Y0186057D02*
X0074000Y0186057D01*
X0074000Y0185258D02*
X0122850Y0185258D01*
X0122883Y0185338D02*
X0122883Y0185338D01*
X0122519Y0184460D02*
X0073816Y0184460D01*
X0073485Y0183661D02*
X0122188Y0183661D01*
X0121858Y0182863D02*
X0072873Y0182863D01*
X0071957Y0182064D02*
X0121650Y0182064D01*
X0121650Y0181266D02*
X0057850Y0181266D01*
X0057850Y0182064D02*
X0067543Y0182064D01*
X0066627Y0182863D02*
X0057642Y0182863D01*
X0057850Y0182361D02*
X0056617Y0185338D01*
X0056617Y0185338D01*
X0054338Y0187617D01*
X0051361Y0188850D01*
X0048139Y0188850D01*
X0045162Y0187617D01*
X0045162Y0187617D01*
X0042883Y0185338D01*
X0041650Y0182361D01*
X0041650Y0179139D01*
X0042883Y0176162D01*
X0045162Y0173883D01*
X0048139Y0172650D01*
X0049419Y0172650D01*
X0051361Y0172650D01*
X0054338Y0173883D01*
X0056617Y0176162D01*
X0057850Y0179139D01*
X0057850Y0182361D01*
X0057312Y0183661D02*
X0066015Y0183661D01*
X0065684Y0184460D02*
X0056981Y0184460D01*
X0056650Y0185258D02*
X0065500Y0185258D01*
X0065500Y0186057D02*
X0055898Y0186057D01*
X0055100Y0186855D02*
X0065608Y0186855D01*
X0065938Y0187654D02*
X0054249Y0187654D01*
X0054338Y0187617D02*
X0054338Y0187617D01*
X0052321Y0188452D02*
X0066442Y0188452D01*
X0067240Y0189251D02*
X0041150Y0189251D01*
X0041150Y0188452D02*
X0047179Y0188452D01*
X0045251Y0187654D02*
X0041150Y0187654D01*
X0041150Y0186855D02*
X0044400Y0186855D01*
X0043602Y0186057D02*
X0041150Y0186057D01*
X0041150Y0185258D02*
X0042850Y0185258D01*
X0042883Y0185338D02*
X0042883Y0185338D01*
X0042519Y0184460D02*
X0041150Y0184460D01*
X0041150Y0183661D02*
X0042188Y0183661D01*
X0041858Y0182863D02*
X0041150Y0182863D01*
X0041150Y0182064D02*
X0041650Y0182064D01*
X0041650Y0181266D02*
X0041150Y0181266D01*
X0041150Y0180467D02*
X0041650Y0180467D01*
X0041650Y0179669D02*
X0041150Y0179669D01*
X0041150Y0178870D02*
X0041761Y0178870D01*
X0042092Y0178072D02*
X0041150Y0178072D01*
X0041150Y0177273D02*
X0042423Y0177273D01*
X0042754Y0176475D02*
X0041150Y0176475D01*
X0041150Y0175676D02*
X0043369Y0175676D01*
X0042883Y0176162D02*
X0042883Y0176162D01*
X0044167Y0174878D02*
X0041150Y0174878D01*
X0041150Y0174079D02*
X0044966Y0174079D01*
X0045162Y0173883D02*
X0045162Y0173883D01*
X0046617Y0173281D02*
X0041150Y0173281D01*
X0041150Y0172482D02*
X0067008Y0172482D01*
X0066209Y0173281D02*
X0052883Y0173281D01*
X0051361Y0172650D02*
X0051361Y0172650D01*
X0054534Y0174079D02*
X0065842Y0174079D01*
X0065511Y0174878D02*
X0055333Y0174878D01*
X0056131Y0175676D02*
X0065500Y0175676D01*
X0065500Y0176475D02*
X0056746Y0176475D01*
X0056617Y0176162D02*
X0056617Y0176162D01*
X0057077Y0177273D02*
X0065781Y0177273D01*
X0066111Y0178072D02*
X0057408Y0178072D01*
X0057739Y0178870D02*
X0066860Y0178870D01*
X0068105Y0179669D02*
X0057850Y0179669D01*
X0057850Y0180467D02*
X0121650Y0180467D01*
X0121650Y0179669D02*
X0071395Y0179669D01*
X0072640Y0178870D02*
X0121761Y0178870D01*
X0122092Y0178072D02*
X0073389Y0178072D01*
X0073719Y0177273D02*
X0109005Y0177273D01*
X0108321Y0176475D02*
X0074000Y0176475D01*
X0074000Y0175676D02*
X0107961Y0175676D01*
X0107806Y0174878D02*
X0073989Y0174878D01*
X0073658Y0174079D02*
X0107806Y0174079D01*
X0107806Y0173281D02*
X0073291Y0173281D01*
X0072492Y0172482D02*
X0108128Y0172482D01*
X0113028Y0174079D02*
X0113417Y0174079D01*
X0113417Y0174878D02*
X0113028Y0174878D01*
X0112872Y0175676D02*
X0113417Y0175676D01*
X0113382Y0176475D02*
X0112513Y0176475D01*
X0112372Y0176885D02*
X0112372Y0176885D01*
X0111829Y0177273D02*
X0113814Y0177273D01*
X0116039Y0177273D02*
X0116918Y0177273D01*
X0119323Y0177273D02*
X0119510Y0177273D01*
X0121915Y0177273D02*
X0122423Y0177273D01*
X0122315Y0176475D02*
X0122754Y0176475D01*
X0122883Y0176162D02*
X0122883Y0176162D01*
X0123369Y0175676D02*
X0122140Y0175676D01*
X0121874Y0174878D02*
X0124167Y0174878D01*
X0124966Y0174079D02*
X0121607Y0174079D01*
X0121341Y0173281D02*
X0126617Y0173281D01*
X0125162Y0173883D02*
X0125162Y0173883D01*
X0121075Y0172482D02*
X0138450Y0172482D01*
X0138450Y0173281D02*
X0132883Y0173281D01*
X0134534Y0174079D02*
X0138450Y0174079D01*
X0138450Y0174878D02*
X0135333Y0174878D01*
X0136131Y0175676D02*
X0138450Y0175676D01*
X0138450Y0176475D02*
X0136746Y0176475D01*
X0136617Y0176162D02*
X0136617Y0176162D01*
X0137077Y0177273D02*
X0138450Y0177273D01*
X0138450Y0178072D02*
X0137408Y0178072D01*
X0137739Y0178870D02*
X0138450Y0178870D01*
X0138450Y0179669D02*
X0137850Y0179669D01*
X0137850Y0180467D02*
X0138450Y0180467D01*
X0138450Y0181266D02*
X0137850Y0181266D01*
X0137850Y0182064D02*
X0138450Y0182064D01*
X0138450Y0182863D02*
X0137642Y0182863D01*
X0137312Y0183661D02*
X0138450Y0183661D01*
X0138450Y0184460D02*
X0136981Y0184460D01*
X0136650Y0185258D02*
X0138450Y0185258D01*
X0138450Y0186057D02*
X0135898Y0186057D01*
X0135100Y0186855D02*
X0138450Y0186855D01*
X0138450Y0187654D02*
X0134249Y0187654D01*
X0134338Y0187617D02*
X0134338Y0187617D01*
X0132321Y0188452D02*
X0138450Y0188452D01*
X0138450Y0166892D02*
X0070855Y0166892D01*
X0070855Y0166094D02*
X0126314Y0166094D01*
X0125162Y0165617D02*
X0125162Y0165617D01*
X0128139Y0166850D01*
X0131361Y0166850D01*
X0134338Y0165617D01*
X0134338Y0165617D01*
X0136617Y0163338D01*
X0136617Y0163338D01*
X0137850Y0160361D01*
X0137850Y0159081D01*
X0137850Y0157139D01*
X0136617Y0154162D01*
X0136617Y0154162D01*
X0134338Y0151883D01*
X0134338Y0151883D01*
X0131361Y0150650D01*
X0128139Y0150650D01*
X0125162Y0151883D01*
X0125162Y0151883D01*
X0122883Y0154162D01*
X0122883Y0154162D01*
X0121650Y0157139D01*
X0121650Y0160361D01*
X0122883Y0163338D01*
X0122883Y0163338D01*
X0125162Y0165617D01*
X0124840Y0165295D02*
X0070855Y0165295D01*
X0070855Y0164497D02*
X0124042Y0164497D01*
X0123243Y0163698D02*
X0070855Y0163698D01*
X0070855Y0162900D02*
X0122702Y0162900D01*
X0122371Y0162101D02*
X0070855Y0162101D01*
X0070855Y0161303D02*
X0122040Y0161303D01*
X0121709Y0160504D02*
X0070855Y0160504D01*
X0070855Y0159706D02*
X0121650Y0159706D01*
X0121650Y0158907D02*
X0070855Y0158907D01*
X0070855Y0158109D02*
X0121650Y0158109D01*
X0121650Y0157310D02*
X0070855Y0157310D01*
X0070855Y0156512D02*
X0121910Y0156512D01*
X0122240Y0155713D02*
X0070855Y0155713D01*
X0070855Y0154915D02*
X0122571Y0154915D01*
X0122929Y0154116D02*
X0070855Y0154116D01*
X0070855Y0153318D02*
X0123727Y0153318D01*
X0124526Y0152519D02*
X0070855Y0152519D01*
X0070855Y0151721D02*
X0125554Y0151721D01*
X0127482Y0150922D02*
X0070855Y0150922D01*
X0070855Y0150124D02*
X0138450Y0150124D01*
X0138450Y0150922D02*
X0132018Y0150922D01*
X0133946Y0151721D02*
X0138450Y0151721D01*
X0138450Y0152519D02*
X0134974Y0152519D01*
X0135773Y0153318D02*
X0138450Y0153318D01*
X0138450Y0154116D02*
X0136571Y0154116D01*
X0136929Y0154915D02*
X0138450Y0154915D01*
X0138450Y0155713D02*
X0137260Y0155713D01*
X0137590Y0156512D02*
X0138450Y0156512D01*
X0138450Y0157310D02*
X0137850Y0157310D01*
X0137850Y0158109D02*
X0138450Y0158109D01*
X0138450Y0158907D02*
X0137850Y0158907D01*
X0137850Y0159706D02*
X0138450Y0159706D01*
X0138450Y0160504D02*
X0137791Y0160504D01*
X0137850Y0160361D02*
X0137850Y0160361D01*
X0137460Y0161303D02*
X0138450Y0161303D01*
X0138450Y0162101D02*
X0137129Y0162101D01*
X0136798Y0162900D02*
X0138450Y0162900D01*
X0138450Y0163698D02*
X0136257Y0163698D01*
X0135458Y0164497D02*
X0138450Y0164497D01*
X0138450Y0165295D02*
X0134660Y0165295D01*
X0133186Y0166094D02*
X0138450Y0166094D01*
X0138450Y0149325D02*
X0070855Y0149325D01*
X0070855Y0148527D02*
X0138450Y0148527D01*
X0151361Y0120650D02*
X0151361Y0120650D01*
X0171162Y0127765D02*
X0178338Y0127765D01*
X0176956Y0126967D02*
X0172543Y0126967D01*
X0173342Y0126168D02*
X0176158Y0126168D01*
X0175821Y0125370D02*
X0173679Y0125370D01*
X0174000Y0124571D02*
X0175500Y0124571D01*
X0175500Y0123773D02*
X0174000Y0123773D01*
X0174000Y0122974D02*
X0175500Y0122974D01*
X0175802Y0122176D02*
X0173698Y0122176D01*
X0173367Y0121377D02*
X0176133Y0121377D01*
X0176911Y0120579D02*
X0172589Y0120579D01*
X0152509Y0097422D02*
X0146991Y0097422D01*
X0147887Y0096623D02*
X0151613Y0096623D01*
X0151009Y0095825D02*
X0148491Y0095825D01*
X0148821Y0095026D02*
X0150679Y0095026D01*
X0150500Y0094228D02*
X0149000Y0094228D01*
X0149000Y0093429D02*
X0150500Y0093429D01*
X0150613Y0092631D02*
X0148887Y0092631D01*
X0148556Y0091832D02*
X0150944Y0091832D01*
X0151456Y0091034D02*
X0148044Y0091034D01*
X0147246Y0090235D02*
X0152254Y0090235D01*
X0231050Y0172150D02*
X0231050Y0259450D01*
X0278350Y0259450D01*
X0278350Y0218160D01*
X0277157Y0219353D01*
X0275595Y0220000D01*
X0273905Y0220000D01*
X0272343Y0219353D01*
X0271147Y0218157D01*
X0270500Y0216595D01*
X0270500Y0214905D01*
X0271147Y0213343D01*
X0272343Y0212147D01*
X0273905Y0211500D01*
X0275595Y0211500D01*
X0277157Y0212147D01*
X0278350Y0213340D01*
X0278350Y0172150D01*
X0253024Y0172150D01*
X0253024Y0199038D01*
X0252790Y0199272D01*
X0236710Y0199272D01*
X0236476Y0199038D01*
X0236476Y0172150D01*
X0231050Y0172150D01*
X0231050Y0172482D02*
X0236476Y0172482D01*
X0236476Y0173281D02*
X0231050Y0173281D01*
X0231050Y0174079D02*
X0236476Y0174079D01*
X0236476Y0174878D02*
X0231050Y0174878D01*
X0231050Y0175676D02*
X0236476Y0175676D01*
X0236476Y0176475D02*
X0231050Y0176475D01*
X0231050Y0177273D02*
X0236476Y0177273D01*
X0236476Y0178072D02*
X0231050Y0178072D01*
X0231050Y0178870D02*
X0236476Y0178870D01*
X0236476Y0179669D02*
X0231050Y0179669D01*
X0231050Y0180467D02*
X0236476Y0180467D01*
X0236476Y0181266D02*
X0231050Y0181266D01*
X0231050Y0182064D02*
X0236476Y0182064D01*
X0236476Y0182863D02*
X0231050Y0182863D01*
X0231050Y0183661D02*
X0236476Y0183661D01*
X0236476Y0184460D02*
X0231050Y0184460D01*
X0231050Y0185258D02*
X0236476Y0185258D01*
X0236476Y0186057D02*
X0231050Y0186057D01*
X0231050Y0186855D02*
X0236476Y0186855D01*
X0236476Y0187654D02*
X0231050Y0187654D01*
X0231050Y0188452D02*
X0236476Y0188452D01*
X0236476Y0189251D02*
X0231050Y0189251D01*
X0231050Y0190049D02*
X0236476Y0190049D01*
X0236476Y0190848D02*
X0231050Y0190848D01*
X0231050Y0191646D02*
X0236476Y0191646D01*
X0236476Y0192445D02*
X0231050Y0192445D01*
X0231050Y0193243D02*
X0236476Y0193243D01*
X0236476Y0194042D02*
X0231050Y0194042D01*
X0231050Y0194840D02*
X0236476Y0194840D01*
X0236476Y0195639D02*
X0231050Y0195639D01*
X0231050Y0196437D02*
X0236476Y0196437D01*
X0236476Y0197236D02*
X0231050Y0197236D01*
X0231050Y0198034D02*
X0236476Y0198034D01*
X0236476Y0198833D02*
X0231050Y0198833D01*
X0231050Y0199631D02*
X0278350Y0199631D01*
X0278350Y0198833D02*
X0253024Y0198833D01*
X0253024Y0198034D02*
X0278350Y0198034D01*
X0278350Y0197236D02*
X0253024Y0197236D01*
X0253024Y0196437D02*
X0278350Y0196437D01*
X0278350Y0195639D02*
X0253024Y0195639D01*
X0253024Y0194840D02*
X0278350Y0194840D01*
X0278350Y0194042D02*
X0253024Y0194042D01*
X0253024Y0193243D02*
X0278350Y0193243D01*
X0278350Y0192445D02*
X0253024Y0192445D01*
X0253024Y0191646D02*
X0278350Y0191646D01*
X0278350Y0190848D02*
X0253024Y0190848D01*
X0253024Y0190049D02*
X0278350Y0190049D01*
X0278350Y0189251D02*
X0253024Y0189251D01*
X0253024Y0188452D02*
X0278350Y0188452D01*
X0278350Y0187654D02*
X0253024Y0187654D01*
X0253024Y0186855D02*
X0278350Y0186855D01*
X0278350Y0186057D02*
X0253024Y0186057D01*
X0253024Y0185258D02*
X0278350Y0185258D01*
X0278350Y0184460D02*
X0253024Y0184460D01*
X0253024Y0183661D02*
X0278350Y0183661D01*
X0278350Y0182863D02*
X0253024Y0182863D01*
X0253024Y0182064D02*
X0278350Y0182064D01*
X0278350Y0181266D02*
X0253024Y0181266D01*
X0253024Y0180467D02*
X0278350Y0180467D01*
X0278350Y0179669D02*
X0253024Y0179669D01*
X0253024Y0178870D02*
X0278350Y0178870D01*
X0278350Y0178072D02*
X0253024Y0178072D01*
X0253024Y0177273D02*
X0278350Y0177273D01*
X0278350Y0176475D02*
X0253024Y0176475D01*
X0253024Y0175676D02*
X0278350Y0175676D01*
X0278350Y0174878D02*
X0253024Y0174878D01*
X0253024Y0174079D02*
X0278350Y0174079D01*
X0278350Y0173281D02*
X0253024Y0173281D01*
X0253024Y0172482D02*
X0278350Y0172482D01*
X0278350Y0200430D02*
X0231050Y0200430D01*
X0231050Y0201228D02*
X0278350Y0201228D01*
X0278350Y0202027D02*
X0231050Y0202027D01*
X0231050Y0202825D02*
X0278350Y0202825D01*
X0278350Y0203624D02*
X0231050Y0203624D01*
X0231050Y0204422D02*
X0278350Y0204422D01*
X0278350Y0205221D02*
X0231050Y0205221D01*
X0231050Y0206020D02*
X0278350Y0206020D01*
X0278350Y0206818D02*
X0231050Y0206818D01*
X0231050Y0207617D02*
X0278350Y0207617D01*
X0278350Y0208415D02*
X0231050Y0208415D01*
X0231050Y0209214D02*
X0278350Y0209214D01*
X0278350Y0210012D02*
X0231050Y0210012D01*
X0231050Y0210811D02*
X0278350Y0210811D01*
X0278350Y0211609D02*
X0275859Y0211609D01*
X0277418Y0212408D02*
X0278350Y0212408D01*
X0278350Y0213206D02*
X0278216Y0213206D01*
X0273641Y0211609D02*
X0260859Y0211609D01*
X0260595Y0211500D02*
X0262157Y0212147D01*
X0263353Y0213343D01*
X0264000Y0214905D01*
X0264000Y0216595D01*
X0263353Y0218157D01*
X0262157Y0219353D01*
X0260595Y0220000D01*
X0258905Y0220000D01*
X0257343Y0219353D01*
X0256147Y0218157D01*
X0255500Y0216595D01*
X0255500Y0214905D01*
X0256147Y0213343D01*
X0257343Y0212147D01*
X0258905Y0211500D01*
X0260595Y0211500D01*
X0258641Y0211609D02*
X0231050Y0211609D01*
X0231050Y0212408D02*
X0257082Y0212408D01*
X0256283Y0213206D02*
X0231050Y0213206D01*
X0231050Y0214005D02*
X0255873Y0214005D01*
X0255542Y0214803D02*
X0231050Y0214803D01*
X0231050Y0215602D02*
X0255500Y0215602D01*
X0255500Y0216400D02*
X0231050Y0216400D01*
X0231050Y0217199D02*
X0255750Y0217199D01*
X0256081Y0217997D02*
X0231050Y0217997D01*
X0231050Y0218796D02*
X0256785Y0218796D01*
X0257925Y0219594D02*
X0231050Y0219594D01*
X0231050Y0220393D02*
X0278350Y0220393D01*
X0278350Y0221191D02*
X0231050Y0221191D01*
X0231050Y0221990D02*
X0278350Y0221990D01*
X0278350Y0222788D02*
X0231050Y0222788D01*
X0231050Y0223587D02*
X0278350Y0223587D01*
X0278350Y0224385D02*
X0231050Y0224385D01*
X0231050Y0225184D02*
X0278350Y0225184D01*
X0278350Y0225982D02*
X0231050Y0225982D01*
X0231050Y0226781D02*
X0278350Y0226781D01*
X0278350Y0227579D02*
X0231050Y0227579D01*
X0231050Y0228378D02*
X0278350Y0228378D01*
X0278350Y0229176D02*
X0231050Y0229176D01*
X0231050Y0229975D02*
X0278350Y0229975D01*
X0278350Y0230773D02*
X0231050Y0230773D01*
X0231050Y0231572D02*
X0278350Y0231572D01*
X0278350Y0232370D02*
X0231050Y0232370D01*
X0231050Y0233169D02*
X0278350Y0233169D01*
X0278350Y0233967D02*
X0231050Y0233967D01*
X0231050Y0234766D02*
X0278350Y0234766D01*
X0278350Y0235564D02*
X0231050Y0235564D01*
X0231050Y0236363D02*
X0278350Y0236363D01*
X0278350Y0237161D02*
X0231050Y0237161D01*
X0231050Y0237960D02*
X0278350Y0237960D01*
X0278350Y0238758D02*
X0231050Y0238758D01*
X0231050Y0239557D02*
X0278350Y0239557D01*
X0278350Y0240355D02*
X0231050Y0240355D01*
X0231050Y0241154D02*
X0278350Y0241154D01*
X0278350Y0241953D02*
X0231050Y0241953D01*
X0231050Y0242751D02*
X0237895Y0242751D01*
X0238139Y0242650D02*
X0241361Y0242650D01*
X0244338Y0243883D01*
X0244338Y0243883D01*
X0246617Y0246162D01*
X0247850Y0249139D01*
X0261650Y0249139D01*
X0261650Y0250419D01*
X0261650Y0252361D01*
X0262883Y0255338D01*
X0262883Y0255338D01*
X0265162Y0257617D01*
X0265162Y0257617D01*
X0268139Y0258850D01*
X0271361Y0258850D01*
X0274338Y0257617D01*
X0274338Y0257617D01*
X0276617Y0255338D01*
X0276617Y0255338D01*
X0277850Y0252361D01*
X0277850Y0249139D01*
X0278350Y0249139D01*
X0277850Y0249139D02*
X0276617Y0246162D01*
X0276617Y0246162D01*
X0274338Y0243883D01*
X0274338Y0243883D01*
X0271361Y0242650D01*
X0268139Y0242650D01*
X0265162Y0243883D01*
X0265162Y0243883D01*
X0262883Y0246162D01*
X0262883Y0246162D01*
X0261650Y0249139D01*
X0261650Y0249139D01*
X0261650Y0249938D02*
X0247850Y0249938D01*
X0247850Y0250736D02*
X0261650Y0250736D01*
X0261650Y0251535D02*
X0247850Y0251535D01*
X0247850Y0252333D02*
X0261650Y0252333D01*
X0261969Y0253132D02*
X0247531Y0253132D01*
X0247850Y0252361D02*
X0246617Y0255338D01*
X0246617Y0255338D01*
X0244338Y0257617D01*
X0241361Y0258850D01*
X0238139Y0258850D01*
X0235162Y0257617D01*
X0235162Y0257617D01*
X0232883Y0255338D01*
X0231650Y0252361D01*
X0231650Y0251081D01*
X0231650Y0249139D01*
X0231050Y0249139D01*
X0231650Y0249139D02*
X0232883Y0246162D01*
X0235162Y0243883D01*
X0238139Y0242650D01*
X0235967Y0243550D02*
X0231050Y0243550D01*
X0231050Y0244348D02*
X0234697Y0244348D01*
X0235162Y0243883D02*
X0235162Y0243883D01*
X0233898Y0245147D02*
X0231050Y0245147D01*
X0231050Y0245945D02*
X0233100Y0245945D01*
X0232883Y0246162D02*
X0232883Y0246162D01*
X0232642Y0246744D02*
X0231050Y0246744D01*
X0231050Y0247542D02*
X0232311Y0247542D01*
X0231981Y0248341D02*
X0231050Y0248341D01*
X0231050Y0249938D02*
X0231650Y0249938D01*
X0231650Y0250736D02*
X0231050Y0250736D01*
X0231050Y0251535D02*
X0231650Y0251535D01*
X0231650Y0252333D02*
X0231050Y0252333D01*
X0231050Y0253132D02*
X0231969Y0253132D01*
X0232300Y0253930D02*
X0231050Y0253930D01*
X0231050Y0254729D02*
X0232631Y0254729D01*
X0233072Y0255527D02*
X0231050Y0255527D01*
X0231050Y0256326D02*
X0233871Y0256326D01*
X0234669Y0257124D02*
X0231050Y0257124D01*
X0231050Y0257923D02*
X0235900Y0257923D01*
X0237828Y0258721D02*
X0231050Y0258721D01*
X0228450Y0258721D02*
X0221672Y0258721D01*
X0223600Y0257923D02*
X0228450Y0257923D01*
X0228450Y0257124D02*
X0224831Y0257124D01*
X0224338Y0257617D02*
X0224338Y0257617D01*
X0225629Y0256326D02*
X0228450Y0256326D01*
X0228450Y0255527D02*
X0226428Y0255527D01*
X0226869Y0254729D02*
X0228450Y0254729D01*
X0228450Y0253930D02*
X0227200Y0253930D01*
X0227531Y0253132D02*
X0228450Y0253132D01*
X0228450Y0252333D02*
X0227850Y0252333D01*
X0227850Y0251535D02*
X0228450Y0251535D01*
X0228450Y0250736D02*
X0227850Y0250736D01*
X0227850Y0249938D02*
X0228450Y0249938D01*
X0228450Y0248341D02*
X0227519Y0248341D01*
X0227189Y0247542D02*
X0228450Y0247542D01*
X0228450Y0246744D02*
X0226858Y0246744D01*
X0226617Y0246162D02*
X0226617Y0246162D01*
X0226400Y0245945D02*
X0228450Y0245945D01*
X0228450Y0245147D02*
X0225602Y0245147D01*
X0224803Y0244348D02*
X0228450Y0244348D01*
X0228450Y0243550D02*
X0223533Y0243550D01*
X0221361Y0242650D02*
X0218139Y0242650D01*
X0215162Y0243883D01*
X0215162Y0243883D01*
X0212883Y0246162D01*
X0212883Y0246162D01*
X0211650Y0249139D01*
X0211981Y0248341D02*
X0157519Y0248341D01*
X0157189Y0247542D02*
X0212311Y0247542D01*
X0212642Y0246744D02*
X0156858Y0246744D01*
X0156617Y0246162D02*
X0156617Y0246162D01*
X0156400Y0245945D02*
X0213100Y0245945D01*
X0213898Y0245147D02*
X0155602Y0245147D01*
X0154803Y0244348D02*
X0214697Y0244348D01*
X0215967Y0243550D02*
X0153533Y0243550D01*
X0151605Y0242751D02*
X0217895Y0242751D01*
X0228450Y0239557D02*
X0156665Y0239557D01*
X0157752Y0238758D02*
X0228450Y0238758D01*
X0228450Y0237960D02*
X0158435Y0237960D01*
X0158766Y0237161D02*
X0228450Y0237161D01*
X0228450Y0236363D02*
X0159000Y0236363D01*
X0159000Y0235564D02*
X0228450Y0235564D01*
X0228450Y0234766D02*
X0158943Y0234766D01*
X0158612Y0233967D02*
X0228450Y0233967D01*
X0228450Y0233169D02*
X0158179Y0233169D01*
X0157381Y0232370D02*
X0228450Y0232370D01*
X0241605Y0242751D02*
X0267895Y0242751D01*
X0265967Y0243550D02*
X0243533Y0243550D01*
X0244803Y0244348D02*
X0264697Y0244348D01*
X0263898Y0245147D02*
X0245602Y0245147D01*
X0246400Y0245945D02*
X0263100Y0245945D01*
X0262642Y0246744D02*
X0246858Y0246744D01*
X0246617Y0246162D02*
X0246617Y0246162D01*
X0247189Y0247542D02*
X0262311Y0247542D01*
X0261981Y0248341D02*
X0247519Y0248341D01*
X0247850Y0249139D02*
X0247850Y0252361D01*
X0247200Y0253930D02*
X0262300Y0253930D01*
X0262631Y0254729D02*
X0246869Y0254729D01*
X0246428Y0255527D02*
X0263072Y0255527D01*
X0263871Y0256326D02*
X0245629Y0256326D01*
X0244831Y0257124D02*
X0264669Y0257124D01*
X0265900Y0257923D02*
X0243600Y0257923D01*
X0244338Y0257617D02*
X0244338Y0257617D01*
X0241672Y0258721D02*
X0267828Y0258721D01*
X0271672Y0258721D02*
X0278350Y0258721D01*
X0278350Y0257923D02*
X0273600Y0257923D01*
X0274831Y0257124D02*
X0278350Y0257124D01*
X0278350Y0256326D02*
X0275629Y0256326D01*
X0276428Y0255527D02*
X0278350Y0255527D01*
X0278350Y0254729D02*
X0276869Y0254729D01*
X0277200Y0253930D02*
X0278350Y0253930D01*
X0278350Y0253132D02*
X0277531Y0253132D01*
X0277850Y0252333D02*
X0278350Y0252333D01*
X0278350Y0251535D02*
X0277850Y0251535D01*
X0277850Y0250736D02*
X0278350Y0250736D01*
X0278350Y0249938D02*
X0277850Y0249938D01*
X0277519Y0248341D02*
X0278350Y0248341D01*
X0278350Y0247542D02*
X0277189Y0247542D01*
X0276858Y0246744D02*
X0278350Y0246744D01*
X0278350Y0245945D02*
X0276400Y0245945D01*
X0275602Y0245147D02*
X0278350Y0245147D01*
X0278350Y0244348D02*
X0274803Y0244348D01*
X0273533Y0243550D02*
X0278350Y0243550D01*
X0278350Y0242751D02*
X0271605Y0242751D01*
X0278350Y0262050D02*
X0236923Y0262050D01*
X0237157Y0262147D01*
X0238353Y0263343D01*
X0239000Y0264905D01*
X0239000Y0266595D01*
X0238353Y0268157D01*
X0237157Y0269353D01*
X0235595Y0270000D01*
X0233905Y0270000D01*
X0232343Y0269353D01*
X0231147Y0268157D01*
X0231050Y0267923D01*
X0231050Y0273577D01*
X0231147Y0273343D01*
X0232343Y0272147D01*
X0233905Y0271500D01*
X0235595Y0271500D01*
X0237157Y0272147D01*
X0238353Y0273343D01*
X0239000Y0274905D01*
X0239000Y0276595D01*
X0238353Y0278157D01*
X0237157Y0279353D01*
X0235595Y0280000D01*
X0233905Y0280000D01*
X0232343Y0279353D01*
X0231147Y0278157D01*
X0231050Y0277923D01*
X0231050Y0284004D01*
X0231092Y0283928D01*
X0231092Y0283892D01*
X0231138Y0283846D01*
X0231193Y0283748D01*
X0231254Y0283730D01*
X0231378Y0283606D01*
X0231440Y0283527D01*
X0231441Y0283501D01*
X0231498Y0283452D01*
X0231627Y0283286D01*
X0231697Y0283277D01*
X0231771Y0283213D01*
X0231847Y0283137D01*
X0231872Y0283037D01*
X0232061Y0282923D01*
X0232081Y0282903D01*
X0232094Y0282903D01*
X0232192Y0282844D01*
X0232386Y0282675D01*
X0232396Y0282650D01*
X0232428Y0282638D01*
X0232473Y0282598D01*
X0232519Y0282601D01*
X0232753Y0282508D01*
X0232879Y0282433D01*
X0232897Y0282400D01*
X0232963Y0282382D01*
X0233083Y0282310D01*
X0233157Y0282329D01*
X0233293Y0282292D01*
X0233408Y0282246D01*
X0233434Y0282210D01*
X0233545Y0282191D01*
X0233675Y0282139D01*
X0233726Y0282161D01*
X0233846Y0282141D01*
X0234037Y0282089D01*
X0234089Y0282037D01*
X0234227Y0282037D01*
X0234249Y0282031D01*
X0234260Y0282037D01*
X0234470Y0282037D01*
X0234846Y0281974D01*
X0234933Y0282037D01*
X0235165Y0282037D01*
X0235230Y0281998D01*
X0235492Y0281736D01*
X0235659Y0281541D01*
X0235659Y0281490D01*
X0235965Y0281185D01*
X0236246Y0280856D01*
X0236297Y0280853D01*
X0236328Y0280821D01*
X0236328Y0280782D01*
X0236628Y0280482D01*
X0236643Y0280464D01*
X0236643Y0280388D01*
X0236880Y0280151D01*
X0237052Y0279864D01*
X0237205Y0279826D01*
X0237514Y0279517D01*
X0238466Y0279517D01*
X0239140Y0280191D01*
X0239140Y0285666D01*
X0239190Y0285731D01*
X0239140Y0286133D01*
X0239140Y0286149D01*
X0239187Y0286234D01*
X0239140Y0286399D01*
X0239140Y0286537D01*
X0239085Y0286593D01*
X0239081Y0286607D01*
X0239069Y0286699D01*
X0239103Y0286835D01*
X0239039Y0286942D01*
X0239033Y0286991D01*
X0238989Y0287026D01*
X0238936Y0287113D01*
X0238847Y0287426D01*
X0238744Y0287483D01*
X0238726Y0287646D01*
X0238516Y0287814D01*
X0238513Y0287819D01*
X0238510Y0287837D01*
X0238495Y0287848D01*
X0238377Y0288045D01*
X0238204Y0288089D01*
X0238151Y0288212D01*
X0237886Y0288317D01*
X0237819Y0288372D01*
X0237777Y0288434D01*
X0237691Y0288451D01*
X0237590Y0288527D01*
X0237465Y0288509D01*
X0237368Y0288525D01*
X0237172Y0288603D01*
X0237172Y0288927D01*
X0237240Y0289232D01*
X0237263Y0289280D01*
X0237172Y0289555D01*
X0237172Y0289844D01*
X0237123Y0289893D01*
X0237131Y0289928D01*
X0236951Y0290216D01*
X0236844Y0290538D01*
X0236800Y0290560D01*
X0236789Y0290653D01*
X0236574Y0290820D01*
X0236429Y0291051D01*
X0236327Y0291074D01*
X0236321Y0291094D01*
X0235985Y0291278D01*
X0235682Y0291513D01*
X0235653Y0291510D01*
X0235594Y0291595D01*
X0235307Y0291648D01*
X0235052Y0291787D01*
X0234976Y0291765D01*
X0234963Y0291778D01*
X0234590Y0291778D01*
X0234362Y0291819D01*
X0234308Y0291854D01*
X0234247Y0291840D01*
X0234223Y0291845D01*
X0234203Y0291831D01*
X0233966Y0291778D01*
X0233689Y0291778D01*
X0233650Y0291791D01*
X0233624Y0291778D01*
X0233616Y0291778D01*
X0233608Y0291770D01*
X0233351Y0291641D01*
X0233024Y0291568D01*
X0232960Y0291468D01*
X0232878Y0291479D01*
X0232646Y0291305D01*
X0232553Y0291305D01*
X0232427Y0291179D01*
X0232247Y0291089D01*
X0232215Y0290995D01*
X0232089Y0290932D01*
X0232070Y0290873D01*
X0231958Y0290790D01*
X0231945Y0290698D01*
X0231840Y0290592D01*
X0231840Y0290185D01*
X0231788Y0290028D01*
X0231810Y0289983D01*
X0231699Y0289976D01*
X0231492Y0289744D01*
X0231229Y0289579D01*
X0231216Y0289522D01*
X0231213Y0289521D01*
X0231050Y0289266D01*
X0231050Y0309350D01*
X0278350Y0309350D01*
X0278350Y0306004D01*
X0259250Y0306004D01*
X0259015Y0305770D01*
X0259015Y0274730D01*
X0259250Y0274496D01*
X0278350Y0274496D01*
X0278350Y0262050D01*
X0278350Y0262714D02*
X0237724Y0262714D01*
X0238423Y0263512D02*
X0278350Y0263512D01*
X0278350Y0264311D02*
X0238754Y0264311D01*
X0239000Y0265109D02*
X0278350Y0265109D01*
X0278350Y0265908D02*
X0239000Y0265908D01*
X0238954Y0266706D02*
X0278350Y0266706D01*
X0278350Y0267505D02*
X0238623Y0267505D01*
X0238207Y0268303D02*
X0278350Y0268303D01*
X0278350Y0269102D02*
X0237408Y0269102D01*
X0235836Y0269900D02*
X0278350Y0269900D01*
X0278350Y0270699D02*
X0231050Y0270699D01*
X0231050Y0271497D02*
X0278350Y0271497D01*
X0278350Y0272296D02*
X0237306Y0272296D01*
X0238105Y0273094D02*
X0278350Y0273094D01*
X0278350Y0273893D02*
X0238581Y0273893D01*
X0238912Y0274691D02*
X0259054Y0274691D01*
X0259015Y0275490D02*
X0239000Y0275490D01*
X0239000Y0276289D02*
X0259015Y0276289D01*
X0259015Y0277087D02*
X0238796Y0277087D01*
X0238466Y0277886D02*
X0259015Y0277886D01*
X0259015Y0278684D02*
X0237826Y0278684D01*
X0236845Y0279483D02*
X0259015Y0279483D01*
X0259015Y0280281D02*
X0239140Y0280281D01*
X0239140Y0281080D02*
X0259015Y0281080D01*
X0259015Y0281878D02*
X0239140Y0281878D01*
X0239140Y0282677D02*
X0259015Y0282677D01*
X0259015Y0283475D02*
X0239140Y0283475D01*
X0239140Y0284274D02*
X0259015Y0284274D01*
X0259015Y0285072D02*
X0239140Y0285072D01*
X0239173Y0285871D02*
X0259015Y0285871D01*
X0259015Y0286669D02*
X0239073Y0286669D01*
X0238771Y0287468D02*
X0259015Y0287468D01*
X0259015Y0288266D02*
X0238015Y0288266D01*
X0237202Y0289065D02*
X0259015Y0289065D01*
X0259015Y0289863D02*
X0237153Y0289863D01*
X0236777Y0290662D02*
X0259015Y0290662D01*
X0259015Y0291460D02*
X0235750Y0291460D01*
X0237156Y0293057D02*
X0231050Y0293057D01*
X0231050Y0292259D02*
X0259015Y0292259D01*
X0259015Y0293057D02*
X0242344Y0293057D01*
X0241361Y0292650D02*
X0244338Y0293883D01*
X0244338Y0293883D01*
X0246617Y0296162D01*
X0247850Y0299139D01*
X0247850Y0301081D01*
X0247850Y0302361D01*
X0247850Y0302361D01*
X0246617Y0305338D01*
X0246617Y0305338D01*
X0244338Y0307617D01*
X0241361Y0308850D01*
X0238139Y0308850D01*
X0235162Y0307617D01*
X0235162Y0307617D01*
X0232883Y0305338D01*
X0231650Y0302361D01*
X0231650Y0299139D01*
X0232883Y0296162D01*
X0235162Y0293883D01*
X0238139Y0292650D01*
X0241361Y0292650D01*
X0244272Y0293856D02*
X0259015Y0293856D01*
X0259015Y0294654D02*
X0245109Y0294654D01*
X0245908Y0295453D02*
X0259015Y0295453D01*
X0259015Y0296251D02*
X0246654Y0296251D01*
X0246617Y0296162D02*
X0246617Y0296162D01*
X0246985Y0297050D02*
X0259015Y0297050D01*
X0259015Y0297848D02*
X0247315Y0297848D01*
X0247646Y0298647D02*
X0259015Y0298647D01*
X0259015Y0299445D02*
X0247850Y0299445D01*
X0247850Y0300244D02*
X0259015Y0300244D01*
X0259015Y0301042D02*
X0247850Y0301042D01*
X0247850Y0301841D02*
X0259015Y0301841D01*
X0259015Y0302639D02*
X0247735Y0302639D01*
X0247404Y0303438D02*
X0259015Y0303438D01*
X0259015Y0304236D02*
X0247073Y0304236D01*
X0246742Y0305035D02*
X0259015Y0305035D01*
X0259079Y0305833D02*
X0246122Y0305833D01*
X0245323Y0306632D02*
X0278350Y0306632D01*
X0278350Y0307430D02*
X0244525Y0307430D01*
X0244338Y0307617D02*
X0244338Y0307617D01*
X0244338Y0307617D01*
X0242860Y0308229D02*
X0278350Y0308229D01*
X0278350Y0309027D02*
X0231050Y0309027D01*
X0231050Y0308229D02*
X0236640Y0308229D01*
X0234975Y0307430D02*
X0231050Y0307430D01*
X0231050Y0306632D02*
X0234177Y0306632D01*
X0233378Y0305833D02*
X0231050Y0305833D01*
X0231050Y0305035D02*
X0232758Y0305035D01*
X0232883Y0305338D02*
X0232883Y0305338D01*
X0232427Y0304236D02*
X0231050Y0304236D01*
X0231050Y0303438D02*
X0232096Y0303438D01*
X0231765Y0302639D02*
X0231050Y0302639D01*
X0231050Y0301841D02*
X0231650Y0301841D01*
X0231650Y0301042D02*
X0231050Y0301042D01*
X0231050Y0300244D02*
X0231650Y0300244D01*
X0231650Y0299445D02*
X0231050Y0299445D01*
X0231050Y0298647D02*
X0231854Y0298647D01*
X0232185Y0297848D02*
X0231050Y0297848D01*
X0231050Y0297050D02*
X0232515Y0297050D01*
X0232846Y0296251D02*
X0231050Y0296251D01*
X0231050Y0295453D02*
X0233592Y0295453D01*
X0232883Y0296162D02*
X0232883Y0296162D01*
X0234391Y0294654D02*
X0231050Y0294654D01*
X0231050Y0293856D02*
X0235228Y0293856D01*
X0235162Y0293883D02*
X0235162Y0293883D01*
X0232852Y0291460D02*
X0231050Y0291460D01*
X0231050Y0290662D02*
X0231909Y0290662D01*
X0231599Y0289863D02*
X0231050Y0289863D01*
X0228450Y0289863D02*
X0141050Y0289863D01*
X0141050Y0289065D02*
X0228450Y0289065D01*
X0228450Y0288266D02*
X0141050Y0288266D01*
X0141050Y0287468D02*
X0228450Y0287468D01*
X0228450Y0286669D02*
X0141050Y0286669D01*
X0141050Y0285871D02*
X0228450Y0285871D01*
X0228450Y0285072D02*
X0141050Y0285072D01*
X0141050Y0284274D02*
X0228450Y0284274D01*
X0228450Y0283475D02*
X0141050Y0283475D01*
X0141050Y0282677D02*
X0228450Y0282677D01*
X0228450Y0281878D02*
X0141050Y0281878D01*
X0141050Y0281080D02*
X0228450Y0281080D01*
X0228450Y0280281D02*
X0141050Y0280281D01*
X0141050Y0279483D02*
X0228450Y0279483D01*
X0228450Y0278684D02*
X0151762Y0278684D01*
X0151361Y0278850D02*
X0150081Y0278850D01*
X0148139Y0278850D01*
X0145162Y0277617D01*
X0145162Y0277617D01*
X0142883Y0275338D01*
X0141650Y0272361D01*
X0141650Y0269139D01*
X0142883Y0266162D01*
X0145162Y0263883D01*
X0148139Y0262650D01*
X0151361Y0262650D01*
X0154338Y0263883D01*
X0156617Y0266162D01*
X0157850Y0269139D01*
X0157850Y0272361D01*
X0156617Y0275338D01*
X0156617Y0275338D01*
X0154338Y0277617D01*
X0151361Y0278850D01*
X0153690Y0277886D02*
X0228450Y0277886D01*
X0228450Y0277087D02*
X0154868Y0277087D01*
X0154338Y0277617D02*
X0154338Y0277617D01*
X0155667Y0276289D02*
X0228450Y0276289D01*
X0228450Y0275490D02*
X0156465Y0275490D01*
X0156885Y0274691D02*
X0228450Y0274691D01*
X0228450Y0273893D02*
X0157216Y0273893D01*
X0157546Y0273094D02*
X0228450Y0273094D01*
X0228450Y0272296D02*
X0157850Y0272296D01*
X0157850Y0271497D02*
X0228450Y0271497D01*
X0228450Y0270699D02*
X0157850Y0270699D01*
X0157850Y0269900D02*
X0168664Y0269900D01*
X0168905Y0270000D02*
X0167343Y0269353D01*
X0166147Y0268157D01*
X0165500Y0266595D01*
X0165500Y0264905D01*
X0166147Y0263343D01*
X0167343Y0262147D01*
X0167577Y0262050D01*
X0141050Y0262050D01*
X0141050Y0309350D01*
X0191476Y0309350D01*
X0191476Y0293576D01*
X0191710Y0293342D01*
X0207790Y0293342D01*
X0208024Y0293576D01*
X0208024Y0309350D01*
X0228450Y0309350D01*
X0228450Y0262050D01*
X0181923Y0262050D01*
X0182157Y0262147D01*
X0183353Y0263343D01*
X0184000Y0264905D01*
X0184000Y0266595D01*
X0183353Y0268157D01*
X0182157Y0269353D01*
X0180595Y0270000D01*
X0178905Y0270000D01*
X0177343Y0269353D01*
X0176147Y0268157D01*
X0175500Y0266595D01*
X0175500Y0264905D01*
X0176147Y0263343D01*
X0177343Y0262147D01*
X0177577Y0262050D01*
X0171923Y0262050D01*
X0172157Y0262147D01*
X0173353Y0263343D01*
X0174000Y0264905D01*
X0174000Y0266595D01*
X0173353Y0268157D01*
X0172157Y0269353D01*
X0170595Y0270000D01*
X0168905Y0270000D01*
X0170836Y0269900D02*
X0178664Y0269900D01*
X0177092Y0269102D02*
X0172408Y0269102D01*
X0173207Y0268303D02*
X0176293Y0268303D01*
X0175877Y0267505D02*
X0173623Y0267505D01*
X0173954Y0266706D02*
X0175546Y0266706D01*
X0175500Y0265908D02*
X0174000Y0265908D01*
X0174000Y0265109D02*
X0175500Y0265109D01*
X0175746Y0264311D02*
X0173754Y0264311D01*
X0173423Y0263512D02*
X0176077Y0263512D01*
X0176776Y0262714D02*
X0172724Y0262714D01*
X0166776Y0262714D02*
X0151515Y0262714D01*
X0153443Y0263512D02*
X0166077Y0263512D01*
X0165746Y0264311D02*
X0154766Y0264311D01*
X0155564Y0265109D02*
X0165500Y0265109D01*
X0165500Y0265908D02*
X0156363Y0265908D01*
X0156617Y0266162D02*
X0156617Y0266162D01*
X0156617Y0266162D01*
X0156842Y0266706D02*
X0165546Y0266706D01*
X0165877Y0267505D02*
X0157173Y0267505D01*
X0157504Y0268303D02*
X0166293Y0268303D01*
X0167092Y0269102D02*
X0157835Y0269102D01*
X0147985Y0262714D02*
X0141050Y0262714D01*
X0141050Y0263512D02*
X0146057Y0263512D01*
X0145162Y0263883D02*
X0145162Y0263883D01*
X0144734Y0264311D02*
X0141050Y0264311D01*
X0141050Y0265109D02*
X0143936Y0265109D01*
X0143137Y0265908D02*
X0141050Y0265908D01*
X0141050Y0266706D02*
X0142658Y0266706D01*
X0142883Y0266162D02*
X0142883Y0266162D01*
X0142327Y0267505D02*
X0141050Y0267505D01*
X0141050Y0268303D02*
X0141996Y0268303D01*
X0141665Y0269102D02*
X0141050Y0269102D01*
X0141050Y0269900D02*
X0141650Y0269900D01*
X0141650Y0270699D02*
X0141050Y0270699D01*
X0141050Y0271497D02*
X0141650Y0271497D01*
X0141650Y0272296D02*
X0141050Y0272296D01*
X0141050Y0273094D02*
X0141954Y0273094D01*
X0142284Y0273893D02*
X0141050Y0273893D01*
X0141050Y0274691D02*
X0142615Y0274691D01*
X0142883Y0275338D02*
X0142883Y0275338D01*
X0143035Y0275490D02*
X0141050Y0275490D01*
X0141050Y0276289D02*
X0143833Y0276289D01*
X0144632Y0277087D02*
X0141050Y0277087D01*
X0141050Y0277886D02*
X0145810Y0277886D01*
X0147738Y0278684D02*
X0141050Y0278684D01*
X0141050Y0290662D02*
X0228450Y0290662D01*
X0228450Y0291460D02*
X0141050Y0291460D01*
X0141050Y0292259D02*
X0228450Y0292259D01*
X0228450Y0293057D02*
X0152344Y0293057D01*
X0151361Y0292650D02*
X0154338Y0293883D01*
X0154338Y0293883D01*
X0156617Y0296162D01*
X0157850Y0299139D01*
X0157850Y0302361D01*
X0156617Y0305338D01*
X0156617Y0305338D01*
X0154338Y0307617D01*
X0151361Y0308850D01*
X0150081Y0308850D01*
X0148139Y0308850D01*
X0145162Y0307617D01*
X0145162Y0307617D01*
X0142883Y0305338D01*
X0141650Y0302361D01*
X0141650Y0299139D01*
X0142883Y0296162D01*
X0142883Y0296162D01*
X0145162Y0293883D01*
X0148139Y0292650D01*
X0151361Y0292650D01*
X0154272Y0293856D02*
X0191476Y0293856D01*
X0191476Y0294654D02*
X0155109Y0294654D01*
X0155908Y0295453D02*
X0191476Y0295453D01*
X0191476Y0296251D02*
X0156654Y0296251D01*
X0156617Y0296162D02*
X0156617Y0296162D01*
X0156985Y0297050D02*
X0191476Y0297050D01*
X0191476Y0297848D02*
X0157315Y0297848D01*
X0157646Y0298647D02*
X0191476Y0298647D01*
X0191476Y0299445D02*
X0157850Y0299445D01*
X0157850Y0300244D02*
X0191476Y0300244D01*
X0191476Y0301042D02*
X0157850Y0301042D01*
X0157850Y0301841D02*
X0191476Y0301841D01*
X0191476Y0302639D02*
X0157735Y0302639D01*
X0157404Y0303438D02*
X0191476Y0303438D01*
X0191476Y0304236D02*
X0157073Y0304236D01*
X0156742Y0305035D02*
X0191476Y0305035D01*
X0191476Y0305833D02*
X0156122Y0305833D01*
X0155323Y0306632D02*
X0191476Y0306632D01*
X0191476Y0307430D02*
X0154525Y0307430D01*
X0154338Y0307617D02*
X0154338Y0307617D01*
X0152860Y0308229D02*
X0191476Y0308229D01*
X0191476Y0309027D02*
X0141050Y0309027D01*
X0141050Y0308229D02*
X0146640Y0308229D01*
X0144975Y0307430D02*
X0141050Y0307430D01*
X0141050Y0306632D02*
X0144177Y0306632D01*
X0143378Y0305833D02*
X0141050Y0305833D01*
X0141050Y0305035D02*
X0142758Y0305035D01*
X0142883Y0305338D02*
X0142883Y0305338D01*
X0142427Y0304236D02*
X0141050Y0304236D01*
X0141050Y0303438D02*
X0142096Y0303438D01*
X0141765Y0302639D02*
X0141050Y0302639D01*
X0141050Y0301841D02*
X0141650Y0301841D01*
X0141650Y0301042D02*
X0141050Y0301042D01*
X0141050Y0300244D02*
X0141650Y0300244D01*
X0141650Y0299445D02*
X0141050Y0299445D01*
X0141050Y0298647D02*
X0141854Y0298647D01*
X0142185Y0297848D02*
X0141050Y0297848D01*
X0141050Y0297050D02*
X0142515Y0297050D01*
X0142846Y0296251D02*
X0141050Y0296251D01*
X0141050Y0295453D02*
X0143592Y0295453D01*
X0144391Y0294654D02*
X0141050Y0294654D01*
X0141050Y0293856D02*
X0145228Y0293856D01*
X0145162Y0293883D02*
X0145162Y0293883D01*
X0147156Y0293057D02*
X0141050Y0293057D01*
X0138450Y0293057D02*
X0132344Y0293057D01*
X0131361Y0292650D02*
X0134338Y0293883D01*
X0134338Y0293883D01*
X0136617Y0296162D01*
X0137850Y0299139D01*
X0137850Y0301081D01*
X0137850Y0302361D01*
X0137850Y0302361D01*
X0136617Y0305338D01*
X0136617Y0305338D01*
X0134338Y0307617D01*
X0131361Y0308850D01*
X0128139Y0308850D01*
X0125162Y0307617D01*
X0125162Y0307617D01*
X0122883Y0305338D01*
X0121650Y0302361D01*
X0121650Y0299139D01*
X0122883Y0296162D01*
X0125162Y0293883D01*
X0128139Y0292650D01*
X0131361Y0292650D01*
X0134272Y0293856D02*
X0138450Y0293856D01*
X0138450Y0294654D02*
X0135109Y0294654D01*
X0135908Y0295453D02*
X0138450Y0295453D01*
X0138450Y0296251D02*
X0136654Y0296251D01*
X0136617Y0296162D02*
X0136617Y0296162D01*
X0136985Y0297050D02*
X0138450Y0297050D01*
X0138450Y0297848D02*
X0137315Y0297848D01*
X0137646Y0298647D02*
X0138450Y0298647D01*
X0138450Y0299445D02*
X0137850Y0299445D01*
X0137850Y0300244D02*
X0138450Y0300244D01*
X0138450Y0301042D02*
X0137850Y0301042D01*
X0137850Y0301841D02*
X0138450Y0301841D01*
X0138450Y0302639D02*
X0137735Y0302639D01*
X0137404Y0303438D02*
X0138450Y0303438D01*
X0138450Y0304236D02*
X0137073Y0304236D01*
X0136742Y0305035D02*
X0138450Y0305035D01*
X0138450Y0305833D02*
X0136122Y0305833D01*
X0135323Y0306632D02*
X0138450Y0306632D01*
X0138450Y0307430D02*
X0134525Y0307430D01*
X0134338Y0307617D02*
X0134338Y0307617D01*
X0132860Y0308229D02*
X0138450Y0308229D01*
X0138450Y0309027D02*
X0070855Y0309027D01*
X0070855Y0308229D02*
X0126640Y0308229D01*
X0124975Y0307430D02*
X0070855Y0307430D01*
X0070855Y0306632D02*
X0124177Y0306632D01*
X0123378Y0305833D02*
X0070855Y0305833D01*
X0070855Y0305035D02*
X0122758Y0305035D01*
X0122883Y0305338D02*
X0122883Y0305338D01*
X0122427Y0304236D02*
X0070855Y0304236D01*
X0070855Y0303438D02*
X0122096Y0303438D01*
X0121765Y0302639D02*
X0070855Y0302639D01*
X0070855Y0301841D02*
X0121650Y0301841D01*
X0121650Y0301042D02*
X0070855Y0301042D01*
X0070855Y0300244D02*
X0121650Y0300244D01*
X0121650Y0299445D02*
X0070855Y0299445D01*
X0070855Y0298647D02*
X0121854Y0298647D01*
X0122185Y0297848D02*
X0070855Y0297848D01*
X0070855Y0297050D02*
X0122515Y0297050D01*
X0122846Y0296251D02*
X0070855Y0296251D01*
X0070855Y0295453D02*
X0123592Y0295453D01*
X0122883Y0296162D02*
X0122883Y0296162D01*
X0124391Y0294654D02*
X0070855Y0294654D01*
X0070855Y0293856D02*
X0125228Y0293856D01*
X0125162Y0293883D02*
X0125162Y0293883D01*
X0127156Y0293057D02*
X0070855Y0293057D01*
X0070855Y0292259D02*
X0138450Y0292259D01*
X0138450Y0291460D02*
X0070855Y0291460D01*
X0070855Y0290662D02*
X0138450Y0290662D01*
X0180836Y0269900D02*
X0228450Y0269900D01*
X0228450Y0269102D02*
X0182408Y0269102D01*
X0183207Y0268303D02*
X0228450Y0268303D01*
X0228450Y0267505D02*
X0183623Y0267505D01*
X0183954Y0266706D02*
X0228450Y0266706D01*
X0228450Y0265908D02*
X0184000Y0265908D01*
X0184000Y0265109D02*
X0228450Y0265109D01*
X0228450Y0264311D02*
X0183754Y0264311D01*
X0183423Y0263512D02*
X0228450Y0263512D01*
X0228450Y0262714D02*
X0182724Y0262714D01*
X0208024Y0293856D02*
X0228450Y0293856D01*
X0228450Y0294654D02*
X0208024Y0294654D01*
X0208024Y0295453D02*
X0228450Y0295453D01*
X0228450Y0296251D02*
X0208024Y0296251D01*
X0208024Y0297050D02*
X0228450Y0297050D01*
X0228450Y0297848D02*
X0208024Y0297848D01*
X0208024Y0298647D02*
X0228450Y0298647D01*
X0228450Y0299445D02*
X0208024Y0299445D01*
X0208024Y0300244D02*
X0228450Y0300244D01*
X0228450Y0301042D02*
X0208024Y0301042D01*
X0208024Y0301841D02*
X0228450Y0301841D01*
X0228450Y0302639D02*
X0208024Y0302639D01*
X0208024Y0303438D02*
X0228450Y0303438D01*
X0228450Y0304236D02*
X0208024Y0304236D01*
X0208024Y0305035D02*
X0228450Y0305035D01*
X0228450Y0305833D02*
X0208024Y0305833D01*
X0208024Y0306632D02*
X0228450Y0306632D01*
X0228450Y0307430D02*
X0208024Y0307430D01*
X0208024Y0308229D02*
X0228450Y0308229D01*
X0228450Y0309027D02*
X0208024Y0309027D01*
X0231050Y0283475D02*
X0231471Y0283475D01*
X0231050Y0282677D02*
X0232384Y0282677D01*
X0231050Y0281878D02*
X0235350Y0281878D01*
X0236055Y0281080D02*
X0231050Y0281080D01*
X0231050Y0280281D02*
X0236750Y0280281D01*
X0232655Y0279483D02*
X0231050Y0279483D01*
X0231050Y0278684D02*
X0231674Y0278684D01*
X0231395Y0273094D02*
X0231050Y0273094D01*
X0231050Y0272296D02*
X0232194Y0272296D01*
X0231050Y0269900D02*
X0233664Y0269900D01*
X0232092Y0269102D02*
X0231050Y0269102D01*
X0231050Y0268303D02*
X0231293Y0268303D01*
X0261575Y0219594D02*
X0272925Y0219594D01*
X0271785Y0218796D02*
X0262715Y0218796D01*
X0263419Y0217997D02*
X0271081Y0217997D01*
X0270750Y0217199D02*
X0263750Y0217199D01*
X0264000Y0216400D02*
X0270500Y0216400D01*
X0270500Y0215602D02*
X0264000Y0215602D01*
X0263958Y0214803D02*
X0270542Y0214803D01*
X0270873Y0214005D02*
X0263627Y0214005D01*
X0263217Y0213206D02*
X0271283Y0213206D01*
X0272082Y0212408D02*
X0262418Y0212408D01*
X0276575Y0219594D02*
X0278350Y0219594D01*
X0278350Y0218796D02*
X0277715Y0218796D01*
X0271361Y0116850D02*
X0268139Y0116850D01*
X0265162Y0115617D01*
X0265162Y0115617D01*
X0262883Y0113338D01*
X0261650Y0110361D01*
X0261650Y0108419D01*
X0261650Y0107139D01*
X0261650Y0107139D01*
X0262883Y0104162D01*
X0265162Y0101883D01*
X0268139Y0100650D01*
X0271361Y0100650D01*
X0274338Y0101883D01*
X0274338Y0101883D01*
X0276617Y0104162D01*
X0277850Y0107139D01*
X0277850Y0110361D01*
X0276617Y0113338D01*
X0276617Y0113338D01*
X0274338Y0115617D01*
X0271361Y0116850D01*
X0271998Y0116586D02*
X0278350Y0116586D01*
X0278350Y0115788D02*
X0273926Y0115788D01*
X0274338Y0115617D02*
X0274338Y0115617D01*
X0274966Y0114989D02*
X0278350Y0114989D01*
X0278350Y0114191D02*
X0275764Y0114191D01*
X0276563Y0113392D02*
X0278350Y0113392D01*
X0278350Y0112594D02*
X0276925Y0112594D01*
X0277256Y0111795D02*
X0278350Y0111795D01*
X0278350Y0110997D02*
X0277587Y0110997D01*
X0277850Y0110198D02*
X0278350Y0110198D01*
X0278350Y0109400D02*
X0277850Y0109400D01*
X0277850Y0108601D02*
X0278350Y0108601D01*
X0278350Y0107803D02*
X0277850Y0107803D01*
X0277794Y0107004D02*
X0278350Y0107004D01*
X0278350Y0106206D02*
X0277463Y0106206D01*
X0277133Y0105407D02*
X0278350Y0105407D01*
X0278350Y0104609D02*
X0276802Y0104609D01*
X0276617Y0104162D02*
X0276617Y0104162D01*
X0276265Y0103810D02*
X0278350Y0103810D01*
X0278350Y0103012D02*
X0275467Y0103012D01*
X0274668Y0102213D02*
X0278350Y0102213D01*
X0278350Y0101415D02*
X0273207Y0101415D01*
X0266293Y0101415D02*
X0243207Y0101415D01*
X0244668Y0102213D02*
X0264832Y0102213D01*
X0265162Y0101883D02*
X0265162Y0101883D01*
X0264033Y0103012D02*
X0245467Y0103012D01*
X0246265Y0103810D02*
X0263235Y0103810D01*
X0262883Y0104162D02*
X0262883Y0104162D01*
X0262698Y0104609D02*
X0246802Y0104609D01*
X0246617Y0104162D02*
X0246617Y0104162D01*
X0247133Y0105407D02*
X0262367Y0105407D01*
X0262037Y0106206D02*
X0247463Y0106206D01*
X0247794Y0107004D02*
X0261706Y0107004D01*
X0261650Y0107803D02*
X0247850Y0107803D01*
X0247850Y0108601D02*
X0261650Y0108601D01*
X0261650Y0109400D02*
X0247850Y0109400D01*
X0247850Y0110198D02*
X0261650Y0110198D01*
X0261913Y0110997D02*
X0247587Y0110997D01*
X0247256Y0111795D02*
X0262244Y0111795D01*
X0262575Y0112594D02*
X0246925Y0112594D01*
X0246563Y0113392D02*
X0262937Y0113392D01*
X0262883Y0113338D02*
X0262883Y0113338D01*
X0263736Y0114191D02*
X0245764Y0114191D01*
X0244966Y0114989D02*
X0264534Y0114989D01*
X0265574Y0115788D02*
X0243926Y0115788D01*
X0244338Y0115617D02*
X0244338Y0115617D01*
X0241998Y0116586D02*
X0267502Y0116586D01*
X0143731Y0231572D02*
X0141050Y0231572D01*
X0141050Y0232370D02*
X0142119Y0232370D01*
X0141321Y0233169D02*
X0141050Y0233169D01*
D13*
X0144750Y0225750D03*
X0149750Y0230750D03*
X0154750Y0225750D03*
X0159750Y0225750D03*
X0164750Y0230750D03*
X0169750Y0225750D03*
X0174750Y0230750D03*
X0179750Y0225750D03*
X0189750Y0225750D03*
X0194750Y0230750D03*
X0199750Y0225750D03*
X0204750Y0230750D03*
X0209750Y0225750D03*
X0214750Y0220750D03*
X0219750Y0225750D03*
X0214750Y0230750D03*
X0219750Y0215750D03*
X0214750Y0210750D03*
X0219750Y0205750D03*
X0214750Y0200750D03*
X0219750Y0195750D03*
X0214750Y0190750D03*
X0219750Y0185750D03*
X0214750Y0180750D03*
X0219750Y0175750D03*
X0215750Y0163750D03*
X0215750Y0158750D03*
X0215750Y0153750D03*
X0210750Y0153750D03*
X0210750Y0158750D03*
X0210750Y0163750D03*
X0210750Y0148750D03*
X0210750Y0143750D03*
X0215750Y0143750D03*
X0215750Y0148750D03*
X0204750Y0148750D03*
X0204750Y0143750D03*
X0199750Y0143750D03*
X0199750Y0148750D03*
X0194750Y0148750D03*
X0194750Y0143750D03*
X0189750Y0143750D03*
X0189750Y0148750D03*
X0184750Y0148750D03*
X0184750Y0143750D03*
X0179750Y0143750D03*
X0179250Y0147750D03*
X0174750Y0143750D03*
X0169750Y0143750D03*
X0170250Y0147750D03*
X0167250Y0147750D03*
X0164750Y0149750D03*
X0164750Y0154750D03*
X0164750Y0159750D03*
X0167250Y0162250D03*
X0170250Y0162250D03*
X0168750Y0165750D03*
X0174750Y0165750D03*
X0179750Y0165750D03*
X0184750Y0165750D03*
X0189250Y0165750D03*
X0189250Y0157750D03*
X0189250Y0153750D03*
X0184750Y0153750D03*
X0184750Y0157750D03*
X0154750Y0175750D03*
X0154750Y0185750D03*
X0154750Y0195750D03*
X0149750Y0199750D03*
X0157750Y0204250D03*
X0157750Y0213750D03*
X0149750Y0218750D03*
X0142750Y0214250D03*
X0142750Y0203750D03*
X0144750Y0195750D03*
X0144750Y0185750D03*
X0144750Y0175750D03*
X0106750Y0175750D03*
X0101750Y0174250D03*
X0106750Y0181250D03*
X0106750Y0185750D03*
X0101250Y0188250D03*
X0100750Y0191250D03*
X0092750Y0191250D03*
X0091750Y0188250D03*
X0086750Y0185750D03*
X0086750Y0181250D03*
X0086750Y0175750D03*
X0091750Y0174250D03*
X0078750Y0163750D03*
X0078750Y0158750D03*
X0078750Y0154750D03*
X0078750Y0150250D03*
X0073750Y0150250D03*
X0073750Y0154750D03*
X0073750Y0158750D03*
X0073750Y0163750D03*
X0073750Y0144250D03*
X0068250Y0144250D03*
X0062750Y0144250D03*
X0062750Y0137750D03*
X0068250Y0137750D03*
X0073750Y0137750D03*
X0073750Y0130750D03*
X0068250Y0130750D03*
X0062750Y0130750D03*
X0057750Y0130750D03*
X0053250Y0130750D03*
X0057750Y0137750D03*
X0057750Y0144250D03*
X0053250Y0144250D03*
X0043250Y0144750D03*
X0043250Y0130750D03*
X0054750Y0093750D03*
X0084750Y0048750D03*
X0086750Y0043750D03*
X0086750Y0039250D03*
X0086750Y0033750D03*
X0091750Y0032250D03*
X0101750Y0032250D03*
X0106750Y0033750D03*
X0106750Y0039250D03*
X0106750Y0043750D03*
X0101250Y0046250D03*
X0100750Y0049250D03*
X0092750Y0049250D03*
X0091750Y0046250D03*
X0144750Y0043750D03*
X0144750Y0053750D03*
X0149750Y0057750D03*
X0154750Y0053750D03*
X0157750Y0062250D03*
X0157750Y0071750D03*
X0149750Y0076750D03*
X0142750Y0072250D03*
X0142750Y0061750D03*
X0154750Y0043750D03*
X0154750Y0033750D03*
X0144750Y0033750D03*
X0144750Y0083750D03*
X0149750Y0088750D03*
X0154750Y0083750D03*
X0159750Y0083750D03*
X0164750Y0088750D03*
X0169750Y0083750D03*
X0174750Y0088750D03*
X0179750Y0083750D03*
X0189750Y0083750D03*
X0194750Y0088750D03*
X0199750Y0083750D03*
X0204750Y0088750D03*
X0209750Y0083750D03*
X0214750Y0078750D03*
X0219750Y0083750D03*
X0214750Y0088750D03*
X0219750Y0073750D03*
X0214750Y0068750D03*
X0219750Y0063750D03*
X0214750Y0058750D03*
X0219750Y0053750D03*
X0214750Y0048750D03*
X0219750Y0043750D03*
X0214750Y0038750D03*
X0219750Y0033750D03*
X0233250Y0033750D03*
X0233250Y0038750D03*
X0233250Y0043750D03*
X0233250Y0048750D03*
X0233250Y0053750D03*
X0233250Y0058250D03*
X0239750Y0059750D03*
X0239750Y0064750D03*
X0234750Y0064750D03*
X0244750Y0064750D03*
X0244750Y0059750D03*
X0249750Y0059750D03*
X0249750Y0064750D03*
X0254750Y0064750D03*
X0254750Y0059750D03*
X0259750Y0059750D03*
X0259750Y0064750D03*
X0261478Y0053750D03*
X0261478Y0050250D03*
X0255750Y0048750D03*
X0255750Y0043750D03*
X0255750Y0039750D03*
X0255750Y0031250D03*
X0262978Y0031250D03*
X0267978Y0031250D03*
X0272978Y0032250D03*
X0276978Y0032250D03*
X0276978Y0037250D03*
X0272478Y0037250D03*
X0276978Y0043750D03*
X0276978Y0048250D03*
X0272478Y0050250D03*
X0272478Y0053750D03*
X0276978Y0053750D03*
X0266978Y0054250D03*
X0255750Y0053750D03*
X0256750Y0123250D03*
X0262250Y0123250D03*
X0267750Y0123250D03*
X0272750Y0123250D03*
X0275250Y0127250D03*
X0275250Y0130750D03*
X0256750Y0133250D03*
X0256750Y0138750D03*
X0249750Y0138750D03*
X0244750Y0138750D03*
X0242250Y0133250D03*
X0242250Y0124250D03*
X0250750Y0165750D03*
X0256250Y0165750D03*
X0262250Y0165750D03*
X0269750Y0165750D03*
X0275750Y0165750D03*
X0276978Y0174250D03*
X0272978Y0174250D03*
X0272478Y0179250D03*
X0276978Y0179250D03*
X0276978Y0185750D03*
X0276978Y0190250D03*
X0272478Y0192250D03*
X0272478Y0195750D03*
X0276978Y0195750D03*
X0266978Y0196250D03*
X0261478Y0195750D03*
X0261478Y0192250D03*
X0255750Y0190750D03*
X0255750Y0185750D03*
X0255750Y0181750D03*
X0255750Y0173250D03*
X0262978Y0173250D03*
X0267978Y0173250D03*
X0255750Y0195750D03*
X0254750Y0201750D03*
X0254750Y0206750D03*
X0249750Y0206750D03*
X0249750Y0201750D03*
X0244750Y0201750D03*
X0244750Y0206750D03*
X0239750Y0206750D03*
X0239750Y0201750D03*
X0233250Y0200250D03*
X0233250Y0195750D03*
X0233250Y0190750D03*
X0233250Y0185750D03*
X0233250Y0180750D03*
X0233250Y0175750D03*
X0259750Y0201750D03*
X0259750Y0206750D03*
X0234750Y0206750D03*
X0242250Y0266250D03*
X0242250Y0275250D03*
X0244750Y0280750D03*
X0249750Y0280750D03*
X0256750Y0280750D03*
X0256750Y0275250D03*
X0256750Y0265250D03*
X0262250Y0265250D03*
X0267750Y0265250D03*
X0272750Y0265250D03*
X0275250Y0269250D03*
X0275250Y0272750D03*
X0275750Y0307750D03*
X0269750Y0307750D03*
X0262250Y0307750D03*
X0256250Y0307750D03*
X0250750Y0307750D03*
X0215750Y0305750D03*
X0215750Y0300750D03*
X0215750Y0295750D03*
X0210750Y0295750D03*
X0210750Y0300750D03*
X0210750Y0305750D03*
X0210750Y0290750D03*
X0210750Y0285750D03*
X0215750Y0285750D03*
X0215750Y0290750D03*
X0204750Y0290750D03*
X0204750Y0285750D03*
X0199750Y0285750D03*
X0199750Y0290750D03*
X0194750Y0290750D03*
X0194750Y0285750D03*
X0189750Y0285750D03*
X0189750Y0290750D03*
X0184750Y0290750D03*
X0184750Y0285750D03*
X0179750Y0285750D03*
X0179250Y0289750D03*
X0174750Y0285750D03*
X0169750Y0285750D03*
X0170250Y0289750D03*
X0167250Y0289750D03*
X0164750Y0291750D03*
X0164750Y0296750D03*
X0164750Y0301750D03*
X0167250Y0304250D03*
X0170250Y0304250D03*
X0168750Y0307750D03*
X0174750Y0307750D03*
X0179750Y0307750D03*
X0184750Y0307750D03*
X0189250Y0307750D03*
X0189250Y0299750D03*
X0189250Y0295750D03*
X0184750Y0295750D03*
X0184750Y0299750D03*
X0124750Y0235750D03*
X0084750Y0190750D03*
X0054750Y0235750D03*
X0053250Y0272750D03*
X0057750Y0272750D03*
X0062750Y0272750D03*
X0068250Y0272750D03*
X0073750Y0272750D03*
X0073750Y0279750D03*
X0068250Y0279750D03*
X0062750Y0279750D03*
X0062750Y0286250D03*
X0068250Y0286250D03*
X0073750Y0286250D03*
X0073750Y0292250D03*
X0073750Y0296750D03*
X0073750Y0300750D03*
X0073750Y0305750D03*
X0078750Y0305750D03*
X0078750Y0300750D03*
X0078750Y0296750D03*
X0078750Y0292250D03*
X0057750Y0286250D03*
X0053250Y0286250D03*
X0057750Y0279750D03*
X0043250Y0272750D03*
X0043250Y0286750D03*
X0124750Y0093750D03*
D14*
X0144750Y0093750D03*
X0154750Y0093750D03*
X0169750Y0123750D03*
X0179750Y0123750D03*
X0234750Y0123750D03*
X0234750Y0133750D03*
X0259750Y0073750D03*
X0274750Y0073750D03*
X0274750Y0215750D03*
X0259750Y0215750D03*
X0234750Y0265750D03*
X0234750Y0275750D03*
X0179750Y0265750D03*
X0169750Y0265750D03*
X0154750Y0235750D03*
X0144750Y0235750D03*
X0084750Y0275750D03*
X0084750Y0285750D03*
X0069750Y0185750D03*
X0069750Y0175750D03*
X0084750Y0143750D03*
X0084750Y0133750D03*
X0069750Y0043750D03*
X0069750Y0033750D03*
M02*
